{"asset":{"version":"2.0","generator":"GLTFExporter"},"scenes":[{"name":"AuxScene","nodes":[41]}],"scene":0,"nodes":[{"rotation":[1,0,0,6.123233995736766e-17],"scale":[0.1,0.1,0.1],"mesh":0},{"rotation":[1,0,0,6.123233995736766e-17],"scale":[0.1,0.1,0.1],"mesh":1},{"rotation":[1,0,0,6.123233995736766e-17],"scale":[0.1,0.1,0.1],"mesh":2},{"rotation":[1,0,0,6.123233995736766e-17],"scale":[0.1,0.1,0.1],"mesh":3},{"rotation":[1,0,0,6.123233995736766e-17],"scale":[0.1,0.1,0.1],"mesh":4},{"rotation":[1,0,0,6.123233995736766e-17],"scale":[0.1,0.1,0.1],"mesh":5},{"rotation":[1,0,0,6.123233995736766e-17],"scale":[0.1,0.1,0.1],"mesh":6},{"rotation":[1,0,0,6.123233995736766e-17],"scale":[0.1,0.1,0.1],"mesh":7},{"rotation":[1,0,0,6.123233995736766e-17],"scale":[0.1,0.1,0.1],"mesh":8},{"rotation":[1,0,0,6.123233995736766e-17],"scale":[0.1,0.1,0.1],"mesh":9},{"rotation":[1,0,0,6.123233995736766e-17],"scale":[0.1,0.1,0.1],"mesh":10},{"rotation":[1,0,0,6.123233995736766e-17],"scale":[0.1,0.1,0.1],"mesh":11},{"rotation":[1,0,0,6.123233995736766e-17],"scale":[0.1,0.1,0.1],"mesh":12},{"rotation":[1,0,0,6.123233995736766e-17],"scale":[0.1,0.1,0.1],"mesh":13},{"rotation":[1,0,0,6.123233995736766e-17],"scale":[0.1,0.1,0.1],"mesh":14},{"rotation":[1,0,0,6.123233995736766e-17],"scale":[0.1,0.1,0.1],"mesh":15},{"rotation":[1,0,0,6.123233995736766e-17],"scale":[0.1,0.1,0.1],"mesh":16},{"rotation":[1,0,0,6.123233995736766e-17],"scale":[0.1,0.1,0.1],"mesh":17},{"rotation":[1,0,0,6.123233995736766e-17],"scale":[0.1,0.1,0.1],"mesh":18},{"rotation":[1,0,0,6.123233995736766e-17],"scale":[0.1,0.1,0.1],"mesh":19},{"rotation":[1,0,0,6.123233995736766e-17],"scale":[0.1,0.1,0.1],"mesh":20},{"rotation":[1,0,0,6.123233995736766e-17],"scale":[0.1,0.1,0.1],"mesh":21},{"rotation":[1,0,0,6.123233995736766e-17],"scale":[0.1,0.1,0.1],"mesh":22},{"rotation":[1,0,0,6.123233995736766e-17],"scale":[0.1,0.1,0.1],"mesh":23},{"rotation":[1,0,0,6.123233995736766e-17],"scale":[0.1,0.1,0.1],"mesh":24},{"rotation":[1,0,0,6.123233995736766e-17],"scale":[0.1,0.1,0.1],"mesh":25},{"rotation":[1,0,0,6.123233995736766e-17],"scale":[0.1,0.1,0.1],"mesh":26},{"rotation":[1,0,0,6.123233995736766e-17],"scale":[0.1,0.1,0.1],"mesh":27},{"rotation":[1,0,0,6.123233995736766e-17],"scale":[0.1,0.1,0.1],"mesh":28},{"rotation":[1,0,0,6.123233995736766e-17],"scale":[0.1,0.1,0.1],"mesh":29},{"rotation":[1,0,0,6.123233995736766e-17],"scale":[0.1,0.1,0.1],"mesh":30},{"rotation":[1,0,0,6.123233995736766e-17],"scale":[0.1,0.1,0.1],"mesh":31},{"rotation":[1,0,0,6.123233995736766e-17],"scale":[0.1,0.1,0.1],"mesh":32},{"rotation":[1,0,0,6.123233995736766e-17],"scale":[0.1,0.1,0.1],"mesh":33},{"rotation":[1,0,0,6.123233995736766e-17],"scale":[0.1,0.1,0.1],"mesh":34},{"rotation":[1,0,0,6.123233995736766e-17],"scale":[0.1,0.1,0.1],"mesh":35},{"rotation":[1,0,0,6.123233995736766e-17],"scale":[0.1,0.1,0.1],"mesh":36},{"rotation":[1,0,0,6.123233995736766e-17],"scale":[0.1,0.1,0.1],"mesh":37},{"rotation":[1,0,0,6.123233995736766e-17],"scale":[0.1,0.1,0.1],"mesh":38},{"rotation":[1,0,0,6.123233995736766e-17],"scale":[0.1,0.1,0.1],"mesh":39},{"rotation":[1,0,0,6.123233995736766e-17],"scale":[0.1,0.1,0.1],"mesh":40},{"children":[0,1,2,3,4,5,6,7,8,9,10,11,12,13,14,15,16,17,18,19,20,21,22,23,24,25,26,27,28,29,30,31,32,33,34,35,36,37,38,39,40]}],"bufferViews":[{"buffer":0,"byteOffset":0,"byteLength":1692,"target":34962,"byteStride":12},{"buffer":0,"byteOffset":1692,"byteLength":1692,"target":34962,"byteStride":12},{"buffer":0,"byteOffset":3384,"byteLength":1128,"target":34962,"byteStride":8},{"buffer":0,"byteOffset":4512,"byteLength":1692,"target":34962,"byteStride":12},{"buffer":0,"byteOffset":6204,"byteLength":416,"target":34963},{"buffer":0,"byteOffset":6620,"byteLength":672,"target":34962,"byteStride":12},{"buffer":0,"byteOffset":7292,"byteLength":672,"target":34962,"byteStride":12},{"buffer":0,"byteOffset":7964,"byteLength":448,"target":34962,"byteStride":8},{"buffer":0,"byteOffset":8412,"byteLength":672,"target":34962,"byteStride":12},{"buffer":0,"byteOffset":9084,"byteLength":168,"target":34963},{"buffer":0,"byteOffset":9252,"byteLength":288,"target":34962,"byteStride":12},{"buffer":0,"byteOffset":9540,"byteLength":288,"target":34962,"byteStride":12},{"buffer":0,"byteOffset":9828,"byteLength":192,"target":34962,"byteStride":8},{"buffer":0,"byteOffset":10020,"byteLength":288,"target":34962,"byteStride":12},{"buffer":0,"byteOffset":10308,"byteLength":72,"target":34963},{"buffer":0,"byteOffset":10380,"byteLength":84,"target":34962,"byteStride":12},{"buffer":0,"byteOffset":10464,"byteLength":84,"target":34962,"byteStride":12},{"buffer":0,"byteOffset":10548,"byteLength":56,"target":34962,"byteStride":8},{"buffer":0,"byteOffset":10604,"byteLength":84,"target":34962,"byteStride":12},{"buffer":0,"byteOffset":10688,"byteLength":20,"target":34963},{"buffer":0,"byteOffset":10708,"byteLength":324,"target":34962,"byteStride":12},{"buffer":0,"byteOffset":11032,"byteLength":324,"target":34962,"byteStride":12},{"buffer":0,"byteOffset":11356,"byteLength":216,"target":34962,"byteStride":8},{"buffer":0,"byteOffset":11572,"byteLength":324,"target":34962,"byteStride":12},{"buffer":0,"byteOffset":11896,"byteLength":80,"target":34963},{"buffer":0,"byteOffset":11976,"byteLength":48,"target":34962,"byteStride":12},{"buffer":0,"byteOffset":12024,"byteLength":48,"target":34962,"byteStride":12},{"buffer":0,"byteOffset":12072,"byteLength":32,"target":34962,"byteStride":8},{"buffer":0,"byteOffset":12104,"byteLength":48,"target":34962,"byteStride":12},{"buffer":0,"byteOffset":12152,"byteLength":12,"target":34963},{"buffer":0,"byteOffset":12164,"byteLength":240,"target":34962,"byteStride":12},{"buffer":0,"byteOffset":12404,"byteLength":240,"target":34962,"byteStride":12},{"buffer":0,"byteOffset":12644,"byteLength":160,"target":34962,"byteStride":8},{"buffer":0,"byteOffset":12804,"byteLength":240,"target":34962,"byteStride":12},{"buffer":0,"byteOffset":13044,"byteLength":60,"target":34963},{"buffer":0,"byteOffset":13104,"byteLength":48,"target":34962,"byteStride":12},{"buffer":0,"byteOffset":13152,"byteLength":48,"target":34962,"byteStride":12},{"buffer":0,"byteOffset":13200,"byteLength":32,"target":34962,"byteStride":8},{"buffer":0,"byteOffset":13232,"byteLength":48,"target":34962,"byteStride":12},{"buffer":0,"byteOffset":13280,"byteLength":12,"target":34963},{"buffer":0,"byteOffset":13292,"byteLength":576,"target":34962,"byteStride":12},{"buffer":0,"byteOffset":13868,"byteLength":576,"target":34962,"byteStride":12},{"buffer":0,"byteOffset":14444,"byteLength":384,"target":34962,"byteStride":8},{"buffer":0,"byteOffset":14828,"byteLength":576,"target":34962,"byteStride":12},{"buffer":0,"byteOffset":15404,"byteLength":144,"target":34963},{"buffer":0,"byteOffset":15548,"byteLength":624,"target":34962,"byteStride":12},{"buffer":0,"byteOffset":16172,"byteLength":624,"target":34962,"byteStride":12},{"buffer":0,"byteOffset":16796,"byteLength":416,"target":34962,"byteStride":8},{"buffer":0,"byteOffset":17212,"byteLength":624,"target":34962,"byteStride":12},{"buffer":0,"byteOffset":17836,"byteLength":156,"target":34963},{"buffer":0,"byteOffset":17992,"byteLength":576,"target":34962,"byteStride":12},{"buffer":0,"byteOffset":18568,"byteLength":576,"target":34962,"byteStride":12},{"buffer":0,"byteOffset":19144,"byteLength":384,"target":34962,"byteStride":8},{"buffer":0,"byteOffset":19528,"byteLength":576,"target":34962,"byteStride":12},{"buffer":0,"byteOffset":20104,"byteLength":144,"target":34963},{"buffer":0,"byteOffset":20248,"byteLength":624,"target":34962,"byteStride":12},{"buffer":0,"byteOffset":20872,"byteLength":624,"target":34962,"byteStride":12},{"buffer":0,"byteOffset":21496,"byteLength":416,"target":34962,"byteStride":8},{"buffer":0,"byteOffset":21912,"byteLength":624,"target":34962,"byteStride":12},{"buffer":0,"byteOffset":22536,"byteLength":156,"target":34963},{"buffer":0,"byteOffset":22692,"byteLength":384,"target":34962,"byteStride":12},{"buffer":0,"byteOffset":23076,"byteLength":384,"target":34962,"byteStride":12},{"buffer":0,"byteOffset":23460,"byteLength":256,"target":34962,"byteStride":8},{"buffer":0,"byteOffset":23716,"byteLength":384,"target":34962,"byteStride":12},{"buffer":0,"byteOffset":24100,"byteLength":96,"target":34963},{"buffer":0,"byteOffset":24196,"byteLength":288,"target":34962,"byteStride":12},{"buffer":0,"byteOffset":24484,"byteLength":288,"target":34962,"byteStride":12},{"buffer":0,"byteOffset":24772,"byteLength":192,"target":34962,"byteStride":8},{"buffer":0,"byteOffset":24964,"byteLength":288,"target":34962,"byteStride":12},{"buffer":0,"byteOffset":25252,"byteLength":48,"target":34963},{"buffer":0,"byteOffset":25300,"byteLength":8208,"target":34962,"byteStride":12},{"buffer":0,"byteOffset":33508,"byteLength":8208,"target":34962,"byteStride":12},{"buffer":0,"byteOffset":41716,"byteLength":5472,"target":34962,"byteStride":8},{"buffer":0,"byteOffset":47188,"byteLength":8208,"target":34962,"byteStride":12},{"buffer":0,"byteOffset":55396,"byteLength":1896,"target":34963},{"buffer":0,"byteOffset":57292,"byteLength":6192,"target":34962,"byteStride":12},{"buffer":0,"byteOffset":63484,"byteLength":6192,"target":34962,"byteStride":12},{"buffer":0,"byteOffset":69676,"byteLength":4128,"target":34962,"byteStride":8},{"buffer":0,"byteOffset":73804,"byteLength":6192,"target":34962,"byteStride":12},{"buffer":0,"byteOffset":79996,"byteLength":1548,"target":34963},{"buffer":0,"byteOffset":81544,"byteLength":2976,"target":34962,"byteStride":12},{"buffer":0,"byteOffset":84520,"byteLength":2976,"target":34962,"byteStride":12},{"buffer":0,"byteOffset":87496,"byteLength":1984,"target":34962,"byteStride":8},{"buffer":0,"byteOffset":89480,"byteLength":2976,"target":34962,"byteStride":12},{"buffer":0,"byteOffset":92456,"byteLength":744,"target":34963},{"buffer":0,"byteOffset":93200,"byteLength":144,"target":34962,"byteStride":12},{"buffer":0,"byteOffset":93344,"byteLength":144,"target":34962,"byteStride":12},{"buffer":0,"byteOffset":93488,"byteLength":96,"target":34962,"byteStride":8},{"buffer":0,"byteOffset":93584,"byteLength":144,"target":34962,"byteStride":12},{"buffer":0,"byteOffset":93728,"byteLength":36,"target":34963},{"buffer":0,"byteOffset":93764,"byteLength":2184,"target":34962,"byteStride":12},{"buffer":0,"byteOffset":95948,"byteLength":2184,"target":34962,"byteStride":12},{"buffer":0,"byteOffset":98132,"byteLength":1456,"target":34962,"byteStride":8},{"buffer":0,"byteOffset":99588,"byteLength":2184,"target":34962,"byteStride":12},{"buffer":0,"byteOffset":101772,"byteLength":504,"target":34963},{"buffer":0,"byteOffset":102276,"byteLength":768,"target":34962,"byteStride":12},{"buffer":0,"byteOffset":103044,"byteLength":768,"target":34962,"byteStride":12},{"buffer":0,"byteOffset":103812,"byteLength":512,"target":34962,"byteStride":8},{"buffer":0,"byteOffset":104324,"byteLength":768,"target":34962,"byteStride":12},{"buffer":0,"byteOffset":105092,"byteLength":192,"target":34963},{"buffer":0,"byteOffset":105284,"byteLength":96,"target":34962,"byteStride":12},{"buffer":0,"byteOffset":105380,"byteLength":96,"target":34962,"byteStride":12},{"buffer":0,"byteOffset":105476,"byteLength":64,"target":34962,"byteStride":8},{"buffer":0,"byteOffset":105540,"byteLength":96,"target":34962,"byteStride":12},{"buffer":0,"byteOffset":105636,"byteLength":24,"target":34963},{"buffer":0,"byteOffset":105660,"byteLength":1152,"target":34962,"byteStride":12},{"buffer":0,"byteOffset":106812,"byteLength":1152,"target":34962,"byteStride":12},{"buffer":0,"byteOffset":107964,"byteLength":768,"target":34962,"byteStride":8},{"buffer":0,"byteOffset":108732,"byteLength":1152,"target":34962,"byteStride":12},{"buffer":0,"byteOffset":109884,"byteLength":276,"target":34963},{"buffer":0,"byteOffset":110160,"byteLength":768,"target":34962,"byteStride":12},{"buffer":0,"byteOffset":110928,"byteLength":768,"target":34962,"byteStride":12},{"buffer":0,"byteOffset":111696,"byteLength":512,"target":34962,"byteStride":8},{"buffer":0,"byteOffset":112208,"byteLength":768,"target":34962,"byteStride":12},{"buffer":0,"byteOffset":112976,"byteLength":192,"target":34963},{"buffer":0,"byteOffset":113168,"byteLength":192,"target":34962,"byteStride":12},{"buffer":0,"byteOffset":113360,"byteLength":192,"target":34962,"byteStride":12},{"buffer":0,"byteOffset":113552,"byteLength":128,"target":34962,"byteStride":8},{"buffer":0,"byteOffset":113680,"byteLength":192,"target":34962,"byteStride":12},{"buffer":0,"byteOffset":113872,"byteLength":48,"target":34963},{"buffer":0,"byteOffset":113920,"byteLength":2640,"target":34962,"byteStride":12},{"buffer":0,"byteOffset":116560,"byteLength":2640,"target":34962,"byteStride":12},{"buffer":0,"byteOffset":119200,"byteLength":1760,"target":34962,"byteStride":8},{"buffer":0,"byteOffset":120960,"byteLength":2640,"target":34962,"byteStride":12},{"buffer":0,"byteOffset":123600,"byteLength":588,"target":34963},{"buffer":0,"byteOffset":124188,"byteLength":1056,"target":34962,"byteStride":12},{"buffer":0,"byteOffset":125244,"byteLength":1056,"target":34962,"byteStride":12},{"buffer":0,"byteOffset":126300,"byteLength":704,"target":34962,"byteStride":8},{"buffer":0,"byteOffset":127004,"byteLength":1056,"target":34962,"byteStride":12},{"buffer":0,"byteOffset":128060,"byteLength":264,"target":34963},{"buffer":0,"byteOffset":128324,"byteLength":576,"target":34962,"byteStride":12},{"buffer":0,"byteOffset":128900,"byteLength":576,"target":34962,"byteStride":12},{"buffer":0,"byteOffset":129476,"byteLength":384,"target":34962,"byteStride":8},{"buffer":0,"byteOffset":129860,"byteLength":576,"target":34962,"byteStride":12},{"buffer":0,"byteOffset":130436,"byteLength":144,"target":34963},{"buffer":0,"byteOffset":130580,"byteLength":2256,"target":34962,"byteStride":12},{"buffer":0,"byteOffset":132836,"byteLength":2256,"target":34962,"byteStride":12},{"buffer":0,"byteOffset":135092,"byteLength":1504,"target":34962,"byteStride":8},{"buffer":0,"byteOffset":136596,"byteLength":2256,"target":34962,"byteStride":12},{"buffer":0,"byteOffset":138852,"byteLength":516,"target":34963},{"buffer":0,"byteOffset":139368,"byteLength":912,"target":34962,"byteStride":12},{"buffer":0,"byteOffset":140280,"byteLength":912,"target":34962,"byteStride":12},{"buffer":0,"byteOffset":141192,"byteLength":608,"target":34962,"byteStride":8},{"buffer":0,"byteOffset":141800,"byteLength":912,"target":34962,"byteStride":12},{"buffer":0,"byteOffset":142712,"byteLength":228,"target":34963},{"buffer":0,"byteOffset":142940,"byteLength":672,"target":34962,"byteStride":12},{"buffer":0,"byteOffset":143612,"byteLength":672,"target":34962,"byteStride":12},{"buffer":0,"byteOffset":144284,"byteLength":448,"target":34962,"byteStride":8},{"buffer":0,"byteOffset":144732,"byteLength":672,"target":34962,"byteStride":12},{"buffer":0,"byteOffset":145404,"byteLength":168,"target":34963},{"buffer":0,"byteOffset":145572,"byteLength":864,"target":34962,"byteStride":12},{"buffer":0,"byteOffset":146436,"byteLength":864,"target":34962,"byteStride":12},{"buffer":0,"byteOffset":147300,"byteLength":576,"target":34962,"byteStride":8},{"buffer":0,"byteOffset":147876,"byteLength":864,"target":34962,"byteStride":12},{"buffer":0,"byteOffset":148740,"byteLength":204,"target":34963},{"buffer":0,"byteOffset":148944,"byteLength":480,"target":34962,"byteStride":12},{"buffer":0,"byteOffset":149424,"byteLength":480,"target":34962,"byteStride":12},{"buffer":0,"byteOffset":149904,"byteLength":320,"target":34962,"byteStride":8},{"buffer":0,"byteOffset":150224,"byteLength":480,"target":34962,"byteStride":12},{"buffer":0,"byteOffset":150704,"byteLength":120,"target":34963},{"buffer":0,"byteOffset":150824,"byteLength":1344,"target":34962,"byteStride":12},{"buffer":0,"byteOffset":152168,"byteLength":1344,"target":34962,"byteStride":12},{"buffer":0,"byteOffset":153512,"byteLength":896,"target":34962,"byteStride":8},{"buffer":0,"byteOffset":154408,"byteLength":1344,"target":34962,"byteStride":12},{"buffer":0,"byteOffset":155752,"byteLength":336,"target":34963},{"buffer":0,"byteOffset":156088,"byteLength":864,"target":34962,"byteStride":12},{"buffer":0,"byteOffset":156952,"byteLength":864,"target":34962,"byteStride":12},{"buffer":0,"byteOffset":157816,"byteLength":576,"target":34962,"byteStride":8},{"buffer":0,"byteOffset":158392,"byteLength":864,"target":34962,"byteStride":12},{"buffer":0,"byteOffset":159256,"byteLength":192,"target":34963},{"buffer":0,"byteOffset":159448,"byteLength":432,"target":34962,"byteStride":12},{"buffer":0,"byteOffset":159880,"byteLength":432,"target":34962,"byteStride":12},{"buffer":0,"byteOffset":160312,"byteLength":288,"target":34962,"byteStride":8},{"buffer":0,"byteOffset":160600,"byteLength":432,"target":34962,"byteStride":12},{"buffer":0,"byteOffset":161032,"byteLength":108,"target":34963},{"buffer":0,"byteOffset":161140,"byteLength":864,"target":34962,"byteStride":12},{"buffer":0,"byteOffset":162004,"byteLength":864,"target":34962,"byteStride":12},{"buffer":0,"byteOffset":162868,"byteLength":576,"target":34962,"byteStride":8},{"buffer":0,"byteOffset":163444,"byteLength":864,"target":34962,"byteStride":12},{"buffer":0,"byteOffset":164308,"byteLength":192,"target":34963},{"buffer":0,"byteOffset":164500,"byteLength":960,"target":34962,"byteStride":12},{"buffer":0,"byteOffset":165460,"byteLength":960,"target":34962,"byteStride":12},{"buffer":0,"byteOffset":166420,"byteLength":640,"target":34962,"byteStride":8},{"buffer":0,"byteOffset":167060,"byteLength":960,"target":34962,"byteStride":12},{"buffer":0,"byteOffset":168020,"byteLength":240,"target":34963},{"buffer":0,"byteOffset":168260,"byteLength":672,"target":34962,"byteStride":12},{"buffer":0,"byteOffset":168932,"byteLength":672,"target":34962,"byteStride":12},{"buffer":0,"byteOffset":169604,"byteLength":448,"target":34962,"byteStride":8},{"buffer":0,"byteOffset":170052,"byteLength":672,"target":34962,"byteStride":12},{"buffer":0,"byteOffset":170724,"byteLength":168,"target":34963},{"buffer":0,"byteOffset":170892,"byteLength":144,"target":34962,"byteStride":12},{"buffer":0,"byteOffset":171036,"byteLength":144,"target":34962,"byteStride":12},{"buffer":0,"byteOffset":171180,"byteLength":96,"target":34962,"byteStride":8},{"buffer":0,"byteOffset":171276,"byteLength":144,"target":34962,"byteStride":12},{"buffer":0,"byteOffset":171420,"byteLength":36,"target":34963},{"buffer":0,"byteOffset":171456,"byteLength":1152,"target":34962,"byteStride":12},{"buffer":0,"byteOffset":172608,"byteLength":1152,"target":34962,"byteStride":12},{"buffer":0,"byteOffset":173760,"byteLength":768,"target":34962,"byteStride":8},{"buffer":0,"byteOffset":174528,"byteLength":1152,"target":34962,"byteStride":12},{"buffer":0,"byteOffset":175680,"byteLength":276,"target":34963},{"buffer":0,"byteOffset":175956,"byteLength":1296,"target":34962,"byteStride":12},{"buffer":0,"byteOffset":177252,"byteLength":1296,"target":34962,"byteStride":12},{"buffer":0,"byteOffset":178548,"byteLength":864,"target":34962,"byteStride":8},{"buffer":0,"byteOffset":179412,"byteLength":1296,"target":34962,"byteStride":12},{"buffer":0,"byteOffset":180708,"byteLength":324,"target":34963}],"buffers":[{"byteLength":181032,"uri":"data:application/octet-stream;base64,"}],"accessors":[{"bufferView":0,"componentType":5126,"count":141,"max":[1664,0,3456],"min":[896,0,1152],"type":"VEC3"},{"bufferView":1,"componentType":5126,"count":141,"max":[0.29019609093666077,0.6705882549285889,1],"min":[0,0,0],"type":"VEC3"},{"bufferView":2,"componentType":5126,"count":141,"max":[0.4921875,0.5],"min":[0,0.0078125],"type":"VEC2"},{"bufferView":3,"componentType":5126,"count":141,"max":[0,-1,0],"min":[0,-1,0],"type":"VEC3"},{"bufferView":4,"componentType":5123,"count":207,"max":[140],"min":[0],"type":"SCALAR"},{"bufferView":5,"componentType":5126,"count":56,"max":[2304,-64,3616],"min":[128,-320,3360],"type":"VEC3"},{"bufferView":6,"componentType":5126,"count":56,"max":[0.40784314274787903,0.5843137502670288,0.800000011920929],"min":[0,0,0],"type":"VEC3"},{"bufferView":7,"componentType":5126,"count":56,"max":[0.2421875,0.5],"min":[0,0.2578125],"type":"VEC2"},{"bufferView":8,"componentType":5126,"count":56,"max":[-0.12403473258018494,0,-0.9922778606414795],"min":[-0.12403473258018494,0,-0.9922778606414795],"type":"VEC3"},{"bufferView":9,"componentType":5123,"count":84,"max":[55],"min":[0],"type":"SCALAR"},{"bufferView":10,"componentType":5126,"count":24,"max":[1280,-64,3520],"min":[896,-576,3488],"type":"VEC3"},{"bufferView":11,"componentType":5126,"count":24,"max":[0.501960813999176,0.7490196228027344,1],"min":[0.05882352963089943,0.09803921729326248,0.13333334028720856],"type":"VEC3"},{"bufferView":12,"componentType":5126,"count":24,"max":[0.9921875,0.5],"min":[0.625,0.0078125],"type":"VEC2"},{"bufferView":13,"componentType":5126,"count":24,"max":[-0.08304548263549805,0,-0.9965457320213318],"min":[-0.08304548263549805,0,-0.9965457320213318],"type":"VEC3"},{"bufferView":14,"componentType":5123,"count":36,"max":[23],"min":[0],"type":"SCALAR"},{"bufferView":15,"componentType":5126,"count":7,"max":[1408,-384,3712],"min":[1280,-640,3712],"type":"VEC3"},{"bufferView":16,"componentType":5126,"count":7,"max":[0.47843137383461,0.615686297416687,0.8196078538894653],"min":[0.1411764770746231,0.34117648005485535,0.5529412031173706],"type":"VEC3"},{"bufferView":17,"componentType":5126,"count":7,"max":[0.3671875,0.5],"min":[0.25,0.2578125],"type":"VEC2"},{"bufferView":18,"componentType":5126,"count":7,"max":[0,0,-1],"min":[0,0,-1],"type":"VEC3"},{"bufferView":19,"componentType":5123,"count":9,"max":[6],"min":[0],"type":"SCALAR"},{"bufferView":20,"componentType":5126,"count":27,"max":[1920,-128,3712],"min":[1408,-640,3712],"type":"VEC3"},{"bufferView":21,"componentType":5126,"count":27,"max":[0.47843137383461,0.6235294342041016,0.8274509906768799],"min":[0,0,0],"type":"VEC3"},{"bufferView":22,"componentType":5126,"count":27,"max":[0.4921875,1],"min":[0,0.5078125],"type":"VEC2"},{"bufferView":23,"componentType":5126,"count":27,"max":[0,0,-1],"min":[0,0,-1],"type":"VEC3"},{"bufferView":24,"componentType":5123,"count":39,"max":[26],"min":[0],"type":"SCALAR"},{"bufferView":25,"componentType":5126,"count":4,"max":[1536,-384,3712],"min":[1408,-512,3712],"type":"VEC3"},{"bufferView":26,"componentType":5126,"count":4,"max":[0.47843137383461,0.6235294342041016,0.8274509906768799],"min":[0.20392157137393951,0.3529411852359772,0.5411764979362488],"type":"VEC3"},{"bufferView":27,"componentType":5126,"count":4,"max":[0.7421875,0.75],"min":[0.625,0.6328125],"type":"VEC2"},{"bufferView":28,"componentType":5126,"count":4,"max":[0,0,-1],"min":[0,0,-1],"type":"VEC3"},{"bufferView":29,"componentType":5123,"count":6,"max":[3],"min":[0],"type":"SCALAR"},{"bufferView":30,"componentType":5126,"count":20,"max":[1408,-128,3712],"min":[896,-640,3712],"type":"VEC3"},{"bufferView":31,"componentType":5126,"count":20,"max":[0.4274509847164154,0.615686297416687,0.8196078538894653],"min":[0,0,0],"type":"VEC3"},{"bufferView":32,"componentType":5126,"count":20,"max":[0.9921875,1],"min":[0.5,0.5078125],"type":"VEC2"},{"bufferView":33,"componentType":5126,"count":20,"max":[0,0,-1],"min":[0,0,-1],"type":"VEC3"},{"bufferView":34,"componentType":5123,"count":30,"max":[19],"min":[0],"type":"SCALAR"},{"bufferView":35,"componentType":5126,"count":4,"max":[1408,-640,3712],"min":[1280,-896,3712],"type":"VEC3"},{"bufferView":36,"componentType":5126,"count":4,"max":[0.4274509847164154,0.615686297416687,0.8196078538894653],"min":[0,0.08235294371843338,0.23529411852359772],"type":"VEC3"},{"bufferView":37,"componentType":5126,"count":4,"max":[0.6171875,0.75],"min":[0.5,0.5078125],"type":"VEC2"},{"bufferView":38,"componentType":5126,"count":4,"max":[0,0,-1],"min":[0,0,-1],"type":"VEC3"},{"bufferView":39,"componentType":5123,"count":6,"max":[3],"min":[0],"type":"SCALAR"},{"bufferView":40,"componentType":5126,"count":48,"max":[2432,-384,4224],"min":[128,-1152,3776],"type":"VEC3"},{"bufferView":41,"componentType":5126,"count":48,"max":[0.21568627655506134,0.45098039507865906,0.7215686440467834],"min":[0,0,0],"type":"VEC3"},{"bufferView":42,"componentType":5126,"count":48,"max":[0.9921875,0.5],"min":[0.9609375,0.4453125],"type":"VEC2"},{"bufferView":43,"componentType":5126,"count":48,"max":[0.5547001957893372,0,-0.8320503234863281],"min":[-0.5547001957893372,0,-0.986393928527832],"type":"VEC3"},{"bufferView":44,"componentType":5123,"count":72,"max":[47],"min":[0],"type":"SCALAR"},{"bufferView":45,"componentType":5126,"count":52,"max":[2688,-896,4448],"min":[0,-1920,3584],"type":"VEC3"},{"bufferView":46,"componentType":5126,"count":52,"max":[0.26274511218070984,0.48235294222831726,0.7686274647712708],"min":[0,0,0],"type":"VEC3"},{"bufferView":47,"componentType":5126,"count":52,"max":[0.2421875,0.5],"min":[0,0.0078125],"type":"VEC2"},{"bufferView":48,"componentType":5126,"count":52,"max":[0.3078596591949463,0.5541085004806519,-0.7416771054267883],"min":[-0.4532471001148224,0.28276416659355164,-0.9473684430122375],"type":"VEC3"},{"bufferView":49,"componentType":5123,"count":78,"max":[51],"min":[0],"type":"SCALAR"},{"bufferView":50,"componentType":5126,"count":48,"max":[2432,-384,704],"min":[128,-1152,256],"type":"VEC3"},{"bufferView":51,"componentType":5126,"count":48,"max":[0.19607843458652496,0.4627451002597809,0.729411780834198],"min":[0,0,0],"type":"VEC3"},{"bufferView":52,"componentType":5126,"count":48,"max":[0.9921875,0.5],"min":[0.9609375,0.4453125],"type":"VEC2"},{"bufferView":53,"componentType":5126,"count":48,"max":[0.5547001957893372,0,0.986393928527832],"min":[-0.5547001957893372,0,0.8320503234863281],"type":"VEC3"},{"bufferView":54,"componentType":5123,"count":72,"max":[47],"min":[0],"type":"SCALAR"},{"bufferView":55,"componentType":5126,"count":52,"max":[2688,-896,896],"min":[0,-1920,0],"type":"VEC3"},{"bufferView":56,"componentType":5126,"count":52,"max":[0.20000000298023224,0.47058823704719543,0.7411764860153198],"min":[0,0,0],"type":"VEC3"},{"bufferView":57,"componentType":5126,"count":52,"max":[0.2421875,0.5],"min":[0,0.0078125],"type":"VEC2"},{"bufferView":58,"componentType":5126,"count":52,"max":[0.408838152885437,0.5541085004806519,0.9473684430122375],"min":[-0.4532471001148224,0.2885916531085968,0.7416771054267883],"type":"VEC3"},{"bufferView":59,"componentType":5123,"count":78,"max":[51],"min":[0],"type":"SCALAR"},{"bufferView":60,"componentType":5126,"count":32,"max":[1768,-1864,1336],"min":[624,-2168,496],"type":"VEC3"},{"bufferView":61,"componentType":5126,"count":32,"max":[0.20392157137393951,0.4745098054409027,0.7490196228027344],"min":[0,0,0],"type":"VEC3"},{"bufferView":62,"componentType":5126,"count":32,"max":[0.2421875,0.5],"min":[0,0.0078125],"type":"VEC2"},{"bufferView":63,"componentType":5126,"count":32,"max":[0.014940572902560234,0.9441211223602295,0.35399308800697327],"min":[-0.021455246955156326,0.9351317286491394,0.32914313673973083],"type":"VEC3"},{"bufferView":64,"componentType":5123,"count":48,"max":[31],"min":[0],"type":"SCALAR"},{"bufferView":65,"componentType":5126,"count":24,"max":[1280,-2104,1040],"min":[1024,-2192,792],"type":"VEC3"},{"bufferView":66,"componentType":5126,"count":24,"max":[0.2862745225429535,0.4274509847164154,0.5490196347236633],"min":[0,0,0],"type":"VEC3"},{"bufferView":67,"componentType":5126,"count":24,"max":[0.9921875,1],"min":[0.625,0.6328125],"type":"VEC2"},{"bufferView":68,"componentType":5126,"count":24,"max":[0.0309344120323658,0.9542913436889648,0.3712129294872284],"min":[-0.0309344120323658,0.9280323386192322,0.2982160449028015],"type":"VEC3"},{"bufferView":69,"componentType":5123,"count":24,"max":[23],"min":[0],"type":"SCALAR"},{"bufferView":70,"componentType":5126,"count":684,"max":[1816,0,2024],"min":[608,-768,1376],"type":"VEC3"},{"bufferView":71,"componentType":5126,"count":684,"max":[0.24313725531101227,0.40392157435417175,0.6470588445663452],"min":[0,0,0],"type":"VEC3"},{"bufferView":72,"componentType":5126,"count":684,"max":[0.9921875,1],"min":[0.75,0.7578125],"type":"VEC2"},{"bufferView":73,"componentType":5126,"count":684,"max":[1,0.9701424837112427,1],"min":[-1,-1,-1],"type":"VEC3"},{"bufferView":74,"componentType":5123,"count":948,"max":[683],"min":[0],"type":"SCALAR"},{"bufferView":75,"componentType":5126,"count":516,"max":[2128,-56,2312],"min":[384,-960,1080],"type":"VEC3"},{"bufferView":76,"componentType":5126,"count":516,"max":[0.27843138575553894,0.7568627595901489,1],"min":[0.04313725605607033,0.04313725605607033,0.04313725605607033],"type":"VEC3"},{"bufferView":77,"componentType":5126,"count":516,"max":[0.9921875,0.5],"min":[0.5,0.0078125],"type":"VEC2"},{"bufferView":78,"componentType":5126,"count":516,"max":[0.5082409381866455,-0.8277591466903687,0.531794548034668],"min":[-0.5083402395248413,-0.9960238337516785,-0.47707292437553406],"type":"VEC3"},{"bufferView":79,"componentType":5123,"count":774,"max":[515],"min":[0],"type":"SCALAR"},{"bufferView":80,"componentType":5126,"count":248,"max":[1872,-24,2080],"min":[568,-544,1184],"type":"VEC3"},{"bufferView":81,"componentType":5126,"count":248,"max":[0.18039216101169586,0.4627451002597809,0.7411764860153198],"min":[0.04313725605607033,0.05098039284348488,0.05882352963089943],"type":"VEC3"},{"bufferView":82,"componentType":5126,"count":248,"max":[0.7421875,1],"min":[0.5,0.7578125],"type":"VEC2"},{"bufferView":83,"componentType":5126,"count":248,"max":[0.6323157548904419,-0.713904857635498,0.6598687171936035],"min":[-0.5224311947822571,-0.9882695078849792,-0.562443733215332],"type":"VEC3"},{"bufferView":84,"componentType":5123,"count":372,"max":[247],"min":[0],"type":"SCALAR"},{"bufferView":85,"componentType":5126,"count":12,"max":[1792,0,1376],"min":[1536,-352,1248],"type":"VEC3"},{"bufferView":86,"componentType":5126,"count":12,"max":[0.2078431397676468,0.34117648005485535,0.5254902243614197],"min":[0,0,0],"type":"VEC3"},{"bufferView":87,"componentType":5126,"count":12,"max":[0.2421875,1],"min":[0,0.7578125],"type":"VEC2"},{"bufferView":88,"componentType":5126,"count":12,"max":[0,0,0],"min":[-1,0,-1],"type":"VEC3"},{"bufferView":89,"componentType":5123,"count":18,"max":[11],"min":[0],"type":"SCALAR"},{"bufferView":90,"componentType":5126,"count":182,"max":[1048,0,2720],"min":[824,-512,2656],"type":"VEC3"},{"bufferView":91,"componentType":5126,"count":182,"max":[0.22745098173618317,0.40392157435417175,0.6549019813537598],"min":[0,0,0],"type":"VEC3"},{"bufferView":92,"componentType":5126,"count":182,"max":[0.9921875,1],"min":[0.75,0.7578125],"type":"VEC2"},{"bufferView":93,"componentType":5126,"count":182,"max":[1,0.9701424837112427,1],"min":[-1,-0.9922778606414795,-1],"type":"VEC3"},{"bufferView":94,"componentType":5123,"count":252,"max":[181],"min":[0],"type":"SCALAR"},{"bufferView":95,"componentType":5126,"count":64,"max":[1248,-128,3040],"min":[504,-528,2536],"type":"VEC3"},{"bufferView":96,"componentType":5126,"count":64,"max":[0.3764705955982208,0.5686274766921997,0.7764706015586853],"min":[0.0470588244497776,0.062745101749897,0.07450980693101883],"type":"VEC3"},{"bufferView":97,"componentType":5126,"count":64,"max":[0.9921875,0.5],"min":[0.5,0.0078125],"type":"VEC2"},{"bufferView":98,"componentType":5126,"count":64,"max":[0.29449909925460815,-0.8793555498123169,0.4587942063808441],"min":[-0.4423258602619171,-0.973280131816864,-0.4070013463497162],"type":"VEC3"},{"bufferView":99,"componentType":5123,"count":96,"max":[63],"min":[0],"type":"SCALAR"},{"bufferView":100,"componentType":5126,"count":8,"max":[1120,-336,2752],"min":[992,-416,2624],"type":"VEC3"},{"bufferView":101,"componentType":5126,"count":8,"max":[0.1568627506494522,0.32156863808631897,0.5176470875740051],"min":[0.054901961237192154,0.08627451211214066,0.11764705926179886],"type":"VEC3"},{"bufferView":102,"componentType":5126,"count":8,"max":[0.7421875,1],"min":[0.5,0.7578125],"type":"VEC2"},{"bufferView":103,"componentType":5126,"count":8,"max":[0.423999160528183,-0.847998321056366,-0.31799936294555664],"min":[-0.423999160528183,-0.847998321056366,-0.31799936294555664],"type":"VEC3"},{"bufferView":104,"componentType":5123,"count":12,"max":[7],"min":[0],"type":"SCALAR"},{"bufferView":105,"componentType":5126,"count":96,"max":[896,0,2624],"min":[816,-640,2448],"type":"VEC3"},{"bufferView":106,"componentType":5126,"count":96,"max":[0.21176470816135406,0.30980393290519714,0.45490196347236633],"min":[0,0,0],"type":"VEC3"},{"bufferView":107,"componentType":5126,"count":96,"max":[0.9921875,1],"min":[0.75,0.7578125],"type":"VEC2"},{"bufferView":108,"componentType":5126,"count":96,"max":[1,0.9615239500999451,0.8282943964004517],"min":[-1,-1,-1],"type":"VEC3"},{"bufferView":109,"componentType":5123,"count":138,"max":[95],"min":[0],"type":"SCALAR"},{"bufferView":110,"componentType":5126,"count":64,"max":[1272,-288,2984],"min":[512,-960,2320],"type":"VEC3"},{"bufferView":111,"componentType":5126,"count":64,"max":[0.27843138575553894,0.7568627595901489,1],"min":[0.05098039284348488,0.06666667014360428,0.08235294371843338],"type":"VEC3"},{"bufferView":112,"componentType":5126,"count":64,"max":[0.9921875,0.5],"min":[0.5,0.0078125],"type":"VEC2"},{"bufferView":113,"componentType":5126,"count":64,"max":[0.4105517566204071,-0.8997353911399841,0.4257970452308655],"min":[-0.4217187762260437,-0.9862121939659119,-0.42340490221977234],"type":"VEC3"},{"bufferView":114,"componentType":5123,"count":96,"max":[63],"min":[0],"type":"SCALAR"},{"bufferView":115,"componentType":5126,"count":16,"max":[1024,-240,2624],"min":[840,-368,2368],"type":"VEC3"},{"bufferView":116,"componentType":5126,"count":16,"max":[0.1725490242242813,0.3921568691730499,0.6000000238418579],"min":[0.054901961237192154,0.08235294371843338,0.10980392247438431],"type":"VEC3"},{"bufferView":117,"componentType":5126,"count":16,"max":[0.7421875,1],"min":[0.5,0.7578125],"type":"VEC2"},{"bufferView":118,"componentType":5126,"count":16,"max":[0.5489634275436401,-0.8303071856498718,0.423999160528183],"min":[-0.05176069587469101,-0.8540514707565308,-0.5176069140434265],"type":"VEC3"},{"bufferView":119,"componentType":5123,"count":24,"max":[15],"min":[0],"type":"SCALAR"},{"bufferView":120,"componentType":5126,"count":220,"max":[872,0,2472],"min":[808,-560,2232],"type":"VEC3"},{"bufferView":121,"componentType":5126,"count":220,"max":[0.1568627506494522,0.30588236451148987,0.49803921580314636],"min":[0,0,0],"type":"VEC3"},{"bufferView":122,"componentType":5126,"count":220,"max":[0.9921875,1],"min":[0.75,0.7578125],"type":"VEC2"},{"bufferView":123,"componentType":5126,"count":220,"max":[1,0.9701424837112427,1],"min":[-1,-0.9922778606414795,-1],"type":"VEC3"},{"bufferView":124,"componentType":5123,"count":294,"max":[219],"min":[0],"type":"SCALAR"},{"bufferView":125,"componentType":5126,"count":88,"max":[1296,-256,2688],"min":[256,-832,1920],"type":"VEC3"},{"bufferView":126,"componentType":5126,"count":88,"max":[0.2705882489681244,0.6392157077789307,1],"min":[0.04313725605607033,0.04313725605607033,0.04313725605607033],"type":"VEC3"},{"bufferView":127,"componentType":5126,"count":88,"max":[0.9921875,0.5],"min":[0.5,0.0078125],"type":"VEC2"},{"bufferView":128,"componentType":5126,"count":88,"max":[0.4257970452308655,-0.8944271802902222,0.4257970452308655],"min":[-0.4472135901451111,-0.9810229539871216,-0.4257970452308655],"type":"VEC3"},{"bufferView":129,"componentType":5123,"count":132,"max":[87],"min":[0],"type":"SCALAR"},{"bufferView":130,"componentType":5126,"count":48,"max":[1056,-48,2456],"min":[792,-200,2144],"type":"VEC3"},{"bufferView":131,"componentType":5126,"count":48,"max":[0.3607843220233917,0.5529412031173706,0.7960784435272217],"min":[0.0117647061124444,0.019607843831181526,0.027450980618596077],"type":"VEC3"},{"bufferView":132,"componentType":5126,"count":48,"max":[0.7421875,1],"min":[0.5,0.7578125],"type":"VEC2"},{"bufferView":133,"componentType":5126,"count":48,"max":[0.4153326153755188,-0.8798255920410156,0.4466806948184967],"min":[-0.14530783891677856,-0.9202830195426941,-0.4466806948184967],"type":"VEC3"},{"bufferView":134,"componentType":5123,"count":72,"max":[47],"min":[0],"type":"SCALAR"},{"bufferView":135,"componentType":5126,"count":188,"max":[992,0,2208],"min":[928,-656,2024],"type":"VEC3"},{"bufferView":136,"componentType":5126,"count":188,"max":[0.18039216101169586,0.3960784375667572,0.6352941393852234],"min":[0,0,0],"type":"VEC3"},{"bufferView":137,"componentType":5126,"count":188,"max":[0.9921875,1],"min":[0.8671875,0.7578125],"type":"VEC2"},{"bufferView":138,"componentType":5126,"count":188,"max":[1,0.9701424837112427,1],"min":[-1,-0.9922778606414795,-1],"type":"VEC3"},{"bufferView":139,"componentType":5123,"count":258,"max":[187],"min":[0],"type":"SCALAR"},{"bufferView":140,"componentType":5126,"count":76,"max":[1280,-344,2376],"min":[440,-768,1752],"type":"VEC3"},{"bufferView":141,"componentType":5126,"count":76,"max":[0.26274511218070984,0.7098039388656616,1],"min":[0.05098039284348488,0.06666667014360428,0.08627451211214066],"type":"VEC3"},{"bufferView":142,"componentType":5126,"count":76,"max":[0.9921875,0.5],"min":[0.5,0.0078125],"type":"VEC2"},{"bufferView":143,"componentType":5126,"count":76,"max":[0.4587942063808441,-0.8793555498123169,0.4423258602619171],"min":[-0.3505237400531769,-0.9992293119430542,-0.41399046778678894],"type":"VEC3"},{"bufferView":144,"componentType":5123,"count":114,"max":[75],"min":[0],"type":"SCALAR"},{"bufferView":145,"componentType":5126,"count":56,"max":[1088,-112,2288],"min":[768,-320,1880],"type":"VEC3"},{"bufferView":146,"componentType":5126,"count":56,"max":[0.24313725531101227,0.48627451062202454,0.7921568751335144],"min":[0.027450980618596077,0.05882352963089943,0.09019608050584793],"type":"VEC3"},{"bufferView":147,"componentType":5126,"count":56,"max":[0.7421875,1],"min":[0.5,0.7578125],"type":"VEC2"},{"bufferView":148,"componentType":5126,"count":56,"max":[0.4153326153755188,-0.8798255920410156,0.4466806948184967],"min":[-0.1666746735572815,-0.936329185962677,-0.4466806948184967],"type":"VEC3"},{"bufferView":149,"componentType":5123,"count":84,"max":[55],"min":[0],"type":"SCALAR"},{"bufferView":150,"componentType":5126,"count":72,"max":[1816,0,2712],"min":[1688,-520,2616],"type":"VEC3"},{"bufferView":151,"componentType":5126,"count":72,"max":[0.08235294371843338,0.16078431904315948,0.239215686917305],"min":[0,0,0],"type":"VEC3"},{"bufferView":152,"componentType":5126,"count":72,"max":[0.9296875,1],"min":[0.8125,0.7578125],"type":"VEC2"},{"bufferView":153,"componentType":5126,"count":72,"max":[0.8682431578636169,0.9191450476646423,1],"min":[-1,-0.9899494647979736,-1],"type":"VEC3"},{"bufferView":154,"componentType":5123,"count":102,"max":[71],"min":[0],"type":"SCALAR"},{"bufferView":155,"componentType":5126,"count":40,"max":[1984,-72,2832],"min":[1480,-504,2560],"type":"VEC3"},{"bufferView":156,"componentType":5126,"count":40,"max":[0.0941176488995552,0.20000000298023224,0.3019607961177826],"min":[0.05098039284348488,0.07058823853731155,0.09019608050584793],"type":"VEC3"},{"bufferView":157,"componentType":5126,"count":40,"max":[0.9921875,0.5],"min":[0.5,0.0078125],"type":"VEC2"},{"bufferView":158,"componentType":5126,"count":40,"max":[0.3511234521865845,-0.8990802764892578,0.23606684803962708],"min":[-0.3541002571582794,-0.9755372405052185,-0.35623934864997864],"type":"VEC3"},{"bufferView":159,"componentType":5123,"count":60,"max":[39],"min":[0],"type":"SCALAR"},{"bufferView":160,"componentType":5126,"count":112,"max":[1720,-16,2840],"min":[1408,-552,2496],"type":"VEC3"},{"bufferView":161,"componentType":5126,"count":112,"max":[0.22745098173618317,0.4274509847164154,0.6470588445663452],"min":[0.04313725605607033,0.04313725605607033,0.04313725605607033],"type":"VEC3"},{"bufferView":162,"componentType":5126,"count":112,"max":[0.7421875,1],"min":[0.5,0.7578125],"type":"VEC2"},{"bufferView":163,"componentType":5126,"count":112,"max":[0.4466806948184967,-0.8654876947402954,0.4466806948184967],"min":[-0.46185559034347534,-0.9326703548431396,-0.4894971251487732],"type":"VEC3"},{"bufferView":164,"componentType":5123,"count":168,"max":[111],"min":[0],"type":"SCALAR"},{"bufferView":165,"componentType":5126,"count":72,"max":[1768,0,2592],"min":[1664,-768,2448],"type":"VEC3"},{"bufferView":166,"componentType":5126,"count":72,"max":[0.16470588743686676,0.3333333432674408,0.5490196347236633],"min":[0,0,0],"type":"VEC3"},{"bufferView":167,"componentType":5126,"count":72,"max":[0.9921875,1],"min":[0.75,0.7578125],"type":"VEC2"},{"bufferView":168,"componentType":5126,"count":72,"max":[1,0.18428853154182434,0.999614417552948],"min":[-1,-0.24253562092781067,-0.999614417552948],"type":"VEC3"},{"bufferView":169,"componentType":5123,"count":96,"max":[71],"min":[0],"type":"SCALAR"},{"bufferView":170,"componentType":5126,"count":36,"max":[2048,-472,2944],"min":[1352,-896,2296],"type":"VEC3"},{"bufferView":171,"componentType":5126,"count":36,"max":[0.4274509847164154,0.6745098233222961,0.8784313797950745],"min":[0.05098039284348488,0.062745101749897,0.0784313753247261],"type":"VEC3"},{"bufferView":172,"componentType":5126,"count":36,"max":[0.9921875,0.5],"min":[0.5,0.0078125],"type":"VEC2"},{"bufferView":173,"componentType":5126,"count":36,"max":[0.5846205949783325,-0.782009482383728,0.30151134729385376],"min":[-0.18257418274879456,-0.9960238337516785,-0.4742836058139801],"type":"VEC3"},{"bufferView":174,"componentType":5123,"count":54,"max":[35],"min":[0],"type":"SCALAR"},{"bufferView":175,"componentType":5126,"count":72,"max":[1664,0,2480],"min":[1536,-768,2400],"type":"VEC3"},{"bufferView":176,"componentType":5126,"count":72,"max":[0.1764705926179886,0.33725491166114807,0.5176470875740051],"min":[0,0,0],"type":"VEC3"},{"bufferView":177,"componentType":5126,"count":72,"max":[0.9921875,1],"min":[0.75,0.7578125],"type":"VEC2"},{"bufferView":178,"componentType":5126,"count":72,"max":[0.9980525970458984,0.16439898312091827,1],"min":[-0.9980525970458984,-0.24253562092781067,-1],"type":"VEC3"},{"bufferView":179,"componentType":5123,"count":96,"max":[71],"min":[0],"type":"SCALAR"},{"bufferView":180,"componentType":5126,"count":80,"max":[1872,-176,2792],"min":[1232,-928,2136],"type":"VEC3"},{"bufferView":181,"componentType":5126,"count":80,"max":[0.2666666805744171,0.7215686440467834,1],"min":[0.04313725605607033,0.04313725605607033,0.04313725605607033],"type":"VEC3"},{"bufferView":182,"componentType":5126,"count":80,"max":[0.9921875,0.5],"min":[0.5,0.0078125],"type":"VEC2"},{"bufferView":183,"componentType":5126,"count":80,"max":[0.4472135901451111,-0.8295994997024536,0.531794548034668],"min":[-0.39431890845298767,-0.9897852540016174,-0.39799273014068604],"type":"VEC3"},{"bufferView":184,"componentType":5123,"count":120,"max":[79],"min":[0],"type":"SCALAR"},{"bufferView":185,"componentType":5126,"count":56,"max":[1792,-80,2416],"min":[1384,-376,2144],"type":"VEC3"},{"bufferView":186,"componentType":5126,"count":56,"max":[0.21568627655506134,0.3450980484485626,0.5137255191802979],"min":[0.05098039284348488,0.07450980693101883,0.0941176488995552],"type":"VEC3"},{"bufferView":187,"componentType":5126,"count":56,"max":[0.7421875,1],"min":[0.5,0.7578125],"type":"VEC2"},{"bufferView":188,"componentType":5126,"count":56,"max":[0.2954615354537964,-0.7848197221755981,0.5447572469711304],"min":[-0.2733604907989502,-0.963624119758606,-0.4767313003540039],"type":"VEC3"},{"bufferView":189,"componentType":5123,"count":84,"max":[55],"min":[0],"type":"SCALAR"},{"bufferView":190,"componentType":5126,"count":12,"max":[1792,0,2400],"min":[1536,-352,2144],"type":"VEC3"},{"bufferView":191,"componentType":5126,"count":12,"max":[0.2078431397676468,0.34117648005485535,0.5254902243614197],"min":[0,0,0],"type":"VEC3"},{"bufferView":192,"componentType":5126,"count":12,"max":[0.2421875,1],"min":[0,0.7578125],"type":"VEC2"},{"bufferView":193,"componentType":5126,"count":12,"max":[0,0,0],"min":[-1,0,-1],"type":"VEC3"},{"bufferView":194,"componentType":5123,"count":18,"max":[11],"min":[0],"type":"SCALAR"},{"bufferView":195,"componentType":5126,"count":96,"max":[1840,0,2304],"min":[1760,-664,2152],"type":"VEC3"},{"bufferView":196,"componentType":5126,"count":96,"max":[0.1921568661928177,0.4941176474094391,0.7960784435272217],"min":[0,0,0],"type":"VEC3"},{"bufferView":197,"componentType":5126,"count":96,"max":[0.9375,1],"min":[0.78125,0.7578125],"type":"VEC2"},{"bufferView":198,"componentType":5126,"count":96,"max":[1,0.9191450476646423,1],"min":[-1,-0.9899494647979736,-0.7071067690849304],"type":"VEC3"},{"bufferView":199,"componentType":5123,"count":138,"max":[95],"min":[0],"type":"SCALAR"},{"bufferView":200,"componentType":5126,"count":108,"max":[2152,-216,2544],"min":[1264,-832,1800],"type":"VEC3"},{"bufferView":201,"componentType":5126,"count":108,"max":[0.4117647111415863,0.7098039388656616,1],"min":[0.0470588244497776,0.054901961237192154,0.06666667014360428],"type":"VEC3"},{"bufferView":202,"componentType":5126,"count":108,"max":[0.9921875,0.5],"min":[0.5,0.0078125],"type":"VEC2"},{"bufferView":203,"componentType":5126,"count":108,"max":[0.5883216261863708,-0.7774834036827087,0.4257970452308655],"min":[-0.4257970452308655,-0.9992293119430542,-0.4257970452308655],"type":"VEC3"},{"bufferView":204,"componentType":5123,"count":162,"max":[107],"min":[0],"type":"SCALAR"}],"materials":[{"pbrMetallicRoughness":{"metallicFactor":0,"roughnessFactor":0.9,"baseColorTexture":{"index":0}},"extensions":{"KHR_materials_unlit":{}},"alphaMode":"BLEND","doubleSided":false},{"pbrMetallicRoughness":{"metallicFactor":0,"roughnessFactor":0.9,"baseColorTexture":{"index":1}},"extensions":{"KHR_materials_unlit":{}},"alphaMode":"BLEND","doubleSided":false},{"pbrMetallicRoughness":{"metallicFactor":0,"roughnessFactor":0.9,"baseColorTexture":{"index":2}},"extensions":{"KHR_materials_unlit":{}},"alphaMode":"BLEND","doubleSided":false},{"pbrMetallicRoughness":{"metallicFactor":0,"roughnessFactor":0.9,"baseColorTexture":{"index":3}},"extensions":{"KHR_materials_unlit":{}},"alphaMode":"BLEND","doubleSided":false},{"pbrMetallicRoughness":{"metallicFactor":0,"roughnessFactor":0.9,"baseColorTexture":{"index":4}},"extensions":{"KHR_materials_unlit":{}},"alphaMode":"BLEND","doubleSided":false},{"pbrMetallicRoughness":{"metallicFactor":0,"roughnessFactor":0.9,"baseColorTexture":{"index":5}},"extensions":{"KHR_materials_unlit":{}},"alphaMode":"BLEND","doubleSided":false},{"pbrMetallicRoughness":{"metallicFactor":0,"roughnessFactor":0.9,"baseColorTexture":{"index":6}},"extensions":{"KHR_materials_unlit":{}},"alphaMode":"BLEND","doubleSided":false},{"pbrMetallicRoughness":{"metallicFactor":0,"roughnessFactor":0.9,"baseColorTexture":{"index":7}},"extensions":{"KHR_materials_unlit":{}},"alphaMode":"BLEND","doubleSided":false},{"pbrMetallicRoughness":{"metallicFactor":0,"roughnessFactor":0.9,"baseColorTexture":{"index":8}},"extensions":{"KHR_materials_unlit":{}},"alphaMode":"BLEND","doubleSided":false},{"pbrMetallicRoughness":{"metallicFactor":0,"roughnessFactor":0.9,"baseColorTexture":{"index":9}},"extensions":{"KHR_materials_unlit":{}},"alphaMode":"BLEND","doubleSided":false},{"pbrMetallicRoughness":{"metallicFactor":0,"roughnessFactor":0.9,"baseColorTexture":{"index":10}},"extensions":{"KHR_materials_unlit":{}},"alphaMode":"BLEND","doubleSided":false},{"pbrMetallicRoughness":{"metallicFactor":0,"roughnessFactor":0.9,"baseColorTexture":{"index":11}},"extensions":{"KHR_materials_unlit":{}},"alphaMode":"BLEND","doubleSided":false},{"pbrMetallicRoughness":{"metallicFactor":0,"roughnessFactor":0.9,"baseColorTexture":{"index":12}},"extensions":{"KHR_materials_unlit":{}},"alphaMode":"BLEND","doubleSided":false},{"pbrMetallicRoughness":{"metallicFactor":0,"roughnessFactor":0.9,"baseColorTexture":{"index":13}},"extensions":{"KHR_materials_unlit":{}},"alphaMode":"BLEND","doubleSided":false},{"pbrMetallicRoughness":{"metallicFactor":0,"roughnessFactor":0.9,"baseColorTexture":{"index":14}},"extensions":{"KHR_materials_unlit":{}},"alphaMode":"BLEND","doubleSided":false},{"pbrMetallicRoughness":{"metallicFactor":0,"roughnessFactor":0.9,"baseColorTexture":{"index":15}},"extensions":{"KHR_materials_unlit":{}},"alphaMode":"BLEND","doubleSided":false},{"pbrMetallicRoughness":{"metallicFactor":0,"roughnessFactor":0.9,"baseColorTexture":{"index":16}},"extensions":{"KHR_materials_unlit":{}},"alphaMode":"BLEND","doubleSided":false},{"pbrMetallicRoughness":{"metallicFactor":0,"roughnessFactor":0.9,"baseColorTexture":{"index":17}},"extensions":{"KHR_materials_unlit":{}},"alphaMode":"BLEND","doubleSided":false},{"pbrMetallicRoughness":{"metallicFactor":0,"roughnessFactor":0.9,"baseColorTexture":{"index":18}},"extensions":{"KHR_materials_unlit":{}},"alphaMode":"BLEND","doubleSided":false},{"pbrMetallicRoughness":{"metallicFactor":0,"roughnessFactor":0.9,"baseColorTexture":{"index":19}},"extensions":{"KHR_materials_unlit":{}},"alphaMode":"BLEND","doubleSided":false},{"pbrMetallicRoughness":{"metallicFactor":0,"roughnessFactor":0.9,"baseColorTexture":{"index":20}},"extensions":{"KHR_materials_unlit":{}},"alphaMode":"BLEND","doubleSided":false},{"pbrMetallicRoughness":{"metallicFactor":0,"roughnessFactor":0.9,"baseColorTexture":{"index":21}},"extensions":{"KHR_materials_unlit":{}},"alphaMode":"BLEND","doubleSided":false},{"pbrMetallicRoughness":{"metallicFactor":0,"roughnessFactor":0.9,"baseColorTexture":{"index":22}},"extensions":{"KHR_materials_unlit":{}},"alphaMode":"BLEND","doubleSided":false},{"pbrMetallicRoughness":{"metallicFactor":0,"roughnessFactor":0.9,"baseColorTexture":{"index":23}},"extensions":{"KHR_materials_unlit":{}},"alphaMode":"BLEND","doubleSided":false},{"pbrMetallicRoughness":{"metallicFactor":0,"roughnessFactor":0.9,"baseColorTexture":{"index":24}},"extensions":{"KHR_materials_unlit":{}},"alphaMode":"BLEND","doubleSided":false},{"pbrMetallicRoughness":{"metallicFactor":0,"roughnessFactor":0.9,"baseColorTexture":{"index":25}},"extensions":{"KHR_materials_unlit":{}},"alphaMode":"BLEND","doubleSided":false},{"pbrMetallicRoughness":{"metallicFactor":0,"roughnessFactor":0.9,"baseColorTexture":{"index":26}},"extensions":{"KHR_materials_unlit":{}},"alphaMode":"BLEND","doubleSided":false},{"pbrMetallicRoughness":{"metallicFactor":0,"roughnessFactor":0.9,"baseColorTexture":{"index":27}},"extensions":{"KHR_materials_unlit":{}},"alphaMode":"BLEND","doubleSided":false},{"pbrMetallicRoughness":{"metallicFactor":0,"roughnessFactor":0.9,"baseColorTexture":{"index":28}},"extensions":{"KHR_materials_unlit":{}},"alphaMode":"BLEND","doubleSided":false},{"pbrMetallicRoughness":{"metallicFactor":0,"roughnessFactor":0.9,"baseColorTexture":{"index":29}},"extensions":{"KHR_materials_unlit":{}},"alphaMode":"BLEND","doubleSided":false},{"pbrMetallicRoughness":{"metallicFactor":0,"roughnessFactor":0.9,"baseColorTexture":{"index":30}},"extensions":{"KHR_materials_unlit":{}},"alphaMode":"BLEND","doubleSided":false},{"pbrMetallicRoughness":{"metallicFactor":0,"roughnessFactor":0.9,"baseColorTexture":{"index":31}},"extensions":{"KHR_materials_unlit":{}},"alphaMode":"BLEND","doubleSided":false},{"pbrMetallicRoughness":{"metallicFactor":0,"roughnessFactor":0.9,"baseColorTexture":{"index":32}},"extensions":{"KHR_materials_unlit":{}},"alphaMode":"BLEND","doubleSided":false},{"pbrMetallicRoughness":{"metallicFactor":0,"roughnessFactor":0.9,"baseColorTexture":{"index":33}},"extensions":{"KHR_materials_unlit":{}},"alphaMode":"BLEND","doubleSided":false},{"pbrMetallicRoughness":{"metallicFactor":0,"roughnessFactor":0.9,"baseColorTexture":{"index":34}},"extensions":{"KHR_materials_unlit":{}},"alphaMode":"BLEND","doubleSided":false},{"pbrMetallicRoughness":{"metallicFactor":0,"roughnessFactor":0.9,"baseColorTexture":{"index":35}},"extensions":{"KHR_materials_unlit":{}},"alphaMode":"BLEND","doubleSided":false},{"pbrMetallicRoughness":{"metallicFactor":0,"roughnessFactor":0.9,"baseColorTexture":{"index":36}},"extensions":{"KHR_materials_unlit":{}},"alphaMode":"BLEND","doubleSided":false},{"pbrMetallicRoughness":{"metallicFactor":0,"roughnessFactor":0.9,"baseColorTexture":{"index":37}},"extensions":{"KHR_materials_unlit":{}},"alphaMode":"BLEND","doubleSided":false},{"pbrMetallicRoughness":{"metallicFactor":0,"roughnessFactor":0.9,"baseColorTexture":{"index":38}},"extensions":{"KHR_materials_unlit":{}},"alphaMode":"BLEND","doubleSided":false},{"pbrMetallicRoughness":{"metallicFactor":0,"roughnessFactor":0.9,"baseColorTexture":{"index":39}},"extensions":{"KHR_materials_unlit":{}},"alphaMode":"BLEND","doubleSided":false},{"pbrMetallicRoughness":{"metallicFactor":0,"roughnessFactor":0.9,"baseColorTexture":{"index":40}},"extensions":{"KHR_materials_unlit":{}},"alphaMode":"BLEND","doubleSided":false}],"textures":[{"sampler":0,"source":0},{"sampler":1,"source":1},{"sampler":2,"source":2},{"sampler":3,"source":3},{"sampler":4,"source":4},{"sampler":5,"source":5},{"sampler":6,"source":6},{"sampler":7,"source":7},{"sampler":8,"source":2},{"sampler":9,"source":8},{"sampler":10,"source":2},{"sampler":11,"source":8},{"sampler":12,"source":8},{"sampler":13,"source":9},{"sampler":14,"source":10},{"sampler":15,"source":11},{"sampler":16,"source":12},{"sampler":17,"source":13},{"sampler":18,"source":10},{"sampler":19,"source":11},{"sampler":20,"source":12},{"sampler":21,"source":10},{"sampler":22,"source":11},{"sampler":23,"source":12},{"sampler":24,"source":10},{"sampler":25,"source":11},{"sampler":26,"source":12},{"sampler":27,"source":10},{"sampler":28,"source":11},{"sampler":29,"source":12},{"sampler":30,"source":10},{"sampler":31,"source":11},{"sampler":32,"source":12},{"sampler":33,"source":10},{"sampler":34,"source":11},{"sampler":35,"source":10},{"sampler":36,"source":11},{"sampler":37,"source":12},{"sampler":38,"source":13},{"sampler":39,"source":10},{"sampler":40,"source":11}],"samplers":[{"magFilter":9728,"minFilter":9728,"wrapS":10497,"wrapT":10497},{"magFilter":9728,"minFilter":9728,"wrapS":10497,"wrapT":10497},{"magFilter":9728,"minFilter":9728,"wrapS":10497,"wrapT":10497},{"magFilter":9728,"minFilter":9728,"wrapS":10497,"wrapT":10497},{"magFilter":9728,"minFilter":9728,"wrapS":10497,"wrapT":10497},{"magFilter":9728,"minFilter":9728,"wrapS":10497,"wrapT":10497},{"magFilter":9728,"minFilter":9728,"wrapS":10497,"wrapT":10497},{"magFilter":9728,"minFilter":9728,"wrapS":10497,"wrapT":10497},{"magFilter":9728,"minFilter":9728,"wrapS":10497,"wrapT":10497},{"magFilter":9728,"minFilter":9728,"wrapS":10497,"wrapT":10497},{"magFilter":9728,"minFilter":9728,"wrapS":10497,"wrapT":10497},{"magFilter":9728,"minFilter":9728,"wrapS":10497,"wrapT":10497},{"magFilter":9728,"minFilter":9728,"wrapS":10497,"wrapT":10497},{"magFilter":9728,"minFilter":9728,"wrapS":10497,"wrapT":10497},{"magFilter":9728,"minFilter":9728,"wrapS":10497,"wrapT":10497},{"magFilter":9728,"minFilter":9728,"wrapS":10497,"wrapT":10497},{"magFilter":9728,"minFilter":9728,"wrapS":10497,"wrapT":10497},{"magFilter":9728,"minFilter":9728,"wrapS":10497,"wrapT":10497},{"magFilter":9728,"minFilter":9728,"wrapS":10497,"wrapT":10497},{"magFilter":9728,"minFilter":9728,"wrapS":10497,"wrapT":10497},{"magFilter":9728,"minFilter":9728,"wrapS":10497,"wrapT":10497},{"magFilter":9728,"minFilter":9728,"wrapS":10497,"wrapT":10497},{"magFilter":9728,"minFilter":9728,"wrapS":10497,"wrapT":10497},{"magFilter":9728,"minFilter":9728,"wrapS":10497,"wrapT":10497},{"magFilter":9728,"minFilter":9728,"wrapS":10497,"wrapT":10497},{"magFilter":9728,"minFilter":9728,"wrapS":10497,"wrapT":10497},{"magFilter":9728,"minFilter":9728,"wrapS":10497,"wrapT":10497},{"magFilter":9728,"minFilter":9728,"wrapS":10497,"wrapT":10497},{"magFilter":9728,"minFilter":9728,"wrapS":10497,"wrapT":10497},{"magFilter":9728,"minFilter":9728,"wrapS":10497,"wrapT":10497},{"magFilter":9728,"minFilter":9728,"wrapS":10497,"wrapT":10497},{"magFilter":9728,"minFilter":9728,"wrapS":10497,"wrapT":10497},{"magFilter":9728,"minFilter":9728,"wrapS":10497,"wrapT":10497},{"magFilter":9728,"minFilter":9728,"wrapS":10497,"wrapT":10497},{"magFilter":9728,"minFilter":9728,"wrapS":10497,"wrapT":10497},{"magFilter":9728,"minFilter":9728,"wrapS":10497,"wrapT":10497},{"magFilter":9728,"minFilter":9728,"wrapS":10497,"wrapT":10497},{"magFilter":9728,"minFilter":9728,"wrapS":10497,"wrapT":10497},{"magFilter":9728,"minFilter":9728,"wrapS":10497,"wrapT":10497},{"magFilter":9728,"minFilter":9728,"wrapS":10497,"wrapT":10497},{"magFilter":9728,"minFilter":9728,"wrapS":10497,"wrapT":10497}],"images":[{"mimeType":"image/png","uri":"MAP214_0.png"},{"mimeType":"image/png","uri":"MAP214_1.png"},{"mimeType":"image/png","uri":"MAP214_2.png"},{"mimeType":"image/png","uri":"MAP214_3.png"},{"mimeType":"image/png","uri":"MAP214_4.png"},{"mimeType":"image/png","uri":"MAP214_5.png"},{"mimeType":"image/png","uri":"MAP214_6.png"},{"mimeType":"image/png","uri":"MAP214_7.png"},{"mimeType":"image/png","uri":"MAP214_8.png"},{"mimeType":"image/png","uri":"MAP214_9.png"},{"mimeType":"image/png","uri":"MAP214_10.png"},{"mimeType":"image/png","uri":"MAP214_11.png"},{"mimeType":"image/png","uri":"MAP214_12.png"},{"mimeType":"image/png","uri":"MAP214_13.png"}],"meshes":[{"primitives":[{"mode":4,"attributes":{"POSITION":0,"COLOR_0":1,"TEXCOORD_0":2,"NORMAL":3},"indices":4,"material":0}]},{"primitives":[{"mode":4,"attributes":{"POSITION":5,"COLOR_0":6,"TEXCOORD_0":7,"NORMAL":8},"indices":9,"material":1}]},{"primitives":[{"mode":4,"attributes":{"POSITION":10,"COLOR_0":11,"TEXCOORD_0":12,"NORMAL":13},"indices":14,"material":2}]},{"primitives":[{"mode":4,"attributes":{"POSITION":15,"COLOR_0":16,"TEXCOORD_0":17,"NORMAL":18},"indices":19,"material":3}]},{"primitives":[{"mode":4,"attributes":{"POSITION":20,"COLOR_0":21,"TEXCOORD_0":22,"NORMAL":23},"indices":24,"material":4}]},{"primitives":[{"mode":4,"attributes":{"POSITION":25,"COLOR_0":26,"TEXCOORD_0":27,"NORMAL":28},"indices":29,"material":5}]},{"primitives":[{"mode":4,"attributes":{"POSITION":30,"COLOR_0":31,"TEXCOORD_0":32,"NORMAL":33},"indices":34,"material":6}]},{"primitives":[{"mode":4,"attributes":{"POSITION":35,"COLOR_0":36,"TEXCOORD_0":37,"NORMAL":38},"indices":39,"material":7}]},{"primitives":[{"mode":4,"attributes":{"POSITION":40,"COLOR_0":41,"TEXCOORD_0":42,"NORMAL":43},"indices":44,"material":8}]},{"primitives":[{"mode":4,"attributes":{"POSITION":45,"COLOR_0":46,"TEXCOORD_0":47,"NORMAL":48},"indices":49,"material":9}]},{"primitives":[{"mode":4,"attributes":{"POSITION":50,"COLOR_0":51,"TEXCOORD_0":52,"NORMAL":53},"indices":54,"material":10}]},{"primitives":[{"mode":4,"attributes":{"POSITION":55,"COLOR_0":56,"TEXCOORD_0":57,"NORMAL":58},"indices":59,"material":11}]},{"primitives":[{"mode":4,"attributes":{"POSITION":60,"COLOR_0":61,"TEXCOORD_0":62,"NORMAL":63},"indices":64,"material":12}]},{"primitives":[{"mode":4,"attributes":{"POSITION":65,"COLOR_0":66,"TEXCOORD_0":67,"NORMAL":68},"indices":69,"material":13}]},{"primitives":[{"mode":4,"attributes":{"POSITION":70,"COLOR_0":71,"TEXCOORD_0":72,"NORMAL":73},"indices":74,"material":14}]},{"primitives":[{"mode":4,"attributes":{"POSITION":75,"COLOR_0":76,"TEXCOORD_0":77,"NORMAL":78},"indices":79,"material":15}]},{"primitives":[{"mode":4,"attributes":{"POSITION":80,"COLOR_0":81,"TEXCOORD_0":82,"NORMAL":83},"indices":84,"material":16}]},{"primitives":[{"mode":4,"attributes":{"POSITION":85,"COLOR_0":86,"TEXCOORD_0":87,"NORMAL":88},"indices":89,"material":17}]},{"primitives":[{"mode":4,"attributes":{"POSITION":90,"COLOR_0":91,"TEXCOORD_0":92,"NORMAL":93},"indices":94,"material":18}]},{"primitives":[{"mode":4,"attributes":{"POSITION":95,"COLOR_0":96,"TEXCOORD_0":97,"NORMAL":98},"indices":99,"material":19}]},{"primitives":[{"mode":4,"attributes":{"POSITION":100,"COLOR_0":101,"TEXCOORD_0":102,"NORMAL":103},"indices":104,"material":20}]},{"primitives":[{"mode":4,"attributes":{"POSITION":105,"COLOR_0":106,"TEXCOORD_0":107,"NORMAL":108},"indices":109,"material":21}]},{"primitives":[{"mode":4,"attributes":{"POSITION":110,"COLOR_0":111,"TEXCOORD_0":112,"NORMAL":113},"indices":114,"material":22}]},{"primitives":[{"mode":4,"attributes":{"POSITION":115,"COLOR_0":116,"TEXCOORD_0":117,"NORMAL":118},"indices":119,"material":23}]},{"primitives":[{"mode":4,"attributes":{"POSITION":120,"COLOR_0":121,"TEXCOORD_0":122,"NORMAL":123},"indices":124,"material":24}]},{"primitives":[{"mode":4,"attributes":{"POSITION":125,"COLOR_0":126,"TEXCOORD_0":127,"NORMAL":128},"indices":129,"material":25}]},{"primitives":[{"mode":4,"attributes":{"POSITION":130,"COLOR_0":131,"TEXCOORD_0":132,"NORMAL":133},"indices":134,"material":26}]},{"primitives":[{"mode":4,"attributes":{"POSITION":135,"COLOR_0":136,"TEXCOORD_0":137,"NORMAL":138},"indices":139,"material":27}]},{"primitives":[{"mode":4,"attributes":{"POSITION":140,"COLOR_0":141,"TEXCOORD_0":142,"NORMAL":143},"indices":144,"material":28}]},{"primitives":[{"mode":4,"attributes":{"POSITION":145,"COLOR_0":146,"TEXCOORD_0":147,"NORMAL":148},"indices":149,"material":29}]},{"primitives":[{"mode":4,"attributes":{"POSITION":150,"COLOR_0":151,"TEXCOORD_0":152,"NORMAL":153},"indices":154,"material":30}]},{"primitives":[{"mode":4,"attributes":{"POSITION":155,"COLOR_0":156,"TEXCOORD_0":157,"NORMAL":158},"indices":159,"material":31}]},{"primitives":[{"mode":4,"attributes":{"POSITION":160,"COLOR_0":161,"TEXCOORD_0":162,"NORMAL":163},"indices":164,"material":32}]},{"primitives":[{"mode":4,"attributes":{"POSITION":165,"COLOR_0":166,"TEXCOORD_0":167,"NORMAL":168},"indices":169,"material":33}]},{"primitives":[{"mode":4,"attributes":{"POSITION":170,"COLOR_0":171,"TEXCOORD_0":172,"NORMAL":173},"indices":174,"material":34}]},{"primitives":[{"mode":4,"attributes":{"POSITION":175,"COLOR_0":176,"TEXCOORD_0":177,"NORMAL":178},"indices":179,"material":35}]},{"primitives":[{"mode":4,"attributes":{"POSITION":180,"COLOR_0":181,"TEXCOORD_0":182,"NORMAL":183},"indices":184,"material":36}]},{"primitives":[{"mode":4,"attributes":{"POSITION":185,"COLOR_0":186,"TEXCOORD_0":187,"NORMAL":188},"indices":189,"material":37}]},{"primitives":[{"mode":4,"attributes":{"POSITION":190,"COLOR_0":191,"TEXCOORD_0":192,"NORMAL":193},"indices":194,"material":38}]},{"primitives":[{"mode":4,"attributes":{"POSITION":195,"COLOR_0":196,"TEXCOORD_0":197,"NORMAL":198},"indices":199,"material":39}]},{"primitives":[{"mode":4,"attributes":{"POSITION":200,"COLOR_0":201,"TEXCOORD_0":202,"NORMAL":203},"indices":204,"material":40}]}],"extensionsUsed":["KHR_materials_unlit"]}