mtllib MAP109.mtl
o mesh_0
usemtl mat0
v 192 -4.702643708725837e-15 -38.400000000000006
v 198.4 -3.91886975727153e-15 -32
v 192 -3.1350958058172244e-15 -25.6
vt 0.625 0.3046875
vt 0.6796875 0.25
vt 0.7421875 0.3046875
vn 0 1 -1.2246467991473532e-16
vn 0 1 -1.2246467991473532e-16
vn 0 1 -1.2246467991473532e-16
f 3/3/3 2/2/2 1/1/1
o mesh_1
usemtl mat0
v 192 -4.702643708725837e-15 -38.400000000000006
v 198.4 -3.91886975727153e-15 -32
v 192 -3.1350958058172244e-15 -25.6
vt 0.625 0.3046875
vt 0.6796875 0.25
vt 0.7421875 0.3046875
vn 0 1 -1.2246467991473532e-16
vn 0 1 -1.2246467991473532e-16
vn 0 1 -1.2246467991473532e-16
f 6/6/6 5/5/5 4/4/4
o mesh_2
usemtl mat0
v 0 -3.1350958058172244e-15 -25.6
v -6.4 -3.91886975727153e-15 -32
v 0 -4.702643708725837e-15 -38.400000000000006
vt 0.625 0.3046875
vt 0.6796875 0.25
vt 0.7421875 0.3046875
vn 0 1 -1.2246467991473532e-16
vn 0 1 -1.2246467991473532e-16
vn 0 1 -1.2246467991473532e-16
f 9/9/9 8/8/8 7/7/7
o mesh_3
usemtl mat0
v 0 -3.1350958058172244e-15 -25.6
v -6.4 -3.91886975727153e-15 -32
v 0 -4.702643708725837e-15 -38.400000000000006
vt 0.625 0.3046875
vt 0.6796875 0.25
vt 0.7421875 0.3046875
vn 0 1 -1.2246467991473532e-16
vn 0 1 -1.2246467991473532e-16
vn 0 1 -1.2246467991473532e-16
f 12/12/12 11/11/11 10/10/10
o mesh_4
usemtl mat1
v 0.1 12.800000000000002 12.799999999999999
v 0.1 12.8 -1.5675479029086122e-15
v 0.1 25.6 12.799999999999997
v 0.1 25.6 -3.1350958058172244e-15
v 0.1 12.8 -1.5675479029086122e-15
v 0.1 12.800000000000002 12.799999999999999
v 0.1 25.6 -3.1350958058172244e-15
v 0.1 25.6 12.799999999999997
v 0.1 0 0
v 0.1 1.5675479029086122e-15 12.8
v 0.1 12.8 -1.5675479029086122e-15
v 0.1 12.800000000000002 12.799999999999999
v 0.1 1.5675479029086122e-15 12.8
v 0.1 0 0
v 0.1 12.800000000000002 12.799999999999999
v 0.1 12.8 -1.5675479029086122e-15
vt 0.9921875 0.875
vt 0.875 0.875
vt 0.9921875 0.75
vt 0.875 0.75
vt 0.875 0.875
vt 0.9921875 0.875
vt 0.875 0.75
vt 0.9921875 0.75
vt 0.875 0.9921875
vt 0.9921875 0.9921875
vt 0.875 0.875
vt 0.9921875 0.875
vt 0.9921875 0.9921875
vt 0.875 0.9921875
vt 0.9921875 0.875
vt 0.875 0.875
vn -1 0 0
vn -1 0 0
vn -1 0 0
vn -1 0 0
vn 1 0 0
vn 1 0 0
vn 1 0 0
vn 1 0 0
vn 1 0 0
vn 1 0 0
vn 1 0 0
vn 1 0 0
vn -1 0 0
vn -1 0 0
vn -1 0 0
vn -1 0 0
f 15/15/15 14/14/14 13/13/13
f 14/14/14 15/15/15 16/16/16
f 19/19/19 18/18/18 17/17/17
f 18/18/18 19/19/19 20/20/20
f 23/23/23 22/22/22 21/21/21
f 22/22/22 23/23/23 24/24/24
f 27/27/27 26/26/26 25/25/25
f 26/26/26 27/27/27 28/28/28
o mesh_5
usemtl mat1
v -0.1 12.800000000000002 12.799999999999999
v -0.1 12.8 -1.5675479029086122e-15
v -0.1 25.6 12.799999999999997
v -0.1 25.6 -3.1350958058172244e-15
v -0.1 12.8 -1.5675479029086122e-15
v -0.1 12.800000000000002 12.799999999999999
v -0.1 25.6 -3.1350958058172244e-15
v -0.1 25.6 12.799999999999997
v -0.1 0 0
v -0.1 1.5675479029086122e-15 12.8
v -0.1 12.8 -1.5675479029086122e-15
v -0.1 12.800000000000002 12.799999999999999
v -0.1 1.5675479029086122e-15 12.8
v -0.1 0 0
v -0.1 12.800000000000002 12.799999999999999
v -0.1 12.8 -1.5675479029086122e-15
vt 0.9921875 0.875
vt 0.875 0.875
vt 0.9921875 0.75
vt 0.875 0.75
vt 0.875 0.875
vt 0.9921875 0.875
vt 0.875 0.75
vt 0.9921875 0.75
vt 0.875 0.9921875
vt 0.9921875 0.9921875
vt 0.875 0.875
vt 0.9921875 0.875
vt 0.9921875 0.9921875
vt 0.875 0.9921875
vt 0.9921875 0.875
vt 0.875 0.875
vn -1 0 0
vn -1 0 0
vn -1 0 0
vn -1 0 0
vn 1 0 0
vn 1 0 0
vn 1 0 0
vn 1 0 0
vn 1 0 0
vn 1 0 0
vn 1 0 0
vn 1 0 0
vn -1 0 0
vn -1 0 0
vn -1 0 0
vn -1 0 0
f 31/31/31 30/30/30 29/29/29
f 30/30/30 31/31/31 32/32/32
f 35/35/35 34/34/34 33/33/33
f 34/34/34 35/35/35 36/36/36
f 39/39/39 38/38/38 37/37/37
f 38/38/38 39/39/39 40/40/40
f 43/43/43 42/42/42 41/41/41
f 42/42/42 43/43/43 44/44/44
o mesh_6
usemtl mat2
v -0.8 1.6 0.09999999999999981
v 0.8 1.6 0.09999999999999981
v -0.8 -1.6 0.1000000000000002
v 0.8 -1.6 0.1000000000000002
vt 0.625 0.375
vt 0.6484375 0.375
vt 0.625 0.4296875
vt 0.6484375 0.4296875
vn 0 1.2246467991473532e-16 1
vn 0 1.2246467991473532e-16 1
vn 0 1.2246467991473532e-16 1
vn 0 1.2246467991473532e-16 1
f 47/47/47 46/46/46 45/45/45
f 46/46/46 47/47/47 48/48/48
o mesh_7
usemtl mat2
v -0.6000000000000001 1.6 -0.1000000000000002
v 1 1.6 -0.1000000000000002
v -0.6000000000000001 -1.6 -0.09999999999999981
v 1 -1.6 -0.09999999999999981
vt 0.625 0.375
vt 0.6484375 0.375
vt 0.625 0.4296875
vt 0.6484375 0.4296875
vn 0 1.2246467991473532e-16 1
vn 0 1.2246467991473532e-16 1
vn 0 1.2246467991473532e-16 1
vn 0 1.2246467991473532e-16 1
f 51/51/51 50/50/50 49/49/49
f 50/50/50 51/51/51 52/52/52
o mesh_8
usemtl mat2
v -0.6000000000000001 1.6 -1.9594348786357652e-16
v 1 1.6 -1.9594348786357652e-16
v -0.6000000000000001 -1.6 1.9594348786357652e-16
v 1 -1.6 1.9594348786357652e-16
vt 0.625 0.375
vt 0.6484375 0.375
vt 0.625 0.4296875
vt 0.6484375 0.4296875
vn 0 1.2246467991473532e-16 1
vn 0 1.2246467991473532e-16 1
vn 0 1.2246467991473532e-16 1
vn 0 1.2246467991473532e-16 1
f 55/55/55 54/54/54 53/53/53
f 54/54/54 55/55/55 56/56/56
o mesh_9
usemtl mat2
v -0.8 1.6 0.09999999999999981
v 0.8 1.6 0.09999999999999981
v -0.8 -1.6 0.1000000000000002
v 0.8 -1.6 0.1000000000000002
vt 0.625 0.375
vt 0.6484375 0.375
vt 0.625 0.4296875
vt 0.6484375 0.4296875
vn 0 1.2246467991473532e-16 1
vn 0 1.2246467991473532e-16 1
vn 0 1.2246467991473532e-16 1
vn 0 1.2246467991473532e-16 1
f 59/59/59 58/58/58 57/57/57
f 58/58/58 59/59/59 60/60/60
o mesh_10
usemtl mat2
v -0.7000000000000001 1.6 -1.9594348786357652e-16
v 0.9 1.6 -1.9594348786357652e-16
v -0.7000000000000001 -1.6 1.9594348786357652e-16
v 0.9 -1.6 1.9594348786357652e-16
vt 0.625 0.375
vt 0.6484375 0.375
vt 0.625 0.4296875
vt 0.6484375 0.4296875
vn 0 1.2246467991473532e-16 1
vn 0 1.2246467991473532e-16 1
vn 0 1.2246467991473532e-16 1
vn 0 1.2246467991473532e-16 1
f 63/63/63 62/62/62 61/61/61
f 62/62/62 63/63/63 64/64/64
o mesh_11
usemtl mat2
v -0.7000000000000001 1.6 -0.1000000000000002
v 0.9 1.6 -0.1000000000000002
v -0.7000000000000001 -1.6 -0.09999999999999981
v 0.9 -1.6 -0.09999999999999981
vt 0.625 0.375
vt 0.6484375 0.375
vt 0.625 0.4296875
vt 0.6484375 0.4296875
vn 0 1.2246467991473532e-16 1
vn 0 1.2246467991473532e-16 1
vn 0 1.2246467991473532e-16 1
vn 0 1.2246467991473532e-16 1
f 67/67/67 66/66/66 65/65/65
f 66/66/66 67/67/67 68/68/68
o mesh_12
usemtl mat3
v 25.6 -5.09453068445299e-15 -41.6
v 25.6 -4.702643708725837e-15 -38.400000000000006
v 22.400000000000002 -4.702643708725837e-15 -38.400000000000006
v 22.400000000000002 -3.1350958058172244e-15 -25.6
v 25.6 -3.1350958058172244e-15 -25.6
v 25.6 -2.7432088300900714e-15 -22.400000000000002
v 38.400000000000006 -4.702643708725837e-15 -38.400000000000006
v 25.6 -4.702643708725837e-15 -38.400000000000006
v 25.6 -5.09453068445299e-15 -41.6
v 166.4 -5.09453068445299e-15 -41.6
v 166.4 -4.702643708725837e-15 -38.400000000000006
v 153.60000000000002 -4.702643708725837e-15 -38.400000000000006
v 153.60000000000002 -3.1350958058172244e-15 -25.6
v 166.4 -3.1350958058172244e-15 -25.6
v 166.4 -2.7432088300900714e-15 -22.400000000000002
v 169.60000000000002 -4.702643708725837e-15 -38.400000000000006
v 166.4 -4.702643708725837e-15 -38.400000000000006
v 166.4 -5.09453068445299e-15 -41.6
v 166.4 -2.7432088300900714e-15 -22.400000000000002
v 166.4 -3.1350958058172244e-15 -25.6
v 169.60000000000002 -3.1350958058172244e-15 -25.6
v 115.2 -6.270191611634449e-15 -51.2
v 102.4 -6.270191611634449e-15 -51.2
v 102.4 -7.445852538815908e-15 -60.800000000000004
v 25.6 -2.7432088300900714e-15 -22.400000000000002
v 25.6 -3.1350958058172244e-15 -25.6
v 38.400000000000006 -3.1350958058172244e-15 -25.6
v 76.80000000000001 -1.5675479029086122e-15 -12.8
v 89.60000000000001 -1.5675479029086122e-15 -12.8
v 89.60000000000001 -3.9188697572715305e-16 -3.2
v 51.2 -7.83773951454306e-15 -64
v 51.2 -6.270191611634449e-15 -51.2
v 38.400000000000006 -7.83773951454306e-15 -64
v 38.400000000000006 -6.270191611634449e-15 -51.2
v 64 0 0
v 64 -1.5675479029086122e-15 -12.8
v 76.80000000000001 0 0
v 76.80000000000001 -1.5675479029086122e-15 -12.8
v 64 -3.1350958058172244e-15 -25.6
v 64 -1.5675479029086122e-15 -12.8
v 51.2 -3.1350958058172244e-15 -25.6
v 51.2 -1.5675479029086122e-15 -12.8
v 89.60000000000001 -3.9188697572715305e-16 -3.2
v 89.60000000000001 0 0
v 76.80000000000001 -1.5675479029086122e-15 -12.8
v 76.80000000000001 0 0
v 102.4 -3.1350958058172244e-15 -25.6
v 102.4 -4.702643708725837e-15 -38.400000000000006
v 115.2 -3.1350958058172244e-15 -25.6
v 115.2 -4.702643708725837e-15 -38.400000000000006
v 102.4 -3.1350958058172244e-15 -25.6
v 115.2 -3.1350958058172244e-15 -25.6
v 102.4 -1.5675479029086122e-15 -12.8
v 115.2 -1.5675479029086122e-15 -12.8
v 115.2 0 0
v 115.2 -1.5675479029086122e-15 -12.8
v 128 0 0
v 128 -1.5675479029086122e-15 -12.8
v 64 -3.1350958058172244e-15 -25.6
v 51.2 -3.1350958058172244e-15 -25.6
v 64 -4.702643708725837e-15 -38.400000000000006
v 51.2 -4.702643708725837e-15 -38.400000000000006
v 102.4 -7.445852538815908e-15 -60.800000000000004
v 102.4 -6.270191611634449e-15 -51.2
v 89.60000000000001 -7.445852538815908e-15 -60.800000000000004
v 89.60000000000001 -6.270191611634449e-15 -51.2
v 102.4 -3.9188697572715305e-16 -3.2
v 89.60000000000001 -3.9188697572715305e-16 -3.2
v 102.4 -1.5675479029086122e-15 -12.8
v 89.60000000000001 -1.5675479029086122e-15 -12.8
v 51.2 -1.5675479029086122e-15 -12.8
v 38.400000000000006 -1.5675479029086122e-15 -12.8
v 51.2 -3.1350958058172244e-15 -25.6
v 38.400000000000006 -3.1350958058172244e-15 -25.6
v 38.400000000000006 -3.1350958058172244e-15 -25.6
v 38.400000000000006 -1.5675479029086122e-15 -12.8
v 25.6 -2.7432088300900714e-15 -22.400000000000002
v 25.6 -1.5675479029086122e-15 -12.8
v 51.2 -6.270191611634449e-15 -51.2
v 51.2 -7.83773951454306e-15 -64
v 64 -6.270191611634449e-15 -51.2
v 64 -7.83773951454306e-15 -64
v 38.400000000000006 -7.83773951454306e-15 -64
v 38.400000000000006 -6.270191611634449e-15 -51.2
v 25.6 -7.83773951454306e-15 -64
v 25.6 -6.270191611634449e-15 -51.2
v 76.80000000000001 -4.702643708725837e-15 -38.400000000000006
v 89.60000000000001 -4.702643708725837e-15 -38.400000000000006
v 76.80000000000001 -3.1350958058172244e-15 -25.6
v 89.60000000000001 -3.1350958058172244e-15 -25.6
v 128 -3.1350958058172244e-15 -25.6
v 128 -4.702643708725837e-15 -38.400000000000006
v 140.8 -3.1350958058172244e-15 -25.6
v 140.8 -4.702643708725837e-15 -38.400000000000006
v 64 -6.270191611634449e-15 -51.2
v 76.80000000000001 -6.270191611634449e-15 -51.2
v 64 -4.702643708725837e-15 -38.400000000000006
v 76.80000000000001 -4.702643708725837e-15 -38.400000000000006
v 140.8 -4.702643708725837e-15 -38.400000000000006
v 153.60000000000002 -4.702643708725837e-15 -38.400000000000006
v 140.8 -3.1350958058172244e-15 -25.6
v 153.60000000000002 -3.1350958058172244e-15 -25.6
v 102.4 -1.5675479029086122e-15 -12.8
v 89.60000000000001 -1.5675479029086122e-15 -12.8
v 102.4 -3.1350958058172244e-15 -25.6
v 89.60000000000001 -3.1350958058172244e-15 -25.6
v 76.80000000000001 -4.702643708725837e-15 -38.400000000000006
v 76.80000000000001 -6.270191611634449e-15 -51.2
v 89.60000000000001 -4.702643708725837e-15 -38.400000000000006
v 89.60000000000001 -6.270191611634449e-15 -51.2
v 153.60000000000002 -6.270191611634449e-15 -51.2
v 166.4 -6.270191611634449e-15 -51.2
v 153.60000000000002 -4.702643708725837e-15 -38.400000000000006
v 166.4 -5.09453068445299e-15 -41.6
v 51.2 -1.5675479029086122e-15 -12.8
v 64 -1.5675479029086122e-15 -12.8
v 51.2 0 0
v 64 0 0
v 76.80000000000001 -1.5675479029086122e-15 -12.8
v 76.80000000000001 -3.1350958058172244e-15 -25.6
v 89.60000000000001 -1.5675479029086122e-15 -12.8
v 89.60000000000001 -3.1350958058172244e-15 -25.6
v 0 -4.702643708725837e-15 -38.400000000000006
v 12.8 -4.702643708725837e-15 -38.400000000000006
v 0 -3.1350958058172244e-15 -25.6
v 12.8 -3.1350958058172244e-15 -25.6
v 22.400000000000002 -4.702643708725837e-15 -38.400000000000006
v 25.6 -4.702643708725837e-15 -38.400000000000006
v 22.400000000000002 -3.1350958058172244e-15 -25.6
v 25.6 -3.1350958058172244e-15 -25.6
v 22.400000000000002 -3.1350958058172244e-15 -25.6
v 12.8 -3.1350958058172244e-15 -25.6
v 22.400000000000002 -4.702643708725837e-15 -38.400000000000006
v 12.8 -4.702643708725837e-15 -38.400000000000006
v 64 -3.1350958058172244e-15 -25.6
v 76.80000000000001 -3.1350958058172244e-15 -25.6
v 64 -1.5675479029086122e-15 -12.8
v 76.80000000000001 -1.5675479029086122e-15 -12.8
v 140.8 -3.1350958058172244e-15 -25.6
v 153.60000000000002 -3.1350958058172244e-15 -25.6
v 140.8 -1.5675479029086122e-15 -12.8
v 153.60000000000002 -1.5675479029086122e-15 -12.8
v 38.400000000000006 -4.702643708725837e-15 -38.400000000000006
v 51.2 -4.702643708725837e-15 -38.400000000000006
v 38.400000000000006 -3.1350958058172244e-15 -25.6
v 51.2 -3.1350958058172244e-15 -25.6
v 115.2 -1.5675479029086122e-15 -12.8
v 115.2 -3.1350958058172244e-15 -25.6
v 128 -1.5675479029086122e-15 -12.8
v 128 -3.1350958058172244e-15 -25.6
v 140.8 -6.270191611634449e-15 -51.2
v 153.60000000000002 -6.270191611634449e-15 -51.2
v 140.8 -4.702643708725837e-15 -38.400000000000006
v 153.60000000000002 -4.702643708725837e-15 -38.400000000000006
v 128 -6.270191611634449e-15 -51.2
v 140.8 -6.270191611634449e-15 -51.2
v 128 -4.702643708725837e-15 -38.400000000000006
v 140.8 -4.702643708725837e-15 -38.400000000000006
v 25.6 -4.702643708725837e-15 -38.400000000000006
v 38.400000000000006 -4.702643708725837e-15 -38.400000000000006
v 25.6 -3.1350958058172244e-15 -25.6
v 38.400000000000006 -3.1350958058172244e-15 -25.6
v 64 -4.702643708725837e-15 -38.400000000000006
v 76.80000000000001 -4.702643708725837e-15 -38.400000000000006
v 64 -3.1350958058172244e-15 -25.6
v 76.80000000000001 -3.1350958058172244e-15 -25.6
v 89.60000000000001 -4.702643708725837e-15 -38.400000000000006
v 102.4 -4.702643708725837e-15 -38.400000000000006
v 89.60000000000001 -3.1350958058172244e-15 -25.6
v 102.4 -3.1350958058172244e-15 -25.6
v 115.2 -4.702643708725837e-15 -38.400000000000006
v 128 -4.702643708725837e-15 -38.400000000000006
v 115.2 -3.1350958058172244e-15 -25.6
v 128 -3.1350958058172244e-15 -25.6
v 153.60000000000002 -4.702643708725837e-15 -38.400000000000006
v 166.4 -4.702643708725837e-15 -38.400000000000006
v 153.60000000000002 -3.1350958058172244e-15 -25.6
v 166.4 -3.1350958058172244e-15 -25.6
v 169.60000000000002 -4.702643708725837e-15 -38.400000000000006
v 179.20000000000002 -4.702643708725837e-15 -38.400000000000006
v 169.60000000000002 -3.1350958058172244e-15 -25.6
v 179.20000000000002 -3.1350958058172244e-15 -25.6
v 51.2 -6.270191611634449e-15 -51.2
v 51.2 -4.702643708725837e-15 -38.400000000000006
v 38.400000000000006 -6.270191611634449e-15 -51.2
v 38.400000000000006 -4.702643708725837e-15 -38.400000000000006
v 51.2 -6.270191611634449e-15 -51.2
v 64 -6.270191611634449e-15 -51.2
v 51.2 -4.702643708725837e-15 -38.400000000000006
v 64 -4.702643708725837e-15 -38.400000000000006
v 89.60000000000001 -6.270191611634449e-15 -51.2
v 102.4 -6.270191611634449e-15 -51.2
v 89.60000000000001 -4.702643708725837e-15 -38.400000000000006
v 102.4 -4.702643708725837e-15 -38.400000000000006
v 102.4 -6.270191611634449e-15 -51.2
v 115.2 -6.270191611634449e-15 -51.2
v 102.4 -4.702643708725837e-15 -38.400000000000006
v 115.2 -4.702643708725837e-15 -38.400000000000006
v 115.2 -6.270191611634449e-15 -51.2
v 128 -6.270191611634449e-15 -51.2
v 115.2 -4.702643708725837e-15 -38.400000000000006
v 128 -4.702643708725837e-15 -38.400000000000006
v 192 -3.1350958058172244e-15 -25.6
v 179.20000000000002 -3.1350958058172244e-15 -25.6
v 192 -4.702643708725837e-15 -38.400000000000006
v 179.20000000000002 -4.702643708725837e-15 -38.400000000000006
v 166.4 -2.7432088300900714e-15 -22.400000000000002
v 166.4 -1.5675479029086122e-15 -12.8
v 153.60000000000002 -3.1350958058172244e-15 -25.6
v 153.60000000000002 -1.5675479029086122e-15 -12.8
v 169.60000000000002 -3.1350958058172244e-15 -25.6
v 166.4 -3.1350958058172244e-15 -25.6
v 169.60000000000002 -4.702643708725837e-15 -38.400000000000006
v 166.4 -4.702643708725837e-15 -38.400000000000006
v 102.4 -7.445852538815908e-15 -60.800000000000004
v 102.4 -7.83773951454306e-15 -64
v 115.2 -6.270191611634449e-15 -51.2
v 115.2 -7.83773951454306e-15 -64
v 140.8 -3.1350958058172244e-15 -25.6
v 140.8 -1.5675479029086122e-15 -12.8
v 128 -3.1350958058172244e-15 -25.6
v 128 -1.5675479029086122e-15 -12.8
v 25.6 -5.09453068445299e-15 -41.6
v 25.6 -6.270191611634449e-15 -51.2
v 38.400000000000006 -4.702643708725837e-15 -38.400000000000006
v 38.400000000000006 -6.270191611634449e-15 -51.2
vt 0.34375 0.6171875
vt 0.3671875 0.6171875
vt 0.3671875 0.6484375
vt 0.5 0.6484375
vt 0.5 0.6171875
vt 0.5234375 0.6171875
vt 0.3671875 0.5
vt 0.3671875 0.6171875
vt 0.34375 0.6171875
vt 0.34375 0.7421875
vt 0.3671875 0.7421875
vt 0.3671875 0.8671875
vt 0.4921875 0.8671875
vt 0.4921875 0.7421875
vt 0.5234375 0.7421875
vt 0.3671875 0.7109375
vt 0.3671875 0.7421875
vt 0.34375 0.7421875
vt 0.5234375 0.7421875
vt 0.4921875 0.7421875
vt 0.4921875 0.7109375
vt 0.2421875 0.7421875
vt 0.2421875 0.8671875
vt 0.15625 0.8671875
vt 0.5234375 0.6171875
vt 0.5 0.6171875
vt 0.5 0.5
vt 0.6171875 0.6171875
vt 0.6171875 0.5
vt 0.7109375 0.5
vt 0.125 0.8671875
vt 0.2421875 0.8671875
vt 0.125 0.9921875
vt 0.2421875 0.9921875
vt 0.7421875 0.7421875
vt 0.6171875 0.7421875
vt 0.7421875 0.6171875
vt 0.6171875 0.6171875
vt 0.4921875 0.7421875
vt 0.6171875 0.7421875
vt 0.4921875 0.8671875
vt 0.6171875 0.8671875
vt 0.7109375 0.5
vt 0.7421875 0.5
vt 0.6171875 0.6171875
vt 0.7421875 0.6171875
vt 0.4921875 0.8671875
vt 0.3671875 0.8671875
vt 0.4921875 0.7421875
vt 0.3671875 0.7421875
vt 0.4921875 0.8671875
vt 0.4921875 0.7421875
vt 0.6171875 0.8671875
vt 0.6171875 0.7421875
vt 0.7421875 0.7421875
vt 0.6171875 0.7421875
vt 0.7421875 0.6171875
vt 0.6171875 0.6171875
vt 0.4921875 0.7421875
vt 0.4921875 0.8671875
vt 0.3671875 0.7421875
vt 0.3671875 0.8671875
vt 0.15625 0.8671875
vt 0.2421875 0.8671875
vt 0.15625 0.9921875
vt 0.2421875 0.9921875
vt 0.7109375 0.8671875
vt 0.7109375 0.9921875
vt 0.6171875 0.8671875
vt 0.6171875 0.9921875
vt 0.6171875 0.8671875
vt 0.6171875 0.9921875
vt 0.4921875 0.8671875
vt 0.4921875 0.9921875
vt 0.5 0.5
vt 0.6171875 0.5
vt 0.5234375 0.6171875
vt 0.6171875 0.6171875
vt 0.2421875 0.8671875
vt 0.125 0.8671875
vt 0.2421875 0.7421875
vt 0.125 0.7421875
vt 0.125 0.5
vt 0.2421875 0.5
vt 0.125 0.6171875
vt 0.2421875 0.6171875
vt 0.3671875 0.6171875
vt 0.3671875 0.5
vt 0.4921875 0.6171875
vt 0.4921875 0.5
vt 0.4921875 0.6171875
vt 0.3671875 0.6171875
vt 0.4921875 0.5
vt 0.3671875 0.5
vt 0.2421875 0.7421875
vt 0.2421875 0.6171875
vt 0.3671875 0.7421875
vt 0.3671875 0.6171875
vt 0.3671875 0.9921875
vt 0.3671875 0.8671875
vt 0.4921875 0.9921875
vt 0.4921875 0.8671875
vt 0.6171875 0.8671875
vt 0.6171875 0.9921875
vt 0.4921875 0.8671875
vt 0.4921875 0.9921875
vt 0.3671875 0.6171875
vt 0.2421875 0.6171875
vt 0.3671875 0.5
vt 0.2421875 0.5
vt 0.2421875 0.8671875
vt 0.2421875 0.7421875
vt 0.3671875 0.8671875
vt 0.34375 0.7421875
vt 0.6171875 0.8671875
vt 0.6171875 0.7421875
vt 0.7421875 0.8671875
vt 0.7421875 0.7421875
vt 0.6171875 0.6171875
vt 0.4921875 0.6171875
vt 0.6171875 0.5
vt 0.4921875 0.5
vt 0.3671875 0.8671875
vt 0.3671875 0.7421875
vt 0.5 0.8671875
vt 0.5 0.7421875
vt 0.3671875 0.6484375
vt 0.3671875 0.6171875
vt 0.5 0.6484375
vt 0.5 0.6171875
vt 0.5 0.6484375
vt 0.5 0.7421875
vt 0.3671875 0.6484375
vt 0.3671875 0.7421875
vt 0.4921875 0.7421875
vt 0.4921875 0.6171875
vt 0.6171875 0.7421875
vt 0.6171875 0.6171875
vt 0.4921875 0.9921875
vt 0.4921875 0.8671875
vt 0.6171875 0.9921875
vt 0.6171875 0.8671875
vt 0.3671875 0.9921875
vt 0.3671875 0.8671875
vt 0.4921875 0.9921875
vt 0.4921875 0.8671875
vt 0.6171875 0.7421875
vt 0.4921875 0.7421875
vt 0.6171875 0.6171875
vt 0.4921875 0.6171875
vt 0.2421875 0.9921875
vt 0.2421875 0.8671875
vt 0.3671875 0.9921875
vt 0.3671875 0.8671875
vt 0.2421875 0.6171875
vt 0.2421875 0.5
vt 0.3671875 0.6171875
vt 0.3671875 0.5
vt 0.3671875 0.6171875
vt 0.3671875 0.5
vt 0.5 0.6171875
vt 0.5 0.5
vt 0.3671875 0.7421875
vt 0.3671875 0.6171875
vt 0.4921875 0.7421875
vt 0.4921875 0.6171875
vt 0.3671875 0.9921875
vt 0.3671875 0.8671875
vt 0.4921875 0.9921875
vt 0.4921875 0.8671875
vt 0.3671875 0.7421875
vt 0.3671875 0.6171875
vt 0.4921875 0.7421875
vt 0.4921875 0.6171875
vt 0.3671875 0.8671875
vt 0.3671875 0.7421875
vt 0.4921875 0.8671875
vt 0.4921875 0.7421875
vt 0.3671875 0.7109375
vt 0.3671875 0.6171875
vt 0.4921875 0.7109375
vt 0.4921875 0.6171875
vt 0.2421875 0.8671875
vt 0.3671875 0.8671875
vt 0.2421875 0.9921875
vt 0.3671875 0.9921875
vt 0.2421875 0.8671875
vt 0.2421875 0.7421875
vt 0.3671875 0.8671875
vt 0.3671875 0.7421875
vt 0.2421875 0.9921875
vt 0.2421875 0.8671875
vt 0.3671875 0.9921875
vt 0.3671875 0.8671875
vt 0.2421875 0.8671875
vt 0.2421875 0.7421875
vt 0.3671875 0.8671875
vt 0.3671875 0.7421875
vt 0.2421875 0.7421875
vt 0.2421875 0.6171875
vt 0.3671875 0.7421875
vt 0.3671875 0.6171875
vt 0.4921875 0.5
vt 0.4921875 0.6171875
vt 0.3671875 0.5
vt 0.3671875 0.6171875
vt 0.5234375 0.7421875
vt 0.6171875 0.7421875
vt 0.4921875 0.8671875
vt 0.6171875 0.8671875
vt 0.4921875 0.7109375
vt 0.4921875 0.7421875
vt 0.3671875 0.7109375
vt 0.3671875 0.7421875
vt 0.15625 0.8671875
vt 0.125 0.8671875
vt 0.2421875 0.7421875
vt 0.125 0.7421875
vt 0.4921875 0.5
vt 0.6171875 0.5
vt 0.4921875 0.6171875
vt 0.6171875 0.6171875
vt 0.34375 0.6171875
vt 0.2421875 0.6171875
vt 0.3671875 0.5
vt 0.2421875 0.5
vn 0 1 -1.2246467991473532e-16
vn 0 1 -1.2246467991473532e-16
vn 0 1 -1.2246467991473532e-16
vn 0 1 -1.2246467991473532e-16
vn 0 1 -1.2246467991473532e-16
vn 0 1 -1.2246467991473532e-16
vn 0 1 -1.2246467991473532e-16
vn 0 1 -1.2246467991473532e-16
vn 0 1 -1.2246467991473532e-16
vn 0 1 -1.2246467991473532e-16
vn 0 1 -1.2246467991473532e-16
vn 0 1 -1.2246467991473532e-16
vn 0 1 -1.2246467991473532e-16
vn 0 1 -1.2246467991473532e-16
vn 0 1 -1.2246467991473532e-16
vn 0 1 -1.2246467991473532e-16
vn 0 1 -1.2246467991473532e-16
vn 0 1 -1.2246467991473532e-16
vn 0 1 -1.2246467991473532e-16
vn 0 1 -1.2246467991473532e-16
vn 0 1 -1.2246467991473532e-16
vn 0 1 -1.2246467991473532e-16
vn 0 1 -1.2246467991473532e-16
vn 0 1 -1.2246467991473532e-16
vn 0 1 -1.2246467991473532e-16
vn 0 1 -1.2246467991473532e-16
vn 0 1 -1.2246467991473532e-16
vn 0 1 -1.2246467991473532e-16
vn 0 1 -1.2246467991473532e-16
vn 0 1 -1.2246467991473532e-16
vn 0 1 -1.2246467991473532e-16
vn 0 1 -1.2246467991473532e-16
vn 0 1 -1.2246467991473532e-16
vn 0 1 -1.2246467991473532e-16
vn 0 1 -1.2246467991473532e-16
vn 0 1 -1.2246467991473532e-16
vn 0 1 -1.2246467991473532e-16
vn 0 1 -1.2246467991473532e-16
vn 0 1 -1.2246467991473532e-16
vn 0 1 -1.2246467991473532e-16
vn 0 1 -1.2246467991473532e-16
vn 0 1 -1.2246467991473532e-16
vn 0 1 -1.2246467991473532e-16
vn 0 1 -1.2246467991473532e-16
vn 0 1 -1.2246467991473532e-16
vn 0 1 -1.2246467991473532e-16
vn 0 1 -1.2246467991473532e-16
vn 0 1 -1.2246467991473532e-16
vn 0 1 -1.2246467991473532e-16
vn 0 1 -1.2246467991473532e-16
vn 0 1 -1.2246467991473532e-16
vn 0 1 -1.2246467991473532e-16
vn 0 1 -1.2246467991473532e-16
vn 0 1 -1.2246467991473532e-16
vn 0 1 -1.2246467991473532e-16
vn 0 1 -1.2246467991473532e-16
vn 0 1 -1.2246467991473532e-16
vn 0 1 -1.2246467991473532e-16
vn 0 1 -1.2246467991473532e-16
vn 0 1 -1.2246467991473532e-16
vn 0 1 -1.2246467991473532e-16
vn 0 1 -1.2246467991473532e-16
vn 0 1 -1.2246467991473532e-16
vn 0 1 -1.2246467991473532e-16
vn 0 1 -1.2246467991473532e-16
vn 0 1 -1.2246467991473532e-16
vn 0 1 -1.2246467991473532e-16
vn 0 1 -1.2246467991473532e-16
vn 0 1 -1.2246467991473532e-16
vn 0 1 -1.2246467991473532e-16
vn 0 1 -1.2246467991473532e-16
vn 0 1 -1.2246467991473532e-16
vn 0 1 -1.2246467991473532e-16
vn 0 1 -1.2246467991473532e-16
vn 0 1 -1.2246467991473532e-16
vn 0 1 -1.2246467991473532e-16
vn 0 1 -1.2246467991473532e-16
vn 0 1 -1.2246467991473532e-16
vn 0 1 -1.2246467991473532e-16
vn 0 1 -1.2246467991473532e-16
vn 0 1 -1.2246467991473532e-16
vn 0 1 -1.2246467991473532e-16
vn 0 1 -1.2246467991473532e-16
vn 0 1 -1.2246467991473532e-16
vn 0 1 -1.2246467991473532e-16
vn 0 1 -1.2246467991473532e-16
vn 0 1 -1.2246467991473532e-16
vn 0 1 -1.2246467991473532e-16
vn 0 1 -1.2246467991473532e-16
vn 0 1 -1.2246467991473532e-16
vn 0 1 -1.2246467991473532e-16
vn 0 1 -1.2246467991473532e-16
vn 0 1 -1.2246467991473532e-16
vn 0 1 -1.2246467991473532e-16
vn 0 1 -1.2246467991473532e-16
vn 0 1 -1.2246467991473532e-16
vn 0 1 -1.2246467991473532e-16
vn 0 1 -1.2246467991473532e-16
vn 0 1 -1.2246467991473532e-16
vn 0 1 -1.2246467991473532e-16
vn 0 1 -1.2246467991473532e-16
vn 0 1 -1.2246467991473532e-16
vn 0 1 -1.2246467991473532e-16
vn 0 1 -1.2246467991473532e-16
vn 0 1 -1.2246467991473532e-16
vn 0 1 -1.2246467991473532e-16
vn 0 1 -1.2246467991473532e-16
vn 0 1 -1.2246467991473532e-16
vn 0 1 -1.2246467991473532e-16
vn 0 1 -1.2246467991473532e-16
vn 0 1 -1.2246467991473532e-16
vn 0 1 -1.2246467991473532e-16
vn 0 1 -1.2246467991473532e-16
vn 0 1 -1.2246467991473532e-16
vn 0 1 -1.2246467991473532e-16
vn 0 1 -1.2246467991473532e-16
vn 0 1 -1.2246467991473532e-16
vn 0 1 -1.2246467991473532e-16
vn 0 1 -1.2246467991473532e-16
vn 0 1 -1.2246467991473532e-16
vn 0 1 -1.2246467991473532e-16
vn 0 1 -1.2246467991473532e-16
vn 0 1 -1.2246467991473532e-16
vn 0 1 -1.2246467991473532e-16
vn 0 1 -1.2246467991473532e-16
vn 0 1 -1.2246467991473532e-16
vn 0 1 -1.2246467991473532e-16
vn 0 1 -1.2246467991473532e-16
vn 0 1 -1.2246467991473532e-16
vn 0 1 -1.2246467991473532e-16
vn 0 1 -1.2246467991473532e-16
vn 0 1 -1.2246467991473532e-16
vn 0 1 -1.2246467991473532e-16
vn 0 1 -1.2246467991473532e-16
vn 0 1 -1.2246467991473532e-16
vn 0 1 -1.2246467991473532e-16
vn 0 1 -1.2246467991473532e-16
vn 0 1 -1.2246467991473532e-16
vn 0 1 -1.2246467991473532e-16
vn 0 1 -1.2246467991473532e-16
vn 0 1 -1.2246467991473532e-16
vn 0 1 -1.2246467991473532e-16
vn 0 1 -1.2246467991473532e-16
vn 0 1 -1.2246467991473532e-16
vn 0 1 -1.2246467991473532e-16
vn 0 1 -1.2246467991473532e-16
vn 0 1 -1.2246467991473532e-16
vn 0 1 -1.2246467991473532e-16
vn 0 1 -1.2246467991473532e-16
vn 0 1 -1.2246467991473532e-16
vn 0 1 -1.2246467991473532e-16
vn 0 1 -1.2246467991473532e-16
vn 0 1 -1.2246467991473532e-16
vn 0 1 -1.2246467991473532e-16
vn 0 1 -1.2246467991473532e-16
vn 0 1 -1.2246467991473532e-16
vn 0 1 -1.2246467991473532e-16
vn 0 1 -1.2246467991473532e-16
vn 0 1 -1.2246467991473532e-16
vn 0 1 -1.2246467991473532e-16
vn 0 1 -1.2246467991473532e-16
vn 0 1 -1.2246467991473532e-16
vn 0 1 -1.2246467991473532e-16
vn 0 1 -1.2246467991473532e-16
vn 0 1 -1.2246467991473532e-16
vn 0 1 -1.2246467991473532e-16
vn 0 1 -1.2246467991473532e-16
vn 0 1 -1.2246467991473532e-16
vn 0 1 -1.2246467991473532e-16
vn 0 1 -1.2246467991473532e-16
vn 0 1 -1.2246467991473532e-16
vn 0 1 -1.2246467991473532e-16
vn 0 1 -1.2246467991473532e-16
vn 0 1 -1.2246467991473532e-16
vn 0 1 -1.2246467991473532e-16
vn 0 1 -1.2246467991473532e-16
vn 0 1 -1.2246467991473532e-16
vn 0 1 -1.2246467991473532e-16
vn 0 1 -1.2246467991473532e-16
vn 0 1 -1.2246467991473532e-16
vn 0 1 -1.2246467991473532e-16
vn 0 1 -1.2246467991473532e-16
vn 0 1 -1.2246467991473532e-16
vn 0 1 -1.2246467991473532e-16
vn 0 1 -1.2246467991473532e-16
vn 0 1 -1.2246467991473532e-16
vn 0 1 -1.2246467991473532e-16
vn 0 1 -1.2246467991473532e-16
vn 0 1 -1.2246467991473532e-16
vn 0 1 -1.2246467991473532e-16
vn 0 1 -1.2246467991473532e-16
vn 0 1 -1.2246467991473532e-16
vn 0 1 -1.2246467991473532e-16
vn 0 1 -1.2246467991473532e-16
vn 0 1 -1.2246467991473532e-16
vn 0 1 -1.2246467991473532e-16
vn 0 1 -1.2246467991473532e-16
vn 0 1 -1.2246467991473532e-16
vn 0 1 -1.2246467991473532e-16
vn 0 1 -1.2246467991473532e-16
vn 0 1 -1.2246467991473532e-16
vn 0 1 -1.2246467991473532e-16
vn 0 1 -1.2246467991473532e-16
vn 0 1 -1.2246467991473532e-16
vn 0 1 -1.2246467991473532e-16
vn 0 1 -1.2246467991473532e-16
vn 0 1 -1.2246467991473532e-16
vn 0 1 -1.2246467991473532e-16
vn 0 1 -1.2246467991473532e-16
vn 0 1 -1.2246467991473532e-16
vn 0 1 -1.2246467991473532e-16
vn 0 1 -1.2246467991473532e-16
vn 0 1 -1.2246467991473532e-16
vn 0 1 -1.2246467991473532e-16
vn 0 1 -1.2246467991473532e-16
vn 0 1 -1.2246467991473532e-16
vn 0 1 -1.2246467991473532e-16
vn 0 1 -1.2246467991473532e-16
vn 0 1 -1.2246467991473532e-16
vn 0 1 -1.2246467991473532e-16
vn 0 1 -1.2246467991473532e-16
vn 0 1 -1.2246467991473532e-16
vn 0 1 -1.2246467991473532e-16
vn 0 1 -1.2246467991473532e-16
vn 0 1 -1.2246467991473532e-16
vn 0 1 -1.2246467991473532e-16
f 71/71/71 70/70/70 69/69/69
f 74/74/74 73/73/73 72/72/72
f 77/77/77 76/76/76 75/75/75
f 80/80/80 79/79/79 78/78/78
f 83/83/83 82/82/82 81/81/81
f 86/86/86 85/85/85 84/84/84
f 89/89/89 88/88/88 87/87/87
f 92/92/92 91/91/91 90/90/90
f 95/95/95 94/94/94 93/93/93
f 98/98/98 97/97/97 96/96/96
f 101/101/101 100/100/100 99/99/99
f 100/100/100 101/101/101 102/102/102
f 105/105/105 104/104/104 103/103/103
f 104/104/104 105/105/105 106/106/106
f 109/109/109 108/108/108 107/107/107
f 108/108/108 109/109/109 110/110/110
f 113/113/113 112/112/112 111/111/111
f 112/112/112 113/113/113 114/114/114
f 117/117/117 116/116/116 115/115/115
f 116/116/116 117/117/117 118/118/118
f 121/121/121 120/120/120 119/119/119
f 120/120/120 121/121/121 122/122/122
f 125/125/125 124/124/124 123/123/123
f 124/124/124 125/125/125 126/126/126
f 129/129/129 128/128/128 127/127/127
f 128/128/128 129/129/129 130/130/130
f 133/133/133 132/132/132 131/131/131
f 132/132/132 133/133/133 134/134/134
f 137/137/137 136/136/136 135/135/135
f 136/136/136 137/137/137 138/138/138
f 141/141/141 140/140/140 139/139/139
f 140/140/140 141/141/141 142/142/142
f 145/145/145 144/144/144 143/143/143
f 144/144/144 145/145/145 146/146/146
f 149/149/149 148/148/148 147/147/147
f 148/148/148 149/149/149 150/150/150
f 153/153/153 152/152/152 151/151/151
f 152/152/152 153/153/153 154/154/154
f 157/157/157 156/156/156 155/155/155
f 156/156/156 157/157/157 158/158/158
f 161/161/161 160/160/160 159/159/159
f 160/160/160 161/161/161 162/162/162
f 165/165/165 164/164/164 163/163/163
f 164/164/164 165/165/165 166/166/166
f 169/169/169 168/168/168 167/167/167
f 168/168/168 169/169/169 170/170/170
f 173/173/173 172/172/172 171/171/171
f 172/172/172 173/173/173 174/174/174
f 177/177/177 176/176/176 175/175/175
f 176/176/176 177/177/177 178/178/178
f 181/181/181 180/180/180 179/179/179
f 180/180/180 181/181/181 182/182/182
f 185/185/185 184/184/184 183/183/183
f 184/184/184 185/185/185 186/186/186
f 189/189/189 188/188/188 187/187/187
f 188/188/188 189/189/189 190/190/190
f 193/193/193 192/192/192 191/191/191
f 192/192/192 193/193/193 194/194/194
f 197/197/197 196/196/196 195/195/195
f 196/196/196 197/197/197 198/198/198
f 201/201/201 200/200/200 199/199/199
f 200/200/200 201/201/201 202/202/202
f 205/205/205 204/204/204 203/203/203
f 204/204/204 205/205/205 206/206/206
f 209/209/209 208/208/208 207/207/207
f 208/208/208 209/209/209 210/210/210
f 213/213/213 212/212/212 211/211/211
f 212/212/212 213/213/213 214/214/214
f 217/217/217 216/216/216 215/215/215
f 216/216/216 217/217/217 218/218/218
f 221/221/221 220/220/220 219/219/219
f 220/220/220 221/221/221 222/222/222
f 225/225/225 224/224/224 223/223/223
f 224/224/224 225/225/225 226/226/226
f 229/229/229 228/228/228 227/227/227
f 228/228/228 229/229/229 230/230/230
f 233/233/233 232/232/232 231/231/231
f 232/232/232 233/233/233 234/234/234
f 237/237/237 236/236/236 235/235/235
f 236/236/236 237/237/237 238/238/238
f 241/241/241 240/240/240 239/239/239
f 240/240/240 241/241/241 242/242/242
f 245/245/245 244/244/244 243/243/243
f 244/244/244 245/245/245 246/246/246
f 249/249/249 248/248/248 247/247/247
f 248/248/248 249/249/249 250/250/250
f 253/253/253 252/252/252 251/251/251
f 252/252/252 253/253/253 254/254/254
f 257/257/257 256/256/256 255/255/255
f 256/256/256 257/257/257 258/258/258
f 261/261/261 260/260/260 259/259/259
f 260/260/260 261/261/261 262/262/262
f 265/265/265 264/264/264 263/263/263
f 264/264/264 265/265/265 266/266/266
f 269/269/269 268/268/268 267/267/267
f 268/268/268 269/269/269 270/270/270
f 273/273/273 272/272/272 271/271/271
f 272/272/272 273/273/273 274/274/274
f 277/277/277 276/276/276 275/275/275
f 276/276/276 277/277/277 278/278/278
f 281/281/281 280/280/280 279/279/279
f 280/280/280 281/281/281 282/282/282
f 285/285/285 284/284/284 283/283/283
f 284/284/284 285/285/285 286/286/286
f 289/289/289 288/288/288 287/287/287
f 288/288/288 289/289/289 290/290/290
f 293/293/293 292/292/292 291/291/291
f 292/292/292 293/293/293 294/294/294
o mesh_13
usemtl mat4
v 140.8 19.199999999999996 -63.2
v 140 19.199999999999996 -51.2
v 128.8 19.199999999999996 -64
v 128 19.199999999999996 -52
v 51.2 19.200000000000003 -12.000000000000002
v 50.400000000000006 19.200000000000003 -2.3513218543629185e-15
v 39.2 19.200000000000003 -12.800000000000002
v 38.400000000000006 19.200000000000003 -0.8000000000000024
vt 0 0.875
vt 0.1171875 0.875
vt 0 0.9921875
vt 0.1171875 0.9921875
vt 0 0.875
vt 0.1171875 0.875
vt 0 0.9921875
vt 0.1171875 0.9921875
vn 0 1 -1.2246467991473532e-16
vn 0 1 -1.2246467991473532e-16
vn 0 1 -1.2246467991473532e-16
vn 0 1 -1.2246467991473532e-16
vn 0 1 -1.2246467991473532e-16
vn 0 1 -1.2246467991473532e-16
vn 0 1 -1.2246467991473532e-16
vn 0 1 -1.2246467991473532e-16
f 297/297/297 296/296/296 295/295/295
f 296/296/296 297/297/297 298/298/298
f 301/301/301 300/300/300 299/299/299
f 300/300/300 301/301/301 302/302/302
o mesh_14
usemtl mat5
v 116.80000000000001 12.799999999999994 -52.800000000000004
v 126.4 12.799999999999994 -52.800000000000004
v 115.2 10.399999999999993 -51.2
v 128 10.399999999999993 -51.2
v 129.6 12.8 -1.6000000000000016
v 139.20000000000002 12.8 -1.6000000000000016
v 128 10.4 -1.2736326711132475e-15
v 140.8 10.4 -1.2736326711132475e-15
v 116.80000000000001 12.799999999999994 -62.400000000000006
v 116.80000000000001 12.799999999999994 -52.800000000000004
v 115.2 10.399999999999993 -64
v 115.2 10.399999999999993 -51.2
v 126.4 12.799999999999994 -62.400000000000006
v 116.80000000000001 12.799999999999994 -62.400000000000006
v 128 10.399999999999993 -64
v 115.2 10.399999999999993 -64
v 139.20000000000002 12.799999999999999 -11.200000000000003
v 129.6 12.799999999999999 -11.200000000000003
v 140.8 10.399999999999999 -12.800000000000002
v 128 10.399999999999999 -12.800000000000002
v 129.6 12.799999999999999 -11.200000000000003
v 129.6 12.8 -1.6000000000000016
v 128 10.399999999999999 -12.800000000000002
v 128 10.4 -1.2736326711132475e-15
v 126.4 12.799999999999994 -52.800000000000004
v 116.80000000000001 12.799999999999994 -52.800000000000004
v 126.4 12.799999999999994 -62.400000000000006
v 116.80000000000001 12.799999999999994 -62.400000000000006
v 88 25.599999999999994 -52.800000000000004
v 78.4 25.599999999999994 -52.800000000000004
v 88 25.599999999999994 -62.400000000000006
v 78.4 25.599999999999994 -62.400000000000006
v 139.20000000000002 12.8 -1.6000000000000016
v 129.6 12.8 -1.6000000000000016
v 139.20000000000002 12.799999999999999 -11.200000000000003
v 129.6 12.799999999999999 -11.200000000000003
v 88 25.599999999999994 -62.400000000000006
v 78.4 25.599999999999994 -62.400000000000006
v 89.60000000000001 23.199999999999996 -64
v 76.80000000000001 23.199999999999996 -64
v 78.4 25.599999999999994 -62.400000000000006
v 78.4 25.599999999999994 -52.800000000000004
v 76.80000000000001 23.199999999999996 -64
v 76.80000000000001 23.199999999999996 -51.2
v 139.20000000000002 12.8 -1.6000000000000016
v 139.20000000000002 12.799999999999999 -11.200000000000003
v 140.8 10.4 -1.2736326711132475e-15
v 140.8 10.399999999999999 -12.800000000000002
v 78.4 25.599999999999994 -52.800000000000004
v 88 25.599999999999994 -52.800000000000004
v 76.80000000000001 23.199999999999996 -51.2
v 89.60000000000001 23.199999999999996 -51.2
vt 0.5078125 0.0078125
vt 0.5078125 0.1015625
vt 0.5 0
vt 0.5 0.1171875
vt 0.6015625 0.1015625
vt 0.6015625 0.0078125
vt 0.6171875 0.1171875
vt 0.6171875 0
vt 0.6015625 0.0078125
vt 0.5078125 0.0078125
vt 0.6171875 0
vt 0.5 0
vt 0.6015625 0.1015625
vt 0.6015625 0.0078125
vt 0.6171875 0.1171875
vt 0.6171875 0
vt 0.5078125 0.0078125
vt 0.5078125 0.1015625
vt 0.5 0
vt 0.5 0.1171875
vt 0.5078125 0.1015625
vt 0.6015625 0.1015625
vt 0.5 0.1171875
vt 0.6171875 0.1171875
vt 0.5078125 0.1015625
vt 0.5078125 0.0078125
vt 0.6015625 0.1015625
vt 0.6015625 0.0078125
vt 0.515625 0.1015625
vt 0.515625 0.015625
vt 0.6015625 0.1015625
vt 0.6015625 0.015625
vt 0.6015625 0.0078125
vt 0.6015625 0.1015625
vt 0.5078125 0.0078125
vt 0.5078125 0.1015625
vt 0.6015625 0.1015625
vt 0.6015625 0.015625
vt 0.6171875 0.1171875
vt 0.6171875 0
vt 0.6015625 0.015625
vt 0.515625 0.015625
vt 0.6171875 0
vt 0.5 0
vt 0.6015625 0.0078125
vt 0.5078125 0.0078125
vt 0.6171875 0
vt 0.5 0
vt 0.515625 0.015625
vt 0.515625 0.1015625
vt 0.5 0
vt 0.5 0.1171875
vn 0 0.5547001824703114 0.8320503035077886
vn 0 0.5547001824703114 0.8320503035077886
vn 0 0.5547001824703114 0.8320503035077886
vn 0 0.5547001824703114 0.8320503035077886
vn 0 0.5547001824703114 0.8320503035077886
vn 0 0.5547001824703114 0.8320503035077886
vn 0 0.5547001824703114 0.8320503035077886
vn 0 0.5547001824703114 0.8320503035077886
vn -0.8320503035077887 0.5547001824703114 -6.793118029487195e-17
vn -0.8320503035077887 0.5547001824703114 -6.793118029487195e-17
vn -0.8320503035077887 0.5547001824703114 -6.793118029487195e-17
vn -0.8320503035077887 0.5547001824703114 -6.793118029487195e-17
vn 0 0.5547001824703113 -0.8320503035077887
vn 0 0.5547001824703113 -0.8320503035077887
vn 0 0.5547001824703113 -0.8320503035077887
vn 0 0.5547001824703113 -0.8320503035077887
vn 0 0.5547001824703113 -0.8320503035077887
vn 0 0.5547001824703113 -0.8320503035077887
vn 0 0.5547001824703113 -0.8320503035077887
vn 0 0.5547001824703113 -0.8320503035077887
vn -0.8320503035077887 0.5547001824703114 -6.793118029487195e-17
vn -0.8320503035077887 0.5547001824703114 -6.793118029487195e-17
vn -0.8320503035077887 0.5547001824703114 -6.793118029487195e-17
vn -0.8320503035077887 0.5547001824703114 -6.793118029487195e-17
vn 0 1 -1.2246467991473532e-16
vn 0 1 -1.2246467991473532e-16
vn 0 1 -1.2246467991473532e-16
vn 0 1 -1.2246467991473532e-16
vn 0 1 -1.2246467991473532e-16
vn 0 1 -1.2246467991473532e-16
vn 0 1 -1.2246467991473532e-16
vn 0 1 -1.2246467991473532e-16
vn 0 1 -1.2246467991473532e-16
vn 0 1 -1.2246467991473532e-16
vn 0 1 -1.2246467991473532e-16
vn 0 1 -1.2246467991473532e-16
vn 0 0.5547001824703113 -0.8320503035077887
vn 0 0.5547001824703113 -0.8320503035077887
vn 0 0.5547001824703113 -0.8320503035077887
vn 0 0.5547001824703113 -0.8320503035077887
vn -0.8320503035077887 0.5547001824703114 -6.793118029487195e-17
vn -0.8320503035077887 0.5547001824703114 -6.793118029487195e-17
vn -0.8320503035077887 0.5547001824703114 -6.793118029487195e-17
vn -0.8320503035077887 0.5547001824703114 -6.793118029487195e-17
vn 0.8320503035077887 0.5547001824703114 -6.793118029487195e-17
vn 0.8320503035077887 0.5547001824703114 -6.793118029487195e-17
vn 0.8320503035077887 0.5547001824703114 -6.793118029487195e-17
vn 0.8320503035077887 0.5547001824703114 -6.793118029487195e-17
vn 0 0.5547001824703114 0.8320503035077886
vn 0 0.5547001824703114 0.8320503035077886
vn 0 0.5547001824703114 0.8320503035077886
vn 0 0.5547001824703114 0.8320503035077886
f 305/305/305 304/304/304 303/303/303
f 304/304/304 305/305/305 306/306/306
f 309/309/309 308/308/308 307/307/307
f 308/308/308 309/309/309 310/310/310
f 313/313/313 312/312/312 311/311/311
f 312/312/312 313/313/313 314/314/314
f 317/317/317 316/316/316 315/315/315
f 316/316/316 317/317/317 318/318/318
f 321/321/321 320/320/320 319/319/319
f 320/320/320 321/321/321 322/322/322
f 325/325/325 324/324/324 323/323/323
f 324/324/324 325/325/325 326/326/326
f 329/329/329 328/328/328 327/327/327
f 328/328/328 329/329/329 330/330/330
f 333/333/333 332/332/332 331/331/331
f 332/332/332 333/333/333 334/334/334
f 337/337/337 336/336/336 335/335/335
f 336/336/336 337/337/337 338/338/338
f 341/341/341 340/340/340 339/339/339
f 340/340/340 341/341/341 342/342/342
f 345/345/345 344/344/344 343/343/343
f 344/344/344 345/345/345 346/346/346
f 349/349/349 348/348/348 347/347/347
f 348/348/348 349/349/349 350/350/350
f 353/353/353 352/352/352 351/351/351
f 352/352/352 353/353/353 354/354/354
o mesh_15
usemtl mat6
v 76 19.199999999999996 -51.2
v 64 19.199999999999996 -52
v 76.80000000000001 19.199999999999996 -63.2
v 65.60000000000001 19.199999999999996 -64
v 153.60000000000002 25.599999999999994 -63.2
v 153.60000000000002 25.599999999999994 -51.2
v 141.6 25.599999999999994 -63.2
v 141.6 25.599999999999994 -51.2
v 26.400000000000002 25.6 -3.1350958058172244e-15
v 25.6 25.6 -12.000000000000004
v 38.400000000000006 25.6 -0.8000000000000032
v 37.6 25.6 -12.800000000000004
vt 0.4921875 0.875
vt 0.4921875 0.9921875
vt 0.375 0.875
vt 0.375 0.9921875
vt 0.375 0.875
vt 0.4921875 0.875
vt 0.375 0.9921875
vt 0.4921875 0.9921875
vt 0.4921875 0.875
vt 0.4921875 0.9921875
vt 0.375 0.875
vt 0.375 0.9921875
vn 0 1 -1.2246467991473532e-16
vn 0 1 -1.2246467991473532e-16
vn 0 1 -1.2246467991473532e-16
vn 0 1 -1.2246467991473532e-16
vn 0 1 -1.2246467991473532e-16
vn 0 1 -1.2246467991473532e-16
vn 0 1 -1.2246467991473532e-16
vn 0 1 -1.2246467991473532e-16
vn 0 1 -1.2246467991473532e-16
vn 0 1 -1.2246467991473532e-16
vn 0 1 -1.2246467991473532e-16
vn 0 1 -1.2246467991473532e-16
f 357/357/357 356/356/356 355/355/355
f 356/356/356 357/357/357 358/358/358
f 361/361/361 360/360/360 359/359/359
f 360/360/360 361/361/361 362/362/362
f 365/365/365 364/364/364 363/363/363
f 364/364/364 365/365/365 366/366/366
o mesh_16
usemtl mat7
v 164.8 25.599999999999994 -63.2
v 165.60000000000002 25.599999999999994 -52
v 153.60000000000002 25.599999999999994 -62.400000000000006
v 154.4 25.599999999999994 -51.2
v 114.4 12.8 -1.5675479029086122e-15
v 102.4 12.8 -0.8000000000000016
v 115.2 12.799999999999999 -12.000000000000002
v 103.2 12.799999999999999 -12.800000000000002
vt 0.2421875 0.75
vt 0.2421875 0.8671875
vt 0.125 0.75
vt 0.125 0.8671875
vt 0.2421875 0.75
vt 0.2421875 0.8671875
vt 0.125 0.75
vt 0.125 0.8671875
vn 0 1 -1.2246467991473532e-16
vn 0 1 -1.2246467991473532e-16
vn 0 1 -1.2246467991473532e-16
vn 0 1 -1.2246467991473532e-16
vn 0 1 -1.2246467991473532e-16
vn 0 1 -1.2246467991473532e-16
vn 0 1 -1.2246467991473532e-16
vn 0 1 -1.2246467991473532e-16
f 369/369/369 368/368/368 367/367/367
f 368/368/368 369/369/369 370/370/370
f 373/373/373 372/372/372 371/371/371
f 372/372/372 373/373/373 374/374/374
o mesh_17
usemtl mat8
v 153.60000000000002 12.8 -0.8000000000000016
v 141.6 12.8 -0.8000000000000016
v 153.60000000000002 12.799999999999999 -12.000000000000002
v 141.6 12.799999999999999 -12.000000000000002
v 165.60000000000002 12.799999999999999 -12.000000000000002
v 165.60000000000002 12.8 -0.8000000000000016
v 153.60000000000002 12.799999999999999 -12.000000000000002
v 153.60000000000002 12.8 -0.8000000000000016
vt 0.6171875 0.8671875
vt 0.5 0.8671875
vt 0.6171875 0.75
vt 0.5 0.75
vt 0.7421875 0.75
vt 0.7421875 0.8671875
vt 0.6171875 0.75
vt 0.6171875 0.8671875
vn 0 1 -1.2246467991473532e-16
vn 0 1 -1.2246467991473532e-16
vn 0 1 -1.2246467991473532e-16
vn 0 1 -1.2246467991473532e-16
vn 0 1 -1.2246467991473532e-16
vn 0 1 -1.2246467991473532e-16
vn 0 1 -1.2246467991473532e-16
vn 0 1 -1.2246467991473532e-16
f 377/377/377 376/376/376 375/375/375
f 376/376/376 377/377/377 378/378/378
f 381/381/381 380/380/380 379/379/379
f 380/380/380 381/381/381 382/382/382
