{"asset":{"version":"2.0","generator":"GLTFExporter"},"scenes":[{"name":"AuxScene","nodes":[18]}],"scene":0,"nodes":[{"rotation":[1,0,0,6.123233995736766e-17],"scale":[0.1,0.1,0.1],"mesh":0},{"rotation":[1,0,0,6.123233995736766e-17],"scale":[0.1,0.1,0.1],"mesh":1},{"rotation":[1,0,0,6.123233995736766e-17],"scale":[0.1,0.1,0.1],"mesh":2},{"rotation":[1,0,0,6.123233995736766e-17],"scale":[0.1,0.1,0.1],"mesh":3},{"rotation":[1,0,0,6.123233995736766e-17],"scale":[0.1,0.1,0.1],"mesh":4},{"rotation":[1,0,0,6.123233995736766e-17],"scale":[0.1,0.1,0.1],"mesh":5},{"rotation":[1,0,0,6.123233995736766e-17],"scale":[0.1,0.1,0.1],"mesh":6},{"rotation":[1,0,0,6.123233995736766e-17],"scale":[0.1,0.1,0.1],"mesh":7},{"rotation":[1,0,0,6.123233995736766e-17],"scale":[0.1,0.1,0.1],"mesh":8},{"rotation":[1,0,0,6.123233995736766e-17],"scale":[0.1,0.1,0.1],"mesh":9},{"rotation":[1,0,0,6.123233995736766e-17],"scale":[0.1,0.1,0.1],"mesh":10},{"rotation":[1,0,0,6.123233995736766e-17],"scale":[0.1,0.1,0.1],"mesh":11},{"rotation":[1,0,0,6.123233995736766e-17],"scale":[0.1,0.1,0.1],"mesh":12},{"rotation":[1,0,0,6.123233995736766e-17],"scale":[0.1,0.1,0.1],"mesh":13},{"rotation":[1,0,0,6.123233995736766e-17],"scale":[0.1,0.1,0.1],"mesh":14},{"rotation":[1,0,0,6.123233995736766e-17],"scale":[0.1,0.1,0.1],"mesh":15},{"rotation":[1,0,0,6.123233995736766e-17],"scale":[0.1,0.1,0.1],"mesh":16},{"rotation":[1,0,0,6.123233995736766e-17],"scale":[0.1,0.1,0.1],"mesh":17},{"children":[0,1,2,3,4,5,6,7,8,9,10,11,12,13,14,15,16,17]}],"bufferViews":[{"buffer":0,"byteOffset":0,"byteLength":36,"target":34962,"byteStride":12},{"buffer":0,"byteOffset":36,"byteLength":36,"target":34962,"byteStride":12},{"buffer":0,"byteOffset":72,"byteLength":24,"target":34962,"byteStride":8},{"buffer":0,"byteOffset":96,"byteLength":36,"target":34962,"byteStride":12},{"buffer":0,"byteOffset":132,"byteLength":8,"target":34963},{"buffer":0,"byteOffset":140,"byteLength":36,"target":34962,"byteStride":12},{"buffer":0,"byteOffset":176,"byteLength":36,"target":34962,"byteStride":12},{"buffer":0,"byteOffset":212,"byteLength":24,"target":34962,"byteStride":8},{"buffer":0,"byteOffset":236,"byteLength":36,"target":34962,"byteStride":12},{"buffer":0,"byteOffset":272,"byteLength":8,"target":34963},{"buffer":0,"byteOffset":280,"byteLength":36,"target":34962,"byteStride":12},{"buffer":0,"byteOffset":316,"byteLength":36,"target":34962,"byteStride":12},{"buffer":0,"byteOffset":352,"byteLength":24,"target":34962,"byteStride":8},{"buffer":0,"byteOffset":376,"byteLength":36,"target":34962,"byteStride":12},{"buffer":0,"byteOffset":412,"byteLength":8,"target":34963},{"buffer":0,"byteOffset":420,"byteLength":36,"target":34962,"byteStride":12},{"buffer":0,"byteOffset":456,"byteLength":36,"target":34962,"byteStride":12},{"buffer":0,"byteOffset":492,"byteLength":24,"target":34962,"byteStride":8},{"buffer":0,"byteOffset":516,"byteLength":36,"target":34962,"byteStride":12},{"buffer":0,"byteOffset":552,"byteLength":8,"target":34963},{"buffer":0,"byteOffset":560,"byteLength":192,"target":34962,"byteStride":12},{"buffer":0,"byteOffset":752,"byteLength":192,"target":34962,"byteStride":12},{"buffer":0,"byteOffset":944,"byteLength":128,"target":34962,"byteStride":8},{"buffer":0,"byteOffset":1072,"byteLength":192,"target":34962,"byteStride":12},{"buffer":0,"byteOffset":1264,"byteLength":48,"target":34963},{"buffer":0,"byteOffset":1312,"byteLength":192,"target":34962,"byteStride":12},{"buffer":0,"byteOffset":1504,"byteLength":192,"target":34962,"byteStride":12},{"buffer":0,"byteOffset":1696,"byteLength":128,"target":34962,"byteStride":8},{"buffer":0,"byteOffset":1824,"byteLength":192,"target":34962,"byteStride":12},{"buffer":0,"byteOffset":2016,"byteLength":48,"target":34963},{"buffer":0,"byteOffset":2064,"byteLength":48,"target":34962,"byteStride":12},{"buffer":0,"byteOffset":2112,"byteLength":48,"target":34962,"byteStride":12},{"buffer":0,"byteOffset":2160,"byteLength":32,"target":34962,"byteStride":8},{"buffer":0,"byteOffset":2192,"byteLength":48,"target":34962,"byteStride":12},{"buffer":0,"byteOffset":2240,"byteLength":12,"target":34963},{"buffer":0,"byteOffset":2252,"byteLength":48,"target":34962,"byteStride":12},{"buffer":0,"byteOffset":2300,"byteLength":48,"target":34962,"byteStride":12},{"buffer":0,"byteOffset":2348,"byteLength":32,"target":34962,"byteStride":8},{"buffer":0,"byteOffset":2380,"byteLength":48,"target":34962,"byteStride":12},{"buffer":0,"byteOffset":2428,"byteLength":12,"target":34963},{"buffer":0,"byteOffset":2440,"byteLength":48,"target":34962,"byteStride":12},{"buffer":0,"byteOffset":2488,"byteLength":48,"target":34962,"byteStride":12},{"buffer":0,"byteOffset":2536,"byteLength":32,"target":34962,"byteStride":8},{"buffer":0,"byteOffset":2568,"byteLength":48,"target":34962,"byteStride":12},{"buffer":0,"byteOffset":2616,"byteLength":12,"target":34963},{"buffer":0,"byteOffset":2628,"byteLength":48,"target":34962,"byteStride":12},{"buffer":0,"byteOffset":2676,"byteLength":48,"target":34962,"byteStride":12},{"buffer":0,"byteOffset":2724,"byteLength":32,"target":34962,"byteStride":8},{"buffer":0,"byteOffset":2756,"byteLength":48,"target":34962,"byteStride":12},{"buffer":0,"byteOffset":2804,"byteLength":12,"target":34963},{"buffer":0,"byteOffset":2816,"byteLength":48,"target":34962,"byteStride":12},{"buffer":0,"byteOffset":2864,"byteLength":48,"target":34962,"byteStride":12},{"buffer":0,"byteOffset":2912,"byteLength":32,"target":34962,"byteStride":8},{"buffer":0,"byteOffset":2944,"byteLength":48,"target":34962,"byteStride":12},{"buffer":0,"byteOffset":2992,"byteLength":12,"target":34963},{"buffer":0,"byteOffset":3004,"byteLength":48,"target":34962,"byteStride":12},{"buffer":0,"byteOffset":3052,"byteLength":48,"target":34962,"byteStride":12},{"buffer":0,"byteOffset":3100,"byteLength":32,"target":34962,"byteStride":8},{"buffer":0,"byteOffset":3132,"byteLength":48,"target":34962,"byteStride":12},{"buffer":0,"byteOffset":3180,"byteLength":12,"target":34963},{"buffer":0,"byteOffset":3192,"byteLength":2712,"target":34962,"byteStride":12},{"buffer":0,"byteOffset":5904,"byteLength":2712,"target":34962,"byteStride":12},{"buffer":0,"byteOffset":8616,"byteLength":1808,"target":34962,"byteStride":8},{"buffer":0,"byteOffset":10424,"byteLength":2712,"target":34962,"byteStride":12},{"buffer":0,"byteOffset":13136,"byteLength":648,"target":34963},{"buffer":0,"byteOffset":13784,"byteLength":96,"target":34962,"byteStride":12},{"buffer":0,"byteOffset":13880,"byteLength":96,"target":34962,"byteStride":12},{"buffer":0,"byteOffset":13976,"byteLength":64,"target":34962,"byteStride":8},{"buffer":0,"byteOffset":14040,"byteLength":96,"target":34962,"byteStride":12},{"buffer":0,"byteOffset":14136,"byteLength":24,"target":34963},{"buffer":0,"byteOffset":14160,"byteLength":624,"target":34962,"byteStride":12},{"buffer":0,"byteOffset":14784,"byteLength":624,"target":34962,"byteStride":12},{"buffer":0,"byteOffset":15408,"byteLength":416,"target":34962,"byteStride":8},{"buffer":0,"byteOffset":15824,"byteLength":624,"target":34962,"byteStride":12},{"buffer":0,"byteOffset":16448,"byteLength":156,"target":34963},{"buffer":0,"byteOffset":16604,"byteLength":144,"target":34962,"byteStride":12},{"buffer":0,"byteOffset":16748,"byteLength":144,"target":34962,"byteStride":12},{"buffer":0,"byteOffset":16892,"byteLength":96,"target":34962,"byteStride":8},{"buffer":0,"byteOffset":16988,"byteLength":144,"target":34962,"byteStride":12},{"buffer":0,"byteOffset":17132,"byteLength":36,"target":34963},{"buffer":0,"byteOffset":17168,"byteLength":96,"target":34962,"byteStride":12},{"buffer":0,"byteOffset":17264,"byteLength":96,"target":34962,"byteStride":12},{"buffer":0,"byteOffset":17360,"byteLength":64,"target":34962,"byteStride":8},{"buffer":0,"byteOffset":17424,"byteLength":96,"target":34962,"byteStride":12},{"buffer":0,"byteOffset":17520,"byteLength":24,"target":34963},{"buffer":0,"byteOffset":17544,"byteLength":96,"target":34962,"byteStride":12},{"buffer":0,"byteOffset":17640,"byteLength":96,"target":34962,"byteStride":12},{"buffer":0,"byteOffset":17736,"byteLength":64,"target":34962,"byteStride":8},{"buffer":0,"byteOffset":17800,"byteLength":96,"target":34962,"byteStride":12},{"buffer":0,"byteOffset":17896,"byteLength":24,"target":34963}],"buffers":[{"byteLength":17920,"uri":"data:application/octet-stream;base64,"}],"accessors":[{"bufferView":0,"componentType":5126,"count":3,"max":[1984,0,384],"min":[1920,0,256],"type":"VEC3"},{"bufferView":1,"componentType":5126,"count":3,"max":[0.2980392277240753,1,0.5568627715110779],"min":[0,0,0],"type":"VEC3"},{"bufferView":2,"componentType":5126,"count":3,"max":[0.7421875,0.75],"min":[0.625,0.6953125],"type":"VEC2"},{"bufferView":3,"componentType":5126,"count":3,"max":[0,-1,0],"min":[0,-1,0],"type":"VEC3"},{"bufferView":4,"componentType":5123,"count":3,"max":[2],"min":[0],"type":"SCALAR"},{"bufferView":5,"componentType":5126,"count":3,"max":[1984,0,384],"min":[1920,0,256],"type":"VEC3"},{"bufferView":6,"componentType":5126,"count":3,"max":[0.929411768913269,0.24705882370471954,0],"min":[0,0,0],"type":"VEC3"},{"bufferView":7,"componentType":5126,"count":3,"max":[0.7421875,0.75],"min":[0.625,0.6953125],"type":"VEC2"},{"bufferView":8,"componentType":5126,"count":3,"max":[0,-1,0],"min":[0,-1,0],"type":"VEC3"},{"bufferView":9,"componentType":5123,"count":3,"max":[2],"min":[0],"type":"SCALAR"},{"bufferView":10,"componentType":5126,"count":3,"max":[0,0,384],"min":[-64,0,256],"type":"VEC3"},{"bufferView":11,"componentType":5126,"count":3,"max":[0.2980392277240753,1,0.5568627715110779],"min":[0,0,0],"type":"VEC3"},{"bufferView":12,"componentType":5126,"count":3,"max":[0.7421875,0.75],"min":[0.625,0.6953125],"type":"VEC2"},{"bufferView":13,"componentType":5126,"count":3,"max":[0,-1,0],"min":[0,-1,0],"type":"VEC3"},{"bufferView":14,"componentType":5123,"count":3,"max":[2],"min":[0],"type":"SCALAR"},{"bufferView":15,"componentType":5126,"count":3,"max":[0,0,384],"min":[-64,0,256],"type":"VEC3"},{"bufferView":16,"componentType":5126,"count":3,"max":[0.929411768913269,0.24705882370471954,0],"min":[0,0,0],"type":"VEC3"},{"bufferView":17,"componentType":5126,"count":3,"max":[0.7421875,0.75],"min":[0.625,0.6953125],"type":"VEC2"},{"bufferView":18,"componentType":5126,"count":3,"max":[0,-1,0],"min":[0,-1,0],"type":"VEC3"},{"bufferView":19,"componentType":5123,"count":3,"max":[2],"min":[0],"type":"SCALAR"},{"bufferView":20,"componentType":5126,"count":16,"max":[1,0,0],"min":[1,-256,-128],"type":"VEC3"},{"bufferView":21,"componentType":5126,"count":16,"max":[0.4000000059604645,0.3529411852359772,0.3294117748737335],"min":[0.03921568766236305,0.03921568766236305,0.04313725605607033],"type":"VEC3"},{"bufferView":22,"componentType":5126,"count":16,"max":[0.9921875,0.25],"min":[0.875,0.0078125],"type":"VEC2"},{"bufferView":23,"componentType":5126,"count":16,"max":[1,0,0],"min":[-1,0,0],"type":"VEC3"},{"bufferView":24,"componentType":5123,"count":24,"max":[15],"min":[0],"type":"SCALAR"},{"bufferView":25,"componentType":5126,"count":16,"max":[-1,0,0],"min":[-1,-256,-128],"type":"VEC3"},{"bufferView":26,"componentType":5126,"count":16,"max":[0.3019607961177826,0.239215686917305,0.18039216101169586],"min":[0.03921568766236305,0.03921568766236305,0.04313725605607033],"type":"VEC3"},{"bufferView":27,"componentType":5126,"count":16,"max":[0.9921875,0.25],"min":[0.875,0.0078125],"type":"VEC2"},{"bufferView":28,"componentType":5126,"count":16,"max":[1,0,0],"min":[-1,0,0],"type":"VEC3"},{"bufferView":29,"componentType":5123,"count":24,"max":[15],"min":[0],"type":"SCALAR"},{"bufferView":30,"componentType":5126,"count":4,"max":[8,16,-1],"min":[-8,-16,-1],"type":"VEC3"},{"bufferView":31,"componentType":5126,"count":4,"max":[0.7019608020782471,0.7019608020782471,0.7019608020782471],"min":[0,0,0],"type":"VEC3"},{"bufferView":32,"componentType":5126,"count":4,"max":[0.6484375,0.625],"min":[0.625,0.5703125],"type":"VEC2"},{"bufferView":33,"componentType":5126,"count":4,"max":[0,0,-1],"min":[0,0,-1],"type":"VEC3"},{"bufferView":34,"componentType":5123,"count":6,"max":[3],"min":[0],"type":"SCALAR"},{"bufferView":35,"componentType":5126,"count":4,"max":[10,16,1],"min":[-6,-16,1],"type":"VEC3"},{"bufferView":36,"componentType":5126,"count":4,"max":[0.7019608020782471,0.7019608020782471,0.7019608020782471],"min":[0,0,0],"type":"VEC3"},{"bufferView":37,"componentType":5126,"count":4,"max":[0.6484375,0.625],"min":[0.625,0.5703125],"type":"VEC2"},{"bufferView":38,"componentType":5126,"count":4,"max":[0,0,-1],"min":[0,0,-1],"type":"VEC3"},{"bufferView":39,"componentType":5123,"count":6,"max":[3],"min":[0],"type":"SCALAR"},{"bufferView":40,"componentType":5126,"count":4,"max":[10,16,0],"min":[-6,-16,0],"type":"VEC3"},{"bufferView":41,"componentType":5126,"count":4,"max":[0.7019608020782471,0.7019608020782471,0.7019608020782471],"min":[0,0,0],"type":"VEC3"},{"bufferView":42,"componentType":5126,"count":4,"max":[0.6484375,0.625],"min":[0.625,0.5703125],"type":"VEC2"},{"bufferView":43,"componentType":5126,"count":4,"max":[0,0,-1],"min":[0,0,-1],"type":"VEC3"},{"bufferView":44,"componentType":5123,"count":6,"max":[3],"min":[0],"type":"SCALAR"},{"bufferView":45,"componentType":5126,"count":4,"max":[8,16,-1],"min":[-8,-16,-1],"type":"VEC3"},{"bufferView":46,"componentType":5126,"count":4,"max":[0.7019608020782471,0.7019608020782471,0.7019608020782471],"min":[0,0,0],"type":"VEC3"},{"bufferView":47,"componentType":5126,"count":4,"max":[0.6484375,0.625],"min":[0.625,0.5703125],"type":"VEC2"},{"bufferView":48,"componentType":5126,"count":4,"max":[0,0,-1],"min":[0,0,-1],"type":"VEC3"},{"bufferView":49,"componentType":5123,"count":6,"max":[3],"min":[0],"type":"SCALAR"},{"bufferView":50,"componentType":5126,"count":4,"max":[9,16,0],"min":[-7,-16,0],"type":"VEC3"},{"bufferView":51,"componentType":5126,"count":4,"max":[0.7019608020782471,0.7019608020782471,0.7019608020782471],"min":[0,0,0],"type":"VEC3"},{"bufferView":52,"componentType":5126,"count":4,"max":[0.6484375,0.625],"min":[0.625,0.5703125],"type":"VEC2"},{"bufferView":53,"componentType":5126,"count":4,"max":[0,0,-1],"min":[0,0,-1],"type":"VEC3"},{"bufferView":54,"componentType":5123,"count":6,"max":[3],"min":[0],"type":"SCALAR"},{"bufferView":55,"componentType":5126,"count":4,"max":[9,16,1],"min":[-7,-16,1],"type":"VEC3"},{"bufferView":56,"componentType":5126,"count":4,"max":[0.7019608020782471,0.7019608020782471,0.7019608020782471],"min":[0,0,0],"type":"VEC3"},{"bufferView":57,"componentType":5126,"count":4,"max":[0.6484375,0.625],"min":[0.625,0.5703125],"type":"VEC2"},{"bufferView":58,"componentType":5126,"count":4,"max":[0,0,-1],"min":[0,0,-1],"type":"VEC3"},{"bufferView":59,"componentType":5123,"count":6,"max":[3],"min":[0],"type":"SCALAR"},{"bufferView":60,"componentType":5126,"count":226,"max":[1920,0,640],"min":[0,0,0],"type":"VEC3"},{"bufferView":61,"componentType":5126,"count":226,"max":[0.6313725709915161,0.6313725709915161,0.6313725709915161],"min":[0,0,0],"type":"VEC3"},{"bufferView":62,"componentType":5126,"count":226,"max":[0.7421875,0.5],"min":[0.125,0.0078125],"type":"VEC2"},{"bufferView":63,"componentType":5126,"count":226,"max":[0,-1,0],"min":[0,-1,0],"type":"VEC3"},{"bufferView":64,"componentType":5123,"count":324,"max":[225],"min":[0],"type":"SCALAR"},{"bufferView":65,"componentType":5126,"count":8,"max":[1408,-192,640],"min":[384,-192,0],"type":"VEC3"},{"bufferView":66,"componentType":5126,"count":8,"max":[0.6627451181411743,0.6000000238418579,0.5372549295425415],"min":[0.10196078568696976,0.10196078568696976,0.10196078568696976],"type":"VEC3"},{"bufferView":67,"componentType":5126,"count":8,"max":[0.1171875,0.125],"min":[0,0.0078125],"type":"VEC2"},{"bufferView":68,"componentType":5126,"count":8,"max":[0,-1,0],"min":[0,-1,0],"type":"VEC3"},{"bufferView":69,"componentType":5123,"count":12,"max":[7],"min":[0],"type":"SCALAR"},{"bufferView":70,"componentType":5126,"count":52,"max":[1408,-104,640],"min":[768,-256,0],"type":"VEC3"},{"bufferView":71,"componentType":5126,"count":52,"max":[0.5490196347236633,0.5490196347236633,0.5490196347236633],"min":[0.07450980693101883,0.07450980693101883,0.08235294371843338],"type":"VEC3"},{"bufferView":72,"componentType":5126,"count":52,"max":[0.6171875,1],"min":[0.5,0.8828125],"type":"VEC2"},{"bufferView":73,"componentType":5126,"count":52,"max":[0.8320503234863281,-0.5547001957893372,0.8320503234863281],"min":[-0.8320503234863281,-1,-0.8320503234863281],"type":"VEC3"},{"bufferView":74,"componentType":5123,"count":78,"max":[51],"min":[0],"type":"SCALAR"},{"bufferView":75,"componentType":5126,"count":12,"max":[1536,-192,640],"min":[256,-256,0],"type":"VEC3"},{"bufferView":76,"componentType":5126,"count":12,"max":[0.6000000238418579,0.5490196347236633,0.5490196347236633],"min":[0.125490203499794,0.12156862765550613,0.09803921729326248],"type":"VEC3"},{"bufferView":77,"componentType":5126,"count":12,"max":[0.4921875,0.125],"min":[0.375,0.0078125],"type":"VEC2"},{"bufferView":78,"componentType":5126,"count":12,"max":[0,-1,0],"min":[0,-1,0],"type":"VEC3"},{"bufferView":79,"componentType":5123,"count":18,"max":[11],"min":[0],"type":"SCALAR"},{"bufferView":80,"componentType":5126,"count":8,"max":[1656,-128,632],"min":[1024,-256,0],"type":"VEC3"},{"bufferView":81,"componentType":5126,"count":8,"max":[0.5490196347236633,0.5490196347236633,0.5490196347236633],"min":[0.10980392247438431,0.10196078568696976,0.09803921729326248],"type":"VEC3"},{"bufferView":82,"componentType":5126,"count":8,"max":[0.2421875,0.25],"min":[0.125,0.1328125],"type":"VEC2"},{"bufferView":83,"componentType":5126,"count":8,"max":[0,-1,0],"min":[0,-1,0],"type":"VEC3"},{"bufferView":84,"componentType":5123,"count":12,"max":[7],"min":[0],"type":"SCALAR"},{"bufferView":85,"componentType":5126,"count":8,"max":[1656,-128,120],"min":[1416,-128,8],"type":"VEC3"},{"bufferView":86,"componentType":5126,"count":8,"max":[0.8392156958580017,0.9215686321258545,1],"min":[0.19607843458652496,0.18039216101169586,0.18039216101169586],"type":"VEC3"},{"bufferView":87,"componentType":5126,"count":8,"max":[0.7421875,0.25],"min":[0.5,0.1328125],"type":"VEC2"},{"bufferView":88,"componentType":5126,"count":8,"max":[0,-1,0],"min":[0,-1,0],"type":"VEC3"},{"bufferView":89,"componentType":5123,"count":12,"max":[7],"min":[0],"type":"SCALAR"}],"materials":[{"pbrMetallicRoughness":{"metallicFactor":0,"roughnessFactor":0.9,"baseColorTexture":{"index":0}},"extensions":{"KHR_materials_unlit":{}},"alphaMode":"BLEND","doubleSided":false},{"pbrMetallicRoughness":{"metallicFactor":0,"roughnessFactor":0.9,"baseColorTexture":{"index":1}},"extensions":{"KHR_materials_unlit":{}},"alphaMode":"BLEND","doubleSided":false},{"pbrMetallicRoughness":{"metallicFactor":0,"roughnessFactor":0.9,"baseColorTexture":{"index":2}},"extensions":{"KHR_materials_unlit":{}},"alphaMode":"BLEND","doubleSided":false},{"pbrMetallicRoughness":{"metallicFactor":0,"roughnessFactor":0.9,"baseColorTexture":{"index":3}},"extensions":{"KHR_materials_unlit":{}},"alphaMode":"BLEND","doubleSided":false},{"pbrMetallicRoughness":{"metallicFactor":0,"roughnessFactor":0.9,"baseColorTexture":{"index":4}},"extensions":{"KHR_materials_unlit":{}},"alphaMode":"BLEND","doubleSided":false},{"pbrMetallicRoughness":{"metallicFactor":0,"roughnessFactor":0.9,"baseColorTexture":{"index":5}},"extensions":{"KHR_materials_unlit":{}},"alphaMode":"BLEND","doubleSided":false},{"pbrMetallicRoughness":{"metallicFactor":0,"roughnessFactor":0.9,"baseColorTexture":{"index":6}},"extensions":{"KHR_materials_unlit":{}},"alphaMode":"BLEND","doubleSided":false},{"pbrMetallicRoughness":{"metallicFactor":0,"roughnessFactor":0.9,"baseColorTexture":{"index":7}},"extensions":{"KHR_materials_unlit":{}},"alphaMode":"BLEND","doubleSided":false},{"pbrMetallicRoughness":{"metallicFactor":0,"roughnessFactor":0.9,"baseColorTexture":{"index":8}},"extensions":{"KHR_materials_unlit":{}},"alphaMode":"BLEND","doubleSided":false},{"pbrMetallicRoughness":{"metallicFactor":0,"roughnessFactor":0.9,"baseColorTexture":{"index":9}},"extensions":{"KHR_materials_unlit":{}},"alphaMode":"BLEND","doubleSided":false},{"pbrMetallicRoughness":{"metallicFactor":0,"roughnessFactor":0.9,"baseColorTexture":{"index":10}},"extensions":{"KHR_materials_unlit":{}},"alphaMode":"BLEND","doubleSided":false},{"pbrMetallicRoughness":{"metallicFactor":0,"roughnessFactor":0.9,"baseColorTexture":{"index":11}},"extensions":{"KHR_materials_unlit":{}},"alphaMode":"BLEND","doubleSided":false},{"pbrMetallicRoughness":{"metallicFactor":0,"roughnessFactor":0.9,"baseColorTexture":{"index":12}},"extensions":{"KHR_materials_unlit":{}},"alphaMode":"BLEND","doubleSided":false},{"pbrMetallicRoughness":{"metallicFactor":0,"roughnessFactor":0.9,"baseColorTexture":{"index":13}},"extensions":{"KHR_materials_unlit":{}},"alphaMode":"BLEND","doubleSided":false},{"pbrMetallicRoughness":{"metallicFactor":0,"roughnessFactor":0.9,"baseColorTexture":{"index":14}},"extensions":{"KHR_materials_unlit":{}},"alphaMode":"BLEND","doubleSided":false},{"pbrMetallicRoughness":{"metallicFactor":0,"roughnessFactor":0.9,"baseColorTexture":{"index":15}},"extensions":{"KHR_materials_unlit":{}},"alphaMode":"BLEND","doubleSided":false},{"pbrMetallicRoughness":{"metallicFactor":0,"roughnessFactor":0.9,"baseColorTexture":{"index":16}},"extensions":{"KHR_materials_unlit":{}},"alphaMode":"BLEND","doubleSided":false},{"pbrMetallicRoughness":{"metallicFactor":0,"roughnessFactor":0.9,"baseColorTexture":{"index":17}},"extensions":{"KHR_materials_unlit":{}},"alphaMode":"BLEND","doubleSided":false}],"textures":[{"sampler":0,"source":0},{"sampler":1,"source":0},{"sampler":2,"source":0},{"sampler":3,"source":0},{"sampler":4,"source":1},{"sampler":5,"source":1},{"sampler":6,"source":2},{"sampler":7,"source":2},{"sampler":8,"source":2},{"sampler":9,"source":2},{"sampler":10,"source":2},{"sampler":11,"source":2},{"sampler":12,"source":3},{"sampler":13,"source":4},{"sampler":14,"source":5},{"sampler":15,"source":6},{"sampler":16,"source":7},{"sampler":17,"source":8}],"samplers":[{"magFilter":9728,"minFilter":9728,"wrapS":10497,"wrapT":10497},{"magFilter":9728,"minFilter":9728,"wrapS":10497,"wrapT":10497},{"magFilter":9728,"minFilter":9728,"wrapS":10497,"wrapT":10497},{"magFilter":9728,"minFilter":9728,"wrapS":10497,"wrapT":10497},{"magFilter":9728,"minFilter":9728,"wrapS":10497,"wrapT":10497},{"magFilter":9728,"minFilter":9728,"wrapS":10497,"wrapT":10497},{"magFilter":9728,"minFilter":9728,"wrapS":10497,"wrapT":10497},{"magFilter":9728,"minFilter":9728,"wrapS":10497,"wrapT":10497},{"magFilter":9728,"minFilter":9728,"wrapS":10497,"wrapT":10497},{"magFilter":9728,"minFilter":9728,"wrapS":10497,"wrapT":10497},{"magFilter":9728,"minFilter":9728,"wrapS":10497,"wrapT":10497},{"magFilter":9728,"minFilter":9728,"wrapS":10497,"wrapT":10497},{"magFilter":9728,"minFilter":9728,"wrapS":10497,"wrapT":10497},{"magFilter":9728,"minFilter":9728,"wrapS":10497,"wrapT":10497},{"magFilter":9728,"minFilter":9728,"wrapS":10497,"wrapT":10497},{"magFilter":9728,"minFilter":9728,"wrapS":10497,"wrapT":10497},{"magFilter":9728,"minFilter":9728,"wrapS":10497,"wrapT":10497},{"magFilter":9728,"minFilter":9728,"wrapS":10497,"wrapT":10497}],"images":[{"mimeType":"image/png","uri":"MAP109_0.png"},{"mimeType":"image/png","uri":"MAP109_1.png"},{"mimeType":"image/png","uri":"MAP109_2.png"},{"mimeType":"image/png","uri":"MAP109_3.png"},{"mimeType":"image/png","uri":"MAP109_4.png"},{"mimeType":"image/png","uri":"MAP109_5.png"},{"mimeType":"image/png","uri":"MAP109_6.png"},{"mimeType":"image/png","uri":"MAP109_7.png"},{"mimeType":"image/png","uri":"MAP109_8.png"}],"meshes":[{"primitives":[{"mode":4,"attributes":{"POSITION":0,"COLOR_0":1,"TEXCOORD_0":2,"NORMAL":3},"indices":4,"material":0}]},{"primitives":[{"mode":4,"attributes":{"POSITION":5,"COLOR_0":6,"TEXCOORD_0":7,"NORMAL":8},"indices":9,"material":1}]},{"primitives":[{"mode":4,"attributes":{"POSITION":10,"COLOR_0":11,"TEXCOORD_0":12,"NORMAL":13},"indices":14,"material":2}]},{"primitives":[{"mode":4,"attributes":{"POSITION":15,"COLOR_0":16,"TEXCOORD_0":17,"NORMAL":18},"indices":19,"material":3}]},{"primitives":[{"mode":4,"attributes":{"POSITION":20,"COLOR_0":21,"TEXCOORD_0":22,"NORMAL":23},"indices":24,"material":4}]},{"primitives":[{"mode":4,"attributes":{"POSITION":25,"COLOR_0":26,"TEXCOORD_0":27,"NORMAL":28},"indices":29,"material":5}]},{"primitives":[{"mode":4,"attributes":{"POSITION":30,"COLOR_0":31,"TEXCOORD_0":32,"NORMAL":33},"indices":34,"material":6}]},{"primitives":[{"mode":4,"attributes":{"POSITION":35,"COLOR_0":36,"TEXCOORD_0":37,"NORMAL":38},"indices":39,"material":7}]},{"primitives":[{"mode":4,"attributes":{"POSITION":40,"COLOR_0":41,"TEXCOORD_0":42,"NORMAL":43},"indices":44,"material":8}]},{"primitives":[{"mode":4,"attributes":{"POSITION":45,"COLOR_0":46,"TEXCOORD_0":47,"NORMAL":48},"indices":49,"material":9}]},{"primitives":[{"mode":4,"attributes":{"POSITION":50,"COLOR_0":51,"TEXCOORD_0":52,"NORMAL":53},"indices":54,"material":10}]},{"primitives":[{"mode":4,"attributes":{"POSITION":55,"COLOR_0":56,"TEXCOORD_0":57,"NORMAL":58},"indices":59,"material":11}]},{"primitives":[{"mode":4,"attributes":{"POSITION":60,"COLOR_0":61,"TEXCOORD_0":62,"NORMAL":63},"indices":64,"material":12}]},{"primitives":[{"mode":4,"attributes":{"POSITION":65,"COLOR_0":66,"TEXCOORD_0":67,"NORMAL":68},"indices":69,"material":13}]},{"primitives":[{"mode":4,"attributes":{"POSITION":70,"COLOR_0":71,"TEXCOORD_0":72,"NORMAL":73},"indices":74,"material":14}]},{"primitives":[{"mode":4,"attributes":{"POSITION":75,"COLOR_0":76,"TEXCOORD_0":77,"NORMAL":78},"indices":79,"material":15}]},{"primitives":[{"mode":4,"attributes":{"POSITION":80,"COLOR_0":81,"TEXCOORD_0":82,"NORMAL":83},"indices":84,"material":16}]},{"primitives":[{"mode":4,"attributes":{"POSITION":85,"COLOR_0":86,"TEXCOORD_0":87,"NORMAL":88},"indices":89,"material":17}]}],"extensionsUsed":["KHR_materials_unlit"]}