<?xml version="1.0" encoding="UTF-8"?>
<COLLADA xmlns="http://www.collada.org/2008/03/COLLADASchema" version="1.5.0">
	<asset>
		<contributor>
			<authoring_tool>CINEMA4D 20.057 COLLADA Exporter</authoring_tool>
		</contributor>
		<created>2019-09-08T14:52:32Z</created>
		<modified>2019-09-08T14:52:32Z</modified>
		<unit/>
		<up_axis>Y_UP</up_axis>
	</asset>
	<library_images>
		<image id="ID3">
			<init_from>
				<ref>Artillery_the_Digger.png</ref>
			</init_from>
		</image>
	</library_images>
	<library_effects>
		<effect id="ID2">
			<profile_COMMON>
				<newparam sid="ID4">
					<sampler2D>
						<instance_image url="#ID3"/>
					</sampler2D>
				</newparam>
				<technique sid="COMMON">
					<blinn>
						<diffuse>
							<texture texture="ID4" texcoord="UVSET0"/>
						</diffuse>
					</blinn>
				</technique>
			</profile_COMMON>
		</effect>
	</library_effects>
	<library_materials>
		<material id="ID1" name="material">
			<instance_effect url="#ID2"/>
		</material>
	</library_materials>
	<library_geometries>
		<geometry id="ID20">
			<mesh>
				<source id="ID21">
					<float_array id="ID22" count="576" digits="2490374">-4.15 12.2 1.55 4.45 12.7 -3.15 4.15 12.2 1.55 -4.45 12.7 -3.15 5.15 11.35 -3.55 -5.15 11.35 -3.55 0 12.45 -1.85 1.5 14.1 0.85 0 14.5 -1.85 1.5 12.25 0.85 -1.5 14.1 0.85 -1.5 12.25 0.85 -3.2 -0.85 -7.8 4.65 -1.05 -2.85 3.15 -0.85 -7.8 -4.65 -1.05 -2.85 -4.9 10.1 2.65 -4.45 -1.05 2.8 4.9 10.1 2.65 4.45 -1.05 2.8 3.7 9.8 -7.3 -3.7 9.8 -7.3 0.45 16.65 4.4 -0.45 16.65 4.4 0 16.9 5.2 0 18 4.25 0 13.4 2.95 2.35 14.3 -2.7 -2.35 14.3 -2.7 -2.4 14.35 2.4 2.4 14.35 2.4 0 12.95 -4.7 0 16.95 -6.5 0 16.7 4.7 -4 16.9 3 0 17.55 4.3 -3.85 16.9 -3.4 4 16.9 3 2.9 25.35 2.2 0.05 24.95 4 0.05 26.15 1.45 -2.75 25.35 2.2 3.85 16.9 -3.4 2.9 25.35 2.2 5.8 23.6 3.15 3.85 22 4.1 -2.75 25.35 2.2 -7.65 21.9 -1.85 -4.8 21.8 0.9 -3.8 22 4.1 -5.55 19.15 3.5 -5.95 23.55 2.65 -5.95 23.55 2.65 4.75 21.85 0.9 -4.8 21.8 0.9 4.2 21.7 -0.05 7.7 23.85 0.5 2.95 25.3 1.45 -2.75 25.35 2.2 6.6 19.95 4 2.55 25.2 2.45 4.2 25.1 6.55 0.7 23.85 4.15 3.5 22.95 3.2 3.05 22.2 3 -3.8 22 4.1 0 19.8 5.5 0 23.25 5.25 -4.1 20.05 4.15 -4.4 22.1 -3.5 -4.5 21.7 3.25 -2.9 25.25 -2.75 4.45 22.1 -3.5 0.05 26.1 -4.25 0 21 -6.9 3 25.25 -2.75 4.5 21.7 3.25 0 23.25 4.85 3.85 22 4.1 4.15 20.05 4.15 7.85 9.85 -2.55 8.65 1.75 0.8 7.85 9.85 0.9 8.65 1.75 -2.5 5.15 1.75 0.8 4.6 12.35 0.9 5.15 1.75 -2.5 4.6 12.35 -2.45 3.3 -10.8 2.65 8.9 -11.3 2.45 5.85 -13.25 2 8.9 -11.3 -3.6 3.3 -10.8 -3.85 5.85 -13.25 -2.9 8.65 2.15 -2.5 5.1 -7.3 -3.2 8.75 -7.3 -3.1 5.15 2.15 -2.5 5.15 2.15 0.8 5.1 -7.3 1.8 8.75 -7.3 1.7 8.65 2.15 0.8 -8.65 1.75 0.8 -7.85 9.85 -2.55 -7.85 9.85 0.9 -8.65 1.75 -2.5 -5.15 1.75 0.8 -4.6 12.35 0.9 -5.15 1.75 -2.5 -4.6 12.35 -2.45 -8.9 -11.3 2.45 -3.3 -10.8 2.65 -5.85 -13.25 2 -3.3 -10.8 -3.85 -8.9 -11.3 -3.6 -5.85 -13.25 -2.9 -5.1 -7.3 -3.2 -8.65 2.15 -2.5 -8.75 -7.3 -3.1 -5.15 2.15 -2.5 -5.15 2.15 0.8 -5.1 -7.3 1.8 -8.75 -7.3 1.7 -8.65 2.15 0.8 4.45 0 2.8 5.8 -8.25 -3.6 5.4 -7.95 3.45 4.65 1.2 -2.7 -5.8 -8.25 -3.6 -4.45 0 2.8 -5.4 -7.95 3.45 -4.65 1.2 -2.7 7 -7.2 -3.2 6.9 -18.7 1.95 6.55 -3.85 3 7.1 -18.35 -1.1 5.2 -3.85 2.95 5.6 -18.75 1.85 5.65 -7.25 -3.25 5.75 -18.35 -1.2 6.9 0.35 -3.05 5.75 -3.65 -5.6 7.1 -3.65 -5.55 5.55 0.3 -3.1 6.85 -6.35 -1.65 5.55 -6.4 -1.7 6.55 -3.85 3 5.2 -3.85 2.95 0 -6.05 -3 0.65 -18.4 2.7 0.65 -18.4 -3.5 0 -6.05 3 5.25 -18.4 2.7 5.2 -6.05 -3 5.25 -18.4 -3.5 5.2 -6.05 3 0.35 -38.05 9.45 0.35 -38.05 -5.25 0.5 -34.8 9.05 6.35 -38.05 9 6.4 -34.8 8.55 7.15 -38.05 -5.25 0.85 -31.15 2.2 0.85 -31.15 -4.25 5.5 -31.15 2.2 5.5 -31.15 -4.25 5.25 -17.25 2.7 0.65 -17.25 2.7 5.25 -17.25 -3.5 0.65 -17.25 -3.5 -0.65 -18.4 2.7 0 -6.05 -3 -0.65 -18.4 -3.5 0 -6.05 3 -5.2 -6.05 -3 -5.25 -18.4 2.7 -5.25 -18.4 -3.5 -5.2 -6.05 3 -0.35 -38.05 -5.25 -0.35 -38.05 9.45 -0.5 -34.8 9.05 -6.4 -34.8 8.55 -6.35 -38.05 9 -7.15 -38.05 -5.25 -0.85 -31.15 2.2 -0.85 -31.15 -4.25 -5.5 -31.15 2.2 -5.5 -31.15 -4.25 -5.25 -17.25 2.7 -0.65 -17.25 2.7 -5.25 -17.25 -3.5 -0.65 -17.25 -3.5</float_array>
					<technique_common>
						<accessor count="192" source="#ID22" stride="3">
							<param name="X" type="float"/>
							<param name="Y" type="float"/>
							<param name="Z" type="float"/>
						</accessor>
					</technique_common>
				</source>
				<source id="ID23">
					<float_array id="ID24" count="567" digits="2490374">-0.456512 0.825537 0.331791 0.30631 0.926078 -0.220348 0.464408 0.703737 0.537662 -0.322496 0.719123 -0.615516 0.754593 0.446468 -0.48089 -0.742271 0.565951 -0.358795 0 0 -1 0.861871 0 0.507128 -0.999865 0 0.0164217 -0.499933 0 0.866064 -0.299613 -0.605057 -0.737657 0.86452 -0.481847 -0.142927 0.49971 -0.516425 -0.69541 -0.947914 -0.28382 -0.144589 -0.574303 0.249187 0.779796 -0.694126 -0.0183331 0.71962 0.796219 0.214935 0.565543 0.440488 -0.00570034 0.89774 0.440327 0.429754 -0.788305 -0.655175 0.304597 -0.691351 0.682769 -0.49391 0.538405 -0.682769 -0.49391 0.538405 0 -0.266739 0.963769 0 0.65362 0.756823 -1.07445e-08 -0.821583 0.570089 0.515634 -0.835461 -0.190069 -0.581752 -0.796764 -0.163498 -0.607453 -0.72585 0.322712 0.69662 -0.678623 0.232789 0 -0.889391 -0.457147 0 -0.379424 -0.925223 0 -0.0209099 0.999781 -0.731197 -0.300467 0.612429 0 0.0827454 0.996571 -0.866386 -0.254742 -0.429512 0.756447 -0.230742 0.612002 0.583451 0.722479 0.370957 -0.000160708 0.778283 0.627914 -0.00110132 0.990035 0.140819 -0.577816 0.729488 0.366029 0.839281 -0.336653 -0.426932 0.465698 0.867267 0.175992 0.735785 0.609008 0.296191 -0.202543 -0.0158829 0.979145 0.165347 0.643008 -0.747797 -0.583504 -0.0768695 -0.808464 0.230586 -0.93399 -0.272934 -0.348247 0.33571 0.875228 -0.952989 -0.0283568 0.301677 -0.75503 0.234611 0.612281 -0.942256 0.094918 0.32116 0.538654 -0.120642 -0.833845 -0.891387 -0.162754 -0.423014 0.459189 -0.574099 -0.677905 0.937813 0.227477 0.262222 0.247911 0.946742 -0.205473 -0.179857 0.527344 0.830397 0.683073 -0.584633 0.43774 0.439826 0.884531 -0.155429 0.467503 0.372499 0.801677 -0.591974 0.130513 0.79532 0.55662 -0.141861 0.818566 0.721952 -0.631772 0.282223 -0.401846 0.543807 0.736745 -0.444444 -0.111111 0.888889 -0.000928397 0.590464 0.807064 0.894427 -0.447214 -0 -0.849915 0.288452 -0.440953 -0.881637 0.01399 0.471722 -0.565691 0.795524 -0.217107 0.89691 0.219414 -0.38394 -0.000112349 0.756439 -0.654064 -0.000909054 0.102822 -0.994699 0.567399 0.792904 -0.222175 0.796158 0.0414838 0.603665 0 -0.0960451 0.995377 0.396574 0.535399 0.745706 0 -1 -0 0.755585 0.289767 -0.587475 0.890529 0.08243 0.447397 0.647155 0.487154 0.586406 0.703897 0.0651545 -0.707308 -0.707296 -0.0443823 0.705523 -0.304877 0.562061 0.768854 -0.456706 -0.0243453 -0.889284 -0.410645 0.756375 -0.509184 -0.708986 -0.327188 0.62473 0.550741 -0.379867 0.743226 -0.0687269 -0.879111 0.471636 0.655472 -0.209455 -0.725593 -0.780916 -0.00163783 -0.624634 -0.0824229 -0.96239 -0.258866 0.456828 0.0658518 -0.887114 -0.563592 0.179392 -0.806339 0.835959 0.0676877 -0.544602 -0.706959 0.0559655 -0.705037 -0.702115 0.0748983 0.708113 -0.631844 0.335882 0.698539 0.712191 0.109787 0.693348 0.894018 0.0518435 0.445021 -0.890529 0.08243 0.447397 -0.755585 0.289767 -0.587475 -0.647155 0.487154 0.586406 -0.703897 0.0651545 -0.707308 0.707296 -0.0443823 0.705523 0.304877 0.562061 0.768854 0.456706 -0.0243453 -0.889284 0.410645 0.756375 -0.509184 -0.550741 -0.379867 0.743226 0.708985 -0.327188 0.62473 0.0687269 -0.879111 0.471636 0.780916 -0.00163783 -0.624634 -0.655472 -0.209455 -0.725593 0.0824229 -0.96239 -0.258866 0.563592 0.179392 -0.806339 -0.456828 0.0658518 -0.887114 -0.835959 0.0676877 -0.544602 0.706959 0.0559655 -0.705037 0.702115 0.0748983 0.708113 0.631844 0.335882 0.698539 -0.712191 0.109787 0.693348 -0.894018 0.0518435 0.445021 0.679074 0.13715 0.721144 0.717753 -0.207085 -0.664791 0.423233 -0.766106 0.48369 0.719292 0.152091 -0.677855 -0.73163 -0.614758 -0.2946 -0.864306 0.139036 0.483367 -0.409909 -0.295087 0.863075 -0.452547 0.138962 -0.880847 0.661761 0.175237 -0.728948 0.64459 -0.366627 0.670886 0.49159 0.869242 0.0525047 0.419627 -0.799673 -0.429461 -0.559714 0.363397 0.744757 -0.67577 -0.704894 0.215545 -0.605923 0.476699 -0.63688 -0.324308 -0.510709 -0.796242 0.679702 0.649958 -0.339942 -0.285884 -0.19038 -0.939162 0.60661 -0.164566 -0.77778 -0.689355 0.722432 0.0536807 0.733845 -0.576975 -0.358568 -0.870685 -0.378354 -0.314255 0.413516 0.738023 0.533223 -0.730818 0.581862 0.35685 -0.893952 -0.0289437 -0.447228 -0.705679 -0.0543017 0.706447 -0.446976 0.0126878 -0.894456 0.894455 -0.00723942 0.447099 0.707043 0.0314646 -0.70647 0.707043 0.0314646 -0.70647 0.447228 -0.0199108 0.894199 -0.58094 -0.524887 0.622095 -0.767708 -0.388342 -0.50972 -0.54749 0.384234 0.743384 0.395507 -0.599848 0.695526 0.583389 0.588125 0.560148 0.945191 -0.127315 -0.300676 -0.752073 0.342436 0.563137 -0.553832 0.0857038 -0.828206 0.891502 0.301695 0.337942 0.544797 0.16332 -0.82251 0.447257 -0.024117 0.89408 -0.706851 -0.035583 0.706467 0.70665 0.0507889 -0.705738 -0.894612 0.0112305 -0.446703 0.705679 -0.0543017 0.706447 0.893952 -0.0289437 -0.447228 0.446976 0.0126878 -0.894456 0.705679 -0.0543017 0.706447 -0.707043 0.0314646 -0.70647 -0.894455 -0.00723942 0.447099 -0.707043 0.0314646 -0.70647 -0.447228 -0.0199108 0.894199 0.767708 -0.388342 -0.50972 0.58094 -0.524887 0.622095 0.443809 0.526871 0.724873 -0.729078 0.428499 0.533698 -0.395507 -0.599848 0.695526 -0.945191 -0.127315 -0.300676 0.834927 0.19544 0.514489 0.553832 0.0857038 -0.828206 -0.802743 0.446901 0.394822 -0.544797 0.16332 -0.82251 -0.447257 -0.024117 0.89408 0.706851 -0.035583 0.706467 -0.70665 0.0507889 -0.705738 0.894612 0.0112305 -0.446703</float_array>
					<technique_common>
						<accessor count="189" source="#ID24" stride="3">
							<param name="X" type="float"/>
							<param name="Y" type="float"/>
							<param name="Z" type="float"/>
						</accessor>
					</technique_common>
				</source>
				<source id="ID25">
					<float_array id="ID26" count="614" digits="2490374">0.552941 0.889764 0.431373 0.992126 0.439216 0.889764 0.556863 0.992126 0.576471 0.606299 0.701961 0.559055 0.694118 0.606299 0.568627 0.559055 0 0.653543 0 0.716535 0.513726 0.519685 0.478431 0.574803 0.486275 0.519685 0.521569 0.574803 0.431373 0.440945 0.517647 0.00787401 0.529412 0.496063 0.431373 0.00787401 0.65098 0.614173 0.760784 0.976378 0.643137 0.976378 0.74902 0.614173 0.564706 0.614173 0.635294 0.937008 0.643137 0.622047 0.576471 0.984252 0.658824 0.00787401 0.533333 0.149606 0.54902 0.00787401 0.678431 0.149606 0.439216 0.96063 0.564706 0.889764 0.552941 0.96063 0.427451 0.889764 0.670588 0.519685 0.592157 0.543307 0.576471 0.488189 0.662745 0.559055 0.596078 0.543307 0.580392 0.488189 0.666667 0.559055 0.435294 0.488189 0.556863 0.488189 0.0784314 0.834646 0.0823529 0.834646 0.0784314 0.84252 0.0509804 0.622047 0.0470588 0.598425 0.054902 0.598425 0.0431373 0.598425 0.192157 0.566929 0.168627 0.409449 0.219608 0.409449 0.164706 0.440945 0.133333 0.566929 0.113725 0.527559 0.266667 0.874016 0.270588 0.88189 0.266667 0.897638 0.109804 0.606299 0.0156863 0.606299 0.109804 0.653543 0.254902 0.897638 0.262745 0.88189 0.235294 0.622047 0.243137 0.598425 0.25098 0.622047 0.145098 0.913386 0.152941 0.905512 0.152941 0.929134 0.160784 0.913386 0.27451 0.897638 0.368627 0.92126 0.337255 0.834646 0.364706 0.795276 0.152941 0.913386 0.14902 0.913386 0.152941 0.897638 0.364706 0.80315 0.345098 0.708661 0.333333 0.850394 0.14902 0.88189 0.160784 0.889764 0.145098 0.897638 0.345098 0.952756 0.329412 0.913386 0.34902 0.937008 0.254902 0.976378 0.156863 0.992126 0.219608 0.913386 0.14902 0.889764 0.156863 0.913386 0.211765 0.92126 0.152941 0.992126 0.25098 0.96063 0.368627 0.913386 0.360784 0.88189 0.333333 0.692913 0.356863 0.944882 0.317647 0.944882 0.34902 0.929134 0.270588 0.795276 0.266667 0.76378 0.27451 0.732283 0.219608 0.905512 0.231373 0.984252 0.172549 0.976378 0.321569 0.897638 0.34902 0.944882 0.341176 0.937008 0.305882 0.96063 0.317647 0.913386 0.294118 0.795276 0.419608 0.645669 0.419608 0.897638 0.282353 0.669291 0.160784 0.897638 0.145098 0.92126 0.156863 0.92126 0.054902 0.212598 0 0.370079 0 0.188976 0.0352941 0.322835 0.109804 0.401575 0.054902 0.456693 0.137255 0.598425 0.270588 0.732283 0.254902 0.598425 0.117647 0.732283 0.113725 0.984252 0.27451 1 0.14902 0.92126 0.152941 0.88189 0.156863 0.937008 0.14902 0.897638 0.14902 0.929134 0.00392157 0.897638 0.109804 1 0.0470588 0.015748 0 0.031496 0.32549 1 0.290196 0.795276 0.419608 1 0.333333 1 0.423529 1 0.278431 0.669291 0.352941 0.19685 0.317647 0.031496 0.317647 0.19685 0.352941 0.031496 0.341176 0.102362 0.329412 0.165354 0.32549 0.102362 0.345098 0.181102 0.333333 0.11811 0.341176 0.0708662 0.329412 0.0708662 0.345098 0.11811 0.333333 0.0787402 0.341176 0.11811 0.345098 0.0708662 0.32549 0.11811 0.356863 0.165354 0.345098 0.19685 0.356863 0.19685 0.341176 0.165354 0.231373 0.283465 0.313726 0.267717 0.270588 0.212598 0.152941 0.275591 0.235294 0.291339 0.196078 0.220472 0.254902 0.19685 0.262745 0.023622 0.254902 0.023622 0.262745 0.19685 0.270588 0.204724 0.270588 0.023622 0.262745 0.204724 0.243137 0.204724 0.243137 0.023622 0.254902 0.204724 0.243137 0.19685 0.137255 0.023622 0.0588235 0.133858 0.145098 0.133858 0.0627451 0.023622 0.258824 0.385827 0.309804 0.385827 0.137255 0.362205 0.0588235 0.228346 0.0705882 0.362205 0.14902 0.228346 0.207843 0.393701 0.152941 0.393701 0.164706 0.19685 0.231373 0.0472441 0.156863 0.0472441 0.223529 0.19685 0.0745098 0.141732 0.137255 0.141732 0.854902 0.645669 0.760784 0.362205 0.862745 0.370079 0.772549 0.692913 0.988235 0.354331 0.878431 0.637795 0.866667 0.370079 0.972549 0.685039 0.792157 1 0.992157 0.685039 0.972549 1 0.772549 0.685039 0.992157 0.023622 0.788235 0.338583 0.764706 0.023622 0.968627 0.338583 0.894118 0.409449 0.952941 0.377953 0.94902 0.409449 0.894118 0.370079 0.658824 0.464567 0.741176 0.00787401 0.756863 0.598425 0.694118 0.023622 0.776471 1 0.764706 0.811024 0.776471 0.811024 0.764706 1 0.701961 0.11811 0.717647 0.244094 0.698039 0.275591 0.713726 0.125984 0.682353 0.346457 0.678431 0.244094 0.682353 0.244094 0.678431 0.346457 0.721569 0.188976 0.713726 0.133858 0.717647 0.133858 0.713726 0.188976 0.717647 0.19685 0.717647 0.125984 0.709804 0.19685 0.713726 0.181102 0.721569 0.0944883 0.717647 0.181102 0.717647 0.0944883 0.596078 0.165354 0.572549 0.433071 0.533333 0.275591 0.670588 0.267717 0.713726 0.141732 0.713726 0.19685 0.717647 0.141732 0.513726 0.590551 0.513726 0.598425 0.509804 0.598425 0.517647 0.590551 0.254902 0.00787401 0.321569 0.00787401 0.254902 0.015748 0.988235 0.84252 0.992157 0.992126 0.992157 0.84252 0.988235 0.992126 0.345098 0.00787401 0.411765 0.00787401 0.317647 0.212598 0.423529 0.212598 0.321569 0.291339 0.317647 0.220472 0.321569 0.299213 0.368627 0.385827 0.415686 0.385827 0.368627 0.393701 0.415686 0.393701 0.411765 0.125984 0.423529 0.0393701 0.411765 0.031496 0.423529 0.125984 0.454902 0.503937 0.482353 0.440945 0.454902 0.440945 0.47451 0.503937 0.419608 0.00787401 0.337255 0.015748 0.419608 0.015748 0.337255 0.00787401 0.4 0.188976 0.407843 0.031496 0.396078 0.031496 0.407843 0.188976 0.380392 0.031496 0.388235 0.19685 0.388235 0.031496 0.380392 0.204724 0.988235 0.834646 0.992157 0.984252 0.992157 0.834646 0.988235 0.984252 0.25098 0.00787401 0.329412 0.015748 0.329412 0.00787401 0.25098 0.015748 0.247059 0.00787401 0.247059 0.015748</float_array>
					<technique_common>
						<accessor count="307" source="#ID26" stride="2">
							<param name="S" type="float"/>
							<param name="T" type="float"/>
						</accessor>
					</technique_common>
				</source>
				<vertices id="ID27">
					<input semantic="POSITION" source="#ID21"/>
				</vertices>
				<polylist count="264" material="Material1">
					<input offset="0" semantic="VERTEX" source="#ID27" set="0"/>
					<input offset="1" semantic="NORMAL" source="#ID23" set="0"/>
					<input offset="2" semantic="TEXCOORD" source="#ID25" set="0"/>
					<vcount>3 3 3 3 3 3 3 3 3 3 3 3 3 3 3 3 3 3 3 3 3 3 3 3 3 3 3 3 3 3 3 3 3 3 3 3 3 3 3 3 3 3 3 3 3 3 3 3 3 3 3 3 3 3 3 3 3 3 3 3 3 3 3 3 3 3 3 3 3 3 3 3 3 3 3 3 3 3 3 3 3 3 3 3 3 3 3 3 3 3 3 3 3 3 3 3 3 3 3 3 3 3 3 3 3 3 3 3 3 3 3 3 3 3 3 3 3 3 3 3 3 3 3 3 3 3 3 3 3 3 3 3 3 3 3 3 3 3 3 3 3 3 3 3 3 3 3 3 3 3 3 3 3 3 3 3 3 3 3 3 3 3 3 3 3 3 3 3 3 3 3 3 3 3 3 3 3 3 3 3 3 3 3 3 3 3 3 3 3 3 3 3 3 3 3 3 3 3 3 3 3 3 3 3 3 3 3 3 3 3 3 3 3 3 3 3 3 3 3 3 3 3 3 3 3 3 3 3 3 3 3 3 3 3 3 3 3 3 3 3 3 3 3 3 3 3 3 3 3 3 3 3 3 3 3 3 3 3 3 3 3 3 3 3</vcount>
					<p>2 2 2 1 1 1 0 0 0 1 1 1 3 3 3 0 0 0 1 1 6 4 4 5 3 3 4 4 4 5 5 5 7 3 3 4 8 6 9 7 7 9 6 6 8 7 7 9 9 7 8 6 6 8 8 6 9 6 6 8 10 8 9 6 6 8 11 9 8 10 8 9 9 7 8 7 7 9 11 9 8 7 7 9 10 8 9 11 9 8 14 12 12 13 11 11 12 10 10 13 11 11 15 13 13 12 10 10 5 5 16 15 13 15 16 14 14 15 13 15 17 15 17 16 14 14 4 4 16 18 16 14 13 11 15 18 16 14 19 17 17 13 11 15 21 19 20 20 18 19 12 10 18 20 18 19 14 12 21 12 10 18 14 12 24 20 18 23 13 11 22 20 18 23 4 4 25 13 11 22 12 10 24 15 13 22 21 19 23 15 13 22 5 5 25 21 19 23 21 19 28 5 5 27 20 18 26 5 5 27 4 4 29 20 18 26 0 0 32 16 14 31 2 2 30 16 14 31 18 16 33 2 2 30 16 14 36 0 0 35 5 5 34 0 0 35 3 3 37 5 5 34 18 16 39 4 4 34 2 2 38 4 4 34 1 1 40 2 2 38 18 16 33 16 14 31 19 17 41 16 14 31 17 15 42 19 17 41 24 22 45 23 21 44 22 20 43 23 21 48 24 22 47 25 23 46 25 23 46 24 22 47 22 20 49 28 26 52 27 25 51 26 24 50 26 24 55 29 27 54 28 26 53 26 24 55 27 25 53 30 28 54 32 30 58 27 25 57 31 29 56 35 33 61 34 32 60 33 31 59 32 30 58 28 26 63 36 34 62 28 26 66 31 29 65 27 25 64 37 35 60 35 33 61 33 31 59 40 38 69 39 37 68 38 36 67 39 37 68 40 38 69 41 39 70 28 26 63 32 30 58 31 29 56 27 25 57 32 30 58 42 40 71 45 43 74 44 42 73 43 41 72 48 46 77 47 45 76 46 44 75 51 49 80 50 48 79 49 47 78 46 44 83 47 45 82 52 50 81 44 42 86 53 51 85 43 41 84 54 52 89 50 48 88 51 49 87 57 55 91 56 54 82 55 53 90 52 50 94 47 45 93 48 46 92 49 47 78 58 56 95 51 49 80 53 51 85 44 42 86 59 57 96 44 42 73 45 43 74 59 57 97 62 60 100 61 59 99 60 58 98 57 55 69 63 61 68 56 54 83 53 51 103 59 57 102 45 43 101 56 54 106 63 61 105 55 53 104 60 58 99 61 59 108 64 62 107 64 62 111 61 59 110 62 60 109 67 65 114 66 64 113 65 63 112 66 64 113 68 66 115 65 63 112 70 68 83 41 39 117 69 67 116 41 39 117 71 69 118 69 67 116 74 72 121 73 71 120 72 70 119 73 71 120 75 73 122 72 70 119 33 31 59 26 24 123 37 35 60 26 24 123 30 28 124 37 35 60 74 72 121 69 67 119 73 71 120 69 67 119 71 69 122 73 71 120 33 31 59 34 32 60 26 24 123 34 32 60 29 27 124 26 24 123 27 25 127 42 40 126 30 28 125 42 40 126 37 35 128 30 28 125 69 67 130 36 34 126 70 68 129 36 34 126 34 32 128 70 68 129 76 74 116 72 70 83 38 36 118 72 70 83 75 73 131 38 36 118 42 40 126 72 70 130 37 35 128 72 70 130 76 74 129 37 35 128 29 27 125 34 32 128 28 26 127 34 32 128 36 34 126 28 26 127 73 71 132 40 38 69 75 73 116 40 38 69 38 36 133 75 73 116 73 71 132 71 69 134 40 38 69 71 69 134 41 39 135 40 38 69 77 75 137 35 33 61 76 74 136 35 33 61 37 35 60 76 74 136 77 75 137 70 68 136 35 33 61 70 68 136 34 32 60 35 33 61 72 70 119 42 40 138 74 72 121 42 40 138 32 30 139 74 72 121 69 67 119 74 72 121 36 34 138 74 72 121 32 30 139 36 34 138 78 76 141 38 36 140 67 65 114 38 36 140 39 37 142 67 65 114 65 63 112 67 65 114 41 39 143 67 65 114 39 37 144 41 39 143 67 65 114 78 76 141 66 64 113 78 76 141 79 77 145 66 64 113 67 65 114 66 64 113 78 76 141 66 64 113 79 77 145 78 76 141 67 65 114 65 63 112 66 64 113 65 63 112 68 66 115 66 64 113 82 80 148 81 79 147 80 78 146 81 79 147 83 81 149 80 78 146 81 79 152 82 80 151 84 82 150 82 80 151 85 83 153 84 82 150 83 81 156 86 84 155 80 78 154 86 84 155 87 85 157 80 78 154 85 83 160 87 85 159 84 82 158 87 85 159 86 84 161 84 82 158 80 78 164 87 85 163 82 80 162 87 85 163 85 83 165 82 80 162 90 88 168 89 87 167 88 86 166 93 91 171 92 90 170 91 89 169 96 94 174 95 93 173 94 92 172 95 93 173 97 95 175 94 92 172 99 97 177 98 96 176 95 93 173 98 96 176 97 95 178 95 93 173 99 97 180 100 98 174 98 96 179 100 98 174 101 99 181 98 96 179 100 98 180 96 94 174 101 99 182 96 94 174 94 92 172 101 99 182 91 89 185 89 87 184 93 91 183 89 87 184 90 88 186 93 91 183 88 86 166 89 87 167 99 97 187 89 87 167 100 98 188 99 97 187 95 93 191 92 90 190 99 97 189 92 90 190 88 86 192 99 97 189 92 90 170 95 93 193 91 89 169 95 93 193 96 94 194 91 89 169 89 87 197 91 89 196 100 98 195 91 89 196 96 94 198 100 98 195 90 88 200 88 86 192 93 91 199 88 86 192 92 90 190 93 91 199 104 102 148 103 101 146 102 100 147 103 101 146 105 103 149 102 100 147 102 100 152 106 104 150 104 102 151 106 104 150 107 105 153 104 102 151 105 103 156 103 101 154 108 106 155 103 101 154 109 107 157 108 106 155 107 105 160 106 104 158 109 107 159 106 104 158 108 106 161 109 107 159 103 101 164 104 102 162 109 107 163 104 102 162 107 105 165 109 107 163 112 110 168 111 109 166 110 108 167 115 113 171 114 112 169 113 111 170 118 116 174 117 115 172 116 114 173 117 115 172 119 117 175 116 114 173 121 119 177 116 114 173 120 118 176 116 114 173 119 117 178 120 118 176 121 119 180 120 118 179 122 120 174 120 118 179 123 121 181 122 120 174 122 120 180 123 121 182 118 116 174 123 121 182 117 115 172 118 116 174 112 110 186 110 108 184 115 113 183 110 108 184 114 112 185 115 113 183 111 109 166 121 119 187 110 108 167 121 119 187 122 120 188 110 108 167 111 109 192 113 111 190 121 119 189 113 111 190 116 114 191 121 119 189 113 111 170 114 112 169 116 114 193 114 112 169 118 116 194 116 114 193 118 116 198 114 112 196 122 120 195 114 112 196 110 108 197 122 120 195 113 111 190 111 109 192 115 113 199 111 109 192 112 110 200 115 113 199 126 124 203 125 123 202 124 122 201 125 123 202 127 125 204 124 122 201 130 128 207 129 127 206 128 126 205 129 127 206 131 129 208 128 126 205 129 127 211 130 128 210 124 122 209 130 128 210 126 124 212 124 122 209 128 126 215 131 129 214 125 123 213 131 129 214 127 125 216 125 123 213 130 128 219 128 126 218 126 124 217 128 126 218 125 123 220 126 124 217 134 132 223 133 131 222 132 130 221 133 131 222 135 133 224 132 130 221 137 135 227 133 131 226 136 134 225 133 131 226 134 132 228 136 134 225 136 134 231 138 136 230 137 135 229 138 136 230 139 137 232 137 135 229 135 133 235 139 137 234 132 130 233 139 137 234 138 136 236 132 130 233 139 137 239 135 133 238 137 135 237 135 133 238 133 131 240 137 135 237 142 140 242 141 139 232 140 138 241 141 139 232 143 141 243 140 138 241 142 140 246 144 142 245 141 139 244 144 142 245 145 143 247 141 139 244 142 140 250 140 138 249 144 142 248 140 138 249 146 144 251 144 142 248 140 138 253 143 141 241 146 144 252 143 141 241 147 145 254 146 144 252 147 145 251 143 141 249 145 143 248 143 141 249 141 139 250 145 143 248 136 134 257 134 132 256 138 136 255 134 132 256 132 130 258 138 136 255 150 148 260 149 147 260 148 146 259 149 147 260 151 147 261 148 146 259 154 151 264 153 150 263 152 149 262 153 150 263 155 152 265 152 149 262 151 147 266 149 147 267 155 152 266 149 147 267 152 149 267 155 152 266 148 146 259 153 150 259 150 148 260 153 150 259 154 151 260 150 148 260 158 155 270 157 154 269 156 153 268 161 158 269 160 157 272 159 156 271 163 160 274 157 154 269 162 159 273 157 154 269 158 155 270 162 159 273 165 162 276 164 161 275 161 158 269 164 161 275 160 157 272 161 158 269 156 153 279 159 156 278 158 155 277 159 156 278 160 157 280 158 155 277 158 155 283 160 157 282 162 159 281 160 157 282 164 161 284 162 159 281 164 161 287 166 163 286 162 159 285 166 163 286 167 164 288 162 159 285 161 158 291 157 154 290 165 162 289 157 154 290 163 160 292 165 162 289 161 158 295 159 156 294 157 154 293 159 156 294 156 153 296 157 154 293 165 162 299 168 165 298 164 161 297 168 165 298 166 163 300 164 161 297 163 160 303 162 159 302 169 166 301 162 159 302 167 164 304 169 166 301 165 162 303 163 160 302 168 165 305 163 160 302 169 166 306 168 165 305 172 169 260 171 168 259 170 167 260 171 168 259 173 170 261 170 167 260 176 173 264 175 172 262 174 171 263 175 172 262 177 174 265 174 171 263 173 170 266 177 174 266 170 167 267 177 174 266 175 172 267 170 167 267 171 168 259 172 169 260 174 171 259 172 169 260 176 173 260 174 171 259 180 177 270 179 176 268 178 175 269 183 180 269 182 179 271 181 178 272 185 182 274 184 181 273 178 175 269 184 181 273 180 177 270 178 175 269 187 184 276 183 180 269 186 183 275 183 180 269 181 178 272 186 183 275 179 176 279 180 177 277 182 179 278 180 177 277 181 178 280 182 179 278 181 178 282 180 177 283 186 183 284 180 177 283 184 181 281 186 183 284 186 183 287 184 181 285 188 185 286 184 181 285 189 186 288 188 185 286 183 180 291 187 184 289 178 175 290 187 184 289 185 182 292 178 175 290 183 180 295 178 175 293 182 179 294 178 175 293 179 176 296 182 179 294 187 184 299 186 183 297 190 187 298 186 183 297 188 185 300 190 187 298 185 182 303 191 188 301 184 181 302 191 188 301 189 186 304 184 181 302 187 184 303 190 187 305 185 182 302 190 187 305 191 188 306 185 182 302</p>
				</polylist>
			</mesh>
		</geometry>
	</library_geometries>
	<library_controllers>
		<controller id="ID19">
			<skin source="#ID20">
				<bind_shape_matrix>1 0 0 0 0 1 0 0 0 0 1 0 0 0 0 1</bind_shape_matrix>
				<source id="ID28">
					<Name_array id="ID29" count="11">joint1 joint11 joint9 joint10 joint7 joint8 joint2 joint5 joint6 joint3 joint4</Name_array>
					<technique_common>
						<accessor count="11" source="#ID29">
							<param name="JOINT" type="Name"/>
						</accessor>
					</technique_common>
				</source>
				<source id="ID30">
					<float_array id="ID31" count="2" digits="2490374">0 1</float_array>
					<technique_common>
						<accessor count="2" source="#ID31">
							<param name="WEIGHT" type="float"/>
						</accessor>
					</technique_common>
				</source>
				<source id="ID32">
					<float_array id="ID33" count="176" digits="2490374">1 0 0 -0 0 1 0 0 0 0 1 0 0 0 0 1 1 0 0 0 0 1 0 -12.7 0 0 1 0.55 0 0 0 1 1 5.55112e-17 1.38778e-17 -4 5.55112e-17 1 7.70372e-34 -10.7 -0 -0 1 0.75 0 0 0 1 1 0 0 -7.65 0 1 0 -1.85 0 0 1 2.2 0 0 0 1 1 -5.55112e-17 -1.38778e-17 4 -5.55112e-17 1 7.70372e-34 -10.7 0 0 1 0.75 0 0 0 1 1 0 0 7.65 0 1 0 -1.85 0 0 1 2.2 0 0 0 1 1 0 -1.73472e-18 -0 -5.55112e-17 1 9.62965e-35 0 -3.46945e-18 0 1 0 0 0 0 1 1 0 0 -2.8 0 1 -2.77556e-17 5.5 0 0 1 0.15 0 0 0 1 1 0 0 -2.8 0 1 0 17.85 0 0 1 -1.95 0 0 0 1 1 0 0 2.8 0 1 -2.77556e-17 5.5 0 0 1 0.15 0 0 0 1 1 0 0 2.8 0 1 0 17.85 0 0 1 -1.95 0 0 0 1</float_array>
					<technique_common>
						<accessor count="11" source="#ID33" stride="16">
							<param name="TRANSFORM" type="float4x4"/>
						</accessor>
					</technique_common>
				</source>
				<joints>
					<input semantic="JOINT" source="#ID28"/>
					<input semantic="INV_BIND_MATRIX" source="#ID32"/>
				</joints>
				<vertex_weights count="192">
					<input offset="0" semantic="JOINT" source="#ID28" set="0"/>
					<input offset="1" semantic="WEIGHT" source="#ID30" set="0"/>
					<vcount>1 1 1 1 1 1 1 1 1 1 1 1 1 1 1 1 1 1 1 1 1 1 1 1 1 1 1 1 1 1 1 1 1 1 1 1 1 1 1 1 1 1 1 1 1 1 1 1 1 1 1 1 1 1 1 1 1 1 1 1 1 1 1 1 1 1 1 1 1 1 1 1 1 1 1 1 1 1 1 1 1 1 1 1 1 1 1 1 1 1 1 1 1 1 1 1 1 1 1 1 1 1 1 1 1 1 1 1 1 1 1 1 1 1 1 1 1 1 1 1 1 1 1 1 1 1 1 1 1 1 1 1 1 1 1 1 1 1 1 1 1 1 1 1 1 1 1 1 1 1 1 1 1 1 1 1 1 1 1 1 1 1 1 1 1 1 1 1 1 1 1 1 1 1 1 1 1 1 1 1 1 1 1 1 1 1 1 1 1 1 1 1</vcount>
					<v>0 1 0 1 0 1 0 1 0 1 0 1 0 1 0 1 0 1 0 1 0 1 0 1 0 1 0 1 0 1 0 1 0 1 0 1 0 1 0 1 0 1 0 1 1 1 1 1 1 1 1 1 1 1 1 1 1 1 1 1 1 1 1 1 1 1 1 1 1 1 1 1 1 1 1 1 1 1 1 1 1 1 1 1 1 1 1 1 1 1 1 1 1 1 1 1 1 1 1 1 1 1 1 1 1 1 1 1 1 1 1 1 1 1 1 1 1 1 1 1 1 1 1 1 1 1 1 1 1 1 1 1 1 1 1 1 1 1 1 1 1 1 1 1 1 1 1 1 1 1 1 1 1 1 1 1 1 1 1 1 2 1 2 1 2 1 2 1 2 1 2 1 2 1 2 1 3 1 3 1 3 1 3 1 3 1 3 1 3 1 3 1 3 1 3 1 3 1 3 1 3 1 3 1 4 1 4 1 4 1 4 1 4 1 4 1 4 1 4 1 5 1 5 1 5 1 5 1 5 1 5 1 5 1 5 1 5 1 5 1 5 1 5 1 5 1 5 1 6 1 6 1 6 1 6 1 6 1 6 1 6 1 6 1 6 1 6 1 6 1 6 1 6 1 6 1 6 1 6 1 6 1 6 1 6 1 6 1 6 1 6 1 6 1 6 1 7 1 7 1 7 1 7 1 7 1 7 1 7 1 7 1 8 1 8 1 8 1 8 1 8 1 8 1 8 1 8 1 8 1 8 1 8 1 8 1 8 1 8 1 9 1 9 1 9 1 9 1 9 1 9 1 9 1 9 1 10 1 10 1 10 1 10 1 10 1 10 1 10 1 10 1 10 1 10 1 10 1 10 1 10 1 10 1</v>
				</vertex_weights>
			</skin>
		</controller>
	</library_controllers>
	<library_visual_scenes>
		<visual_scene id="ID5">
			<node id="ID6" name="Mesh">
				<translate sid="translate">0 0 -0</translate>
				<rotate sid="rotateY">0 1 0 -0</rotate>
				<rotate sid="rotateX">1 0 0 0</rotate>
				<rotate sid="rotateZ">0 0 1 -0</rotate>
				<scale sid="scale">1 1 1</scale>
				<instance_controller url="#ID19">
					<skeleton>#ID5</skeleton>
					<bind_material>
						<technique_common>
							<instance_material symbol="Material1" target="#ID1">
								<bind_vertex_input semantic="UVSET0" input_semantic="TEXCOORD" input_set="0"/>
							</instance_material>
						</technique_common>
					</bind_material>
				</instance_controller>
			</node>
			<node id="ID7" name="Armature">
				<translate sid="translate">0 0 -0</translate>
				<rotate sid="rotateY">0 1 0 -0</rotate>
				<rotate sid="rotateX">1 0 0 0</rotate>
				<rotate sid="rotateZ">0 0 1 -0</rotate>
				<scale sid="scale">1 1 1</scale>
				<node id="ID8" name="Bone000" sid="joint1" type="JOINT">
					<translate sid="translate">0 0 -0</translate>
					<rotate sid="rotateY">0 1 0 -0</rotate>
					<rotate sid="rotateX">1 0 0 0</rotate>
					<rotate sid="rotateZ">0 0 1 -0</rotate>
					<scale sid="scale">1 1 1</scale>
					<node id="ID9" name="Bone006" sid="joint2" type="JOINT">
						<translate sid="translate">0 0 -0</translate>
						<rotate sid="rotateY">0 1 0 -0</rotate>
						<rotate sid="rotateX">1 0 0 0</rotate>
						<rotate sid="rotateZ">0 0 1 -0</rotate>
						<scale sid="scale">1 1 1</scale>
						<node id="ID10" name="Bone009" sid="joint3" type="JOINT">
							<translate sid="translate">-2.8 -5.5 -0.15</translate>
							<rotate sid="rotateY">0 1 0 -0</rotate>
							<rotate sid="rotateX">1 0 0 0</rotate>
							<rotate sid="rotateZ">0 0 1 -0</rotate>
							<scale sid="scale">1 1 1</scale>
							<node id="ID11" name="Bone010" sid="joint4" type="JOINT">
								<translate sid="translate">0 -12.35 2.1</translate>
								<rotate sid="rotateY">0 1 0 -0</rotate>
								<rotate sid="rotateX">1 0 0 0</rotate>
								<rotate sid="rotateZ">0 0 1 -0</rotate>
								<scale sid="scale">1 1 1</scale>
							</node>
						</node>
						<node id="ID12" name="Bone007" sid="joint5" type="JOINT">
							<translate sid="translate">2.8 -5.5 -0.15</translate>
							<rotate sid="rotateY">0 1 0 -0</rotate>
							<rotate sid="rotateX">1 0 0 0</rotate>
							<rotate sid="rotateZ">0 0 1 -0</rotate>
							<scale sid="scale">1 1 1</scale>
							<node id="ID13" name="Bone008" sid="joint6" type="JOINT">
								<translate sid="translate">0 -12.35 2.1</translate>
								<rotate sid="rotateY">0 1 0 -0</rotate>
								<rotate sid="rotateX">1 0 0 0</rotate>
								<rotate sid="rotateZ">0 0 1 -0</rotate>
								<scale sid="scale">1 1 1</scale>
							</node>
						</node>
					</node>
					<node id="ID14" name="Bone004" sid="joint7" type="JOINT">
						<translate sid="translate">-4 10.7 -0.75</translate>
						<rotate sid="rotateY">0 1 0 -0</rotate>
						<rotate sid="rotateX">1 0 0 0</rotate>
						<rotate sid="rotateZ">0 0 1 -0</rotate>
						<scale sid="scale">1 1 1</scale>
						<node id="ID15" name="Bone005" sid="joint8" type="JOINT">
							<translate sid="translate">-3.65 -8.85 -1.45</translate>
							<rotate sid="rotateY">0 1 0 -0</rotate>
							<rotate sid="rotateX">1 0 0 0</rotate>
							<rotate sid="rotateZ">0 0 1 -0</rotate>
							<scale sid="scale">1 1 1</scale>
						</node>
					</node>
					<node id="ID16" name="Bone002" sid="joint9" type="JOINT">
						<translate sid="translate">4 10.7 -0.75</translate>
						<rotate sid="rotateY">0 1 0 -0</rotate>
						<rotate sid="rotateX">1 0 0 0</rotate>
						<rotate sid="rotateZ">0 0 1 -0</rotate>
						<scale sid="scale">1 1 1</scale>
						<node id="ID17" name="Bone003" sid="joint10" type="JOINT">
							<translate sid="translate">3.65 -8.85 -1.45</translate>
							<rotate sid="rotateY">0 1 0 -0</rotate>
							<rotate sid="rotateX">1 0 0 0</rotate>
							<rotate sid="rotateZ">0 0 1 -0</rotate>
							<scale sid="scale">1 1 1</scale>
						</node>
					</node>
					<node id="ID18" name="Bone001" sid="joint11" type="JOINT">
						<translate sid="translate">0 12.7 -0.55</translate>
						<rotate sid="rotateY">0 1 0 -0</rotate>
						<rotate sid="rotateX">1 0 0 0</rotate>
						<rotate sid="rotateZ">0 0 1 -0</rotate>
						<scale sid="scale">1 1 1</scale>
					</node>
				</node>
			</node>
		</visual_scene>
	</library_visual_scenes>
	<scene>
		<instance_visual_scene url="#ID5"/>
	</scene>
</COLLADA>
