# WaveFront *.obj file (generated by CINEMA 4D)

mtllib ./Artillery_the_Digger.mtl

v -4.15000009536743 12.19999980926514 -1.54999995231628
v 4.44999980926514 12.69999980926514 3.15000009536743
v 4.15000009536743 12.19999980926514 -1.54999995231628
v -4.44999980926514 12.69999980926514 3.15000009536743
v 5.15000009536743 11.35000038146973 3.54999995231628
v -5.15000009536743 11.35000038146973 3.54999995231628
v 0 12.44999980926514 1.85000002384186
v 1.5 14.10000038146973 -0.85000002384186
v 0 14.5 1.85000002384186
v 1.5 12.25 -0.85000002384186
v -1.5 14.10000038146973 -0.85000002384186
v -1.5 12.25 -0.85000002384186
v -3.20000004768372 -0.85000002384186 7.80000019073486
v 4.65000009536743 -1.04999995231628 2.84999990463257
v 3.15000009536743 -0.85000002384186 7.80000019073486
v -4.65000009536743 -1.04999995231628 2.84999990463257
v -4.90000009536743 10.10000038146973 -2.65000009536743
v -4.44999980926514 -1.04999995231628 -2.79999995231628
v 4.90000009536743 10.10000038146973 -2.65000009536743
v 4.44999980926514 -1.04999995231628 -2.79999995231628
v 3.70000004768372 9.80000019073486 7.30000019073486
v -3.70000004768372 9.80000019073486 7.30000019073486
v 0.44999998807907 16.64999961853027 -4.40000009536743
v -0.44999998807907 16.64999961853027 -4.40000009536743
v 0 16.89999961853027 -5.19999980926514
v 0 18 -4.25
v 0 13.39999961853027 -2.95000004768372
v 2.34999990463257 14.30000019073486 2.70000004768372
v -2.34999990463257 14.30000019073486 2.70000004768372
v -2.40000009536743 14.35000038146973 -2.40000009536743
v 2.40000009536743 14.35000038146973 -2.40000009536743
v 0 12.94999980926514 4.69999980926514
v 0 16.95000076293945 6.5
v 0 16.70000076293945 -4.69999980926514
v -4 16.89999961853027 -3
v 0 17.54999923706055 -4.30000019073486
v -3.84999990463257 16.89999961853027 3.40000009536743
v 4 16.89999961853027 -3
v 2.90000009536743 25.35000038146973 -2.20000004768372
v 0.05000000074506 24.95000076293945 -4
v 0.05000000074506 26.14999961853027 -1.45000004768372
v -2.75 25.35000038146973 -2.20000004768372
v 3.84999990463257 16.89999961853027 3.40000009536743
v 5.80000019073486 23.60000038146973 -3.15000009536743
v 3.84999990463257 22 -4.09999990463257
v -7.65000009536743 21.89999961853027 1.85000002384186
v -4.80000019073486 21.79999923706055 -0.89999997615814
v -3.79999995231628 22 -4.09999990463257
v -5.55000019073486 19.14999961853027 -3.5
v -5.94999980926514 23.54999923706055 -2.65000009536743
v 4.75 21.85000038146973 -0.89999997615814
v 4.19999980926514 21.70000076293945 0.05000000074506
v 7.69999980926514 23.85000038146973 -0.5
v 2.95000004768372 25.29999923706055 -1.45000004768372
v 6.59999990463257 19.95000076293945 -4
v 2.54999995231628 25.20000076293945 -2.45000004768372
v 4.19999980926514 25.10000038146973 -6.55000019073486
v 0.69999998807907 23.85000038146973 -4.15000009536743
v 3.5 22.95000076293945 -3.20000004768372
v 3.04999995231628 22.20000076293945 -3
v 0 19.79999923706055 -5.5
v 0 23.25 -5.25
v -4.09999990463257 20.04999923706055 -4.15000009536743
v -4.40000009536743 22.10000038146973 3.5
v -4.5 21.70000076293945 -3.25
v -2.90000009536743 25.25 2.75
v 4.44999980926514 22.10000038146973 3.5
v 0.05000000074506 26.10000038146973 4.25
v 0 21 6.90000009536743
v 3 25.25 2.75
v 4.5 21.70000076293945 -3.25
v 0 23.25 -4.84999990463257
v 4.15000009536743 20.04999923706055 -4.15000009536743
v 7.84999990463257 9.85000038146973 2.54999995231628
v 8.64999961853027 1.75 -0.80000001192093
v 7.84999990463257 9.85000038146973 -0.89999997615814
v 8.64999961853027 1.75 2.5
v 5.15000009536743 1.75 -0.80000001192093
v 4.59999990463257 12.35000038146973 -0.89999997615814
v 5.15000009536743 1.75 2.5
v 4.59999990463257 12.35000038146973 2.45000004768372
v 3.29999995231628 -10.80000019073486 -2.65000009536743
v 8.89999961853027 -11.30000019073486 -2.45000004768372
v 5.84999990463257 -13.25 -2
v 8.89999961853027 -11.30000019073486 3.59999990463257
v 3.29999995231628 -10.80000019073486 3.84999990463257
v 5.84999990463257 -13.25 2.90000009536743
v 8.64999961853027 2.15000009536743 2.5
v 5.09999990463257 -7.30000019073486 3.20000004768372
v 8.75 -7.30000019073486 3.09999990463257
v 5.15000009536743 2.15000009536743 2.5
v 5.15000009536743 2.15000009536743 -0.80000001192093
v 5.09999990463257 -7.30000019073486 -1.79999995231628
v 8.75 -7.30000019073486 -1.70000004768372
v 8.64999961853027 2.15000009536743 -0.80000001192093
v -8.64999961853027 1.75 -0.80000001192093
v -7.84999990463257 9.85000038146973 2.54999995231628
v -7.84999990463257 9.85000038146973 -0.89999997615814
v -8.64999961853027 1.75 2.5
v -5.15000009536743 1.75 -0.80000001192093
v -4.59999990463257 12.35000038146973 -0.89999997615814
v -5.15000009536743 1.75 2.5
v -4.59999990463257 12.35000038146973 2.45000004768372
v -8.89999961853027 -11.30000019073486 -2.45000004768372
v -3.29999995231628 -10.80000019073486 -2.65000009536743
v -5.84999990463257 -13.25 -2
v -3.29999995231628 -10.80000019073486 3.84999990463257
v -8.89999961853027 -11.30000019073486 3.59999990463257
v -5.84999990463257 -13.25 2.90000009536743
v -5.09999990463257 -7.30000019073486 3.20000004768372
v -8.64999961853027 2.15000009536743 2.5
v -8.75 -7.30000019073486 3.09999990463257
v -5.15000009536743 2.15000009536743 2.5
v -5.15000009536743 2.15000009536743 -0.80000001192093
v -5.09999990463257 -7.30000019073486 -1.79999995231628
v -8.75 -7.30000019073486 -1.70000004768372
v -8.64999961853027 2.15000009536743 -0.80000001192093
v 4.44999980926514 0 -2.79999995231628
v 5.80000019073486 -8.25 3.59999990463257
v 5.40000009536743 -7.94999980926514 -3.45000004768372
v 4.65000009536743 1.20000004768372 2.70000004768372
v -5.80000019073486 -8.25 3.59999990463257
v -4.44999980926514 0 -2.79999995231628
v -5.40000009536743 -7.94999980926514 -3.45000004768372
v -4.65000009536743 1.20000004768372 2.70000004768372
v 7 -7.19999980926514 3.20000004768372
v 6.90000009536743 -18.70000076293945 -1.95000004768372
v 6.55000019073486 -3.84999990463257 -3
v 7.09999990463257 -18.35000038146973 1.10000002384186
v 5.19999980926514 -3.84999990463257 -2.95000004768372
v 5.59999990463257 -18.75 -1.85000002384186
v 5.65000009536743 -7.25 3.25
v 5.75 -18.35000038146973 1.20000004768372
v 6.90000009536743 0.34999999403954 3.04999995231628
v 5.75 -3.65000009536743 5.59999990463257
v 7.09999990463257 -3.65000009536743 5.55000019073486
v 5.55000019073486 0.30000001192093 3.09999990463257
v 6.84999990463257 -6.34999990463257 1.64999997615814
v 5.55000019073486 -6.40000009536743 1.70000004768372
v 0 -6.05000019073486 3
v 0.64999997615814 -18.39999961853027 -2.70000004768372
v 0.64999997615814 -18.39999961853027 3.5
v 0 -6.05000019073486 -3
v 5.25 -18.39999961853027 -2.70000004768372
v 5.19999980926514 -6.05000019073486 3
v 5.25 -18.39999961853027 3.5
v 5.19999980926514 -6.05000019073486 -3
v 0.34999999403954 -38.04999923706055 -9.44999980926514
v 0.34999999403954 -38.04999923706055 5.25
v 0.5 -34.79999923706055 -9.05000019073486
v 6.34999990463257 -38.04999923706055 -9
v 6.40000009536743 -34.79999923706055 -8.55000019073486
v 7.15000009536743 -38.04999923706055 5.25
v 0.85000002384186 -31.14999961853027 -2.20000004768372
v 0.85000002384186 -31.14999961853027 4.25
v 5.5 -31.14999961853027 -2.20000004768372
v 5.5 -31.14999961853027 4.25
v 5.25 -17.25 -2.70000004768372
v 0.64999997615814 -17.25 -2.70000004768372
v 5.25 -17.25 3.5
v 0.64999997615814 -17.25 3.5
v -0.64999997615814 -18.39999961853027 -2.70000004768372
v -0.64999997615814 -18.39999961853027 3.5
v -5.19999980926514 -6.05000019073486 3
v -5.25 -18.39999961853027 -2.70000004768372
v -5.25 -18.39999961853027 3.5
v -5.19999980926514 -6.05000019073486 -3
v -0.34999999403954 -38.04999923706055 5.25
v -0.34999999403954 -38.04999923706055 -9.44999980926514
v -0.5 -34.79999923706055 -9.05000019073486
v -6.40000009536743 -34.79999923706055 -8.55000019073486
v -6.34999990463257 -38.04999923706055 -9
v -7.15000009536743 -38.04999923706055 5.25
v -0.85000002384186 -31.14999961853027 -2.20000004768372
v -0.85000002384186 -31.14999961853027 4.25
v -5.5 -31.14999961853027 -2.20000004768372
v -5.5 -31.14999961853027 4.25
v -5.25 -17.25 -2.70000004768372
v -0.64999997615814 -17.25 -2.70000004768372
v -5.25 -17.25 3.5
v -0.64999997615814 -17.25 3.5
# 181 vertices

vn -0.45651242136955 0.82553672790527 -0.3317913711071
vn 0.30630990862846 0.92607820034027 0.22034832835197
vn 0.46440762281418 0.70373672246933 -0.53766179084778
vn 0 0 0
vn -0.32249563932419 0.7191224694252 0.61551553010941
vn 0.75459307432175 0.44646811485291 0.4808903336525
vn -0.74227064847946 0.56595093011856 0.35879495739937
vn 0 0 1
vn 0.86187088489532 0 -0.50712776184082
vn -0.99986517429352 0 -0.01642170548439
vn -0.49993258714676 0 -0.86606431007385
vn -0.29961320757866 -0.60505747795105 0.73765671253204
vn 0.8645201921463 -0.48184707760811 0.14292737841606
vn 0.4997099339962 -0.51642483472824 0.69541025161743
vn -0.94791358709335 -0.283820271492 0.14458864927292
vn -0.57430344820023 0.24918712675571 -0.77979570627213
vn -0.69412589073181 -0.01833308674395 -0.71962010860443
vn 0.79621857404709 0.21493515372276 -0.56554299592972
vn 0.44048795104027 -0.00570034096017 -0.89774042367935
vn 0.44032657146454 0.4297539293766 0.78830456733704
vn -0.6551753282547 0.30459713935852 0.69135069847107
vn 0.68276923894882 -0.49390962719917 -0.53840458393097
vn -0.68276917934418 -0.49390962719917 -0.53840458393097
vn 0 -0.26673886179924 -0.96376883983612
vn 0 0.65361970663071 -0.75682312250137
vn -0.00000001074453 -0.82158309221268 -0.57008880376816
vn 0.51563358306885 -0.83546137809753 0.19006903469563
vn -0.58175230026245 -0.79676389694214 0.16349789500237
vn -0.60745304822922 -0.72584980726242 -0.32271173596382
vn 0.69662016630173 -0.67862343788147 -0.23278878629208
vn 0 -0.88939100503922 0.45714727044106
vn 0 -0.37942379713058 0.92522299289703
vn 0 -0.02090994641185 -0.99978137016296
vn -0.73119747638702 -0.30046683549881 -0.61242949962616
vn 0 0.08274535834789 -0.99657070636749
vn -0.86638647317886 -0.25474214553833 0.42951241135597
vn 0.75644689798355 -0.23074249923229 -0.61200159788132
vn 0.58345109224319 0.72247874736786 -0.37095728516579
vn -0.00016070819402 0.77828270196915 -0.62791401147842
vn -0.00110132037662 0.99003469944 -0.14081946015358
vn -0.57781577110291 0.72948753833771 -0.36602857708931
vn 0.83928143978119 -0.33665344119072 0.42693218588829
vn 0.46569803357124 0.86726695299149 -0.17599239945412
vn 0.73578548431396 0.60900801420212 -0.2961907684803
vn -0.20254257321358 -0.01588288135827 -0.97914463281631
vn 0.16534714400768 0.64300805330276 0.74779736995697
vn -0.5835040807724 -0.07686948031187 0.80846405029297
vn 0.23058579862118 -0.93398988246918 0.27293416857719
vn -0.34824669361114 0.33570954203606 -0.8752276301384
vn -0.95298856496811 -0.02835683710873 -0.30167654156685
vn -0.75502979755402 0.23461075127125 -0.61228084564209
vn -0.94225615262985 0.09491802752018 -0.32116022706032
vn 0.538654088974 -0.12064236402512 0.83384484052658
vn -0.8913865685463 -0.16275376081467 0.4230143725872
vn 0.4591888487339 -0.57409924268723 0.67790538072586
vn 0.93781340122223 0.22747704386711 -0.26222166419029
vn 0.24791076779366 0.94674235582352 0.20547294616699
vn -0.17985683679581 0.52734440565109 -0.83039712905884
vn 0.68307262659073 -0.58463275432587 -0.43773996829987
vn 0.43982607126236 0.88453084230423 0.15542919933796
vn 0.4675025343895 0.37249851226807 -0.80167716741562
vn -0.59197384119034 0.13051261007786 -0.79531973600388
vn 0.55661964416504 -0.14186079800129 -0.8185658454895
vn 0.72195196151733 -0.63177162408829 -0.28222325444221
vn -0.40184620022774 0.54380714893341 -0.73674517869949
vn -0.44444444775581 -0.11111111193895 -0.88888889551163
vn -0.00092839653371 0.5904638171196 -0.80706357955933
vn 0.89442718029022 -0.44721359014511 0
vn -0.84991544485092 0.28845182061195 0.44095268845558
vn -0.88163655996323 0.01399003807455 -0.47172152996063
vn -0.56569129228592 0.79552352428436 0.21710741519928
vn 0.89691007137299 0.21941427886486 0.38393971323967
vn -0.00011234878184 0.7564389705658 0.65406423807144
vn -0.00090905389516 0.10282234102488 0.99469929933548
vn 0.56739920377731 0.79290378093719 0.22217486798763
vn 0.79615795612335 0.04148375615478 -0.60366517305374
vn 0 -0.09604509174824 -0.99537700414658
vn 0.39657413959503 0.53539890050888 -0.74570572376251
vn 0 -1 0
vn 0.75558483600616 0.28976705670357 0.5874747633934
vn 0.89052879810333 0.08243000507355 -0.44739669561386
vn 0.64715456962585 0.48715427517891 -0.58640575408936
vn 0.70389658212662 0.06515453010798 0.70730793476105
vn -0.70729577541351 -0.04438233375549 -0.70552319288254
vn -0.30487710237503 0.56206142902374 -0.76885426044464
vn -0.45670613646507 -0.02434529364109 0.88928443193436
vn -0.41064465045929 0.75637453794479 0.50918418169022
vn -0.7089855670929 -0.32718843221664 -0.62472975254059
vn 0.55074113607407 -0.37986716628075 -0.74322617053986
vn -0.0687268897891 -0.87911117076874 -0.47163563966751
vn 0.65547156333923 -0.20945471525192 0.72559332847595
vn -0.78091561794281 -0.00163783028256 0.62463438510895
vn -0.08242286741734 -0.96239030361176 0.25886550545692
vn 0.4568278491497 0.06585183739662 0.88711434602737
vn -0.56359171867371 0.17939174175262 0.80633920431137
vn 0.83595901727676 0.0676876604557 0.54460161924362
vn -0.70695871114731 0.05596550181508 0.70503705739975
vn -0.7021152973175 0.07489825040102 -0.70811325311661
vn -0.63184416294098 0.3358818590641 -0.69853866100311
vn 0.71219050884247 0.10978731513023 -0.69334799051285
vn 0.89401841163635 0.05184345319867 -0.44502055644989
vn -0.89052879810333 0.08243000507355 -0.44739669561386
vn -0.75558483600616 0.28976705670357 0.5874747633934
vn -0.64715456962585 0.48715427517891 -0.58640575408936
vn -0.70389658212662 0.06515453010798 0.70730793476105
vn 0.70729577541351 -0.04438233375549 -0.70552319288254
vn 0.30487710237503 0.56206142902374 -0.76885426044464
vn 0.45670613646507 -0.02434529364109 0.88928443193436
vn 0.41064465045929 0.75637453794479 0.50918418169022
vn -0.55074113607407 -0.37986716628075 -0.74322617053986
vn 0.70898550748825 -0.32718843221664 -0.62472981214523
vn 0.0687268897891 -0.87911117076874 -0.47163563966751
vn 0.78091561794281 -0.00163783028256 0.62463438510895
vn -0.65547156333923 -0.20945471525192 0.72559332847595
vn 0.08242286741734 -0.96239030361176 0.25886550545692
vn 0.56359171867371 0.17939174175262 0.80633920431137
vn -0.45682778954506 0.0658518448472 0.88711434602737
vn -0.83595895767212 0.06768767535686 0.54460167884827
vn 0.70695871114731 0.05596550181508 0.70503705739975
vn 0.7021152973175 0.07489825040102 -0.70811325311661
vn 0.63184410333633 0.3358818590641 -0.69853872060776
vn -0.71219050884247 0.10978732258081 -0.6933479309082
vn -0.89401841163635 0.05184345319867 -0.44502055644989
vn 0.67907351255417 0.13714978098869 -0.72114425897598
vn 0.71775299310684 -0.20708468556404 0.66479063034058
vn 0.42323341965675 -0.76610559225082 -0.48368969559669
vn 0.71929174661636 0.15209050476551 0.67785537242889
vn -0.73163032531738 -0.61475825309753 0.29460045695305
vn -0.86430633068085 0.13903646171093 -0.48336672782898
vn -0.40990871191025 -0.29508671164513 -0.86307513713837
vn -0.45254707336426 0.13896201550961 0.88084661960602
vn 0.661760866642 0.17523658275604 0.72894763946533
vn 0.64458978176117 -0.36662745475769 -0.67088615894318
vn 0.49159041047096 0.86924225091934 -0.0525047108531
vn 0.41962745785713 -0.79967260360718 0.42946076393127
vn -0.55971425771713 0.3633973300457 -0.74475651979446
vn -0.67576974630356 -0.70489406585693 -0.2155449539423
vn -0.60592252016068 0.47669878602028 0.63688004016876
vn -0.32430809736252 -0.51070863008499 0.79624176025391
vn 0.67970162630081 0.64995777606964 0.33994215726852
vn -0.28588426113129 -0.19038037955761 0.93916213512421
vn 0.60661035776138 -0.16456568241119 0.77778017520905
vn -0.68935453891754 0.72243243455887 -0.05368073657155
vn 0.73384529352188 -0.57697468996048 0.35856840014458
vn -0.87068462371826 -0.37835401296616 0.31425547599792
vn 0.41351634263992 0.73802268505096 -0.53322303295136
vn -0.73081761598587 0.58186233043671 -0.35684996843338
vn -0.89395153522491 -0.0289436802268 0.44722807407379
vn -0.70567923784256 -0.05430168285966 -0.70644754171371
vn -0.44697573781013 0.01268776226789 0.89445608854294
vn 0.89445507526398 -0.0072394204326 -0.44709926843643
vn 0.70704311132431 0.03146456554532 0.70647013187408
vn 0.70704311132431 0.03146456927061 0.70647013187408
vn 0.44722756743431 -0.01991077512503 -0.89419859647751
vn -0.58093971014023 -0.52488684654236 -0.6220954656601
vn -0.76770812273026 -0.38834238052368 0.50971990823746
vn -0.54748952388763 0.38423413038254 -0.743383705616
vn 0.39550715684891 -0.59984761476517 -0.6955264210701
vn 0.58338940143585 0.58812463283539 -0.56014835834503
vn 0.94519054889679 -0.12731467187405 0.30067563056946
vn -0.75207304954529 0.34243640303612 -0.563137114048
vn -0.5538318157196 0.08570379763842 0.82820600271225
vn 0.89150184392929 0.30169463157654 -0.3379420042038
vn 0.54479676485062 0.16331957280636 0.8225103020668
vn 0.44725695252419 -0.02411697246134 -0.89408028125763
vn -0.70685088634491 -0.03558300435543 -0.7064670920372
vn 0.70665013790131 0.05078891664743 0.70573794841766
vn -0.89461201429367 0.01123053580523 0.44670253992081
vn 0.70567923784256 -0.05430168285966 -0.70644754171371
vn 0.89395153522491 -0.0289436802268 0.44722807407379
vn 0.44697573781013 0.0126877585426 0.89445608854294
vn 0.70567923784256 -0.05430167540908 -0.70644754171371
vn -0.70704311132431 0.03146456554532 0.70647013187408
vn -0.89445507526398 -0.0072394204326 -0.44709926843643
vn -0.70704311132431 0.03146456554532 0.70647013187408
vn -0.44722756743431 -0.01991077512503 -0.89419859647751
vn 0.76770812273026 -0.38834238052368 0.50971990823746
vn 0.58093971014023 -0.52488684654236 -0.6220954656601
vn 0.44380879402161 0.52687114477158 -0.72487282752991
vn -0.72907853126526 0.42849895358086 -0.5336976647377
vn -0.39550715684891 -0.59984761476517 -0.6955264210701
vn -0.94519054889679 -0.12731468677521 0.30067563056946
vn 0.83492749929428 0.19543986022472 -0.51448941230774
vn 0.5538318157196 0.085703805089 0.82820600271225
vn -0.80274260044098 0.44690078496933 -0.39482155442238
vn -0.54479676485062 0.16331957280636 0.8225103020668
vn -0.44725695252419 -0.02411696873605 -0.89408028125763
vn 0.70685088634491 -0.03558300435543 -0.7064670920372
vn -0.70665013790131 0.05078891664743 0.70573794841766
vn 0.89461207389832 0.01123053673655 0.44670253992081
# 190 normals

vt 0.55294120311737 0.88976377248764 0
vt 0.43137255311012 0.99212598800659 0
vt 0.43921568989754 0.88976377248764 0
vt 0.55686277151108 0.99212598800659 0
vt 0.57647061347961 0.60629922151566 0
vt 0.70196080207825 0.55905514955521 0
vt 0.69411766529083 0.60629922151566 0
vt 0.5686274766922 0.55905514955521 0
vt 0 0.6535432934761 0
vt 0 0.71653544902802 0
vt 0.5137255191803 0.51968502998352 0
vt 0.47843137383461 0.57480317354202 0
vt 0.48627451062202 0.51968502998352 0
vt 0.52156865596771 0.57480317354202 0
vt 0.43137255311012 0.44094491004944 0
vt 0.51764708757401 0.00787401199341 0
vt 0.52941179275513 0.4960629940033 0
vt 0.43137255311012 0.00787401199341 0
vt 0.65098041296005 0.61417323350906 0
vt 0.76078432798386 0.97637796401978 0
vt 0.64313727617264 0.97637796401978 0
vt 0.74901962280273 0.61417323350906 0
vt 0.56470590829849 0.61417323350906 0
vt 0.63529413938522 0.93700790405273 0
vt 0.64313727617264 0.62204724550247 0
vt 0.57647061347961 0.98425197601318 0
vt 0.65882354974747 0.00787401199341 0
vt 0.53333336114883 0.14960634708405 0
vt 0.54901963472366 0.00787401199341 0
vt 0.678431391716 0.14960634708405 0
vt 0.43921568989754 0.96062994003296 0
vt 0.56470590829849 0.88976377248764 0
vt 0.55294120311737 0.96062994003296 0
vt 0.42745098471642 0.88976377248764 0
vt 0.67058825492859 0.51968502998352 0
vt 0.59215688705444 0.54330712556839 0
vt 0.57647061347961 0.48818898200989 0
vt 0.66274511814117 0.55905514955521 0
vt 0.59607845544815 0.54330712556839 0
vt 0.58039218187332 0.48818898200989 0
vt 0.66666668653488 0.55905514955521 0
vt 0.43529412150383 0.48818898200989 0
vt 0.55686277151108 0.48818898200989 0
vt 0.07843137532473 0.83464568853378 0
vt 0.08235294371843 0.83464568853378 0
vt 0.07843137532473 0.84251970052719 0
vt 0.05098039284348 0.62204724550247 0
vt 0.04705882444978 0.59842520952225 0
vt 0.05490196123719 0.59842520952225 0
vt 0.04313725605607 0.59842520952225 0
vt 0.19215686619282 0.56692916154861 0
vt 0.16862745583057 0.40944886207581 0
vt 0.21960784494877 0.40944886207581 0
vt 0.16470588743687 0.44094491004944 0
vt 0.13333334028721 0.56692916154861 0
vt 0.11372549086809 0.52755904197693 0
vt 0.26666668057442 0.87401574850082 0
vt 0.27058824896812 0.88188976049423 0
vt 0.26666668057442 0.89763778448105 0
vt 0.10980392247438 0.60629922151566 0
vt 0.01568627543747 0.60629922151566 0
vt 0.10980392247438 0.6535432934761 0
vt 0.2549019753933 0.89763778448105 0
vt 0.26274511218071 0.88188976049423 0
vt 0.2352941185236 0.62204724550247 0
vt 0.24313725531101 0.59842520952225 0
vt 0.25098040699959 0.62204724550247 0
vt 0.14509804546833 0.91338580846786 0
vt 0.15294118225574 0.90551179647446 0
vt 0.15294118225574 0.92913389205933 0
vt 0.16078431904316 0.91338580846786 0
vt 0.27450981736183 0.89763778448105 0
vt 0.36862745881081 0.92125988006592 0
vt 0.33725491166115 0.83464568853378 0
vt 0.3647058904171 0.7952755689621 0
vt 0.15294118225574 0.91338580846786 0
vt 0.14901961386204 0.91338580846786 0
vt 0.15294118225574 0.89763778448105 0
vt 0.3647058904171 0.80314958095551 0
vt 0.34509804844856 0.70866143703461 0
vt 0.33333334326744 0.8503937125206 0
vt 0.14901961386204 0.88188976049423 0
vt 0.16078431904316 0.88976377248764 0
vt 0.14509804546833 0.89763778448105 0
vt 0.34509804844856 0.95275592803955 0
vt 0.32941177487373 0.91338580846786 0
vt 0.34901961684227 0.93700790405273 0
vt 0.2549019753933 0.97637796401978 0
vt 0.15686275064945 0.99212598800659 0
vt 0.21960784494877 0.91338580846786 0
vt 0.14901961386204 0.88976377248764 0
vt 0.15686275064945 0.91338580846786 0
vt 0.21176470816135 0.92125988006592 0
vt 0.15294118225574 0.99212598800659 0
vt 0.25098040699959 0.96062994003296 0
vt 0.36862745881081 0.91338580846786 0
vt 0.36078432202339 0.88188976049423 0
vt 0.33333334326744 0.69291341304779 0
vt 0.35686275362968 0.94488191604614 0
vt 0.31764706969261 0.94488191604614 0
vt 0.34901961684227 0.92913389205933 0
vt 0.27058824896812 0.7952755689621 0
vt 0.26666668057442 0.76377952098846 0
vt 0.27450981736183 0.73228347301483 0
vt 0.21960784494877 0.90551179647446 0
vt 0.23137255012989 0.98425197601318 0
vt 0.17254902422428 0.97637796401978 0
vt 0.32156863808632 0.89763778448105 0
vt 0.34901961684227 0.94488191604614 0
vt 0.34117648005486 0.93700790405273 0
vt 0.30588236451149 0.96062994003296 0
vt 0.31764706969261 0.91338580846786 0
vt 0.29411765933037 0.7952755689621 0
vt 0.419607847929 0.6456692814827 0
vt 0.419607847929 0.89763778448105 0
vt 0.28235295414925 0.66929137706757 0
vt 0.16078431904316 0.89763778448105 0
vt 0.14509804546833 0.92125988006592 0
vt 0.15686275064945 0.92125988006592 0
vt 0.05490196123719 0.21259844303131 0
vt 0 0.37007880210876 0
vt 0 0.18897640705109 0
vt 0.03529411926866 0.32283473014832 0
vt 0.10980392247438 0.4015748500824 0
vt 0.05490196123719 0.45669293403625 0
vt 0.13725490868092 0.59842520952225 0
vt 0.27058824896812 0.73228347301483 0
vt 0.2549019753933 0.59842520952225 0
vt 0.1176470592618 0.73228347301483 0
vt 0.11372549086809 0.98425197601318 0
vt 0.27450981736183 1 0
vt 0.14901961386204 0.92125988006592 0
vt 0.15294118225574 0.88188976049423 0
vt 0.15686275064945 0.93700790405273 0
vt 0.14901961386204 0.89763778448105 0
vt 0.14901961386204 0.92913389205933 0
vt 0.00392156885937 0.89763778448105 0
vt 0.10980392247438 1 0
vt 0.04705882444978 0.01574802398682 0
vt 0 0.03149604797363 0
vt 0.32549020648003 1 0
vt 0.29019609093666 0.7952755689621 0
vt 0.419607847929 1 0
vt 0.33333334326744 1 0
vt 0.42352941632271 1 0
vt 0.27843138575554 0.66929137706757 0
vt 0.35294118523598 0.19685041904449 0
vt 0.31764706969261 0.03149604797363 0
vt 0.31764706969261 0.19685041904449 0
vt 0.35294118523598 0.03149604797363 0
vt 0.34117648005486 0.1023622751236 0
vt 0.32941177487373 0.16535437107086 0
vt 0.32549020648003 0.1023622751236 0
vt 0.34509804844856 0.18110239505768 0
vt 0.33333334326744 0.11811029911041 0
vt 0.34117648005486 0.07086622714996 0
vt 0.32941177487373 0.07086622714996 0
vt 0.34509804844856 0.11811029911041 0
vt 0.33333334326744 0.07874023914337 0
vt 0.34117648005486 0.11811029911041 0
vt 0.34509804844856 0.07086622714996 0
vt 0.32549020648003 0.11811029911041 0
vt 0.35686275362968 0.16535437107086 0
vt 0.34509804844856 0.19685041904449 0
vt 0.35686275362968 0.19685041904449 0
vt 0.34117648005486 0.16535437107086 0
vt 0.23137255012989 0.28346455097198 0
vt 0.3137255012989 0.26771652698517 0
vt 0.27058824896812 0.21259844303131 0
vt 0.15294118225574 0.27559053897858 0
vt 0.2352941185236 0.29133856296539 0
vt 0.19607843458652 0.22047245502472 0
vt 0.2549019753933 0.19685041904449 0
vt 0.26274511218071 0.02362203598022 0
vt 0.2549019753933 0.02362203598022 0
vt 0.26274511218071 0.19685041904449 0
vt 0.27058824896812 0.2047244310379 0
vt 0.27058824896812 0.02362203598022 0
vt 0.26274511218071 0.2047244310379 0
vt 0.24313725531101 0.2047244310379 0
vt 0.24313725531101 0.02362203598022 0
vt 0.2549019753933 0.2047244310379 0
vt 0.24313725531101 0.19685041904449 0
vt 0.13725490868092 0.02362203598022 0
vt 0.0588235296309 0.13385832309723 0
vt 0.14509804546833 0.13385832309723 0
vt 0.0627451017499 0.02362203598022 0
vt 0.258823543787 0.38582682609558 0
vt 0.3098039329052 0.38582682609558 0
vt 0.13725490868092 0.36220479011536 0
vt 0.0588235296309 0.22834646701813 0
vt 0.07058823853731 0.36220479011536 0
vt 0.14901961386204 0.22834646701813 0
vt 0.20784313976765 0.39370083808899 0
vt 0.15294118225574 0.39370083808899 0
vt 0.16470588743687 0.19685041904449 0
vt 0.23137255012989 0.04724407196045 0
vt 0.15686275064945 0.04724407196045 0
vt 0.22352941334248 0.19685041904449 0
vt 0.07450980693102 0.14173233509064 0
vt 0.13725490868092 0.14173233509064 0
vt 0.85490196943283 0.6456692814827 0
vt 0.76078432798386 0.36220479011536 0
vt 0.86274510622025 0.37007880210876 0
vt 0.77254903316498 0.69291341304779 0
vt 0.98823529481888 0.35433077812195 0
vt 0.87843137979507 0.63779526948929 0
vt 0.86666667461395 0.37007880210876 0
vt 0.97254902124405 0.68503940105438 0
vt 0.79215687513351 1 0
vt 0.99215686321259 0.68503940105438 0
vt 0.97254902124405 1 0
vt 0.77254903316498 0.68503940105438 0
vt 0.99215686321259 0.02362203598022 0
vt 0.78823530673981 0.33858275413513 0
vt 0.76470589637756 0.02362203598022 0
vt 0.96862745285034 0.33858275413513 0
vt 0.8941176533699 0.40944886207581 0
vt 0.95294117927551 0.37795281410217 0
vt 0.94901961088181 0.40944886207581 0
vt 0.8941176533699 0.37007880210876 0
vt 0.65882354974747 0.46456694602966 0
vt 0.74117648601532 0.00787401199341 0
vt 0.75686275959015 0.59842520952225 0
vt 0.69411766529083 0.02362203598022 0
vt 0.77647060155869 1 0
vt 0.76470589637756 0.81102359294891 0
vt 0.77647060155869 0.81102359294891 0
vt 0.76470589637756 1 0
vt 0.70196080207825 0.11811029911041 0
vt 0.71764707565308 0.24409449100494 0
vt 0.69803923368454 0.27559053897858 0
vt 0.71372550725937 0.12598431110382 0
vt 0.68235296010971 0.34645676612854 0
vt 0.678431391716 0.24409449100494 0
vt 0.68235296010971 0.24409449100494 0
vt 0.678431391716 0.34645676612854 0
vt 0.72156864404678 0.18897640705109 0
vt 0.71372550725937 0.13385832309723 0
vt 0.71764707565308 0.13385832309723 0
vt 0.71372550725937 0.18897640705109 0
vt 0.71764707565308 0.19685041904449 0
vt 0.71764707565308 0.12598431110382 0
vt 0.70980393886566 0.19685041904449 0
vt 0.71372550725937 0.18110239505768 0
vt 0.72156864404678 0.09448826313019 0
vt 0.71764707565308 0.18110239505768 0
vt 0.71764707565308 0.09448826313019 0
vt 0.59607845544815 0.16535437107086 0
vt 0.57254904508591 0.43307089805603 0
vt 0.53333336114883 0.27559053897858 0
vt 0.67058825492859 0.26771652698517 0
vt 0.71372550725937 0.14173233509064 0
vt 0.71372550725937 0.19685041904449 0
vt 0.71764707565308 0.14173233509064 0
vt 0.5137255191803 0.59055119752884 0
vt 0.5137255191803 0.59842520952225 0
vt 0.50980395078659 0.59842520952225 0
vt 0.51764708757401 0.59055119752884 0
vt 0.2549019753933 0.00787401199341 0
vt 0.32156863808632 0.00787401199341 0
vt 0.2549019753933 0.01574802398682 0
vt 0.98823529481888 0.84251970052719 0
vt 0.99215686321259 0.99212598800659 0
vt 0.99215686321259 0.84251970052719 0
vt 0.98823529481888 0.99212598800659 0
vt 0.34509804844856 0.00787401199341 0
vt 0.41176471114159 0.00787401199341 0
vt 0.31764706969261 0.21259844303131 0
vt 0.42352941632271 0.21259844303131 0
vt 0.32156863808632 0.29133856296539 0
vt 0.31764706969261 0.22047245502472 0
vt 0.32156863808632 0.2992125749588 0
vt 0.36862745881081 0.38582682609558 0
vt 0.41568627953529 0.38582682609558 0
vt 0.36862745881081 0.39370083808899 0
vt 0.41568627953529 0.39370083808899 0
vt 0.41176471114159 0.12598431110382 0
vt 0.42352941632271 0.03937005996704 0
vt 0.41176471114159 0.03149604797363 0
vt 0.42352941632271 0.12598431110382 0
vt 0.45490196347237 0.5039370059967 0
vt 0.48235294222832 0.44094491004944 0
vt 0.45490196347237 0.44094491004944 0
vt 0.4745098054409 0.5039370059967 0
vt 0.419607847929 0.00787401199341 0
vt 0.33725491166115 0.01574802398682 0
vt 0.419607847929 0.01574802398682 0
vt 0.33725491166115 0.00787401199341 0
vt 0.40000000596046 0.18897640705109 0
vt 0.40784314274788 0.03149604797363 0
vt 0.39607843756676 0.03149604797363 0
vt 0.40784314274788 0.18897640705109 0
vt 0.38039216399193 0.03149604797363 0
vt 0.38823530077934 0.19685041904449 0
vt 0.38823530077934 0.03149604797363 0
vt 0.38039216399193 0.2047244310379 0
vt 0.98823529481888 0.83464568853378 0
vt 0.99215686321259 0.98425197601318 0
vt 0.99215686321259 0.83464568853378 0
vt 0.98823529481888 0.98425197601318 0
vt 0.25098040699959 0.00787401199341 0
vt 0.32941177487373 0.01574802398682 0
vt 0.32941177487373 0.00787401199341 0
vt 0.25098040699959 0.01574802398682 0
vt 0.24705882370472 0.00787401199341 0
vt 0.24705882370472 0.01574802398682 0
# 307 texture coordinates

o Mesh
usemtl material
f 1/1/1 2/2/2 3/3/3
f 1/1/1 4/4/5 2/2/2
f 4/5/5 5/6/6 2/7/2
f 4/5/5 6/8/7 5/6/6
f 7/9/8 8/10/9 9/10/8
f 7/9/8 10/9/9 8/10/9
f 11/10/10 7/9/8 9/10/8
f 11/10/10 12/9/11 7/9/8
f 12/9/11 8/10/9 10/9/9
f 12/9/11 11/10/10 8/10/9
f 13/11/12 14/12/13 15/13/14
f 13/11/12 16/14/15 14/12/13
f 17/15/16 16/16/15 6/17/7
f 17/15/16 18/18/17 16/16/15
f 14/16/13 19/15/18 5/17/6
f 14/16/13 20/18/19 19/15/18
f 13/19/12 21/20/20 22/21/21
f 13/19/12 15/22/14 21/20/20
f 14/23/13 21/24/20 15/25/14
f 14/23/13 5/26/6 21/24/20
f 22/24/21 16/23/15 13/25/12
f 22/24/21 6/26/7 16/23/15
f 21/27/20 6/28/7 22/29/21
f 21/27/20 5/30/6 6/28/7
f 3/31/3 17/32/16 1/33/1
f 3/31/3 19/34/18 17/32/16
f 6/35/7 1/36/1 17/37/16
f 6/35/7 4/38/5 1/36/1
f 3/39/3 5/35/6 19/40/18
f 3/39/3 2/41/2 5/35/6
f 20/42/19 17/32/16 19/34/18
f 20/42/19 18/43/17 17/32/16
f 23/44/22 24/45/23 25/46/24
f 26/47/25 25/48/24 24/49/23
f 23/50/22 25/48/24 26/47/25
f 27/51/26 28/52/27 29/53/28
f 29/54/28 30/55/29 27/56/26
f 31/55/30 28/54/27 27/56/26
f 32/57/31 28/58/27 33/59/32
f 34/60/33 35/61/34 36/62/35
f 37/63/36 29/64/28 33/59/32
f 28/65/27 32/66/31 29/67/28
f 34/60/33 36/62/35 38/61/37
f 39/68/38 40/69/39 41/70/40
f 42/71/41 41/70/40 40/69/39
f 32/57/31 33/59/32 29/64/28
f 43/72/42 33/59/32 28/58/27
f 39/73/43 44/74/44 45/75/45
f 42/76/46 46/77/47 47/78/48
f 48/79/49 49/80/50 50/81/51
f 50/82/52 46/83/47 42/84/46
f 39/85/43 51/86/53 44/87/44
f 50/88/51 49/89/50 47/90/54
f 52/91/55 53/83/56 54/92/57
f 47/93/48 46/94/47 50/95/52
f 50/81/51 42/96/58 48/79/49
f 55/97/59 44/87/44 51/86/53
f 55/98/59 45/75/45 44/74/44
f 56/99/60 57/100/61 58/101/62
f 53/84/56 59/69/63 54/70/57
f 45/102/45 55/103/59 51/104/53
f 52/105/55 59/106/63 53/107/56
f 60/108/64 57/109/61 56/100/60
f 58/110/62 57/111/61 60/112/64
f 48/113/65 61/114/66 62/115/67
f 48/113/65 63/116/68 61/114/66
f 64/117/69 42/118/41 65/84/70
f 64/117/69 66/119/71 42/118/41
f 67/120/72 68/121/73 69/122/74
f 67/120/72 70/123/75 68/121/73
f 38/61/37 27/124/26 34/60/33
f 38/61/37 31/125/30 27/124/26
f 68/121/73 64/120/69 69/122/74
f 68/121/73 66/123/71 64/120/69
f 27/124/26 35/61/34 34/60/33
f 27/124/26 30/125/29 35/61/34
f 31/126/30 43/127/42 28/128/27
f 31/126/30 38/129/37 43/127/42
f 65/130/70 37/127/36 64/131/69
f 65/130/70 35/129/34 37/127/36
f 39/119/38 67/84/72 71/117/76
f 39/119/38 70/132/75 67/84/72
f 38/129/37 67/131/72 43/127/42
f 38/129/37 71/130/76 67/131/72
f 29/128/28 35/129/34 30/126/29
f 29/128/28 37/127/36 35/129/34
f 70/117/75 41/70/40 68/133/73
f 70/117/75 39/134/38 41/70/40
f 41/70/40 66/135/71 68/133/73
f 41/70/40 42/136/41 66/135/71
f 71/137/76 36/62/35 72/138/77
f 71/137/76 38/61/37 36/62/35
f 36/62/35 65/137/70 72/138/77
f 36/62/35 35/61/34 65/137/70
f 69/122/74 43/139/42 67/120/72
f 69/122/74 33/140/32 43/139/42
f 37/139/36 69/122/74 64/120/69
f 37/139/36 33/140/32 69/122/74
f 62/115/67 39/141/38 45/142/78
f 62/115/67 40/143/39 39/141/38
f 42/144/41 62/115/67 48/113/65
f 42/144/41 40/145/39 62/115/67
f 61/114/66 45/142/78 62/115/67
f 61/114/66 73/146/79 45/142/78
f 45/142/78 61/114/66 62/115/67
f 45/142/78 73/146/79 61/114/66
f 61/114/66 48/113/65 62/115/67
f 61/114/66 63/116/68 48/113/65
f 74/147/80 75/148/81 76/149/82
f 74/147/80 77/150/83 75/148/81
f 78/151/84 76/152/82 75/153/81
f 78/151/84 79/154/85 76/152/82
f 74/155/80 80/156/86 77/157/83
f 74/155/80 81/158/87 80/156/86
f 78/159/84 81/160/87 79/161/85
f 78/159/84 80/162/86 81/160/87
f 76/163/82 81/164/87 74/165/80
f 76/163/82 79/166/85 81/164/87
f 82/167/88 83/168/89 84/169/90
f 85/170/91 86/171/92 87/172/93
f 88/173/94 89/174/95 90/175/96
f 88/173/94 91/176/97 89/174/95
f 89/174/95 92/177/98 93/178/99
f 89/174/95 91/179/97 92/177/98
f 92/180/98 94/175/100 93/181/99
f 92/180/98 95/182/101 94/175/100
f 95/183/101 90/175/96 94/181/100
f 95/183/101 88/173/94 90/175/96
f 87/184/93 83/185/89 85/186/91
f 87/184/93 84/187/90 83/185/89
f 93/188/99 83/168/89 82/167/88
f 93/188/99 94/189/100 83/168/89
f 93/190/99 86/191/92 89/192/95
f 93/190/99 82/193/88 86/191/92
f 85/170/91 89/194/95 86/171/92
f 85/170/91 90/195/96 89/194/95
f 94/196/100 85/197/91 83/198/89
f 94/196/100 90/199/96 85/197/91
f 87/200/93 82/193/88 84/201/90
f 87/200/93 86/191/92 82/193/88
f 96/148/102 97/147/103 98/149/104
f 96/148/102 99/150/105 97/147/103
f 98/152/104 100/151/106 96/153/102
f 98/152/104 101/154/107 100/151/106
f 102/156/108 97/155/103 99/157/105
f 102/156/108 103/158/109 97/155/103
f 103/160/109 100/159/106 101/161/107
f 103/160/109 102/162/108 100/159/106
f 103/164/109 98/163/104 97/165/103
f 103/164/109 101/166/107 98/163/104
f 104/168/110 105/167/111 106/169/112
f 107/171/113 108/170/114 109/172/115
f 110/174/116 111/173/117 112/175/118
f 110/174/116 113/176/119 111/173/117
f 114/177/120 110/174/116 115/178/121
f 114/177/120 113/179/119 110/174/116
f 116/175/122 114/180/120 115/181/121
f 116/175/122 117/182/123 114/180/120
f 112/175/118 117/183/123 116/181/122
f 112/175/118 111/173/117 117/183/123
f 109/184/115 104/185/110 106/187/112
f 109/184/115 108/186/114 104/185/110
f 104/168/110 115/188/121 105/167/111
f 104/168/110 116/189/122 115/188/121
f 115/190/121 107/191/113 105/193/111
f 115/190/121 110/192/116 107/191/113
f 110/194/116 108/170/114 107/171/113
f 110/194/116 112/195/118 108/170/114
f 116/196/122 108/197/114 112/199/118
f 116/196/122 104/198/110 108/197/114
f 109/200/115 105/193/111 107/191/113
f 109/200/115 106/201/112 105/193/111
f 118/202/124 119/203/125 120/204/126
f 118/202/124 121/205/127 119/203/125
f 122/206/128 123/207/129 124/208/130
f 122/206/128 125/209/131 123/207/129
f 118/210/124 124/211/130 123/212/129
f 118/210/124 120/213/126 124/211/130
f 119/214/125 125/215/131 122/216/128
f 119/214/125 121/217/127 125/215/131
f 120/218/126 122/219/128 124/220/130
f 120/218/126 119/221/125 122/219/128
f 126/222/132 127/223/133 128/224/134
f 126/222/132 129/225/135 127/223/133
f 130/226/136 127/227/133 131/228/137
f 130/226/136 128/229/134 127/227/133
f 131/230/137 132/231/138 130/232/136
f 131/230/137 133/233/139 132/231/138
f 126/234/132 133/235/139 129/236/135
f 126/234/132 132/237/138 133/235/139
f 131/238/137 129/239/135 133/240/139
f 131/238/137 127/241/133 129/239/135
f 134/242/140 135/233/141 136/243/142
f 134/242/140 137/244/143 135/233/141
f 135/245/141 138/246/144 136/247/142
f 135/245/141 139/248/145 138/246/144
f 138/249/144 134/250/140 136/251/142
f 138/249/144 128/252/146 134/250/140
f 128/253/146 137/242/143 134/254/140
f 128/253/146 130/255/147 137/242/143
f 139/249/145 137/250/143 130/252/147
f 139/249/145 135/251/141 137/250/143
f 132/256/138 128/257/134 130/258/136
f 132/256/138 126/259/132 128/257/134
f 140/260/148 141/261/149 142/261/150
f 140/260/148 143/262/149 141/261/149
f 144/263/151 145/264/152 146/265/153
f 144/263/151 147/266/154 145/264/152
f 147/267/154 141/268/149 143/267/149
f 147/267/154 144/268/151 141/268/149
f 142/261/150 145/260/152 140/260/148
f 142/261/150 146/261/153 145/260/152
f 148/269/155 149/270/156 150/271/157
f 151/272/158 152/273/159 153/270/160
f 154/274/161 149/270/156 155/275/162
f 154/274/161 150/271/157 149/270/156
f 153/270/160 156/276/163 157/277/164
f 153/270/160 152/273/159 156/276/163
f 150/278/157 151/279/158 148/280/155
f 150/278/157 152/281/159 151/279/158
f 154/282/161 152/283/159 150/284/157
f 154/282/161 156/285/163 152/283/159
f 154/286/161 158/287/165 156/288/163
f 154/286/161 159/289/166 158/287/165
f 157/290/164 149/291/156 153/292/160
f 157/290/164 155/293/162 149/291/156
f 149/294/156 151/295/158 153/296/160
f 149/294/156 148/297/155 151/295/158
f 156/298/163 160/299/167 157/300/164
f 156/298/163 158/301/165 160/299/167
f 161/302/168 154/303/161 155/304/162
f 161/302/168 159/305/166 154/303/161
f 160/306/167 155/303/162 157/304/164
f 160/306/167 161/307/168 155/303/162
f 162/261/169 140/260/170 163/261/171
f 162/261/169 143/262/172 140/260/170
f 164/264/173 165/263/174 166/265/175
f 164/264/173 167/266/176 165/263/174
f 162/268/169 167/267/176 143/267/172
f 162/268/169 165/268/174 167/267/176
f 164/260/173 163/261/171 140/260/170
f 164/260/173 166/261/175 163/261/171
f 168/270/177 169/269/178 170/271/179
f 171/273/180 172/272/181 173/270/182
f 168/270/177 174/274/183 175/275/184
f 168/270/177 170/271/179 174/274/183
f 176/276/185 173/270/182 177/277/186
f 176/276/185 171/273/180 173/270/182
f 172/279/181 170/278/179 169/280/178
f 172/279/181 171/281/180 170/278/179
f 176/285/185 170/284/179 171/283/180
f 176/285/185 174/282/183 170/284/179
f 178/287/187 174/286/183 176/288/185
f 178/287/187 179/289/188 174/286/183
f 168/291/177 177/290/186 173/292/182
f 168/291/177 175/293/184 177/290/186
f 172/295/181 168/294/177 173/296/182
f 172/295/181 169/297/178 168/294/177
f 180/299/189 176/298/185 177/300/186
f 180/299/189 178/301/187 176/298/185
f 174/303/183 181/302/190 175/304/184
f 174/303/183 179/305/188 181/302/190
f 175/303/184 180/306/189 177/304/186
f 175/303/184 181/307/190 180/306/189

