# WaveFront *.obj file (generated by CINEMA 4D)

mtllib ./Police_Man.mtl

v 2.59999990463257 16 2.70000004768372
v 0 17.39999961853027 -1.75
v 2.59999990463257 18.29999923706055 2.70000004768372
v 0 15.5 -1.75
v -2.59999990463257 16 2.70000004768372
v -2.59999990463257 18.29999923706055 2.70000004768372
v 3.40000009536743 16.5 3.20000004768372
v -3.40000009536743 14.94999980926514 3.40000009536743
v 3.40000009536743 14.94999980926514 3.40000009536743
v -3.40000009536743 16.5 3.20000004768372
v -3.40000009536743 15.80000019073486 -2.59999990463257
v -3.40000009536743 14.19999980926514 -2.90000009536743
v 6.75 13.25 -3.70000004768372
v 6.30000019073486 -0.55000001192093 3.84999990463257
v 6.30000019073486 -0.55000001192093 -4.55000019073486
v 6.75 13.85000038146973 4.19999980926514
v -6.75 13.25 -3.70000004768372
v -6.30000019073486 -0.55000001192093 -4.55000019073486
v -6.30000019073486 -0.55000001192093 3.84999990463257
v -6.75 13.85000038146973 4.19999980926514
v 3.40000009536743 15.80000019073486 -2.59999990463257
v 3.40000009536743 14.19999980926514 -2.90000009536743
v 0.75 19.75 -4.55000019073486
v 0 20.10000038146973 -6.15000009536743
v 0 22.5 -5.19999980926514
v -0.75 19.75 -4.55000019073486
v 0 21.70000076293945 5.09999990463257
v -3.75 18 1.95000004768372
v 0 17.39999961853027 3.90000009536743
v -4.80000019073486 21.70000076293945 2.84999990463257
v -3.29999995231628 17.14999961853027 -1.95000004768372
v 0 15.94999980926514 -3.79999995231628
v 3.75 18 1.95000004768372
v 4.80000019073486 21.70000076293945 2.84999990463257
v 0 21.70000076293945 -5.34999990463257
v -4.44999980926514 21.70000076293945 -2.5
v 3.29999995231628 17.14999961853027 -1.95000004768372
v 4.44999980926514 21.70000076293945 -2.5
v 2.04999995231628 28.75 0.94999998807907
v 0 28.75 -2.59999990463257
v 0 28.75 2.15000009536743
v 2.04999995231628 28.75 -1.39999997615814
v 0 27.04999923706055 4.80000019073486
v -2.04999995231628 28.75 0.94999998807907
v -4.34999990463257 27.04999923706055 2.29999995231628
v 5.30000019073486 21.70000076293945 2.84999990463257
v 0 21.70000076293945 5.90000009536743
v 4.34999990463257 27.04999923706055 2.29999995231628
v 5.30000019073486 21.70000076293945 -2.95000004768372
v 4.34999990463257 27.04999923706055 -2.75
v -2.04999995231628 28.75 -1.39999997615814
v 0 21.70000076293945 -6.34999990463257
v 0 27.04999923706055 -5.25
v -5.30000019073486 21.70000076293945 -2.95000004768372
v -4.34999990463257 27.04999923706055 -2.75
v -5.30000019073486 21.70000076293945 2.84999990463257
v 9.25 13.19999980926514 -1.79999995231628
v 11.35000038146973 8.75 -2.20000004768372
v 5.40000009536743 13.75 -2.29999995231628
v 9.25 13.19999980926514 2.59999990463257
v 5.40000009536743 13.75 3.09999990463257
v 11.35000038146973 8.75 3.04999995231628
v 12.35000038146973 0.89999997615814 3.45000004768372
v 12.35000038146973 0.89999997615814 -2.65000009536743
v 7.25 0.89999997615814 -3.04999995231628
v 7.25 0.89999997615814 3.84999990463257
v 12.35000038146973 1.45000004768372 3.40000009536743
v 12 -12.19999980926514 -1.04999995231628
v 12.35000038146973 1.45000004768372 -2.65000009536743
v 12 -12.19999980926514 1.95000004768372
v 8.64999961853027 -7.05000019073486 -1.89999997615814
v 7.25 1.45000004768372 -3
v 7.25 1.45000004768372 3.65000009536743
v 8.64999961853027 -7.05000019073486 2.65000009536743
v 8.39999961853027 -14.64999961853027 -2.40000009536743
v 6.30000019073486 -12.19999980926514 3.29999995231628
v 6.30000019073486 -12.19999980926514 -2.95000004768372
v 8.39999961853027 -14.64999961853027 2.84999990463257
v -9.25 13.19999980926514 -1.79999995231628
v -5.40000009536743 13.75 -2.29999995231628
v -11.35000038146973 8.75 -2.20000004768372
v -9.25 13.19999980926514 2.59999990463257
v -11.35000038146973 8.75 3.04999995231628
v -5.40000009536743 13.75 3.09999990463257
v -12.35000038146973 0.89999997615814 -2.65000009536743
v -12.35000038146973 0.89999997615814 3.45000004768372
v -7.25 0.89999997615814 -3.04999995231628
v -7.25 0.89999997615814 3.84999990463257
v -12 -12.19999980926514 -1.04999995231628
v -12.35000038146973 1.45000004768372 3.40000009536743
v -12.35000038146973 1.45000004768372 -2.65000009536743
v -12 -12.19999980926514 1.95000004768372
v -8.64999961853027 -7.05000019073486 -1.89999997615814
v -7.25 1.45000004768372 -3
v -8.64999961853027 -7.05000019073486 2.65000009536743
v -7.25 1.45000004768372 3.65000009536743
v -8.39999961853027 -14.64999961853027 -2.40000009536743
v -6.30000019073486 -12.19999980926514 3.29999995231628
v -8.39999961853027 -14.64999961853027 2.84999990463257
v -6.30000019073486 -12.19999980926514 -2.95000004768372
v -1.60000002384186 0.34999999403954 -8.75
v -2.09999990463257 -4.65000009536743 -8.85000038146973
v -6.30000019073486 0.44999998807907 -7.69999980926514
v -4.55000019073486 -10.25 -6
v -2.09999990463257 -4.65000009536743 -5.84999990463257
v 7.5 -10.25 -6
v 6.30000019073486 2.5 4.69999980926514
v 7.69999980926514 -10.25 5.94999980926514
v 6.30000019073486 0.64999997615814 -5.69999980926514
v -6.30000019073486 2.5 4.69999980926514
v -7.5 -10.25 -6
v -7.69999980926514 -10.25 5.94999980926514
v -6.30000019073486 0.64999997615814 -5.69999980926514
v -1.60000002384186 0.64999997615814 -5.69999980926514
v -7.5 -10.25 -8
v -4.55000019073486 -10.25 -8.60000038146973
v 7.19999980926514 -18.85000038146973 -3.40000009536743
v 6.44999980926514 -6.09999990463257 3.54999995231628
v 7.19999980926514 -18.85000038146973 4.30000019073486
v 6.44999980926514 -6.09999990463257 -4.09999990463257
v 0 -18.85000038146973 -3.40000009536743
v 0.05000000074506 -6.09999990463257 -4.09999990463257
v 0.05000000074506 -6.09999990463257 3.54999995231628
v 0 -18.85000038146973 4.30000019073486
v 7.30000019073486 -39.5 -10
v 7 -36.75 -9.35000038146973
v 7.65000009536743 -39.5 5.65000009536743
v 0.55000001192093 -39.5 -10
v 0.25 -39.5 5.65000009536743
v 0.80000001192093 -36.75 -9.35000038146973
v 7.19999980926514 -18.14999961853027 -3.40000009536743
v 1.20000004768372 -31.79999923706055 -1.20000004768372
v -0.05000000074506 -18.14999961853027 -3.40000009536743
v 6 -31.79999923706055 -1.20000004768372
v -0.05000000074506 -18.14999961853027 4.30000019073486
v 6.05000019073486 -31.85000038146973 3.70000004768372
v 7.19999980926514 -18.14999961853027 4.30000019073486
v 1.14999997615814 -31.85000038146973 3.70000004768372
v -6.44999980926514 -6.09999990463257 3.54999995231628
v -7.19999980926514 -18.85000038146973 -3.40000009536743
v -7.19999980926514 -18.85000038146973 4.30000019073486
v -6.44999980926514 -6.09999990463257 -4.09999990463257
v -0.05000000074506 -6.09999990463257 -4.09999990463257
v -0.05000000074506 -6.09999990463257 3.54999995231628
v -7 -36.75 -9.35000038146973
v -7.30000019073486 -39.5 -10
v -7.65000009536743 -39.5 5.65000009536743
v -0.25 -39.5 5.65000009536743
v -0.55000001192093 -39.5 -10
v -0.80000001192093 -36.75 -9.35000038146973
v -1.20000004768372 -31.79999923706055 -1.20000004768372
v -7.19999980926514 -18.14999961853027 -3.40000009536743
v 0.05000000074506 -18.14999961853027 -3.40000009536743
v -6 -31.79999923706055 -1.20000004768372
v -7.19999980926514 -18.14999961853027 4.30000019073486
v -1.14999997615814 -31.85000038146973 3.70000004768372
v 0.05000000074506 -18.14999961853027 4.30000019073486
v -6.05000019073486 -31.85000038146973 3.70000004768372
# 158 vertices

vn 0.86342686414719 0 -0.50447404384613
vn 0.86342680454254 0 -0.50447410345078
vn 0 0 0
vn 0.86342686414719 0 -0.50447404384613
vn -0.86342686414719 0 -0.50447404384613
vn -0.86342686414719 0 -0.50447404384613
vn -0.86342686414719 0 -0.50447404384613
vn 0 0 1
vn 0 0 1
vn 0 0.1279713511467 0.99177783727646
vn -0.48421168327332 0.49133235216141 0.72396928071976
vn 0.7027587890625 0.49746033549309 0.50858956575394
vn -1 0 0
vn -0.42943572998047 0.73696935176849 -0.52197808027267
vn 0.67907506227493 0.48356556892395 -0.55228745937347
vn 0.99948900938034 -0.03194189071655 0.00118831940927
vn 0.99946874380112 -0.03259136155248 0
vn 0.32925108075142 0.62074041366577 0.71153002977371
vn 0 0.06147769838572 -0.99810844659805
vn -0.46649301052094 0.47816750407219 -0.7441371679306
vn 0 0.06147770211101 -0.99810844659805
vn -0.99948900938034 -0.03194188699126 0.0011883189436
vn -0.99946874380112 -0.03259135782719 0
vn -0.47730579972267 0.73052716255188 0.48837408423424
vn 0 -0.02429837174714 0.99970477819443
vn 0 -0.02429836988449 0.99970477819443
vn 0 -1 0
vn 0 0.72979205846786 -0.68366914987564
vn 0 0.99279564619064 -0.11982012540102
vn 0.29664707183838 0.66366350650787 -0.68669587373734
vn 1 0 0
vn 0.90712070465088 0.15490083396435 -0.39132824540138
vn 0 -0.97689998149872 -0.21369712054729
vn -0.90712070465088 0.15490083396435 -0.39132824540138
vn -0.00000000831306 -0.31164619326591 0.95019823312759
vn -0.63440179824829 -0.53795832395554 0.55509930849075
vn -0.00000001819424 -0.87152224779129 0.49035593867302
vn -0.90214735269547 -0.32291227579117 0.28610810637474
vn -0.73751693964005 -0.60748970508575 -0.29499995708466
vn -0.00000002235201 -0.87915879487991 -0.47652888298035
vn 0.634401679039 -0.53795844316483 0.55509930849075
vn 0.90214729309082 -0.32291233539581 0.28610813617706
vn -0.00000001758135 -0.2662101984024 -0.96391499042511
vn -0.82882857322693 -0.26879984140396 -0.49070340394974
vn 0.73751693964005 -0.60748970508575 -0.29499995708466
vn 0.82882857322693 -0.26879987120628 -0.49070340394974
vn 0.31720688939095 0.9421159029007 0.10861605405807
vn -0.05198707059026 0.96055990457535 -0.27317038178444
vn 0.05198707804084 0.96055990457535 0.27317038178444
vn 0.31681606173515 0.90819758176804 -0.27350449562073
vn 0.03787151351571 0.58174180984497 0.81249135732651
vn -0.3168161213398 0.90819758176804 0.27350449562073
vn -0.75724065303802 0.53187173604965 0.37907660007477
vn 0.74023950099945 0.19770622253418 0.64261782169342
vn -0.18448275327682 0.19774782657623 0.96273666620255
vn 0.72274285554886 0.58239561319351 0.37209957838058
vn 0.93363165855408 0.17741933465004 -0.31121420860291
vn 0.69312763214111 0.57348901033401 -0.43667423725128
vn -0.31720688939095 0.9421159029007 -0.10861605405807
vn 0.18939432501793 0.18104387819767 -0.96506625413895
vn -0.04722991585732 0.57518780231476 -0.81665676832199
vn -0.85626089572906 0.18297830224037 -0.48304891586304
vn -0.62851893901825 0.63848882913589 -0.44418016076088
vn -0.8480087518692 0.20099499821663 0.49038982391357
vn 0.43785858154297 0.84026098251343 -0.31975200772285
vn 0.7805083990097 0.26691663265228 -0.56529825925827
vn 0.15578669309616 0.51896977424622 -0.84047657251358
vn 0.68468642234802 0.65609127283096 0.3174093067646
vn 0.16581606864929 0.7372505068779 0.65495556592941
vn 0.5789766907692 0.22493131458759 0.7837039232254
vn 0.99198353290558 0.12636733055115 0
vn 0.0762734413147 0.06787726283073 -0.99477386474609
vn 0.07801573723555 0.06695939600468 -0.99470096826553
vn 0.07156030833721 0.06406421214342 0.995376765728
vn 0.07804728299379 0.06064824014902 0.99510324001312
vn -0.98979485034943 -0.14249962568283 0
vn -0.98979485034943 -0.14249964058399 0
vn -0.98979485034943 -0.14249964058399 0
vn 0 -1 0
vn 0 -1 0
vn 0.999671459198 -0.02563263103366 0
vn 0.87785202264786 -0.47893199324608 0
vn 0.999671459198 -0.02563263103366 0
vn 0.06903613358736 -0.11746351420879 -0.99067467451096
vn 0.15285137295723 -0.06258703023195 -0.98626536130905
vn 0.06799598038197 -0.11702170222998 -0.99079889059067
vn 0.23629246652126 -0.00365631002933 -0.97167509794235
vn -0.99124467372894 0.1320378780365 0
vn -0.98670589923859 -0.16251622140408 0
vn 0.10817990452051 -0.06629733741283 0.9919182062149
vn 0.04614885151386 -0.10771568119526 0.99311006069183
vn 0.04867020994425 -0.10879224538803 0.99287229776382
vn 0.16912034153938 -0.02352651394904 0.98531454801559
vn -0.75925666093826 -0.65079128742218 0
vn -0.99017852544785 -0.13980884850025 0
vn -0.99017852544785 -0.13980886340141 0
vn 0 1 0
vn 0 1 0
vn 0.31577450037003 0.05352481454611 -0.94732338190079
vn 0.31569573283195 0.05798490345478 -0.9470871090889
vn 0.23042806982994 0.01822955720127 0.97291857004166
vn 0.23042559623718 0.01881017163396 0.97290813922882
vn 0.56262397766113 -0.82671290636063 0
vn -0.54204481840134 0.71430140733719 -0.44267475605011
vn -0.16880263388157 0.73516279459 -0.65653735399246
vn -0.69300782680511 0.28454047441483 -0.66240233182907
vn -0.57905495166779 0.77552455663681 0.25150960683823
vn -0.71387380361557 0.21923173964024 0.66507267951965
vn -0.15214352309704 0.52263021469116 0.83887428045273
vn -0.99198353290558 0.12636733055115 0
vn -0.07627344876528 0.06787727028131 -0.99477386474609
vn -0.07801572233438 0.06695939600468 -0.99470096826553
vn -0.07156031578779 0.064064219594 0.995376765728
vn -0.07804728299379 0.06064824387431 0.99510324001312
vn 0.98979485034943 -0.14249962568283 0
vn 0.98979485034943 -0.14249964058399 0
vn 0.98979485034943 -0.14249964058399 0
vn -0.87785202264786 -0.47893199324608 0
vn -0.999671459198 -0.02563262917101 0
vn -0.999671459198 -0.02563262730837 0
vn -0.15285137295723 -0.06258703023195 -0.98626536130905
vn -0.06903613358736 -0.11746350675821 -0.99067467451096
vn -0.06799598783255 -0.11702170222998 -0.99079889059067
vn -0.23629246652126 -0.00365631491877 -0.97167509794235
vn 0.99951207637787 0.03123538196087 0
vn 0.98670589923859 -0.16251622140408 0
vn 0.97283732891083 0.2314897030592 0
vn -0.04614885896444 -0.10771568119526 0.99311006069183
vn -0.10817991197109 -0.06629734486341 0.9919182062149
vn -0.04867020994425 -0.10879224538803 0.99287229776382
vn -0.16912034153938 -0.02352651208639 0.98531454801559
vn 0.75925666093826 -0.65079128742218 0
vn 0.99017852544785 -0.13980886340141 0
vn 0 1 0
vn -0.31577450037003 0.05352480337024 -0.94732338190079
vn -0.31569573283195 0.05798490345478 -0.9470871090889
vn -0.23042806982994 0.01822956092656 0.97291857004166
vn -0.23042559623718 0.01881018839777 0.97290813922882
vn -0.56262397766113 -0.82671290636063 0
vn -0.56262397766113 -0.82671290636063 0
vn -0.21700930595398 0.04120698943734 -0.97529941797256
vn -0.20745612680912 0.04504889622331 -0.9772065281868
vn -0.77148944139481 0.10013004392385 -0.628313601017
vn 0 0.02677612751722 -0.99964147806168
vn 0.0001531279413 0.02754326350987 -0.999620616436
vn 0.0002296918974 0.02716960012913 -0.99963080883026
vn 0.99390643835068 0.1087313964963 -0.01809699647129
vn 0.99406361579895 0.10752097517252 -0.01663703285158
vn 0.99374562501907 0.1099414229393 -0.01955689676106
vn -0.99390643835068 0.10873140394688 -0.018096992746
vn -0.99389898777008 0.10966206341982 -0.01179188117385
vn -0.99406361579895 0.10752097517252 -0.01663703098893
vn -0.99383282661438 0.10983289778233 -0.01526470296085
vn 0 0.09757141768932 0.99522852897644
vn 0 0.0975714251399 0.99522852897644
vn 0 0.0975714251399 0.99522852897644
vn 0.0002296918974 0.02792682312429 -0.99960994720459
vn 0 0.0282905716449 -0.99959975481033
vn 0.20380929112434 -0.97901058197021 0
vn 0.71305060386658 -0.70111256837845 0
vn -0.00034712275374 0.99511754512787 -0.0986960157752
vn -0.00069424521644 0.99519717693329 -0.09788823127747
vn 0 0.99503719806671 -0.09950371086597
vn -0.57962685823441 0.08508791029453 -0.81042748689651
vn -0.19912140071392 0.04340969398618 -0.97901290655136
vn 0.96773499250412 -0.25195920467377 0.0023449845612
vn 0.96740055084229 -0.25325122475624 0
vn 0.99528896808624 -0.09684243798256 0.00463178753853
vn 0.99551224708557 -0.09417840093374 0.00926344189793
vn 0 0.98454439640045 -0.17513531446457
vn 0.99827438592911 0.05872202292085 0
vn 0.99827438592911 0.05872202292085 0
vn 0.99827438592911 0.05872201919556 0
vn 0 -0.05481939017773 -0.99849629402161
vn 0 -0.05481939017773 -0.99849629402161
vn -0.99999231100082 0.00392153859138 0
vn -0.99999231100082 0.00392153905705 0
vn 0 0.0587220415473 0.99827438592911
vn 0 0.0587220415473 0.99827438592911
vn 0 0.05872203782201 0.99827438592911
vn 0.99327725172043 0.11360814422369 -0.02221386320889
vn 0.55181193351746 0.45721089839935 -0.6974681019783
vn 0.98465394973755 0.17412985861301 -0.01163440383971
vn -0.99529528617859 0.09499100595713 -0.01907914504409
vn -0.99427622556686 0.10579447448254 -0.01491111703217
vn -0.99468541145325 0.10139627754688 -0.01788247935474
vn 0 -0.15911875665188 -0.98725944757462
vn 0 0.21032245457172 -0.97763204574585
vn 0 -0.15911875665188 -0.98725944757462
vn 0.82370108366013 0.37277522683144 -0.42726466059685
vn 0 -0.04375368729234 0.99904233217239
vn 0 0.10272810608149 0.99470949172974
vn 0 -0.04375368356705 0.99904233217239
vn 0 0.10272809863091 0.99470949172974
vn -0.99989521503448 0.01115976180881 -0.00922220107168
vn -0.9998517036438 0.01397612318397 -0.01005996763706
vn 0 0.23002530634403 -0.97318464517593
vn 0 0.23002532124519 -0.97318464517593
vn 0 0.69410878419876 -0.71987009048462
vn 0.99633407592773 -0.08537025004625 -0.00550848571584
vn 0.99615800380707 -0.08757431060076 0
vn 0.99812650680542 0.06043105572462 -0.00956834666431
vn -0.99601769447327 -0.08898409456015 -0.00552531098947
vn -0.99583321809769 -0.09119351953268 0
vn 0 0.24700373411179 0.96901452541351
vn 0 0.24700371921062 0.96901452541351
vn -0.99827438592911 0.05872202292085 0
vn -0.99827438592911 0.05872202292085 0
vn -0.99827438592911 0.05872202292085 0
vn 0 -0.05481938272715 -0.99849629402161
vn 0.99999231100082 0.00392153859138 0
vn 0.99999231100082 0.00392153905705 0
vn 0 0.05872204527259 0.99827438592911
vn 0 0.05872204527259 0.99827438592911
vn -0.55181193351746 0.45721089839935 -0.69746816158295
vn -0.99327725172043 0.11360813677311 -0.02221386320889
vn -0.98465394973755 0.17412985861301 -0.01163440477103
vn 0.99427622556686 0.10579447448254 -0.01491111516953
vn 0.99529528617859 0.09499101340771 -0.01907914504409
vn 0.99468541145325 0.10139628499746 -0.01788247749209
vn 0 0.21032246947289 -0.97763204574585
vn 0 -0.15911874175072 -0.98725944757462
vn -0.82370108366013 0.37277525663376 -0.42726466059685
vn 0 0.05367747694254 0.99855834245682
vn 0 0.15153002738953 0.98845267295837
vn 0.99989521503448 0.01115975622088 -0.0092221936211
vn 0.9998517036438 0.01397611200809 -0.01005995459855
vn -0.99633407592773 -0.08537025004625 -0.00550848385319
vn -0.99615800380707 -0.08757431805134 0
vn -0.99812650680542 0.06043104827404 -0.00956834945828
vn 0.99601769447327 -0.08898410201073 -0.00552530027926
vn 0.99583321809769 -0.09119351953268 0
vn 0 0.24700370430946 0.96901452541351
# 233 normals

vt 0.26666668057442 0.96062994003296 0
vt 0.27058824896812 0.96850395202637 0
vt 0.26666668057442 0.96850395202637 0
vt 0.27058824896812 0.96062994003296 0
vt 0.27450981736183 0.96062994003296 0
vt 0.27450981736183 0.96850395202637 0
vt 0.27843138575554 0.59055119752884 0
vt 0.258823543787 0.51181101799011 0
vt 0.27843138575554 0.51181101799011 0
vt 0.258823543787 0.59055119752884 0
vt 0.17254902422428 0.59055119752884 0
vt 0.27450981736183 0.51181101799011 0
vt 0.27450981736183 0.59055119752884 0
vt 0.16470588743687 0.51181101799011 0
vt 0.49019607901573 0.63779526948929 0
vt 0.50588238239288 0.16535437107086 0
vt 0.49019607901573 0.16535437107086 0
vt 0.50980395078659 0.66141736507416 0
vt 0.30588236451149 0.16535437107086 0
vt 0.49803921580315 0.67716538906097 0
vt 0.30196079611778 0.67716538906097 0
vt 0.49411764740944 0.16535437107086 0
vt 0.50980395078659 0.16535437107086 0
vt 0.15686275064945 0.15748035907745 0
vt 0.28235295414925 0.4960629940033 0
vt 0.15294118225574 0.4960629940033 0
vt 0.27843138575554 0.15748035907745 0
vt 0.27058824896812 0.2992125749588 0
vt 0.27058824896812 0.19685041904449 0
vt 0.26666668057442 0.76377952098846 0
vt 0.27058824896812 0.76377952098846 0
vt 0.29803922772408 1 0
vt 0.34901961684227 0.74015748500824 0
vt 0.34901961684227 0.96850395202637 0
vt 0.29803922772408 0.70866143703461 0
vt 0.44705882668495 0.74015748500824 0
vt 0.49803921580315 1 0
vt 0.44705882668495 0.96850395202637 0
vt 0.49803921580315 0.70866143703461 0
vt 0.16078431904316 0.60629922151566 0
vt 0.28235295414925 0.69291341304779 0
vt 0.16078431904316 0.69291341304779 0
vt 0.28235295414925 0.60629922151566 0
vt 0.13725490868092 0.4960629940033 0
vt 0.14117647707462 0.5039370059967 0
vt 0.14117647707462 0.59055119752884 0
vt 0.95294117927551 0.87401574850082 0
vt 0.93333333730698 0.89763778448105 0
vt 0.90980392694473 0.87401574850082 0
vt 0.14509804546833 0.4960629940033 0
vt 0.27058824896812 0.93700790405273 0
vt 0.26274511218071 0.77165353298187 0
vt 0.26666668057442 0.74803149700165 0
vt 0.26666668057442 0.93700790405273 0
vt 0.27058824896812 0.95275592803955 0
vt 0.26666668057442 0.92125988006592 0
vt 0.27450981736183 0.92913389205933 0
vt 0.26274511218071 0.96062994003296 0
vt 0.12549020349979 0.60629922151566 0
vt 0.03137255087495 0.27559053897858 0
vt 0 0.60629922151566 0
vt 0.12549020349979 0.19685041904449 0
vt 0.258823543787 0.93700790405273 0
vt 0.1843137294054 0.71653544902802 0
vt 0.17254902422428 0.93700790405273 0
vt 0.24705882370472 0.75590550899506 0
vt 0.04705882444978 0.95275592803955 0
vt 0.0666666701436 0.96062994003296 0
vt 0.0666666701436 0.95275592803955 0
vt 0.04313725605607 0.96062994003296 0
vt 0.07058823853731 0.90551179647446 0
vt 0.09019608050585 0.95275592803955 0
vt 0.11372549086809 0.90551179647446 0
vt 0.2549019753933 0.95275592803955 0
vt 0.2549019753933 0.92913389205933 0
vt 0.01960784383118 0.62992125749588 0
vt 0.0274509806186 0.98425197601318 0
vt 0.03137255087495 0.62992125749588 0
vt 0.01568627543747 0.98425197601318 0
vt 0 0.62992125749588 0
vt 0 0.98425197601318 0
vt 0.08627451211214 0.96062994003296 0
vt 0.15294118225574 0.62992125749588 0
vt 0.03529411926866 0.98425197601318 0
vt 0.01176470611244 0.62992125749588 0
vt 0.15294118225574 0.98425197601318 0
vt 0.03921568766236 0.98425197601318 0
vt 0.59215688705444 0.40944886207581 0
vt 0.60392159223557 0.39370083808899 0
vt 0.60392159223557 0.40944886207581 0
vt 0.59215688705444 0.39370083808899 0
vt 0.61568629741669 0.40944886207581 0
vt 0.61568629741669 0.39370083808899 0
vt 0.01960784383118 0.92125988006592 0
vt 0.02352941222489 0.91338580846786 0
vt 0.0627451017499 0.92125988006592 0
vt 0.10980392247438 0.91338580846786 0
vt 0.61960786581039 0.7007874250412 0
vt 0.61568629741669 0.67716538906097 0
vt 0.62745100259781 0.7007874250412 0
vt 0.53333336114883 0.92125988006592 0
vt 0.52549022436142 0.95275592803955 0
vt 0.52549022436142 0.80314958095551 0
vt 0.58039218187332 0.80314958095551 0
vt 0.57647061347961 0.92125988006592 0
vt 0.52156865596771 0.60629922151566 0
vt 0.58431375026703 0.60629922151566 0
vt 0.58039218187332 0.95275592803955 0
vt 0.61176472902298 0.66929137706757 0
vt 0.61960786581039 0.63779526948929 0
vt 0.6235294342041 0.69291341304779 0
vt 0.60784316062927 0.63779526948929 0
vt 0.51764708757401 0.62204724550247 0
vt 0.04705882444978 0.18110239505768 0
vt 0.01176470611244 0.17322838306427 0
vt 0.05098039284348 0.17322838306427 0
vt 0.01568627543747 0.18110239505768 0
vt 0.53725492954254 0.51181101799011 0
vt 0.6235294342041 0.58267718553543 0
vt 0.52941179275513 0.54330712556839 0
vt 0.63137257099152 0.54330712556839 0
vt 0.51764708757401 0.59055119752884 0
vt 0.52156865596771 0.11811029911041 0
vt 0.5686274766922 0.2992125749588 0
vt 0.58823531866074 0.59055119752884 0
vt 0.60784316062927 0.2992125749588 0
vt 0.68627452850342 0.59055119752884 0
vt 0.59215688705444 0.59055119752884 0
vt 0.6745098233223 0.2992125749588 0
vt 0.71764707565308 0.2992125749588 0
vt 0.76862746477127 0.59055119752884 0
vt 0.69803923368454 0.59055119752884 0
vt 0.76470589637756 0.11811029911041 0
vt 0.61176472902298 0.110236287117 0
vt 0.68627452850342 0.18897640705109 0
vt 0.60392159223557 0.18897640705109 0
vt 0.678431391716 0.110236287117 0
vt 0.2549019753933 0.16535437107086 0
vt 0.34509804844856 0.16535437107086 0
vt 0.52549022436142 0.13385832309723 0
vt 0.60000002384186 0.13385832309723 0
vt 0.5686274766922 0.30708658695221 0
vt 0.57254904508591 0.05511808395386 0
vt 0.61568629741669 0.36220479011536 0
vt 0.678431391716 0.36220479011536 0
vt 0.68235296010971 0.13385832309723 0
vt 0.76078432798386 0.13385832309723 0
vt 0.71372550725937 0.30708658695221 0
vt 0.70980393886566 0.05511808395386 0
vt 0.62745100259781 0.02362203598022 0
vt 0.678431391716 0.14173233509064 0
vt 0.61176472902298 0.14173233509064 0
vt 0.66666668653488 0.02362203598022 0
vt 0.63921570777893 0.92913389205933 0
vt 0.60000002384186 0.96062994003296 0
vt 0.65490198135376 0.81102359294891 0
vt 0.71764707565308 0.92913389205933 0
vt 0.70588237047195 0.81102359294891 0
vt 0.75686275959015 0.96062994003296 0
vt 0.70196080207825 0.92913389205933 0
vt 0.65098041296005 0.81102359294891 0
vt 0.65490198135376 0.92913389205933 0
vt 0.64705884456635 0.60629922151566 0
vt 0.70980393886566 0.60629922151566 0
vt 0.69803923368454 0.92913389205933 0
vt 0.64705884456635 0.96062994003296 0
vt 0.65098041296005 0.92913389205933 0
vt 0.70196080207825 0.96062994003296 0
vt 0.60000002384186 0.62204724550247 0
vt 0.65098041296005 0.60629922151566 0
vt 0.75686275959015 0.62204724550247 0
vt 0.70588237047195 0.60629922151566 0
vt 0.76470589637756 0.96850395202637 0
vt 0.76078432798386 0.61417323350906 0
vt 0.76470589637756 0.61417323350906 0
vt 0.65490198135376 0.62204724550247 0
vt 0.72156864404678 0.63779526948929 0
vt 0.71764707565308 0.62204724550247 0
vt 0.65098041296005 0.63779526948929 0
vt 0.89803922176361 0.92913389205933 0
vt 0.90196079015732 0.77952754497528 0
vt 0.95294117927551 0.92913389205933 0
vt 0.93333333730698 0.60629922151566 0
vt 0.78823530673981 0.60629922151566 0
vt 0.98039215803146 0.61417323350906 0
vt 0.99215686321259 1 0
vt 0.99215686321259 0.61417323350906 0
vt 0.98039215803146 0.94488191604614 0
vt 0.80392158031464 0.93700790405273 0
vt 0.89803922176361 0.93700790405273 0
vt 0.13725490868092 0.32283473014832 0
vt 0.13725490868092 0.33070874214172 0
vt 0.13725490868092 0.29133856296539 0
vt 0.2549019753933 0.39370083808899 0
vt 0.2549019753933 0.36220479011536 0
vt 0.96862745285034 0.60629922151566 0
vt 0.2549019753933 0.37795281410217 0
vt 0.95294117927551 0.93700790405273 0
vt 0.80392158031464 0.99212598800659 0
vt 0.95294117927551 0.99212598800659 0
vt 0.60784316062927 0.37007880210876 0
vt 0.59607845544815 0.36220479011536 0
vt 0.61176472902298 0.36220479011536 0
vt 0.59607845544815 0.37007880210876 0
vt 0.12156862765551 0.1023622751236 0
vt 0.03137255087495 0.02362203598022 0
vt 0.12156862765551 0 0
vt 0.03137255087495 0.12598431110382 0
vt 0.12156862765551 0.18897640705109 0
vt 0.03137255087495 0.19685041904449 0
vt 0.0274509806186 0.17322838306427 0
vt 0.13333334028721 0.03149604797363 0
vt 0.0666666701436 0.02362203598022 0
vt 0.13333334028721 0.02362203598022 0
vt 0.07450980693102 0.03149604797363 0
vt 0.77647060155869 0.38582682609558 0
vt 0.7843137383461 0.45669293403625 0
vt 0.98039215803146 0.38582682609558 0
vt 0.77647060155869 0.17322838306427 0
vt 0.98431372642517 0.17322838306427 0
vt 0.7843137383461 0.24409449100494 0
vt 0.92941176891327 0.14960634708405 0
vt 0.83529412746429 0.04724407196045 0
vt 0.92941176891327 0.03149604797363 0
vt 0.83529412746429 0.12598431110382 0
vt 0.50196081399918 0.01574802398682 0
vt 0.40000000596046 0.02362203598022 0
vt 0.63921570777893 0.24409449100494 0
vt 0.64313727617264 0.24409449100494 0
vt 0.8941176533699 0.37007880210876 0
vt 0.95686274766922 0.36220479011536 0
vt 0.7843137383461 0.17322838306427 0
vt 0.79215687513351 0.24409449100494 0
vt 0.7843137383461 0.04724407196045 0
vt 0.85882353782654 0.12598431110382 0
vt 0.7843137383461 0.14960634708405 0
vt 0.85882353782654 0.04724407196045 0
vt 0.40000000596046 0.110236287117 0
vt 0.50196081399918 0.15748035907745 0
vt 0.95686274766922 0.57480317354202 0
vt 0.8901960849762 0.58267718553543 0
vt 0.01176470611244 0.16535437107086 0
vt 0.02352941222489 0.15748035907745 0
vt 0.02352941222489 0.16535437107086 0
vt 0.00784313771874 0.15748035907745 0
# 245 texture coordinates

o Mesh
usemtl material
f 1/1/1 2/2/1 3/3/2
f 1/1/1 4/4/4 2/2/1
f 2/2/5 5/5/5 6/6/6
f 2/2/5 4/4/7 5/5/5
f 1/1/8 6/6/8 5/5/8
f 1/1/8 3/3/9 6/6/8
f 7/7/10 8/8/11 9/9/12
f 7/7/10 10/10/10 8/8/11
f 11/11/13 8/12/11 10/13/13
f 11/11/13 12/14/14 8/12/11
f 13/15/15 14/16/16 15/17/17
f 13/15/15 16/18/18 14/16/16
f 15/19/19 17/20/20 13/21/15
f 15/19/19 18/22/21 17/20/20
f 19/23/22 17/15/20 18/17/23
f 19/23/22 20/18/24 17/15/20
f 19/24/25 16/25/18 20/26/24
f 19/24/25 14/27/26 16/25/18
f 15/28/27 19/29/27 18/29/27
f 15/28/27 14/28/27 19/29/27
f 11/30/28 7/31/29 21/30/28
f 11/30/28 10/31/29 7/31/29
f 16/32/18 22/33/30 9/34/12
f 16/32/18 13/35/15 22/33/30
f 12/36/14 20/37/24 8/38/11
f 12/36/14 17/39/20 20/37/24
f 16/32/18 8/38/11 20/37/24
f 16/32/18 9/34/12 8/38/11
f 17/39/20 22/33/30 13/35/15
f 17/39/20 12/36/14 22/33/30
f 9/12/12 21/11/31 7/13/31
f 9/12/12 22/14/30 21/11/31
f 22/40/30 11/41/28 21/42/28
f 22/40/30 12/43/14 11/41/28
f 23/44/32 24/45/32 25/46/32
f 26/47/33 24/48/33 23/49/33
f 25/46/34 24/45/34 26/50/34
f 27/51/35 28/52/36 29/53/37
f 27/51/35 30/54/38 28/52/36
f 31/55/39 29/56/37 28/57/36
f 31/55/39 32/58/40 29/56/37
f 33/52/41 27/51/35 29/53/37
f 33/52/41 34/54/42 27/51/35
f 35/59/43 31/60/39 36/61/44
f 35/59/43 32/62/40 31/60/39
f 37/60/45 35/59/43 38/61/46
f 37/60/45 32/62/40 35/59/43
f 34/63/42 37/64/45 38/65/46
f 34/63/42 33/66/41 37/64/45
f 31/64/39 30/63/38 36/65/44
f 31/64/39 28/66/36 30/63/38
f 39/67/47 40/68/48 41/69/49
f 39/67/47 42/70/50 40/68/48
f 43/71/51 44/72/52 45/73/53
f 43/71/51 41/69/49 44/72/52
f 29/56/37 37/74/45 33/75/41
f 29/56/37 32/58/40 37/74/45
f 46/76/54 43/77/51 47/78/55
f 46/76/54 48/79/56 43/77/51
f 49/80/57 48/79/56 46/76/54
f 49/80/57 50/81/58 48/79/56
f 51/82/59 41/69/49 40/68/48
f 51/82/59 44/72/52 41/69/49
f 52/83/60 50/84/58 49/85/57
f 52/83/60 53/86/61 50/84/58
f 54/85/62 53/86/61 52/83/60
f 54/85/62 55/87/63 53/86/61
f 45/79/53 54/80/62 56/76/64
f 45/79/53 55/81/63 54/80/62
f 49/88/27 47/89/27 52/90/27
f 49/88/27 46/91/27 47/89/27
f 47/78/55 45/79/53 56/76/64
f 47/78/55 43/77/51 45/79/53
f 47/89/27 54/92/27 52/90/27
f 47/89/27 56/93/27 54/92/27
f 50/94/58 39/67/47 48/95/56
f 50/94/58 42/70/50 39/67/47
f 53/96/61 42/70/50 50/94/58
f 53/96/61 40/68/48 42/70/50
f 48/95/56 41/69/49 43/71/51
f 48/95/56 39/67/47 41/69/49
f 55/97/63 40/68/48 53/96/61
f 55/97/63 51/82/59 40/68/48
f 45/73/53 51/82/59 55/97/63
f 45/73/53 44/72/52 51/82/59
f 57/98/65 58/99/66 59/100/67
f 60/101/68 61/102/69 62/103/70
f 58/104/66 60/101/68 62/103/70
f 58/104/66 57/105/65 60/101/68
f 58/104/66 63/106/71 64/107/71
f 58/104/66 62/103/70 63/106/71
f 57/105/65 61/102/69 60/101/68
f 57/105/65 59/108/67 61/102/69
f 58/109/66 65/110/72 59/111/67
f 58/109/66 64/112/73 65/110/72
f 66/113/74 62/103/70 61/102/69
f 66/113/74 63/106/75 62/103/70
f 61/114/76 65/115/76 66/116/77
f 61/114/76 59/117/78 65/115/76
f 63/118/27 65/119/27 64/120/79
f 63/118/27 66/121/80 65/119/27
f 67/122/81 68/123/82 69/122/83
f 67/122/81 70/123/82 68/123/82
f 69/122/84 71/124/85 72/125/86
f 69/122/84 68/123/87 71/124/85
f 71/126/88 73/127/89 72/128/89
f 71/126/88 74/129/88 73/127/89
f 74/130/90 67/131/91 73/132/92
f 74/130/90 70/133/93 67/131/91
f 75/134/94 76/135/95 77/136/96
f 75/134/94 78/137/94 76/135/95
f 69/138/97 73/139/97 67/138/98
f 69/138/97 72/139/97 73/139/97
f 68/140/87 77/141/99 71/142/85
f 68/140/87 75/143/100 77/141/99
f 76/135/95 71/144/88 77/136/96
f 76/135/95 74/145/88 71/144/88
f 76/146/101 70/147/93 74/148/90
f 76/146/101 78/149/102 70/147/93
f 68/150/82 78/151/103 75/152/103
f 68/150/82 70/153/82 78/151/103
f 79/154/104 80/155/105 81/156/106
f 82/157/107 83/158/108 84/159/109
f 82/160/107 81/161/106 83/158/108
f 82/160/107 79/162/104 81/161/106
f 83/158/108 85/163/110 86/164/110
f 83/158/108 81/161/106 85/163/110
f 82/165/107 80/166/105 79/167/104
f 82/165/107 84/168/109 80/166/105
f 87/169/111 81/161/106 80/155/105
f 87/169/111 85/170/112 81/161/106
f 83/158/108 88/171/113 84/159/109
f 83/158/108 86/172/114 88/171/113
f 80/173/115 88/174/115 87/175/116
f 80/173/115 84/173/117 88/174/115
f 85/176/27 88/177/27 86/178/27
f 85/176/27 87/179/27 88/177/27
f 89/123/118 90/122/119 91/122/120
f 89/123/118 92/123/118 90/122/119
f 93/124/121 91/122/122 94/125/123
f 93/124/121 89/123/124 91/122/122
f 95/129/125 94/128/126 96/127/126
f 95/129/125 93/126/127 94/128/126
f 90/131/128 95/130/129 96/132/130
f 90/131/128 92/133/131 95/130/129
f 97/134/132 98/135/133 99/137/132
f 97/134/132 100/136/133 98/135/133
f 90/138/97 94/139/97 91/138/97
f 90/138/97 96/139/134 94/139/97
f 100/141/135 89/140/124 93/142/121
f 100/141/135 97/143/136 89/140/124
f 93/144/127 98/135/133 100/136/133
f 93/144/127 95/145/125 98/135/133
f 92/147/131 98/146/137 95/148/129
f 92/147/131 99/149/138 98/146/137
f 99/151/139 89/150/118 97/152/140
f 99/151/139 92/153/118 89/150/118
f 101/180/141 102/181/142 103/182/143
f 104/183/144 105/181/145 106/184/146
f 106/185/147 107/186/147 108/187/148
f 106/185/147 109/188/149 107/186/147
f 110/186/150 111/185/151 112/187/152
f 110/186/150 113/188/153 111/185/151
f 108/187/154 110/186/154 112/187/155
f 108/187/154 107/186/156 110/186/154
f 105/181/145 109/189/157 106/184/146
f 105/181/145 114/190/158 109/189/157
f 104/191/159 115/191/27 116/192/160
f 104/191/159 112/193/27 115/191/27
f 103/194/161 114/194/161 101/194/162
f 103/194/161 113/194/163 114/194/161
f 103/194/143 111/195/151 113/194/153
f 103/194/143 115/195/164 111/195/151
f 102/181/142 115/196/164 103/182/143
f 102/181/142 116/183/165 115/196/164
f 105/197/166 116/195/160 102/197/167
f 105/197/166 104/195/159 116/195/160
f 105/197/166 101/194/168 114/194/169
f 105/197/166 102/197/167 101/194/168
f 113/198/170 107/199/170 109/189/170
f 113/198/170 110/200/170 107/199/170
f 104/201/159 108/202/27 112/203/27
f 104/201/159 106/204/27 108/202/27
f 117/205/171 118/206/171 119/207/172
f 117/205/171 120/208/173 118/206/171
f 121/209/174 120/208/174 117/205/175
f 121/209/174 122/210/174 120/208/174
f 123/211/176 121/117/176 124/211/177
f 123/211/176 122/117/176 121/117/176
f 118/212/178 124/213/178 119/214/179
f 118/212/178 123/215/180 124/213/178
f 125/216/181 126/217/182 127/218/183
f 128/219/184 129/220/185 130/221/186
f 131/222/187 132/223/188 133/224/189
f 131/222/187 134/225/190 132/223/188
f 135/226/191 136/227/192 137/226/193
f 135/226/191 138/227/194 136/227/192
f 128/228/27 127/229/27 129/229/27
f 128/228/27 125/228/27 127/229/27
f 129/220/185 132/230/195 130/221/186
f 129/220/185 138/231/196 132/230/195
f 128/232/197 126/233/182 125/232/198
f 128/232/197 130/233/199 126/233/182
f 130/234/199 134/235/190 126/236/182
f 130/234/199 132/237/188 134/235/190
f 137/226/200 134/238/190 131/239/201
f 137/226/200 136/227/202 134/238/190
f 132/238/195 135/226/203 133/239/204
f 132/238/195 138/227/196 135/226/203
f 136/240/192 129/218/205 127/218/206
f 136/240/192 138/240/194 129/218/205
f 134/241/190 127/218/183 126/217/182
f 134/241/190 136/240/202 127/218/183
f 139/206/207 140/205/207 141/207/208
f 139/206/207 142/208/209 140/205/207
f 142/208/174 121/209/174 140/205/210
f 142/208/174 143/210/174 121/209/174
f 144/242/211 121/243/211 143/244/211
f 144/242/211 124/245/212 121/243/211
f 124/213/213 139/212/213 141/214/179
f 124/213/213 144/215/214 139/212/213
f 145/217/215 146/216/216 147/218/217
f 148/220/218 149/219/219 150/221/220
f 151/223/221 152/222/222 153/224/187
f 151/223/221 154/225/223 152/222/222
f 155/226/193 156/227/224 157/226/193
f 155/226/193 158/227/225 156/227/224
f 147/229/27 149/228/27 148/229/27
f 147/229/27 146/228/27 149/228/27
f 151/230/226 148/220/218 150/221/220
f 151/230/226 156/231/227 148/220/218
f 145/233/215 149/232/197 146/232/198
f 145/233/215 150/233/199 149/232/197
f 154/235/223 150/234/199 145/236/215
f 154/235/223 151/237/221 150/234/199
f 154/238/223 155/226/228 152/239/229
f 154/238/223 158/227/230 155/226/228
f 157/226/231 151/238/226 153/239/232
f 157/226/231 156/227/227 151/238/226
f 148/218/233 158/240/225 147/218/206
f 148/218/233 156/240/224 158/240/225
f 147/218/217 154/241/223 145/217/215
f 147/218/217 158/240/230 154/241/223

