<?xml version="1.0" encoding="UTF-8"?>
<COLLADA xmlns="http://www.collada.org/2008/03/COLLADASchema" version="1.5.0">
	<asset>
		<contributor>
			<authoring_tool>CINEMA4D 20.057 COLLADA Exporter</authoring_tool>
		</contributor>
		<created>2019-09-15T11:01:57Z</created>
		<modified>2019-09-15T11:01:57Z</modified>
		<unit/>
		<up_axis>Y_UP</up_axis>
	</asset>
	<library_images>
		<image id="ID3">
			<init_from>
				<ref>Police_Man.png</ref>
			</init_from>
		</image>
	</library_images>
	<library_effects>
		<effect id="ID2">
			<profile_COMMON>
				<newparam sid="ID4">
					<sampler2D>
						<instance_image url="#ID3"/>
					</sampler2D>
				</newparam>
				<technique sid="COMMON">
					<blinn>
						<diffuse>
							<texture texture="ID4" texcoord="UVSET0"/>
						</diffuse>
					</blinn>
				</technique>
			</profile_COMMON>
		</effect>
	</library_effects>
	<library_materials>
		<material id="ID1" name="material">
			<instance_effect url="#ID2"/>
		</material>
	</library_materials>
	<library_geometries>
		<geometry id="ID20">
			<mesh>
				<source id="ID21">
					<float_array id="ID22" count="480" digits="2490374">2.6 16 -2.7 0 17.4 1.75 2.6 18.3 -2.7 0 15.5 1.75 -2.6 16 -2.7 -2.6 18.3 -2.7 3.4 16.5 -3.2 -3.4 14.95 -3.4 3.4 14.95 -3.4 -3.4 16.5 -3.2 -3.4 15.8 2.6 -3.4 14.2 2.9 6.75 13.25 3.7 6.3 -0.55 -3.85 6.3 -0.55 4.55 6.75 13.85 -4.2 -6.75 13.25 3.7 -6.3 -0.55 4.55 -6.3 -0.55 -3.85 -6.75 13.85 -4.2 3.4 15.8 2.6 3.4 14.2 2.9 0.75 19.75 4.55 0 20.1 6.15 0 22.5 5.2 -0.75 19.75 4.55 0 21.7 -5.1 -3.75 18 -1.95 0 17.4 -3.9 -4.8 21.7 -2.85 -3.3 17.15 1.95 0 15.95 3.8 3.75 18 -1.95 4.8 21.7 -2.85 0 21.7 5.35 -4.45 21.7 2.5 3.3 17.15 1.95 4.45 21.7 2.5 2.05 28.75 -0.95 0 28.75 2.6 0 28.75 -2.15 2.05 28.75 1.4 0 27.05 -4.8 -2.05 28.75 -0.95 -4.35 27.05 -2.3 5.3 21.7 -2.85 0 21.7 -5.9 4.35 27.05 -2.3 5.3 21.7 2.95 4.35 27.05 2.75 -2.05 28.75 1.4 0 21.7 6.35 0 27.05 5.25 -5.3 21.7 2.95 -4.35 27.05 2.75 -5.3 21.7 -2.85 9.25 13.2 1.8 11.35 8.75 2.2 5.4 13.75 2.3 9.25 13.2 -2.6 5.4 13.75 -3.1 11.35 8.75 -3.05 12.35 0.9 -3.45 12.35 0.9 2.65 7.25 0.9 3.05 7.25 0.9 -3.85 12.35 1.45 -3.4 12 -12.2 1.05 12.35 1.45 2.65 12 -12.2 -1.95 8.65 -7.05 1.9 7.25 1.45 3 7.25 1.45 -3.65 8.65 -7.05 -2.65 8.4 -14.65 2.4 6.3 -12.2 -3.3 6.3 -12.2 2.95 8.4 -14.65 -2.85 -9.25 13.2 1.8 -5.4 13.75 2.3 -11.35 8.75 2.2 -9.25 13.2 -2.6 -11.35 8.75 -3.05 -5.4 13.75 -3.1 -12.35 0.9 2.65 -12.35 0.9 -3.45 -7.25 0.9 3.05 -7.25 0.9 -3.85 -12 -12.2 1.05 -12.35 1.45 -3.4 -12.35 1.45 2.65 -12 -12.2 -1.95 -8.65 -7.05 1.9 -7.25 1.45 3 -8.65 -7.05 -2.65 -7.25 1.45 -3.65 -8.4 -14.65 2.4 -6.3 -12.2 -3.3 -8.4 -14.65 -2.85 -6.3 -12.2 2.95 -1.6 0.35 8.75 -2.1 -4.65 8.85 -6.3 0.45 7.7 -4.55 -10.25 6 -2.1 -4.65 5.85 7.5 -10.25 6 6.3 2.5 -4.7 7.7 -10.25 -5.95 6.3 0.65 5.7 -6.3 2.5 -4.7 -7.5 -10.25 6 -7.7 -10.25 -5.95 -6.3 0.65 5.7 -1.6 0.65 5.7 -7.5 -10.25 8 -4.55 -10.25 8.6 7.2 -18.85 3.4 6.45 -6.1 -3.55 7.2 -18.85 -4.3 6.45 -6.1 4.1 0 -18.85 3.4 0.05 -6.1 4.1 0.05 -6.1 -3.55 0 -18.85 -4.3 7.3 -39.5 10 7 -36.75 9.35 7.65 -39.5 -5.65 0.55 -39.5 10 0.25 -39.5 -5.65 0.8 -36.75 9.35 7.2 -18.15 3.4 1.2 -31.8 1.2 -0.05 -18.15 3.4 6 -31.8 1.2 -0.05 -18.15 -4.3 6.05 -31.85 -3.7 7.2 -18.15 -4.3 1.15 -31.85 -3.7 -6.45 -6.1 -3.55 -7.2 -18.85 3.4 -7.2 -18.85 -4.3 -6.45 -6.1 4.1 0 -18.85 3.4 -0.05 -6.1 4.1 -0.05 -6.1 -3.55 0 -18.85 -4.3 -7 -36.75 9.35 -7.3 -39.5 10 -7.65 -39.5 -5.65 -0.25 -39.5 -5.65 -0.55 -39.5 10 -0.8 -36.75 9.35 -1.2 -31.8 1.2 -7.2 -18.15 3.4 0.05 -18.15 3.4 -6 -31.8 1.2 -7.2 -18.15 -4.3 -1.15 -31.85 -3.7 0.05 -18.15 -4.3 -6.05 -31.85 -3.7</float_array>
					<technique_common>
						<accessor count="160" source="#ID22" stride="3">
							<param name="X" type="float"/>
							<param name="Y" type="float"/>
							<param name="Z" type="float"/>
						</accessor>
					</technique_common>
				</source>
				<source id="ID23">
					<float_array id="ID24" count="675" digits="2490374">0.863427 0 0.504474 0.863427 0 0.504474 0.863427 0 0.504474 -0.863427 0 0.504474 -0.863427 0 0.504474 -0.863427 -0 0.504474 0 0 -1 0 0.127971 -0.991778 -0.484212 0.491332 -0.723969 0.702759 0.49746 -0.50859 -1 0 -0 -0.429436 0.736969 0.521978 0.679075 0.483566 0.552287 0.999489 -0.0319419 -0.00118832 0.999469 -0.0325914 -0 0.329251 0.62074 -0.71153 0 0.0614777 0.998109 -0.466493 0.478168 0.744137 0 0.0614777 0.998108 -0.999489 -0.0319419 -0.00118832 -0.999469 -0.0325914 0 -0.477306 0.730527 -0.488374 0 -0.0242984 -0.999705 0 -0.0242984 -0.999705 0 -1 -0 0 0.729792 0.683669 0 0.992796 0.11982 0.296647 0.663664 0.686696 1 0 -0 0.907121 0.154901 0.391328 0 -0.9769 0.213697 -0.907121 0.154901 0.391328 -8.31306e-09 -0.311646 -0.950198 -0.634402 -0.537958 -0.555099 -1.81942e-08 -0.871522 -0.490356 -0.902147 -0.322912 -0.286108 -0.737517 -0.60749 0.295 -2.2352e-08 -0.879159 0.476529 0.634402 -0.537958 -0.555099 0.902147 -0.322912 -0.286108 -1.75813e-08 -0.26621 0.963915 -0.828829 -0.2688 0.490703 0.737517 -0.60749 0.295 0.828829 -0.2688 0.490703 0.317207 0.942116 -0.108616 -0.0519871 0.96056 0.27317 0.0519871 0.96056 -0.27317 0.316816 0.908198 0.273504 0.0378715 0.581742 -0.812491 -0.316816 0.908198 -0.273504 -0.757241 0.531872 -0.379077 0.74024 0.197706 -0.642618 -0.184483 0.197748 -0.962737 0.722743 0.582396 -0.3721 0.933632 0.177419 0.311214 0.693128 0.573489 0.436674 -0.317207 0.942116 0.108616 0.189394 0.181044 0.965066 -0.0472299 0.575188 0.816657 -0.856261 0.182978 0.483049 -0.628519 0.638489 0.44418 -0.848009 0.200995 -0.49039 0.437859 0.840261 0.319752 0.780508 0.266917 0.565298 0.155787 0.51897 0.840477 0.684686 0.656091 -0.317409 0.165816 0.73725 -0.654956 0.578977 0.224931 -0.783704 0.991984 0.126367 -0 0.0762734 0.0678773 0.994774 0.0780157 0.0669594 0.994701 0.0715603 0.0640642 -0.995377 0.0780473 0.0606482 -0.995103 -0.989795 -0.1425 -0 -0.989795 -0.1425 -0 -0.989795 -0.1425 0 0.999671 -0.0256326 -0 0.877852 -0.478932 -0 0.999671 -0.0256326 -0 0.0690361 -0.117464 0.990675 0.152851 -0.062587 0.986265 0.067996 -0.117022 0.990799 0.236292 -0.00365631 0.971675 -0.991245 0.132038 -0 -0.986706 -0.162516 -0 0.10818 -0.0662973 -0.991918 0.0461489 -0.107716 -0.99311 0.0486702 -0.108792 -0.992872 0.16912 -0.0235265 -0.985315 -0.759257 -0.650791 -0 -0.990179 -0.139809 -0 -0.990179 -0.139809 -0 0 1 -0 0.315775 0.0535248 0.947323 0.315696 0.0579849 0.947087 0.230428 0.0182296 -0.972919 0.230426 0.0188102 -0.972908 0.562624 -0.826713 -0 -0.542045 0.714301 0.442675 -0.168803 0.735163 0.656537 -0.693008 0.284541 0.662402 -0.579055 0.775525 -0.25151 -0.713874 0.219232 -0.665073 -0.152144 0.52263 -0.838874 -0.991984 0.126367 -0 -0.0762734 0.0678773 0.994774 -0.0780157 0.0669594 0.994701 -0.0715603 0.0640642 -0.995377 -0.0780473 0.0606482 -0.995103 0.989795 -0.1425 -0 0.989795 -0.1425 -0 0.989795 -0.1425 -0 -0.877852 -0.478932 -0 -0.999671 -0.0256326 -0 -0.999671 -0.0256326 -0 -0.152851 -0.062587 0.986265 -0.0690361 -0.117464 0.990675 -0.067996 -0.117022 0.990799 -0.236292 -0.00365632 0.971675 0.999512 0.0312354 -0 0.986706 -0.162516 -0 0.972837 0.23149 -0 -0.0461489 -0.107716 -0.99311 -0.10818 -0.0662973 -0.991918 -0.0486702 -0.108792 -0.992872 -0.16912 -0.0235265 -0.985315 0.759257 -0.650791 -0 0.990179 -0.139809 -0 -0.315775 0.0535248 0.947323 -0.315696 0.0579849 0.947087 -0.230428 0.0182296 -0.972919 -0.230426 0.0188102 -0.972908 -0.562624 -0.826713 -0 -0.217009 0.041207 0.975299 -0.207456 0.0450489 0.977207 -0.771489 0.10013 0.628314 0 0.0267761 0.999641 0.000153128 0.0275433 0.999621 0.000229692 0.0271696 0.999631 0.993906 0.108731 0.018097 0.994064 0.107521 0.016637 0.993746 0.109941 0.0195569 -0.993906 0.108731 0.018097 -0.993899 0.109662 0.0117919 -0.994064 0.107521 0.016637 -0.993833 0.109833 0.0152647 0 0.0975714 -0.995229 0 0.0975714 -0.995229 0 0.0975714 -0.995228 0.000229692 0.0279268 0.99961 0 0.0282906 0.9996 0.203809 -0.979011 -0 0.713051 -0.701113 -0 -0.000347123 0.995118 0.098696 -0.000694245 0.995197 0.0978882 0 0.995037 0.0995037 -0.579627 0.0850879 0.810428 -0.199121 0.0434097 0.979013 0.967735 -0.251959 -0.00234498 0.967401 -0.253251 -0 0.995289 -0.0968424 -0.00463179 0.995512 -0.0941784 -0.00926344 0 0.984544 0.175135 0.998274 0.058722 -0 0.998274 0.058722 0 0.998274 0.058722 -0 0 -0.0548194 0.998496 0 -0.0548194 0.998496 -0.999992 0.00392154 -0 -0.999992 0.00392154 -0 0 0.058722 -0.998274 0 0.058722 -0.998274 0 0.058722 -0.998274 0.993277 0.113608 0.0222139 0.551812 0.457211 0.697468 0.984654 0.17413 0.0116344 -0.995295 0.094991 0.0190791 -0.994276 0.105794 0.0149111 -0.994685 0.101396 0.0178825 0 -0.159119 0.987259 0 0.210322 0.977632 0.823701 0.372775 0.427265 0 -0.0437537 -0.999042 0 0.102728 -0.994709 0 -0.0437537 -0.999042 0 0.102728 -0.994709 -0.999895 0.0111598 0.0092222 -0.999852 0.0139761 0.01006 0 0.230025 0.973185 0 0.230025 0.973185 0 0.694109 0.71987 0.996334 -0.0853703 0.00550849 0.996158 -0.0875743 -0 0.998127 0.0604311 0.00956835 -0.996018 -0.0889841 0.00552531 -0.995833 -0.0911935 -0 0 0.247004 -0.969015 0 0.247004 -0.969015 -0.998274 0.058722 -0 -0.998274 0.058722 -0 -0.998274 0.058722 -0 0 -0.0548194 0.998496 0.999992 0.00392154 -0 0.999992 0.00392154 -0 0 0.058722 -0.998274 0 0.058722 -0.998274 -0.551812 0.457211 0.697468 -0.993277 0.113608 0.0222139 -0.984654 0.17413 0.0116344 0.994276 0.105794 0.0149111 0.995295 0.094991 0.0190791 0.994685 0.101396 0.0178825 0 0.210322 0.977632 0 -0.159119 0.987259 -0.823701 0.372775 0.427265 0 0.0536775 -0.998558 0 0.15153 -0.988453 0.999895 0.0111598 0.00922219 0.999852 0.0139761 0.01006 -0.996334 -0.0853703 0.00550848 -0.996158 -0.0875743 -0 -0.998127 0.0604311 0.00956835 0.996018 -0.0889841 0.0055253 0.995833 -0.0911935 -0 0 0.247004 -0.969015</float_array>
					<technique_common>
						<accessor count="225" source="#ID24" stride="3">
							<param name="X" type="float"/>
							<param name="Y" type="float"/>
							<param name="Z" type="float"/>
						</accessor>
					</technique_common>
				</source>
				<source id="ID25">
					<float_array id="ID26" count="490" digits="2490374">0.266667 0.96063 0.270588 0.968504 0.266667 0.968504 0.270588 0.96063 0.27451 0.96063 0.27451 0.968504 0.278431 0.590551 0.258824 0.511811 0.278431 0.511811 0.258824 0.590551 0.172549 0.590551 0.27451 0.511811 0.27451 0.590551 0.164706 0.511811 0.490196 0.637795 0.505882 0.165354 0.490196 0.165354 0.509804 0.661417 0.305882 0.165354 0.498039 0.677165 0.301961 0.677165 0.494118 0.165354 0.509804 0.165354 0.156863 0.15748 0.282353 0.496063 0.152941 0.496063 0.278431 0.15748 0.270588 0.299213 0.270588 0.19685 0.266667 0.76378 0.270588 0.76378 0.298039 1 0.34902 0.740157 0.34902 0.968504 0.298039 0.708661 0.447059 0.740157 0.498039 1 0.447059 0.968504 0.498039 0.708661 0.160784 0.606299 0.282353 0.692913 0.160784 0.692913 0.282353 0.606299 0.137255 0.496063 0.141176 0.503937 0.141176 0.590551 0.952941 0.874016 0.933333 0.897638 0.909804 0.874016 0.145098 0.496063 0.270588 0.937008 0.262745 0.771654 0.266667 0.748031 0.266667 0.937008 0.270588 0.952756 0.266667 0.92126 0.27451 0.929134 0.262745 0.96063 0.12549 0.606299 0.0313726 0.275591 0 0.606299 0.12549 0.19685 0.258824 0.937008 0.184314 0.716535 0.172549 0.937008 0.247059 0.755906 0.0470588 0.952756 0.0666667 0.96063 0.0666667 0.952756 0.0431373 0.96063 0.0705882 0.905512 0.0901961 0.952756 0.113725 0.905512 0.254902 0.952756 0.254902 0.929134 0.0196078 0.629921 0.027451 0.984252 0.0313726 0.629921 0.0156863 0.984252 0 0.629921 0 0.984252 0.0862745 0.96063 0.152941 0.629921 0.0352941 0.984252 0.0117647 0.629921 0.152941 0.984252 0.0392157 0.984252 0.592157 0.409449 0.603922 0.393701 0.603922 0.409449 0.592157 0.393701 0.615686 0.409449 0.615686 0.393701 0.0196078 0.92126 0.0235294 0.913386 0.0627451 0.92126 0.109804 0.913386 0.619608 0.700787 0.615686 0.677165 0.627451 0.700787 0.533333 0.92126 0.52549 0.952756 0.52549 0.80315 0.580392 0.80315 0.576471 0.92126 0.521569 0.606299 0.584314 0.606299 0.580392 0.952756 0.611765 0.669291 0.619608 0.637795 0.623529 0.692913 0.607843 0.637795 0.517647 0.622047 0.0470588 0.181102 0.0117647 0.173228 0.0509804 0.173228 0.0156863 0.181102 0.537255 0.511811 0.623529 0.582677 0.529412 0.543307 0.631373 0.543307 0.517647 0.590551 0.521569 0.11811 0.568627 0.299213 0.588235 0.590551 0.607843 0.299213 0.686275 0.590551 0.592157 0.590551 0.67451 0.299213 0.717647 0.299213 0.768627 0.590551 0.698039 0.590551 0.764706 0.11811 0.611765 0.110236 0.686275 0.188976 0.603922 0.188976 0.678431 0.110236 0.254902 0.165354 0.345098 0.165354 0.52549 0.133858 0.6 0.133858 0.568627 0.307087 0.572549 0.0551181 0.615686 0.362205 0.678431 0.362205 0.682353 0.133858 0.760784 0.133858 0.713726 0.307087 0.709804 0.0551181 0.627451 0.023622 0.678431 0.141732 0.611765 0.141732 0.666667 0.023622 0.639216 0.929134 0.6 0.96063 0.654902 0.811024 0.717647 0.929134 0.705882 0.811024 0.756863 0.96063 0.701961 0.929134 0.65098 0.811024 0.654902 0.929134 0.647059 0.606299 0.709804 0.606299 0.698039 0.929134 0.647059 0.96063 0.65098 0.929134 0.701961 0.96063 0.6 0.622047 0.65098 0.606299 0.756863 0.622047 0.705882 0.606299 0.764706 0.968504 0.760784 0.614173 0.764706 0.614173 0.654902 0.622047 0.721569 0.637795 0.717647 0.622047 0.65098 0.637795 0.898039 0.929134 0.901961 0.779528 0.952941 0.929134 0.933333 0.606299 0.788235 0.606299 0.980392 0.614173 0.992157 1 0.992157 0.614173 0.980392 0.944882 0.803922 0.937008 0.898039 0.937008 0.137255 0.322835 0.137255 0.330709 0.137255 0.291339 0.254902 0.393701 0.254902 0.362205 0.968627 0.606299 0.254902 0.377953 0.952941 0.937008 0.803922 0.992126 0.952941 0.992126 0.607843 0.370079 0.596078 0.362205 0.611765 0.362205 0.596078 0.370079 0.121569 0.102362 0.0313726 0.023622 0.121569 0 0.0313726 0.125984 0.121569 0.188976 0.0313726 0.19685 0.027451 0.173228 0.133333 0.031496 0.0666667 0.023622 0.133333 0.023622 0.0745098 0.031496 0.776471 0.385827 0.784314 0.456693 0.980392 0.385827 0.776471 0.173228 0.984314 0.173228 0.784314 0.244094 0.929412 0.149606 0.835294 0.0472441 0.929412 0.031496 0.835294 0.125984 0.501961 0.015748 0.4 0.023622 0.639216 0.244094 0.643137 0.244094 0.894118 0.370079 0.956863 0.362205 0.784314 0.173228 0.792157 0.244094 0.784314 0.0472441 0.858824 0.125984 0.784314 0.149606 0.858824 0.0472441 0.4 0.110236 0.501961 0.15748 0.956863 0.574803 0.890196 0.582677 0.0117647 0.165354 0.0235294 0.15748 0.0235294 0.165354 0.00784314 0.15748</float_array>
					<technique_common>
						<accessor count="245" source="#ID26" stride="2">
							<param name="S" type="float"/>
							<param name="T" type="float"/>
						</accessor>
					</technique_common>
				</source>
				<vertices id="ID27">
					<input semantic="POSITION" source="#ID21"/>
				</vertices>
				<polylist count="243" material="Material1">
					<input offset="0" semantic="VERTEX" source="#ID27" set="0"/>
					<input offset="1" semantic="NORMAL" source="#ID23" set="0"/>
					<input offset="2" semantic="TEXCOORD" source="#ID25" set="0"/>
					<vcount>3 3 3 3 3 3 3 3 3 3 3 3 3 3 3 3 3 3 3 3 3 3 3 3 3 3 3 3 3 3 3 3 3 3 3 3 3 3 3 3 3 3 3 3 3 3 3 3 3 3 3 3 3 3 3 3 3 3 3 3 3 3 3 3 3 3 3 3 3 3 3 3 3 3 3 3 3 3 3 3 3 3 3 3 3 3 3 3 3 3 3 3 3 3 3 3 3 3 3 3 3 3 3 3 3 3 3 3 3 3 3 3 3 3 3 3 3 3 3 3 3 3 3 3 3 3 3 3 3 3 3 3 3 3 3 3 3 3 3 3 3 3 3 3 3 3 3 3 3 3 3 3 3 3 3 3 3 3 3 3 3 3 3 3 3 3 3 3 3 3 3 3 3 3 3 3 3 3 3 3 3 3 3 3 3 3 3 3 3 3 3 3 3 3 3 3 3 3 3 3 3 3 3 3 3 3 3 3 3 3 3 3 3 3 3 3 3 3 3 3 3 3 3 3 3 3 3 3 3 3 3 3 3 3 3 3 3 3 3 3 3 3 3</vcount>
					<p>2 1 2 1 0 1 0 0 0 1 0 1 3 2 3 0 0 0 5 4 5 4 3 4 1 3 1 4 3 4 3 5 3 1 3 1 4 6 4 5 6 5 0 6 0 5 6 5 2 6 2 0 6 0 8 9 8 7 8 7 6 7 6 7 8 7 9 7 9 6 7 6 9 10 12 7 8 11 10 10 10 7 8 11 11 11 13 10 10 10 14 14 16 13 13 15 12 12 14 13 13 15 15 15 17 12 12 14 12 12 20 16 17 19 14 16 18 16 17 19 17 18 21 14 16 18 17 20 16 16 17 14 18 19 22 16 17 14 19 21 17 18 19 22 19 21 25 15 15 24 18 22 23 15 15 24 13 23 26 18 22 23 17 24 28 18 24 28 14 24 27 18 24 28 13 24 27 14 24 27 20 25 29 6 26 30 10 25 29 6 26 30 9 26 30 10 25 29 8 9 33 21 27 32 15 15 31 21 27 32 12 12 34 15 15 31 7 8 37 19 21 36 11 11 35 19 21 36 16 17 38 11 11 35 19 21 36 7 8 37 15 15 31 7 8 37 8 9 33 15 15 31 12 12 34 21 27 32 16 17 38 21 27 32 11 11 35 16 17 38 6 28 12 20 28 10 8 9 11 20 28 10 21 27 13 8 9 11 20 25 41 10 25 40 21 27 39 10 25 40 11 11 42 21 27 39 24 29 45 23 29 44 22 29 43 22 30 48 23 30 47 25 30 46 25 31 49 23 31 44 24 31 45 28 34 52 27 33 51 26 32 50 27 33 51 29 35 53 26 32 50 27 33 56 28 34 55 30 36 54 28 34 55 31 37 57 30 36 54 28 34 52 26 32 50 32 38 51 26 32 50 33 39 53 32 38 51 35 41 60 30 36 59 34 40 58 30 36 59 31 37 61 34 40 58 37 43 60 34 40 58 36 42 59 34 40 58 31 37 61 36 42 59 37 43 64 36 42 63 33 39 62 36 42 63 32 38 65 33 39 62 35 41 64 29 35 62 30 36 63 29 35 62 27 33 65 30 36 63 40 46 68 39 45 67 38 44 66 39 45 67 41 47 69 38 44 66 44 50 72 43 49 71 42 48 70 43 49 71 40 46 68 42 48 70 32 38 74 36 42 73 28 34 55 36 42 73 31 37 57 28 34 55 46 52 77 42 48 76 45 51 75 42 48 76 47 53 78 45 51 75 45 51 75 47 53 78 48 54 79 47 53 78 49 55 80 48 54 79 39 45 67 40 46 68 50 56 81 40 46 68 43 49 71 50 56 81 48 54 84 49 55 83 51 57 82 49 55 83 52 58 85 51 57 82 51 57 82 52 58 85 53 59 84 52 58 85 54 60 86 53 59 84 55 61 75 53 59 79 44 50 78 53 59 79 54 60 80 44 50 78 51 24 89 46 24 88 48 24 87 46 24 88 45 24 90 48 24 87 55 61 75 44 50 78 46 52 77 44 50 78 42 48 76 46 52 77 51 24 89 53 24 91 46 24 88 53 24 91 55 24 92 46 24 88 47 53 94 38 44 66 49 55 93 38 44 66 41 47 69 49 55 93 49 55 93 41 47 69 52 58 95 41 47 69 39 45 67 52 58 95 42 48 70 40 46 68 47 53 94 40 46 68 38 44 66 47 53 94 52 58 95 39 45 67 54 60 96 39 45 67 50 56 81 54 60 96 54 60 96 50 56 81 44 50 72 50 56 81 43 49 71 44 50 72 58 64 99 57 63 98 56 62 97 61 67 102 60 66 101 59 65 100 61 67 102 59 65 100 57 63 103 59 65 100 56 62 104 57 63 103 63 68 106 62 68 105 57 63 103 62 68 105 61 67 102 57 63 103 59 65 100 60 66 101 56 62 104 60 66 101 58 64 107 56 62 104 58 64 110 64 69 109 57 63 108 64 69 109 63 70 111 57 63 108 60 66 101 61 67 102 65 71 112 61 67 102 62 72 105 65 71 112 65 74 115 64 73 114 60 73 113 64 73 114 58 75 116 60 73 113 63 24 119 64 24 118 62 24 117 64 24 118 65 24 120 62 24 117 68 78 121 67 77 122 66 76 121 67 77 122 69 77 122 66 76 121 71 81 124 70 80 123 68 79 121 70 80 123 67 82 122 68 79 121 71 84 127 72 84 126 70 83 125 72 84 126 73 83 128 70 83 125 72 87 131 66 86 130 73 85 129 66 86 130 69 88 132 73 85 129 76 91 135 75 90 134 74 89 133 75 90 134 77 89 136 74 89 133 66 92 137 72 92 138 68 92 137 72 92 138 71 92 138 68 92 137 70 80 141 76 93 140 67 82 139 76 93 140 74 94 142 67 82 139 76 91 135 70 83 143 75 90 134 70 83 143 73 83 144 75 90 134 73 85 147 69 88 146 75 95 145 69 88 146 77 96 148 75 95 145 74 97 151 77 97 150 67 77 149 77 97 150 69 77 152 67 77 149 80 100 155 79 99 154 78 98 153 83 103 158 82 102 157 81 101 156 82 102 157 80 100 160 81 101 159 80 100 160 78 98 161 81 101 159 85 104 163 84 104 162 82 102 157 84 104 162 80 100 160 82 102 157 78 98 166 79 99 165 81 101 164 79 99 165 83 103 167 81 101 164 79 99 154 80 100 160 86 105 168 80 100 160 84 106 169 86 105 168 83 103 158 87 107 170 82 102 157 87 107 170 85 108 171 82 102 157 86 110 174 87 109 173 79 109 172 87 109 173 83 111 172 79 109 172 85 24 177 87 24 176 84 24 175 87 24 176 86 24 178 84 24 175 90 114 121 89 113 121 88 112 122 89 113 121 91 112 122 88 112 122 93 117 124 90 116 121 92 115 123 90 116 121 88 118 122 92 115 123 95 120 126 93 120 127 94 119 128 93 120 127 92 121 125 94 119 128 95 124 131 94 123 129 89 122 130 94 123 129 91 125 132 89 122 130 98 126 136 97 127 134 96 126 133 97 127 134 99 127 135 96 126 133 90 92 137 93 92 138 89 92 137 93 92 138 95 92 138 89 92 137 92 115 141 88 118 139 99 128 140 88 118 139 96 129 142 99 128 140 99 127 135 97 127 134 92 121 143 97 127 134 94 119 144 92 121 143 94 123 147 97 130 145 91 125 146 97 130 145 98 131 148 91 125 146 96 132 151 88 112 149 98 132 150 88 112 149 91 112 152 98 132 150 102 135 181 101 134 180 100 133 179 105 138 183 104 137 180 103 136 182 107 140 186 106 139 185 105 139 184 106 139 185 108 141 187 105 139 184 111 144 186 110 143 184 109 142 185 110 143 184 112 145 187 109 142 185 111 147 186 109 146 185 107 146 186 109 146 185 106 148 185 107 146 186 105 138 183 108 149 188 104 137 180 108 149 188 113 150 189 104 137 180 115 152 191 114 24 190 103 151 190 114 24 190 111 24 192 103 151 190 100 154 193 113 153 193 102 153 193 113 153 193 112 155 193 102 153 193 112 145 193 110 143 194 102 135 193 110 143 194 114 156 194 102 135 193 102 135 181 114 156 195 101 134 180 114 156 195 115 157 182 101 134 180 101 159 196 115 152 194 104 158 196 115 152 194 103 151 194 104 158 196 113 161 193 100 160 193 104 158 196 100 160 193 101 159 196 104 158 196 108 162 188 106 162 198 112 162 197 106 162 198 109 162 199 112 162 197 111 24 202 107 24 201 103 151 200 107 24 201 105 24 203 103 151 200 118 164 206 117 163 205 116 163 204 117 163 205 119 165 207 116 163 204 116 167 204 119 166 207 120 166 208 119 166 207 121 166 209 120 166 208 123 169 210 120 168 116 122 168 210 120 168 116 121 168 116 122 168 210 118 171 213 123 170 212 117 170 211 123 170 212 122 172 214 117 170 211 126 175 217 125 174 216 124 173 215 129 178 220 128 177 219 127 176 218 132 179 223 131 180 222 130 179 221 131 180 222 133 181 224 130 179 221 136 184 225 135 183 226 134 182 225 135 183 226 137 185 226 134 182 225 128 24 228 126 24 228 127 24 227 126 24 228 124 24 227 127 24 227 129 178 220 131 186 229 128 177 219 131 186 229 137 187 230 128 177 219 124 189 231 125 174 232 127 188 231 125 174 232 129 190 232 127 188 231 125 174 235 133 181 234 129 190 233 133 181 234 131 180 236 129 190 233 130 192 238 133 181 237 136 191 225 133 181 237 135 193 226 136 191 225 132 195 238 134 194 225 131 186 237 134 194 225 137 187 226 131 186 237 126 197 217 128 196 217 135 183 239 128 196 217 137 185 239 135 183 239 125 174 216 126 175 217 133 181 240 126 175 217 135 193 239 133 181 240 140 199 206 139 198 204 138 198 205 139 198 204 141 200 207 138 198 205 139 201 204 142 166 208 141 166 207 142 166 208 143 166 209 141 166 207 143 202 243 142 202 242 144 202 241 142 202 242 145 203 244 144 202 241 140 171 213 138 204 211 145 204 212 138 204 211 144 205 214 145 204 212 148 208 217 147 207 215 146 206 216 151 211 220 150 210 218 149 209 219 154 179 223 153 213 221 152 212 222 153 213 221 155 214 224 152 212 222 158 184 225 157 215 226 156 184 225 157 215 226 159 216 226 156 184 225 149 24 228 150 24 227 148 24 228 150 24 227 147 24 227 148 24 228 151 211 220 149 209 219 152 217 229 149 209 219 157 218 230 152 217 229 147 189 231 150 188 231 146 206 232 150 188 231 151 190 232 146 206 232 146 206 235 151 190 233 155 214 234 151 190 233 152 212 236 155 214 234 153 220 238 156 219 225 155 214 237 156 219 225 159 221 226 155 214 237 154 223 238 152 217 237 158 222 225 152 217 237 157 218 226 158 222 225 148 197 217 159 216 239 149 224 217 159 216 239 157 215 239 149 224 217 146 206 216 155 214 240 148 208 217 155 214 240 159 221 239 148 208 217</p>
				</polylist>
			</mesh>
		</geometry>
	</library_geometries>
	<library_controllers>
		<controller id="ID19">
			<skin source="#ID20">
				<bind_shape_matrix>1 0 0 0 0 1 0 0 0 0 1 0 0 0 0 1</bind_shape_matrix>
				<source id="ID28">
					<Name_array id="ID29" count="11">joint1 joint11 joint9 joint10 joint7 joint8 joint2 joint5 joint6 joint3 joint4</Name_array>
					<technique_common>
						<accessor count="11" source="#ID29">
							<param name="JOINT" type="Name"/>
						</accessor>
					</technique_common>
				</source>
				<source id="ID30">
					<float_array id="ID31" count="2" digits="2490374">0 1</float_array>
					<technique_common>
						<accessor count="2" source="#ID31">
							<param name="WEIGHT" type="float"/>
						</accessor>
					</technique_common>
				</source>
				<source id="ID32">
					<float_array id="ID33" count="176" digits="2490374">1 0 0 -0 0 1 0 0 0 0 1 0 0 0 0 1 1 0 0 0 0 1 0 -15.6 0 0 1 0.35 0 0 0 1 1 0 0 -6.1 0 1 0 -11.6 0 0 1 0.4 0 0 0 1 1 0 0 -9.45 0 1 0 -3.5 0 0 1 0.4 0 0 0 1 1 0 0 6.1 0 1 0 -11.6 0 0 1 0.4 0 0 0 1 1 0 0 9.45 0 1 0 -3.5 0 0 1 0.4 0 0 0 1 1 0 -0 0 5.55112e-17 1 1.73472e-18 0 -8.67362e-19 0 1 0 0 0 0 1 1 0 0 -3.25 0 1 0 7.2 0 0 1 -0.1 0 0 0 1 1 0 0 -3.25 0 1 0 18.5 0 0 1 -3.4 0 0 0 1 1 0 0 3.25 0 1 0 7.2 0 0 1 -0.1 0 0 0 1 1 0 0 3.25 0 1 0 18.5 0 0 1 -3.4 0 0 0 1</float_array>
					<technique_common>
						<accessor count="11" source="#ID33" stride="16">
							<param name="TRANSFORM" type="float4x4"/>
						</accessor>
					</technique_common>
				</source>
				<joints>
					<input semantic="JOINT" source="#ID28"/>
					<input semantic="INV_BIND_MATRIX" source="#ID32"/>
				</joints>
				<vertex_weights count="160">
					<input offset="0" semantic="JOINT" source="#ID28" set="0"/>
					<input offset="1" semantic="WEIGHT" source="#ID30" set="0"/>
					<vcount>1 1 1 1 1 1 1 1 1 1 1 1 1 1 1 1 1 1 1 1 1 1 1 1 1 1 1 1 1 1 1 1 1 1 1 1 1 1 1 1 1 1 1 1 1 1 1 1 1 1 1 1 1 1 1 1 1 1 1 1 1 1 1 1 1 1 1 1 1 1 1 1 1 1 1 1 1 1 1 1 1 1 1 1 1 1 1 1 1 1 1 1 1 1 1 1 1 1 1 1 1 1 1 1 1 1 1 1 1 1 1 1 1 1 1 1 1 1 1 1 1 1 1 1 1 1 1 1 1 1 1 1 1 1 1 1 1 1 1 1 1 1 1 1 1 1 1 1 1 1 1 1 1 1 1 1 1 1 1 1</vcount>
					<v>0 1 0 1 0 1 0 1 0 1 0 1 0 1 0 1 0 1 0 1 0 1 0 1 0 1 0 1 0 1 0 1 0 1 0 1 0 1 0 1 0 1 0 1 1 1 1 1 1 1 1 1 1 1 1 1 1 1 1 1 1 1 1 1 1 1 1 1 1 1 1 1 1 1 1 1 1 1 1 1 1 1 1 1 1 1 1 1 1 1 1 1 1 1 1 1 1 1 1 1 1 1 1 1 1 1 1 1 1 1 1 1 2 1 2 1 2 1 2 1 2 1 2 1 2 1 2 1 2 1 2 1 3 1 3 1 3 1 3 1 3 1 3 1 3 1 3 1 3 1 3 1 3 1 3 1 4 1 4 1 4 1 4 1 4 1 4 1 4 1 4 1 4 1 4 1 5 1 5 1 5 1 5 1 5 1 5 1 5 1 5 1 5 1 5 1 5 1 5 1 6 1 6 1 6 1 6 1 6 1 6 1 6 1 6 1 6 1 6 1 6 1 6 1 6 1 6 1 6 1 6 1 7 1 7 1 7 1 7 1 7 1 7 1 7 1 7 1 8 1 8 1 8 1 8 1 8 1 8 1 8 1 8 1 8 1 8 1 8 1 8 1 8 1 8 1 9 1 9 1 9 1 9 1 9 1 9 1 9 1 9 1 10 1 10 1 10 1 10 1 10 1 10 1 10 1 10 1 10 1 10 1 10 1 10 1 10 1 10 1</v>
				</vertex_weights>
			</skin>
		</controller>
	</library_controllers>
	<library_visual_scenes>
		<visual_scene id="ID5">
			<node id="ID6" name="Mesh">
				<translate sid="translate">0 0 -0</translate>
				<rotate sid="rotateY">0 1 0 -0</rotate>
				<rotate sid="rotateX">1 0 0 0</rotate>
				<rotate sid="rotateZ">0 0 1 -0</rotate>
				<scale sid="scale">1 1 1</scale>
				<instance_controller url="#ID19">
					<skeleton>#ID5</skeleton>
					<bind_material>
						<technique_common>
							<instance_material symbol="Material1" target="#ID1">
								<bind_vertex_input semantic="UVSET0" input_semantic="TEXCOORD" input_set="0"/>
							</instance_material>
						</technique_common>
					</bind_material>
				</instance_controller>
			</node>
			<node id="ID7" name="Armature">
				<translate sid="translate">0 0 -0</translate>
				<rotate sid="rotateY">0 1 0 -0</rotate>
				<rotate sid="rotateX">1 0 0 0</rotate>
				<rotate sid="rotateZ">0 0 1 -0</rotate>
				<scale sid="scale">1 1 1</scale>
				<node id="ID8" name="Bone000" sid="joint1" type="JOINT">
					<translate sid="translate">0 0 -0</translate>
					<rotate sid="rotateY">0 1 0 -0</rotate>
					<rotate sid="rotateX">1 0 0 0</rotate>
					<rotate sid="rotateZ">0 0 1 -0</rotate>
					<scale sid="scale">1 1 1</scale>
					<node id="ID9" name="Bone006" sid="joint2" type="JOINT">
						<translate sid="translate">0 0 -0</translate>
						<rotate sid="rotateY">0 1 0 -0</rotate>
						<rotate sid="rotateX">1 0 0 0</rotate>
						<rotate sid="rotateZ">0 0 1 -0</rotate>
						<scale sid="scale">1 1 1</scale>
						<node id="ID10" name="Bone009" sid="joint3" type="JOINT">
							<translate sid="translate">-3.25 -7.2 0.1</translate>
							<rotate sid="rotateY">0 1 0 -0</rotate>
							<rotate sid="rotateX">1 0 0 0</rotate>
							<rotate sid="rotateZ">0 0 1 -0</rotate>
							<scale sid="scale">1 1 1</scale>
							<node id="ID11" name="Bone010" sid="joint4" type="JOINT">
								<translate sid="translate">0 -11.3 3.3</translate>
								<rotate sid="rotateY">0 1 0 -0</rotate>
								<rotate sid="rotateX">1 0 0 0</rotate>
								<rotate sid="rotateZ">0 0 1 -0</rotate>
								<scale sid="scale">1 1 1</scale>
							</node>
						</node>
						<node id="ID12" name="Bone007" sid="joint5" type="JOINT">
							<translate sid="translate">3.25 -7.2 0.1</translate>
							<rotate sid="rotateY">0 1 0 -0</rotate>
							<rotate sid="rotateX">1 0 0 0</rotate>
							<rotate sid="rotateZ">0 0 1 -0</rotate>
							<scale sid="scale">1 1 1</scale>
							<node id="ID13" name="Bone008" sid="joint6" type="JOINT">
								<translate sid="translate">0 -11.3 3.3</translate>
								<rotate sid="rotateY">0 1 0 -0</rotate>
								<rotate sid="rotateX">1 0 0 0</rotate>
								<rotate sid="rotateZ">0 0 1 -0</rotate>
								<scale sid="scale">1 1 1</scale>
							</node>
						</node>
					</node>
					<node id="ID14" name="Bone004" sid="joint7" type="JOINT">
						<translate sid="translate">-6.1 11.6 -0.4</translate>
						<rotate sid="rotateY">0 1 0 -0</rotate>
						<rotate sid="rotateX">1 0 0 0</rotate>
						<rotate sid="rotateZ">0 0 1 -0</rotate>
						<scale sid="scale">1 1 1</scale>
						<node id="ID15" name="Bone005" sid="joint8" type="JOINT">
							<translate sid="translate">-3.35 -8.1 -0</translate>
							<rotate sid="rotateY">0 1 0 -0</rotate>
							<rotate sid="rotateX">1 0 0 0</rotate>
							<rotate sid="rotateZ">0 0 1 -0</rotate>
							<scale sid="scale">1 1 1</scale>
						</node>
					</node>
					<node id="ID16" name="Bone002" sid="joint9" type="JOINT">
						<translate sid="translate">6.1 11.6 -0.4</translate>
						<rotate sid="rotateY">0 1 0 -0</rotate>
						<rotate sid="rotateX">1 0 0 0</rotate>
						<rotate sid="rotateZ">0 0 1 -0</rotate>
						<scale sid="scale">1 1 1</scale>
						<node id="ID17" name="Bone003" sid="joint10" type="JOINT">
							<translate sid="translate">3.35 -8.1 -0</translate>
							<rotate sid="rotateY">0 1 0 -0</rotate>
							<rotate sid="rotateX">1 0 0 0</rotate>
							<rotate sid="rotateZ">0 0 1 -0</rotate>
							<scale sid="scale">1 1 1</scale>
						</node>
					</node>
					<node id="ID18" name="Bone001" sid="joint11" type="JOINT">
						<translate sid="translate">0 15.6 -0.35</translate>
						<rotate sid="rotateY">0 1 0 -0</rotate>
						<rotate sid="rotateX">1 0 0 0</rotate>
						<rotate sid="rotateZ">0 0 1 -0</rotate>
						<scale sid="scale">1 1 1</scale>
					</node>
				</node>
			</node>
		</visual_scene>
	</library_visual_scenes>
	<scene>
		<instance_visual_scene url="#ID5"/>
	</scene>
</COLLADA>
