mtllib MAP125.mtl
o mesh_0
usemtl mat0
v 25.6 -1.410793112617751e-14 -115.2
v 25.6 -1.2540383223268897e-14 -102.4
v 12.8 -1.410793112617751e-14 -115.2
v 12.8 -1.2540383223268897e-14 -102.4
v 25.6 -1.0972835320360286e-14 -89.60000000000001
v 25.6 -9.405287417451674e-15 -76.80000000000001
v 12.8 -1.0972835320360286e-14 -89.60000000000001
v 12.8 -9.405287417451674e-15 -76.80000000000001
v 25.6 -7.83773951454306e-15 -64
v 25.6 -6.270191611634449e-15 -51.2
v 12.8 -7.83773951454306e-15 -64
v 12.8 -6.270191611634449e-15 -51.2
v 25.6 -4.702643708725837e-15 -38.400000000000006
v 25.6 -3.1350958058172244e-15 -25.6
v 12.8 -4.702643708725837e-15 -38.400000000000006
v 12.8 -3.1350958058172244e-15 -25.6
v 38.400000000000006 -1.2540383223268897e-14 -102.4
v 38.400000000000006 -1.0972835320360286e-14 -89.60000000000001
v 25.6 -1.2540383223268897e-14 -102.4
v 25.6 -1.0972835320360286e-14 -89.60000000000001
v 38.400000000000006 -9.405287417451674e-15 -76.80000000000001
v 38.400000000000006 -7.83773951454306e-15 -64
v 25.6 -9.405287417451674e-15 -76.80000000000001
v 25.6 -7.83773951454306e-15 -64
v 38.400000000000006 -6.270191611634449e-15 -51.2
v 38.400000000000006 -4.702643708725837e-15 -38.400000000000006
v 25.6 -6.270191611634449e-15 -51.2
v 25.6 -4.702643708725837e-15 -38.400000000000006
v 38.400000000000006 -3.1350958058172244e-15 -25.6
v 38.400000000000006 -1.5675479029086122e-15 -12.8
v 25.6 -3.1350958058172244e-15 -25.6
v 25.6 -1.5675479029086122e-15 -12.8
v 51.2 -1.410793112617751e-14 -115.2
v 51.2 -1.2540383223268897e-14 -102.4
v 38.400000000000006 -1.410793112617751e-14 -115.2
v 38.400000000000006 -1.2540383223268897e-14 -102.4
v 51.2 -1.0972835320360286e-14 -89.60000000000001
v 51.2 -9.405287417451674e-15 -76.80000000000001
v 38.400000000000006 -1.0972835320360286e-14 -89.60000000000001
v 38.400000000000006 -9.405287417451674e-15 -76.80000000000001
v 51.2 -7.83773951454306e-15 -64
v 51.2 -6.270191611634449e-15 -51.2
v 38.400000000000006 -7.83773951454306e-15 -64
v 38.400000000000006 -6.270191611634449e-15 -51.2
v 51.2 -4.702643708725837e-15 -38.400000000000006
v 51.2 -3.1350958058172244e-15 -25.6
v 38.400000000000006 -4.702643708725837e-15 -38.400000000000006
v 38.400000000000006 -3.1350958058172244e-15 -25.6
v 64 -1.2540383223268897e-14 -102.4
v 64 -1.0972835320360286e-14 -89.60000000000001
v 51.2 -1.2540383223268897e-14 -102.4
v 51.2 -1.0972835320360286e-14 -89.60000000000001
v 64 -6.270191611634449e-15 -51.2
v 64 -4.702643708725837e-15 -38.400000000000006
v 51.2 -6.270191611634449e-15 -51.2
v 51.2 -4.702643708725837e-15 -38.400000000000006
v 64 -3.1350958058172244e-15 -25.6
v 64 -1.5675479029086122e-15 -12.8
v 51.2 -3.1350958058172244e-15 -25.6
v 51.2 -1.5675479029086122e-15 -12.8
v 76.80000000000001 -1.410793112617751e-14 -115.2
v 76.80000000000001 -1.2540383223268897e-14 -102.4
v 64 -1.410793112617751e-14 -115.2
v 64 -1.2540383223268897e-14 -102.4
v 76.80000000000001 -1.0972835320360286e-14 -89.60000000000001
v 76.80000000000001 -9.405287417451674e-15 -76.80000000000001
v 64 -1.0972835320360286e-14 -89.60000000000001
v 64 -9.405287417451674e-15 -76.80000000000001
v 76.80000000000001 -7.83773951454306e-15 -64
v 76.80000000000001 -6.270191611634449e-15 -51.2
v 64 -7.83773951454306e-15 -64
v 64 -6.270191611634449e-15 -51.2
v 76.80000000000001 -4.702643708725837e-15 -38.400000000000006
v 76.80000000000001 -3.1350958058172244e-15 -25.6
v 64 -4.702643708725837e-15 -38.400000000000006
v 64 -3.1350958058172244e-15 -25.6
v 89.60000000000001 -1.2540383223268897e-14 -102.4
v 89.60000000000001 -1.0972835320360286e-14 -89.60000000000001
v 76.80000000000001 -1.2540383223268897e-14 -102.4
v 76.80000000000001 -1.0972835320360286e-14 -89.60000000000001
v 89.60000000000001 -9.405287417451674e-15 -76.80000000000001
v 89.60000000000001 -7.83773951454306e-15 -64
v 76.80000000000001 -9.405287417451674e-15 -76.80000000000001
v 76.80000000000001 -7.83773951454306e-15 -64
v 89.60000000000001 -6.270191611634449e-15 -51.2
v 89.60000000000001 -4.702643708725837e-15 -38.400000000000006
v 76.80000000000001 -6.270191611634449e-15 -51.2
v 76.80000000000001 -4.702643708725837e-15 -38.400000000000006
v 89.60000000000001 -3.1350958058172244e-15 -25.6
v 89.60000000000001 -1.5675479029086122e-15 -12.8
v 76.80000000000001 -3.1350958058172244e-15 -25.6
v 76.80000000000001 -1.5675479029086122e-15 -12.8
v 102.4 -1.410793112617751e-14 -115.2
v 102.4 -1.2540383223268897e-14 -102.4
v 89.60000000000001 -1.410793112617751e-14 -115.2
v 89.60000000000001 -1.2540383223268897e-14 -102.4
v 102.4 -1.0972835320360286e-14 -89.60000000000001
v 102.4 -9.405287417451674e-15 -76.80000000000001
v 89.60000000000001 -1.0972835320360286e-14 -89.60000000000001
v 89.60000000000001 -9.405287417451674e-15 -76.80000000000001
v 102.4 -7.83773951454306e-15 -64
v 102.4 -6.270191611634449e-15 -51.2
v 89.60000000000001 -7.83773951454306e-15 -64
v 89.60000000000001 -6.270191611634449e-15 -51.2
v 102.4 -4.702643708725837e-15 -38.400000000000006
v 102.4 -3.1350958058172244e-15 -25.6
v 89.60000000000001 -4.702643708725837e-15 -38.400000000000006
v 89.60000000000001 -3.1350958058172244e-15 -25.6
v 115.2 -1.2540383223268897e-14 -102.4
v 115.2 -1.0972835320360286e-14 -89.60000000000001
v 102.4 -1.2540383223268897e-14 -102.4
v 102.4 -1.0972835320360286e-14 -89.60000000000001
v 115.2 -9.405287417451674e-15 -76.80000000000001
v 115.2 -7.83773951454306e-15 -64
v 102.4 -9.405287417451674e-15 -76.80000000000001
v 102.4 -7.83773951454306e-15 -64
v 115.2 -6.270191611634449e-15 -51.2
v 115.2 -4.702643708725837e-15 -38.400000000000006
v 102.4 -6.270191611634449e-15 -51.2
v 102.4 -4.702643708725837e-15 -38.400000000000006
v 115.2 -3.1350958058172244e-15 -25.6
v 115.2 -1.5675479029086122e-15 -12.8
v 102.4 -3.1350958058172244e-15 -25.6
v 102.4 -1.5675479029086122e-15 -12.8
vt 0.625 0.5
vt 0.625 0.625
vt 0.5 0.5
vt 0.5 0.625
vt 0.625 0.75
vt 0.625 0.875
vt 0.5 0.75
vt 0.5 0.875
vt 0.6171875 0.5
vt 0.6171875 0.6171875
vt 0.5 0.5
vt 0.5 0.6171875
vt 0.6171875 0.7421875
vt 0.6171875 0.8671875
vt 0.5 0.7421875
vt 0.5 0.8671875
vt 0.75 0.625
vt 0.75 0.75
vt 0.625 0.625
vt 0.625 0.75
vt 0.75 0.875
vt 0.75 0.9921875
vt 0.625 0.875
vt 0.625 0.9921875
vt 0.7421875 0.6171875
vt 0.7421875 0.7421875
vt 0.6171875 0.6171875
vt 0.6171875 0.7421875
vt 0.7421875 0.8671875
vt 0.7421875 0.9921875
vt 0.6171875 0.8671875
vt 0.6171875 0.9921875
vt 0.875 0.5
vt 0.875 0.625
vt 0.75 0.5
vt 0.75 0.625
vt 0.875 0.75
vt 0.875 0.875
vt 0.75 0.75
vt 0.75 0.875
vt 0.8671875 0.5
vt 0.8671875 0.6171875
vt 0.7421875 0.5
vt 0.7421875 0.6171875
vt 0.8671875 0.7421875
vt 0.8671875 0.8671875
vt 0.7421875 0.7421875
vt 0.7421875 0.8671875
vt 0.9921875 0.625
vt 0.9921875 0.75
vt 0.875 0.625
vt 0.875 0.75
vt 0.9921875 0.6171875
vt 0.9921875 0.7421875
vt 0.8671875 0.6171875
vt 0.8671875 0.7421875
vt 0.9921875 0.8671875
vt 0.9921875 0.9921875
vt 0.8671875 0.8671875
vt 0.8671875 0.9921875
vt 0.625 0.5
vt 0.625 0.625
vt 0.5 0.5
vt 0.5 0.625
vt 0.625 0.75
vt 0.625 0.875
vt 0.5 0.75
vt 0.5 0.875
vt 0.625 0.5
vt 0.625 0.625
vt 0.5 0.5
vt 0.5 0.625
vt 0.625 0.75
vt 0.625 0.875
vt 0.5 0.75
vt 0.5 0.875
vt 0.75 0.625
vt 0.75 0.75
vt 0.625 0.625
vt 0.625 0.75
vt 0.75 0.875
vt 0.75 0.9921875
vt 0.625 0.875
vt 0.625 0.9921875
vt 0.75 0.625
vt 0.75 0.75
vt 0.625 0.625
vt 0.625 0.75
vt 0.75 0.875
vt 0.75 0.9921875
vt 0.625 0.875
vt 0.625 0.9921875
vt 0.875 0.5
vt 0.875 0.625
vt 0.75 0.5
vt 0.75 0.625
vt 0.875 0.75
vt 0.875 0.875
vt 0.75 0.75
vt 0.75 0.875
vt 0.875 0.5
vt 0.875 0.625
vt 0.75 0.5
vt 0.75 0.625
vt 0.875 0.75
vt 0.875 0.875
vt 0.75 0.75
vt 0.75 0.875
vt 0.9921875 0.625
vt 0.9921875 0.75
vt 0.875 0.625
vt 0.875 0.75
vt 0.9921875 0.875
vt 0.9921875 0.9921875
vt 0.875 0.875
vt 0.875 0.9921875
vt 0.9921875 0.625
vt 0.9921875 0.75
vt 0.875 0.625
vt 0.875 0.75
vt 0.9921875 0.875
vt 0.9921875 0.9921875
vt 0.875 0.875
vt 0.875 0.9921875
vn 0 1 -1.2246467991473532e-16
vn 0 1 -1.2246467991473532e-16
vn 0 1 -1.2246467991473532e-16
vn 0 1 -1.2246467991473532e-16
vn 0 1 -1.2246467991473532e-16
vn 0 1 -1.2246467991473532e-16
vn 0 1 -1.2246467991473532e-16
vn 0 1 -1.2246467991473532e-16
vn 0 1 -1.2246467991473532e-16
vn 0 1 -1.2246467991473532e-16
vn 0 1 -1.2246467991473532e-16
vn 0 1 -1.2246467991473532e-16
vn 0 1 -1.2246467991473532e-16
vn 0 1 -1.2246467991473532e-16
vn 0 1 -1.2246467991473532e-16
vn 0 1 -1.2246467991473532e-16
vn 0 1 -1.2246467991473532e-16
vn 0 1 -1.2246467991473532e-16
vn 0 1 -1.2246467991473532e-16
vn 0 1 -1.2246467991473532e-16
vn 0 1 -1.2246467991473532e-16
vn 0 1 -1.2246467991473532e-16
vn 0 1 -1.2246467991473532e-16
vn 0 1 -1.2246467991473532e-16
vn 0 1 -1.2246467991473532e-16
vn 0 1 -1.2246467991473532e-16
vn 0 1 -1.2246467991473532e-16
vn 0 1 -1.2246467991473532e-16
vn 0 1 -1.2246467991473532e-16
vn 0 1 -1.2246467991473532e-16
vn 0 1 -1.2246467991473532e-16
vn 0 1 -1.2246467991473532e-16
vn 0 1 -1.2246467991473532e-16
vn 0 1 -1.2246467991473532e-16
vn 0 1 -1.2246467991473532e-16
vn 0 1 -1.2246467991473532e-16
vn 0 1 -1.2246467991473532e-16
vn 0 1 -1.2246467991473532e-16
vn 0 1 -1.2246467991473532e-16
vn 0 1 -1.2246467991473532e-16
vn 0 1 -1.2246467991473532e-16
vn 0 1 -1.2246467991473532e-16
vn 0 1 -1.2246467991473532e-16
vn 0 1 -1.2246467991473532e-16
vn 0 1 -1.2246467991473532e-16
vn 0 1 -1.2246467991473532e-16
vn 0 1 -1.2246467991473532e-16
vn 0 1 -1.2246467991473532e-16
vn 0 1 -1.2246467991473532e-16
vn 0 1 -1.2246467991473532e-16
vn 0 1 -1.2246467991473532e-16
vn 0 1 -1.2246467991473532e-16
vn 0 1 -1.2246467991473532e-16
vn 0 1 -1.2246467991473532e-16
vn 0 1 -1.2246467991473532e-16
vn 0 1 -1.2246467991473532e-16
vn 0 1 -1.2246467991473532e-16
vn 0 1 -1.2246467991473532e-16
vn 0 1 -1.2246467991473532e-16
vn 0 1 -1.2246467991473532e-16
vn 0 1 -1.2246467991473532e-16
vn 0 1 -1.2246467991473532e-16
vn 0 1 -1.2246467991473532e-16
vn 0 1 -1.2246467991473532e-16
vn 0 1 -1.2246467991473532e-16
vn 0 1 -1.2246467991473532e-16
vn 0 1 -1.2246467991473532e-16
vn 0 1 -1.2246467991473532e-16
vn 0 1 -1.2246467991473532e-16
vn 0 1 -1.2246467991473532e-16
vn 0 1 -1.2246467991473532e-16
vn 0 1 -1.2246467991473532e-16
vn 0 1 -1.2246467991473532e-16
vn 0 1 -1.2246467991473532e-16
vn 0 1 -1.2246467991473532e-16
vn 0 1 -1.2246467991473532e-16
vn 0 1 -1.2246467991473532e-16
vn 0 1 -1.2246467991473532e-16
vn 0 1 -1.2246467991473532e-16
vn 0 1 -1.2246467991473532e-16
vn 0 1 -1.2246467991473532e-16
vn 0 1 -1.2246467991473532e-16
vn 0 1 -1.2246467991473532e-16
vn 0 1 -1.2246467991473532e-16
vn 0 1 -1.2246467991473532e-16
vn 0 1 -1.2246467991473532e-16
vn 0 1 -1.2246467991473532e-16
vn 0 1 -1.2246467991473532e-16
vn 0 1 -1.2246467991473532e-16
vn 0 1 -1.2246467991473532e-16
vn 0 1 -1.2246467991473532e-16
vn 0 1 -1.2246467991473532e-16
vn 0 1 -1.2246467991473532e-16
vn 0 1 -1.2246467991473532e-16
vn 0 1 -1.2246467991473532e-16
vn 0 1 -1.2246467991473532e-16
vn 0 1 -1.2246467991473532e-16
vn 0 1 -1.2246467991473532e-16
vn 0 1 -1.2246467991473532e-16
vn 0 1 -1.2246467991473532e-16
vn 0 1 -1.2246467991473532e-16
vn 0 1 -1.2246467991473532e-16
vn 0 1 -1.2246467991473532e-16
vn 0 1 -1.2246467991473532e-16
vn 0 1 -1.2246467991473532e-16
vn 0 1 -1.2246467991473532e-16
vn 0 1 -1.2246467991473532e-16
vn 0 1 -1.2246467991473532e-16
vn 0 1 -1.2246467991473532e-16
vn 0 1 -1.2246467991473532e-16
vn 0 1 -1.2246467991473532e-16
vn 0 1 -1.2246467991473532e-16
vn 0 1 -1.2246467991473532e-16
vn 0 1 -1.2246467991473532e-16
vn 0 1 -1.2246467991473532e-16
vn 0 1 -1.2246467991473532e-16
vn 0 1 -1.2246467991473532e-16
vn 0 1 -1.2246467991473532e-16
vn 0 1 -1.2246467991473532e-16
vn 0 1 -1.2246467991473532e-16
vn 0 1 -1.2246467991473532e-16
vn 0 1 -1.2246467991473532e-16
vn 0 1 -1.2246467991473532e-16
vn 0 1 -1.2246467991473532e-16
f 3/3/3 2/2/2 1/1/1
f 2/2/2 3/3/3 4/4/4
f 7/7/7 6/6/6 5/5/5
f 6/6/6 7/7/7 8/8/8
f 11/11/11 10/10/10 9/9/9
f 10/10/10 11/11/11 12/12/12
f 15/15/15 14/14/14 13/13/13
f 14/14/14 15/15/15 16/16/16
f 19/19/19 18/18/18 17/17/17
f 18/18/18 19/19/19 20/20/20
f 23/23/23 22/22/22 21/21/21
f 22/22/22 23/23/23 24/24/24
f 27/27/27 26/26/26 25/25/25
f 26/26/26 27/27/27 28/28/28
f 31/31/31 30/30/30 29/29/29
f 30/30/30 31/31/31 32/32/32
f 35/35/35 34/34/34 33/33/33
f 34/34/34 35/35/35 36/36/36
f 39/39/39 38/38/38 37/37/37
f 38/38/38 39/39/39 40/40/40
f 43/43/43 42/42/42 41/41/41
f 42/42/42 43/43/43 44/44/44
f 47/47/47 46/46/46 45/45/45
f 46/46/46 47/47/47 48/48/48
f 51/51/51 50/50/50 49/49/49
f 50/50/50 51/51/51 52/52/52
f 55/55/55 54/54/54 53/53/53
f 54/54/54 55/55/55 56/56/56
f 59/59/59 58/58/58 57/57/57
f 58/58/58 59/59/59 60/60/60
f 63/63/63 62/62/62 61/61/61
f 62/62/62 63/63/63 64/64/64
f 67/67/67 66/66/66 65/65/65
f 66/66/66 67/67/67 68/68/68
f 71/71/71 70/70/70 69/69/69
f 70/70/70 71/71/71 72/72/72
f 75/75/75 74/74/74 73/73/73
f 74/74/74 75/75/75 76/76/76
f 79/79/79 78/78/78 77/77/77
f 78/78/78 79/79/79 80/80/80
f 83/83/83 82/82/82 81/81/81
f 82/82/82 83/83/83 84/84/84
f 87/87/87 86/86/86 85/85/85
f 86/86/86 87/87/87 88/88/88
f 91/91/91 90/90/90 89/89/89
f 90/90/90 91/91/91 92/92/92
f 95/95/95 94/94/94 93/93/93
f 94/94/94 95/95/95 96/96/96
f 99/99/99 98/98/98 97/97/97
f 98/98/98 99/99/99 100/100/100
f 103/103/103 102/102/102 101/101/101
f 102/102/102 103/103/103 104/104/104
f 107/107/107 106/106/106 105/105/105
f 106/106/106 107/107/107 108/108/108
f 111/111/111 110/110/110 109/109/109
f 110/110/110 111/111/111 112/112/112
f 115/115/115 114/114/114 113/113/113
f 114/114/114 115/115/115 116/116/116
f 119/119/119 118/118/118 117/117/117
f 118/118/118 119/119/119 120/120/120
f 123/123/123 122/122/122 121/121/121
f 122/122/122 123/123/123 124/124/124
o mesh_1
usemtl mat1
v 25.6 -1.2540383223268897e-14 -102.4
v 25.6 -1.0972835320360286e-14 -89.60000000000001
v 12.8 -1.2540383223268897e-14 -102.4
v 12.8 -1.0972835320360286e-14 -89.60000000000001
v 25.6 -9.405287417451674e-15 -76.80000000000001
v 25.6 -7.83773951454306e-15 -64
v 12.8 -9.405287417451674e-15 -76.80000000000001
v 12.8 -7.83773951454306e-15 -64
v 25.6 -6.270191611634449e-15 -51.2
v 25.6 -4.702643708725837e-15 -38.400000000000006
v 12.8 -6.270191611634449e-15 -51.2
v 12.8 -4.702643708725837e-15 -38.400000000000006
v 25.6 -3.1350958058172244e-15 -25.6
v 25.6 -1.5675479029086122e-15 -12.8
v 12.8 -3.1350958058172244e-15 -25.6
v 12.8 -1.5675479029086122e-15 -12.8
v 38.400000000000006 -1.410793112617751e-14 -115.2
v 38.400000000000006 -1.2540383223268897e-14 -102.4
v 25.6 -1.410793112617751e-14 -115.2
v 25.6 -1.2540383223268897e-14 -102.4
v 38.400000000000006 -1.0972835320360286e-14 -89.60000000000001
v 38.400000000000006 -9.405287417451674e-15 -76.80000000000001
v 25.6 -1.0972835320360286e-14 -89.60000000000001
v 25.6 -9.405287417451674e-15 -76.80000000000001
v 38.400000000000006 -7.83773951454306e-15 -64
v 38.400000000000006 -6.270191611634449e-15 -51.2
v 25.6 -7.83773951454306e-15 -64
v 25.6 -6.270191611634449e-15 -51.2
v 38.400000000000006 -4.702643708725837e-15 -38.400000000000006
v 38.400000000000006 -3.1350958058172244e-15 -25.6
v 25.6 -4.702643708725837e-15 -38.400000000000006
v 25.6 -3.1350958058172244e-15 -25.6
v 51.2 -1.2540383223268897e-14 -102.4
v 51.2 -1.0972835320360286e-14 -89.60000000000001
v 38.400000000000006 -1.2540383223268897e-14 -102.4
v 38.400000000000006 -1.0972835320360286e-14 -89.60000000000001
v 51.2 -9.405287417451674e-15 -76.80000000000001
v 51.2 -7.83773951454306e-15 -64
v 38.400000000000006 -9.405287417451674e-15 -76.80000000000001
v 38.400000000000006 -7.83773951454306e-15 -64
v 51.2 -6.270191611634449e-15 -51.2
v 51.2 -4.702643708725837e-15 -38.400000000000006
v 38.400000000000006 -6.270191611634449e-15 -51.2
v 38.400000000000006 -4.702643708725837e-15 -38.400000000000006
v 51.2 -3.1350958058172244e-15 -25.6
v 51.2 -1.5675479029086122e-15 -12.8
v 38.400000000000006 -3.1350958058172244e-15 -25.6
v 38.400000000000006 -1.5675479029086122e-15 -12.8
v 64 -1.410793112617751e-14 -115.2
v 64 -1.2540383223268897e-14 -102.4
v 51.2 -1.410793112617751e-14 -115.2
v 51.2 -1.2540383223268897e-14 -102.4
v 64 -1.0972835320360286e-14 -89.60000000000001
v 64 -9.405287417451674e-15 -76.80000000000001
v 51.2 -1.0972835320360286e-14 -89.60000000000001
v 51.2 -9.405287417451674e-15 -76.80000000000001
v 64 -7.83773951454306e-15 -64
v 64 -6.270191611634449e-15 -51.2
v 51.2 -7.83773951454306e-15 -64
v 51.2 -6.270191611634449e-15 -51.2
v 64 -4.702643708725837e-15 -38.400000000000006
v 64 -3.1350958058172244e-15 -25.6
v 51.2 -4.702643708725837e-15 -38.400000000000006
v 51.2 -3.1350958058172244e-15 -25.6
v 76.80000000000001 -1.2540383223268897e-14 -102.4
v 76.80000000000001 -1.0972835320360286e-14 -89.60000000000001
v 64 -1.2540383223268897e-14 -102.4
v 64 -1.0972835320360286e-14 -89.60000000000001
v 76.80000000000001 -9.405287417451674e-15 -76.80000000000001
v 76.80000000000001 -7.83773951454306e-15 -64
v 64 -9.405287417451674e-15 -76.80000000000001
v 64 -7.83773951454306e-15 -64
v 76.80000000000001 -6.270191611634449e-15 -51.2
v 76.80000000000001 -4.702643708725837e-15 -38.400000000000006
v 64 -6.270191611634449e-15 -51.2
v 64 -4.702643708725837e-15 -38.400000000000006
v 76.80000000000001 -3.1350958058172244e-15 -25.6
v 76.80000000000001 -1.5675479029086122e-15 -12.8
v 64 -3.1350958058172244e-15 -25.6
v 64 -1.5675479029086122e-15 -12.8
v 89.60000000000001 -1.410793112617751e-14 -115.2
v 89.60000000000001 -1.2540383223268897e-14 -102.4
v 76.80000000000001 -1.410793112617751e-14 -115.2
v 76.80000000000001 -1.2540383223268897e-14 -102.4
v 89.60000000000001 -1.0972835320360286e-14 -89.60000000000001
v 89.60000000000001 -9.405287417451674e-15 -76.80000000000001
v 76.80000000000001 -1.0972835320360286e-14 -89.60000000000001
v 76.80000000000001 -9.405287417451674e-15 -76.80000000000001
v 89.60000000000001 -7.83773951454306e-15 -64
v 89.60000000000001 -6.270191611634449e-15 -51.2
v 76.80000000000001 -7.83773951454306e-15 -64
v 76.80000000000001 -6.270191611634449e-15 -51.2
v 89.60000000000001 -4.702643708725837e-15 -38.400000000000006
v 89.60000000000001 -3.1350958058172244e-15 -25.6
v 76.80000000000001 -4.702643708725837e-15 -38.400000000000006
v 76.80000000000001 -3.1350958058172244e-15 -25.6
v 102.4 -1.2540383223268897e-14 -102.4
v 102.4 -1.0972835320360286e-14 -89.60000000000001
v 89.60000000000001 -1.2540383223268897e-14 -102.4
v 89.60000000000001 -1.0972835320360286e-14 -89.60000000000001
v 102.4 -9.405287417451674e-15 -76.80000000000001
v 102.4 -7.83773951454306e-15 -64
v 89.60000000000001 -9.405287417451674e-15 -76.80000000000001
v 89.60000000000001 -7.83773951454306e-15 -64
v 102.4 -6.270191611634449e-15 -51.2
v 102.4 -4.702643708725837e-15 -38.400000000000006
v 89.60000000000001 -6.270191611634449e-15 -51.2
v 89.60000000000001 -4.702643708725837e-15 -38.400000000000006
v 102.4 -3.1350958058172244e-15 -25.6
v 102.4 -1.5675479029086122e-15 -12.8
v 89.60000000000001 -3.1350958058172244e-15 -25.6
v 89.60000000000001 -1.5675479029086122e-15 -12.8
v 115.2 -1.410793112617751e-14 -115.2
v 115.2 -1.2540383223268897e-14 -102.4
v 102.4 -1.410793112617751e-14 -115.2
v 102.4 -1.2540383223268897e-14 -102.4
v 115.2 -1.0972835320360286e-14 -89.60000000000001
v 115.2 -9.405287417451674e-15 -76.80000000000001
v 102.4 -1.0972835320360286e-14 -89.60000000000001
v 102.4 -9.405287417451674e-15 -76.80000000000001
v 115.2 -7.83773951454306e-15 -64
v 115.2 -6.270191611634449e-15 -51.2
v 102.4 -7.83773951454306e-15 -64
v 102.4 -6.270191611634449e-15 -51.2
v 115.2 -4.702643708725837e-15 -38.400000000000006
v 115.2 -3.1350958058172244e-15 -25.6
v 102.4 -4.702643708725837e-15 -38.400000000000006
v 102.4 -3.1350958058172244e-15 -25.6
vt 0.375 0.5
vt 0.4921875 0.5
vt 0.375 0.609375
vt 0.4921875 0.609375
vt 0.375 0.5
vt 0.4921875 0.5
vt 0.375 0.609375
vt 0.4921875 0.609375
vt 0.375 0.5
vt 0.4921875 0.5
vt 0.375 0.609375
vt 0.4921875 0.609375
vt 0.375 0.5
vt 0.4921875 0.5
vt 0.375 0.609375
vt 0.4921875 0.609375
vt 0.375 0.5
vt 0.4921875 0.5
vt 0.375 0.609375
vt 0.4921875 0.609375
vt 0.375 0.5
vt 0.4921875 0.5
vt 0.375 0.609375
vt 0.4921875 0.609375
vt 0.375 0.5
vt 0.4921875 0.5
vt 0.375 0.609375
vt 0.4921875 0.609375
vt 0.375 0.5
vt 0.4921875 0.5
vt 0.375 0.609375
vt 0.4921875 0.609375
vt 0.375 0.5
vt 0.4921875 0.5
vt 0.375 0.609375
vt 0.4921875 0.609375
vt 0.375 0.5
vt 0.4921875 0.5
vt 0.375 0.609375
vt 0.4921875 0.609375
vt 0.375 0.5
vt 0.4921875 0.5
vt 0.375 0.609375
vt 0.4921875 0.609375
vt 0.375 0.5
vt 0.4921875 0.5
vt 0.375 0.609375
vt 0.4921875 0.609375
vt 0.375 0.5
vt 0.4921875 0.5
vt 0.375 0.609375
vt 0.4921875 0.609375
vt 0.375 0.5
vt 0.4921875 0.5
vt 0.375 0.609375
vt 0.4921875 0.609375
vt 0.375 0.5
vt 0.4921875 0.5
vt 0.375 0.609375
vt 0.4921875 0.609375
vt 0.375 0.5
vt 0.4921875 0.5
vt 0.375 0.609375
vt 0.4921875 0.609375
vt 0.375 0.5
vt 0.4921875 0.5
vt 0.375 0.609375
vt 0.4921875 0.609375
vt 0.375 0.5
vt 0.4921875 0.5
vt 0.375 0.609375
vt 0.4921875 0.609375
vt 0.375 0.5
vt 0.4921875 0.5
vt 0.375 0.609375
vt 0.4921875 0.609375
vt 0.375 0.5
vt 0.4921875 0.5
vt 0.375 0.609375
vt 0.4921875 0.609375
vt 0.375 0.5
vt 0.4921875 0.5
vt 0.375 0.609375
vt 0.4921875 0.609375
vt 0.375 0.5
vt 0.4921875 0.5
vt 0.375 0.609375
vt 0.4921875 0.609375
vt 0.375 0.5
vt 0.4921875 0.5
vt 0.375 0.609375
vt 0.4921875 0.609375
vt 0.375 0.5
vt 0.4921875 0.5
vt 0.375 0.609375
vt 0.4921875 0.609375
vt 0.375 0.5
vt 0.4921875 0.5
vt 0.375 0.609375
vt 0.4921875 0.609375
vt 0.375 0.5
vt 0.4921875 0.5
vt 0.375 0.609375
vt 0.4921875 0.609375
vt 0.375 0.5
vt 0.4921875 0.5
vt 0.375 0.609375
vt 0.4921875 0.609375
vt 0.375 0.5
vt 0.4921875 0.5
vt 0.375 0.609375
vt 0.4921875 0.609375
vt 0.375 0.5
vt 0.4921875 0.5
vt 0.375 0.609375
vt 0.4921875 0.609375
vt 0.375 0.5
vt 0.4921875 0.5
vt 0.375 0.609375
vt 0.4921875 0.609375
vt 0.375 0.5
vt 0.4921875 0.5
vt 0.375 0.609375
vt 0.4921875 0.609375
vt 0.375 0.5
vt 0.4921875 0.5
vt 0.375 0.609375
vt 0.4921875 0.609375
vn 0 1 -1.2246467991473532e-16
vn 0 1 -1.2246467991473532e-16
vn 0 1 -1.2246467991473532e-16
vn 0 1 -1.2246467991473532e-16
vn 0 1 -1.2246467991473532e-16
vn 0 1 -1.2246467991473532e-16
vn 0 1 -1.2246467991473532e-16
vn 0 1 -1.2246467991473532e-16
vn 0 1 -1.2246467991473532e-16
vn 0 1 -1.2246467991473532e-16
vn 0 1 -1.2246467991473532e-16
vn 0 1 -1.2246467991473532e-16
vn 0 1 -1.2246467991473532e-16
vn 0 1 -1.2246467991473532e-16
vn 0 1 -1.2246467991473532e-16
vn 0 1 -1.2246467991473532e-16
vn 0 1 -1.2246467991473532e-16
vn 0 1 -1.2246467991473532e-16
vn 0 1 -1.2246467991473532e-16
vn 0 1 -1.2246467991473532e-16
vn 0 1 -1.2246467991473532e-16
vn 0 1 -1.2246467991473532e-16
vn 0 1 -1.2246467991473532e-16
vn 0 1 -1.2246467991473532e-16
vn 0 1 -1.2246467991473532e-16
vn 0 1 -1.2246467991473532e-16
vn 0 1 -1.2246467991473532e-16
vn 0 1 -1.2246467991473532e-16
vn 0 1 -1.2246467991473532e-16
vn 0 1 -1.2246467991473532e-16
vn 0 1 -1.2246467991473532e-16
vn 0 1 -1.2246467991473532e-16
vn 0 1 -1.2246467991473532e-16
vn 0 1 -1.2246467991473532e-16
vn 0 1 -1.2246467991473532e-16
vn 0 1 -1.2246467991473532e-16
vn 0 1 -1.2246467991473532e-16
vn 0 1 -1.2246467991473532e-16
vn 0 1 -1.2246467991473532e-16
vn 0 1 -1.2246467991473532e-16
vn 0 1 -1.2246467991473532e-16
vn 0 1 -1.2246467991473532e-16
vn 0 1 -1.2246467991473532e-16
vn 0 1 -1.2246467991473532e-16
vn 0 1 -1.2246467991473532e-16
vn 0 1 -1.2246467991473532e-16
vn 0 1 -1.2246467991473532e-16
vn 0 1 -1.2246467991473532e-16
vn 0 1 -1.2246467991473532e-16
vn 0 1 -1.2246467991473532e-16
vn 0 1 -1.2246467991473532e-16
vn 0 1 -1.2246467991473532e-16
vn 0 1 -1.2246467991473532e-16
vn 0 1 -1.2246467991473532e-16
vn 0 1 -1.2246467991473532e-16
vn 0 1 -1.2246467991473532e-16
vn 0 1 -1.2246467991473532e-16
vn 0 1 -1.2246467991473532e-16
vn 0 1 -1.2246467991473532e-16
vn 0 1 -1.2246467991473532e-16
vn 0 1 -1.2246467991473532e-16
vn 0 1 -1.2246467991473532e-16
vn 0 1 -1.2246467991473532e-16
vn 0 1 -1.2246467991473532e-16
vn 0 1 -1.2246467991473532e-16
vn 0 1 -1.2246467991473532e-16
vn 0 1 -1.2246467991473532e-16
vn 0 1 -1.2246467991473532e-16
vn 0 1 -1.2246467991473532e-16
vn 0 1 -1.2246467991473532e-16
vn 0 1 -1.2246467991473532e-16
vn 0 1 -1.2246467991473532e-16
vn 0 1 -1.2246467991473532e-16
vn 0 1 -1.2246467991473532e-16
vn 0 1 -1.2246467991473532e-16
vn 0 1 -1.2246467991473532e-16
vn 0 1 -1.2246467991473532e-16
vn 0 1 -1.2246467991473532e-16
vn 0 1 -1.2246467991473532e-16
vn 0 1 -1.2246467991473532e-16
vn 0 1 -1.2246467991473532e-16
vn 0 1 -1.2246467991473532e-16
vn 0 1 -1.2246467991473532e-16
vn 0 1 -1.2246467991473532e-16
vn 0 1 -1.2246467991473532e-16
vn 0 1 -1.2246467991473532e-16
vn 0 1 -1.2246467991473532e-16
vn 0 1 -1.2246467991473532e-16
vn 0 1 -1.2246467991473532e-16
vn 0 1 -1.2246467991473532e-16
vn 0 1 -1.2246467991473532e-16
vn 0 1 -1.2246467991473532e-16
vn 0 1 -1.2246467991473532e-16
vn 0 1 -1.2246467991473532e-16
vn 0 1 -1.2246467991473532e-16
vn 0 1 -1.2246467991473532e-16
vn 0 1 -1.2246467991473532e-16
vn 0 1 -1.2246467991473532e-16
vn 0 1 -1.2246467991473532e-16
vn 0 1 -1.2246467991473532e-16
vn 0 1 -1.2246467991473532e-16
vn 0 1 -1.2246467991473532e-16
vn 0 1 -1.2246467991473532e-16
vn 0 1 -1.2246467991473532e-16
vn 0 1 -1.2246467991473532e-16
vn 0 1 -1.2246467991473532e-16
vn 0 1 -1.2246467991473532e-16
vn 0 1 -1.2246467991473532e-16
vn 0 1 -1.2246467991473532e-16
vn 0 1 -1.2246467991473532e-16
vn 0 1 -1.2246467991473532e-16
vn 0 1 -1.2246467991473532e-16
vn 0 1 -1.2246467991473532e-16
vn 0 1 -1.2246467991473532e-16
vn 0 1 -1.2246467991473532e-16
vn 0 1 -1.2246467991473532e-16
vn 0 1 -1.2246467991473532e-16
vn 0 1 -1.2246467991473532e-16
vn 0 1 -1.2246467991473532e-16
vn 0 1 -1.2246467991473532e-16
vn 0 1 -1.2246467991473532e-16
vn 0 1 -1.2246467991473532e-16
vn 0 1 -1.2246467991473532e-16
vn 0 1 -1.2246467991473532e-16
vn 0 1 -1.2246467991473532e-16
vn 0 1 -1.2246467991473532e-16
vn 0 1 -1.2246467991473532e-16
vn 0 1 -1.2246467991473532e-16
f 127/127/127 126/126/126 125/125/125
f 126/126/126 127/127/127 128/128/128
f 131/131/131 130/130/130 129/129/129
f 130/130/130 131/131/131 132/132/132
f 135/135/135 134/134/134 133/133/133
f 134/134/134 135/135/135 136/136/136
f 139/139/139 138/138/138 137/137/137
f 138/138/138 139/139/139 140/140/140
f 143/143/143 142/142/142 141/141/141
f 142/142/142 143/143/143 144/144/144
f 147/147/147 146/146/146 145/145/145
f 146/146/146 147/147/147 148/148/148
f 151/151/151 150/150/150 149/149/149
f 150/150/150 151/151/151 152/152/152
f 155/155/155 154/154/154 153/153/153
f 154/154/154 155/155/155 156/156/156
f 159/159/159 158/158/158 157/157/157
f 158/158/158 159/159/159 160/160/160
f 163/163/163 162/162/162 161/161/161
f 162/162/162 163/163/163 164/164/164
f 167/167/167 166/166/166 165/165/165
f 166/166/166 167/167/167 168/168/168
f 171/171/171 170/170/170 169/169/169
f 170/170/170 171/171/171 172/172/172
f 175/175/175 174/174/174 173/173/173
f 174/174/174 175/175/175 176/176/176
f 179/179/179 178/178/178 177/177/177
f 178/178/178 179/179/179 180/180/180
f 183/183/183 182/182/182 181/181/181
f 182/182/182 183/183/183 184/184/184
f 187/187/187 186/186/186 185/185/185
f 186/186/186 187/187/187 188/188/188
f 191/191/191 190/190/190 189/189/189
f 190/190/190 191/191/191 192/192/192
f 195/195/195 194/194/194 193/193/193
f 194/194/194 195/195/195 196/196/196
f 199/199/199 198/198/198 197/197/197
f 198/198/198 199/199/199 200/200/200
f 203/203/203 202/202/202 201/201/201
f 202/202/202 203/203/203 204/204/204
f 207/207/207 206/206/206 205/205/205
f 206/206/206 207/207/207 208/208/208
f 211/211/211 210/210/210 209/209/209
f 210/210/210 211/211/211 212/212/212
f 215/215/215 214/214/214 213/213/213
f 214/214/214 215/215/215 216/216/216
f 219/219/219 218/218/218 217/217/217
f 218/218/218 219/219/219 220/220/220
f 223/223/223 222/222/222 221/221/221
f 222/222/222 223/223/223 224/224/224
f 227/227/227 226/226/226 225/225/225
f 226/226/226 227/227/227 228/228/228
f 231/231/231 230/230/230 229/229/229
f 230/230/230 231/231/231 232/232/232
f 235/235/235 234/234/234 233/233/233
f 234/234/234 235/235/235 236/236/236
f 239/239/239 238/238/238 237/237/237
f 238/238/238 239/239/239 240/240/240
f 243/243/243 242/242/242 241/241/241
f 242/242/242 243/243/243 244/244/244
f 247/247/247 246/246/246 245/245/245
f 246/246/246 247/247/247 248/248/248
f 251/251/251 250/250/250 249/249/249
f 250/250/250 251/251/251 252/252/252
o mesh_2
usemtl mat2
v 64 12.799999999999992 -76.80000000000001
v 64 12.799999999999994 -64
v 51.2 12.799999999999992 -76.80000000000001
v 51.2 12.799999999999994 -64
v 51.2 12.799999999999992 -76.80000000000001
v 51.2 12.799999999999994 -64
v 51.2 -9.405287417451674e-15 -76.80000000000001
v 51.2 -7.83773951454306e-15 -64
v 64 12.799999999999992 -76.80000000000001
v 51.2 12.799999999999992 -76.80000000000001
v 64 -9.405287417451674e-15 -76.80000000000001
v 51.2 -9.405287417451674e-15 -76.80000000000001
v 51.2 12.799999999999994 -64
v 64 12.799999999999994 -64
v 51.2 -7.83773951454306e-15 -64
v 64 -7.83773951454306e-15 -64
v 64 12.799999999999994 -64
v 64 12.799999999999992 -76.80000000000001
v 64 -7.83773951454306e-15 -64
v 64 -9.405287417451674e-15 -76.80000000000001
vt 0.125 0.7421875
vt 0.125 0.625
vt 0.2421875 0.7421875
vt 0.2421875 0.625
vt 0.125 0.625
vt 0.2421875 0.625
vt 0.125 0.7421875
vt 0.2421875 0.7421875
vt 0 0.625
vt 0.125 0.625
vt 0 0.7421875
vt 0.125 0.7421875
vt 0 0.625
vt 0.125 0.625
vt 0 0.7421875
vt 0.125 0.7421875
vt 0.125 0.625
vt 0.2421875 0.625
vt 0.125 0.7421875
vt 0.2421875 0.7421875
vn 0 1 -1.2246467991473532e-16
vn 0 1 -1.2246467991473532e-16
vn 0 1 -1.2246467991473532e-16
vn 0 1 -1.2246467991473532e-16
vn -1 0 0
vn -1 0 0
vn -1 0 0
vn -1 0 0
vn 0 -1.2246467991473532e-16 -1
vn 0 -1.2246467991473532e-16 -1
vn 0 -1.2246467991473532e-16 -1
vn 0 -1.2246467991473532e-16 -1
vn 0 1.2246467991473532e-16 1
vn 0 1.2246467991473532e-16 1
vn 0 1.2246467991473532e-16 1
vn 0 1.2246467991473532e-16 1
vn 1 0 0
vn 1 0 0
vn 1 0 0
vn 1 0 0
f 255/255/255 254/254/254 253/253/253
f 254/254/254 255/255/255 256/256/256
f 259/259/259 258/258/258 257/257/257
f 258/258/258 259/259/259 260/260/260
f 263/263/263 262/262/262 261/261/261
f 262/262/262 263/263/263 264/264/264
f 267/267/267 266/266/266 265/265/265
f 266/266/266 267/267/267 268/268/268
f 271/271/271 270/270/270 269/269/269
f 270/270/270 271/271/271 272/272/272
o mesh_3
usemtl mat3
v 102.4 51.2 -12.800000000000008
v 115.2 51.2 -12.800000000000008
v 102.4 64 -12.800000000000008
v 115.2 64 -12.800000000000008
v 115.2 51.2 -12.800000000000008
v 115.2 51.2 -25.60000000000001
v 115.2 64 -12.800000000000008
v 115.2 64 -25.60000000000001
v 115.2 51.2 -25.60000000000001
v 115.2 51.199999999999996 -38.40000000000001
v 115.2 64 -25.60000000000001
v 115.2 63.99999999999999 -38.40000000000001
v 115.2 51.199999999999996 -38.40000000000001
v 115.2 51.199999999999996 -51.20000000000001
v 115.2 63.99999999999999 -38.40000000000001
v 115.2 63.99999999999999 -51.20000000000001
v 115.2 51.199999999999996 -51.20000000000001
v 115.2 51.199999999999996 -64
v 115.2 63.99999999999999 -51.20000000000001
v 115.2 63.99999999999999 -64.00000000000001
v 115.2 51.199999999999996 -64
v 115.2 51.199999999999996 -76.80000000000001
v 115.2 63.99999999999999 -64.00000000000001
v 115.2 63.99999999999999 -76.80000000000003
v 115.2 51.199999999999996 -76.80000000000001
v 115.2 51.19999999999999 -89.60000000000001
v 115.2 63.99999999999999 -76.80000000000003
v 115.2 63.999999999999986 -89.60000000000002
v 115.2 51.19999999999999 -89.60000000000001
v 115.2 51.19999999999999 -102.4
v 115.2 63.999999999999986 -89.60000000000002
v 115.2 63.999999999999986 -102.40000000000002
v 115.2 51.19999999999999 -115.2
v 102.4 51.19999999999999 -115.2
v 115.2 63.999999999999986 -115.20000000000002
v 102.4 63.999999999999986 -115.20000000000002
v 115.2 51.19999999999999 -102.4
v 115.2 51.19999999999999 -115.2
v 115.2 63.999999999999986 -102.40000000000002
v 115.2 63.999999999999986 -115.20000000000002
v 89.60000000000001 51.2 -12.800000000000008
v 102.4 51.2 -12.800000000000008
v 89.60000000000001 64 -12.800000000000008
v 102.4 64 -12.800000000000008
v 102.4 51.19999999999999 -115.2
v 89.60000000000001 51.19999999999999 -115.2
v 102.4 63.999999999999986 -115.20000000000002
v 89.60000000000001 63.999999999999986 -115.20000000000002
v 76.80000000000001 51.2 -12.800000000000008
v 89.60000000000001 51.2 -12.800000000000008
v 76.80000000000001 64 -12.800000000000008
v 89.60000000000001 64 -12.800000000000008
v 89.60000000000001 51.19999999999999 -115.2
v 76.80000000000001 51.19999999999999 -115.2
v 89.60000000000001 63.999999999999986 -115.20000000000002
v 76.80000000000001 63.999999999999986 -115.20000000000002
v 64 51.2 -12.800000000000008
v 76.80000000000001 51.2 -12.800000000000008
v 64 64 -12.800000000000008
v 76.80000000000001 64 -12.800000000000008
v 76.80000000000001 51.19999999999999 -115.2
v 64 51.19999999999999 -115.2
v 76.80000000000001 63.999999999999986 -115.20000000000002
v 64 63.999999999999986 -115.20000000000002
v 51.2 51.2 -12.800000000000008
v 64 51.2 -12.800000000000008
v 51.2 64 -12.800000000000008
v 64 64 -12.800000000000008
v 64 51.19999999999999 -115.2
v 51.2 51.19999999999999 -115.2
v 64 63.999999999999986 -115.20000000000002
v 51.2 63.999999999999986 -115.20000000000002
v 38.400000000000006 51.2 -12.800000000000008
v 51.2 51.2 -12.800000000000008
v 38.400000000000006 64 -12.800000000000008
v 51.2 64 -12.800000000000008
v 51.2 51.19999999999999 -115.2
v 38.400000000000006 51.19999999999999 -115.2
v 51.2 63.999999999999986 -115.20000000000002
v 38.400000000000006 63.999999999999986 -115.20000000000002
v 25.6 51.2 -12.800000000000008
v 38.400000000000006 51.2 -12.800000000000008
v 25.6 64 -12.800000000000008
v 38.400000000000006 64 -12.800000000000008
v 38.400000000000006 51.19999999999999 -115.2
v 25.6 51.19999999999999 -115.2
v 38.400000000000006 63.999999999999986 -115.20000000000002
v 25.6 63.999999999999986 -115.20000000000002
v 12.8 51.2 -12.800000000000008
v 25.6 51.2 -12.800000000000008
v 12.8 64 -12.800000000000008
v 25.6 64 -12.800000000000008
v 12.8 51.2 -25.60000000000001
v 12.8 51.2 -12.800000000000008
v 12.8 64 -25.60000000000001
v 12.8 64 -12.800000000000008
v 12.8 51.199999999999996 -38.40000000000001
v 12.8 51.2 -25.60000000000001
v 12.8 63.99999999999999 -38.40000000000001
v 12.8 64 -25.60000000000001
v 12.8 51.199999999999996 -51.20000000000001
v 12.8 51.199999999999996 -38.40000000000001
v 12.8 63.99999999999999 -51.20000000000001
v 12.8 63.99999999999999 -38.40000000000001
v 12.8 51.199999999999996 -64
v 12.8 51.199999999999996 -51.20000000000001
v 12.8 63.99999999999999 -64.00000000000001
v 12.8 63.99999999999999 -51.20000000000001
v 12.8 51.199999999999996 -76.80000000000001
v 12.8 51.199999999999996 -64
v 12.8 63.99999999999999 -76.80000000000003
v 12.8 63.99999999999999 -64.00000000000001
v 12.8 51.19999999999999 -89.60000000000001
v 12.8 51.199999999999996 -76.80000000000001
v 12.8 63.999999999999986 -89.60000000000002
v 12.8 63.99999999999999 -76.80000000000003
v 12.8 51.19999999999999 -102.4
v 12.8 51.19999999999999 -89.60000000000001
v 12.8 63.999999999999986 -102.40000000000002
v 12.8 63.999999999999986 -89.60000000000002
v 12.8 51.19999999999999 -115.2
v 12.8 51.19999999999999 -102.4
v 12.8 63.999999999999986 -115.20000000000002
v 12.8 63.999999999999986 -102.40000000000002
v 25.6 51.19999999999999 -115.2
v 12.8 51.19999999999999 -115.2
v 25.6 63.999999999999986 -115.20000000000002
v 12.8 63.999999999999986 -115.20000000000002
vt 0.125 0.9921875
vt 0 0.9921875
vt 0.125 0.875
vt 0 0.875
vt 0.4921875 0.9921875
vt 0.375 0.9921875
vt 0.4921875 0.875
vt 0.375 0.875
vt 0.375 0.9921875
vt 0.25 0.9921875
vt 0.375 0.875
vt 0.25 0.875
vt 0.25 0.9921875
vt 0.125 0.9921875
vt 0.25 0.875
vt 0.125 0.875
vt 0.125 0.9921875
vt 0 0.9921875
vt 0.125 0.875
vt 0 0.875
vt 0.4921875 0.9921875
vt 0.375 0.9921875
vt 0.4921875 0.875
vt 0.375 0.875
vt 0.375 0.9921875
vt 0.25 0.9921875
vt 0.375 0.875
vt 0.25 0.875
vt 0.25 0.9921875
vt 0.125 0.9921875
vt 0.25 0.875
vt 0.125 0.875
vt 0.4921875 0.9921875
vt 0.375 0.9921875
vt 0.4921875 0.875
vt 0.375 0.875
vt 0.125 0.9921875
vt 0 0.9921875
vt 0.125 0.875
vt 0 0.875
vt 0.25 0.9921875
vt 0.125 0.9921875
vt 0.25 0.875
vt 0.125 0.875
vt 0.375 0.9921875
vt 0.25 0.9921875
vt 0.375 0.875
vt 0.25 0.875
vt 0.375 0.9921875
vt 0.25 0.9921875
vt 0.375 0.875
vt 0.25 0.875
vt 0.25 0.9921875
vt 0.125 0.9921875
vt 0.25 0.875
vt 0.125 0.875
vt 0.4921875 0.9921875
vt 0.375 0.9921875
vt 0.4921875 0.875
vt 0.375 0.875
vt 0.125 0.9921875
vt 0 0.9921875
vt 0.125 0.875
vt 0 0.875
vt 0.125 0.9921875
vt 0 0.9921875
vt 0.125 0.875
vt 0 0.875
vt 0.4921875 0.9921875
vt 0.375 0.9921875
vt 0.4921875 0.875
vt 0.375 0.875
vt 0.25 0.9921875
vt 0.125 0.9921875
vt 0.25 0.875
vt 0.125 0.875
vt 0.375 0.9921875
vt 0.25 0.9921875
vt 0.375 0.875
vt 0.25 0.875
vt 0.375 0.9921875
vt 0.25 0.9921875
vt 0.375 0.875
vt 0.25 0.875
vt 0.25 0.9921875
vt 0.125 0.9921875
vt 0.25 0.875
vt 0.125 0.875
vt 0.4921875 0.9921875
vt 0.375 0.9921875
vt 0.4921875 0.875
vt 0.375 0.875
vt 0.125 0.9921875
vt 0 0.9921875
vt 0.125 0.875
vt 0 0.875
vt 0.25 0.9921875
vt 0.125 0.9921875
vt 0.25 0.875
vt 0.125 0.875
vt 0.375 0.9921875
vt 0.25 0.9921875
vt 0.375 0.875
vt 0.25 0.875
vt 0.4921875 0.9921875
vt 0.375 0.9921875
vt 0.4921875 0.875
vt 0.375 0.875
vt 0.125 0.9921875
vt 0 0.9921875
vt 0.125 0.875
vt 0 0.875
vt 0.25 0.9921875
vt 0.125 0.9921875
vt 0.25 0.875
vt 0.125 0.875
vt 0.375 0.9921875
vt 0.25 0.9921875
vt 0.375 0.875
vt 0.25 0.875
vt 0.4921875 0.9921875
vt 0.375 0.9921875
vt 0.4921875 0.875
vt 0.375 0.875
vt 0.125 0.9921875
vt 0 0.9921875
vt 0.125 0.875
vt 0 0.875
vn 0 -1.2246467991473532e-16 -1
vn 0 -1.2246467991473532e-16 -1
vn 0 -1.2246467991473532e-16 -1
vn 0 -1.2246467991473532e-16 -1
vn -1 0 0
vn -1 0 0
vn -1 0 0
vn -1 0 0
vn -1 0 0
vn -1 0 0
vn -1 0 0
vn -1 0 0
vn -1 0 0
vn -1 0 0
vn -1 0 0
vn -1 0 0
vn -1 0 0
vn -1 0 0
vn -1 0 0
vn -1 0 0
vn -1 0 0
vn -1 0 0
vn -1 0 0
vn -1 0 0
vn -1 0 0
vn -1 0 0
vn -1 0 0
vn -1 0 0
vn -1 0 0
vn -1 0 0
vn -1 0 0
vn -1 0 0
vn 0 1.2246467991473532e-16 1
vn 0 1.2246467991473532e-16 1
vn 0 1.2246467991473532e-16 1
vn 0 1.2246467991473532e-16 1
vn -1 0 0
vn -1 0 0
vn -1 0 0
vn -1 0 0
vn 0 -1.2246467991473532e-16 -1
vn 0 -1.2246467991473532e-16 -1
vn 0 -1.2246467991473532e-16 -1
vn 0 -1.2246467991473532e-16 -1
vn 0 1.2246467991473532e-16 1
vn 0 1.2246467991473532e-16 1
vn 0 1.2246467991473532e-16 1
vn 0 1.2246467991473532e-16 1
vn 0 -1.2246467991473532e-16 -1
vn 0 -1.2246467991473532e-16 -1
vn 0 -1.2246467991473532e-16 -1
vn 0 -1.2246467991473532e-16 -1
vn 0 1.2246467991473532e-16 1
vn 0 1.2246467991473532e-16 1
vn 0 1.2246467991473532e-16 1
vn 0 1.2246467991473532e-16 1
vn 0 -1.2246467991473532e-16 -1
vn 0 -1.2246467991473532e-16 -1
vn 0 -1.2246467991473532e-16 -1
vn 0 -1.2246467991473532e-16 -1
vn 0 1.2246467991473532e-16 1
vn 0 1.2246467991473532e-16 1
vn 0 1.2246467991473532e-16 1
vn 0 1.2246467991473532e-16 1
vn 0 -1.2246467991473532e-16 -1
vn 0 -1.2246467991473532e-16 -1
vn 0 -1.2246467991473532e-16 -1
vn 0 -1.2246467991473532e-16 -1
vn 0 1.2246467991473532e-16 1
vn 0 1.2246467991473532e-16 1
vn 0 1.2246467991473532e-16 1
vn 0 1.2246467991473532e-16 1
vn 0 -1.2246467991473532e-16 -1
vn 0 -1.2246467991473532e-16 -1
vn 0 -1.2246467991473532e-16 -1
vn 0 -1.2246467991473532e-16 -1
vn 0 1.2246467991473532e-16 1
vn 0 1.2246467991473532e-16 1
vn 0 1.2246467991473532e-16 1
vn 0 1.2246467991473532e-16 1
vn 0 -1.2246467991473532e-16 -1
vn 0 -1.2246467991473532e-16 -1
vn 0 -1.2246467991473532e-16 -1
vn 0 -1.2246467991473532e-16 -1
vn 0 1.2246467991473532e-16 1
vn 0 1.2246467991473532e-16 1
vn 0 1.2246467991473532e-16 1
vn 0 1.2246467991473532e-16 1
vn 0 -1.2246467991473532e-16 -1
vn 0 -1.2246467991473532e-16 -1
vn 0 -1.2246467991473532e-16 -1
vn 0 -1.2246467991473532e-16 -1
vn 1 0 0
vn 1 0 0
vn 1 0 0
vn 1 0 0
vn 1 0 0
vn 1 0 0
vn 1 0 0
vn 1 0 0
vn 1 0 0
vn 1 0 0
vn 1 0 0
vn 1 0 0
vn 1 0 0
vn 1 0 0
vn 1 0 0
vn 1 0 0
vn 1 0 0
vn 1 0 0
vn 1 0 0
vn 1 0 0
vn 1 0 0
vn 1 0 0
vn 1 0 0
vn 1 0 0
vn 1 0 0
vn 1 0 0
vn 1 0 0
vn 1 0 0
vn 1 0 0
vn 1 0 0
vn 1 0 0
vn 1 0 0
vn 0 1.2246467991473532e-16 1
vn 0 1.2246467991473532e-16 1
vn 0 1.2246467991473532e-16 1
vn 0 1.2246467991473532e-16 1
f 275/275/275 274/274/274 273/273/273
f 274/274/274 275/275/275 276/276/276
f 279/279/279 278/278/278 277/277/277
f 278/278/278 279/279/279 280/280/280
f 283/283/283 282/282/282 281/281/281
f 282/282/282 283/283/283 284/284/284
f 287/287/287 286/286/286 285/285/285
f 286/286/286 287/287/287 288/288/288
f 291/291/291 290/290/290 289/289/289
f 290/290/290 291/291/291 292/292/292
f 295/295/295 294/294/294 293/293/293
f 294/294/294 295/295/295 296/296/296
f 299/299/299 298/298/298 297/297/297
f 298/298/298 299/299/299 300/300/300
f 303/303/303 302/302/302 301/301/301
f 302/302/302 303/303/303 304/304/304
f 307/307/307 306/306/306 305/305/305
f 306/306/306 307/307/307 308/308/308
f 311/311/311 310/310/310 309/309/309
f 310/310/310 311/311/311 312/312/312
f 315/315/315 314/314/314 313/313/313
f 314/314/314 315/315/315 316/316/316
f 319/319/319 318/318/318 317/317/317
f 318/318/318 319/319/319 320/320/320
f 323/323/323 322/322/322 321/321/321
f 322/322/322 323/323/323 324/324/324
f 327/327/327 326/326/326 325/325/325
f 326/326/326 327/327/327 328/328/328
f 331/331/331 330/330/330 329/329/329
f 330/330/330 331/331/331 332/332/332
f 335/335/335 334/334/334 333/333/333
f 334/334/334 335/335/335 336/336/336
f 339/339/339 338/338/338 337/337/337
f 338/338/338 339/339/339 340/340/340
f 343/343/343 342/342/342 341/341/341
f 342/342/342 343/343/343 344/344/344
f 347/347/347 346/346/346 345/345/345
f 346/346/346 347/347/347 348/348/348
f 351/351/351 350/350/350 349/349/349
f 350/350/350 351/351/351 352/352/352
f 355/355/355 354/354/354 353/353/353
f 354/354/354 355/355/355 356/356/356
f 359/359/359 358/358/358 357/357/357
f 358/358/358 359/359/359 360/360/360
f 363/363/363 362/362/362 361/361/361
f 362/362/362 363/363/363 364/364/364
f 367/367/367 366/366/366 365/365/365
f 366/366/366 367/367/367 368/368/368
f 371/371/371 370/370/370 369/369/369
f 370/370/370 371/371/371 372/372/372
f 375/375/375 374/374/374 373/373/373
f 374/374/374 375/375/375 376/376/376
f 379/379/379 378/378/378 377/377/377
f 378/378/378 379/379/379 380/380/380
f 383/383/383 382/382/382 381/381/381
f 382/382/382 383/383/383 384/384/384
f 387/387/387 386/386/386 385/385/385
f 386/386/386 387/387/387 388/388/388
f 391/391/391 390/390/390 389/389/389
f 390/390/390 391/391/391 392/392/392
f 395/395/395 394/394/394 393/393/393
f 394/394/394 395/395/395 396/396/396
f 399/399/399 398/398/398 397/397/397
f 398/398/398 399/399/399 400/400/400
o mesh_4
usemtl mat4
v 12.8 38.39999999999999 -115.2
v 12.8 38.39999999999999 -102.4
v 12.8 51.19999999999999 -115.2
v 12.8 51.19999999999999 -102.4
v 25.6 38.39999999999999 -115.2
v 12.8 38.39999999999999 -115.2
v 25.6 51.19999999999999 -115.2
v 12.8 51.19999999999999 -115.2
v 38.400000000000006 38.39999999999999 -115.2
v 25.6 38.39999999999999 -115.2
v 38.400000000000006 51.19999999999999 -115.2
v 25.6 51.19999999999999 -115.2
v 12.8 38.39999999999999 -102.4
v 12.8 38.39999999999999 -89.60000000000001
v 12.8 51.19999999999999 -102.4
v 12.8 51.19999999999999 -89.60000000000001
v 12.8 38.39999999999999 -89.60000000000001
v 12.8 38.4 -76.80000000000001
v 12.8 51.19999999999999 -89.60000000000001
v 12.8 51.199999999999996 -76.80000000000001
v 12.8 38.4 -76.80000000000001
v 12.8 38.4 -64
v 12.8 51.199999999999996 -76.80000000000001
v 12.8 51.199999999999996 -64
v 12.8 38.4 -64
v 12.8 38.4 -51.20000000000001
v 12.8 51.199999999999996 -64
v 12.8 51.199999999999996 -51.20000000000001
v 12.8 38.4 -51.20000000000001
v 12.8 38.4 -38.40000000000001
v 12.8 51.199999999999996 -51.20000000000001
v 12.8 51.199999999999996 -38.40000000000001
v 12.8 38.4 -38.40000000000001
v 12.8 38.400000000000006 -25.600000000000005
v 12.8 51.199999999999996 -38.40000000000001
v 12.8 51.2 -25.60000000000001
v 12.8 38.400000000000006 -12.800000000000006
v 25.6 38.400000000000006 -12.800000000000006
v 12.8 51.2 -12.800000000000008
v 25.6 51.2 -12.800000000000008
v 12.8 38.400000000000006 -25.600000000000005
v 12.8 38.400000000000006 -12.800000000000006
v 12.8 51.2 -25.60000000000001
v 12.8 51.2 -12.800000000000008
v 25.6 38.400000000000006 -12.800000000000006
v 38.400000000000006 38.400000000000006 -12.800000000000006
v 25.6 51.2 -12.800000000000008
v 38.400000000000006 51.2 -12.800000000000008
v 51.2 38.39999999999999 -115.2
v 38.400000000000006 38.39999999999999 -115.2
v 51.2 51.19999999999999 -115.2
v 38.400000000000006 51.19999999999999 -115.2
v 38.400000000000006 38.400000000000006 -12.800000000000006
v 51.2 38.400000000000006 -12.800000000000006
v 38.400000000000006 51.2 -12.800000000000008
v 51.2 51.2 -12.800000000000008
v 64 38.39999999999999 -115.2
v 51.2 38.39999999999999 -115.2
v 64 51.19999999999999 -115.2
v 51.2 51.19999999999999 -115.2
v 51.2 38.400000000000006 -12.800000000000006
v 64 38.400000000000006 -12.800000000000006
v 51.2 51.2 -12.800000000000008
v 64 51.2 -12.800000000000008
v 76.80000000000001 38.39999999999999 -115.2
v 64 38.39999999999999 -115.2
v 76.80000000000001 51.19999999999999 -115.2
v 64 51.19999999999999 -115.2
v 64 38.400000000000006 -12.800000000000006
v 76.80000000000001 38.400000000000006 -12.800000000000006
v 64 51.2 -12.800000000000008
v 76.80000000000001 51.2 -12.800000000000008
v 89.60000000000001 38.39999999999999 -115.2
v 76.80000000000001 38.39999999999999 -115.2
v 89.60000000000001 51.19999999999999 -115.2
v 76.80000000000001 51.19999999999999 -115.2
v 76.80000000000001 38.400000000000006 -12.800000000000006
v 89.60000000000001 38.400000000000006 -12.800000000000006
v 76.80000000000001 51.2 -12.800000000000008
v 89.60000000000001 51.2 -12.800000000000008
v 102.4 38.39999999999999 -115.2
v 89.60000000000001 38.39999999999999 -115.2
v 102.4 51.19999999999999 -115.2
v 89.60000000000001 51.19999999999999 -115.2
v 89.60000000000001 38.400000000000006 -12.800000000000006
v 102.4 38.400000000000006 -12.800000000000006
v 89.60000000000001 51.2 -12.800000000000008
v 102.4 51.2 -12.800000000000008
v 115.2 38.39999999999999 -115.2
v 102.4 38.39999999999999 -115.2
v 115.2 51.19999999999999 -115.2
v 102.4 51.19999999999999 -115.2
v 115.2 38.39999999999999 -102.4
v 115.2 38.39999999999999 -115.2
v 115.2 51.19999999999999 -102.4
v 115.2 51.19999999999999 -115.2
v 115.2 38.39999999999999 -89.60000000000001
v 115.2 38.39999999999999 -102.4
v 115.2 51.19999999999999 -89.60000000000001
v 115.2 51.19999999999999 -102.4
v 115.2 38.4 -76.80000000000001
v 115.2 38.39999999999999 -89.60000000000001
v 115.2 51.199999999999996 -76.80000000000001
v 115.2 51.19999999999999 -89.60000000000001
v 115.2 38.4 -64
v 115.2 38.4 -76.80000000000001
v 115.2 51.199999999999996 -64
v 115.2 51.199999999999996 -76.80000000000001
v 115.2 38.4 -51.20000000000001
v 115.2 38.4 -64
v 115.2 51.199999999999996 -51.20000000000001
v 115.2 51.199999999999996 -64
v 115.2 38.4 -38.40000000000001
v 115.2 38.4 -51.20000000000001
v 115.2 51.199999999999996 -38.40000000000001
v 115.2 51.199999999999996 -51.20000000000001
v 115.2 38.400000000000006 -25.600000000000005
v 115.2 38.4 -38.40000000000001
v 115.2 51.2 -25.60000000000001
v 115.2 51.199999999999996 -38.40000000000001
v 102.4 38.400000000000006 -12.800000000000006
v 115.2 38.400000000000006 -12.800000000000006
v 102.4 51.2 -12.800000000000008
v 115.2 51.2 -12.800000000000008
v 115.2 38.400000000000006 -12.800000000000006
v 115.2 38.400000000000006 -25.600000000000005
v 115.2 51.2 -12.800000000000008
v 115.2 51.2 -25.60000000000001
v 102.4 25.6 -12.800000000000004
v 115.2 25.6 -12.800000000000004
v 102.4 38.400000000000006 -12.800000000000006
v 115.2 38.400000000000006 -12.800000000000006
v 115.2 25.6 -12.800000000000004
v 115.2 25.599999999999998 -25.600000000000005
v 115.2 38.400000000000006 -12.800000000000006
v 115.2 38.400000000000006 -25.600000000000005
v 115.2 25.599999999999998 -25.600000000000005
v 115.2 25.599999999999998 -38.400000000000006
v 115.2 38.400000000000006 -25.600000000000005
v 115.2 38.4 -38.40000000000001
v 89.60000000000001 25.6 -12.800000000000004
v 102.4 25.6 -12.800000000000004
v 89.60000000000001 38.400000000000006 -12.800000000000006
v 102.4 38.400000000000006 -12.800000000000006
v 115.2 25.599999999999998 -38.400000000000006
v 115.2 25.599999999999994 -51.2
v 115.2 38.4 -38.40000000000001
v 115.2 38.4 -51.20000000000001
v 115.2 25.599999999999994 -51.2
v 115.2 25.599999999999994 -64
v 115.2 38.4 -51.20000000000001
v 115.2 38.4 -64
v 115.2 25.599999999999994 -64
v 115.2 25.59999999999999 -76.80000000000001
v 115.2 38.4 -64
v 115.2 38.4 -76.80000000000001
v 115.2 25.59999999999999 -76.80000000000001
v 115.2 25.59999999999999 -89.60000000000001
v 115.2 38.4 -76.80000000000001
v 115.2 38.39999999999999 -89.60000000000001
v 115.2 25.59999999999999 -89.60000000000001
v 115.2 25.599999999999987 -102.4
v 115.2 38.39999999999999 -89.60000000000001
v 115.2 38.39999999999999 -102.4
v 115.2 25.599999999999987 -115.2
v 102.4 25.599999999999987 -115.2
v 115.2 38.39999999999999 -115.2
v 102.4 38.39999999999999 -115.2
v 115.2 25.599999999999987 -102.4
v 115.2 25.599999999999987 -115.2
v 115.2 38.39999999999999 -102.4
v 115.2 38.39999999999999 -115.2
v 102.4 25.599999999999987 -115.2
v 89.60000000000001 25.599999999999987 -115.2
v 102.4 38.39999999999999 -115.2
v 89.60000000000001 38.39999999999999 -115.2
v 76.80000000000001 25.6 -12.800000000000004
v 89.60000000000001 25.6 -12.800000000000004
v 76.80000000000001 38.400000000000006 -12.800000000000006
v 89.60000000000001 38.400000000000006 -12.800000000000006
v 89.60000000000001 25.599999999999987 -115.2
v 76.80000000000001 25.599999999999987 -115.2
v 89.60000000000001 38.39999999999999 -115.2
v 76.80000000000001 38.39999999999999 -115.2
v 64 25.6 -12.800000000000004
v 76.80000000000001 25.6 -12.800000000000004
v 64 38.400000000000006 -12.800000000000006
v 76.80000000000001 38.400000000000006 -12.800000000000006
v 76.80000000000001 25.599999999999987 -115.2
v 64 25.599999999999987 -115.2
v 76.80000000000001 38.39999999999999 -115.2
v 64 38.39999999999999 -115.2
v 51.2 25.6 -12.800000000000004
v 64 25.6 -12.800000000000004
v 51.2 38.400000000000006 -12.800000000000006
v 64 38.400000000000006 -12.800000000000006
v 64 25.599999999999987 -115.2
v 51.2 25.599999999999987 -115.2
v 64 38.39999999999999 -115.2
v 51.2 38.39999999999999 -115.2
v 38.400000000000006 25.6 -12.800000000000004
v 51.2 25.6 -12.800000000000004
v 38.400000000000006 38.400000000000006 -12.800000000000006
v 51.2 38.400000000000006 -12.800000000000006
v 51.2 25.599999999999987 -115.2
v 38.400000000000006 25.599999999999987 -115.2
v 51.2 38.39999999999999 -115.2
v 38.400000000000006 38.39999999999999 -115.2
v 25.6 25.6 -12.800000000000004
v 38.400000000000006 25.6 -12.800000000000004
v 25.6 38.400000000000006 -12.800000000000006
v 38.400000000000006 38.400000000000006 -12.800000000000006
v 38.400000000000006 25.599999999999987 -115.2
v 25.6 25.599999999999987 -115.2
v 38.400000000000006 38.39999999999999 -115.2
v 25.6 38.39999999999999 -115.2
v 12.8 25.6 -12.800000000000004
v 25.6 25.6 -12.800000000000004
v 12.8 38.400000000000006 -12.800000000000006
v 25.6 38.400000000000006 -12.800000000000006
v 12.8 25.599999999999998 -25.600000000000005
v 12.8 25.6 -12.800000000000004
v 12.8 38.400000000000006 -25.600000000000005
v 12.8 38.400000000000006 -12.800000000000006
v 12.8 25.599999999999998 -38.400000000000006
v 12.8 25.599999999999998 -25.600000000000005
v 12.8 38.4 -38.40000000000001
v 12.8 38.400000000000006 -25.600000000000005
v 12.8 25.599999999999994 -51.2
v 12.8 25.599999999999998 -38.400000000000006
v 12.8 38.4 -51.20000000000001
v 12.8 38.4 -38.40000000000001
v 12.8 25.599999999999994 -64
v 12.8 25.599999999999994 -51.2
v 12.8 38.4 -64
v 12.8 38.4 -51.20000000000001
v 12.8 25.59999999999999 -76.80000000000001
v 12.8 25.599999999999994 -64
v 12.8 38.4 -76.80000000000001
v 12.8 38.4 -64
v 12.8 25.59999999999999 -89.60000000000001
v 12.8 25.59999999999999 -76.80000000000001
v 12.8 38.39999999999999 -89.60000000000001
v 12.8 38.4 -76.80000000000001
v 12.8 25.599999999999987 -102.4
v 12.8 25.59999999999999 -89.60000000000001
v 12.8 38.39999999999999 -102.4
v 12.8 38.39999999999999 -89.60000000000001
v 12.8 25.599999999999987 -115.2
v 12.8 25.599999999999987 -102.4
v 12.8 38.39999999999999 -115.2
v 12.8 38.39999999999999 -102.4
v 25.6 25.599999999999987 -115.2
v 12.8 25.599999999999987 -115.2
v 25.6 38.39999999999999 -115.2
v 12.8 38.39999999999999 -115.2
v 12.8 12.799999999999986 -115.2
v 12.8 12.799999999999988 -102.4
v 12.8 25.599999999999987 -115.2
v 12.8 25.599999999999987 -102.4
v 25.6 12.799999999999986 -115.2
v 12.8 12.799999999999986 -115.2
v 25.6 25.599999999999987 -115.2
v 12.8 25.599999999999987 -115.2
v 38.400000000000006 12.799999999999986 -115.2
v 25.6 12.799999999999986 -115.2
v 38.400000000000006 25.599999999999987 -115.2
v 25.6 25.599999999999987 -115.2
v 12.8 12.799999999999988 -102.4
v 12.8 12.79999999999999 -89.60000000000001
v 12.8 25.599999999999987 -102.4
v 12.8 25.59999999999999 -89.60000000000001
v 12.8 12.79999999999999 -89.60000000000001
v 12.8 12.799999999999992 -76.80000000000001
v 12.8 25.59999999999999 -89.60000000000001
v 12.8 25.59999999999999 -76.80000000000001
v 12.8 12.799999999999992 -76.80000000000001
v 12.8 12.799999999999994 -64
v 12.8 25.59999999999999 -76.80000000000001
v 12.8 25.599999999999994 -64
v 12.8 12.799999999999994 -64
v 12.8 12.799999999999994 -51.2
v 12.8 25.599999999999994 -64
v 12.8 25.599999999999994 -51.2
v 12.8 12.799999999999994 -51.2
v 12.8 12.799999999999995 -38.400000000000006
v 12.8 25.599999999999994 -51.2
v 12.8 25.599999999999998 -38.400000000000006
v 12.8 12.799999999999995 -38.400000000000006
v 12.8 12.799999999999997 -25.6
v 12.8 25.599999999999998 -38.400000000000006
v 12.8 25.599999999999998 -25.600000000000005
v 12.8 12.799999999999999 -12.800000000000002
v 25.6 12.799999999999999 -12.800000000000002
v 12.8 25.6 -12.800000000000004
v 25.6 25.6 -12.800000000000004
v 12.8 12.799999999999997 -25.6
v 12.8 12.799999999999999 -12.800000000000002
v 12.8 25.599999999999998 -25.600000000000005
v 12.8 25.6 -12.800000000000004
v 25.6 12.799999999999999 -12.800000000000002
v 38.400000000000006 12.799999999999999 -12.800000000000002
v 25.6 25.6 -12.800000000000004
v 38.400000000000006 25.6 -12.800000000000004
v 51.2 12.799999999999986 -115.2
v 38.400000000000006 12.799999999999986 -115.2
v 51.2 25.599999999999987 -115.2
v 38.400000000000006 25.599999999999987 -115.2
v 38.400000000000006 12.799999999999999 -12.800000000000002
v 51.2 12.799999999999999 -12.800000000000002
v 38.400000000000006 25.6 -12.800000000000004
v 51.2 25.6 -12.800000000000004
v 64 12.799999999999986 -115.2
v 51.2 12.799999999999986 -115.2
v 64 25.599999999999987 -115.2
v 51.2 25.599999999999987 -115.2
v 51.2 12.799999999999999 -12.800000000000002
v 64 12.799999999999999 -12.800000000000002
v 51.2 25.6 -12.800000000000004
v 64 25.6 -12.800000000000004
v 76.80000000000001 12.799999999999986 -115.2
v 64 12.799999999999986 -115.2
v 76.80000000000001 25.599999999999987 -115.2
v 64 25.599999999999987 -115.2
v 64 12.799999999999999 -12.800000000000002
v 76.80000000000001 12.799999999999999 -12.800000000000002
v 64 25.6 -12.800000000000004
v 76.80000000000001 25.6 -12.800000000000004
v 89.60000000000001 12.799999999999986 -115.2
v 76.80000000000001 12.799999999999986 -115.2
v 89.60000000000001 25.599999999999987 -115.2
v 76.80000000000001 25.599999999999987 -115.2
v 76.80000000000001 12.799999999999999 -12.800000000000002
v 89.60000000000001 12.799999999999999 -12.800000000000002
v 76.80000000000001 25.6 -12.800000000000004
v 89.60000000000001 25.6 -12.800000000000004
v 102.4 12.799999999999986 -115.2
v 89.60000000000001 12.799999999999986 -115.2
v 102.4 25.599999999999987 -115.2
v 89.60000000000001 25.599999999999987 -115.2
v 89.60000000000001 12.799999999999999 -12.800000000000002
v 102.4 12.799999999999999 -12.800000000000002
v 89.60000000000001 25.6 -12.800000000000004
v 102.4 25.6 -12.800000000000004
v 115.2 12.799999999999986 -115.2
v 102.4 12.799999999999986 -115.2
v 115.2 25.599999999999987 -115.2
v 102.4 25.599999999999987 -115.2
v 115.2 12.799999999999988 -102.4
v 115.2 12.799999999999986 -115.2
v 115.2 25.599999999999987 -102.4
v 115.2 25.599999999999987 -115.2
v 115.2 12.79999999999999 -89.60000000000001
v 115.2 12.799999999999988 -102.4
v 115.2 25.59999999999999 -89.60000000000001
v 115.2 25.599999999999987 -102.4
v 115.2 12.799999999999992 -76.80000000000001
v 115.2 12.79999999999999 -89.60000000000001
v 115.2 25.59999999999999 -76.80000000000001
v 115.2 25.59999999999999 -89.60000000000001
v 115.2 12.799999999999994 -64
v 115.2 12.799999999999992 -76.80000000000001
v 115.2 25.599999999999994 -64
v 115.2 25.59999999999999 -76.80000000000001
v 115.2 12.799999999999994 -51.2
v 115.2 12.799999999999994 -64
v 115.2 25.599999999999994 -51.2
v 115.2 25.599999999999994 -64
v 115.2 12.799999999999995 -38.400000000000006
v 115.2 12.799999999999994 -51.2
v 115.2 25.599999999999998 -38.400000000000006
v 115.2 25.599999999999994 -51.2
v 115.2 12.799999999999997 -25.6
v 115.2 12.799999999999995 -38.400000000000006
v 115.2 25.599999999999998 -25.600000000000005
v 115.2 25.599999999999998 -38.400000000000006
v 102.4 12.799999999999999 -12.800000000000002
v 115.2 12.799999999999999 -12.800000000000002
v 102.4 25.6 -12.800000000000004
v 115.2 25.6 -12.800000000000004
v 115.2 12.799999999999999 -12.800000000000002
v 115.2 12.799999999999997 -25.6
v 115.2 25.6 -12.800000000000004
v 115.2 25.599999999999998 -25.600000000000005
v 102.4 -1.5675479029086122e-15 -12.8
v 115.2 -1.5675479029086122e-15 -12.8
v 102.4 12.799999999999999 -12.800000000000002
v 115.2 12.799999999999999 -12.800000000000002
v 115.2 -1.5675479029086122e-15 -12.8
v 115.2 -3.1350958058172244e-15 -25.6
v 115.2 12.799999999999999 -12.800000000000002
v 115.2 12.799999999999997 -25.6
v 115.2 -3.1350958058172244e-15 -25.6
v 115.2 -4.702643708725837e-15 -38.400000000000006
v 115.2 12.799999999999997 -25.6
v 115.2 12.799999999999995 -38.400000000000006
v 89.60000000000001 -1.5675479029086122e-15 -12.8
v 102.4 -1.5675479029086122e-15 -12.8
v 89.60000000000001 12.799999999999999 -12.800000000000002
v 102.4 12.799999999999999 -12.800000000000002
v 115.2 -4.702643708725837e-15 -38.400000000000006
v 115.2 -6.270191611634449e-15 -51.2
v 115.2 12.799999999999995 -38.400000000000006
v 115.2 12.799999999999994 -51.2
v 115.2 -6.270191611634449e-15 -51.2
v 115.2 -7.83773951454306e-15 -64
v 115.2 12.799999999999994 -51.2
v 115.2 12.799999999999994 -64
v 115.2 -7.83773951454306e-15 -64
v 115.2 -9.405287417451674e-15 -76.80000000000001
v 115.2 12.799999999999994 -64
v 115.2 12.799999999999992 -76.80000000000001
v 115.2 -9.405287417451674e-15 -76.80000000000001
v 115.2 -1.0972835320360286e-14 -89.60000000000001
v 115.2 12.799999999999992 -76.80000000000001
v 115.2 12.79999999999999 -89.60000000000001
v 115.2 -1.0972835320360286e-14 -89.60000000000001
v 115.2 -1.2540383223268897e-14 -102.4
v 115.2 12.79999999999999 -89.60000000000001
v 115.2 12.799999999999988 -102.4
v 115.2 -1.410793112617751e-14 -115.2
v 102.4 -1.410793112617751e-14 -115.2
v 115.2 12.799999999999986 -115.2
v 102.4 12.799999999999986 -115.2
v 115.2 -1.2540383223268897e-14 -102.4
v 115.2 -1.410793112617751e-14 -115.2
v 115.2 12.799999999999988 -102.4
v 115.2 12.799999999999986 -115.2
v 102.4 -1.410793112617751e-14 -115.2
v 89.60000000000001 -1.410793112617751e-14 -115.2
v 102.4 12.799999999999986 -115.2
v 89.60000000000001 12.799999999999986 -115.2
v 76.80000000000001 -1.5675479029086122e-15 -12.8
v 89.60000000000001 -1.5675479029086122e-15 -12.8
v 76.80000000000001 12.799999999999999 -12.800000000000002
v 89.60000000000001 12.799999999999999 -12.800000000000002
v 89.60000000000001 -1.410793112617751e-14 -115.2
v 76.80000000000001 -1.410793112617751e-14 -115.2
v 89.60000000000001 12.799999999999986 -115.2
v 76.80000000000001 12.799999999999986 -115.2
v 64 -1.5675479029086122e-15 -12.8
v 76.80000000000001 -1.5675479029086122e-15 -12.8
v 64 12.799999999999999 -12.800000000000002
v 76.80000000000001 12.799999999999999 -12.800000000000002
v 76.80000000000001 -1.410793112617751e-14 -115.2
v 64 -1.410793112617751e-14 -115.2
v 76.80000000000001 12.799999999999986 -115.2
v 64 12.799999999999986 -115.2
v 51.2 -1.5675479029086122e-15 -12.8
v 64 -1.5675479029086122e-15 -12.8
v 51.2 12.799999999999999 -12.800000000000002
v 64 12.799999999999999 -12.800000000000002
v 64 -1.410793112617751e-14 -115.2
v 51.2 -1.410793112617751e-14 -115.2
v 64 12.799999999999986 -115.2
v 51.2 12.799999999999986 -115.2
v 38.400000000000006 -1.5675479029086122e-15 -12.8
v 51.2 -1.5675479029086122e-15 -12.8
v 38.400000000000006 12.799999999999999 -12.800000000000002
v 51.2 12.799999999999999 -12.800000000000002
v 51.2 -1.410793112617751e-14 -115.2
v 38.400000000000006 -1.410793112617751e-14 -115.2
v 51.2 12.799999999999986 -115.2
v 38.400000000000006 12.799999999999986 -115.2
v 25.6 -1.5675479029086122e-15 -12.8
v 38.400000000000006 -1.5675479029086122e-15 -12.8
v 25.6 12.799999999999999 -12.800000000000002
v 38.400000000000006 12.799999999999999 -12.800000000000002
v 38.400000000000006 -1.410793112617751e-14 -115.2
v 25.6 -1.410793112617751e-14 -115.2
v 38.400000000000006 12.799999999999986 -115.2
v 25.6 12.799999999999986 -115.2
v 12.8 -1.5675479029086122e-15 -12.8
v 25.6 -1.5675479029086122e-15 -12.8
v 12.8 12.799999999999999 -12.800000000000002
v 25.6 12.799999999999999 -12.800000000000002
v 12.8 -3.1350958058172244e-15 -25.6
v 12.8 -1.5675479029086122e-15 -12.8
v 12.8 12.799999999999997 -25.6
v 12.8 12.799999999999999 -12.800000000000002
v 12.8 -4.702643708725837e-15 -38.400000000000006
v 12.8 -3.1350958058172244e-15 -25.6
v 12.8 12.799999999999995 -38.400000000000006
v 12.8 12.799999999999997 -25.6
v 12.8 -6.270191611634449e-15 -51.2
v 12.8 -4.702643708725837e-15 -38.400000000000006
v 12.8 12.799999999999994 -51.2
v 12.8 12.799999999999995 -38.400000000000006
v 12.8 -7.83773951454306e-15 -64
v 12.8 -6.270191611634449e-15 -51.2
v 12.8 12.799999999999994 -64
v 12.8 12.799999999999994 -51.2
v 12.8 -9.405287417451674e-15 -76.80000000000001
v 12.8 -7.83773951454306e-15 -64
v 12.8 12.799999999999992 -76.80000000000001
v 12.8 12.799999999999994 -64
v 12.8 -1.0972835320360286e-14 -89.60000000000001
v 12.8 -9.405287417451674e-15 -76.80000000000001
v 12.8 12.79999999999999 -89.60000000000001
v 12.8 12.799999999999992 -76.80000000000001
v 12.8 -1.2540383223268897e-14 -102.4
v 12.8 -1.0972835320360286e-14 -89.60000000000001
v 12.8 12.799999999999988 -102.4
v 12.8 12.79999999999999 -89.60000000000001
v 12.8 -1.410793112617751e-14 -115.2
v 12.8 -1.2540383223268897e-14 -102.4
v 12.8 12.799999999999986 -115.2
v 12.8 12.799999999999988 -102.4
v 25.6 -1.410793112617751e-14 -115.2
v 12.8 -1.410793112617751e-14 -115.2
v 25.6 12.799999999999986 -115.2
v 12.8 12.799999999999986 -115.2
vt 0.9921875 0.125
vt 0.875 0.125
vt 0.9921875 0
vt 0.875 0
vt 0.625 0.125
vt 0.5 0.125
vt 0.625 0
vt 0.5 0
vt 0.75 0.125
vt 0.625 0.125
vt 0.75 0
vt 0.625 0
vt 0.875 0.125
vt 0.75 0.125
vt 0.875 0
vt 0.75 0
vt 0.75 0.125
vt 0.625 0.125
vt 0.75 0
vt 0.625 0
vt 0.625 0.125
vt 0.5 0.125
vt 0.625 0
vt 0.5 0
vt 0.9921875 0.125
vt 0.875 0.125
vt 0.9921875 0
vt 0.875 0
vt 0.875 0.125
vt 0.75 0.125
vt 0.875 0
vt 0.75 0
vt 0.75 0.125
vt 0.625 0.125
vt 0.75 0
vt 0.625 0
vt 0.9921875 0.125
vt 0.875 0.125
vt 0.9921875 0
vt 0.875 0
vt 0.625 0.125
vt 0.5 0.125
vt 0.625 0
vt 0.5 0
vt 0.875 0.125
vt 0.75 0.125
vt 0.875 0
vt 0.75 0
vt 0.875 0.125
vt 0.75 0.125
vt 0.875 0
vt 0.75 0
vt 0.75 0.125
vt 0.625 0.125
vt 0.75 0
vt 0.625 0
vt 0.9921875 0.125
vt 0.875 0.125
vt 0.9921875 0
vt 0.875 0
vt 0.625 0.125
vt 0.5 0.125
vt 0.625 0
vt 0.5 0
vt 0.625 0.125
vt 0.5 0.125
vt 0.625 0
vt 0.5 0
vt 0.9921875 0.125
vt 0.875 0.125
vt 0.9921875 0
vt 0.875 0
vt 0.75 0.125
vt 0.625 0.125
vt 0.75 0
vt 0.625 0
vt 0.875 0.125
vt 0.75 0.125
vt 0.875 0
vt 0.75 0
vt 0.875 0.125
vt 0.75 0.125
vt 0.875 0
vt 0.75 0
vt 0.75 0.125
vt 0.625 0.125
vt 0.75 0
vt 0.625 0
vt 0.9921875 0.125
vt 0.875 0.125
vt 0.9921875 0
vt 0.875 0
vt 0.625 0.125
vt 0.5 0.125
vt 0.625 0
vt 0.5 0
vt 0.75 0.125
vt 0.625 0.125
vt 0.75 0
vt 0.625 0
vt 0.875 0.125
vt 0.75 0.125
vt 0.875 0
vt 0.75 0
vt 0.9921875 0.125
vt 0.875 0.125
vt 0.9921875 0
vt 0.875 0
vt 0.625 0.125
vt 0.5 0.125
vt 0.625 0
vt 0.5 0
vt 0.75 0.125
vt 0.625 0.125
vt 0.75 0
vt 0.625 0
vt 0.875 0.125
vt 0.75 0.125
vt 0.875 0
vt 0.75 0
vt 0.625 0.125
vt 0.5 0.125
vt 0.625 0
vt 0.5 0
vt 0.9921875 0.125
vt 0.875 0.125
vt 0.9921875 0
vt 0.875 0
vt 0.625 0.25
vt 0.5 0.25
vt 0.625 0.125
vt 0.5 0.125
vt 0.9921875 0.25
vt 0.875 0.25
vt 0.9921875 0.125
vt 0.875 0.125
vt 0.875 0.25
vt 0.75 0.25
vt 0.875 0.125
vt 0.75 0.125
vt 0.75 0.25
vt 0.625 0.25
vt 0.75 0.125
vt 0.625 0.125
vt 0.75 0.25
vt 0.625 0.25
vt 0.75 0.125
vt 0.625 0.125
vt 0.625 0.25
vt 0.5 0.25
vt 0.625 0.125
vt 0.5 0.125
vt 0.9921875 0.25
vt 0.875 0.25
vt 0.9921875 0.125
vt 0.875 0.125
vt 0.875 0.25
vt 0.75 0.25
vt 0.875 0.125
vt 0.75 0.125
vt 0.75 0.25
vt 0.625 0.25
vt 0.75 0.125
vt 0.625 0.125
vt 0.9921875 0.25
vt 0.875 0.25
vt 0.9921875 0.125
vt 0.875 0.125
vt 0.625 0.25
vt 0.5 0.25
vt 0.625 0.125
vt 0.5 0.125
vt 0.875 0.25
vt 0.75 0.25
vt 0.875 0.125
vt 0.75 0.125
vt 0.875 0.25
vt 0.75 0.25
vt 0.875 0.125
vt 0.75 0.125
vt 0.75 0.25
vt 0.625 0.25
vt 0.75 0.125
vt 0.625 0.125
vt 0.9921875 0.25
vt 0.875 0.25
vt 0.9921875 0.125
vt 0.875 0.125
vt 0.625 0.25
vt 0.5 0.25
vt 0.625 0.125
vt 0.5 0.125
vt 0.625 0.25
vt 0.5 0.25
vt 0.625 0.125
vt 0.5 0.125
vt 0.9921875 0.25
vt 0.875 0.25
vt 0.9921875 0.125
vt 0.875 0.125
vt 0.75 0.25
vt 0.625 0.25
vt 0.75 0.125
vt 0.625 0.125
vt 0.875 0.25
vt 0.75 0.25
vt 0.875 0.125
vt 0.75 0.125
vt 0.875 0.25
vt 0.75 0.25
vt 0.875 0.125
vt 0.75 0.125
vt 0.75 0.25
vt 0.625 0.25
vt 0.75 0.125
vt 0.625 0.125
vt 0.9921875 0.25
vt 0.875 0.25
vt 0.9921875 0.125
vt 0.875 0.125
vt 0.625 0.25
vt 0.5 0.25
vt 0.625 0.125
vt 0.5 0.125
vt 0.75 0.25
vt 0.625 0.25
vt 0.75 0.125
vt 0.625 0.125
vt 0.875 0.25
vt 0.75 0.25
vt 0.875 0.125
vt 0.75 0.125
vt 0.9921875 0.25
vt 0.875 0.25
vt 0.9921875 0.125
vt 0.875 0.125
vt 0.625 0.25
vt 0.5 0.25
vt 0.625 0.125
vt 0.5 0.125
vt 0.75 0.25
vt 0.625 0.25
vt 0.75 0.125
vt 0.625 0.125
vt 0.875 0.25
vt 0.75 0.25
vt 0.875 0.125
vt 0.75 0.125
vt 0.9921875 0.25
vt 0.875 0.25
vt 0.9921875 0.125
vt 0.875 0.125
vt 0.625 0.25
vt 0.5 0.25
vt 0.625 0.125
vt 0.5 0.125
vt 0.9921875 0.375
vt 0.875 0.375
vt 0.9921875 0.25
vt 0.875 0.25
vt 0.625 0.375
vt 0.5 0.375
vt 0.625 0.25
vt 0.5 0.25
vt 0.75 0.375
vt 0.625 0.375
vt 0.75 0.25
vt 0.625 0.25
vt 0.875 0.375
vt 0.75 0.375
vt 0.875 0.25
vt 0.75 0.25
vt 0.75 0.375
vt 0.625 0.375
vt 0.75 0.25
vt 0.625 0.25
vt 0.625 0.375
vt 0.5 0.375
vt 0.625 0.25
vt 0.5 0.25
vt 0.9921875 0.375
vt 0.875 0.375
vt 0.9921875 0.25
vt 0.875 0.25
vt 0.875 0.375
vt 0.75 0.375
vt 0.875 0.25
vt 0.75 0.25
vt 0.75 0.375
vt 0.625 0.375
vt 0.75 0.25
vt 0.625 0.25
vt 0.9921875 0.375
vt 0.875 0.375
vt 0.9921875 0.25
vt 0.875 0.25
vt 0.625 0.375
vt 0.5 0.375
vt 0.625 0.25
vt 0.5 0.25
vt 0.875 0.375
vt 0.75 0.375
vt 0.875 0.25
vt 0.75 0.25
vt 0.875 0.375
vt 0.75 0.375
vt 0.875 0.25
vt 0.75 0.25
vt 0.75 0.375
vt 0.625 0.375
vt 0.75 0.25
vt 0.625 0.25
vt 0.9921875 0.375
vt 0.875 0.375
vt 0.9921875 0.25
vt 0.875 0.25
vt 0.625 0.375
vt 0.5 0.375
vt 0.625 0.25
vt 0.5 0.25
vt 0.625 0.375
vt 0.5 0.375
vt 0.625 0.25
vt 0.5 0.25
vt 0.9921875 0.375
vt 0.875 0.375
vt 0.9921875 0.25
vt 0.875 0.25
vt 0.75 0.375
vt 0.625 0.375
vt 0.75 0.25
vt 0.625 0.25
vt 0.875 0.375
vt 0.75 0.375
vt 0.875 0.25
vt 0.75 0.25
vt 0.875 0.375
vt 0.75 0.375
vt 0.875 0.25
vt 0.75 0.25
vt 0.75 0.375
vt 0.625 0.375
vt 0.75 0.25
vt 0.625 0.25
vt 0.9921875 0.375
vt 0.875 0.375
vt 0.9921875 0.25
vt 0.875 0.25
vt 0.625 0.375
vt 0.5 0.375
vt 0.625 0.25
vt 0.5 0.25
vt 0.75 0.375
vt 0.625 0.375
vt 0.75 0.25
vt 0.625 0.25
vt 0.875 0.375
vt 0.75 0.375
vt 0.875 0.25
vt 0.75 0.25
vt 0.9921875 0.375
vt 0.875 0.375
vt 0.9921875 0.25
vt 0.875 0.25
vt 0.625 0.375
vt 0.5 0.375
vt 0.625 0.25
vt 0.5 0.25
vt 0.75 0.375
vt 0.625 0.375
vt 0.75 0.25
vt 0.625 0.25
vt 0.875 0.375
vt 0.75 0.375
vt 0.875 0.25
vt 0.75 0.25
vt 0.625 0.375
vt 0.5 0.375
vt 0.625 0.25
vt 0.5 0.25
vt 0.9921875 0.375
vt 0.875 0.375
vt 0.9921875 0.25
vt 0.875 0.25
vt 0.625 0.4921875
vt 0.5 0.4921875
vt 0.625 0.375
vt 0.5 0.375
vt 0.9921875 0.4921875
vt 0.875 0.4921875
vt 0.9921875 0.375
vt 0.875 0.375
vt 0.875 0.4921875
vt 0.75 0.4921875
vt 0.875 0.375
vt 0.75 0.375
vt 0.75 0.4921875
vt 0.625 0.4921875
vt 0.75 0.375
vt 0.625 0.375
vt 0.75 0.4921875
vt 0.625 0.4921875
vt 0.75 0.375
vt 0.625 0.375
vt 0.625 0.4921875
vt 0.5 0.4921875
vt 0.625 0.375
vt 0.5 0.375
vt 0.9921875 0.4921875
vt 0.875 0.4921875
vt 0.9921875 0.375
vt 0.875 0.375
vt 0.875 0.4921875
vt 0.75 0.4921875
vt 0.875 0.375
vt 0.75 0.375
vt 0.75 0.4921875
vt 0.625 0.4921875
vt 0.75 0.375
vt 0.625 0.375
vt 0.9921875 0.4921875
vt 0.875 0.4921875
vt 0.9921875 0.375
vt 0.875 0.375
vt 0.625 0.4921875
vt 0.5 0.4921875
vt 0.625 0.375
vt 0.5 0.375
vt 0.875 0.4921875
vt 0.75 0.4921875
vt 0.875 0.375
vt 0.75 0.375
vt 0.875 0.4921875
vt 0.75 0.4921875
vt 0.875 0.375
vt 0.75 0.375
vt 0.75 0.4921875
vt 0.625 0.4921875
vt 0.75 0.375
vt 0.625 0.375
vt 0.9921875 0.4921875
vt 0.875 0.4921875
vt 0.9921875 0.375
vt 0.875 0.375
vt 0.625 0.4921875
vt 0.5 0.4921875
vt 0.625 0.375
vt 0.5 0.375
vt 0.625 0.4921875
vt 0.5 0.4921875
vt 0.625 0.375
vt 0.5 0.375
vt 0.9921875 0.4921875
vt 0.875 0.4921875
vt 0.9921875 0.375
vt 0.875 0.375
vt 0.75 0.4921875
vt 0.625 0.4921875
vt 0.75 0.375
vt 0.625 0.375
vt 0.875 0.4921875
vt 0.75 0.4921875
vt 0.875 0.375
vt 0.75 0.375
vt 0.875 0.4921875
vt 0.75 0.4921875
vt 0.875 0.375
vt 0.75 0.375
vt 0.75 0.4921875
vt 0.625 0.4921875
vt 0.75 0.375
vt 0.625 0.375
vt 0.9921875 0.4921875
vt 0.875 0.4921875
vt 0.9921875 0.375
vt 0.875 0.375
vt 0.625 0.4921875
vt 0.5 0.4921875
vt 0.625 0.375
vt 0.5 0.375
vt 0.75 0.4921875
vt 0.625 0.4921875
vt 0.75 0.375
vt 0.625 0.375
vt 0.875 0.4921875
vt 0.75 0.4921875
vt 0.875 0.375
vt 0.75 0.375
vt 0.9921875 0.4921875
vt 0.875 0.4921875
vt 0.9921875 0.375
vt 0.875 0.375
vt 0.625 0.4921875
vt 0.5 0.4921875
vt 0.625 0.375
vt 0.5 0.375
vt 0.75 0.4921875
vt 0.625 0.4921875
vt 0.75 0.375
vt 0.625 0.375
vt 0.875 0.4921875
vt 0.75 0.4921875
vt 0.875 0.375
vt 0.75 0.375
vt 0.9921875 0.4921875
vt 0.875 0.4921875
vt 0.9921875 0.375
vt 0.875 0.375
vt 0.625 0.4921875
vt 0.5 0.4921875
vt 0.625 0.375
vt 0.5 0.375
vn 1 0 0
vn 1 0 0
vn 1 0 0
vn 1 0 0
vn 0 1.2246467991473532e-16 1
vn 0 1.2246467991473532e-16 1
vn 0 1.2246467991473532e-16 1
vn 0 1.2246467991473532e-16 1
vn 0 1.2246467991473532e-16 1
vn 0 1.2246467991473532e-16 1
vn 0 1.2246467991473532e-16 1
vn 0 1.2246467991473532e-16 1
vn 1 0 0
vn 1 0 0
vn 1 0 0
vn 1 0 0
vn 1 0 0
vn 1 0 0
vn 1 0 0
vn 1 0 0
vn 1 0 0
vn 1 0 0
vn 1 0 0
vn 1 0 0
vn 1 0 0
vn 1 0 0
vn 1 0 0
vn 1 0 0
vn 1 0 0
vn 1 0 0
vn 1 0 0
vn 1 0 0
vn 1 0 0
vn 1 0 0
vn 1 0 0
vn 1 0 0
vn 0 -1.2246467991473532e-16 -1
vn 0 -1.2246467991473532e-16 -1
vn 0 -1.2246467991473532e-16 -1
vn 0 -1.2246467991473532e-16 -1
vn 1 0 0
vn 1 0 0
vn 1 0 0
vn 1 0 0
vn 0 -1.2246467991473532e-16 -1
vn 0 -1.2246467991473532e-16 -1
vn 0 -1.2246467991473532e-16 -1
vn 0 -1.2246467991473532e-16 -1
vn 0 1.2246467991473532e-16 1
vn 0 1.2246467991473532e-16 1
vn 0 1.2246467991473532e-16 1
vn 0 1.2246467991473532e-16 1
vn 0 -1.2246467991473532e-16 -1
vn 0 -1.2246467991473532e-16 -1
vn 0 -1.2246467991473532e-16 -1
vn 0 -1.2246467991473532e-16 -1
vn 0 1.2246467991473532e-16 1
vn 0 1.2246467991473532e-16 1
vn 0 1.2246467991473532e-16 1
vn 0 1.2246467991473532e-16 1
vn 0 -1.2246467991473532e-16 -1
vn 0 -1.2246467991473532e-16 -1
vn 0 -1.2246467991473532e-16 -1
vn 0 -1.2246467991473532e-16 -1
vn 0 1.2246467991473532e-16 1
vn 0 1.2246467991473532e-16 1
vn 0 1.2246467991473532e-16 1
vn 0 1.2246467991473532e-16 1
vn 0 -1.2246467991473532e-16 -1
vn 0 -1.2246467991473532e-16 -1
vn 0 -1.2246467991473532e-16 -1
vn 0 -1.2246467991473532e-16 -1
vn 0 1.2246467991473532e-16 1
vn 0 1.2246467991473532e-16 1
vn 0 1.2246467991473532e-16 1
vn 0 1.2246467991473532e-16 1
vn 0 -1.2246467991473532e-16 -1
vn 0 -1.2246467991473532e-16 -1
vn 0 -1.2246467991473532e-16 -1
vn 0 -1.2246467991473532e-16 -1
vn 0 1.2246467991473532e-16 1
vn 0 1.2246467991473532e-16 1
vn 0 1.2246467991473532e-16 1
vn 0 1.2246467991473532e-16 1
vn 0 -1.2246467991473532e-16 -1
vn 0 -1.2246467991473532e-16 -1
vn 0 -1.2246467991473532e-16 -1
vn 0 -1.2246467991473532e-16 -1
vn 0 1.2246467991473532e-16 1
vn 0 1.2246467991473532e-16 1
vn 0 1.2246467991473532e-16 1
vn 0 1.2246467991473532e-16 1
vn -1 0 0
vn -1 0 0
vn -1 0 0
vn -1 0 0
vn -1 0 0
vn -1 0 0
vn -1 0 0
vn -1 0 0
vn -1 0 0
vn -1 0 0
vn -1 0 0
vn -1 0 0
vn -1 0 0
vn -1 0 0
vn -1 0 0
vn -1 0 0
vn -1 0 0
vn -1 0 0
vn -1 0 0
vn -1 0 0
vn -1 0 0
vn -1 0 0
vn -1 0 0
vn -1 0 0
vn -1 0 0
vn -1 0 0
vn -1 0 0
vn -1 0 0
vn 0 -1.2246467991473532e-16 -1
vn 0 -1.2246467991473532e-16 -1
vn 0 -1.2246467991473532e-16 -1
vn 0 -1.2246467991473532e-16 -1
vn -1 0 0
vn -1 0 0
vn -1 0 0
vn -1 0 0
vn 0 -1.2246467991473532e-16 -1
vn 0 -1.2246467991473532e-16 -1
vn 0 -1.2246467991473532e-16 -1
vn 0 -1.2246467991473532e-16 -1
vn -1 0 0
vn -1 0 0
vn -1 0 0
vn -1 0 0
vn -1 0 0
vn -1 0 0
vn -1 0 0
vn -1 0 0
vn 0 -1.2246467991473532e-16 -1
vn 0 -1.2246467991473532e-16 -1
vn 0 -1.2246467991473532e-16 -1
vn 0 -1.2246467991473532e-16 -1
vn -1 0 0
vn -1 0 0
vn -1 0 0
vn -1 0 0
vn -1 0 0
vn -1 0 0
vn -1 0 0
vn -1 0 0
vn -1 0 0
vn -1 0 0
vn -1 0 0
vn -1 0 0
vn -1 0 0
vn -1 0 0
vn -1 0 0
vn -1 0 0
vn -1 0 0
vn -1 0 0
vn -1 0 0
vn -1 0 0
vn 0 1.2246467991473532e-16 1
vn 0 1.2246467991473532e-16 1
vn 0 1.2246467991473532e-16 1
vn 0 1.2246467991473532e-16 1
vn -1 0 0
vn -1 0 0
vn -1 0 0
vn -1 0 0
vn 0 1.2246467991473532e-16 1
vn 0 1.2246467991473532e-16 1
vn 0 1.2246467991473532e-16 1
vn 0 1.2246467991473532e-16 1
vn 0 -1.2246467991473532e-16 -1
vn 0 -1.2246467991473532e-16 -1
vn 0 -1.2246467991473532e-16 -1
vn 0 -1.2246467991473532e-16 -1
vn 0 1.2246467991473532e-16 1
vn 0 1.2246467991473532e-16 1
vn 0 1.2246467991473532e-16 1
vn 0 1.2246467991473532e-16 1
vn 0 -1.2246467991473532e-16 -1
vn 0 -1.2246467991473532e-16 -1
vn 0 -1.2246467991473532e-16 -1
vn 0 -1.2246467991473532e-16 -1
vn 0 1.2246467991473532e-16 1
vn 0 1.2246467991473532e-16 1
vn 0 1.2246467991473532e-16 1
vn 0 1.2246467991473532e-16 1
vn 0 -1.2246467991473532e-16 -1
vn 0 -1.2246467991473532e-16 -1
vn 0 -1.2246467991473532e-16 -1
vn 0 -1.2246467991473532e-16 -1
vn 0 1.2246467991473532e-16 1
vn 0 1.2246467991473532e-16 1
vn 0 1.2246467991473532e-16 1
vn 0 1.2246467991473532e-16 1
vn 0 -1.2246467991473532e-16 -1
vn 0 -1.2246467991473532e-16 -1
vn 0 -1.2246467991473532e-16 -1
vn 0 -1.2246467991473532e-16 -1
vn 0 1.2246467991473532e-16 1
vn 0 1.2246467991473532e-16 1
vn 0 1.2246467991473532e-16 1
vn 0 1.2246467991473532e-16 1
vn 0 -1.2246467991473532e-16 -1
vn 0 -1.2246467991473532e-16 -1
vn 0 -1.2246467991473532e-16 -1
vn 0 -1.2246467991473532e-16 -1
vn 0 1.2246467991473532e-16 1
vn 0 1.2246467991473532e-16 1
vn 0 1.2246467991473532e-16 1
vn 0 1.2246467991473532e-16 1
vn 0 -1.2246467991473532e-16 -1
vn 0 -1.2246467991473532e-16 -1
vn 0 -1.2246467991473532e-16 -1
vn 0 -1.2246467991473532e-16 -1
vn 1 0 0
vn 1 0 0
vn 1 0 0
vn 1 0 0
vn 1 0 0
vn 1 0 0
vn 1 0 0
vn 1 0 0
vn 1 0 0
vn 1 0 0
vn 1 0 0
vn 1 0 0
vn 1 0 0
vn 1 0 0
vn 1 0 0
vn 1 0 0
vn 1 0 0
vn 1 0 0
vn 1 0 0
vn 1 0 0
vn 1 0 0
vn 1 0 0
vn 1 0 0
vn 1 0 0
vn 1 0 0
vn 1 0 0
vn 1 0 0
vn 1 0 0
vn 1 0 0
vn 1 0 0
vn 1 0 0
vn 1 0 0
vn 0 1.2246467991473532e-16 1
vn 0 1.2246467991473532e-16 1
vn 0 1.2246467991473532e-16 1
vn 0 1.2246467991473532e-16 1
vn 1 0 0
vn 1 0 0
vn 1 0 0
vn 1 0 0
vn 0 1.2246467991473532e-16 1
vn 0 1.2246467991473532e-16 1
vn 0 1.2246467991473532e-16 1
vn 0 1.2246467991473532e-16 1
vn 0 1.2246467991473532e-16 1
vn 0 1.2246467991473532e-16 1
vn 0 1.2246467991473532e-16 1
vn 0 1.2246467991473532e-16 1
vn 1 0 0
vn 1 0 0
vn 1 0 0
vn 1 0 0
vn 1 0 0
vn 1 0 0
vn 1 0 0
vn 1 0 0
vn 1 0 0
vn 1 0 0
vn 1 0 0
vn 1 0 0
vn 1 0 0
vn 1 0 0
vn 1 0 0
vn 1 0 0
vn 1 0 0
vn 1 0 0
vn 1 0 0
vn 1 0 0
vn 1 0 0
vn 1 0 0
vn 1 0 0
vn 1 0 0
vn 0 -1.2246467991473532e-16 -1
vn 0 -1.2246467991473532e-16 -1
vn 0 -1.2246467991473532e-16 -1
vn 0 -1.2246467991473532e-16 -1
vn 1 0 0
vn 1 0 0
vn 1 0 0
vn 1 0 0
vn 0 -1.2246467991473532e-16 -1
vn 0 -1.2246467991473532e-16 -1
vn 0 -1.2246467991473532e-16 -1
vn 0 -1.2246467991473532e-16 -1
vn 0 1.2246467991473532e-16 1
vn 0 1.2246467991473532e-16 1
vn 0 1.2246467991473532e-16 1
vn 0 1.2246467991473532e-16 1
vn 0 -1.2246467991473532e-16 -1
vn 0 -1.2246467991473532e-16 -1
vn 0 -1.2246467991473532e-16 -1
vn 0 -1.2246467991473532e-16 -1
vn 0 1.2246467991473532e-16 1
vn 0 1.2246467991473532e-16 1
vn 0 1.2246467991473532e-16 1
vn 0 1.2246467991473532e-16 1
vn 0 -1.2246467991473532e-16 -1
vn 0 -1.2246467991473532e-16 -1
vn 0 -1.2246467991473532e-16 -1
vn 0 -1.2246467991473532e-16 -1
vn 0 1.2246467991473532e-16 1
vn 0 1.2246467991473532e-16 1
vn 0 1.2246467991473532e-16 1
vn 0 1.2246467991473532e-16 1
vn 0 -1.2246467991473532e-16 -1
vn 0 -1.2246467991473532e-16 -1
vn 0 -1.2246467991473532e-16 -1
vn 0 -1.2246467991473532e-16 -1
vn 0 1.2246467991473532e-16 1
vn 0 1.2246467991473532e-16 1
vn 0 1.2246467991473532e-16 1
vn 0 1.2246467991473532e-16 1
vn 0 -1.2246467991473532e-16 -1
vn 0 -1.2246467991473532e-16 -1
vn 0 -1.2246467991473532e-16 -1
vn 0 -1.2246467991473532e-16 -1
vn 0 1.2246467991473532e-16 1
vn 0 1.2246467991473532e-16 1
vn 0 1.2246467991473532e-16 1
vn 0 1.2246467991473532e-16 1
vn 0 -1.2246467991473532e-16 -1
vn 0 -1.2246467991473532e-16 -1
vn 0 -1.2246467991473532e-16 -1
vn 0 -1.2246467991473532e-16 -1
vn 0 1.2246467991473532e-16 1
vn 0 1.2246467991473532e-16 1
vn 0 1.2246467991473532e-16 1
vn 0 1.2246467991473532e-16 1
vn -1 0 0
vn -1 0 0
vn -1 0 0
vn -1 0 0
vn -1 0 0
vn -1 0 0
vn -1 0 0
vn -1 0 0
vn -1 0 0
vn -1 0 0
vn -1 0 0
vn -1 0 0
vn -1 0 0
vn -1 0 0
vn -1 0 0
vn -1 0 0
vn -1 0 0
vn -1 0 0
vn -1 0 0
vn -1 0 0
vn -1 0 0
vn -1 0 0
vn -1 0 0
vn -1 0 0
vn -1 0 0
vn -1 0 0
vn -1 0 0
vn -1 0 0
vn 0 -1.2246467991473532e-16 -1
vn 0 -1.2246467991473532e-16 -1
vn 0 -1.2246467991473532e-16 -1
vn 0 -1.2246467991473532e-16 -1
vn -1 0 0
vn -1 0 0
vn -1 0 0
vn -1 0 0
vn 0 -1.2246467991473532e-16 -1
vn 0 -1.2246467991473532e-16 -1
vn 0 -1.2246467991473532e-16 -1
vn 0 -1.2246467991473532e-16 -1
vn -1 0 0
vn -1 0 0
vn -1 0 0
vn -1 0 0
vn -1 0 0
vn -1 0 0
vn -1 0 0
vn -1 0 0
vn 0 -1.2246467991473532e-16 -1
vn 0 -1.2246467991473532e-16 -1
vn 0 -1.2246467991473532e-16 -1
vn 0 -1.2246467991473532e-16 -1
vn -1 0 0
vn -1 0 0
vn -1 0 0
vn -1 0 0
vn -1 0 0
vn -1 0 0
vn -1 0 0
vn -1 0 0
vn -1 0 0
vn -1 0 0
vn -1 0 0
vn -1 0 0
vn -1 0 0
vn -1 0 0
vn -1 0 0
vn -1 0 0
vn -1 0 0
vn -1 0 0
vn -1 0 0
vn -1 0 0
vn 0 1.2246467991473532e-16 1
vn 0 1.2246467991473532e-16 1
vn 0 1.2246467991473532e-16 1
vn 0 1.2246467991473532e-16 1
vn -1 0 0
vn -1 0 0
vn -1 0 0
vn -1 0 0
vn 0 1.2246467991473532e-16 1
vn 0 1.2246467991473532e-16 1
vn 0 1.2246467991473532e-16 1
vn 0 1.2246467991473532e-16 1
vn 0 -1.2246467991473532e-16 -1
vn 0 -1.2246467991473532e-16 -1
vn 0 -1.2246467991473532e-16 -1
vn 0 -1.2246467991473532e-16 -1
vn 0 1.2246467991473532e-16 1
vn 0 1.2246467991473532e-16 1
vn 0 1.2246467991473532e-16 1
vn 0 1.2246467991473532e-16 1
vn 0 -1.2246467991473532e-16 -1
vn 0 -1.2246467991473532e-16 -1
vn 0 -1.2246467991473532e-16 -1
vn 0 -1.2246467991473532e-16 -1
vn 0 1.2246467991473532e-16 1
vn 0 1.2246467991473532e-16 1
vn 0 1.2246467991473532e-16 1
vn 0 1.2246467991473532e-16 1
vn 0 -1.2246467991473532e-16 -1
vn 0 -1.2246467991473532e-16 -1
vn 0 -1.2246467991473532e-16 -1
vn 0 -1.2246467991473532e-16 -1
vn 0 1.2246467991473532e-16 1
vn 0 1.2246467991473532e-16 1
vn 0 1.2246467991473532e-16 1
vn 0 1.2246467991473532e-16 1
vn 0 -1.2246467991473532e-16 -1
vn 0 -1.2246467991473532e-16 -1
vn 0 -1.2246467991473532e-16 -1
vn 0 -1.2246467991473532e-16 -1
vn 0 1.2246467991473532e-16 1
vn 0 1.2246467991473532e-16 1
vn 0 1.2246467991473532e-16 1
vn 0 1.2246467991473532e-16 1
vn 0 -1.2246467991473532e-16 -1
vn 0 -1.2246467991473532e-16 -1
vn 0 -1.2246467991473532e-16 -1
vn 0 -1.2246467991473532e-16 -1
vn 0 1.2246467991473532e-16 1
vn 0 1.2246467991473532e-16 1
vn 0 1.2246467991473532e-16 1
vn 0 1.2246467991473532e-16 1
vn 0 -1.2246467991473532e-16 -1
vn 0 -1.2246467991473532e-16 -1
vn 0 -1.2246467991473532e-16 -1
vn 0 -1.2246467991473532e-16 -1
vn 1 0 0
vn 1 0 0
vn 1 0 0
vn 1 0 0
vn 1 0 0
vn 1 0 0
vn 1 0 0
vn 1 0 0
vn 1 0 0
vn 1 0 0
vn 1 0 0
vn 1 0 0
vn 1 0 0
vn 1 0 0
vn 1 0 0
vn 1 0 0
vn 1 0 0
vn 1 0 0
vn 1 0 0
vn 1 0 0
vn 1 0 0
vn 1 0 0
vn 1 0 0
vn 1 0 0
vn 1 0 0
vn 1 0 0
vn 1 0 0
vn 1 0 0
vn 1 0 0
vn 1 0 0
vn 1 0 0
vn 1 0 0
vn 0 1.2246467991473532e-16 1
vn 0 1.2246467991473532e-16 1
vn 0 1.2246467991473532e-16 1
vn 0 1.2246467991473532e-16 1
f 403/403/403 402/402/402 401/401/401
f 402/402/402 403/403/403 404/404/404
f 407/407/407 406/406/406 405/405/405
f 406/406/406 407/407/407 408/408/408
f 411/411/411 410/410/410 409/409/409
f 410/410/410 411/411/411 412/412/412
f 415/415/415 414/414/414 413/413/413
f 414/414/414 415/415/415 416/416/416
f 419/419/419 418/418/418 417/417/417
f 418/418/418 419/419/419 420/420/420
f 423/423/423 422/422/422 421/421/421
f 422/422/422 423/423/423 424/424/424
f 427/427/427 426/426/426 425/425/425
f 426/426/426 427/427/427 428/428/428
f 431/431/431 430/430/430 429/429/429
f 430/430/430 431/431/431 432/432/432
f 435/435/435 434/434/434 433/433/433
f 434/434/434 435/435/435 436/436/436
f 439/439/439 438/438/438 437/437/437
f 438/438/438 439/439/439 440/440/440
f 443/443/443 442/442/442 441/441/441
f 442/442/442 443/443/443 444/444/444
f 447/447/447 446/446/446 445/445/445
f 446/446/446 447/447/447 448/448/448
f 451/451/451 450/450/450 449/449/449
f 450/450/450 451/451/451 452/452/452
f 455/455/455 454/454/454 453/453/453
f 454/454/454 455/455/455 456/456/456
f 459/459/459 458/458/458 457/457/457
f 458/458/458 459/459/459 460/460/460
f 463/463/463 462/462/462 461/461/461
f 462/462/462 463/463/463 464/464/464
f 467/467/467 466/466/466 465/465/465
f 466/466/466 467/467/467 468/468/468
f 471/471/471 470/470/470 469/469/469
f 470/470/470 471/471/471 472/472/472
f 475/475/475 474/474/474 473/473/473
f 474/474/474 475/475/475 476/476/476
f 479/479/479 478/478/478 477/477/477
f 478/478/478 479/479/479 480/480/480
f 483/483/483 482/482/482 481/481/481
f 482/482/482 483/483/483 484/484/484
f 487/487/487 486/486/486 485/485/485
f 486/486/486 487/487/487 488/488/488
f 491/491/491 490/490/490 489/489/489
f 490/490/490 491/491/491 492/492/492
f 495/495/495 494/494/494 493/493/493
f 494/494/494 495/495/495 496/496/496
f 499/499/499 498/498/498 497/497/497
f 498/498/498 499/499/499 500/500/500
f 503/503/503 502/502/502 501/501/501
f 502/502/502 503/503/503 504/504/504
f 507/507/507 506/506/506 505/505/505
f 506/506/506 507/507/507 508/508/508
f 511/511/511 510/510/510 509/509/509
f 510/510/510 511/511/511 512/512/512
f 515/515/515 514/514/514 513/513/513
f 514/514/514 515/515/515 516/516/516
f 519/519/519 518/518/518 517/517/517
f 518/518/518 519/519/519 520/520/520
f 523/523/523 522/522/522 521/521/521
f 522/522/522 523/523/523 524/524/524
f 527/527/527 526/526/526 525/525/525
f 526/526/526 527/527/527 528/528/528
f 531/531/531 530/530/530 529/529/529
f 530/530/530 531/531/531 532/532/532
f 535/535/535 534/534/534 533/533/533
f 534/534/534 535/535/535 536/536/536
f 539/539/539 538/538/538 537/537/537
f 538/538/538 539/539/539 540/540/540
f 543/543/543 542/542/542 541/541/541
f 542/542/542 543/543/543 544/544/544
f 547/547/547 546/546/546 545/545/545
f 546/546/546 547/547/547 548/548/548
f 551/551/551 550/550/550 549/549/549
f 550/550/550 551/551/551 552/552/552
f 555/555/555 554/554/554 553/553/553
f 554/554/554 555/555/555 556/556/556
f 559/559/559 558/558/558 557/557/557
f 558/558/558 559/559/559 560/560/560
f 563/563/563 562/562/562 561/561/561
f 562/562/562 563/563/563 564/564/564
f 567/567/567 566/566/566 565/565/565
f 566/566/566 567/567/567 568/568/568
f 571/571/571 570/570/570 569/569/569
f 570/570/570 571/571/571 572/572/572
f 575/575/575 574/574/574 573/573/573
f 574/574/574 575/575/575 576/576/576
f 579/579/579 578/578/578 577/577/577
f 578/578/578 579/579/579 580/580/580
f 583/583/583 582/582/582 581/581/581
f 582/582/582 583/583/583 584/584/584
f 587/587/587 586/586/586 585/585/585
f 586/586/586 587/587/587 588/588/588
f 591/591/591 590/590/590 589/589/589
f 590/590/590 591/591/591 592/592/592
f 595/595/595 594/594/594 593/593/593
f 594/594/594 595/595/595 596/596/596
f 599/599/599 598/598/598 597/597/597
f 598/598/598 599/599/599 600/600/600
f 603/603/603 602/602/602 601/601/601
f 602/602/602 603/603/603 604/604/604
f 607/607/607 606/606/606 605/605/605
f 606/606/606 607/607/607 608/608/608
f 611/611/611 610/610/610 609/609/609
f 610/610/610 611/611/611 612/612/612
f 615/615/615 614/614/614 613/613/613
f 614/614/614 615/615/615 616/616/616
f 619/619/619 618/618/618 617/617/617
f 618/618/618 619/619/619 620/620/620
f 623/623/623 622/622/622 621/621/621
f 622/622/622 623/623/623 624/624/624
f 627/627/627 626/626/626 625/625/625
f 626/626/626 627/627/627 628/628/628
f 631/631/631 630/630/630 629/629/629
f 630/630/630 631/631/631 632/632/632
f 635/635/635 634/634/634 633/633/633
f 634/634/634 635/635/635 636/636/636
f 639/639/639 638/638/638 637/637/637
f 638/638/638 639/639/639 640/640/640
f 643/643/643 642/642/642 641/641/641
f 642/642/642 643/643/643 644/644/644
f 647/647/647 646/646/646 645/645/645
f 646/646/646 647/647/647 648/648/648
f 651/651/651 650/650/650 649/649/649
f 650/650/650 651/651/651 652/652/652
f 655/655/655 654/654/654 653/653/653
f 654/654/654 655/655/655 656/656/656
f 659/659/659 658/658/658 657/657/657
f 658/658/658 659/659/659 660/660/660
f 663/663/663 662/662/662 661/661/661
f 662/662/662 663/663/663 664/664/664
f 667/667/667 666/666/666 665/665/665
f 666/666/666 667/667/667 668/668/668
f 671/671/671 670/670/670 669/669/669
f 670/670/670 671/671/671 672/672/672
f 675/675/675 674/674/674 673/673/673
f 674/674/674 675/675/675 676/676/676
f 679/679/679 678/678/678 677/677/677
f 678/678/678 679/679/679 680/680/680
f 683/683/683 682/682/682 681/681/681
f 682/682/682 683/683/683 684/684/684
f 687/687/687 686/686/686 685/685/685
f 686/686/686 687/687/687 688/688/688
f 691/691/691 690/690/690 689/689/689
f 690/690/690 691/691/691 692/692/692
f 695/695/695 694/694/694 693/693/693
f 694/694/694 695/695/695 696/696/696
f 699/699/699 698/698/698 697/697/697
f 698/698/698 699/699/699 700/700/700
f 703/703/703 702/702/702 701/701/701
f 702/702/702 703/703/703 704/704/704
f 707/707/707 706/706/706 705/705/705
f 706/706/706 707/707/707 708/708/708
f 711/711/711 710/710/710 709/709/709
f 710/710/710 711/711/711 712/712/712
f 715/715/715 714/714/714 713/713/713
f 714/714/714 715/715/715 716/716/716
f 719/719/719 718/718/718 717/717/717
f 718/718/718 719/719/719 720/720/720
f 723/723/723 722/722/722 721/721/721
f 722/722/722 723/723/723 724/724/724
f 727/727/727 726/726/726 725/725/725
f 726/726/726 727/727/727 728/728/728
f 731/731/731 730/730/730 729/729/729
f 730/730/730 731/731/731 732/732/732
f 735/735/735 734/734/734 733/733/733
f 734/734/734 735/735/735 736/736/736
f 739/739/739 738/738/738 737/737/737
f 738/738/738 739/739/739 740/740/740
f 743/743/743 742/742/742 741/741/741
f 742/742/742 743/743/743 744/744/744
f 747/747/747 746/746/746 745/745/745
f 746/746/746 747/747/747 748/748/748
f 751/751/751 750/750/750 749/749/749
f 750/750/750 751/751/751 752/752/752
f 755/755/755 754/754/754 753/753/753
f 754/754/754 755/755/755 756/756/756
f 759/759/759 758/758/758 757/757/757
f 758/758/758 759/759/759 760/760/760
f 763/763/763 762/762/762 761/761/761
f 762/762/762 763/763/763 764/764/764
f 767/767/767 766/766/766 765/765/765
f 766/766/766 767/767/767 768/768/768
f 771/771/771 770/770/770 769/769/769
f 770/770/770 771/771/771 772/772/772
f 775/775/775 774/774/774 773/773/773
f 774/774/774 775/775/775 776/776/776
f 779/779/779 778/778/778 777/777/777
f 778/778/778 779/779/779 780/780/780
f 783/783/783 782/782/782 781/781/781
f 782/782/782 783/783/783 784/784/784
f 787/787/787 786/786/786 785/785/785
f 786/786/786 787/787/787 788/788/788
f 791/791/791 790/790/790 789/789/789
f 790/790/790 791/791/791 792/792/792
f 795/795/795 794/794/794 793/793/793
f 794/794/794 795/795/795 796/796/796
f 799/799/799 798/798/798 797/797/797
f 798/798/798 799/799/799 800/800/800
f 803/803/803 802/802/802 801/801/801
f 802/802/802 803/803/803 804/804/804
f 807/807/807 806/806/806 805/805/805
f 806/806/806 807/807/807 808/808/808
f 811/811/811 810/810/810 809/809/809
f 810/810/810 811/811/811 812/812/812
f 815/815/815 814/814/814 813/813/813
f 814/814/814 815/815/815 816/816/816
f 819/819/819 818/818/818 817/817/817
f 818/818/818 819/819/819 820/820/820
f 823/823/823 822/822/822 821/821/821
f 822/822/822 823/823/823 824/824/824
f 827/827/827 826/826/826 825/825/825
f 826/826/826 827/827/827 828/828/828
f 831/831/831 830/830/830 829/829/829
f 830/830/830 831/831/831 832/832/832
f 835/835/835 834/834/834 833/833/833
f 834/834/834 835/835/835 836/836/836
f 839/839/839 838/838/838 837/837/837
f 838/838/838 839/839/839 840/840/840
f 843/843/843 842/842/842 841/841/841
f 842/842/842 843/843/843 844/844/844
f 847/847/847 846/846/846 845/845/845
f 846/846/846 847/847/847 848/848/848
f 851/851/851 850/850/850 849/849/849
f 850/850/850 851/851/851 852/852/852
f 855/855/855 854/854/854 853/853/853
f 854/854/854 855/855/855 856/856/856
f 859/859/859 858/858/858 857/857/857
f 858/858/858 859/859/859 860/860/860
f 863/863/863 862/862/862 861/861/861
f 862/862/862 863/863/863 864/864/864
f 867/867/867 866/866/866 865/865/865
f 866/866/866 867/867/867 868/868/868
f 871/871/871 870/870/870 869/869/869
f 870/870/870 871/871/871 872/872/872
f 875/875/875 874/874/874 873/873/873
f 874/874/874 875/875/875 876/876/876
f 879/879/879 878/878/878 877/877/877
f 878/878/878 879/879/879 880/880/880
f 883/883/883 882/882/882 881/881/881
f 882/882/882 883/883/883 884/884/884
f 887/887/887 886/886/886 885/885/885
f 886/886/886 887/887/887 888/888/888
f 891/891/891 890/890/890 889/889/889
f 890/890/890 891/891/891 892/892/892
f 895/895/895 894/894/894 893/893/893
f 894/894/894 895/895/895 896/896/896
f 899/899/899 898/898/898 897/897/897
f 898/898/898 899/899/899 900/900/900
f 903/903/903 902/902/902 901/901/901
f 902/902/902 903/903/903 904/904/904
f 907/907/907 906/906/906 905/905/905
f 906/906/906 907/907/907 908/908/908
f 911/911/911 910/910/910 909/909/909
f 910/910/910 911/911/911 912/912/912
