{"asset":{"version":"2.0","generator":"GLTFExporter"},"scenes":[{"name":"AuxScene","nodes":[1]}],"scene":0,"nodes":[{"rotation":[1,0,0,6.123233995736766e-17],"scale":[0.1,0.1,0.1],"mesh":0},{"children":[0]}],"bufferViews":[{"buffer":0,"byteOffset":0,"byteLength":12096,"target":34962,"byteStride":12},{"buffer":0,"byteOffset":12096,"byteLength":12096,"target":34962,"byteStride":12},{"buffer":0,"byteOffset":24192,"byteLength":8064,"target":34962,"byteStride":8},{"buffer":0,"byteOffset":32256,"byteLength":12096,"target":34962,"byteStride":12},{"buffer":0,"byteOffset":44352,"byteLength":3024,"target":34963}],"buffers":[{"byteLength":47376,"uri":"data:application/octet-stream;base64,"}],"accessors":[{"bufferView":0,"componentType":5126,"count":1008,"max":[1792,0,1792],"min":[0,-64,0],"type":"VEC3"},{"bufferView":1,"componentType":5126,"count":1008,"max":[0.501960813999176,0.9686274528503418,1],"min":[0,0,0.501960813999176],"type":"VEC3"},{"bufferView":2,"componentType":5126,"count":1008,"max":[0.49609375,0.5],"min":[0.25,0.25390625],"type":"VEC2"},{"bufferView":3,"componentType":5126,"count":1008,"max":[1,0,1],"min":[-1,-1,-1],"type":"VEC3"},{"bufferView":4,"componentType":5123,"count":1512,"max":[1007],"min":[0],"type":"SCALAR"}],"materials":[{"pbrMetallicRoughness":{"metallicFactor":0,"roughnessFactor":0.9,"baseColorTexture":{"index":0}},"extensions":{"KHR_materials_unlit":{}},"alphaMode":"BLEND","doubleSided":false}],"textures":[{"sampler":0,"source":0}],"samplers":[{"magFilter":9728,"minFilter":9728,"wrapS":10497,"wrapT":10497}],"images":[{"mimeType":"image/png","uri":"MAP430_0.png"}],"meshes":[{"primitives":[{"mode":4,"attributes":{"POSITION":0,"COLOR_0":1,"TEXCOORD_0":2,"NORMAL":3},"indices":4,"material":0}]}],"extensionsUsed":["KHR_materials_unlit"]}