mtllib 1D.WEP_posed.mtl
usemtl mat0
v -76 -8 2.000000000000001
v -76 9.797174393178826e-16 8
v -76 7 1.9999999999999991
v -86 7 1.9999999999999991
v -86 9.797174393178826e-16 8
v -86 -8 2.000000000000001
v 29 14 -6.000000000000002
v 29 -14 -5.999999999999998
v 41 -7.347880794884119e-16 -6
v 29 -14 6.000000000000002
v 29 14 5.999999999999998
v 41 7.347880794884119e-16 6
v 52 -29 -5.9999999999999964
v 55 -11 1.3471114790620886e-15
v 41 -7.347880794884119e-16 -6
v 52 -29 6.0000000000000036
v 55 -11 1.3471114790620886e-15
v 52 -29 -5.9999999999999964
v 52 -29 6.0000000000000036
v 41 7.347880794884119e-16 6
v 55 -11 1.3471114790620886e-15
v 55 11 -1.3471114790620886e-15
v 52 29 -6.0000000000000036
v 41 -7.347880794884119e-16 -6
v 55 11 -1.3471114790620886e-15
v 52 29 5.9999999999999964
v 52 29 -6.0000000000000036
v 41 7.347880794884119e-16 6
v 52 29 5.9999999999999964
v 55 11 -1.3471114790620886e-15
v 55 11 -1.3471114790620886e-15
v 120 15 -1.83697019872103e-15
v 41 7.347880794884119e-16 6
v 120 15 -1.83697019872103e-15
v 120 -0.9999999999999993 5
v 41 7.347880794884119e-16 6
v 120 -1.0000000000000007 -5
v 120 15 -1.83697019872103e-15
v 41 -7.347880794884119e-16 -6
v 120 15 -1.83697019872103e-15
v 55 11 -1.3471114790620886e-15
v 41 -7.347880794884119e-16 -6
v 120 -0.9999999999999993 5
v 120 -16 1.959434878635765e-15
v 41 7.347880794884119e-16 6
v 120 -16 1.959434878635765e-15
v 55 -11 1.3471114790620886e-15
v 41 7.347880794884119e-16 6
v 55 -11 1.3471114790620886e-15
v 120 -16 1.959434878635765e-15
v 41 -7.347880794884119e-16 -6
v 120 -16 1.959434878635765e-15
v 120 -1.0000000000000007 -5
v 41 -7.347880794884119e-16 -6
v 246 18 -2.204364238465236e-15
v 352 16 -1.959434878635765e-15
v 246 -0.9999999999999993 5
v 352 16 -1.959434878635765e-15
v 359 0 0
v 246 -0.9999999999999993 5
v 359 0 0
v 352 16 -1.959434878635765e-15
v 246 -1.0000000000000007 -5
v 352 16 -1.959434878635765e-15
v 246 18 -2.204364238465236e-15
v 246 -1.0000000000000007 -5
v 359 0 0
v 352 -17 2.0818995585505003e-15
v 246 -0.9999999999999993 5
v 352 -17 2.0818995585505003e-15
v 246 -18 2.204364238465236e-15
v 246 -0.9999999999999993 5
v 246 -18 2.204364238465236e-15
v 352 -17 2.0818995585505003e-15
v 246 -1.0000000000000007 -5
v 352 -17 2.0818995585505003e-15
v 359 0 0
v 246 -1.0000000000000007 -5
v 120 15 -1.83697019872103e-15
v 246 18 -2.204364238465236e-15
v 120 -0.9999999999999993 5
v 246 -0.9999999999999993 5
v 120 -1.0000000000000007 -5
v 246 -1.0000000000000007 -5
v 120 15 -1.83697019872103e-15
v 246 18 -2.204364238465236e-15
v 120 -0.9999999999999993 5
v 246 -0.9999999999999993 5
v 120 -16 1.959434878635765e-15
v 246 -18 2.204364238465236e-15
v 120 -16 1.959434878635765e-15
v 246 -18 2.204364238465236e-15
v 120 -1.0000000000000007 -5
v 246 -1.0000000000000007 -5
v -76 3.999999999999999 -7.000000000000001
v -76 -5.000000000000001 -6.999999999999999
v -76 7 1.9999999999999991
v -76 -8 2.000000000000001
v -86 -5.000000000000001 -6.999999999999999
v -86 3.999999999999999 -7.000000000000001
v -86 -8 2.000000000000001
v -86 7 1.9999999999999991
v -86 7 1.9999999999999991
v -76 7 1.9999999999999991
v -86 9.797174393178826e-16 8
v -76 9.797174393178826e-16 8
v -86 3.999999999999999 -7.000000000000001
v -76 3.999999999999999 -7.000000000000001
v -86 7 1.9999999999999991
v -76 7 1.9999999999999991
v -86 -5.000000000000001 -6.999999999999999
v -76 -5.000000000000001 -6.999999999999999
v -86 3.999999999999999 -7.000000000000001
v -76 3.999999999999999 -7.000000000000001
v -86 -8 2.000000000000001
v -76 -8 2.000000000000001
v -86 -5.000000000000001 -6.999999999999999
v -76 -5.000000000000001 -6.999999999999999
v -86 9.797174393178826e-16 8
v -76 9.797174393178826e-16 8
v -86 -8 2.000000000000001
v -76 -8 2.000000000000001
v 27 29 5.9999999999999964
v 52 29 5.9999999999999964
v 29 14 5.999999999999998
v 41 7.347880794884119e-16 6
v 27 -29 -5.9999999999999964
v 52 -29 -5.9999999999999964
v 29 -14 -5.999999999999998
v 41 -7.347880794884119e-16 -6
v 41 7.347880794884119e-16 6
v 52 -29 6.0000000000000036
v 29 -14 6.000000000000002
v 27 -29 6.0000000000000036
v 41 -7.347880794884119e-16 -6
v 52 29 -6.0000000000000036
v 29 14 -6.000000000000002
v 27 29 -6.0000000000000036
v -25 5 -6.123233995736766e-16
v -25 6.123233995736766e-16 5
v -77 4 -4.898587196589413e-16
v -77 4.898587196589413e-16 4
v -25 6.123233995736766e-16 5
v -25 5 -6.123233995736766e-16
v 29 4.898587196589413e-16 4
v 29 4 -4.898587196589413e-16
v -77 -4.898587196589413e-16 -4
v -25 -6.123233995736766e-16 -5
v -77 4 -4.898587196589413e-16
v -25 5 -6.123233995736766e-16
v -25 5 -6.123233995736766e-16
v -25 -6.123233995736766e-16 -5
v 29 4 -4.898587196589413e-16
v 29 -4.898587196589413e-16 -4
v 29 -5 6.123233995736766e-16
v -25 -6 7.347880794884119e-16
v 29 4.898587196589413e-16 4
v -25 6.123233995736766e-16 5
v -25 6.123233995736766e-16 5
v -25 -6 7.347880794884119e-16
v -77 4.898587196589413e-16 4
v -77 -5 6.123233995736766e-16
v -77 -5 6.123233995736766e-16
v -25 -6 7.347880794884119e-16
v -77 -4.898587196589413e-16 -4
v -25 -6.123233995736766e-16 -5
v -25 -6.123233995736766e-16 -5
v -25 -6 7.347880794884119e-16
v 29 -4.898587196589413e-16 -4
v 29 -5 6.123233995736766e-16
v -77 4 -4.898587196589413e-16
v -77 4.898587196589413e-16 4
v -77 -4.898587196589413e-16 -4
v -77 -5 6.123233995736766e-16
v 27 29 -6.0000000000000036
v 27 29 5.9999999999999964
v 29 14 -6.000000000000002
v 29 14 5.999999999999998
v 52 29 -6.0000000000000036
v 52 29 5.9999999999999964
v 27 29 -6.0000000000000036
v 27 29 5.9999999999999964
v 27 -29 -5.9999999999999964
v 27 -29 6.0000000000000036
v 52 -29 -5.9999999999999964
v 52 -29 6.0000000000000036
v 29 -14 -5.999999999999998
v 29 -14 6.000000000000002
v 27 -29 -5.9999999999999964
v 27 -29 6.0000000000000036
v 29 14 5.999999999999998
v 29 -14 6.000000000000002
v 29 14 -6.000000000000002
v 29 -14 -5.999999999999998
vt 0.03125 0.03125
vt 0.046875 0.09375
vt 0.03125 0.15625
vt 0.015625 0.625
vt 0.0078125 0.59375
vt 0.015625 0.53125
vt 0.2265625 0.6875
vt 0.0625 0.6875
vt 0.140625 0.84375
vt 0.0625 0.6875
vt 0.2265625 0.6875
vt 0.140625 0.84375
vt 0.0078125 0.9375
vt 0.1171875 0.9375
vt 0.140625 0.84375
vt 0.578125 0.6875
vt 0.6015625 0.8125
vt 0.578125 0.9375
vt 0.0078125 0.9375
vt 0.140625 0.84375
vt 0.1171875 0.9375
vt 0.1640625 0.9375
vt 0.28125 0.9375
vt 0.140625 0.84375
vt 0.2890625 0.8125
vt 0.3125 0.6875
vt 0.3125 0.9375
vt 0.140625 0.84375
vt 0.28125 0.9375
vt 0.1640625 0.9375
vt 0.921875 0.65625
vt 0.7421875 0.65625
vt 0.984375 0.34375
vt 0.7421875 0.65625
vt 0.7421875 0.34375
vt 0.984375 0.34375
vt 0.7421875 0.34375
vt 0.7421875 0.65625
vt 0.984375 0.34375
vt 0.7421875 0.65625
vt 0.921875 0.65625
vt 0.984375 0.34375
vt 0.7421875 0.34375
vt 0.7421875 0.03125
vt 0.984375 0.34375
vt 0.7421875 0.03125
vt 0.921875 0.03125
vt 0.984375 0.34375
vt 0.921875 0.03125
vt 0.7421875 0.03125
vt 0.984375 0.34375
vt 0.7421875 0.03125
vt 0.7421875 0.34375
vt 0.984375 0.34375
vt 0.359375 0.65625
vt 0.0546875 0.65625
vt 0.359375 0.34375
vt 0.0546875 0.65625
vt 0.0546875 0.34375
vt 0.359375 0.34375
vt 0.0546875 0.34375
vt 0.0546875 0.65625
vt 0.359375 0.34375
vt 0.0546875 0.65625
vt 0.359375 0.65625
vt 0.359375 0.34375
vt 0.0546875 0.34375
vt 0.0546875 0.03125
vt 0.359375 0.34375
vt 0.0546875 0.03125
vt 0.359375 0.03125
vt 0.359375 0.34375
vt 0.359375 0.03125
vt 0.0546875 0.03125
vt 0.359375 0.34375
vt 0.0546875 0.03125
vt 0.0546875 0.34375
vt 0.359375 0.34375
vt 0.7421875 0.65625
vt 0.359375 0.65625
vt 0.7421875 0.34375
vt 0.359375 0.34375
vt 0.7421875 0.34375
vt 0.359375 0.34375
vt 0.7421875 0.65625
vt 0.359375 0.65625
vt 0.7421875 0.34375
vt 0.359375 0.34375
vt 0.7421875 0.03125
vt 0.359375 0.03125
vt 0.7421875 0.03125
vt 0.359375 0.03125
vt 0.7421875 0.34375
vt 0.359375 0.34375
vt 0.015625 0.09375
vt 0.015625 0.03125
vt 0.03125 0.15625
vt 0.03125 0.03125
vt 0.03125 0.53125
vt 0.03125 0.625
vt 0.015625 0.53125
vt 0.015625 0.625
vt 0.984375 0.875
vt 0.953125 0.875
vt 0.984375 0.78125
vt 0.953125 0.78125
vt 0.984375 0.9375
vt 0.953125 0.9375
vt 0.984375 0.875
vt 0.953125 0.875
vt 0.984375 0.78125
vt 0.953125 0.78125
vt 0.984375 0.875
vt 0.953125 0.875
vt 0.984375 0.6875
vt 0.953125 0.6875
vt 0.984375 0.78125
vt 0.953125 0.78125
vt 0.984375 0.78125
vt 0.953125 0.78125
vt 0.984375 0.6875
vt 0.953125 0.6875
vt 0.28125 0.6875
vt 0.28125 0.9375
vt 0.2265625 0.6875
vt 0.140625 0.84375
vt 0.0078125 0.6875
vt 0.0078125 0.9375
vt 0.0625 0.6875
vt 0.140625 0.84375
vt 0.140625 0.84375
vt 0.0078125 0.9375
vt 0.0625 0.6875
vt 0.0078125 0.6875
vt 0.140625 0.84375
vt 0.28125 0.9375
vt 0.2265625 0.6875
vt 0.28125 0.6875
vt 0.78125 0.9375
vt 0.78125 0.8125
vt 0.9453125 0.9375
vt 0.9453125 0.8125
vt 0.78125 0.8125
vt 0.78125 0.9375
vt 0.609375 0.8125
vt 0.609375 0.9375
vt 0.9453125 0.8125
vt 0.78125 0.8125
vt 0.9453125 0.9375
vt 0.78125 0.9375
vt 0.78125 0.9375
vt 0.78125 0.8125
vt 0.609375 0.9375
vt 0.609375 0.8125
vt 0.609375 0.6875
vt 0.78125 0.6875
vt 0.609375 0.8125
vt 0.78125 0.8125
vt 0.78125 0.8125
vt 0.78125 0.6875
vt 0.9453125 0.8125
vt 0.9453125 0.6875
vt 0.9453125 0.6875
vt 0.78125 0.6875
vt 0.9453125 0.8125
vt 0.78125 0.8125
vt 0.78125 0.8125
vt 0.78125 0.6875
vt 0.609375 0.8125
vt 0.609375 0.6875
vt 0 0
vt 0 0
vt 0 0
vt 0 0
vt 0.3515625 0.9375
vt 0.3515625 0.6875
vt 0.40625 0.9375
vt 0.40625 0.6875
vt 0.3125 0.9375
vt 0.3125 0.6875
vt 0.3515625 0.9375
vt 0.3515625 0.6875
vt 0.546875 0.9375
vt 0.546875 0.6875
vt 0.578125 0.9375
vt 0.578125 0.6875
vt 0.4921875 0.9375
vt 0.4921875 0.6875
vt 0.546875 0.9375
vt 0.546875 0.6875
vt 0.40625 0.6875
vt 0.4921875 0.6875
vt 0.40625 0.9375
vt 0.4921875 0.9375
vn 1 0 0
vn 1 0 0
vn 1 0 0
vn -1 0 0
vn -1 0 0
vn -1 0 0
vn 0 -1.2246467991473532e-16 -1
vn 0 -1.2246467991473532e-16 -1
vn 0 -1.2246467991473532e-16 -1
vn 0 1.2246467991473532e-16 1
vn 0 1.2246467991473532e-16 1
vn 0 1.2246467991473532e-16 1
vn 0.5111967892140827 0.19390222319788453 -0.8373050642006952
vn 0.5111967892140827 0.19390222319788453 -0.8373050642006952
vn 0.5111967892140827 0.19390222319788453 -0.8373050642006952
vn 0.986393924637612 -0.16439898247254828 2.0133068766808807e-17
vn 0.986393924637612 -0.16439898247254828 2.0133068766808807e-17
vn 0.986393924637612 -0.16439898247254828 2.0133068766808807e-17
vn 0.5111967892140827 0.19390222319788475 0.8373050642006952
vn 0.5111967892140827 0.19390222319788475 0.8373050642006952
vn 0.5111967892140827 0.19390222319788475 0.8373050642006952
vn 0.5111967892140827 -0.19390222319788475 -0.8373050642006952
vn 0.5111967892140827 -0.19390222319788475 -0.8373050642006952
vn 0.5111967892140827 -0.19390222319788475 -0.8373050642006952
vn 0.986393924637612 0.16439898247254828 -2.0133068766808807e-17
vn 0.986393924637612 0.16439898247254828 -2.0133068766808807e-17
vn 0.986393924637612 0.16439898247254828 -2.0133068766808807e-17
vn 0.5111967892140827 -0.19390222319788453 0.8373050642006952
vn 0.5111967892140827 -0.19390222319788453 0.8373050642006952
vn 0.5111967892140827 -0.19390222319788453 0.8373050642006952
vn -0.031326226406998996 0.5090511958775399 0.8601659999760186
vn -0.031326226406998996 0.5090511958775399 0.8601659999760186
vn -0.031326226406998996 0.5090511958775399 0.8601659999760186
vn 0.015855664106996105 0.29823749730168553 0.9543599913653933
vn 0.015855664106996105 0.29823749730168553 0.9543599913653933
vn 0.015855664106996105 0.29823749730168553 0.9543599913653933
vn 0.015855664106996105 0.2982374973016853 -0.9543599913653933
vn 0.015855664106996105 0.2982374973016853 -0.9543599913653933
vn 0.015855664106996105 0.2982374973016853 -0.9543599913653933
vn -0.03132622640699899 0.5090511958775396 -0.8601659999760187
vn -0.03132622640699899 0.5090511958775396 -0.8601659999760187
vn -0.03132622640699899 0.5090511958775396 -0.8601659999760187
vn 0.008005509896477914 -0.31621762368141026 0.9486529008465528
vn 0.008005509896477914 -0.31621762368141026 0.9486529008465528
vn 0.008005509896477914 -0.31621762368141026 0.9486529008465528
vn -0.03977000017778042 -0.5170099799594033 0.8550549851958276
vn -0.03977000017778042 -0.5170099799594033 0.8550549851958276
vn -0.03977000017778042 -0.5170099799594033 0.8550549851958276
vn -0.03977000017778042 -0.5170099799594036 -0.8550549851958273
vn -0.03977000017778042 -0.5170099799594036 -0.8550549851958273
vn -0.03977000017778042 -0.5170099799594036 -0.8550549851958273
vn 0.008005509896477912 -0.31621762368141043 -0.9486529008465526
vn 0.008005509896477912 -0.31621762368141043 -0.9486529008465526
vn 0.008005509896477912 -0.31621762368141043 -0.9486529008465526
vn 0.0048017051001379134 0.25449038008619673 0.9670633847229013
vn 0.0048017051001379134 0.25449038008619673 0.9670633847229013
vn 0.0048017051001379134 0.25449038008619673 0.9670633847229013
vn 0.04402621062892499 0.019261468081477374 0.9988446769268
vn 0.04402621062892499 0.019261468081477374 0.9988446769268
vn 0.04402621062892499 0.019261468081477374 0.9988446769268
vn 0.04402621062892499 0.01926146808147713 -0.9988446769268
vn 0.04402621062892499 0.01926146808147713 -0.9988446769268
vn 0.04402621062892499 0.01926146808147713 -0.9988446769268
vn 0.0048017051001379134 0.2544903800861965 -0.9670633847229013
vn 0.0048017051001379134 0.2544903800861965 -0.9670633847229013
vn 0.0048017051001379134 0.2544903800861965 -0.9670633847229013
vn 0.04435848502987981 -0.01826525876084982 0.9988486898065458
vn 0.04435848502987981 -0.01826525876084982 0.9988486898065458
vn 0.04435848502987981 -0.01826525876084982 0.9988486898065458
vn 0.0026619369536413882 -0.2821653226739226 0.9593621030518017
vn 0.0026619369536413882 -0.2821653226739226 0.9593621030518017
vn 0.0026619369536413882 -0.2821653226739226 0.9593621030518017
vn 0.0026619369536413882 -0.2821653226739228 -0.9593621030518017
vn 0.0026619369536413882 -0.2821653226739228 -0.9593621030518017
vn 0.0026619369536413882 -0.2821653226739228 -0.9593621030518017
vn 0.04435848502987981 -0.018265258760850063 -0.9988486898065458
vn 0.04435848502987981 -0.018265258760850063 -0.9988486898065458
vn 0.04435848502987981 -0.018265258760850063 -0.9988486898065458
vn -0.0071016065321020064 0.2982674817988649 0.9544559059935808
vn -0.0032704721111128047 0.2747196508142178 0.9615188076520838
vn -0.0032704721111128047 0.2747196508142178 0.9615188076520838
vn 0 0.2544933022135514 0.9670745364905655
vn 0 0.29827498974208794 -0.9544799790956106
vn -0.0032704721111128047 0.27471965081421756 -0.9615188076520838
vn -0.0032704721111128047 0.27471965081421756 -0.9615188076520838
vn -0.006059252982548781 0.2544886112972104 -0.9670567884945077
vn 0 -0.31622775707614126 0.9486833010307459
vn -0.0023672552616783417 -0.2982741573835355 0.954477303627314
vn -0.0023672552616783417 -0.2982741573835355 0.954477303627314
vn -0.004478785617208518 -0.2821634971437655 0.9593558783678743
vn -0.0050194249972647514 -0.3162237734306956 -0.9486713500944092
vn -0.0023672552616783417 -0.29827415738353574 -0.954477303627314
vn -0.0023672552616783417 -0.29827415738353574 -0.954477303627314
vn 0 -0.2821663352860611 -0.9593654982493556
vn 1 0 0
vn 1 0 0
vn 1 0 0
vn 1 0 0
vn -1 0 0
vn -1 0 0
vn -1 0 0
vn -1 0 0
vn 0 0.6507913587301148 0.7592566149874567
vn 0 0.6507913587301148 0.7592566149874567
vn 0 0.6507913587301148 0.7592566149874567
vn 0 0.6507913587301148 0.7592566149874567
vn 0 0.9486833010307459 -0.3162277570761415
vn 0 0.9486833010307459 -0.3162277570761415
vn 0 0.9486833010307459 -0.3162277570761415
vn 0 0.9486833010307459 -0.3162277570761415
vn 0 -1.2246467991473532e-16 -1
vn 0 -1.2246467991473532e-16 -1
vn 0 -1.2246467991473532e-16 -1
vn 0 -1.2246467991473532e-16 -1
vn 0 -0.9486833010307459 -0.31622775707614126
vn 0 -0.9486833010307459 -0.31622775707614126
vn 0 -0.9486833010307459 -0.31622775707614126
vn 0 -0.9486833010307459 -0.31622775707614126
vn 0 -0.6000000095367427 0.7999999928474428
vn 0 -0.6000000095367427 0.7999999928474428
vn 0 -0.6000000095367427 0.7999999928474428
vn 0 -0.6000000095367427 0.7999999928474428
vn 0 1.2246467991473532e-16 1
vn 0 1.2246467991473532e-16 1
vn 0 1.2246467991473532e-16 1
vn 0 1.2246467991473532e-16 1
vn 0 -1.2246467991473532e-16 -1
vn 0 -1.2246467991473532e-16 -1
vn 0 -1.2246467991473532e-16 -1
vn 0 -1.2246467991473532e-16 -1
vn 0 1.2246467991473532e-16 1
vn 0 1.2246467991473532e-16 1
vn 0 1.2246467991473532e-16 1
vn 0 1.2246467991473532e-16 1
vn 0 -1.2246467991473532e-16 -1
vn 0 -1.2246467991473532e-16 -1
vn 0 -1.2246467991473532e-16 -1
vn 0 -1.2246467991473532e-16 -1
vn -0.013596949557863896 0.7070414142618242 0.707041414261824
vn -0.013596949557863896 0.7070414142618242 0.707041414261824
vn -0.013596949557863896 0.7070414142618242 0.707041414261824
vn -0.013596949557863896 0.7070414142618242 0.707041414261824
vn 0.013093447586979504 0.707046165971603 0.7070461659716027
vn 0.013093447586979504 0.707046165971603 0.7070461659716027
vn 0.013093447586979504 0.707046165971603 0.7070461659716027
vn 0.013093447586979504 0.707046165971603 0.7070461659716027
vn -0.013596949557863896 0.707041414261824 -0.7070414142618242
vn -0.013596949557863896 0.707041414261824 -0.7070414142618242
vn -0.013596949557863896 0.707041414261824 -0.7070414142618242
vn -0.013596949557863896 0.707041414261824 -0.7070414142618242
vn 0.013093447586979504 0.7070461659716027 -0.707046165971603
vn 0.013093447586979504 0.7070461659716027 -0.707046165971603
vn 0.013093447586979504 0.7070461659716027 -0.707046165971603
vn 0.013093447586979504 0.7070461659716027 -0.707046165971603
vn 0.011567653022982505 -0.6246532725542808 0.7808165459893682
vn 0.013028478311081886 -0.6331840187239602 0.7738916314223028
vn 0.013028478311081886 -0.6331840187239602 0.7738916314223028
vn 0.014224880694978513 -0.64011962661742 0.7681435519409042
vn -0.014771874138129873 -0.6401145490900364 0.7681374589080439
vn -0.013529483320692353 -0.6331798477206084 0.7738864474337188
vn -0.013529483320692353 -0.6331798477206084 0.7738864474337188
vn -0.012012499417001025 -0.624650003211666 0.7808124444099378
vn -0.012012499417001027 -0.6246500032116663 -0.7808124444099377
vn -0.013529483320692353 -0.6331798477206086 -0.7738864474337186
vn -0.013529483320692353 -0.6331798477206086 -0.7738864474337186
vn -0.014771874138129873 -0.6401145490900366 -0.7681374589080436
vn 0.014224880694978513 -0.6401196266174202 -0.768143551940904
vn 0.013028478311081886 -0.6331840187239605 -0.7738916314223026
vn 0.013028478311081886 -0.6331840187239605 -0.7738916314223026
vn 0.011567653022982505 -0.624653272554281 -0.780816545989368
vn -1 0 0
vn -1 0 0
vn -1 0 0
vn -1 0 0
vn -0.9912279013333404 -0.13216371521072512 1.6185387079623687e-17
vn -0.9912279013333404 -0.13216371521072512 1.6185387079623687e-17
vn -0.9912279013333404 -0.13216371521072512 1.6185387079623687e-17
vn -0.9912279013333404 -0.13216371521072512 1.6185387079623687e-17
vn 0 1 -1.2246467991473532e-16
vn 0 1 -1.2246467991473532e-16
vn 0 1 -1.2246467991473532e-16
vn 0 1 -1.2246467991473532e-16
vn 0 -1 1.2246467991473532e-16
vn 0 -1 1.2246467991473532e-16
vn 0 -1 1.2246467991473532e-16
vn 0 -1 1.2246467991473532e-16
vn -0.9912279013333404 0.13216371521072512 -1.6185387079623687e-17
vn -0.9912279013333404 0.13216371521072512 -1.6185387079623687e-17
vn -0.9912279013333404 0.13216371521072512 -1.6185387079623687e-17
vn -0.9912279013333404 0.13216371521072512 -1.6185387079623687e-17
vn -1 0 0
vn -1 0 0
vn -1 0 0
vn -1 0 0
f 3/3/3 2/2/2 1/1/1
f 6/6/6 5/5/5 4/4/4
f 9/9/9 8/8/8 7/7/7
f 12/12/12 11/11/11 10/10/10
f 15/15/15 14/14/14 13/13/13
f 18/18/18 17/17/17 16/16/16
f 21/21/21 20/20/20 19/19/19
f 24/24/24 23/23/23 22/22/22
f 27/27/27 26/26/26 25/25/25
f 30/30/30 29/29/29 28/28/28
f 33/33/33 32/32/32 31/31/31
f 36/36/36 35/35/35 34/34/34
f 39/39/39 38/38/38 37/37/37
f 42/42/42 41/41/41 40/40/40
f 45/45/45 44/44/44 43/43/43
f 48/48/48 47/47/47 46/46/46
f 51/51/51 50/50/50 49/49/49
f 54/54/54 53/53/53 52/52/52
f 57/57/57 56/56/56 55/55/55
f 60/60/60 59/59/59 58/58/58
f 63/63/63 62/62/62 61/61/61
f 66/66/66 65/65/65 64/64/64
f 69/69/69 68/68/68 67/67/67
f 72/72/72 71/71/71 70/70/70
f 75/75/75 74/74/74 73/73/73
f 78/78/78 77/77/77 76/76/76
f 81/81/81 80/80/80 79/79/79
f 80/80/80 81/81/81 82/82/82
f 85/85/85 84/84/84 83/83/83
f 84/84/84 85/85/85 86/86/86
f 89/89/89 88/88/88 87/87/87
f 88/88/88 89/89/89 90/90/90
f 93/93/93 92/92/92 91/91/91
f 92/92/92 93/93/93 94/94/94
f 97/97/97 96/96/96 95/95/95
f 96/96/96 97/97/97 98/98/98
f 101/101/101 100/100/100 99/99/99
f 100/100/100 101/101/101 102/102/102
f 105/105/105 104/104/104 103/103/103
f 104/104/104 105/105/105 106/106/106
f 109/109/109 108/108/108 107/107/107
f 108/108/108 109/109/109 110/110/110
f 113/113/113 112/112/112 111/111/111
f 112/112/112 113/113/113 114/114/114
f 117/117/117 116/116/116 115/115/115
f 116/116/116 117/117/117 118/118/118
f 121/121/121 120/120/120 119/119/119
f 120/120/120 121/121/121 122/122/122
f 125/125/125 124/124/124 123/123/123
f 124/124/124 125/125/125 126/126/126
f 129/129/129 128/128/128 127/127/127
f 128/128/128 129/129/129 130/130/130
f 133/133/133 132/132/132 131/131/131
f 132/132/132 133/133/133 134/134/134
f 137/137/137 136/136/136 135/135/135
f 136/136/136 137/137/137 138/138/138
f 141/141/141 140/140/140 139/139/139
f 140/140/140 141/141/141 142/142/142
f 145/145/145 144/144/144 143/143/143
f 144/144/144 145/145/145 146/146/146
f 149/149/149 148/148/148 147/147/147
f 148/148/148 149/149/149 150/150/150
f 153/153/153 152/152/152 151/151/151
f 152/152/152 153/153/153 154/154/154
f 157/157/157 156/156/156 155/155/155
f 156/156/156 157/157/157 158/158/158
f 161/161/161 160/160/160 159/159/159
f 160/160/160 161/161/161 162/162/162
f 165/165/165 164/164/164 163/163/163
f 164/164/164 165/165/165 166/166/166
f 169/169/169 168/168/168 167/167/167
f 168/168/168 169/169/169 170/170/170
f 173/173/173 172/172/172 171/171/171
f 172/172/172 173/173/173 174/174/174
f 177/177/177 176/176/176 175/175/175
f 176/176/176 177/177/177 178/178/178
f 181/181/181 180/180/180 179/179/179
f 180/180/180 181/181/181 182/182/182
f 185/185/185 184/184/184 183/183/183
f 184/184/184 185/185/185 186/186/186
f 189/189/189 188/188/188 187/187/187
f 188/188/188 189/189/189 190/190/190
f 193/193/193 192/192/192 191/191/191
f 192/192/192 193/193/193 194/194/194
