{"asset":{"version":"2.0","generator":"GLTFExporter"},"scenes":[{"name":"AuxScene","nodes":[45]}],"scene":0,"nodes":[{"rotation":[1,0,0,6.123233995736766e-17],"scale":[0.1,0.1,0.1],"mesh":0},{"rotation":[1,0,0,6.123233995736766e-17],"scale":[0.1,0.1,0.1],"mesh":1},{"rotation":[1,0,0,6.123233995736766e-17],"scale":[0.1,0.1,0.1],"mesh":2},{"rotation":[1,0,0,6.123233995736766e-17],"scale":[0.1,0.1,0.1],"mesh":3},{"rotation":[1,0,0,6.123233995736766e-17],"scale":[0.1,0.1,0.1],"mesh":4},{"rotation":[1,0,0,6.123233995736766e-17],"scale":[0.1,0.1,0.1],"mesh":5},{"rotation":[1,0,0,6.123233995736766e-17],"scale":[0.1,0.1,0.1],"mesh":6},{"rotation":[1,0,0,6.123233995736766e-17],"scale":[0.1,0.1,0.1],"mesh":7},{"rotation":[1,0,0,6.123233995736766e-17],"scale":[0.1,0.1,0.1],"mesh":8},{"rotation":[1,0,0,6.123233995736766e-17],"scale":[0.1,0.1,0.1],"mesh":9},{"rotation":[1,0,0,6.123233995736766e-17],"scale":[0.1,0.1,0.1],"mesh":10},{"rotation":[1,0,0,6.123233995736766e-17],"scale":[0.1,0.1,0.1],"mesh":11},{"rotation":[1,0,0,6.123233995736766e-17],"scale":[0.1,0.1,0.1],"mesh":12},{"rotation":[1,0,0,6.123233995736766e-17],"scale":[0.1,0.1,0.1],"mesh":13},{"rotation":[1,0,0,6.123233995736766e-17],"scale":[0.1,0.1,0.1],"mesh":14},{"rotation":[1,0,0,6.123233995736766e-17],"scale":[0.1,0.1,0.1],"mesh":15},{"rotation":[1,0,0,6.123233995736766e-17],"scale":[0.1,0.1,0.1],"mesh":16},{"rotation":[1,0,0,6.123233995736766e-17],"scale":[0.1,0.1,0.1],"mesh":17},{"rotation":[1,0,0,6.123233995736766e-17],"scale":[0.1,0.1,0.1],"mesh":18},{"rotation":[1,0,0,6.123233995736766e-17],"scale":[0.1,0.1,0.1],"mesh":19},{"rotation":[1,0,0,6.123233995736766e-17],"scale":[0.1,0.1,0.1],"mesh":20},{"rotation":[1,0,0,6.123233995736766e-17],"scale":[0.1,0.1,0.1],"mesh":21},{"rotation":[1,0,0,6.123233995736766e-17],"scale":[0.1,0.1,0.1],"mesh":22},{"rotation":[1,0,0,6.123233995736766e-17],"scale":[0.1,0.1,0.1],"mesh":23},{"rotation":[1,0,0,6.123233995736766e-17],"scale":[0.1,0.1,0.1],"mesh":24},{"rotation":[1,0,0,6.123233995736766e-17],"scale":[0.1,0.1,0.1],"mesh":25},{"rotation":[1,0,0,6.123233995736766e-17],"scale":[0.1,0.1,0.1],"mesh":26},{"rotation":[1,0,0,6.123233995736766e-17],"scale":[0.1,0.1,0.1],"mesh":27},{"rotation":[1,0,0,6.123233995736766e-17],"scale":[0.1,0.1,0.1],"mesh":28},{"rotation":[1,0,0,6.123233995736766e-17],"scale":[0.1,0.1,0.1],"mesh":29},{"rotation":[1,0,0,6.123233995736766e-17],"scale":[0.1,0.1,0.1],"mesh":30},{"rotation":[1,0,0,6.123233995736766e-17],"scale":[0.1,0.1,0.1],"mesh":31},{"rotation":[1,0,0,6.123233995736766e-17],"scale":[0.1,0.1,0.1],"mesh":32},{"rotation":[1,0,0,6.123233995736766e-17],"scale":[0.1,0.1,0.1],"mesh":33},{"rotation":[1,0,0,6.123233995736766e-17],"scale":[0.1,0.1,0.1],"mesh":34},{"rotation":[1,0,0,6.123233995736766e-17],"scale":[0.1,0.1,0.1],"mesh":35},{"rotation":[1,0,0,6.123233995736766e-17],"scale":[0.1,0.1,0.1],"mesh":36},{"rotation":[1,0,0,6.123233995736766e-17],"scale":[0.1,0.1,0.1],"mesh":37},{"rotation":[1,0,0,6.123233995736766e-17],"scale":[0.1,0.1,0.1],"mesh":38},{"rotation":[1,0,0,6.123233995736766e-17],"scale":[0.1,0.1,0.1],"mesh":39},{"rotation":[1,0,0,6.123233995736766e-17],"scale":[0.1,0.1,0.1],"mesh":40},{"rotation":[1,0,0,6.123233995736766e-17],"scale":[0.1,0.1,0.1],"mesh":41},{"rotation":[1,0,0,6.123233995736766e-17],"scale":[0.1,0.1,0.1],"mesh":42},{"rotation":[1,0,0,6.123233995736766e-17],"scale":[0.1,0.1,0.1],"mesh":43},{"rotation":[1,0,0,6.123233995736766e-17],"scale":[0.1,0.1,0.1],"mesh":44},{"children":[0,1,2,3,4,5,6,7,8,9,10,11,12,13,14,15,16,17,18,19,20,21,22,23,24,25,26,27,28,29,30,31,32,33,34,35,36,37,38,39,40,41,42,43,44]}],"bufferViews":[{"buffer":0,"byteOffset":0,"byteLength":720,"target":34962,"byteStride":12},{"buffer":0,"byteOffset":720,"byteLength":720,"target":34962,"byteStride":12},{"buffer":0,"byteOffset":1440,"byteLength":480,"target":34962,"byteStride":8},{"buffer":0,"byteOffset":1920,"byteLength":720,"target":34962,"byteStride":12},{"buffer":0,"byteOffset":2640,"byteLength":120,"target":34963},{"buffer":0,"byteOffset":2760,"byteLength":720,"target":34962,"byteStride":12},{"buffer":0,"byteOffset":3480,"byteLength":720,"target":34962,"byteStride":12},{"buffer":0,"byteOffset":4200,"byteLength":480,"target":34962,"byteStride":8},{"buffer":0,"byteOffset":4680,"byteLength":720,"target":34962,"byteStride":12},{"buffer":0,"byteOffset":5400,"byteLength":120,"target":34963},{"buffer":0,"byteOffset":5520,"byteLength":144,"target":34962,"byteStride":12},{"buffer":0,"byteOffset":5664,"byteLength":144,"target":34962,"byteStride":12},{"buffer":0,"byteOffset":5808,"byteLength":96,"target":34962,"byteStride":8},{"buffer":0,"byteOffset":5904,"byteLength":144,"target":34962,"byteStride":12},{"buffer":0,"byteOffset":6048,"byteLength":24,"target":34963},{"buffer":0,"byteOffset":6072,"byteLength":144,"target":34962,"byteStride":12},{"buffer":0,"byteOffset":6216,"byteLength":144,"target":34962,"byteStride":12},{"buffer":0,"byteOffset":6360,"byteLength":96,"target":34962,"byteStride":8},{"buffer":0,"byteOffset":6456,"byteLength":144,"target":34962,"byteStride":12},{"buffer":0,"byteOffset":6600,"byteLength":24,"target":34963},{"buffer":0,"byteOffset":6624,"byteLength":144,"target":34962,"byteStride":12},{"buffer":0,"byteOffset":6768,"byteLength":144,"target":34962,"byteStride":12},{"buffer":0,"byteOffset":6912,"byteLength":96,"target":34962,"byteStride":8},{"buffer":0,"byteOffset":7008,"byteLength":144,"target":34962,"byteStride":12},{"buffer":0,"byteOffset":7152,"byteLength":24,"target":34963},{"buffer":0,"byteOffset":7176,"byteLength":144,"target":34962,"byteStride":12},{"buffer":0,"byteOffset":7320,"byteLength":144,"target":34962,"byteStride":12},{"buffer":0,"byteOffset":7464,"byteLength":96,"target":34962,"byteStride":8},{"buffer":0,"byteOffset":7560,"byteLength":144,"target":34962,"byteStride":12},{"buffer":0,"byteOffset":7704,"byteLength":24,"target":34963},{"buffer":0,"byteOffset":7728,"byteLength":144,"target":34962,"byteStride":12},{"buffer":0,"byteOffset":7872,"byteLength":144,"target":34962,"byteStride":12},{"buffer":0,"byteOffset":8016,"byteLength":96,"target":34962,"byteStride":8},{"buffer":0,"byteOffset":8112,"byteLength":144,"target":34962,"byteStride":12},{"buffer":0,"byteOffset":8256,"byteLength":24,"target":34963},{"buffer":0,"byteOffset":8280,"byteLength":144,"target":34962,"byteStride":12},{"buffer":0,"byteOffset":8424,"byteLength":144,"target":34962,"byteStride":12},{"buffer":0,"byteOffset":8568,"byteLength":96,"target":34962,"byteStride":8},{"buffer":0,"byteOffset":8664,"byteLength":144,"target":34962,"byteStride":12},{"buffer":0,"byteOffset":8808,"byteLength":24,"target":34963},{"buffer":0,"byteOffset":8832,"byteLength":144,"target":34962,"byteStride":12},{"buffer":0,"byteOffset":8976,"byteLength":144,"target":34962,"byteStride":12},{"buffer":0,"byteOffset":9120,"byteLength":96,"target":34962,"byteStride":8},{"buffer":0,"byteOffset":9216,"byteLength":144,"target":34962,"byteStride":12},{"buffer":0,"byteOffset":9360,"byteLength":24,"target":34963},{"buffer":0,"byteOffset":9384,"byteLength":144,"target":34962,"byteStride":12},{"buffer":0,"byteOffset":9528,"byteLength":144,"target":34962,"byteStride":12},{"buffer":0,"byteOffset":9672,"byteLength":96,"target":34962,"byteStride":8},{"buffer":0,"byteOffset":9768,"byteLength":144,"target":34962,"byteStride":12},{"buffer":0,"byteOffset":9912,"byteLength":24,"target":34963},{"buffer":0,"byteOffset":9936,"byteLength":144,"target":34962,"byteStride":12},{"buffer":0,"byteOffset":10080,"byteLength":144,"target":34962,"byteStride":12},{"buffer":0,"byteOffset":10224,"byteLength":96,"target":34962,"byteStride":8},{"buffer":0,"byteOffset":10320,"byteLength":144,"target":34962,"byteStride":12},{"buffer":0,"byteOffset":10464,"byteLength":24,"target":34963},{"buffer":0,"byteOffset":10488,"byteLength":144,"target":34962,"byteStride":12},{"buffer":0,"byteOffset":10632,"byteLength":144,"target":34962,"byteStride":12},{"buffer":0,"byteOffset":10776,"byteLength":96,"target":34962,"byteStride":8},{"buffer":0,"byteOffset":10872,"byteLength":144,"target":34962,"byteStride":12},{"buffer":0,"byteOffset":11016,"byteLength":24,"target":34963},{"buffer":0,"byteOffset":11040,"byteLength":19920,"target":34962,"byteStride":12},{"buffer":0,"byteOffset":30960,"byteLength":19920,"target":34962,"byteStride":12},{"buffer":0,"byteOffset":50880,"byteLength":13280,"target":34962,"byteStride":8},{"buffer":0,"byteOffset":64160,"byteLength":19920,"target":34962,"byteStride":12},{"buffer":0,"byteOffset":84080,"byteLength":4836,"target":34963},{"buffer":0,"byteOffset":88916,"byteLength":192,"target":34962,"byteStride":12},{"buffer":0,"byteOffset":89108,"byteLength":192,"target":34962,"byteStride":12},{"buffer":0,"byteOffset":89300,"byteLength":128,"target":34962,"byteStride":8},{"buffer":0,"byteOffset":89428,"byteLength":192,"target":34962,"byteStride":12},{"buffer":0,"byteOffset":89620,"byteLength":48,"target":34963},{"buffer":0,"byteOffset":89668,"byteLength":336,"target":34962,"byteStride":12},{"buffer":0,"byteOffset":90004,"byteLength":336,"target":34962,"byteStride":12},{"buffer":0,"byteOffset":90340,"byteLength":224,"target":34962,"byteStride":8},{"buffer":0,"byteOffset":90564,"byteLength":336,"target":34962,"byteStride":12},{"buffer":0,"byteOffset":90900,"byteLength":84,"target":34963},{"buffer":0,"byteOffset":90984,"byteLength":192,"target":34962,"byteStride":12},{"buffer":0,"byteOffset":91176,"byteLength":192,"target":34962,"byteStride":12},{"buffer":0,"byteOffset":91368,"byteLength":128,"target":34962,"byteStride":8},{"buffer":0,"byteOffset":91496,"byteLength":192,"target":34962,"byteStride":12},{"buffer":0,"byteOffset":91688,"byteLength":48,"target":34963},{"buffer":0,"byteOffset":91736,"byteLength":192,"target":34962,"byteStride":12},{"buffer":0,"byteOffset":91928,"byteLength":192,"target":34962,"byteStride":12},{"buffer":0,"byteOffset":92120,"byteLength":128,"target":34962,"byteStride":8},{"buffer":0,"byteOffset":92248,"byteLength":192,"target":34962,"byteStride":12},{"buffer":0,"byteOffset":92440,"byteLength":48,"target":34963},{"buffer":0,"byteOffset":92488,"byteLength":192,"target":34962,"byteStride":12},{"buffer":0,"byteOffset":92680,"byteLength":192,"target":34962,"byteStride":12},{"buffer":0,"byteOffset":92872,"byteLength":128,"target":34962,"byteStride":8},{"buffer":0,"byteOffset":93000,"byteLength":192,"target":34962,"byteStride":12},{"buffer":0,"byteOffset":93192,"byteLength":48,"target":34963},{"buffer":0,"byteOffset":93240,"byteLength":192,"target":34962,"byteStride":12},{"buffer":0,"byteOffset":93432,"byteLength":192,"target":34962,"byteStride":12},{"buffer":0,"byteOffset":93624,"byteLength":128,"target":34962,"byteStride":8},{"buffer":0,"byteOffset":93752,"byteLength":192,"target":34962,"byteStride":12},{"buffer":0,"byteOffset":93944,"byteLength":48,"target":34963},{"buffer":0,"byteOffset":93992,"byteLength":192,"target":34962,"byteStride":12},{"buffer":0,"byteOffset":94184,"byteLength":192,"target":34962,"byteStride":12},{"buffer":0,"byteOffset":94376,"byteLength":128,"target":34962,"byteStride":8},{"buffer":0,"byteOffset":94504,"byteLength":192,"target":34962,"byteStride":12},{"buffer":0,"byteOffset":94696,"byteLength":48,"target":34963},{"buffer":0,"byteOffset":94744,"byteLength":96,"target":34962,"byteStride":12},{"buffer":0,"byteOffset":94840,"byteLength":96,"target":34962,"byteStride":12},{"buffer":0,"byteOffset":94936,"byteLength":64,"target":34962,"byteStride":8},{"buffer":0,"byteOffset":95000,"byteLength":96,"target":34962,"byteStride":12},{"buffer":0,"byteOffset":95096,"byteLength":24,"target":34963},{"buffer":0,"byteOffset":95120,"byteLength":96,"target":34962,"byteStride":12},{"buffer":0,"byteOffset":95216,"byteLength":96,"target":34962,"byteStride":12},{"buffer":0,"byteOffset":95312,"byteLength":64,"target":34962,"byteStride":8},{"buffer":0,"byteOffset":95376,"byteLength":96,"target":34962,"byteStride":12},{"buffer":0,"byteOffset":95472,"byteLength":24,"target":34963},{"buffer":0,"byteOffset":95496,"byteLength":2352,"target":34962,"byteStride":12},{"buffer":0,"byteOffset":97848,"byteLength":2352,"target":34962,"byteStride":12},{"buffer":0,"byteOffset":100200,"byteLength":1568,"target":34962,"byteStride":8},{"buffer":0,"byteOffset":101768,"byteLength":2352,"target":34962,"byteStride":12},{"buffer":0,"byteOffset":104120,"byteLength":528,"target":34963},{"buffer":0,"byteOffset":104648,"byteLength":36,"target":34962,"byteStride":12},{"buffer":0,"byteOffset":104684,"byteLength":36,"target":34962,"byteStride":12},{"buffer":0,"byteOffset":104720,"byteLength":24,"target":34962,"byteStride":8},{"buffer":0,"byteOffset":104744,"byteLength":36,"target":34962,"byteStride":12},{"buffer":0,"byteOffset":104780,"byteLength":8,"target":34963},{"buffer":0,"byteOffset":104788,"byteLength":756,"target":34962,"byteStride":12},{"buffer":0,"byteOffset":105544,"byteLength":756,"target":34962,"byteStride":12},{"buffer":0,"byteOffset":106300,"byteLength":504,"target":34962,"byteStride":8},{"buffer":0,"byteOffset":106804,"byteLength":756,"target":34962,"byteStride":12},{"buffer":0,"byteOffset":107560,"byteLength":152,"target":34963},{"buffer":0,"byteOffset":107712,"byteLength":480,"target":34962,"byteStride":12},{"buffer":0,"byteOffset":108192,"byteLength":480,"target":34962,"byteStride":12},{"buffer":0,"byteOffset":108672,"byteLength":320,"target":34962,"byteStride":8},{"buffer":0,"byteOffset":108992,"byteLength":480,"target":34962,"byteStride":12},{"buffer":0,"byteOffset":109472,"byteLength":96,"target":34963},{"buffer":0,"byteOffset":109568,"byteLength":36,"target":34962,"byteStride":12},{"buffer":0,"byteOffset":109604,"byteLength":36,"target":34962,"byteStride":12},{"buffer":0,"byteOffset":109640,"byteLength":24,"target":34962,"byteStride":8},{"buffer":0,"byteOffset":109664,"byteLength":36,"target":34962,"byteStride":12},{"buffer":0,"byteOffset":109700,"byteLength":8,"target":34963},{"buffer":0,"byteOffset":109708,"byteLength":1860,"target":34962,"byteStride":12},{"buffer":0,"byteOffset":111568,"byteLength":1860,"target":34962,"byteStride":12},{"buffer":0,"byteOffset":113428,"byteLength":1240,"target":34962,"byteStride":8},{"buffer":0,"byteOffset":114668,"byteLength":1860,"target":34962,"byteStride":12},{"buffer":0,"byteOffset":116528,"byteLength":440,"target":34963},{"buffer":0,"byteOffset":116968,"byteLength":4044,"target":34962,"byteStride":12},{"buffer":0,"byteOffset":121012,"byteLength":4044,"target":34962,"byteStride":12},{"buffer":0,"byteOffset":125056,"byteLength":2696,"target":34962,"byteStride":8},{"buffer":0,"byteOffset":127752,"byteLength":4044,"target":34962,"byteStride":12},{"buffer":0,"byteOffset":131796,"byteLength":956,"target":34963},{"buffer":0,"byteOffset":132752,"byteLength":6432,"target":34962,"byteStride":12},{"buffer":0,"byteOffset":139184,"byteLength":6432,"target":34962,"byteStride":12},{"buffer":0,"byteOffset":145616,"byteLength":4288,"target":34962,"byteStride":8},{"buffer":0,"byteOffset":149904,"byteLength":6432,"target":34962,"byteStride":12},{"buffer":0,"byteOffset":156336,"byteLength":1404,"target":34963},{"buffer":0,"byteOffset":157740,"byteLength":36,"target":34962,"byteStride":12},{"buffer":0,"byteOffset":157776,"byteLength":36,"target":34962,"byteStride":12},{"buffer":0,"byteOffset":157812,"byteLength":24,"target":34962,"byteStride":8},{"buffer":0,"byteOffset":157836,"byteLength":36,"target":34962,"byteStride":12},{"buffer":0,"byteOffset":157872,"byteLength":8,"target":34963},{"buffer":0,"byteOffset":157880,"byteLength":372,"target":34962,"byteStride":12},{"buffer":0,"byteOffset":158252,"byteLength":372,"target":34962,"byteStride":12},{"buffer":0,"byteOffset":158624,"byteLength":248,"target":34962,"byteStride":8},{"buffer":0,"byteOffset":158872,"byteLength":372,"target":34962,"byteStride":12},{"buffer":0,"byteOffset":159244,"byteLength":92,"target":34963},{"buffer":0,"byteOffset":159336,"byteLength":132,"target":34962,"byteStride":12},{"buffer":0,"byteOffset":159468,"byteLength":132,"target":34962,"byteStride":12},{"buffer":0,"byteOffset":159600,"byteLength":88,"target":34962,"byteStride":8},{"buffer":0,"byteOffset":159688,"byteLength":132,"target":34962,"byteStride":12},{"buffer":0,"byteOffset":159820,"byteLength":32,"target":34963},{"buffer":0,"byteOffset":159852,"byteLength":1260,"target":34962,"byteStride":12},{"buffer":0,"byteOffset":161112,"byteLength":1260,"target":34962,"byteStride":12},{"buffer":0,"byteOffset":162372,"byteLength":840,"target":34962,"byteStride":8},{"buffer":0,"byteOffset":163212,"byteLength":1260,"target":34962,"byteStride":12},{"buffer":0,"byteOffset":164472,"byteLength":224,"target":34963},{"buffer":0,"byteOffset":164696,"byteLength":6336,"target":34962,"byteStride":12},{"buffer":0,"byteOffset":171032,"byteLength":6336,"target":34962,"byteStride":12},{"buffer":0,"byteOffset":177368,"byteLength":4224,"target":34962,"byteStride":8},{"buffer":0,"byteOffset":181592,"byteLength":6336,"target":34962,"byteStride":12},{"buffer":0,"byteOffset":187928,"byteLength":1296,"target":34963},{"buffer":0,"byteOffset":189224,"byteLength":972,"target":34962,"byteStride":12},{"buffer":0,"byteOffset":190196,"byteLength":972,"target":34962,"byteStride":12},{"buffer":0,"byteOffset":191168,"byteLength":648,"target":34962,"byteStride":8},{"buffer":0,"byteOffset":191816,"byteLength":972,"target":34962,"byteStride":12},{"buffer":0,"byteOffset":192788,"byteLength":200,"target":34963},{"buffer":0,"byteOffset":192988,"byteLength":252,"target":34962,"byteStride":12},{"buffer":0,"byteOffset":193240,"byteLength":252,"target":34962,"byteStride":12},{"buffer":0,"byteOffset":193492,"byteLength":168,"target":34962,"byteStride":8},{"buffer":0,"byteOffset":193660,"byteLength":252,"target":34962,"byteStride":12},{"buffer":0,"byteOffset":193912,"byteLength":44,"target":34963},{"buffer":0,"byteOffset":193956,"byteLength":36,"target":34962,"byteStride":12},{"buffer":0,"byteOffset":193992,"byteLength":36,"target":34962,"byteStride":12},{"buffer":0,"byteOffset":194028,"byteLength":24,"target":34962,"byteStride":8},{"buffer":0,"byteOffset":194052,"byteLength":36,"target":34962,"byteStride":12},{"buffer":0,"byteOffset":194088,"byteLength":8,"target":34963},{"buffer":0,"byteOffset":194096,"byteLength":168,"target":34962,"byteStride":12},{"buffer":0,"byteOffset":194264,"byteLength":168,"target":34962,"byteStride":12},{"buffer":0,"byteOffset":194432,"byteLength":112,"target":34962,"byteStride":8},{"buffer":0,"byteOffset":194544,"byteLength":168,"target":34962,"byteStride":12},{"buffer":0,"byteOffset":194712,"byteLength":36,"target":34963},{"buffer":0,"byteOffset":194748,"byteLength":948,"target":34962,"byteStride":12},{"buffer":0,"byteOffset":195696,"byteLength":948,"target":34962,"byteStride":12},{"buffer":0,"byteOffset":196644,"byteLength":632,"target":34962,"byteStride":8},{"buffer":0,"byteOffset":197276,"byteLength":948,"target":34962,"byteStride":12},{"buffer":0,"byteOffset":198224,"byteLength":236,"target":34963},{"buffer":0,"byteOffset":198460,"byteLength":864,"target":34962,"byteStride":12},{"buffer":0,"byteOffset":199324,"byteLength":864,"target":34962,"byteStride":12},{"buffer":0,"byteOffset":200188,"byteLength":576,"target":34962,"byteStride":8},{"buffer":0,"byteOffset":200764,"byteLength":864,"target":34962,"byteStride":12},{"buffer":0,"byteOffset":201628,"byteLength":156,"target":34963},{"buffer":0,"byteOffset":201784,"byteLength":744,"target":34962,"byteStride":12},{"buffer":0,"byteOffset":202528,"byteLength":744,"target":34962,"byteStride":12},{"buffer":0,"byteOffset":203272,"byteLength":496,"target":34962,"byteStride":8},{"buffer":0,"byteOffset":203768,"byteLength":744,"target":34962,"byteStride":12},{"buffer":0,"byteOffset":204512,"byteLength":168,"target":34963},{"buffer":0,"byteOffset":204680,"byteLength":1416,"target":34962,"byteStride":12},{"buffer":0,"byteOffset":206096,"byteLength":1416,"target":34962,"byteStride":12},{"buffer":0,"byteOffset":207512,"byteLength":944,"target":34962,"byteStride":8},{"buffer":0,"byteOffset":208456,"byteLength":1416,"target":34962,"byteStride":12},{"buffer":0,"byteOffset":209872,"byteLength":348,"target":34963},{"buffer":0,"byteOffset":210220,"byteLength":672,"target":34962,"byteStride":12},{"buffer":0,"byteOffset":210892,"byteLength":672,"target":34962,"byteStride":12},{"buffer":0,"byteOffset":211564,"byteLength":448,"target":34962,"byteStride":8},{"buffer":0,"byteOffset":212012,"byteLength":672,"target":34962,"byteStride":12},{"buffer":0,"byteOffset":212684,"byteLength":168,"target":34963},{"buffer":0,"byteOffset":212852,"byteLength":564,"target":34962,"byteStride":12},{"buffer":0,"byteOffset":213416,"byteLength":564,"target":34962,"byteStride":12},{"buffer":0,"byteOffset":213980,"byteLength":376,"target":34962,"byteStride":8},{"buffer":0,"byteOffset":214356,"byteLength":564,"target":34962,"byteStride":12},{"buffer":0,"byteOffset":214920,"byteLength":140,"target":34963}],"buffers":[{"byteLength":215060,"uri":"data:application/octet-stream;base64,"}],"accessors":[{"bufferView":0,"componentType":5126,"count":60,"max":[7,6,20],"min":[-17,-20,-11],"type":"VEC3"},{"bufferView":1,"componentType":5126,"count":60,"max":[1,0.9490196108818054,0.8901960849761963],"min":[0.16078431904315948,0.08235294371843338,0.04313725605607033],"type":"VEC3"},{"bufferView":2,"componentType":5126,"count":60,"max":[0.34375,0.296875],"min":[0.1484375,0.03125],"type":"VEC2"},{"bufferView":3,"componentType":5126,"count":60,"max":[0.9798347353935242,0.9949367046356201,0.865725040435791],"min":[-0.9798347353935242,-0.9949367046356201,-0.865725040435791],"type":"VEC3"},{"bufferView":4,"componentType":5123,"count":60,"max":[59],"min":[0],"type":"SCALAR"},{"bufferView":5,"componentType":5126,"count":60,"max":[6,3,15],"min":[-19,-18,-18],"type":"VEC3"},{"bufferView":6,"componentType":5126,"count":60,"max":[1,1,1],"min":[0.1764705926179886,0.10980392247438431,0.05882352963089943],"type":"VEC3"},{"bufferView":7,"componentType":5126,"count":60,"max":[0.3125,0.4140625],"min":[0.09375,0.0625],"type":"VEC2"},{"bufferView":8,"componentType":5126,"count":60,"max":[0.9949628710746765,0.9517086148262024,0.7755635976791382],"min":[-0.9949628710746765,-0.9517086148262024,-0.7755635976791382],"type":"VEC3"},{"bufferView":9,"componentType":5123,"count":60,"max":[59],"min":[0],"type":"SCALAR"},{"bufferView":10,"componentType":5126,"count":12,"max":[3,1,-1],"min":[-2,-106,-8],"type":"VEC3"},{"bufferView":11,"componentType":5126,"count":12,"max":[1,1,0.9686274528503418],"min":[0,0,0],"type":"VEC3"},{"bufferView":12,"componentType":5126,"count":12,"max":[0.4921875,0.5],"min":[0,0.0078125],"type":"VEC2"},{"bufferView":13,"componentType":5126,"count":12,"max":[0.4460600018501282,0.19729062914848328,0.8921200037002563],"min":[-0.4460600018501282,-0.19729062914848328,-0.8921200037002563],"type":"VEC3"},{"bufferView":14,"componentType":5123,"count":12,"max":[11],"min":[0],"type":"SCALAR"},{"bufferView":15,"componentType":5126,"count":12,"max":[6,1,18],"min":[1,-51,-1],"type":"VEC3"},{"bufferView":16,"componentType":5126,"count":12,"max":[0.7921568751335144,0.7607843279838562,0.7098039388656616],"min":[0,0,0],"type":"VEC3"},{"bufferView":17,"componentType":5126,"count":12,"max":[0.4921875,0.5],"min":[0.375,0.0078125],"type":"VEC2"},{"bufferView":18,"componentType":5126,"count":12,"max":[0.9941603541374207,0.380952388048172,0.190476194024086],"min":[-0.9941603541374207,-0.380952388048172,-0.190476194024086],"type":"VEC3"},{"bufferView":19,"componentType":5123,"count":12,"max":[11],"min":[0],"type":"SCALAR"},{"bufferView":20,"componentType":5126,"count":12,"max":[41,1,-1],"min":[1,-95,-33],"type":"VEC3"},{"bufferView":21,"componentType":5126,"count":12,"max":[0.8392156958580017,0.8039215803146362,0.7490196228027344],"min":[0,0,0],"type":"VEC3"},{"bufferView":22,"componentType":5126,"count":12,"max":[0.375,0.25],"min":[0.125,0.0078125],"type":"VEC2"},{"bufferView":23,"componentType":5126,"count":12,"max":[0.6882472038269043,0.8164966106414795,0.6882472038269043],"min":[-0.6882472038269043,-0.8164966106414795,-0.6882472038269043],"type":"VEC3"},{"bufferView":24,"componentType":5123,"count":12,"max":[11],"min":[0],"type":"SCALAR"},{"bufferView":25,"componentType":5126,"count":12,"max":[1,1,-1],"min":[-15,-87,-41],"type":"VEC3"},{"bufferView":26,"componentType":5126,"count":12,"max":[0.7686274647712708,0.7411764860153198,0.6980392336845398],"min":[0,0,0],"type":"VEC3"},{"bufferView":27,"componentType":5126,"count":12,"max":[0.375,0.25],"min":[0.125,0.0078125],"type":"VEC2"},{"bufferView":28,"componentType":5126,"count":12,"max":[0,0.7071067690849304,0.9701424837112427],"min":[0,-0.7071067690849304,-0.9701424837112427],"type":"VEC3"},{"bufferView":29,"componentType":5123,"count":12,"max":[11],"min":[0],"type":"SCALAR"},{"bufferView":30,"componentType":5126,"count":12,"max":[1,1,-1],"min":[-39,-55,-25],"type":"VEC3"},{"bufferView":31,"componentType":5126,"count":12,"max":[0.8901960849761963,0.8784313797950745,0.8352941274642944],"min":[0,0,0],"type":"VEC3"},{"bufferView":32,"componentType":5126,"count":12,"max":[0.375,0.25],"min":[0.125,0.0078125],"type":"VEC2"},{"bufferView":33,"componentType":5126,"count":12,"max":[0.6509445309638977,0.8703882694244385,0.6509445309638977],"min":[-0.6509445309638977,-0.8703882694244385,-0.6509445309638977],"type":"VEC3"},{"bufferView":34,"componentType":5123,"count":12,"max":[11],"min":[0],"type":"SCALAR"},{"bufferView":35,"componentType":5126,"count":12,"max":[1,1,7],"min":[-48,-35,-1],"type":"VEC3"},{"bufferView":36,"componentType":5126,"count":12,"max":[0.9490196108818054,0.9372549057006836,0.8941176533699036],"min":[0,0,0],"type":"VEC3"},{"bufferView":37,"componentType":5126,"count":12,"max":[0.375,0.25],"min":[0.125,0.0078125],"type":"VEC2"},{"bufferView":38,"componentType":5126,"count":12,"max":[0.9701424837112427,0.9952746629714966,0],"min":[-0.9701424837112427,-0.9952746629714966,0],"type":"VEC3"},{"bufferView":39,"componentType":5123,"count":12,"max":[11],"min":[0],"type":"SCALAR"},{"bufferView":40,"componentType":5126,"count":12,"max":[40,7,-1],"min":[0,-9,-49],"type":"VEC3"},{"bufferView":41,"componentType":5126,"count":12,"max":[0.7019608020782471,0.6901960968971252,0.658823549747467],"min":[0,0,0],"type":"VEC3"},{"bufferView":42,"componentType":5126,"count":12,"max":[0.375,0.25],"min":[0.125,0.0078125],"type":"VEC2"},{"bufferView":43,"componentType":5126,"count":12,"max":[0.40824830532073975,0.9801960587501526,0.40824830532073975],"min":[-0.40824830532073975,-0.9801960587501526,-0.40824830532073975],"type":"VEC3"},{"bufferView":44,"componentType":5123,"count":12,"max":[11],"min":[0],"type":"SCALAR"},{"bufferView":45,"componentType":5126,"count":12,"max":[-1,55,1],"min":[-25,-1,-55],"type":"VEC3"},{"bufferView":46,"componentType":5126,"count":12,"max":[0.45490196347236633,0.4627451002597809,0.45490196347236633],"min":[0,0,0],"type":"VEC3"},{"bufferView":47,"componentType":5126,"count":12,"max":[0.375,0.25],"min":[0.125,0.0078125],"type":"VEC2"},{"bufferView":48,"componentType":5126,"count":12,"max":[0.6509445309638977,0.9045340418815613,0.6509445309638977],"min":[-0.6509445309638977,-0.9045340418815613,-0.6509445309638977],"type":"VEC3"},{"bufferView":49,"componentType":5123,"count":12,"max":[11],"min":[0],"type":"SCALAR"},{"bufferView":50,"componentType":5126,"count":12,"max":[1,49,0],"min":[-47,1,-16],"type":"VEC3"},{"bufferView":51,"componentType":5126,"count":12,"max":[0.4000000059604645,0.4117647111415863,0.4156862795352936],"min":[0,0,0],"type":"VEC3"},{"bufferView":52,"componentType":5126,"count":12,"max":[0.375,0.25],"min":[0.125,0.0078125],"type":"VEC2"},{"bufferView":53,"componentType":5126,"count":12,"max":[0.9284766912460327,0.9701424837112427,0],"min":[-0.9284766912460327,-0.9701424837112427,0],"type":"VEC3"},{"bufferView":54,"componentType":5123,"count":12,"max":[11],"min":[0],"type":"SCALAR"},{"bufferView":55,"componentType":5126,"count":12,"max":[25,1,23],"min":[1,-111,-1],"type":"VEC3"},{"bufferView":56,"componentType":5126,"count":12,"max":[0.49803921580314636,0.49803921580314636,0.4901960790157318],"min":[0,0,0],"type":"VEC3"},{"bufferView":57,"componentType":5126,"count":12,"max":[0.375,0.25],"min":[0.125,0.0078125],"type":"VEC2"},{"bufferView":58,"componentType":5126,"count":12,"max":[0.7056503295898438,0.762492835521698,0.7056503295898438],"min":[-0.7056503295898438,-0.762492835521698,-0.7056503295898438],"type":"VEC3"},{"bufferView":59,"componentType":5123,"count":12,"max":[11],"min":[0],"type":"SCALAR"},{"bufferView":60,"componentType":5126,"count":1660,"max":[5120,-280,4352],"min":[-1024,-4888,-1792],"type":"VEC3"},{"bufferView":61,"componentType":5126,"count":1660,"max":[1,1,1],"min":[0,0,0],"type":"VEC3"},{"bufferView":62,"componentType":5126,"count":1660,"max":[0.9921875,0.5],"min":[0.25,0.0078125],"type":"VEC2"},{"bufferView":63,"componentType":5126,"count":1660,"max":[0.9917064905166626,0.9982336163520813,0.9920947551727295],"min":[-0.9911196827888489,-0.45200178027153015,-0.9911196827888489],"type":"VEC3"},{"bufferView":64,"componentType":5123,"count":2418,"max":[1659],"min":[0],"type":"SCALAR"},{"bufferView":65,"componentType":5126,"count":16,"max":[2776,48,-1072],"min":[2048,-640,-1552],"type":"VEC3"},{"bufferView":66,"componentType":5126,"count":16,"max":[0.501960813999176,0.4941176474094391,0.501960813999176],"min":[0,0,0],"type":"VEC3"},{"bufferView":67,"componentType":5126,"count":16,"max":[0.7421875,0.25],"min":[0.5,0.0078125],"type":"VEC2"},{"bufferView":68,"componentType":5126,"count":16,"max":[-0.10368788987398148,-0.43579939007759094,0.8917158842086792],"min":[-0.12438248842954636,-0.5541431903839111,0.8244341611862183],"type":"VEC3"},{"bufferView":69,"componentType":5123,"count":24,"max":[15],"min":[0],"type":"SCALAR"},{"bufferView":70,"componentType":5126,"count":28,"max":[5040,-640,4296],"min":[-736,-2608,-504],"type":"VEC3"},{"bufferView":71,"componentType":5126,"count":28,"max":[0.7372549176216125,0.8156862854957581,0.8392156958580017],"min":[0.2862745225429535,0.35686275362968445,0.45098039507865906],"type":"VEC3"},{"bufferView":72,"componentType":5126,"count":28,"max":[0.2421875,1],"min":[0,0.7578125],"type":"VEC2"},{"bufferView":73,"componentType":5126,"count":28,"max":[0.9061511158943176,0.19996000826358795,0.5914542078971863],"min":[-0.9692437052726746,-0.2982724606990814,-0.9885979890823364],"type":"VEC3"},{"bufferView":74,"componentType":5123,"count":42,"max":[27],"min":[0],"type":"SCALAR"},{"bufferView":75,"componentType":5126,"count":16,"max":[3464,48,-824],"min":[2672,-640,-1456],"type":"VEC3"},{"bufferView":76,"componentType":5126,"count":16,"max":[0.501960813999176,0.4941176474094391,0.45098039507865906],"min":[0,0,0],"type":"VEC3"},{"bufferView":77,"componentType":5126,"count":16,"max":[0.4921875,0.25],"min":[0.25,0.0078125],"type":"VEC2"},{"bufferView":78,"componentType":5126,"count":16,"max":[-0.32553115487098694,-0.4275425672531128,0.8319747447967529],"min":[-0.35358926653862,-0.5708140134811401,0.7536334991455078],"type":"VEC3"},{"bufferView":79,"componentType":5123,"count":24,"max":[15],"min":[0],"type":"SCALAR"},{"bufferView":80,"componentType":5126,"count":16,"max":[4200,-640,-720],"min":[3464,-1416,-1352],"type":"VEC3"},{"bufferView":81,"componentType":5126,"count":16,"max":[0.6705882549285889,0.800000011920929,0.8392156958580017],"min":[0.2862745225429535,0.35686275362968445,0.40392157435417175],"type":"VEC3"},{"bufferView":82,"componentType":5126,"count":16,"max":[0.4921875,1],"min":[0,0.5078125],"type":"VEC2"},{"bufferView":83,"componentType":5126,"count":16,"max":[-0.5846520066261292,-0.19994573295116425,0.7862561345100403],"min":[-0.5988053679466248,-0.29819151759147644,0.7433446049690247],"type":"VEC3"},{"bufferView":84,"componentType":5123,"count":24,"max":[15],"min":[0],"type":"SCALAR"},{"bufferView":85,"componentType":5126,"count":16,"max":[3568,-640,-1176],"min":[2776,-1416,-1656],"type":"VEC3"},{"bufferView":86,"componentType":5126,"count":16,"max":[0.6313725709915161,0.800000011920929,0.8392156958580017],"min":[0.40392157435417175,0.42352941632270813,0.45098039507865906],"type":"VEC3"},{"bufferView":87,"componentType":5126,"count":16,"max":[0.9921875,1],"min":[0.5,0.5078125],"type":"VEC2"},{"bufferView":88,"componentType":5126,"count":16,"max":[-0.3641185760498047,-0.19692127406597137,0.9102964997291565],"min":[-0.37786778807640076,-0.3024599552154541,0.8750622272491455],"type":"VEC3"},{"bufferView":89,"componentType":5123,"count":24,"max":[15],"min":[0],"type":"SCALAR"},{"bufferView":90,"componentType":5126,"count":16,"max":[2832,-640,-1456],"min":[2048,-1416,-1760],"type":"VEC3"},{"bufferView":91,"componentType":5126,"count":16,"max":[0.772549033164978,0.800000011920929,0.8588235378265381],"min":[0.2862745225429535,0.35686275362968445,0.45098039507865906],"type":"VEC3"},{"bufferView":92,"componentType":5126,"count":16,"max":[0.4921875,0.5],"min":[0,0.0078125],"type":"VEC2"},{"bufferView":93,"componentType":5126,"count":16,"max":[-0.1174859032034874,-0.20085841417312622,0.9723554253578186],"min":[-0.12250635027885437,-0.3207284212112427,0.939215362071991],"type":"VEC3"},{"bufferView":94,"componentType":5123,"count":24,"max":[15],"min":[0],"type":"SCALAR"},{"bufferView":95,"componentType":5126,"count":16,"max":[2048,-640,-1456],"min":[1256,-1416,-1760],"type":"VEC3"},{"bufferView":96,"componentType":5126,"count":16,"max":[0.772549033164978,0.800000011920929,0.8588235378265381],"min":[0.2862745225429535,0.35686275362968445,0.45098039507865906],"type":"VEC3"},{"bufferView":97,"componentType":5126,"count":16,"max":[0.9921875,0.5],"min":[0.5,0.0078125],"type":"VEC2"},{"bufferView":98,"componentType":5126,"count":16,"max":[0.13846339285373688,-0.20323632657527924,0.971568763256073],"min":[0.11757785826921463,-0.3184400498867035,0.9399820566177368],"type":"VEC3"},{"bufferView":99,"componentType":5123,"count":24,"max":[15],"min":[0],"type":"SCALAR"},{"bufferView":100,"componentType":5126,"count":8,"max":[4048,-280,-600],"min":[3376,-640,-1176],"type":"VEC3"},{"bufferView":101,"componentType":5126,"count":8,"max":[0.4470588266849518,0.45098039507865906,0.45098039507865906],"min":[0.2862745225429535,0.35686275362968445,0.40392157435417175],"type":"VEC3"},{"bufferView":102,"componentType":5126,"count":8,"max":[0.2421875,0.25],"min":[0,0.1328125],"type":"VEC2"},{"bufferView":103,"componentType":5126,"count":8,"max":[-0.5319522023200989,-0.4346788227558136,0.7160895466804504],"min":[-0.560058057308197,-0.45193207263946533,0.705258309841156],"type":"VEC3"},{"bufferView":104,"componentType":5123,"count":12,"max":[7],"min":[0],"type":"SCALAR"},{"bufferView":105,"componentType":5126,"count":8,"max":[2048,-280,-1288],"min":[1312,-640,-1552],"type":"VEC3"},{"bufferView":106,"componentType":5126,"count":8,"max":[0.40392157435417175,0.42352941632270813,0.45098039507865906],"min":[0.2862745225429535,0.35686275362968445,0.45098039507865906],"type":"VEC3"},{"bufferView":107,"componentType":5126,"count":8,"max":[0.9921875,0.25],"min":[0.75,0.1328125],"type":"VEC2"},{"bufferView":108,"componentType":5126,"count":8,"max":[0.12393119186162949,-0.4299611747264862,0.8970739245414734],"min":[0.10194021463394165,-0.44248026609420776,0.8881735801696777],"type":"VEC3"},{"bufferView":109,"componentType":5123,"count":12,"max":[7],"min":[0],"type":"SCALAR"},{"bufferView":110,"componentType":5126,"count":196,"max":[4096,-176,4096],"min":[0,-1424,-768],"type":"VEC3"},{"bufferView":111,"componentType":5126,"count":196,"max":[1,1,1],"min":[0,0,0],"type":"VEC3"},{"bufferView":112,"componentType":5126,"count":196,"max":[0.9921875,0.5],"min":[0.5,0.0078125],"type":"VEC2"},{"bufferView":113,"componentType":5126,"count":196,"max":[0.48795002698898315,-0.6097107529640198,0.390360027551651],"min":[-0.7316529154777527,-1,-0.6999239921569824],"type":"VEC3"},{"bufferView":114,"componentType":5123,"count":264,"max":[195],"min":[0],"type":"SCALAR"},{"bufferView":115,"componentType":5126,"count":3,"max":[3136,-1024,1024],"min":[3072,-1024,768],"type":"VEC3"},{"bufferView":116,"componentType":5126,"count":3,"max":[0.6117647290229797,0.5686274766921997,0.5058823823928833],"min":[0.29019609093666077,0.2549019753932953,0.08235294371843338],"type":"VEC3"},{"bufferView":117,"componentType":5126,"count":3,"max":[0.2421875,0.40625],"min":[0.0703125,0.3671875],"type":"VEC2"},{"bufferView":118,"componentType":5126,"count":3,"max":[0,-1,0],"min":[0,-1,0],"type":"VEC3"},{"bufferView":119,"componentType":5123,"count":3,"max":[2],"min":[0],"type":"SCALAR"},{"bufferView":120,"componentType":5126,"count":63,"max":[1984,-960,2816],"min":[1152,-1120,2560],"type":"VEC3"},{"bufferView":121,"componentType":5126,"count":63,"max":[1,1,1],"min":[0.07058823853731155,0.062745101749897,0.019607843831181526],"type":"VEC3"},{"bufferView":122,"componentType":5126,"count":63,"max":[0.4921875,0.5],"min":[0,0.0078125],"type":"VEC2"},{"bufferView":123,"componentType":5126,"count":63,"max":[0.8320503234863281,1,1],"min":[-0.8320503234863281,-0.3462298810482025,-1],"type":"VEC3"},{"bufferView":124,"componentType":5123,"count":75,"max":[62],"min":[0],"type":"SCALAR"},{"bufferView":125,"componentType":5126,"count":40,"max":[2304,-680,4096],"min":[512,-1424,-768],"type":"VEC3"},{"bufferView":126,"componentType":5126,"count":40,"max":[1,1,0.8705882430076599],"min":[0,0,0],"type":"VEC3"},{"bufferView":127,"componentType":5126,"count":40,"max":[0.9921875,1],"min":[0.5,0.5078125],"type":"VEC2"},{"bufferView":128,"componentType":5126,"count":40,"max":[0.9889463186264038,0.17617489397525787,0.22564324736595154],"min":[-0.6163156628608704,-1,-0.4946759343147278],"type":"VEC3"},{"bufferView":129,"componentType":5123,"count":48,"max":[39],"min":[0],"type":"SCALAR"},{"bufferView":130,"componentType":5126,"count":3,"max":[3136,-1024,1024],"min":[3072,-1088,1024],"type":"VEC3"},{"bufferView":131,"componentType":5126,"count":3,"max":[0.16078431904315948,0.12941177189350128,0.08235294371843338],"min":[0.14901961386203766,0.10980392247438431,0.05098039284348488],"type":"VEC3"},{"bufferView":132,"componentType":5126,"count":3,"max":[0.5546875,0.578125],"min":[0.5,0.5078125],"type":"VEC2"},{"bufferView":133,"componentType":5126,"count":3,"max":[0,0,-1],"min":[0,0,-1],"type":"VEC3"},{"bufferView":134,"componentType":5123,"count":3,"max":[2],"min":[0],"type":"SCALAR"},{"bufferView":135,"componentType":5126,"count":155,"max":[2432,-992,2816],"min":[1024,-1168,960],"type":"VEC3"},{"bufferView":136,"componentType":5126,"count":155,"max":[1,1,1],"min":[0.10980392247438431,0.0941176488995552,0.027450980618596077],"type":"VEC3"},{"bufferView":137,"componentType":5126,"count":155,"max":[0.4921875,0.5],"min":[0,0.0078125],"type":"VEC2"},{"bufferView":138,"componentType":5126,"count":155,"max":[1,0.8944271802902222,1],"min":[-0.24253562092781067,-1,-1],"type":"VEC3"},{"bufferView":139,"componentType":5123,"count":219,"max":[154],"min":[0],"type":"SCALAR"},{"bufferView":140,"componentType":5126,"count":337,"max":[3072,-896,2560],"min":[1024,-1272,960],"type":"VEC3"},{"bufferView":141,"componentType":5126,"count":337,"max":[1,1,1],"min":[0.04313725605607033,0.05098039284348488,0.0313725508749485],"type":"VEC3"},{"bufferView":142,"componentType":5126,"count":337,"max":[0.9921875,0.5],"min":[0.75,0.2578125],"type":"VEC2"},{"bufferView":143,"componentType":5126,"count":337,"max":[1,0,1],"min":[-1,-1,-1],"type":"VEC3"},{"bufferView":144,"componentType":5123,"count":477,"max":[336],"min":[0],"type":"SCALAR"},{"bufferView":145,"componentType":5126,"count":536,"max":[3072,-384,2368],"min":[1184,-1216,768],"type":"VEC3"},{"bufferView":146,"componentType":5126,"count":536,"max":[1,1,1],"min":[0,0,0],"type":"VEC3"},{"bufferView":147,"componentType":5126,"count":536,"max":[0.7421875,0.5],"min":[0.5,0.2578125],"type":"VEC2"},{"bufferView":148,"componentType":5126,"count":536,"max":[1,1,1],"min":[-1,-1,-1],"type":"VEC3"},{"bufferView":149,"componentType":5123,"count":702,"max":[535],"min":[0],"type":"SCALAR"},{"bufferView":150,"componentType":5126,"count":3,"max":[2304,-1024,1376],"min":[2272,-1024,1280],"type":"VEC3"},{"bufferView":151,"componentType":5126,"count":3,"max":[0.9921568632125854,0.9411764740943909,0.7647058963775635],"min":[0.42352941632270813,0.47058823704719543,0.3843137323856354],"type":"VEC3"},{"bufferView":152,"componentType":5126,"count":3,"max":[0.0234375,0.359375],"min":[0,0.25],"type":"VEC2"},{"bufferView":153,"componentType":5126,"count":3,"max":[0,-1,0],"min":[0,-1,0],"type":"VEC3"},{"bufferView":154,"componentType":5123,"count":3,"max":[2],"min":[0],"type":"SCALAR"},{"bufferView":155,"componentType":5126,"count":31,"max":[2432,-992,2592],"min":[1024,-1136,1376],"type":"VEC3"},{"bufferView":156,"componentType":5126,"count":31,"max":[0.9176470637321472,0.8745098114013672,0.7176470756530762],"min":[0.12941177189350128,0.11372549086809158,0.03529411926865578],"type":"VEC3"},{"bufferView":157,"componentType":5126,"count":31,"max":[0.9921875,0.5],"min":[0.5,0.0078125],"type":"VEC2"},{"bufferView":158,"componentType":5126,"count":31,"max":[0.4472135901451111,0.8944271802902222,0],"min":[-0.07432941347360611,-1,-0.4472135901451111],"type":"VEC3"},{"bufferView":159,"componentType":5123,"count":45,"max":[30],"min":[0],"type":"SCALAR"},{"bufferView":160,"componentType":5126,"count":11,"max":[2560,-1072,1728],"min":[2048,-1272,1664],"type":"VEC3"},{"bufferView":161,"componentType":5126,"count":11,"max":[0.47843137383461,0.45098039507865906,0.2980392277240753],"min":[0.12941177189350128,0.11372549086809158,0.03529411926865578],"type":"VEC3"},{"bufferView":162,"componentType":5126,"count":11,"max":[0.9765625,0.5],"min":[0.75,0.2734375],"type":"VEC2"},{"bufferView":163,"componentType":5126,"count":11,"max":[0,0,0],"min":[0,-1,-1],"type":"VEC3"},{"bufferView":164,"componentType":5123,"count":15,"max":[10],"min":[0],"type":"SCALAR"},{"bufferView":165,"componentType":5126,"count":105,"max":[2816,-808,3328],"min":[0,-1424,0],"type":"VEC3"},{"bufferView":166,"componentType":5126,"count":105,"max":[1,1,1],"min":[0,0,0],"type":"VEC3"},{"bufferView":167,"componentType":5126,"count":105,"max":[0.9921875,1],"min":[0.5,0.5078125],"type":"VEC2"},{"bufferView":168,"componentType":5126,"count":105,"max":[1,0.09759681671857834,0.7350260019302368],"min":[-0.7237209677696228,-1,-0.8102130889892578],"type":"VEC3"},{"bufferView":169,"componentType":5123,"count":111,"max":[104],"min":[0],"type":"SCALAR"},{"bufferView":170,"componentType":5126,"count":528,"max":[3072,-576,3328],"min":[0,-1408,0],"type":"VEC3"},{"bufferView":171,"componentType":5126,"count":528,"max":[1,1,1],"min":[0,0,0],"type":"VEC3"},{"bufferView":172,"componentType":5126,"count":528,"max":[0.9921875,0.5],"min":[0.5,0.0078125],"type":"VEC2"},{"bufferView":173,"componentType":5126,"count":528,"max":[0.5804080367088318,-0.6346758008003235,0.5292561054229736],"min":[-0.7616109848022461,-1,-0.6418834924697876],"type":"VEC3"},{"bufferView":174,"componentType":5123,"count":648,"max":[527],"min":[0],"type":"SCALAR"},{"bufferView":175,"componentType":5126,"count":81,"max":[2816,-960,2816],"min":[896,-1280,1152],"type":"VEC3"},{"bufferView":176,"componentType":5126,"count":81,"max":[1,1,1],"min":[0.26274511218070984,0.250980406999588,0.19607843458652496],"type":"VEC3"},{"bufferView":177,"componentType":5126,"count":81,"max":[0.2421875,0.5],"min":[0,0.0078125],"type":"VEC2"},{"bufferView":178,"componentType":5126,"count":81,"max":[0.2357022613286972,-0.4511788487434387,0.23942606151103973],"min":[-0.8346808552742004,-1,-0.4472135901451111],"type":"VEC3"},{"bufferView":179,"componentType":5123,"count":99,"max":[80],"min":[0],"type":"SCALAR"},{"bufferView":180,"componentType":5126,"count":21,"max":[2816,-888,960],"min":[2296,-1024,768],"type":"VEC3"},{"bufferView":181,"componentType":5126,"count":21,"max":[0.7686274647712708,0.7411764860153198,0.6274510025978088],"min":[0.4000000059604645,0.3450980484485626,0.2862745225429535],"type":"VEC3"},{"bufferView":182,"componentType":5126,"count":21,"max":[0.2421875,0.5],"min":[0,0.0078125],"type":"VEC2"},{"bufferView":183,"componentType":5126,"count":21,"max":[0.3500594198703766,-0.7957835793495178,0],"min":[-0.44597649574279785,-1,-0.5719694495201111],"type":"VEC3"},{"bufferView":184,"componentType":5123,"count":21,"max":[20],"min":[0],"type":"SCALAR"},{"bufferView":185,"componentType":5126,"count":3,"max":[3072,-1024,1280],"min":[3008,-1056,1152],"type":"VEC3"},{"bufferView":186,"componentType":5126,"count":3,"max":[0.7176470756530762,0.6980392336845398,0.5960784554481506],"min":[0.4000000059604645,0.3450980484485626,0.2862745225429535],"type":"VEC3"},{"bufferView":187,"componentType":5126,"count":3,"max":[0.9921875,0.5],"min":[0.5,0.0078125],"type":"VEC2"},{"bufferView":188,"componentType":5126,"count":3,"max":[-0.4364357888698578,-0.8728715777397156,0.2182178944349289],"min":[-0.4364357888698578,-0.8728715777397156,0.2182178944349289],"type":"VEC3"},{"bufferView":189,"componentType":5123,"count":3,"max":[2],"min":[0],"type":"SCALAR"},{"bufferView":190,"componentType":5126,"count":14,"max":[4096,-1536,1024],"min":[3072,-1664,1024],"type":"VEC3"},{"bufferView":191,"componentType":5126,"count":14,"max":[0.3803921639919281,0.2705882489681244,0.16078431904315948],"min":[0.21176470816135406,0.125490203499794,0.13333334028720856],"type":"VEC3"},{"bufferView":192,"componentType":5126,"count":14,"max":[0.4921875,0.375],"min":[0,0.2578125],"type":"VEC2"},{"bufferView":193,"componentType":5126,"count":14,"max":[0,0,-1],"min":[0,0,-1],"type":"VEC3"},{"bufferView":194,"componentType":5123,"count":18,"max":[13],"min":[0],"type":"SCALAR"},{"bufferView":195,"componentType":5126,"count":79,"max":[4096,-1024,2816],"min":[3072,-1536,1024],"type":"VEC3"},{"bufferView":196,"componentType":5126,"count":79,"max":[0.49803921580314636,0.5215686559677124,0.4274509847164154],"min":[0.12156862765550613,0.08235294371843338,0.03529411926865578],"type":"VEC3"},{"bufferView":197,"componentType":5126,"count":79,"max":[0.9921875,1],"min":[0.5,0.5078125],"type":"VEC2"},{"bufferView":198,"componentType":5126,"count":79,"max":[0,0,0],"min":[-1,0,-1],"type":"VEC3"},{"bufferView":199,"componentType":5123,"count":117,"max":[78],"min":[0],"type":"SCALAR"},{"bufferView":200,"componentType":5126,"count":72,"max":[3584,-1128,4096],"min":[2048,-1896,2816],"type":"VEC3"},{"bufferView":201,"componentType":5126,"count":72,"max":[0.8705882430076599,0.8117647171020508,0.6705882549285889],"min":[0,0,0],"type":"VEC3"},{"bufferView":202,"componentType":5126,"count":72,"max":[0.9921875,1],"min":[0.5,0.5078125],"type":"VEC2"},{"bufferView":203,"componentType":5126,"count":72,"max":[0,0.7204211354255676,0.11390021443367004],"min":[-0.9791983962059021,-0.520686686038971,-1],"type":"VEC3"},{"bufferView":204,"componentType":5123,"count":78,"max":[71],"min":[0],"type":"SCALAR"},{"bufferView":205,"componentType":5126,"count":62,"max":[4096,-1536,4096],"min":[2176,-1912,2816],"type":"VEC3"},{"bufferView":206,"componentType":5126,"count":62,"max":[1,0.9490196108818054,0.7803921699523926],"min":[0,0,0],"type":"VEC3"},{"bufferView":207,"componentType":5126,"count":62,"max":[0.9921875,0.5],"min":[0.5,0.0078125],"type":"VEC2"},{"bufferView":208,"componentType":5126,"count":62,"max":[0.24253562092781067,-0.8888888955116272,0.4471359848976135],"min":[-0.045319415628910065,-0.9970270991325378,-0.3162277638912201],"type":"VEC3"},{"bufferView":209,"componentType":5123,"count":84,"max":[61],"min":[0],"type":"SCALAR"},{"bufferView":210,"componentType":5126,"count":118,"max":[4160,-1520,2816],"min":[3008,-1664,1024],"type":"VEC3"},{"bufferView":211,"componentType":5126,"count":118,"max":[0.6313725709915161,0.5882353186607361,0.5098039507865906],"min":[0.0784313753247261,0.0784313753247261,0.03921568766236305],"type":"VEC3"},{"bufferView":212,"componentType":5126,"count":118,"max":[0.9921875,1],"min":[0.5,0.5078125],"type":"VEC2"},{"bufferView":213,"componentType":5126,"count":118,"max":[0.24253562092781067,-0.9701424837112427,0],"min":[-0.24253562092781067,-0.9701424837112427,0],"type":"VEC3"},{"bufferView":214,"componentType":5123,"count":174,"max":[117],"min":[0],"type":"SCALAR"},{"bufferView":215,"componentType":5126,"count":56,"max":[4160,-1520,2816],"min":[3008,-1536,1024],"type":"VEC3"},{"bufferView":216,"componentType":5126,"count":56,"max":[0.3803921639919281,0.34117648005485535,0.27450981736183167],"min":[0.12941177189350128,0.10196078568696976,0.05882352963089943],"type":"VEC3"},{"bufferView":217,"componentType":5126,"count":56,"max":[0.9921875,1],"min":[0.5,0.96875],"type":"VEC2"},{"bufferView":218,"componentType":5126,"count":56,"max":[0.24253562092781067,0.9701424837112427,0],"min":[-0.24253562092781067,0.9701424837112427,0],"type":"VEC3"},{"bufferView":219,"componentType":5123,"count":84,"max":[55],"min":[0],"type":"SCALAR"},{"bufferView":220,"componentType":5126,"count":47,"max":[4200,-280,-256],"min":[3128,-1416,-872],"type":"VEC3"},{"bufferView":221,"componentType":5126,"count":47,"max":[0.729411780834198,0.6117647290229797,0.42352941632270813],"min":[0,0,0],"type":"VEC3"},{"bufferView":222,"componentType":5126,"count":47,"max":[0.4921875,0.5],"min":[0,0.3828125],"type":"VEC2"},{"bufferView":223,"componentType":5126,"count":47,"max":[-0.5551838874816895,-0.14506134390830994,0.7906562685966492],"min":[-0.7879559993743896,-0.3930208086967468,0.5690712928771973],"type":"VEC3"},{"bufferView":224,"componentType":5123,"count":69,"max":[46],"min":[0],"type":"SCALAR"}],"materials":[{"pbrMetallicRoughness":{"metallicFactor":0,"roughnessFactor":0.9,"baseColorTexture":{"index":0}},"extensions":{"KHR_materials_unlit":{}},"alphaMode":"BLEND","doubleSided":false},{"pbrMetallicRoughness":{"metallicFactor":0,"roughnessFactor":0.9,"baseColorTexture":{"index":1}},"extensions":{"KHR_materials_unlit":{}},"alphaMode":"BLEND","doubleSided":false},{"pbrMetallicRoughness":{"metallicFactor":0,"roughnessFactor":0.9,"baseColorTexture":{"index":2}},"extensions":{"KHR_materials_unlit":{}},"alphaMode":"BLEND","doubleSided":false},{"pbrMetallicRoughness":{"metallicFactor":0,"roughnessFactor":0.9,"baseColorTexture":{"index":3}},"extensions":{"KHR_materials_unlit":{}},"alphaMode":"BLEND","doubleSided":false},{"pbrMetallicRoughness":{"metallicFactor":0,"roughnessFactor":0.9,"baseColorTexture":{"index":4}},"extensions":{"KHR_materials_unlit":{}},"alphaMode":"BLEND","doubleSided":false},{"pbrMetallicRoughness":{"metallicFactor":0,"roughnessFactor":0.9,"baseColorTexture":{"index":5}},"extensions":{"KHR_materials_unlit":{}},"alphaMode":"BLEND","doubleSided":false},{"pbrMetallicRoughness":{"metallicFactor":0,"roughnessFactor":0.9,"baseColorTexture":{"index":6}},"extensions":{"KHR_materials_unlit":{}},"alphaMode":"BLEND","doubleSided":false},{"pbrMetallicRoughness":{"metallicFactor":0,"roughnessFactor":0.9,"baseColorTexture":{"index":7}},"extensions":{"KHR_materials_unlit":{}},"alphaMode":"BLEND","doubleSided":false},{"pbrMetallicRoughness":{"metallicFactor":0,"roughnessFactor":0.9,"baseColorTexture":{"index":8}},"extensions":{"KHR_materials_unlit":{}},"alphaMode":"BLEND","doubleSided":false},{"pbrMetallicRoughness":{"metallicFactor":0,"roughnessFactor":0.9,"baseColorTexture":{"index":9}},"extensions":{"KHR_materials_unlit":{}},"alphaMode":"BLEND","doubleSided":false},{"pbrMetallicRoughness":{"metallicFactor":0,"roughnessFactor":0.9,"baseColorTexture":{"index":10}},"extensions":{"KHR_materials_unlit":{}},"alphaMode":"BLEND","doubleSided":false},{"pbrMetallicRoughness":{"metallicFactor":0,"roughnessFactor":0.9,"baseColorTexture":{"index":11}},"extensions":{"KHR_materials_unlit":{}},"alphaMode":"BLEND","doubleSided":false},{"pbrMetallicRoughness":{"metallicFactor":0,"roughnessFactor":0.9,"baseColorTexture":{"index":12}},"extensions":{"KHR_materials_unlit":{}},"alphaMode":"BLEND","doubleSided":false},{"pbrMetallicRoughness":{"metallicFactor":0,"roughnessFactor":0.9,"baseColorTexture":{"index":13}},"extensions":{"KHR_materials_unlit":{}},"alphaMode":"BLEND","doubleSided":false},{"pbrMetallicRoughness":{"metallicFactor":0,"roughnessFactor":0.9,"baseColorTexture":{"index":14}},"extensions":{"KHR_materials_unlit":{}},"alphaMode":"BLEND","doubleSided":false},{"pbrMetallicRoughness":{"metallicFactor":0,"roughnessFactor":0.9,"baseColorTexture":{"index":15}},"extensions":{"KHR_materials_unlit":{}},"alphaMode":"BLEND","doubleSided":false},{"pbrMetallicRoughness":{"metallicFactor":0,"roughnessFactor":0.9,"baseColorTexture":{"index":16}},"extensions":{"KHR_materials_unlit":{}},"alphaMode":"BLEND","doubleSided":false},{"pbrMetallicRoughness":{"metallicFactor":0,"roughnessFactor":0.9,"baseColorTexture":{"index":17}},"extensions":{"KHR_materials_unlit":{}},"alphaMode":"BLEND","doubleSided":false},{"pbrMetallicRoughness":{"metallicFactor":0,"roughnessFactor":0.9,"baseColorTexture":{"index":18}},"extensions":{"KHR_materials_unlit":{}},"alphaMode":"BLEND","doubleSided":false},{"pbrMetallicRoughness":{"metallicFactor":0,"roughnessFactor":0.9,"baseColorTexture":{"index":19}},"extensions":{"KHR_materials_unlit":{}},"alphaMode":"BLEND","doubleSided":false},{"pbrMetallicRoughness":{"metallicFactor":0,"roughnessFactor":0.9,"baseColorTexture":{"index":20}},"extensions":{"KHR_materials_unlit":{}},"alphaMode":"BLEND","doubleSided":false},{"pbrMetallicRoughness":{"metallicFactor":0,"roughnessFactor":0.9,"baseColorTexture":{"index":21}},"extensions":{"KHR_materials_unlit":{}},"alphaMode":"BLEND","doubleSided":false},{"pbrMetallicRoughness":{"metallicFactor":0,"roughnessFactor":0.9,"baseColorTexture":{"index":22}},"extensions":{"KHR_materials_unlit":{}},"alphaMode":"BLEND","doubleSided":false},{"pbrMetallicRoughness":{"metallicFactor":0,"roughnessFactor":0.9,"baseColorTexture":{"index":23}},"extensions":{"KHR_materials_unlit":{}},"alphaMode":"BLEND","doubleSided":false},{"pbrMetallicRoughness":{"metallicFactor":0,"roughnessFactor":0.9,"baseColorTexture":{"index":24}},"extensions":{"KHR_materials_unlit":{}},"alphaMode":"BLEND","doubleSided":false},{"pbrMetallicRoughness":{"metallicFactor":0,"roughnessFactor":0.9,"baseColorTexture":{"index":25}},"extensions":{"KHR_materials_unlit":{}},"alphaMode":"BLEND","doubleSided":false},{"pbrMetallicRoughness":{"metallicFactor":0,"roughnessFactor":0.9,"baseColorTexture":{"index":26}},"extensions":{"KHR_materials_unlit":{}},"alphaMode":"BLEND","doubleSided":false},{"pbrMetallicRoughness":{"metallicFactor":0,"roughnessFactor":0.9,"baseColorTexture":{"index":27}},"extensions":{"KHR_materials_unlit":{}},"alphaMode":"BLEND","doubleSided":false},{"pbrMetallicRoughness":{"metallicFactor":0,"roughnessFactor":0.9,"baseColorTexture":{"index":28}},"extensions":{"KHR_materials_unlit":{}},"alphaMode":"BLEND","doubleSided":false},{"pbrMetallicRoughness":{"metallicFactor":0,"roughnessFactor":0.9,"baseColorTexture":{"index":29}},"extensions":{"KHR_materials_unlit":{}},"alphaMode":"BLEND","doubleSided":false},{"pbrMetallicRoughness":{"metallicFactor":0,"roughnessFactor":0.9,"baseColorTexture":{"index":30}},"extensions":{"KHR_materials_unlit":{}},"alphaMode":"BLEND","doubleSided":false},{"pbrMetallicRoughness":{"metallicFactor":0,"roughnessFactor":0.9,"baseColorTexture":{"index":31}},"extensions":{"KHR_materials_unlit":{}},"alphaMode":"BLEND","doubleSided":false},{"pbrMetallicRoughness":{"metallicFactor":0,"roughnessFactor":0.9,"baseColorTexture":{"index":32}},"extensions":{"KHR_materials_unlit":{}},"alphaMode":"BLEND","doubleSided":false},{"pbrMetallicRoughness":{"metallicFactor":0,"roughnessFactor":0.9,"baseColorTexture":{"index":33}},"extensions":{"KHR_materials_unlit":{}},"alphaMode":"BLEND","doubleSided":false},{"pbrMetallicRoughness":{"metallicFactor":0,"roughnessFactor":0.9,"baseColorTexture":{"index":34}},"extensions":{"KHR_materials_unlit":{}},"alphaMode":"BLEND","doubleSided":false},{"pbrMetallicRoughness":{"metallicFactor":0,"roughnessFactor":0.9,"baseColorTexture":{"index":35}},"extensions":{"KHR_materials_unlit":{}},"alphaMode":"BLEND","doubleSided":false},{"pbrMetallicRoughness":{"metallicFactor":0,"roughnessFactor":0.9,"baseColorTexture":{"index":36}},"extensions":{"KHR_materials_unlit":{}},"alphaMode":"BLEND","doubleSided":false},{"pbrMetallicRoughness":{"metallicFactor":0,"roughnessFactor":0.9,"baseColorTexture":{"index":37}},"extensions":{"KHR_materials_unlit":{}},"alphaMode":"BLEND","doubleSided":false},{"pbrMetallicRoughness":{"metallicFactor":0,"roughnessFactor":0.9,"baseColorTexture":{"index":38}},"extensions":{"KHR_materials_unlit":{}},"alphaMode":"BLEND","doubleSided":false},{"pbrMetallicRoughness":{"metallicFactor":0,"roughnessFactor":0.9,"baseColorTexture":{"index":39}},"extensions":{"KHR_materials_unlit":{}},"alphaMode":"BLEND","doubleSided":false},{"pbrMetallicRoughness":{"metallicFactor":0,"roughnessFactor":0.9,"baseColorTexture":{"index":40}},"extensions":{"KHR_materials_unlit":{}},"alphaMode":"BLEND","doubleSided":false},{"pbrMetallicRoughness":{"metallicFactor":0,"roughnessFactor":0.9,"baseColorTexture":{"index":41}},"extensions":{"KHR_materials_unlit":{}},"alphaMode":"BLEND","doubleSided":false},{"pbrMetallicRoughness":{"metallicFactor":0,"roughnessFactor":0.9,"baseColorTexture":{"index":42}},"extensions":{"KHR_materials_unlit":{}},"alphaMode":"BLEND","doubleSided":false},{"pbrMetallicRoughness":{"metallicFactor":0,"roughnessFactor":0.9,"baseColorTexture":{"index":43}},"extensions":{"KHR_materials_unlit":{}},"alphaMode":"BLEND","doubleSided":false},{"pbrMetallicRoughness":{"metallicFactor":0,"roughnessFactor":0.9,"baseColorTexture":{"index":44}},"extensions":{"KHR_materials_unlit":{}},"alphaMode":"BLEND","doubleSided":false}],"textures":[{"sampler":0,"source":0},{"sampler":1,"source":0},{"sampler":2,"source":0},{"sampler":3,"source":0},{"sampler":4,"source":0},{"sampler":5,"source":0},{"sampler":6,"source":0},{"sampler":7,"source":0},{"sampler":8,"source":0},{"sampler":9,"source":0},{"sampler":10,"source":0},{"sampler":11,"source":0},{"sampler":12,"source":1},{"sampler":13,"source":2},{"sampler":14,"source":3},{"sampler":15,"source":4},{"sampler":16,"source":5},{"sampler":17,"source":6},{"sampler":18,"source":7},{"sampler":19,"source":8},{"sampler":20,"source":9},{"sampler":21,"source":10},{"sampler":22,"source":11},{"sampler":23,"source":12},{"sampler":24,"source":0},{"sampler":25,"source":13},{"sampler":26,"source":14},{"sampler":27,"source":0},{"sampler":28,"source":15},{"sampler":29,"source":16},{"sampler":30,"source":12},{"sampler":31,"source":11},{"sampler":32,"source":15},{"sampler":33,"source":13},{"sampler":34,"source":11},{"sampler":35,"source":12},{"sampler":36,"source":12},{"sampler":37,"source":11},{"sampler":38,"source":17},{"sampler":39,"source":14},{"sampler":40,"source":13},{"sampler":41,"source":11},{"sampler":42,"source":18},{"sampler":43,"source":14},{"sampler":44,"source":19}],"samplers":[{"magFilter":9728,"minFilter":9728,"wrapS":10497,"wrapT":10497},{"magFilter":9728,"minFilter":9728,"wrapS":10497,"wrapT":10497},{"magFilter":9728,"minFilter":9728,"wrapS":10497,"wrapT":10497},{"magFilter":9728,"minFilter":9728,"wrapS":10497,"wrapT":10497},{"magFilter":9728,"minFilter":9728,"wrapS":10497,"wrapT":10497},{"magFilter":9728,"minFilter":9728,"wrapS":10497,"wrapT":10497},{"magFilter":9728,"minFilter":9728,"wrapS":10497,"wrapT":10497},{"magFilter":9728,"minFilter":9728,"wrapS":10497,"wrapT":10497},{"magFilter":9728,"minFilter":9728,"wrapS":10497,"wrapT":10497},{"magFilter":9728,"minFilter":9728,"wrapS":10497,"wrapT":10497},{"magFilter":9728,"minFilter":9728,"wrapS":10497,"wrapT":10497},{"magFilter":9728,"minFilter":9728,"wrapS":10497,"wrapT":10497},{"magFilter":9728,"minFilter":9728,"wrapS":10497,"wrapT":10497},{"magFilter":9728,"minFilter":9728,"wrapS":10497,"wrapT":10497},{"magFilter":9728,"minFilter":9728,"wrapS":10497,"wrapT":10497},{"magFilter":9728,"minFilter":9728,"wrapS":10497,"wrapT":10497},{"magFilter":9728,"minFilter":9728,"wrapS":10497,"wrapT":10497},{"magFilter":9728,"minFilter":9728,"wrapS":10497,"wrapT":10497},{"magFilter":9728,"minFilter":9728,"wrapS":10497,"wrapT":10497},{"magFilter":9728,"minFilter":9728,"wrapS":10497,"wrapT":10497},{"magFilter":9728,"minFilter":9728,"wrapS":10497,"wrapT":10497},{"magFilter":9728,"minFilter":9728,"wrapS":10497,"wrapT":10497},{"magFilter":9728,"minFilter":9728,"wrapS":10497,"wrapT":10497},{"magFilter":9728,"minFilter":9728,"wrapS":10497,"wrapT":10497},{"magFilter":9728,"minFilter":9728,"wrapS":10497,"wrapT":10497},{"magFilter":9728,"minFilter":9728,"wrapS":10497,"wrapT":10497},{"magFilter":9728,"minFilter":9728,"wrapS":10497,"wrapT":10497},{"magFilter":9728,"minFilter":9728,"wrapS":10497,"wrapT":10497},{"magFilter":9728,"minFilter":9728,"wrapS":10497,"wrapT":10497},{"magFilter":9728,"minFilter":9728,"wrapS":10497,"wrapT":10497},{"magFilter":9728,"minFilter":9728,"wrapS":10497,"wrapT":10497},{"magFilter":9728,"minFilter":9728,"wrapS":10497,"wrapT":10497},{"magFilter":9728,"minFilter":9728,"wrapS":10497,"wrapT":10497},{"magFilter":9728,"minFilter":9728,"wrapS":10497,"wrapT":10497},{"magFilter":9728,"minFilter":9728,"wrapS":10497,"wrapT":10497},{"magFilter":9728,"minFilter":9728,"wrapS":10497,"wrapT":10497},{"magFilter":9728,"minFilter":9728,"wrapS":10497,"wrapT":10497},{"magFilter":9728,"minFilter":9728,"wrapS":10497,"wrapT":10497},{"magFilter":9728,"minFilter":9728,"wrapS":10497,"wrapT":10497},{"magFilter":9728,"minFilter":9728,"wrapS":10497,"wrapT":10497},{"magFilter":9728,"minFilter":9728,"wrapS":10497,"wrapT":10497},{"magFilter":9728,"minFilter":9728,"wrapS":10497,"wrapT":10497},{"magFilter":9728,"minFilter":9728,"wrapS":10497,"wrapT":10497},{"magFilter":9728,"minFilter":9728,"wrapS":10497,"wrapT":10497},{"magFilter":9728,"minFilter":9728,"wrapS":10497,"wrapT":10497}],"images":[{"mimeType":"image/png","uri":"MAP211_0.png"},{"mimeType":"image/png","uri":"MAP211_1.png"},{"mimeType":"image/png","uri":"MAP211_2.png"},{"mimeType":"image/png","uri":"MAP211_3.png"},{"mimeType":"image/png","uri":"MAP211_4.png"},{"mimeType":"image/png","uri":"MAP211_5.png"},{"mimeType":"image/png","uri":"MAP211_6.png"},{"mimeType":"image/png","uri":"MAP211_7.png"},{"mimeType":"image/png","uri":"MAP211_8.png"},{"mimeType":"image/png","uri":"MAP211_9.png"},{"mimeType":"image/png","uri":"MAP211_10.png"},{"mimeType":"image/png","uri":"MAP211_11.png"},{"mimeType":"image/png","uri":"MAP211_12.png"},{"mimeType":"image/png","uri":"MAP211_13.png"},{"mimeType":"image/png","uri":"MAP211_14.png"},{"mimeType":"image/png","uri":"MAP211_15.png"},{"mimeType":"image/png","uri":"MAP211_16.png"},{"mimeType":"image/png","uri":"MAP211_17.png"},{"mimeType":"image/png","uri":"MAP211_18.png"},{"mimeType":"image/png","uri":"MAP211_19.png"}],"meshes":[{"primitives":[{"mode":4,"attributes":{"POSITION":0,"COLOR_0":1,"TEXCOORD_0":2,"NORMAL":3},"indices":4,"material":0}]},{"primitives":[{"mode":4,"attributes":{"POSITION":5,"COLOR_0":6,"TEXCOORD_0":7,"NORMAL":8},"indices":9,"material":1}]},{"primitives":[{"mode":4,"attributes":{"POSITION":10,"COLOR_0":11,"TEXCOORD_0":12,"NORMAL":13},"indices":14,"material":2}]},{"primitives":[{"mode":4,"attributes":{"POSITION":15,"COLOR_0":16,"TEXCOORD_0":17,"NORMAL":18},"indices":19,"material":3}]},{"primitives":[{"mode":4,"attributes":{"POSITION":20,"COLOR_0":21,"TEXCOORD_0":22,"NORMAL":23},"indices":24,"material":4}]},{"primitives":[{"mode":4,"attributes":{"POSITION":25,"COLOR_0":26,"TEXCOORD_0":27,"NORMAL":28},"indices":29,"material":5}]},{"primitives":[{"mode":4,"attributes":{"POSITION":30,"COLOR_0":31,"TEXCOORD_0":32,"NORMAL":33},"indices":34,"material":6}]},{"primitives":[{"mode":4,"attributes":{"POSITION":35,"COLOR_0":36,"TEXCOORD_0":37,"NORMAL":38},"indices":39,"material":7}]},{"primitives":[{"mode":4,"attributes":{"POSITION":40,"COLOR_0":41,"TEXCOORD_0":42,"NORMAL":43},"indices":44,"material":8}]},{"primitives":[{"mode":4,"attributes":{"POSITION":45,"COLOR_0":46,"TEXCOORD_0":47,"NORMAL":48},"indices":49,"material":9}]},{"primitives":[{"mode":4,"attributes":{"POSITION":50,"COLOR_0":51,"TEXCOORD_0":52,"NORMAL":53},"indices":54,"material":10}]},{"primitives":[{"mode":4,"attributes":{"POSITION":55,"COLOR_0":56,"TEXCOORD_0":57,"NORMAL":58},"indices":59,"material":11}]},{"primitives":[{"mode":4,"attributes":{"POSITION":60,"COLOR_0":61,"TEXCOORD_0":62,"NORMAL":63},"indices":64,"material":12}]},{"primitives":[{"mode":4,"attributes":{"POSITION":65,"COLOR_0":66,"TEXCOORD_0":67,"NORMAL":68},"indices":69,"material":13}]},{"primitives":[{"mode":4,"attributes":{"POSITION":70,"COLOR_0":71,"TEXCOORD_0":72,"NORMAL":73},"indices":74,"material":14}]},{"primitives":[{"mode":4,"attributes":{"POSITION":75,"COLOR_0":76,"TEXCOORD_0":77,"NORMAL":78},"indices":79,"material":15}]},{"primitives":[{"mode":4,"attributes":{"POSITION":80,"COLOR_0":81,"TEXCOORD_0":82,"NORMAL":83},"indices":84,"material":16}]},{"primitives":[{"mode":4,"attributes":{"POSITION":85,"COLOR_0":86,"TEXCOORD_0":87,"NORMAL":88},"indices":89,"material":17}]},{"primitives":[{"mode":4,"attributes":{"POSITION":90,"COLOR_0":91,"TEXCOORD_0":92,"NORMAL":93},"indices":94,"material":18}]},{"primitives":[{"mode":4,"attributes":{"POSITION":95,"COLOR_0":96,"TEXCOORD_0":97,"NORMAL":98},"indices":99,"material":19}]},{"primitives":[{"mode":4,"attributes":{"POSITION":100,"COLOR_0":101,"TEXCOORD_0":102,"NORMAL":103},"indices":104,"material":20}]},{"primitives":[{"mode":4,"attributes":{"POSITION":105,"COLOR_0":106,"TEXCOORD_0":107,"NORMAL":108},"indices":109,"material":21}]},{"primitives":[{"mode":4,"attributes":{"POSITION":110,"COLOR_0":111,"TEXCOORD_0":112,"NORMAL":113},"indices":114,"material":22}]},{"primitives":[{"mode":4,"attributes":{"POSITION":115,"COLOR_0":116,"TEXCOORD_0":117,"NORMAL":118},"indices":119,"material":23}]},{"primitives":[{"mode":4,"attributes":{"POSITION":120,"COLOR_0":121,"TEXCOORD_0":122,"NORMAL":123},"indices":124,"material":24}]},{"primitives":[{"mode":4,"attributes":{"POSITION":125,"COLOR_0":126,"TEXCOORD_0":127,"NORMAL":128},"indices":129,"material":25}]},{"primitives":[{"mode":4,"attributes":{"POSITION":130,"COLOR_0":131,"TEXCOORD_0":132,"NORMAL":133},"indices":134,"material":26}]},{"primitives":[{"mode":4,"attributes":{"POSITION":135,"COLOR_0":136,"TEXCOORD_0":137,"NORMAL":138},"indices":139,"material":27}]},{"primitives":[{"mode":4,"attributes":{"POSITION":140,"COLOR_0":141,"TEXCOORD_0":142,"NORMAL":143},"indices":144,"material":28}]},{"primitives":[{"mode":4,"attributes":{"POSITION":145,"COLOR_0":146,"TEXCOORD_0":147,"NORMAL":148},"indices":149,"material":29}]},{"primitives":[{"mode":4,"attributes":{"POSITION":150,"COLOR_0":151,"TEXCOORD_0":152,"NORMAL":153},"indices":154,"material":30}]},{"primitives":[{"mode":4,"attributes":{"POSITION":155,"COLOR_0":156,"TEXCOORD_0":157,"NORMAL":158},"indices":159,"material":31}]},{"primitives":[{"mode":4,"attributes":{"POSITION":160,"COLOR_0":161,"TEXCOORD_0":162,"NORMAL":163},"indices":164,"material":32}]},{"primitives":[{"mode":4,"attributes":{"POSITION":165,"COLOR_0":166,"TEXCOORD_0":167,"NORMAL":168},"indices":169,"material":33}]},{"primitives":[{"mode":4,"attributes":{"POSITION":170,"COLOR_0":171,"TEXCOORD_0":172,"NORMAL":173},"indices":174,"material":34}]},{"primitives":[{"mode":4,"attributes":{"POSITION":175,"COLOR_0":176,"TEXCOORD_0":177,"NORMAL":178},"indices":179,"material":35}]},{"primitives":[{"mode":4,"attributes":{"POSITION":180,"COLOR_0":181,"TEXCOORD_0":182,"NORMAL":183},"indices":184,"material":36}]},{"primitives":[{"mode":4,"attributes":{"POSITION":185,"COLOR_0":186,"TEXCOORD_0":187,"NORMAL":188},"indices":189,"material":37}]},{"primitives":[{"mode":4,"attributes":{"POSITION":190,"COLOR_0":191,"TEXCOORD_0":192,"NORMAL":193},"indices":194,"material":38}]},{"primitives":[{"mode":4,"attributes":{"POSITION":195,"COLOR_0":196,"TEXCOORD_0":197,"NORMAL":198},"indices":199,"material":39}]},{"primitives":[{"mode":4,"attributes":{"POSITION":200,"COLOR_0":201,"TEXCOORD_0":202,"NORMAL":203},"indices":204,"material":40}]},{"primitives":[{"mode":4,"attributes":{"POSITION":205,"COLOR_0":206,"TEXCOORD_0":207,"NORMAL":208},"indices":209,"material":41}]},{"primitives":[{"mode":4,"attributes":{"POSITION":210,"COLOR_0":211,"TEXCOORD_0":212,"NORMAL":213},"indices":214,"material":42}]},{"primitives":[{"mode":4,"attributes":{"POSITION":215,"COLOR_0":216,"TEXCOORD_0":217,"NORMAL":218},"indices":219,"material":43}]},{"primitives":[{"mode":4,"attributes":{"POSITION":220,"COLOR_0":221,"TEXCOORD_0":222,"NORMAL":223},"indices":224,"material":44}]}],"extensionsUsed":["KHR_materials_unlit"]}