# Blender 5.0.0
# www.blender.org
mtllib Kotaro.mtl
o Kotaro
v -0.192453 4.188892 -0.218387
v 0.149963 4.304650 -0.176572
v 0.182455 4.196730 -0.213937
v -0.157462 4.304650 -0.176572
v -0.209949 3.046530 0.274473
v 0.239941 3.745297 0.339631
v -0.252438 3.747790 0.339452
v 0.202451 3.046530 0.274473
v 0.339917 3.037467 -0.306212
v -0.229944 3.314690 -0.423816
v 0.224945 3.314690 -0.423816
v -0.344916 3.037467 -0.306212
v -0.487381 3.460570 -0.276414
v -0.519873 3.172053 0.207839
v -0.487381 3.459295 0.264920
v -0.519873 3.176930 -0.178397
v -0.254938 3.461133 0.465249
v -0.247440 3.028028 0.330926
v -0.217447 4.231623 -0.251520
v 0.212448 4.231623 -0.251520
v -0.437393 3.759700 0.260920
v 0.487381 3.471760 0.264027
v 0.514874 3.176930 -0.178397
v 0.487381 3.473212 -0.274815
v 0.514874 3.172053 0.207839
v 0.242441 3.028028 0.330926
v 0.247440 3.461133 0.465249
v 0.432394 3.759700 0.260920
v -0.019995 3.116222 0.512533
v 0.032492 4.178725 0.195585
v 0.102475 4.218610 0.065784
v 0.114972 4.287102 0.121082
v -0.224945 4.397655 -0.048485
v -0.197452 4.452660 -0.046832
v -0.169958 4.345182 -0.017368
v -0.157462 4.358102 0.043752
v -0.207449 4.453920 0.035960
v -0.212448 4.458817 -0.028825
v -0.122470 4.287102 0.121082
v -0.032492 4.324795 0.219158
v -0.152463 4.448123 0.145785
v 0.144965 4.448123 0.145785
v 0.027493 4.324795 0.219158
v -0.024994 4.435560 0.212497
v -0.054987 4.485815 0.243862
v 0.214947 4.458817 -0.028825
v 0.207449 4.453920 0.035960
v 0.159961 4.358102 0.043752
v 0.227444 4.397655 -0.048485
v 0.199951 4.452660 -0.046832
v 0.017496 4.435560 0.212497
v 0.047488 4.485815 0.243862
v 0.169958 4.345182 -0.017368
v -0.039990 4.178725 0.195585
v -0.109973 4.218610 0.065784
v -0.194952 4.453423 0.241413
v -0.114972 4.254692 0.251448
v -0.202451 4.448712 0.303706
v -0.077481 4.687080 0.266596
v -0.142465 4.695600 0.187049
v -0.197452 4.659817 0.229451
v -0.124969 4.471370 0.335491
v -0.152463 4.471705 0.297926
v -0.154962 4.667730 0.124798
v -0.014996 4.451307 0.236241
v -0.154962 4.521932 0.163895
v -0.154962 4.487047 0.161258
v -0.212448 4.561210 0.008988
v 0.007498 4.451307 0.236241
v 0.144965 4.521932 0.163895
v -0.104974 4.678577 0.213327
v -0.097476 4.719722 0.166318
v -0.147464 4.639797 0.162782
v 0.097476 4.681070 0.213516
v 0.142465 4.639797 0.162782
v 0.089978 4.719722 0.166318
v 0.147464 4.656812 -0.161709
v 0.000000 4.668433 -0.215962
v 0.082480 4.738285 -0.145525
v -0.154962 4.656812 -0.161709
v -0.092477 4.738285 -0.145525
v 0.202451 4.460975 0.008928
v -0.019995 4.333862 0.264951
v 0.012497 4.333862 0.264951
v -0.177457 4.686363 0.010932
v -0.209949 4.460975 0.008928
v 0.204950 4.561210 0.008988
v 0.172458 4.686363 0.010932
v 0.094977 4.771270 0.014845
v -0.104974 4.771270 0.014845
v 0.000000 4.522172 -0.237043
v 0.172458 4.451925 -0.169680
v -0.009998 4.431527 -0.231366
v 0.177457 4.542570 -0.175357
v -0.184955 4.542570 -0.175357
v -0.179956 4.451925 -0.169680
v -0.072482 4.449247 -0.192258
v 0.054987 4.451645 -0.191551
v -0.004999 4.322100 -0.414689
v 0.000000 3.967487 -0.563551
v 0.000000 3.635470 -0.382769
v -0.297427 3.948925 -0.438791
v 0.299927 3.948925 -0.438791
v 0.000000 3.980717 -0.343460
v -0.483322 4.059220 -0.057676
v -0.387296 4.143908 -0.140139
v -0.453695 3.963135 -0.290101
v -0.660258 3.541017 -0.016170
v -0.559025 3.900482 0.160805
v -0.672930 3.772857 -0.002237
v -0.445017 3.553875 0.146862
v -0.334948 3.045980 -0.325812
v -0.442019 3.560437 -0.304674
v -0.245465 3.461902 -0.115300
v -0.411697 3.164300 -0.400982
v -0.311959 3.016715 0.183485
v -0.242061 3.460070 0.098020
v -0.568982 3.543770 -0.305457
v -0.693437 3.145562 -0.358132
v -0.799778 3.009088 0.053144
v -0.583258 3.905455 -0.235426
v -0.643106 2.634360 -0.157654
v -0.489792 2.388052 -0.135048
v -0.609014 2.294535 -0.090523
v -0.420412 2.629325 -0.157626
v -0.641941 2.631207 0.110615
v -0.608373 2.292524 0.054916
v -0.419247 2.626173 0.110644
v -0.488947 2.389130 0.087825
v -0.414868 2.886305 -0.384156
v -0.669405 2.881078 -0.303231
v -0.439086 2.097302 0.121218
v -0.464061 2.096468 0.121316
v -0.436592 2.094200 0.093457
v -0.561787 2.072518 -0.135044
v -0.632132 2.157784 -0.134042
v -0.518005 2.184199 -0.135514
v -0.623220 2.040379 -0.134268
v -0.631265 2.158189 0.088819
v -0.622271 2.038293 0.088429
v -0.517138 2.184604 0.087347
v -0.560920 2.072923 0.087817
v -0.431268 2.162730 0.120444
v -0.475811 2.148775 0.119803
v -0.426384 2.160855 0.075223
v -0.477303 2.018454 -0.132587
v -0.466087 1.991978 0.091289
v -0.466488 1.993848 -0.133640
v -0.479488 2.019099 0.089954
v -0.536834 2.014699 0.089935
v -0.553148 1.979102 0.091004
v -0.550962 1.978457 -0.131537
v -0.537146 2.013971 -0.132602
v 0.556333 4.058620 -0.053395
v 0.493030 3.963767 -0.285836
v 0.380722 4.146390 -0.135842
v 0.702820 3.771250 0.007269
v 0.481934 3.544012 0.147125
v 0.692203 3.538590 -0.006798
v 0.591658 3.896877 0.159112
v 0.271648 3.467062 -0.117697
v 0.448183 3.160520 -0.401937
v 0.371429 3.044297 -0.325929
v 0.478112 3.544142 -0.299910
v 0.268492 3.460560 0.098537
v 0.349737 3.017760 0.182774
v 0.735207 3.140160 -0.358190
v 0.600449 3.539195 -0.277361
v 0.617755 3.903068 -0.228808
v 0.834802 3.007775 0.052138
v 0.643047 2.293728 -0.091852
v 0.455353 2.630258 -0.161508
v 0.675349 2.634687 -0.161838
v 0.524519 2.390539 -0.138475
v 0.642659 2.292889 0.051612
v 0.677086 2.631238 0.110208
v 0.523910 2.389055 0.085551
v 0.454591 2.626840 0.110532
v 0.704101 2.884253 -0.304152
v 0.451945 2.888352 -0.385332
v 0.472353 2.095199 0.117656
v 0.469866 2.090825 0.090071
v 0.499839 2.094823 0.117723
v 0.551712 2.184511 -0.137576
v 0.657196 2.038169 -0.137915
v 0.595172 2.071537 -0.139870
v 0.666319 2.157968 -0.137828
v 0.656608 2.038375 0.086964
v 0.665731 2.158174 0.087050
v 0.594584 2.071743 0.085008
v 0.551131 2.184770 0.084805
v 0.508044 2.147154 0.118864
v 0.465767 2.162717 0.119081
v 0.460840 2.158802 0.071510
v 0.499134 1.993459 -0.137219
v 0.513883 2.018813 0.087532
v 0.511961 2.018263 -0.134754
v 0.501050 1.994015 0.087564
v 0.585805 1.977870 0.087811
v 0.571321 2.015529 0.087679
v 0.586388 1.977279 -0.136966
v 0.569405 2.014972 -0.137104
v -0.404901 2.790620 -0.372145
v 0.224945 2.389804 -0.495976
v -0.224945 2.389804 -0.495976
v 0.399902 2.790620 -0.372145
v -0.644843 2.306091 0.370668
v -0.537369 2.009353 0.472277
v -0.627347 2.376204 0.444705
v -0.059985 2.191761 0.440984
v -0.222446 2.585445 0.387241
v -0.107474 1.861638 0.499056
v 0.000000 1.812069 0.195547
v -0.642343 2.173318 0.163665
v -0.337417 2.360829 0.345906
v -0.449890 2.644450 0.162845
v -0.504877 2.259193 0.475050
v -0.374908 2.480162 0.468979
v -0.354913 2.073663 0.501709
v -0.257437 2.411965 0.467772
v -0.517374 2.190351 0.468887
v -0.517374 2.192525 0.408124
v -0.354913 1.778573 0.499784
v -0.374908 2.479858 0.408539
v -0.257437 2.411661 0.407332
v -0.532370 1.725218 -0.433229
v -0.762314 1.550419 0.063272
v -0.432394 2.201305 -0.434693
v -0.494879 1.433077 0.459057
v 0.034991 1.711962 -0.418904
v -0.032492 1.975361 -0.370016
v -0.169958 1.400401 0.556548
v 0.112473 1.550742 0.065750
v -0.154962 0.636551 -0.657264
v -0.252438 0.353494 0.205497
v -0.252438 0.372449 -0.177134
v 0.184955 0.636130 -0.151770
v -0.572360 0.639033 -0.656978
v -0.494879 0.372449 -0.177134
v -0.557364 0.636296 0.479549
v -0.494879 0.353494 0.205497
v -0.964764 0.636416 -0.154252
v -0.127469 0.636210 0.567569
v -0.764813 1.303172 0.018182
v -0.519873 1.316383 -0.510990
v -0.177457 1.284896 0.504012
v -0.492380 1.284889 0.438617
v -0.042490 1.316383 -0.510990
v 0.134967 1.302886 0.020664
v -0.494879 0.001410 -0.168713
v -0.519873 0.058611 0.562281
v -0.464887 0.190916 0.153386
v -0.519873 -0.003046 0.573169
v -0.227444 -0.003046 0.573169
v -0.227444 0.058611 0.562281
v -0.284930 0.190916 0.153386
v -0.264935 0.001410 -0.168713
v 0.119971 1.861638 0.499056
v 0.364911 2.345418 0.363031
v 0.214947 2.585445 0.387241
v 0.622348 2.173318 0.163665
v 0.442392 2.644450 0.162845
v -0.002499 1.812069 0.195547
v 0.054987 2.191761 0.440984
v 0.419897 2.201305 -0.434693
v 0.722324 1.550419 0.063272
v 0.509875 1.725218 -0.433229
v 0.034991 1.975361 -0.370016
v -0.029993 1.714763 -0.416749
v 0.449890 1.430377 0.477048
v -0.144965 1.550742 0.065750
v 0.127469 1.400401 0.556548
v 0.227444 0.353494 0.205497
v 0.199951 0.636210 0.567569
v -0.207449 0.636130 -0.151770
v 0.469885 0.353494 0.205497
v 0.924774 0.636416 -0.154252
v 0.519873 0.638399 0.504943
v 0.174957 0.639033 -0.656978
v 0.227444 0.372449 -0.177134
v 0.469885 0.372449 -0.177134
v 0.602353 0.639033 -0.656978
v 0.497378 1.316383 -0.510990
v 0.727322 1.303172 0.018182
v 0.057486 1.316383 -0.510990
v 0.462387 1.294338 0.422101
v 0.129968 1.284896 0.504012
v -0.159961 1.302886 0.020664
v 0.437393 0.190916 0.153386
v 0.494879 -0.003046 0.573169
v 0.467386 0.001410 -0.168713
v 0.494879 0.058611 0.562281
v 0.202451 0.058611 0.562281
v 0.202451 -0.003046 0.573169
v 0.259937 0.190916 0.153386
v 0.239941 0.001410 -0.168713
v -0.004999 4.221292 -0.255790
v -0.257437 2.867632 0.368157
v -0.309924 2.875555 0.283413
v -0.149963 2.840160 0.367211
v -0.257437 2.840160 0.367211
v -0.292428 2.784785 0.377805
v 0.394903 2.893735 0.066904
v 0.402402 2.976850 -0.081901
v 0.394903 3.037017 0.080478
v 0.052487 4.048662 0.097371
v -0.054987 4.049735 0.112329
v 0.287430 2.784785 0.377805
v 0.215040 4.027542 0.174007
v -0.216199 4.019453 0.174728
v -0.575952 2.995722 0.269507
v 0.611628 2.995243 0.268845
v 0.381230 4.093612 0.101555
v -0.387281 4.091310 0.097268
vn -0.9424 0.0232 0.3338
vn -0.7574 0.6456 -0.0977
vn -0.9423 0.0231 0.3338
vn -0.7504 -0.6609 -0.0055
vn 0.0950 0.8314 0.5475
vn 0.9498 -0.0364 0.3106
vn 0.9500 0.0757 0.3028
vn 0.0855 -0.7307 0.6773
vn -0.7342 0.6011 -0.3155
vn -0.9543 -0.2983 -0.0185
vn -0.9553 0.2894 -0.0602
vn -0.7345 -0.6400 -0.2256
vn -0.2649 -0.8436 0.4670
vn 0.3452 -0.8845 -0.3139
vn 0.2609 -0.8432 0.4701
vn -0.3084 -0.9039 -0.2966
vn 0.8244 -0.5650 -0.0342
vn 0.7102 -0.6070 -0.3565
vn -0.9456 -0.2427 0.2167
vn -0.9468 0.2654 0.1820
vn 0.8195 -0.5250 0.2297
vn 0.2776 0.8951 0.3490
vn -0.3071 0.8487 -0.4306
vn -0.7977 0.4702 0.3775
vn 0.3438 0.8274 -0.4440
vn 0.7184 0.5381 -0.4408
vn 0.8410 0.5298 -0.1097
vn 0.8586 0.4794 0.1815
vn 0.5119 0.2931 0.8075
vn 0.5303 -0.0978 0.8421
vn 0.5165 -0.0826 0.8523
vn 0.5211 0.2865 0.8040
vn -0.6853 0.0762 0.7242
vn -0.3108 -0.8997 0.3064
vn 0.8242 -0.0629 -0.5627
vn -0.2898 0.9435 0.1610
vn 0.6082 0.6006 -0.5191
vn 0.3435 0.9020 -0.2615
vn 0.5188 0.8335 -0.1902
vn -0.6963 -0.7033 -0.1431
vn -0.9704 -0.2153 0.1098
vn -0.9029 0.4076 -0.1367
vn 0.3280 -0.8505 -0.4110
vn 0.3281 -0.8505 -0.4110
vn 0.3281 -0.8505 -0.4111
vn -0.1665 -0.9839 -0.0647
vn 0.5191 -0.7942 -0.3158
vn 0.7710 -0.5591 -0.3050
vn 0.6490 -0.6999 -0.2983
vn 0.6448 0.7418 -0.1841
vn 0.7709 0.5996 -0.2149
vn 0.7010 -0.6091 -0.3710
vn 0.8729 -0.3631 -0.3258
vn -0.1665 0.9825 0.0840
vn 0.3282 0.9026 -0.2785
vn -0.1666 0.9824 0.0841
vn -0.6963 0.7168 -0.0357
vn -0.9703 0.1964 0.1410
vn 0.7067 0.6545 -0.2688
vn 0.8702 0.4138 -0.2675
vn -0.9028 -0.3825 -0.1965
vn 0.6077 -0.5134 -0.6059
vn 0.3494 -0.8481 -0.3984
vn -0.2346 -0.9319 -0.2766
vn 0.4760 -0.7096 -0.5195
vn 0.4556 -0.8643 -0.2130
vn 0.6454 -0.4270 0.6334
vn 0.0725 -0.5539 0.8294
vn 0.2257 -0.7838 0.5785
vn -0.6216 0.7831 0.0173
vn -0.6055 0.7298 0.3175
vn -0.5584 0.8286 0.0403
vn 0.9404 -0.3384 -0.0342
vn -0.4910 0.8689 0.0632
vn -0.2761 -0.8997 0.3381
vn 0.8905 -0.4072 -0.2031
vn 0.5591 -0.8242 -0.0897
vn 0.4947 -0.8518 -0.1724
vn 0.1397 -0.9901 -0.0167
vn 0.8936 0.4280 -0.1350
vn 0.5542 0.8321 0.0236
vn 0.7990 -0.4676 0.3780
vn 0.4390 -0.5035 0.7442
vn 0.4344 -0.8643 0.2536
vn 0.7989 0.4000 0.4491
vn 0.4350 0.8126 0.3879
vn 0.4351 0.3747 0.8187
vn -0.6054 0.6351 0.4797
vn -0.9107 -0.0250 0.4122
vn -0.5381 0.2407 0.8078
vn -0.6129 -0.6968 0.3725
vn -0.5461 -0.3613 0.7558
vn 0.1243 0.9874 -0.0978
vn -0.4598 0.8535 -0.2452
vn -0.5980 0.7493 -0.2847
vn -0.3071 0.9308 -0.1980
vn 0.7750 -0.6091 0.1685
vn 0.7818 0.5653 0.2631
vn 0.1613 0.0744 -0.9841
vn 0.0563 -0.9313 0.3599
vn 0.1204 -0.9614 -0.2475
vn 0.0886 0.9847 0.1503
vn 0.0560 0.8632 0.5017
vn 0.0547 0.3528 0.9341
vn 0.0555 -0.5003 0.8641
vn -0.9989 -0.0011 0.0467
vn -0.6165 0.7840 -0.0727
vn -0.9930 0.0024 -0.1178
vn -0.6409 0.7548 0.1395
vn -0.6431 -0.7646 0.0412
vn -0.6104 -0.7721 -0.1771
vn 0.3281 0.9027 -0.2785
vn 0.3281 0.9026 -0.2786
vn -0.6409 0.4794 -0.5996
vn -0.6394 -0.0585 -0.7667
vn -0.7245 0.2023 -0.6589
vn -1.0000 0.0053 -0.0077
vn -0.8751 -0.1358 0.4644
vn -0.8743 0.4665 0.1340
vn 0.9944 -0.0281 0.1014
vn 0.9378 -0.3227 0.1282
vn 0.9741 -0.0630 0.2173
vn -0.8762 -0.4586 -0.1480
vn 0.9356 0.2021 0.2896
vn 0.7733 -0.6299 -0.0725
vn 0.5679 -0.8164 0.1047
vn 0.2912 -0.4920 -0.8205
vn 0.2473 0.9688 -0.0164
vn 0.6813 0.7063 -0.1923
vn 0.1270 0.9756 -0.1793
vn 0.9661 0.2494 -0.0664
vn -0.3767 -0.9255 0.0384
vn -0.9255 -0.3336 -0.1797
vn -0.4639 -0.8793 -0.1076
vn -0.9393 -0.3334 -0.0807
vn 0.4660 -0.8697 0.1629
vn 0.9618 -0.2725 0.0256
vn -0.7573 0.6460 -0.0959
vn -0.7613 0.6480 0.0196
vn 0.1568 0.9799 0.1232
vn -0.5352 0.7708 -0.3456
vn -0.6381 0.6984 0.3242
vn -0.9896 0.1432 -0.0154
vn -0.6641 0.7436 -0.0769
vn -0.6436 -0.6003 0.4748
vn 0.6523 0.7213 0.2330
vn 0.6293 0.7735 -0.0753
vn 0.6547 -0.6606 0.3674
vn 0.9722 0.2284 -0.0521
vn 0.0379 -0.9960 0.0807
vn -0.6950 -0.5830 0.4208
vn -0.6739 0.6699 0.3114
vn 0.6570 -0.5540 0.5113
vn 0.7698 -0.0710 0.6343
vn 0.1964 -0.7291 0.6556
vn -0.7105 -0.7020 -0.0497
vn -0.6781 0.7343 -0.0331
vn -0.7325 -0.6742 0.0944
vn -0.7526 0.5615 0.3439
vn 0.6404 0.7675 -0.0291
vn -0.0267 0.8640 0.5028
vn 0.9994 0.0333 -0.0039
vn 0.9741 0.2145 -0.0715
vn 0.9994 0.0334 -0.0039
vn 0.0329 -0.9965 -0.0772
vn 0.0335 -0.9809 0.1914
vn 0.7961 -0.5884 -0.1413
vn 0.9795 0.1959 -0.0470
vn -0.7477 0.6408 0.1740
vn -0.7490 0.4566 0.4802
vn -0.7489 0.4566 0.4802
vn -0.7477 0.6408 0.1741
vn 0.0851 -0.9862 -0.1422
vn 0.0301 -0.8840 0.4666
vn 0.7185 -0.3045 0.6253
vn 0.0168 -0.4638 0.8858
vn 0.5442 -0.7386 0.3980
vn 0.7949 -0.5245 0.3051
vn 0.9994 0.0333 -0.0014
vn -0.7294 0.6683 0.1462
vn -0.0326 0.9727 -0.2299
vn -0.7627 0.6283 -0.1533
vn -0.0322 0.9782 0.2052
vn -0.9995 -0.0331 0.0015
vn -0.9994 -0.0332 0.0015
vn 0.0297 -0.8735 0.4860
vn 0.7736 0.6273 -0.0904
vn 0.2830 0.4694 -0.8364
vn 0.4628 0.8812 0.0964
vn 0.1506 -0.9205 -0.3604
vn 0.9721 -0.2073 -0.1096
vn 0.2770 -0.9267 -0.2539
vn 0.7666 -0.5384 -0.3499
vn -0.5075 0.8545 0.1105
vn -0.9509 0.3081 -0.0292
vn -0.4066 0.8753 0.2618
vn -0.9475 0.2969 -0.1188
vn 0.9484 0.3035 0.0917
vn 0.4465 0.8088 0.3828
vn -0.7365 -0.6565 -0.1633
vn -0.7150 -0.6448 -0.2703
vn -0.5286 -0.7111 -0.4636
vn 0.1824 -0.9765 -0.1148
vn -0.6467 -0.7601 0.0630
vn -0.6598 0.6645 0.3509
vn -0.6268 -0.6388 0.4462
vn -0.9855 -0.1693 0.0112
vn 0.6457 -0.7602 0.0715
vn 0.6648 -0.6514 0.3657
vn 0.9768 -0.2140 -0.0077
vn 0.6396 0.7316 0.2360
vn 0.0183 0.9940 -0.1075
vn -0.6600 -0.6097 0.4389
vn -0.7102 0.6365 0.3009
vn 0.6410 0.5206 0.5640
vn 0.1752 0.6734 0.7182
vn 0.7628 0.0306 0.6459
vn -0.7478 0.6482 0.1440
vn -0.9999 0.0136 -0.0026
vn -0.7239 0.6899 0.0045
vn -0.6611 -0.7430 -0.1045
vn -0.0134 -0.9047 0.4258
vn -0.0134 -0.9047 0.4259
vn 0.6566 -0.7490 -0.0885
vn 0.7424 0.6699 0.0083
vn 0.9999 -0.0136 0.0026
vn 0.9788 -0.1883 -0.0801
vn 0.0125 0.9611 0.2759
vn 0.9832 -0.1739 -0.0551
vn 0.7855 0.6133 -0.0829
vn -0.7402 -0.5138 0.4337
vn -0.7326 -0.6714 0.1116
vn -0.7326 -0.6714 0.1115
vn -0.7401 -0.5140 0.4337
vn 0.0658 0.9963 -0.0555
vn -0.0037 -0.4290 -0.9033
vn 0.5095 -0.7472 -0.4268
vn -0.0106 -0.8655 -0.5008
vn 0.7043 -0.3131 -0.6371
vn 0.7698 -0.5489 -0.3256
vn 0.0125 0.9634 0.2678
vn 0.0140 0.9859 -0.1668
vn -0.9999 0.0135 -0.0026
vn -0.0104 -0.8542 -0.5198
vn -0.5448 0.7634 -0.3471
vn -0.9935 -0.1056 0.0435
vn -0.9939 0.0990 0.0496
vn -0.5437 -0.7420 -0.3922
vn 0.1037 0.9544 -0.2801
vn 0.9650 0.2527 0.0701
vn 0.6563 0.6899 -0.3055
vn 0.9504 -0.2803 0.1350
vn 0.9886 0.1215 -0.0884
vn 0.9484 -0.3138 -0.0446
vn 0.4055 -0.7774 0.4808
vn 0.1921 0.9121 -0.3622
vn 0.8375 0.5193 -0.1700
vn 0.4043 0.7888 -0.4630
vn 0.9930 -0.0273 -0.1149
vn 0.6790 0.5865 -0.4415
vn 0.9930 -0.0723 0.0931
vn 0.8077 -0.5832 0.0869
vn 0.7486 0.6224 -0.2285
vn 0.4672 0.8416 -0.2710
vn 0.7963 0.5985 0.0875
vn -0.0000 0.8724 -0.4888
vn 0.5267 -0.8225 0.2146
vn 0.2742 -0.9145 0.2975
vn -0.8324 0.5030 -0.2324
vn 0.1426 0.9649 -0.2205
vn -0.8529 0.5113 -0.1057
vn 0.8324 0.5507 -0.0621
vn -0.7264 -0.6806 -0.0955
vn -0.8994 -0.2429 0.3634
vn 0.9150 -0.3895 0.1049
vn 0.1855 -0.9801 0.0702
vn -0.7263 -0.5340 0.4329
vn 0.4604 -0.6285 0.6268
vn -0.5724 -0.5919 0.5674
vn 0.0288 -0.9458 0.3235
vn -0.7980 0.3928 0.4571
vn -0.4294 0.4962 0.7546
vn 0.7442 0.4897 0.4542
vn 0.6048 0.4697 0.6431
vn -0.0319 0.8719 0.4886
vn 0.7955 -0.4712 0.3810
vn 0.0476 0.9988 0.0086
vn -0.8370 0.5232 -0.1604
vn 0.9090 -0.4159 0.0266
vn 0.8144 0.5710 0.1031
vn -0.8082 -0.5528 -0.2032
vn 0.0746 -0.9916 -0.1057
vn 0.0056 0.2638 -0.9646
vn 0.6103 -0.4438 -0.6561
vn 0.5144 -0.0353 -0.8568
vn -0.0485 0.1406 -0.9889
vn 0.9882 -0.1454 -0.0489
vn 0.6091 -0.7486 0.2620
vn 0.5088 -0.5361 0.6736
vn -0.0051 0.9478 0.3189
vn -0.6996 0.6772 0.2278
vn -0.0073 -0.3543 0.9351
vn -0.0642 -0.4668 0.8821
vn 0.9398 0.3104 -0.1428
vn 0.8390 -0.5410 -0.0586
vn 0.9928 -0.0922 -0.0760
vn 0.1582 -0.9830 -0.0932
vn 0.3550 -0.8972 -0.2626
vn 0.4226 0.8761 0.2320
vn 0.9519 0.2986 0.0688
vn -0.8493 -0.5266 0.0378
vn 0.1359 -0.9891 0.0564
vn -0.8285 -0.5529 -0.0888
vn -0.9042 0.3289 0.2727
vn -0.7428 0.6104 -0.2752
vn 0.8241 -0.5511 0.1313
vn 0.1623 0.9610 -0.2241
vn 0.9085 0.4178 0.0094
vn 0.4763 0.4855 0.7331
vn 0.8109 0.3690 0.4541
vn 0.0486 0.8492 0.5258
vn 0.4839 -0.6515 0.5843
vn 0.1001 -0.9715 0.2149
vn 0.7727 -0.5792 0.2597
vn -0.7440 0.4077 0.5294
vn -0.5789 0.4470 0.6820
vn -0.5686 -0.5926 0.5705
vn -0.7591 -0.5298 0.3783
vn -0.8248 -0.4871 -0.2870
vn 0.0652 -0.9721 -0.2252
vn -0.8274 0.5571 -0.0708
vn 0.8076 -0.5895 -0.0142
vn 0.9052 0.3913 0.1660
vn 0.0459 0.9880 0.1477
vn 0.5146 -0.5453 0.6617
vn -0.0478 -0.4844 0.8736
vn 0.0055 -0.3718 0.9283
vn 0.6107 -0.7496 0.2552
vn 0.6099 -0.4370 -0.6611
vn 0.5092 -0.0192 -0.8604
vn -0.0625 0.1636 -0.9845
vn -0.0064 0.2842 -0.9587
vn 0.9418 0.0297 0.3348
vn 0.9466 -0.0211 -0.3217
vn 0.9426 -0.2113 0.2587
vn 0.9769 -0.1267 -0.1722
vn 0.4187 0.7560 -0.5031
vn 0.6822 -0.7308 -0.0222
vn 0.6849 0.6363 -0.3549
vn 0.2696 0.9587 -0.0906
vn 0.7864 0.5838 -0.2018
vn 0.0398 -0.7942 -0.6063
vn 0.0398 -0.7943 -0.6063
vn 0.2821 -0.9579 0.0537
vn 0.7011 0.3686 0.6104
vn 0.7003 -0.2627 0.6638
vn 0.0334 -0.9763 0.2136
vn 0.0136 0.9995 0.0269
vn -0.8297 -0.5444 0.1235
vn -0.5816 0.4252 -0.6935
vn 0.7869 -0.5541 -0.2715
vn -0.5397 -0.2504 -0.8038
vn -0.7983 0.5988 0.0643
vn 0.0354 0.8151 0.5782
vn -0.0348 -0.8160 0.5769
vn 0.9596 0.2814 0.0025
vn 0.9652 -0.2552 0.0576
vn 0.4288 0.5869 0.6868
vn -0.2000 0.1514 -0.9680
vn -0.8012 0.0650 -0.5949
vn 0.5165 -0.5743 0.6351
vn -0.9386 0.0223 -0.3443
vn -0.9386 0.0224 -0.3443
vn 0.7917 -0.6035 -0.0951
vn 0.7917 -0.6034 -0.0951
vn 0.5559 0.4686 -0.6866
vn 0.5552 -0.0266 0.8313
vn -0.6546 0.2142 0.7250
vn -0.6525 -0.2901 0.7001
vn -0.6428 -0.2951 0.7069
vn 0.5069 -0.1749 -0.8441
vn 0.0163 0.1935 -0.9810
vt 0.199220 0.769540
vt 0.238290 0.792960
vt 0.242180 0.769540
vt 0.203130 0.792960
vt 0.238280 0.792960
vt 0.011720 0.335940
vt 0.121090 0.425780
vt 0.003910 0.425780
vt 0.113290 0.335940
vt 0.277350 0.339850
vt 0.363280 0.378900
vt 0.292970 0.378900
vt 0.378900 0.339850
vt 0.363290 0.378900
vt 0.496090 0.835930
vt 0.457040 0.781250
vt 0.453130 0.835930
vt 0.488290 0.785150
vt 0.332030 0.835930
vt 0.277350 0.800780
vt 0.324220 0.781250
vt 0.289070 0.839840
vt 0.277350 0.800790
vt 0.292970 0.378910
vt 0.359370 0.500000
vt 0.296880 0.500000
vt 0.363280 0.378910
vt 0.359380 0.500000
vt 0.378910 0.339850
vt 0.402340 0.398430
vt 0.402340 0.359370
vt 0.449220 0.753910
vt 0.492180 0.757810
vt 0.488280 0.785150
vt 0.292970 0.910150
vt 0.347650 0.855470
vt 0.343750 0.906250
vt 0.277350 0.851570
vt 0.347650 0.855460
vt 0.414070 0.808590
vt 0.472660 0.773440
vt 0.488280 0.808590
vt 0.421880 0.773440
vt 0.472650 0.773440
vt 0.425790 0.765630
vt 0.457030 0.835930
vt 0.410160 0.828120
vt 0.472650 0.792960
vt 0.457040 0.835930
vt 0.292960 0.378900
vt 0.250000 0.359370
vt 0.253910 0.398430
vt 0.250000 0.359380
vt 0.421880 0.773430
vt 0.402350 0.753910
vt 0.492180 0.757820
vt 0.472660 0.773430
vt 0.351570 0.898430
vt 0.406250 0.855470
vt 0.398440 0.898430
vt 0.351570 0.855470
vt 0.207040 0.345700
vt 0.226560 0.345700
vt 0.210940 0.345700
vt 0.214850 0.320310
vt 0.226560 0.328120
vt 0.226560 0.316410
vt 0.332040 0.835930
vt 0.363280 0.785150
vt 0.207040 0.316410
vt 0.214840 0.320310
vt 0.207040 0.328120
vt 0.324220 0.757820
vt 0.433590 0.757820
vt 0.375000 0.777340
vt 0.371100 0.769530
vt 0.425780 0.765630
vt 0.208980 0.335930
vt 0.208980 0.328120
vt 0.208980 0.316410
vt 0.228520 0.335930
vt 0.228520 0.316410
vt 0.228520 0.328120
vt 0.093750 0.773440
vt 0.117190 0.789060
vt 0.121090 0.816400
vt 0.207040 0.781250
vt 0.210930 0.785150
vt 0.210930 0.773440
vt 0.179680 0.828130
vt 0.160160 0.835930
vt 0.164070 0.875000
vt 0.039070 0.816410
vt 0.070310 0.828120
vt 0.027350 0.871090
vt 0.121100 0.816410
vt 0.128900 0.871090
vt 0.089850 0.828120
vt 0.070310 0.867190
vt 0.062500 0.882810
vt 0.183590 0.875000
vt 0.160160 0.835940
vt 0.232420 0.785150
vt 0.232420 0.781250
vt 0.085940 0.867190
vt 0.097660 0.882810
vt 0.230460 0.781250
vt 0.226570 0.773440
vt 0.230460 0.785150
vt 0.066400 0.773440
vt 0.039070 0.816400
vt 0.042970 0.789060
vt 0.257820 0.648430
vt 0.292960 0.570320
vt 0.253910 0.644530
vt 0.308590 0.734370
vt 0.281250 0.738280
vt 0.253910 0.722660
vt 0.285160 0.652340
vt 0.273440 0.652340
vt 0.031250 0.984380
vt 0.015630 0.988280
vt 0.035150 0.984380
vt 0.074210 0.871090
vt 0.070320 0.867190
vt 0.062500 0.882820
vt 0.027350 0.898430
vt 0.027350 0.886710
vt 0.070310 0.867180
vt 0.070310 0.828130
vt 0.066410 0.773440
vt 0.125000 0.906250
vt 0.175780 0.917960
vt 0.125000 0.890630
vt 0.082040 0.871090
vt 0.097650 0.882810
vt 0.128900 0.898430
vt 0.128900 0.871100
vt 0.085940 0.867180
vt 0.089850 0.828130
vt 0.046880 0.988280
vt 0.050780 0.984380
vt 0.035160 0.984380
vt 0.117190 0.988280
vt 0.132810 0.984380
vt 0.113290 0.984380
vt 0.132810 0.972650
vt 0.085940 0.968750
vt 0.113290 0.972650
vt 0.031250 0.972650
vt 0.054690 0.972650
vt 0.085930 0.968750
vt 0.113280 0.972650
vt 0.027350 0.871100
vt 0.148430 0.777350
vt 0.128910 0.875000
vt 0.132820 0.808590
vt 0.148440 0.777350
vt 0.171870 0.875000
vt 0.257820 0.648440
vt 0.253910 0.722650
vt 0.273430 0.726560
vt 0.257810 0.648430
vt 0.253910 0.644540
vt 0.285160 0.652350
vt 0.285150 0.652350
vt 0.273440 0.652350
vt 0.273440 0.726560
vt 0.273430 0.652340
vt 0.082040 0.759770
vt 0.070320 0.759770
vt 0.089840 0.759770
vt 0.082030 0.759770
vt 0.078130 0.759770
vt 0.046880 0.953120
vt 0.097660 0.882820
vt 0.113280 0.953120
vt 0.097650 0.882820
vt 0.074220 0.871100
vt 0.082040 0.871100
vt 0.031250 0.937500
vt 0.074220 0.832040
vt 0.085930 0.832040
vt 0.082030 0.871090
vt 0.074220 0.871090
vt 0.070320 0.828130
vt 0.070320 0.867180
vt 0.074210 0.832030
vt 0.089840 0.828130
vt 0.074220 0.832030
vt 0.085940 0.832030
vt 0.089840 0.828120
vt 0.070320 0.828120
vt 0.179680 0.968750
vt 0.128910 0.953120
vt 0.175790 0.917960
vt 0.132820 0.808600
vt 0.113290 0.953120
vt 0.128900 0.898440
vt 0.128900 0.937500
vt 0.085930 0.867180
vt 0.175790 0.917970
vt 0.171880 0.875000
vt 0.132810 0.984370
vt 0.117190 0.980470
vt 0.113290 0.984370
vt 0.132820 0.984370
vt 0.140620 0.980470
vt 0.050790 0.984380
vt 0.117180 0.988280
vt 0.050780 0.984370
vt 0.023440 0.980470
vt 0.035160 0.984370
vt 0.046880 0.980470
vt 0.113280 0.984370
vt 0.050790 0.984370
vt 0.117180 0.980470
vt 0.085940 0.972650
vt 0.152340 0.964840
vt 0.082040 0.960940
vt 0.152340 0.976560
vt 0.152340 0.964850
vt 0.117190 0.980460
vt 0.132810 0.972660
vt 0.113290 0.972660
vt 0.140620 0.980460
vt 0.132820 0.972660
vt 0.023440 0.980460
vt 0.054680 0.972660
vt 0.031250 0.972660
vt 0.046880 0.980460
vt 0.113280 0.972660
vt 0.054690 0.972660
vt 0.117180 0.980460
vt 0.234370 0.902340
vt 0.230470 0.867190
vt 0.234370 0.949210
vt 0.234370 0.902350
vt 0.179690 0.968750
vt 0.085930 0.972650
vt 0.015630 0.964850
vt 0.015630 0.976560
vt 0.015630 0.964840
vt 0.125000 0.890620
vt 0.085940 0.972660
vt 0.140630 0.988280
vt 0.085940 0.992180
vt 0.140620 0.988280
vt 0.085930 0.992180
vt 0.085930 0.972660
vt 0.015630 0.976570
vt 0.027350 0.988280
vt 0.179690 0.828130
vt 0.183600 0.875000
vt 0.191400 0.847650
vt 0.476570 0.738280
vt 0.492180 0.738280
vt 0.484380 0.734380
vt 0.488290 0.640620
vt 0.492180 0.566410
vt 0.382820 0.636710
vt 0.488280 0.570320
vt 0.378910 0.636710
vt 0.488280 0.644530
vt 0.488280 0.640620
vt 0.488290 0.644530
vt 0.468750 0.750000
vt 0.488290 0.640630
vt 0.492180 0.718750
vt 0.378910 0.636720
vt 0.488280 0.722650
vt 0.382820 0.636720
vt 0.464850 0.750000
vt 0.265630 0.980460
vt 0.281250 0.996090
vt 0.269540 0.960940
vt 0.304680 0.304690
vt 0.265630 0.324210
vt 0.281250 0.304690
vt 0.304680 0.324210
vt 0.359370 0.335930
vt 0.296880 0.328130
vt 0.308600 0.339840
vt 0.343750 0.332030
vt 0.363280 0.335940
vt 0.359380 0.335940
vt 0.308600 0.320310
vt 0.351570 0.339840
vt 0.355460 0.312500
vt 0.308600 0.320320
vt 0.308600 0.335930
vt 0.351560 0.339840
vt 0.347650 0.265630
vt 0.304690 0.304680
vt 0.304690 0.273430
vt 0.347660 0.265630
vt 0.363280 0.312500
vt 0.304680 0.273440
vt 0.281250 0.304680
vt 0.265630 0.281250
vt 0.304680 0.304680
vt 0.296880 0.328120
vt 0.308590 0.339840
vt 0.253910 0.324220
vt 0.132820 0.496090
vt 0.140630 0.410150
vt 0.160150 0.378910
vt 0.132820 0.492180
vt 0.140620 0.410160
vt 0.242180 0.492180
vt 0.160160 0.378910
vt 0.218750 0.378910
vt 0.234380 0.410150
vt 0.234370 0.410160
vt 0.140630 0.410160
vt 0.234380 0.410160
vt 0.382820 0.339840
vt 0.410150 0.312500
vt 0.382820 0.308600
vt 0.410150 0.339840
vt 0.132820 0.277340
vt 0.136710 0.273440
vt 0.128910 0.273440
vt 0.156250 0.269540
vt 0.171870 0.292960
vt 0.148440 0.304680
vt 0.156250 0.269530
vt 0.171870 0.257820
vt 0.179690 0.273440
vt 0.246090 0.308590
vt 0.179690 0.308590
vt 0.246090 0.273440
vt 0.136720 0.273440
vt 0.128910 0.296870
vt 0.140620 0.292960
vt 0.132810 0.277350
vt 0.132810 0.277340
vt 0.179690 0.269530
vt 0.246090 0.261720
vt 0.179690 0.261720
vt 0.246090 0.269530
vt 0.248050 0.261710
vt 0.248050 0.269530
vt 0.248050 0.257820
vt 0.248050 0.261720
vt 0.179690 0.261710
vt 0.246090 0.257820
vt 0.179690 0.257820
vt 0.246090 0.261710
vt 0.181640 0.269530
vt 0.181640 0.257820
vt 0.181640 0.261710
vt 0.246090 0.267580
vt 0.179690 0.267580
vt 0.433590 0.980460
vt 0.425790 0.960940
vt 0.406250 0.996090
vt 0.464850 0.457030
vt 0.484370 0.425790
vt 0.460940 0.425790
vt 0.484370 0.476560
vt 0.417960 0.417960
vt 0.410160 0.375000
vt 0.410160 0.359380
vt 0.414070 0.425780
vt 0.425790 0.414060
vt 0.410160 0.359370
vt 0.429680 0.355470
vt 0.425780 0.414060
vt 0.417970 0.417960
vt 0.429680 0.371100
vt 0.421880 0.425780
vt 0.429680 0.425780
vt 0.421880 0.375000
vt 0.433600 0.476560
vt 0.460930 0.425790
vt 0.425790 0.425790
vt 0.464840 0.457030
vt 0.425790 0.425780
vt 0.468750 0.351570
vt 0.417970 0.371090
vt 0.460940 0.425780
vt 0.429680 0.476560
vt 0.414070 0.414070
vt 0.230470 0.410160
vt 0.230470 0.410150
vt 0.433590 0.335930
vt 0.421880 0.300790
vt 0.421880 0.335930
vt 0.433590 0.300790
vt 0.132820 0.271480
vt 0.140620 0.271480
vt 0.171870 0.253910
vt 0.160160 0.265620
vt 0.167970 0.292960
vt 0.175790 0.308590
vt 0.175790 0.273440
vt 0.167960 0.292960
vt 0.160160 0.265630
vt 0.160150 0.265630
vt 0.140620 0.289060
vt 0.132820 0.273440
vt 0.140620 0.273440
vt 0.132820 0.296870
vt 0.132820 0.292960
vt 0.134770 0.296870
vt 0.134770 0.273440
vt 0.134770 0.292960
vt 0.175790 0.261720
vt 0.175790 0.269530
vt 0.175790 0.257820
vt 0.175790 0.261710
vt 0.177730 0.269530
vt 0.177730 0.261720
vt 0.177730 0.257820
vt 0.177730 0.261710
vt 0.175790 0.267580
vt 0.160160 0.750000
vt 0.199210 0.714850
vt 0.171880 0.714850
vt 0.210930 0.750000
vt 0.199220 0.714850
vt 0.460940 0.507820
vt 0.496090 0.566400
vt 0.453130 0.507820
vt 0.062500 0.695310
vt 0.050790 0.730460
vt 0.058600 0.667970
vt 0.066400 0.664070
vt 0.058600 0.667960
vt 0.023440 0.695320
vt 0.042960 0.710930
vt 0.035160 0.738280
vt 0.058590 0.667970
vt 0.042970 0.710930
vt 0.460940 0.550780
vt 0.414070 0.523440
vt 0.460930 0.542960
vt 0.417970 0.550780
vt 0.414070 0.523430
vt 0.449220 0.507820
vt 0.492180 0.554680
vt 0.460940 0.542960
vt 0.449210 0.507820
vt 0.460940 0.542970
vt 0.417970 0.550790
vt 0.144540 0.695310
vt 0.152340 0.656250
vt 0.140630 0.640630
vt 0.160150 0.699210
vt 0.152350 0.656250
vt 0.015630 0.640620
vt 0.031250 0.632820
vt 0.023440 0.695310
vt 0.015630 0.640630
vt 0.187500 0.656250
vt 0.160160 0.699210
vt 0.183600 0.679680
vt 0.054690 0.628910
vt 0.066400 0.664060
vt 0.074210 0.640620
vt 0.066410 0.664060
vt 0.195310 0.640630
vt 0.187500 0.664060
vt 0.058590 0.667960
vt 0.031250 0.632810
vt 0.175780 0.562500
vt 0.171880 0.539070
vt 0.175790 0.562500
vt 0.199210 0.562500
vt 0.152350 0.562500
vt 0.171870 0.539070
vt 0.156250 0.539070
vt 0.027350 0.562500
vt 0.031250 0.539070
vt 0.000000 0.562500
vt 0.058590 0.562500
vt 0.050790 0.539070
vt 0.136720 0.621090
vt 0.152340 0.562500
vt 0.125000 0.562500
vt 0.152340 0.621090
vt 0.054680 0.617180
vt 0.031250 0.617180
vt 0.054690 0.617180
vt 0.152350 0.621090
vt 0.183590 0.621090
vt 0.058600 0.562500
vt 0.074210 0.621090
vt 0.078120 0.562500
vt 0.074220 0.621090
vt 0.183600 0.621090
vt 0.195320 0.621090
vt 0.015630 0.621090
vt 0.125000 0.257820
vt 0.074220 0.269530
vt 0.101570 0.300780
vt 0.125000 0.257810
vt 0.074220 0.253910
vt 0.078120 0.269530
vt 0.003910 0.253910
vt 0.003910 0.269530
vt 0.078120 0.253910
vt 0.066400 0.304680
vt 0.003910 0.269540
vt 0.019540 0.304680
vt 0.066410 0.304680
vt 0.078120 0.269540
vt 0.078120 0.251950
vt 0.015630 0.251950
vt 0.003910 0.251950
vt 0.074220 0.251950
vt 0.074220 0.667970
vt 0.089840 0.710930
vt 0.078130 0.730460
vt 0.105460 0.695320
vt 0.093750 0.738280
vt 0.089850 0.710930
vt 0.066410 0.664070
vt 0.074210 0.667960
vt 0.070320 0.695310
vt 0.078120 0.730460
vt 0.214850 0.699210
vt 0.230460 0.640630
vt 0.218750 0.656250
vt 0.226570 0.695310
vt 0.187500 0.679680
vt 0.183600 0.656250
vt 0.097660 0.632820
vt 0.105460 0.695310
vt 0.113280 0.640620
vt 0.105470 0.695310
vt 0.054690 0.640620
vt 0.074210 0.628910
vt 0.054690 0.640630
vt 0.175790 0.640630
vt 0.074220 0.628910
vt 0.097650 0.632810
vt 0.074220 0.667960
vt 0.082030 0.539070
vt 0.078130 0.562500
vt 0.050790 0.562500
vt 0.097660 0.539070
vt 0.128900 0.562500
vt 0.101570 0.562500
vt 0.199210 0.539070
vt 0.171880 0.562500
vt 0.201170 0.562500
vt 0.201170 0.539070
vt 0.199220 0.562500
vt 0.214840 0.539070
vt 0.199220 0.539070
vt 0.226560 0.562500
vt 0.214850 0.539070
vt 0.246090 0.562500
vt 0.226570 0.562500
vt 0.101560 0.562500
vt 0.082040 0.539070
vt 0.097650 0.539070
vt 0.218750 0.621090
vt 0.234380 0.621090
vt 0.191410 0.621090
vt 0.113280 0.621090
vt 0.097660 0.617180
vt 0.113290 0.621090
vt 0.074220 0.617180
vt 0.074210 0.617180
vt 0.054690 0.621090
vt 0.175790 0.621090
vt 0.101560 0.300780
vt 0.085930 0.253910
vt 0.085930 0.269530
vt 0.019540 0.308590
vt 0.085930 0.269540
vt 0.070320 0.308590
vt 0.078130 0.251950
vt 0.085930 0.251950
vt 0.011720 0.251950
vt 0.484380 0.730470
vt 0.375000 0.554680
vt 0.460940 0.550790
vt 0.375000 0.539060
vt 0.460930 0.507820
vt 0.363290 0.558590
vt 0.417960 0.550790
vt 0.414060 0.523440
vt 0.367190 0.535150
vt 0.000000 0.460940
vt 0.000000 0.488280
vt 0.039060 0.488280
vt 0.046870 0.750000
vt 0.039070 0.750000
vt 0.035160 0.738290
vt 0.214850 0.734370
vt 0.226560 0.695320
vt 0.210940 0.750000
vt 0.343750 0.332040
vt 0.359380 0.335930
vt 0.378900 0.332040
vt 0.316400 0.578130
vt 0.312500 0.582030
vt 0.316400 0.585930
vt 0.050780 0.460940
vt 0.039070 0.488280
vt 0.054680 0.457040
vt 0.000000 0.460930
vt 0.023440 0.949220
vt 0.082040 0.960930
vt 0.140620 0.949220
vt 0.148430 0.304690
vt 0.140630 0.367180
vt 0.144540 0.371090
vt 0.265630 0.875000
vt 0.273440 0.925780
vt 0.304680 0.875000
vt 0.261720 0.332030
vt 0.269530 0.320320
vt 0.250000 0.332030
vt 0.144540 0.695320
vt 0.160150 0.750000
vt 0.199220 0.714840
vt 0.214840 0.699220
vt 0.085940 0.750000
vt 0.089850 0.710940
vt 0.042970 0.710940
vt 0.421870 0.878900
vt 0.386720 0.875000
vt 0.414070 0.925780
vt 0.421880 0.484370
vt 0.425790 0.500000
vt 0.429680 0.476570
vt 0.160150 0.734370
vt 0.093750 0.738290
vt 0.093750 0.750000
vt 0.171870 0.714840
vt 0.160160 0.699220
vt 0.214840 0.699210
vt 0.187500 0.679690
vt 0.046880 0.750000
vt 0.050780 0.730460
vt 0.171880 0.714840
vt 0.183590 0.679690
vt 0.228520 0.347650
vt 0.228520 0.343750
vt 0.207040 0.347650
vt 0.207040 0.343750
vt 0.210930 0.347650
vt 0.140630 0.949220
vt 0.082030 0.960930
vt 0.250000 0.300790
vt 0.464850 0.457040
vt 0.457040 0.500000
vt 0.250000 0.328130
vt 0.417960 0.417970
vt 0.414070 0.484370
vt 0.464840 0.457040
vt 0.250000 0.300780
vt 0.402340 0.320310
vt 0.363290 0.335930
vt 0.363290 0.312500
vt 0.378900 0.273430
vt 0.468750 0.351560
vt 0.496090 0.351560
vt 0.476570 0.300790
vt 0.089840 0.710940
vt 0.421880 0.335940
vt 0.412110 0.375000
vt 0.412110 0.335940
vt 0.412110 0.359370
vt 0.050780 0.460930
vt 0.015630 0.480460
vt 0.011720 0.457040
vt 0.074220 0.460930
vt 0.113280 0.457040
vt 0.105470 0.480460
vt 0.441400 0.953120
vt 0.406250 0.984370
vt 0.414070 0.925790
vt 0.425780 0.960930
vt 0.421880 0.878910
vt 0.429680 0.355460
vt 0.410160 0.335940
vt 0.273440 0.925790
vt 0.281250 0.984370
vt 0.253910 0.953120
vt 0.269540 0.960930
vt 0.421880 0.878900
vt 0.488280 0.644540
vt 0.488280 0.699210
vt 0.492180 0.699210
vt 0.453120 0.507820
vt 0.460930 0.550780
vt 0.417960 0.550780
vt 0.367190 0.535160
vt 0.417970 0.355460
vt 0.429690 0.351560
vt 0.011720 0.457030
vt 0.121090 0.425790
vt 0.113290 0.457030
vt 0.003910 0.425790
vt 0.050790 0.460930
vt 0.230460 0.804680
vt 0.230460 0.804690
vt 0.230460 0.867180
vt 0.171870 0.292970
vt 0.167970 0.339840
vt 0.234380 0.343750
vt 0.179690 0.308600
vt 0.246090 0.308600
vt 0.234370 0.343750
vt 0.191410 0.343750
vt 0.148440 0.304690
vt 0.167960 0.339840
vt 0.248050 0.285150
vt 0.248050 0.273430
vt 0.246090 0.273430
vt 0.179690 0.273430
vt 0.181640 0.269540
vt 0.181640 0.273430
vt 0.181640 0.285150
vt 0.246090 0.269540
vt 0.179690 0.285150
vt 0.246090 0.285150
vt 0.179690 0.269540
vt 0.128910 0.296880
vt 0.148430 0.304680
vt 0.140630 0.292970
vt 0.140620 0.292970
vt 0.140620 0.367180
vt 0.167960 0.292970
vt 0.175790 0.308600
vt 0.248050 0.269540
vt 0.175790 0.273430
vt 0.177730 0.285150
vt 0.177730 0.273430
vt 0.175790 0.269540
vt 0.175790 0.285150
vt 0.144530 0.371090
vt 0.140630 0.289070
vt 0.132820 0.296880
vt 0.132820 0.292970
vt 0.058590 0.507820
vt 0.027350 0.531250
vt 0.000000 0.507820
vt 0.058600 0.507820
vt 0.078120 0.515620
vt 0.000000 0.503910
vt 0.066400 0.535150
vt 0.062500 0.503910
vt 0.000000 0.535150
vt 0.003910 0.519530
vt 0.062500 0.507820
vt 0.074210 0.519530
vt 0.011720 0.507820
vt 0.007820 0.507820
vt 0.058590 0.531250
vt 0.003910 0.531250
vt 0.347650 0.914070
vt 0.292970 0.964840
vt 0.292970 0.914070
vt 0.347650 0.957030
vt 0.363290 0.378910
vt 0.386710 0.488280
vt 0.386720 0.488280
vt 0.253910 0.953130
vt 0.304680 0.873050
vt 0.265630 0.873050
vt 0.363280 0.324220
vt 0.363280 0.335930
vt 0.304690 0.324210
vt 0.304690 0.304690
vt 0.269540 0.320320
vt 0.308590 0.335930
vt 0.308590 0.320320
vt 0.394530 0.957030
vt 0.351570 0.988280
vt 0.347660 0.945320
vt 0.394530 0.957040
vt 0.394530 0.968750
vt 0.296870 0.500000
vt 0.269540 0.488280
vt 0.253910 0.398440
vt 0.347660 0.945310
vt 0.402340 0.890630
vt 0.394540 0.957030
vt 0.351570 0.890630
vt 0.433600 0.980460
vt 0.441400 0.953130
vt 0.433590 0.980470
vt 0.429680 0.351570
vt 0.421870 0.425780
vt 0.414070 0.414060
vt 0.417970 0.355470
vt 0.496090 0.351570
vt 0.484380 0.425780
vt 0.429680 0.425790
vt 0.421880 0.425790
vt 0.078120 0.464850
vt 0.031250 0.500000
vt 0.046880 0.464850
vt 0.078130 0.464850
vt 0.093750 0.500000
vt 0.343750 0.558590
vt 0.265630 0.507820
vt 0.347650 0.507820
vt 0.273440 0.558590
vt 0.261720 0.558590
vt 0.363280 0.507820
vt 0.250000 0.507820
vt 0.355470 0.558590
vt 0.257820 0.558590
vt 0.359370 0.507820
vt 0.355460 0.558590
vt 0.140630 0.640620
vt 0.152340 0.621100
vt 0.136720 0.621100
vt 0.031250 0.617190
vt 0.015630 0.621100
vt 0.234370 0.621100
vt 0.218750 0.621100
vt 0.230470 0.640620
vt 0.191410 0.621100
vt 0.097660 0.617190
vt 0.097660 0.632810
vt 0.183600 0.621100
vt 0.183590 0.621100
vt 0.152350 0.621100
vt 0.054690 0.617190
vt 0.054690 0.628900
vt 0.074210 0.628900
vt 0.074210 0.617190
vt 0.054690 0.621100
vt 0.070310 0.695310
vt 0.085930 0.750000
vt 0.050790 0.730470
vt 0.078130 0.730470
vt 0.183600 0.679690
vt 0.199210 0.714840
vt 0.070310 0.695320
vt 0.062500 0.695320
vt 0.070320 0.695320
vt 0.187500 0.664070
vt 0.175790 0.640620
vt 0.191400 0.621100
vt 0.175790 0.621100
vt 0.195310 0.621100
vt 0.195310 0.640620
vt 0.378910 0.273440
vt 0.402340 0.289060
vt 0.074220 0.617190
vt 0.097650 0.617190
vt 0.074220 0.628900
vt 0.054680 0.628900
vt 0.054680 0.617190
vt 0.363290 0.324220
vt 0.410150 0.332030
vt 0.363290 0.324210
vt 0.410150 0.320320
vt 0.410150 0.332040
vt 0.378910 0.332040
vt 0.382810 0.308600
vt 0.382810 0.339840
vt 0.355470 0.312500
vt 0.441410 0.300790
vt 0.476560 0.300790
vt 0.410160 0.335930
vt 0.425790 0.296880
vt 0.417970 0.300780
vt 0.425780 0.296880
vt 0.347650 0.863290
vt 0.296880 0.933590
vt 0.296880 0.882810
vt 0.347650 0.964840
vt 0.429690 0.371090
vt 0.433590 0.335940
vt 0.429680 0.371090
s 1
usemtl Kotaro
f 1/1/1 2/2/2 3/3/3
f 1/1/1 4/4/4 2/5/2
f 5/6/5 6/7/6 7/8/7
f 5/6/5 8/9/8 6/7/6
f 9/10/9 10/11/10 11/12/11
f 9/10/9 12/13/12 10/14/10
f 13/15/13 14/16/14 15/17/15
f 13/15/13 16/18/16 14/16/14
f 17/19/17 14/20/14 18/21/18
f 17/19/17 15/22/15 14/23/14
f 11/24/11 19/25/19 20/26/20
f 11/24/11 10/27/10 19/28/19
f 12/29/12 13/30/13 10/14/10
f 12/29/12 16/31/16 13/30/13
f 18/32/18 16/18/16 12/33/12
f 18/32/18 14/16/14 16/34/16
f 21/35/21 17/36/17 7/37/7
f 21/35/21 15/38/15 17/39/17
f 22/40/22 23/41/23 24/42/24
f 22/40/22 25/43/25 23/44/23
f 26/45/26 22/46/22 27/47/27
f 26/45/26 25/48/25 22/49/22
f 11/50/11 23/51/23 9/10/9
f 11/50/11 24/52/24 23/53/23
f 9/33/9 25/54/25 26/55/26
f 9/56/9 23/57/23 25/54/25
f 6/58/6 22/59/22 28/60/28
f 6/58/6 27/61/27 22/59/22
f 19/62/29 3/63/30 20/63/31
f 19/62/29 1/64/32 3/63/30
f 29/65/33 27/66/34 8/67/8
f 17/68/17 18/21/18 29/69/35
f 5/70/5 29/65/33 8/67/8
f 29/71/33 5/70/5 17/72/36
f 18/73/18 26/74/26 29/75/35
f 27/47/27 29/76/35 26/77/26
f 7/78/7 17/79/36 5/80/5
f 6/81/6 8/82/8 27/83/34
f 30/84/37 31/85/38 32/86/39
f 33/87/40 34/88/41 35/89/42
f 35/90/43 36/91/44 37/92/45
f 38/88/46 34/88/41 33/87/40
f 39/93/47 40/94/48 41/95/49
f 32/96/39 42/97/50 43/98/51
f 44/99/52 45/100/53 41/95/49
f 46/101/54 47/92/55 48/102/55
f 46/103/56 49/104/57 50/103/58
f 51/105/59 42/97/50 52/106/60
f 49/107/57 53/108/61 50/109/58
f 54/110/62 39/111/47 55/112/63
f 56/113/64 57/114/65 58/115/66
f 59/116/67 60/117/68 61/118/69
f 62/119/70 57/114/71 63/120/72
f 62/119/73 58/115/66 57/114/65
f 56/113/74 63/120/72 57/114/71
f 64/121/75 61/122/69 60/123/68
f 65/124/76 45/100/53 44/125/52
f 45/126/53 66/127/77 67/128/78
f 44/129/52 41/95/49 40/130/48
f 39/111/47 54/131/62 40/94/48
f 66/132/77 68/133/79 67/134/78
f 69/135/80 51/105/59 52/136/60
f 70/137/81 52/106/60 42/138/50
f 51/139/59 43/140/51 42/97/50
f 32/86/39 43/98/51 30/84/37
f 71/141/82 72/142/83 73/143/84
f 74/144/85 75/145/86 76/146/87
f 77/147/88 78/148/89 79/149/90
f 80/150/91 81/151/92 78/152/89
f 79/153/90 78/148/89 81/151/92
f 45/100/53 67/128/78 41/154/49
f 31/155/38 42/156/50 32/157/39
f 31/158/38 82/159/93 42/156/50
f 56/160/64 61/161/69 64/162/75
f 56/163/64 58/164/66 61/161/69
f 58/164/66 59/116/67 61/161/69
f 58/164/66 62/119/73 59/116/67
f 62/165/70 60/117/94 59/116/95
f 62/166/70 63/167/72 60/117/94
f 63/167/72 64/168/96 60/117/94
f 63/169/72 56/160/74 64/162/96
f 30/170/37 55/171/63 31/172/38
f 30/173/37 54/174/62 55/171/63
f 71/175/82 52/176/60 74/177/85
f 71/175/82 45/126/53 52/178/60
f 52/136/60 65/179/76 69/180/80
f 52/136/60 45/100/53 65/179/76
f 73/181/84 45/126/53 71/175/82
f 73/181/84 66/127/77 45/126/53
f 69/135/80 83/182/97 84/183/98
f 69/184/80 65/185/76 83/182/97
f 40/186/48 65/124/76 44/187/52
f 40/186/48 83/188/97 65/124/76
f 43/189/51 83/190/99 40/186/48
f 43/189/51 84/191/99 83/190/99
f 43/98/51 54/131/62 30/84/37
f 43/192/51 40/193/48 54/131/62
f 85/194/100 66/132/77 73/195/84
f 85/194/100 68/196/79 66/132/77
f 39/157/47 86/159/101 55/158/63
f 39/197/47 41/156/49 86/159/101
f 74/198/85 70/199/81 75/200/86
f 74/198/85 52/176/60 70/137/81
f 51/139/59 84/191/98 43/189/51
f 51/201/59 69/135/80 84/183/98
f 75/195/86 87/202/102 88/194/103
f 75/195/86 70/132/81 87/133/102
f 42/156/50 87/133/102 70/132/81
f 42/156/50 82/203/93 87/133/102
f 75/204/86 89/205/104 76/206/87
f 75/207/86 88/208/103 89/205/104
f 72/209/83 74/210/85 76/146/87
f 72/209/83 71/141/82 74/210/85
f 72/211/83 85/212/100 73/213/84
f 72/211/83 90/214/105 85/212/100
f 76/215/87 90/214/105 72/216/83
f 76/206/87 89/217/104 90/214/105
f 91/218/106 92/219/107 93/220/108
f 91/218/106 94/221/109 92/222/107
f 89/223/104 77/224/88 79/225/90
f 89/223/104 88/226/103 77/227/88
f 85/228/100 81/229/92 80/230/91
f 85/228/100 90/231/105 81/229/92
f 90/231/105 79/232/90 81/233/92
f 90/231/105 89/234/104 79/225/90
f 94/235/109 82/203/93 92/236/107
f 94/235/109 87/196/102 82/203/93
f 68/196/79 80/237/91 95/238/110
f 68/202/79 85/239/100 80/237/91
f 91/240/106 96/241/111 95/242/110
f 91/240/106 93/220/108 96/243/111
f 68/133/79 41/156/49 67/244/78
f 68/133/79 86/203/101 41/156/49
f 94/238/109 88/239/103 87/196/102
f 94/238/109 77/237/88 88/239/103
f 91/245/106 77/246/88 94/221/109
f 91/245/106 78/247/89 77/248/88
f 95/242/110 78/249/89 91/250/106
f 95/251/110 80/252/91 78/249/89
f 95/235/110 86/203/101 68/196/79
f 95/235/110 96/236/111 86/203/101
f 38/101/46 35/253/43 37/92/45
f 38/254/46 33/255/40 35/253/43
f 53/253/112 46/101/54 48/91/55
f 53/253/113 49/255/57 46/254/56
f 97/256/114 98/257/115 99/258/116
f 100/259/117 101/260/118 102/261/119
f 101/262/120 103/263/121 104/264/122
f 100/265/117 103/263/123 101/262/118
f 101/260/120 104/266/122 102/261/124
f 98/267/115 100/268/117 99/269/116
f 98/267/115 103/270/123 100/265/117
f 99/271/116 102/272/119 97/273/114
f 99/271/116 100/265/117 102/272/119
f 105/274/125 106/275/126 107/276/127
f 108/277/128 109/278/129 110/279/130
f 108/277/128 111/280/131 109/278/129
f 112/281/132 113/282/133 114/283/134
f 112/281/132 115/284/135 113/282/133
f 116/285/136 114/283/134 117/283/137
f 116/285/136 112/286/132 114/283/134
f 118/287/138 115/288/135 119/289/139
f 118/290/138 113/291/133 115/292/135
f 119/293/139 108/294/128 118/295/138
f 119/296/139 120/297/140 108/294/128
f 118/298/138 110/299/130 121/300/141
f 118/298/138 108/301/128 110/299/130
f 111/302/131 117/303/137 109/304/129
f 122/305/142 123/306/143 124/307/144
f 122/305/142 125/308/145 123/309/143
f 126/310/146 124/311/144 127/312/147
f 126/310/146 122/305/142 124/311/144
f 128/310/148 127/312/147 129/313/149
f 128/310/148 126/310/146 127/312/147
f 125/308/145 129/314/150 123/315/150
f 125/308/145 128/310/148 129/316/150
f 130/317/151 122/318/142 131/319/152
f 130/317/151 125/320/145 122/318/142
f 132/321/153 133/322/154 134/323/155
f 135/324/156 136/325/157 137/326/158
f 135/327/156 138/328/159 136/325/157
f 138/329/159 139/330/160 136/331/157
f 138/329/159 140/332/161 139/330/160
f 140/328/162 141/326/163 139/325/160
f 140/328/162 142/327/164 141/326/163
f 142/324/165 137/326/158 141/326/166
f 142/324/165 135/324/156 137/326/158
f 133/333/154 143/334/167 144/335/168
f 133/322/154 132/321/153 143/334/167
f 134/323/169 144/335/170 145/334/171
f 134/323/169 133/333/172 144/335/170
f 132/336/153 145/334/173 143/334/167
f 132/337/153 134/323/155 145/334/173
f 146/338/174 147/339/175 148/340/176
f 146/338/174 149/341/177 147/339/175
f 147/342/175 150/343/178 151/344/179
f 147/345/175 149/343/177 150/343/178
f 148/346/180 151/347/181 152/348/182
f 148/346/180 147/349/183 151/347/181
f 146/350/184 152/351/182 153/350/185
f 146/350/184 148/352/180 152/351/182
f 149/353/177 153/354/186 150/353/178
f 149/353/177 146/354/174 153/354/186
f 154/355/187 155/356/188 156/357/189
f 157/358/190 158/359/191 159/360/192
f 157/358/190 160/361/193 158/359/191
f 161/362/194 162/363/195 163/364/196
f 161/362/194 164/365/197 162/363/195
f 165/366/198 163/367/196 166/368/199
f 165/369/198 161/370/194 163/364/196
f 167/371/200 164/372/197 168/373/201
f 167/371/200 162/374/195 164/372/197
f 169/375/202 159/376/192 168/377/201
f 169/375/202 157/378/190 159/360/192
f 168/379/201 170/380/203 167/381/200
f 168/379/201 159/382/192 170/380/203
f 158/372/191 160/383/193 165/384/198
f 171/307/204 172/308/205 173/305/206
f 171/307/204 174/306/207 172/308/205
f 175/312/208 173/305/206 176/310/209
f 175/312/208 171/311/204 173/305/206
f 177/385/210 176/310/209 178/310/211
f 177/386/210 175/312/208 176/310/209
f 174/315/212 178/310/211 172/308/205
f 174/315/212 177/385/212 178/310/211
f 179/387/213 172/388/205 180/389/214
f 179/387/213 173/390/206 172/388/205
f 181/391/215 182/391/216 183/392/217
f 184/326/218 185/393/219 186/394/220
f 184/326/218 187/395/221 185/393/219
f 187/396/221 188/332/222 185/397/223
f 187/396/221 189/330/224 188/332/222
f 189/395/224 190/394/225 188/393/226
f 189/398/224 191/326/227 190/399/225
f 191/326/228 186/400/220 190/400/225
f 191/326/228 184/326/218 186/400/220
f 192/401/229 181/402/215 183/403/217
f 192/401/229 193/404/230 181/402/215
f 194/405/231 183/403/232 182/402/233
f 194/405/231 192/401/234 183/403/232
f 193/406/230 182/407/216 181/407/215
f 193/406/230 194/408/235 182/407/216
f 195/409/236 196/341/237 197/410/238
f 195/409/236 198/339/239 196/341/237
f 199/344/226 196/343/237 198/342/239
f 199/344/226 200/343/240 196/343/237
f 201/411/241 198/349/242 195/412/242
f 201/411/241 199/347/241 198/349/242
f 202/413/219 195/414/243 197/413/219
f 202/413/219 201/415/219 195/416/243
f 200/353/240 197/417/238 196/353/237
f 200/353/240 202/417/244 197/417/238
f 203/418/245 204/419/246 205/420/247
f 203/418/245 206/421/248 204/422/246
f 207/423/249 208/424/250 209/425/251
f 210/426/252 211/427/253 212/428/254
f 213/429/255 210/426/252 212/430/254
f 214/431/256 215/432/257 216/433/258
f 212/434/254 211/427/253 215/435/257
f 217/436/259 209/425/251 208/424/250
f 218/437/260 219/438/261 220/439/262
f 218/440/260 221/441/263 219/438/261
f 222/441/264 219/438/261 221/441/263
f 222/441/264 223/442/265 219/443/261
f 224/440/266 221/444/263 218/440/260
f 224/440/266 222/444/264 221/444/263
f 223/442/267 220/439/262 219/445/261
f 223/442/267 225/446/268 220/446/262
f 214/447/256 226/448/269 227/449/270
f 214/447/256 228/450/271 226/451/269
f 215/432/257 227/452/270 229/453/272
f 215/432/257 214/454/256 227/455/270
f 230/456/273 228/457/271 231/458/274
f 230/456/273 226/451/269 228/457/271
f 232/459/275 213/460/255 212/430/254
f 232/459/275 233/461/276 213/462/255
f 231/458/274 233/463/276 230/456/273
f 231/458/274 213/464/255 233/463/276
f 229/453/272 212/465/254 215/435/257
f 229/466/272 232/459/275 212/465/254
f 234/467/277 235/468/278 236/468/279
f 234/469/277 237/470/280 235/468/278
f 238/471/281 236/472/279 239/473/282
f 238/471/281 234/467/277 236/468/279
f 240/474/283 239/475/282 241/475/284
f 240/474/283 242/476/285 239/475/282
f 243/477/286 241/475/284 235/478/278
f 243/477/286 240/474/283 241/475/284
f 244/479/287 238/480/281 242/481/285
f 244/479/287 245/482/288 238/480/281
f 240/474/283 246/483/289 247/484/290
f 240/474/283 243/477/286 246/485/289
f 234/469/277 245/486/288 248/487/291
f 234/467/277 238/471/281 245/486/288
f 243/488/286 249/489/292 246/485/289
f 243/488/286 237/490/280 249/491/292
f 248/492/291 237/470/280 234/469/277
f 248/492/291 249/493/292 237/470/280
f 247/484/290 242/476/285 240/474/283
f 247/484/290 244/494/287 242/476/285
f 238/471/281 239/473/282 242/481/285
f 235/478/278 237/490/280 243/488/286
f 250/495/293 251/496/294 252/497/295
f 250/498/293 253/499/296 251/496/294
f 251/500/294 254/501/297 255/502/298
f 251/500/294 253/503/297 254/501/297
f 252/504/295 255/505/298 256/506/299
f 252/507/295 251/508/294 255/505/298
f 253/509/300 257/510/301 254/511/300
f 253/509/300 250/512/301 257/510/301
f 255/496/298 257/495/302 256/497/299
f 255/496/298 254/499/303 257/498/302
f 258/513/304 259/514/305 260/515/306
f 261/516/307 262/517/308 259/518/305
f 263/519/309 258/520/304 264/521/310
f 264/521/310 258/513/304 260/522/306
f 265/523/311 266/524/312 267/525/313
f 265/523/311 261/526/307 266/524/312
f 268/527/314 267/525/313 269/528/315
f 268/527/314 265/523/311 267/525/313
f 270/529/316 261/530/307 259/518/305
f 270/529/316 266/531/312 261/532/307
f 258/520/304 271/533/317 272/534/318
f 258/520/304 263/462/309 271/535/317
f 263/464/309 269/528/315 271/536/317
f 263/464/309 268/527/314 269/528/315
f 259/518/305 272/537/318 270/538/316
f 259/514/305 258/539/304 272/537/318
f 273/540/319 274/541/320 275/542/321
f 276/543/322 277/544/323 278/545/324
f 279/470/325 273/546/319 275/547/321
f 279/548/325 280/549/326 273/549/319
f 279/550/325 281/551/327 280/552/326
f 279/550/325 282/553/328 281/554/327
f 277/555/323 281/554/327 282/556/328
f 277/555/323 276/554/322 281/554/327
f 274/541/320 276/543/322 278/557/324
f 274/541/320 273/558/319 276/559/322
f 283/560/329 277/555/323 282/556/328
f 283/560/329 284/561/330 277/555/323
f 285/562/331 282/553/328 279/550/325
f 285/562/331 283/560/329 282/553/328
f 278/545/324 284/563/330 286/564/332
f 278/545/324 277/544/323 284/565/330
f 287/566/333 275/542/321 274/490/320
f 287/567/333 288/568/334 275/542/321
f 288/569/334 279/470/325 275/547/321
f 288/569/334 285/562/331 279/470/325
f 287/566/333 278/557/324 286/564/332
f 287/566/333 274/541/320 278/557/324
f 289/497/335 290/499/336 291/498/337
f 289/570/335 292/496/338 290/499/336
f 293/502/339 290/571/297 292/572/338
f 293/502/339 294/501/297 290/571/297
f 295/573/340 292/574/338 289/575/335
f 295/573/340 293/505/339 292/574/338
f 294/511/300 291/576/301 290/577/300
f 294/511/300 296/578/301 291/509/301
f 295/570/340 294/499/341 293/496/339
f 295/497/340 296/498/342 294/499/341
f 97/256/343 297/579/344 98/257/345
f 298/580/346 217/581/259 208/424/250
f 209/425/251 299/582/347 207/583/249
f 300/584/348 220/585/262 225/585/268
f 218/586/260 301/587/349 224/586/266
f 3/588/350 2/589/2 31/590/38
f 302/591/351 203/592/245 216/593/258
f 262/594/308 261/595/307 206/596/248
f 115/597/135 112/598/132 130/599/151
f 303/600/352 304/601/352 305/602/353
f 1/588/354 55/590/63 4/589/4
f 306/603/355 3/588/350 31/604/38
f 307/605/356 55/604/63 1/606/354
f 4/607/4 93/608/108 2/609/2
f 137/610/158 123/611/357 141/610/166
f 184/610/218 191/610/228 174/612/358
f 15/613/15 21/614/359 117/615/360
f 107/616/127 121/617/141 105/618/125
f 214/619/256 203/620/245 228/450/271
f 261/595/307 265/523/311 206/596/248
f 204/621/246 206/596/248 265/622/311
f 262/517/308 308/623/361 259/624/305
f 216/433/258 215/625/257 302/591/351
f 22/626/22 165/627/362 28/628/363
f 155/629/188 154/630/187 169/631/202
f 216/632/258 203/620/245 214/619/256
f 308/623/361 262/633/308 206/634/248
f 205/635/247 228/636/271 203/418/245
f 265/637/311 268/638/314 204/621/246
f 302/639/351 215/625/257 211/640/253
f 228/457/271 205/641/247 231/642/274
f 20/643/31 3/643/30 309/644/364
f 19/645/29 310/646/365 1/647/32
f 92/219/107 2/648/2 93/608/108
f 96/243/111 93/649/108 4/607/4
f 110/299/130 109/278/129 105/650/125
f 157/651/190 154/652/187 160/361/193
f 113/282/133 107/653/127 114/303/134
f 164/365/197 161/654/194 155/655/188
f 157/656/190 169/375/202 154/652/187
f 110/299/130 105/657/125 121/300/141
f 126/658/146 311/659/366 120/660/140
f 119/296/139 131/661/152 120/660/140
f 170/662/203 312/663/367 176/664/209
f 308/623/361 260/515/306 259/665/305
f 167/381/200 170/662/203 179/666/213
f 162/667/195 180/668/214 163/669/196
f 307/670/356 1/671/32 310/672/365
f 306/673/355 309/674/364 3/675/30
f 160/676/193 313/677/368 28/678/28
f 156/357/369 155/679/370 24/680/24
f 166/681/199 163/367/196 180/682/214
f 21/683/21 314/684/371 109/685/129
f 106/275/372 13/613/372 107/686/373
f 161/627/374 24/687/374 155/679/375
f 114/615/376 107/686/377 13/613/13
f 116/659/136 130/599/151 112/598/132
f 160/676/193 28/628/28 165/627/198
f 21/614/21 109/685/129 117/615/137
f 104/264/122 97/273/343 102/272/124
f 104/688/122 297/689/344 97/273/343
f 103/270/121 297/690/344 104/266/122
f 103/270/121 98/267/345 297/690/344
f 209/691/251 298/580/346 299/582/347
f 209/425/251 217/692/259 298/580/346
f 220/693/262 301/587/349 218/437/260
f 220/693/262 300/584/348 301/694/349
f 166/695/199 176/390/209 312/696/367
f 166/695/199 178/388/211 176/390/209
f 310/697/365 6/698/6 309/699/364
f 310/697/365 7/700/7 6/698/6
f 309/674/364 307/701/356 310/672/365
f 309/674/364 306/673/355 307/701/356
f 2/702/2 82/203/93 31/158/38
f 2/703/2 92/704/107 82/203/93
f 129/611/149 139/705/160 141/326/163
f 129/611/149 127/706/147 139/705/160
f 127/707/147 136/708/157 139/709/160
f 127/710/147 124/711/144 136/708/157
f 137/712/158 124/713/144 123/611/143
f 137/326/158 136/705/157 124/706/144
f 151/344/179 142/714/164 140/715/162
f 151/344/179 150/343/178 142/714/164
f 152/348/182 140/716/161 138/717/159
f 152/348/182 151/347/181 140/716/161
f 153/718/185 138/719/159 135/720/156
f 153/350/185 152/351/182 138/719/159
f 150/721/178 135/722/156 142/723/165
f 150/721/178 153/724/186 135/722/156
f 145/725/171 141/726/378 123/611/378
f 145/334/171 144/727/170 141/726/378
f 144/727/168 129/611/149 141/726/163
f 144/728/168 143/334/167 129/729/149
f 143/725/167 123/729/150 129/729/150
f 143/725/167 145/725/173 123/729/150
f 191/712/227 175/713/208 177/612/210
f 191/326/227 189/730/224 175/713/208
f 189/709/224 171/711/204 175/707/208
f 189/709/224 187/731/221 171/711/204
f 174/612/207 187/730/221 184/326/218
f 174/612/207 171/713/204 187/730/221
f 188/715/226 200/343/240 199/344/226
f 188/715/226 190/714/225 200/732/240
f 185/733/223 199/347/241 201/411/241
f 185/733/223 188/716/222 199/347/241
f 186/734/220 201/415/219 202/413/219
f 186/734/220 185/735/219 201/415/219
f 190/723/225 202/736/244 200/721/240
f 190/723/225 186/737/220 202/736/244
f 174/738/379 192/739/234 194/405/231
f 174/612/379 191/726/380 192/739/234
f 191/726/227 193/404/230 192/739/229
f 191/726/227 177/612/210 193/740/230
f 177/738/212 194/741/235 193/404/230
f 177/738/212 174/738/212 194/741/235
f 252/742/295 239/743/282 250/744/293
f 252/745/295 241/746/284 239/743/282
f 250/747/301 236/748/279 257/749/301
f 250/747/301 239/750/282 236/748/279
f 241/751/284 256/752/299 235/753/278
f 241/751/284 252/754/295 256/752/299
f 256/745/299 236/743/279 235/746/278
f 256/742/299 257/744/302 236/743/279
f 291/744/337 276/746/322 289/745/335
f 291/744/337 281/743/327 276/746/322
f 296/755/301 281/756/327 291/742/301
f 296/755/301 280/757/326 281/756/327
f 273/751/319 289/752/335 276/753/322
f 273/751/319 295/754/340 289/752/335
f 273/746/319 296/744/342 295/745/340
f 273/746/319 280/743/326 296/744/342
f 7/758/7 314/759/371 21/760/21
f 7/758/7 310/761/365 314/759/371
f 10/762/10 106/763/381 19/28/19
f 10/762/10 13/30/13 106/764/381
f 109/765/129 106/275/126 105/274/125
f 109/765/129 314/684/371 106/275/126
f 117/766/360 13/767/13 15/767/15
f 117/766/360 114/766/376 13/767/13
f 311/768/366 117/283/137 111/302/131
f 311/768/366 116/769/136 117/283/137
f 120/297/140 111/770/131 108/771/128
f 120/297/140 311/769/366 111/770/131
f 121/772/141 113/773/133 118/774/138
f 121/772/141 107/616/127 113/773/133
f 313/775/368 20/776/31 309/777/364
f 313/778/368 156/779/189 20/776/31
f 20/780/20 24/52/24 11/24/11
f 20/780/20 156/781/369 24/782/24
f 309/783/364 28/784/28 313/785/368
f 309/783/364 6/786/6 28/784/28
f 154/787/187 313/677/368 160/788/193
f 154/789/187 156/357/189 313/677/368
f 22/626/22 161/627/382 165/627/362
f 22/626/22 24/626/24 161/627/382
f 158/372/191 166/695/199 312/790/367
f 158/791/191 165/792/198 166/793/199
f 159/382/192 312/794/367 170/380/203
f 159/382/192 158/795/191 312/794/367
f 168/796/201 155/629/188 169/383/202
f 168/796/201 164/797/197 155/629/188
f 55/158/63 96/704/111 4/702/4
f 55/158/63 86/203/101 96/704/111
f 306/798/355 55/799/63 307/800/356
f 306/801/355 31/802/38 55/799/63
f 26/803/26 302/804/351 308/805/361
f 26/803/26 18/806/18 302/804/351
f 9/807/9 308/808/361 206/809/248
f 9/807/9 26/810/26 308/808/361
f 12/811/12 206/812/248 203/809/245
f 12/811/12 9/810/9 206/812/248
f 18/810/18 203/809/245 302/808/351
f 18/813/18 12/807/12 203/809/245
f 227/814/270 245/815/288 244/816/287
f 227/814/270 226/448/269 245/815/288
f 229/466/272 244/494/287 247/817/290
f 229/466/272 227/452/270 244/818/287
f 267/525/313 284/819/330 283/820/329
f 267/525/313 266/821/312 284/819/330
f 269/528/315 283/820/329 285/822/331
f 269/528/315 267/525/313 283/820/329
f 286/823/332 266/531/312 270/824/316
f 286/823/332 284/563/330 266/531/312
f 248/825/291 226/451/269 230/456/273
f 248/826/291 245/827/288 226/451/269
f 246/828/289 233/461/276 232/829/275
f 246/828/289 249/489/292 233/461/276
f 272/830/318 288/568/334 287/831/333
f 272/830/318 271/533/317 288/832/334
f 210/426/252 263/519/309 264/833/310
f 210/426/252 213/429/255 263/429/309
f 308/834/361 211/835/253 260/836/306
f 308/834/361 302/639/351 211/835/253
f 205/641/247 268/638/314 231/837/274
f 205/641/247 204/838/246 268/638/314
f 264/839/310 211/427/253 210/840/252
f 264/841/310 260/522/306 211/427/253
f 263/842/309 231/458/274 268/527/314
f 263/842/309 213/842/255 231/458/274
f 271/843/317 285/844/331 288/845/334
f 271/843/317 269/528/315 285/844/331
f 230/456/273 249/846/292 248/825/291
f 230/456/273 233/847/276 249/846/292
f 131/848/152 126/658/146 120/660/140
f 131/848/152 122/849/142 126/658/146
f 270/538/316 287/850/333 286/851/332
f 270/538/316 272/852/318 287/850/333
f 247/817/290 232/853/275 229/466/272
f 247/817/290 246/854/289 232/853/275
f 311/855/366 128/856/148 116/659/136
f 311/857/366 126/858/146 128/856/148
f 116/659/136 125/859/145 130/860/151
f 116/659/136 128/859/148 125/859/145
f 131/861/152 115/288/135 130/862/151
f 131/861/152 119/863/139 115/288/135
f 170/662/203 173/864/206 179/389/213
f 170/662/203 176/865/209 173/864/206
f 180/866/214 178/867/211 166/681/199
f 180/866/214 172/868/205 178/869/211
f 310/870/365 106/871/126 314/872/371
f 310/870/365 19/873/29 106/871/126
f 180/666/214 167/874/200 179/875/213
f 180/666/214 162/374/195 167/876/200
o Weapon
v 1.225341 1.324069 0.027500
v 1.245342 0.086569 0.020000
v 1.322841 1.314069 0.027500
v 1.142842 0.016569 0.020000
v 1.357841 2.356569 0.032500
v 1.242841 2.356569 0.032500
v 1.357841 2.356569 -0.035000
v 1.322841 1.314069 -0.027500
v 1.242841 2.356569 -0.035000
v 1.225341 1.324069 -0.027500
v 1.142842 0.016569 -0.020000
v 1.245342 0.086569 -0.020000
v 1.392841 2.389069 -0.062500
v 1.222841 2.389069 0.062500
v 1.392841 2.389069 0.062500
v 1.222841 2.389069 -0.062500
v 1.392841 2.356569 0.062500
v 1.222841 2.356569 0.062500
v 1.222841 2.356569 -0.062500
v 1.392841 2.356569 -0.062500
v 1.345341 2.359069 0.020000
v 1.240341 3.064069 0.020000
v 1.260341 2.361569 0.020000
v 1.327841 3.066569 0.020000
v 1.345341 2.359069 -0.022500
v 1.327841 3.066569 -0.022500
v 1.260341 2.359069 -0.022500
v 1.240341 3.064069 -0.022500
vn -0.7062 0.0239 0.7076
vn 0.7580 -0.4357 0.4853
vn 0.7064 -0.0386 0.7068
vn -0.3250 -0.5765 0.7496
vn 0.7066 -0.0271 0.7071
vn -0.7071 0.0071 0.7071
vn 0.7066 -0.0274 -0.7071
vn 0.7065 -0.0388 -0.7067
vn -0.7071 0.0068 -0.7071
vn -0.7062 0.0237 -0.7076
vn -0.3250 -0.5766 -0.7496
vn 0.7580 -0.4359 -0.4853
vn 0.5773 0.5774 -0.5773
vn -0.5773 0.5774 0.5773
vn 0.5773 0.5774 0.5774
vn -0.5773 0.5774 -0.5774
vn 0.5773 -0.5774 0.5773
vn -0.5773 -0.5774 0.5774
vn -0.5773 -0.5774 -0.5773
vn 0.5773 -0.5774 -0.5774
vn 0.7076 0.0149 0.7064
vn -0.5897 0.5631 0.5790
vn -0.7060 -0.0189 0.7079
vn 0.5657 0.5892 0.5770
vn 0.7061 0.0154 -0.7080
vn 0.5638 0.5902 -0.5777
vn -0.7078 -0.0183 -0.7062
vn -0.5914 0.5626 -0.5777
vt 0.312500 0.191410
vt 0.476560 0.250000
vt 0.312500 0.246090
vt 0.488280 0.195310
vt 0.476570 0.250000
vt 0.250000 0.250000
vt 0.410150 0.199220
vt 0.406250 0.246090
vt 0.250000 0.191410
vt 0.410150 0.199210
vt 0.406250 0.246100
vt 0.488280 0.195320
vt 0.312500 0.246100
vt 0.253910 0.144530
vt 0.328120 0.054690
vt 0.328120 0.144530
vt 0.253910 0.054690
vt 0.332040 0.054690
vt 0.359370 0.136710
vt 0.332040 0.136710
vt 0.359370 0.054690
vt 0.332040 0.052730
vt 0.359370 0.052730
vt 0.359370 0.134770
vt 0.332040 0.134770
vt 0.382810 0.187500
vt 0.250000 0.144540
vt 0.382810 0.148430
vt 0.250000 0.187500
vt 0.382810 0.185550
vt 0.250000 0.185550
vt 0.382810 0.148440
vt 0.251950 0.144540
vt 0.251950 0.187500
s 1
usemtl Kotaro
f 315/877/383 316/878/384 317/879/385
f 315/877/383 318/880/386 316/881/384
f 319/882/387 315/883/383 317/884/385
f 319/882/387 320/885/388 315/886/383
f 321/882/389 317/887/385 322/887/390
f 321/882/389 319/882/387 317/887/385
f 323/885/391 315/886/383 320/885/388
f 323/885/391 324/886/392 315/886/383
f 325/888/393 316/881/384 318/888/386
f 325/888/393 326/881/394 316/881/384
f 324/877/392 318/880/386 315/877/383
f 324/877/392 325/880/393 318/880/386
f 326/878/394 317/889/385 316/878/384
f 326/878/394 322/889/390 317/889/385
f 322/879/390 325/880/393 324/877/392
f 322/879/390 326/881/394 325/888/393
f 322/884/390 323/885/391 321/882/389
f 322/884/390 324/886/392 323/885/391
f 327/890/395 328/891/396 329/892/397
f 327/890/395 330/893/398 328/891/396
f 328/894/396 331/895/399 329/896/397
f 328/894/396 332/897/400 331/895/399
f 331/892/399 333/893/401 334/890/402
f 331/892/399 332/891/400 333/893/401
f 333/897/401 327/896/395 334/895/402
f 333/897/401 330/894/398 327/896/395
f 330/898/398 332/899/400 328/898/396
f 330/898/398 333/899/401 332/899/400
f 334/900/402 329/901/397 331/900/399
f 334/900/402 327/901/395 329/901/397
f 335/902/403 336/903/404 337/904/405
f 335/902/403 338/905/406 336/903/404
f 339/906/407 338/907/406 335/906/403
f 339/906/407 340/907/408 338/907/406
f 341/908/409 340/905/408 339/902/407
f 341/904/409 342/903/410 340/905/408
f 336/909/404 340/910/408 342/909/410
f 336/909/404 338/910/406 340/910/408
f 337/904/405 342/903/410 341/904/409
f 337/904/405 336/903/404 342/903/410
