# WaveFront *.obj file (generated by CINEMA 4D)

mtllib ./Osh.mtl

v 5.15000009536743 14.10000038146973 3.15000009536743
v 4.90000009536743 13.69999980926514 -2.25
v 2 15.60000038146973 2.59999990463257
v -5.15000009536743 14.10000038146973 3.15000009536743
v -2 15.60000038146973 2.59999990463257
v -4.90000009536743 13.69999980926514 -2.25
v 1.5 16.89999961853027 -0.85000002384186
v 0 14.94999980926514 1.85000002384186
v 1.5 14.05000019073486 -0.85000002384186
v 0 16.89999961853027 1.85000002384186
v -1.5 16.89999961853027 -0.85000002384186
v -1.5 14.05000019073486 -0.85000002384186
v 5.15000009536743 11 3.54999995231628
v 4.69999980926514 -0.89999997615814 -2.79999995231628
v 4.90000009536743 11.35000038146973 -3.40000009536743
v 4.90000009536743 -0.89999997615814 2.75
v -4.90000009536743 11.35000038146973 -3.40000009536743
v -4.69999980926514 -0.89999997615814 -2.79999995231628
v -5.15000009536743 11 3.54999995231628
v -4.90000009536743 -0.89999997615814 2.75
v 0.60000002384186 19.25 -5.30000019073486
v 0 19.64999961853027 -7.69999980926514
v -0.05000000074506 21.04999923706055 -5.75
v -0.75 19.20000076293945 -5.30000019073486
v -4.90000009536743 20.04999923706055 4.84999990463257
v -4.69999980926514 24.10000038146973 4.90000009536743
v -5.84999990463257 22.45000076293945 -3.70000004768372
v -4.09999990463257 16.29999923706055 3.15000009536743
v 3.20000004768372 15.35000038146973 -3.79999995231628
v 5.84999990463257 22.45000076293945 -3.70000004768372
v 4.09999990463257 16.29999923706055 3.15000009536743
v 4.90000009536743 20.04999923706055 4.84999990463257
v 4.69999980926514 24.10000038146973 4.90000009536743
v -3.20000004768372 15.35000038146973 -3.79999995231628
v 0 14.64999961853027 -3.15000009536743
v 0 15.89999961853027 -5.40000009536743
v 5.44999980926514 15.5 13.85000038146973
v -0.20000000298023 19.64999961853027 6.5
v -2.20000004768372 7.55000019073486 17.60000038146973
v 1.54999995231628 20.79999923706055 6.5
v -2.09999990463257 14.80000019073486 15.89999961853027
v -1.14999997615814 20.85000038146973 6.55000019073486
v -8.85000038146973 21.89999961853027 13.55000019073486
v 0.34999999403954 19.10000038146973 7.05000019073486
v 0 16.14999961853027 4.80000019073486
v 3.65000009536743 29.39999961853027 -2.65000009536743
v 3.40000009536743 29.39999961853027 2.54999995231628
v -3.65000009536743 29.39999961853027 -2.65000009536743
v 0 24.5 -6.75
v 0 29.39999961853027 -5.15000009536743
v 0 29.39999961853027 4.05000019073486
v 0 24.39999961853027 6.65000009536743
v 0 19.10000038146973 6.55000019073486
v -3.40000009536743 29.39999961853027 2.54999995231628
v 5.19999980926514 1.75 -0.55000001192093
v 5.05000019073486 7.84999990463257 2.45000004768372
v 5.05000019073486 7.84999990463257 -0.75
v 5.19999980926514 1.75 2.20000004768372
v 7.65000009536743 7.84999990463257 -0.75
v 7.65000009536743 1.75 -0.55000001192093
v 7.65000009536743 1.75 2.20000004768372
v 7.65000009536743 7.84999990463257 2.45000004768372
v 6.55000019073486 13.19999980926514 -0.85000002384186
v 3.45000004768372 14.25 2.15000009536743
v 6.55000019073486 13.19999980926514 2.45000004768372
v 3.45000004768372 14.25 -0.64999997615814
v 4.75 7.84999990463257 -1.10000002384186
v 4.75 7.84999990463257 2.79999995231628
v 8.30000019073486 7.84999990463257 2.79999995231628
v 8.30000019073486 7.84999990463257 -1.10000002384186
v 7.65000009536743 1.75 2.20000004768372
v 5.25 -6.94999980926514 2.59999990463257
v 7.80000019073486 -6.94999980926514 2.59999990463257
v 5.19999980926514 1.75 2.20000004768372
v 5.19999980926514 1.75 -0.55000001192093
v 5.25 -6.94999980926514 -1
v 7.65000009536743 1.75 -0.55000001192093
v 7.80000019073486 -6.94999980926514 -1
v 4.55000019073486 -12.55000019073486 -1.54999995231628
v 8.14999961853027 -12.30000019073486 2.29999995231628
v 4.55000019073486 -12.55000019073486 2.29999995231628
v 8.10000038146973 -12.30000019073486 -1.54999995231628
v 8.69999980926514 -10.89999961853027 -2.45000004768372
v 3.5 -10.89999961853027 -2.65000009536743
v 3.5 -10.89999961853027 3.84999990463257
v 8.75 -10.89999961853027 3.59999990463257
v -5.05000019073486 7.84999990463257 2.45000004768372
v -5.19999980926514 1.75 -0.55000001192093
v -5.05000019073486 7.84999990463257 -0.75
v -5.19999980926514 1.75 2.20000004768372
v -7.65000009536743 7.84999990463257 -0.75
v -7.65000009536743 1.75 -0.55000001192093
v -7.65000009536743 1.75 2.20000004768372
v -7.65000009536743 7.84999990463257 2.45000004768372
v -3.45000004768372 14.25 2.15000009536743
v -6.55000019073486 13.19999980926514 -0.85000002384186
v -6.55000019073486 13.19999980926514 2.45000004768372
v -3.45000004768372 14.25 -0.64999997615814
v -4.75 7.84999990463257 -1.10000002384186
v -4.75 7.84999990463257 2.79999995231628
v -8.30000019073486 7.84999990463257 2.79999995231628
v -8.30000019073486 7.84999990463257 -1.10000002384186
v -7.65000009536743 1.75 2.20000004768372
v -5.25 -6.94999980926514 2.59999990463257
v -5.19999980926514 1.75 2.20000004768372
v -7.80000019073486 -6.94999980926514 2.59999990463257
v -5.19999980926514 1.75 -0.55000001192093
v -5.25 -6.94999980926514 -1
v -7.65000009536743 1.75 -0.55000001192093
v -7.80000019073486 -6.94999980926514 -1
v -4.55000019073486 -12.55000019073486 2.29999995231628
v -8.10000038146973 -12.30000019073486 -1.54999995231628
v -4.55000019073486 -12.55000019073486 -1.54999995231628
v -8.14999961853027 -12.30000019073486 2.29999995231628
v -8.69999980926514 -10.89999961853027 -2.45000004768372
v -3.5 -10.89999961853027 -2.65000009536743
v -3.5 -10.89999961853027 3.84999990463257
v -8.75 -10.89999961853027 3.59999990463257
v -4.90000009536743 1.39999997615814 2.65000009536743
v -5.80000019073486 -8 2.84999990463257
v -2.65000009536743 -4.94999980926514 3.84999990463257
v 4.90000009536743 1.39999997615814 2.65000009536743
v 2.65000009536743 -4.94999980926514 3.84999990463257
v 5.80000019073486 -8 2.84999990463257
v 4.69999980926514 0.10000000149012 -2.79999995231628
v 5.40000009536743 -7.75 -2.84999990463257
v -4.69999980926514 0.10000000149012 -2.79999995231628
v -5.40000009536743 -7.75 -2.84999990463257
v 0.80000001192093 -17.20000076293945 -1.95000004768372
v 0.5 -4.34999990463257 2.75
v 0.5 -4.34999990463257 -2.65000009536743
v 0.80000001192093 -17.20000076293945 2.75
v 5.40000009536743 -4.34999990463257 2.75
v 5.05000019073486 -17.20000076293945 -1.95000004768372
v 5.40000009536743 -4.34999990463257 -2.65000009536743
v 5.05000019073486 -17.20000076293945 2.75
v 0.34999999403954 -38.5 -9.44999980926514
v 0.34999999403954 -38.5 5.25
v 0.5 -36.40000152587891 -9.05000019073486
v 7.15000009536743 -38.5 -9
v 6.80000019073486 -36.40000152587891 -8.55000019073486
v 7.15000009536743 -38.5 5.25
v 1 -31.89999961853027 -0.89999997615814
v 1 -31.89999961853027 3.75
v 5.30000019073486 -31.89999961853027 -0.89999997615814
v 5.30000019073486 -31.89999961853027 3.75
v 5.05000019073486 -17.20000076293945 -1.95000004768372
v 0.80000001192093 -17.20000076293945 -1.95000004768372
v -0.5 -4.34999990463257 2.75
v -0.80000001192093 -17.20000076293945 -1.95000004768372
v -0.5 -4.34999990463257 -2.65000009536743
v -0.80000001192093 -17.20000076293945 2.75
v -5.05000019073486 -17.20000076293945 -1.95000004768372
v -5.40000009536743 -4.34999990463257 2.75
v -5.40000009536743 -4.34999990463257 -2.65000009536743
v -5.05000019073486 -17.20000076293945 2.75
v -0.34999999403954 -38.5 5.25
v -0.34999999403954 -38.5 -9.44999980926514
v -0.5 -36.40000152587891 -9.05000019073486
v -6.80000019073486 -36.40000152587891 -8.55000019073486
v -7.15000009536743 -38.5 -9
v -7.15000009536743 -38.5 5.25
v -1 -31.89999961853027 -0.89999997615814
v -1 -31.89999961853027 3.75
v -5.30000019073486 -31.89999961853027 -0.89999997615814
v -5.30000019073486 -31.89999961853027 3.75
v -5.05000019073486 -17.20000076293945 -1.95000004768372
v -0.80000001192093 -17.20000076293945 -1.95000004768372
# 168 vertices

vn 0.32739114761353 0.41666212677956 0.84806114435196
vn 0.67197912931442 0.62697094678879 -0.39414647221565
vn 0.14060869812965 0.9892897605896 0.03917897865176
vn 0 0 0
vn -0.53816199302673 0.50836557149887 0.67226940393448
vn -0.15073062479496 0.85974425077438 0.4879754781723
vn -0.47378405928612 0.70832979679108 -0.5232567191124
vn 0.87415730953217 0 0.48564291000366
vn 0.87415724992752 0 0.48564293980598
vn -0.87415730953217 0 0.48564291000366
vn -0.87415724992752 0 0.48564293980598
vn 0 0 -1
vn 0.99924063682556 -0.00635892199352 -0.03844143077731
vn 0.99916785955429 -0.01834419742227 -0.03642990067601
vn 0.99935269355774 -0.00047576680663 -0.03597190231085
vn 0.99917900562286 -0.01857054978609 -0.03600650280714
vn 0 0.28470835089684 -0.9586141705513
vn 0 0.11718833446503 -0.99310970306396
vn -0.99916785955429 -0.01834419928491 -0.03642990067601
vn -0.99924063682556 -0.00635892245919 -0.03844143077731
vn -0.99935269355774 -0.00047576398356 -0.03597190231085
vn -0.99917900562286 -0.01857055164874 -0.03600649908185
vn 0 0.06322375684977 0.99799937009811
vn 0 -0.00206866790541 0.99999785423279
vn 0 -1 0
vn 0 -0.06707548350096 0.99774789810181
vn 0 -0.06707549095154 0.99774789810181
vn 0 -0.04892095923424 -0.99880266189575
vn 0 -0.04892095923424 -0.99880266189575
vn 0.93810039758682 0.29230684041977 -0.18580739200115
vn -0.92670893669128 0.29359474778175 -0.23454768955708
vn 0.036452062428 -0.98422074317932 -0.17314967513084
vn -0.7165794968605 -0.15223321318626 0.68068999052048
vn -0.77799898386002 0.29209867119789 0.55623370409012
vn -0.90554887056351 -0.04108794406056 -0.42224752902985
vn -0.60226857662201 -0.70087063312531 0.38216862082481
vn 0.52963250875473 -0.73402762413025 -0.42507985234261
vn 0.90554887056351 -0.04108794778585 -0.42224764823914
vn 0.60226863622665 -0.70087063312531 0.38216862082481
vn 0.7165794968605 -0.1522331982851 0.68069005012512
vn 0.77799898386002 0.29209870100021 0.55623370409012
vn -0.52963250875473 -0.73402762413025 -0.42507985234261
vn 0.00000000528166 -0.99755519628525 -0.06988315284252
vn 0.00000001167575 -0.45302581787109 -0.89149737358093
vn -0.38795146346092 0.64238947629929 0.66093075275421
vn -0.36615037918091 0.66119730472565 0.65479153394699
vn -0.40941628813744 0.62302482128143 0.6664971113205
vn 0.56863141059875 0.66307103633881 0.48682141304016
vn 0.54225021600723 0.6792226433754 0.49459201097488
vn 0.59443408250809 0.64624500274658 0.47855558991432
vn -0.0000000126856 -0.82635378837585 0.56315129995346
vn 0.65623807907104 0.68042898178101 -0.32614102959633
vn 0.56942617893219 0.73365920782089 0.37080731987953
vn -0.65623807907104 0.68042898178101 -0.32614099979401
vn 0.00000001177295 0.16016632318497 -0.98709005117416
vn 0.00000001999063 0.84525835514069 -0.53435778617859
vn -0.00000000896575 0.86782270669937 0.49687397480011
vn -0.00000001084523 0.15356296300888 0.98813885450363
vn -0.00000001089966 -0.34562334418297 0.93837332725525
vn -0.56942617893219 0.73365914821625 0.37080731987953
vn -0.99969780445099 -0.02458267100155 0
vn -0.99969780445099 -0.0245826728642 0
vn -0.99969780445099 -0.02458267100155 0
vn 0 -0.03276927396655 -0.99946296215057
vn 0 -0.03276927396655 -0.99946296215057
vn 0 -0.03276927396655 -0.99946296215057
vn 1 0 0
vn 1 0 0
vn 0 -0.0409492328763 0.99916124343872
vn 0 -0.04094922915101 0.99916124343872
vn 0.71079128980637 0.70340293645859 0
vn 0.32080706954002 0.94714456796646 0
vn 0.71079128980637 0.70340293645859 0
vn -0.97998732328415 -0.19905991852283 0
vn -0.63282698392868 -0.77429324388504 0
vn -0.63282698392868 -0.7742931842804 0
vn -0.97998732328415 -0.19905991852283 0
vn -0.03330893069506 0.07639967650175 0.99652075767517
vn 0 0.06528099626303 0.99786692857742
vn -0.06657673418522 0.0874240025878 0.99394392967224
vn -0.02179777622223 0.05398355051875 -0.99830389022827
vn 0 0.04667803645134 -0.99891000986099
vn -0.04358402267098 0.06126051023602 -0.99716979265213
vn 0 -1 0
vn 0.95044487714767 0.31089317798614 0
vn 0.95044487714767 0.31089320778847 0
vn 0 0.04592847824097 0.9989447593689
vn 0.01147900521755 0.15606360137463 0.98768031597137
vn 0 0.14642144739628 0.98922228813171
vn -0.99100363254547 0.13383507728577 0
vn -0.9999834895134 -0.00574705377221 0
vn -0.96186262369156 0.2735330760479 0
vn 0.00903305877 0.20750322937965 -0.97819262742996
vn 0 0.05165508389473 -0.99866497516632
vn 0 0.20038157701492 -0.97971791028976
vn 0.99227637052536 0.12403029948473 -0.00202472368255
vn 0.99985140562058 0.01723882555962 0
vn 0.99199289083481 0.12629349529743 0
vn 0.99985140562058 0.01723882742226 0
vn -0.15657243132591 -0.89656382799149 -0.41431674361229
vn 0.49618428945541 -0.85105490684509 0.17177504301071
vn -0.38035020232201 -0.85102277994156 0.36206895112991
vn 0.43452107906342 -0.82629728317261 -0.35836321115494
vn 0.62049573659897 -0.19962829351425 -0.75837564468384
vn -0.79144048690796 -0.26148211956024 -0.55249345302582
vn -0.83591794967651 -0.03742995858192 0.5475766658783
vn 0.65491968393326 -0.16686743497849 0.73704504966736
vn 0.99969780445099 -0.02458267100155 0
vn 0.99969780445099 -0.02458267100155 0
vn -1 0 0
vn -0.3208070397377 0.94714456796646 0
vn -0.58535212278366 0.81077921390533 0
vn -0.81685101985931 0.57684868574142 0
vn 0.81409907341003 -0.58072596788406 0
vn 0.97998732328415 -0.19905991852283 0
vn 0.40704956650734 -0.91340607404709 0
vn 0.97998732328415 -0.19905991852283 0
vn 0.03330893442035 0.07639967650175 0.99652075767517
vn 0.0665767416358 0.08742401003838 0.99394392967224
vn 0.02179777435958 0.05398355051875 -0.99830389022827
vn 0.04358401894569 0.06126050278544 -0.99716979265213
vn 0 -1 0
vn -0.95044487714767 0.31089317798614 0
vn -0.95044487714767 0.31089320778847 0
vn -0.0114790070802 0.15606360137463 0.98768031597137
vn 0 0.04592847824097 0.9989447593689
vn 0.9999834895134 -0.00574705377221 0
vn 0.99100363254547 0.13383507728577 0
vn 0.96186262369156 0.2735330760479 0
vn -0.00903305877 0.20750321447849 -0.97819262742996
vn 0 0.20038159191608 -0.97971791028976
vn -0.99985140562058 0.01723882928491 0
vn -0.99227637052536 0.12403030693531 -0.00202472414821
vn -0.99199289083481 0.12629351019859 0
vn -0.99985140562058 0.01723882928491 0
vn 0.29947820305824 -0.90618240833282 0.29857370257378
vn -0.33620673418045 -0.90526568889618 -0.25972872972488
vn 0.21993055939674 -0.82266128063202 -0.52426993846893
vn -0.60489881038666 -0.76618200540543 0.21693904697895
vn -0.62049573659897 -0.19962830841541 -0.75837564468384
vn 0.7914405465126 -0.26148211956024 -0.55249339342117
vn 0.83591789007187 -0.0374300070107 0.5475766658783
vn -0.65491968393326 -0.16686744987965 0.73704504966736
vn -0.42141452431679 0.162781894207 0.89213889837265
vn -0.6592783331871 -0.58507716655731 0.47226774692535
vn -0.09046943485737 -0.09967114776373 0.99089908599854
vn 0.57929003238678 0.14363980293274 0.80236566066742
vn 0.09012544155121 0.02924071997404 0.995501101017
vn 0.61364579200745 -0.36401033401489 0.70066773891449
vn 0.99385333061218 0.09147342294455 -0.06235475465655
vn 0.99384939670563 0.0890429019928 -0.06583844870329
vn -0.99385333061218 0.09147342294455 -0.06235474720597
vn -0.99384939670563 0.08904288709164 -0.06583844125271
vn 0 0.40389782190323 -0.9148041009903
vn 0 0.00636929180473 -0.99997973442078
vn 0 0.79996407032013 -0.60004788637161
vn 0 0.00636929133907 -0.99997973442078
vn 0 0.97271037101746 -0.23202265799046
vn 0 0.97271037101746 -0.23202265799046
vn 0 -0.99903953075409 -0.04381752759218
vn 0 -0.99903953075409 -0.04381752759218
vn -0.99972760677338 -0.02333994209766 0
vn -0.99972760677338 -0.02333994396031 0
vn -0.99972760677338 -0.02333994396031 0
vn 0.9996292591095 -0.02722724713385 0
vn 0.9996292591095 -0.02722724713385 0
vn 0 -0.05439406260848 -0.99851953983307
vn 0 -0.05439406260848 -0.99851953983307
vn 0 0 1
vn 0 0 1
vn -0.99745869636536 0.07124710828066 0
vn -0.9958947300911 0.0905062481761 0.00152648868971
vn -0.99622732400894 0.08675157278776 0.00228979368694
vn 0.98639392852783 0.16439905762672 0
vn 0.58091562986374 0.46884170174599 -0.66537547111511
vn 0.97059255838394 0.24064199626446 0.00644391076639
vn -0.99906015396118 0.04332960024476 0.00114661757834
vn -0.99910622835159 0.0422692373395 0
vn 0.79784059524536 0.45514631271362 -0.39533802866936
vn 0.98948460817337 0.14463829994202 0
vn 0.07113038003445 0.20030573010445 -0.97714793682098
vn 0.06442391127348 0.21934822201729 -0.97351729869843
vn 0.0427416190505 0.69854360818863 -0.7142898440361
vn 0 0.2835980951786 -0.9589432477951
vn 0 -0.07124705612659 -0.99745869636536
vn 0 -0.07124705612659 -0.99745869636536
vn 0 0.17082983255386 0.98530054092407
vn 0 0.22162109613419 0.97513288259506
vn 0 0.11944150179625 0.9928412437439
vn 0.99985539913177 0.01700434647501 0
vn 0.99985539913177 0.01700434647501 0
vn -0.99990743398666 -0.01360418274999 0
vn -0.99990743398666 -0.01360418274999 0
vn 0 0.06787035614252 0.99769413471222
vn 0 0.06787035614252 0.99769413471222
vn 0.99972760677338 -0.02333994396031 0
vn -0.9996292591095 -0.02722724713385 0
vn -0.9996292591095 -0.02722724713385 0
vn 0 -0.05439405888319 -0.99851953983307
vn 0 -0.05439406633377 -0.99851953983307
vn 0 0 1
vn 0.9958947300911 0.0905062481761 0.00152648950461
vn 0.99745869636536 0.07124710828066 0
vn 0.99622732400894 0.08675157278776 0.00228979485109
vn -0.58091568946838 0.46884167194366 -0.66537547111511
vn -0.98639392852783 0.16439905762672 0
vn -0.97059255838394 0.24064199626446 0.00644390890375
vn 0.99906015396118 0.04332960024476 0.00114661816042
vn 0.99910622835159 0.0422692373395 0
vn -0.79784059524536 0.45514634251595 -0.39533799886703
vn -0.98948460817337 0.14463829994202 0
vn -0.07113038003445 0.20030573010445 -0.97714793682098
vn -0.06442391127348 0.21934823691845 -0.97351729869843
vn -0.04274163767695 0.69854360818863 -0.7142898440361
vn 0 0.28359812498093 -0.9589432477951
vn -0.99985539913177 0.01700434647501 0
vn -0.99985539913177 0.01700434647501 0
vn 0.99990743398666 -0.01360418181866 0
vn 0 0.06787034869194 0.99769413471222
vn 0 0.06787034869194 0.99769413471222
# 220 normals

vt 0.29133859276772 0.48421061038971 0
vt 0.28346458077431 0.56842106580734 0
vt 0.25984251499176 0.49473690986633 0
vt 0.28346458077431 0.49473690986633 0
vt 0.27559053897858 0.55789476633072 0
vt 0.22834645211697 0.49473690986633 0
vt 0.74015748500824 0.65263158082962 0
vt 0.77952754497528 0.57894736528397 0
vt 0.74015748500824 0.54736840724945 0
vt 0.77952754497528 0.65263158082962 0
vt 0.81102359294891 0.65263158082962 0
vt 0.81102359294891 0.54736840724945 0
vt 0.20472441613674 0.49473690986633 0
vt 0.29133859276772 0.49473690986633 0
vt 0.29921260476112 0.49473690986633 0
vt 0.21259842813015 0.49473690986633 0
vt 0 0.34736847877502 0
vt 0.29921260476112 0.46315789222717 0
vt 0 0.46315789222717 0
vt 0.29921260476112 0.34736847877502 0
vt 0.22047244012356 0.5263158082962 0
vt 0.29133859276772 0.5263158082962 0
vt 0.21259842813015 0.5263158082962 0
vt 0.27559053897858 0.5263158082962 0
vt 0.21259842813015 0.51578950881958 0
vt 0.29921260476112 0.5263158082962 0
vt 0.20472441613674 0.51578950881958 0
vt 0.29921260476112 0.51578950881958 0
vt 0.23622047901154 0.5263158082962 0
vt 0.0078740157187 0.02105271816254 0
vt 0.29133859276772 0.02105271816254 0
vt 0 0.02105271816254 0
vt 0.20472441613674 0.53684210777283 0
vt 0.20472441613674 0.5263158082962 0
vt 0.28346458077431 0.53684210777283 0
vt 0 0.01052629947662 0
vt 0.29133859276772 0.01052629947662 0
vt 0.22834645211697 0.54736840724945 0
vt 0.29133859276772 0.50526314973831 0
vt 0.28346458077431 0.55789476633072 0
vt 0.21259842813015 0.50526314973831 0
vt 0.21259842813015 0.55789476633072 0
vt 0.29921260476112 0.50526314973831 0
vt 0.4960629940033 0.50526314973831 0
vt 0.37007874250412 0.6210526227951 0
vt 0.31496062874794 0.50526314973831 0
vt 0.44094488024712 0.6210526227951 0
vt 0.05511811003089 0.71578949689865 0
vt 0.05511811003089 0.65263158082962 0
vt 0.10236220806837 0.68421053886414 0
vt 0.6456692814827 0.56842106580734 0
vt 0.7007874250412 0.56842106580734 0
vt 0.67716532945633 0.67368423938751 0
vt 0.03149606287479 0.94736844301224 0
vt 0.0078740157187 0.93684208393097 0
vt 0.0157480314374 1 0
vt 0.48818898200989 0.86315786838532 0
vt 0.20472441613674 1 0
vt 0.43307086825371 0.66315788030624 0
vt 0.19685038924217 0.61052632331848 0
vt 0.08661417663097 0.50526314973831 0
vt 0.18897637724876 0.48421061038971 0
vt 0.18897637724876 0.5263158082962 0
vt 0.88976377248764 0.23157894611359 0
vt 0.96850395202637 0.02105271816254 0
vt 0.99212598800659 0.27368426322937 0
vt 0.93700784444809 0 0
vt 0.87401574850082 0.22105264663696 0
vt 0.97637796401978 0.02105271816254 0
vt 1 0.28421056270599 0
vt 0.93700784444809 0.01052629947662 0
vt 0.03149606287479 0.5263158082962 0
vt 0.08661417663097 0.51578950881958 0
vt 0.0157480314374 0.5263158082962 0
vt 0.09448818862438 0.51578950881958 0
vt 0.05511811003089 0.95789474248886 0
vt 0.0236220471561 0.94736844301224 0
vt 0.05511811003089 0.94736844301224 0
vt 0.03937007859349 0.95789474248886 0
vt 0.05511811003089 1 0
vt 0.07086614519358 0.97894734144211 0
vt 0.0236220471561 0.95789474248886 0
vt 0.03937007859349 0.93684208393097 0
vt 0.0157480314374 0.94736844301224 0
vt 0.03937007859349 0.94736844301224 0
vt 0.03149606287479 0.97894734144211 0
vt 0.40157479047775 0.85263156890869 0
vt 0.44881889224052 0.87368422746658 0
vt 0.40944883227348 0.94736844301224 0
vt 0.44094488024712 0.81052631139755 0
vt 0 0.88421052694321 0
vt 0.18897637724876 1 0
vt 0.43307086825371 0.7368420958519 0
vt 0.44094488024712 0.80000001192093 0
vt 0.03937007859349 0.98947370052338 0
vt 0.0078740157187 0.92631578445435 0
vt 0.03937007859349 0.92631578445435 0
vt 0.0236220471561 1 0
vt 0.33858266472816 0.66315788030624 0
vt 0.29921260476112 0.67368423938751 0
vt 0.33858266472816 0.65263158082962 0
vt 0.78740155696869 0.63157898187637 0
vt 0.67716532945633 0.50526314973831 0
vt 0.78740155696869 0.49473690986633 0
vt 0.67716532945633 0.63157898187637 0
vt 0.6456692814827 0.5263158082962 0
vt 0.75590550899506 0.61052632331848 0
vt 0.63779526948929 0.61052632331848 0
vt 0.74803149700165 0.5263158082962 0
vt 0.30708661675453 0.7368420958519 0
vt 0.7952755689621 0.68421053886414 0
vt 0.81889766454697 0.72631579637527 0
vt 0.7952755689621 0.72631579637527 0
vt 0.81889766454697 0.68421053886414 0
vt 0.22834645211697 0.51578950881958 0
vt 0.25984251499176 0.51578950881958 0
vt 0.25196850299835 0.46315789222717 0
vt 0.28346458077431 0.51578950881958 0
vt 0.30708661675453 0.48421061038971 0
vt 0.22834645211697 0.48421061038971 0
vt 0.73228347301483 0.68421053886414 0
vt 0.71653544902802 0.7368420958519 0
vt 0.81889766454697 0.69473683834076 0
vt 0.25984251499176 0.48421061038971 0
vt 0.22047244012356 0.48421061038971 0
vt 0.71653544902802 0.68421053886414 0
vt 0.84251970052719 0.54736840724945 0
vt 0.6535432934761 0.65263158082962 0
vt 0.6535432934761 0.53684210777283 0
vt 0.84251970052719 0.65263158082962 0
vt 0.81102359294891 0.55789476633072 0
vt 0.72440946102142 0.55789476633072 0
vt 0.71653544902802 0.55789476633072 0
vt 0.80314958095551 0.55789476633072 0
vt 0.6456692814827 0.85263156890869 0
vt 0.83464568853378 0.95789474248886 0
vt 0.6456692814827 0.95789474248886 0
vt 0.83464568853378 0.84210526943207 0
vt 0.73228347301483 0.93684208393097 0
vt 0.6456692814827 0.9052631855011 0
vt 0.62992125749588 0.93684208393097 0
vt 0.71653544902802 0.9052631855011 0
vt 1 0.48421061038971 0
vt 0.88976377248764 0.66315788030624 0
vt 0.88976377248764 0.48421061038971 0
vt 1 0.66315788030624 0
vt 0.54330706596375 1 0
vt 0.54330706596375 0.76842105388641 0
vt 0.83464568853378 0.92631578445435 0
vt 0.96062994003296 0.75789475440979 0
vt 1 0.92631578445435 0
vt 0.86614173650742 0.75789475440979 0
vt 0.55118107795715 0.49473690986633 0
vt 0.55118107795715 0.72631579637527 0
vt 0.77165353298187 0.92631578445435 0
vt 0.60629922151566 0.91578948497772 0
vt 0.5039370059967 0.82105267047882 0
vt 0.5039370059967 0.96842104196548 0
vt 0.87401574850082 1 0
vt 0.97637796401978 1 0
vt 0.5039370059967 0.68421053886414 0
vt 0.51181101799011 0.5263158082962 0
vt 0.74803149700165 0.84210526943207 0
vt 0.69291341304779 0.88421052694321 0
vt 0.59055119752884 0.4736841917038 0
vt 0.59055119752884 0.15789473056793 0
vt 0.61417323350906 0.27368426322937 0
vt 0.37795275449753 0.4736841917038 0
vt 0.3543307185173 0.16842103004456 0
vt 0.36220473051071 0.17894744873047 0
vt 0.37007874250412 0.4736841917038 0
vt 0.60629922151566 0.16842103004456 0
vt 0.58267718553543 0.4736841917038 0
vt 0.59842520952225 0.17894744873047 0
vt 0.37795275449753 0.38947367668152 0
vt 0.37795275449753 0.46315789222717 0
vt 0.37795275449753 0.39999997615814 0
vt 0.53543305397034 0.31578946113586 0
vt 0.44094488024712 0.35789477825165 0
vt 0.51181101799011 0.28421056270599 0
vt 0.48031497001648 0.36842107772827 0
vt 0.4251968562603 0.32631576061249 0
vt 0.51968502998352 0.31578946113586 0
vt 0.53543305397034 0.32631576061249 0
vt 0.4251968562603 0.31578946113586 0
vt 0.62992125749588 0.01052629947662 0
vt 0.32283464074135 0.15789473056793 0
vt 0.32283464074135 0 0
vt 0.62992125749588 0.14736843109131 0
vt 0.4960629940033 0.36842107772827 0
vt 0.43307086825371 0.29473686218262 0
vt 0.4960629940033 0.28421056270599 0
vt 0.43307086825371 0.36842107772827 0
vt 0.6456692814827 0.26315796375275 0
vt 0.92913383245468 0.26315796375275 0
vt 0.6535432934761 0.32631576061249 0
vt 0.6535432934761 0.26315796375275 0
vt 0.66141730546951 0.32631576061249 0
vt 0.81102359294891 0.4736841917038 0
vt 0.90551179647446 0.4736841917038 0
vt 0.74015748500824 0.08421051502228 0
vt 0.76377952098846 0.01052629947662 0
vt 0.75590550899506 0.08421051502228 0
vt 0.75590550899506 0.01052629947662 0
vt 0.6456692814827 0 0
vt 0.83464568853378 0.18947374820709 0
vt 0.6456692814827 0.23157894611359 0
vt 0.84251970052719 0.04210531711578 0
vt 0.37795275449753 0.32631576061249 0
vt 0.41732284426689 0.31578946113586 0
vt 0.41732284426689 0.32631576061249 0
vt 0.37795275449753 0.31578946113586 0
vt 0.62204724550247 0.23157894611359 0
vt 0.62204724550247 0.11578953266144 0
vt 0.62204724550247 0.08421051502228 0
vt 0.62204724550247 0.26315796375275 0
vt 0.41732284426689 0.34736847877502 0
vt 0.48818898200989 0.31578946113586 0
vt 0.4960629940033 0.3368421792984 0
vt 0.40944883227348 0.32631576061249 0
vt 0.59842520952225 0.13684213161469 0
vt 0.59842520952225 0.27368426322937 0
vt 0.59842520952225 0.12631583213806 0
vt 0.59842520952225 0.28421056270599 0
# 224 texture coordinates

o Mesh
usemtl material
f 1/1/1 2/2/2 3/3/3
f 4/4/5 5/5/6 6/6/7
f 7/7/8 8/8/8 9/9/8
f 7/7/8 10/10/9 8/8/8
f 8/8/10 11/11/10 12/12/10
f 8/8/10 10/10/11 11/11/10
f 12/12/12 7/7/12 9/9/12
f 12/12/12 11/11/12 7/7/12
f 13/13/13 14/14/14 15/15/15
f 13/13/13 16/16/16 14/14/14
f 15/17/17 6/18/7 2/19/2
f 15/17/17 17/20/18 6/18/7
f 18/21/19 19/22/20 17/23/21
f 18/21/19 20/24/22 19/22/20
f 19/25/23 1/26/1 4/27/5
f 19/25/23 13/28/24 1/26/1
f 1/26/1 5/29/6 4/27/5
f 1/26/1 3/24/3 5/29/6
f 14/30/25 20/31/25 18/31/25
f 14/30/25 16/32/25 20/31/25
f 20/33/26 13/22/24 19/34/23
f 20/33/26 16/35/27 13/22/24
f 14/36/28 17/20/18 15/17/17
f 14/36/28 18/37/29 17/20/18
f 6/38/7 19/39/20 4/40/5
f 6/38/7 17/41/21 19/39/20
f 13/13/13 2/40/2 1/42/1
f 13/13/13 15/43/15 2/40/2
f 6/44/7 3/45/3 2/46/2
f 6/44/7 5/47/6 3/45/3
f 21/48/30 22/49/30 23/50/30
f 23/50/31 22/49/31 24/48/31
f 21/51/32 24/52/32 22/53/32
f 25/54/33 26/55/34 27/56/35
f 25/57/33 27/58/35 28/59/36
f 29/60/37 30/58/38 31/59/39
f 32/54/40 30/56/38 33/55/41
f 34/60/42 28/59/36 27/58/35
f 32/57/40 31/59/39 30/58/38
f 29/61/37 35/62/43 36/63/44
f 34/61/42 36/63/44 35/62/43
f 37/64/45 38/65/45 39/66/46
f 37/64/45 40/67/47 38/65/45
f 41/68/48 42/69/48 43/70/49
f 41/68/48 44/71/50 42/69/48
f 28/72/36 35/73/43 45/74/51
f 28/72/36 34/75/42 35/73/43
f 46/76/52 33/77/41 30/78/38
f 46/76/52 47/79/53 33/77/41
f 48/80/54 49/81/55 27/80/35
f 48/80/54 50/81/56 49/81/55
f 33/82/41 51/83/57 52/84/58
f 33/82/41 47/85/53 51/83/57
f 51/86/57 46/76/52 50/81/56
f 51/86/57 47/79/53 46/76/52
f 28/87/36 53/88/59 25/89/33
f 28/87/36 45/90/51 53/88/59
f 49/81/55 46/76/52 30/78/38
f 49/81/55 50/81/56 46/76/52
f 36/63/44 27/91/35 49/92/55
f 36/63/44 34/61/42 27/91/35
f 53/88/59 31/93/39 32/94/40
f 53/88/59 45/90/51 31/93/39
f 51/83/57 26/82/34 52/84/58
f 51/83/57 54/85/60 26/82/34
f 48/80/54 51/86/57 50/81/56
f 48/80/54 54/95/60 51/86/57
f 52/96/58 25/54/33 53/97/59
f 52/96/58 26/55/34 25/54/33
f 32/54/40 52/96/58 53/97/59
f 32/54/40 33/55/41 52/96/58
f 26/98/34 48/80/54 27/80/35
f 26/98/34 54/95/60 48/80/54
f 30/91/38 36/63/44 49/92/55
f 30/91/38 29/61/37 36/63/44
f 35/73/43 31/72/39 45/74/51
f 35/73/43 29/75/37 31/72/39
f 55/99/61 56/100/61 57/101/62
f 55/99/61 58/100/63 56/100/61
f 59/102/64 55/103/64 57/104/65
f 59/102/64 60/105/66 55/103/64
f 61/106/67 59/107/67 62/108/68
f 61/106/67 60/109/67 59/107/67
f 58/100/69 62/110/69 56/100/70
f 58/100/69 61/110/69 62/110/69
f 63/111/71 64/112/72 65/113/73
f 63/111/71 66/114/72 64/112/72
f 64/3/74 67/115/75 68/116/76
f 64/3/74 66/6/77 67/115/75
f 65/117/78 68/118/78 69/119/79
f 65/117/78 64/120/80 68/118/78
f 67/121/81 63/113/81 70/122/82
f 67/121/81 66/123/83 63/113/81
f 69/124/25 67/115/75 70/125/84
f 69/124/25 68/116/76 67/115/75
f 63/111/71 69/122/85 70/126/86
f 63/111/71 65/113/73 69/122/85
f 71/127/87 72/128/88 73/129/89
f 71/127/87 74/130/87 72/128/88
f 72/131/90 75/132/91 76/133/92
f 72/131/90 74/134/91 75/132/91
f 76/135/93 77/136/94 78/137/95
f 76/135/93 75/138/94 77/136/94
f 78/139/96 71/140/97 73/141/98
f 78/139/96 77/142/99 71/140/97
f 79/143/100 80/144/101 81/145/102
f 79/143/100 82/146/103 80/144/101
f 76/135/93 83/147/104 84/148/105
f 76/135/93 78/137/95 83/147/104
f 85/149/106 76/150/92 84/151/105
f 85/149/106 72/152/90 76/150/92
f 86/153/107 72/128/88 85/154/106
f 86/153/107 73/129/89 72/128/88
f 78/155/96 86/141/107 83/156/104
f 78/155/96 73/139/98 86/141/107
f 83/147/104 79/157/100 84/148/105
f 83/147/104 82/158/103 79/157/100
f 81/159/102 84/151/105 79/160/100
f 81/159/102 85/149/106 84/151/105
f 81/161/102 86/153/107 85/154/106
f 81/161/102 80/162/101 86/153/107
f 80/163/101 83/164/104 86/164/107
f 80/163/101 82/163/103 83/164/104
f 87/100/108 88/99/108 89/101/109
f 87/100/108 90/100/109 88/99/108
f 88/103/64 91/102/64 89/104/66
f 88/103/64 92/105/65 91/102/64
f 91/107/110 93/106/110 94/108/110
f 91/107/110 92/109/110 93/106/110
f 94/110/69 90/100/69 87/100/69
f 94/110/69 93/110/69 90/100/69
f 95/112/111 96/111/112 97/113/113
f 95/112/111 98/114/111 96/111/112
f 99/115/114 95/3/115 100/116/116
f 99/115/114 98/6/117 95/3/115
f 100/118/118 97/117/118 101/119/79
f 100/118/118 95/120/119 97/117/118
f 96/113/120 99/121/120 102/122/82
f 96/113/120 98/123/121 99/121/120
f 100/116/116 102/125/25 99/115/114
f 100/116/116 101/124/122 102/125/25
f 97/113/113 102/126/123 101/122/124
f 97/113/113 96/111/112 102/126/123
f 103/127/87 104/128/125 105/130/126
f 103/127/87 106/129/89 104/128/125
f 107/132/127 104/131/128 108/133/129
f 107/132/127 105/134/127 104/131/128
f 109/136/94 108/135/130 110/137/131
f 109/136/94 107/138/94 108/135/130
f 103/140/132 110/139/133 106/141/134
f 103/140/132 109/142/135 110/139/133
f 111/145/136 112/146/137 113/143/138
f 111/145/136 114/144/139 112/146/137
f 115/147/140 108/135/130 116/148/141
f 115/147/140 110/137/131 108/135/130
f 108/150/129 117/149/142 116/151/141
f 108/150/129 104/152/128 117/149/142
f 104/128/125 118/153/143 117/154/142
f 104/128/125 106/129/89 118/153/143
f 118/141/143 110/155/133 115/156/140
f 118/141/143 106/139/134 110/155/133
f 113/157/138 115/147/140 116/148/141
f 113/157/138 112/158/137 115/147/140
f 111/159/136 116/151/141 117/149/142
f 111/159/136 113/160/138 116/151/141
f 118/153/143 111/161/136 117/154/142
f 118/153/143 114/162/139 111/161/136
f 114/163/139 115/164/140 112/163/137
f 114/163/139 118/164/143 115/164/140
f 119/165/144 120/166/145 121/167/146
f 122/165/147 123/167/148 124/166/149
f 125/168/150 124/169/149 126/170/151
f 125/168/150 122/171/147 124/169/149
f 120/172/145 127/173/152 128/174/153
f 120/172/145 119/173/144 127/173/152
f 125/168/154 128/174/155 127/173/156
f 125/168/154 126/170/157 128/174/155
f 127/175/156 122/176/158 125/177/154
f 127/175/156 119/176/159 122/176/158
f 126/170/160 120/172/145 128/174/161
f 126/170/160 124/169/149 120/172/145
f 121/167/146 124/166/149 123/167/148
f 121/167/146 120/166/145 124/166/149
f 119/165/144 123/167/148 122/165/147
f 119/165/144 121/167/146 123/167/148
f 129/178/162 130/179/162 131/180/163
f 129/178/162 132/181/164 130/179/162
f 133/182/165 134/183/165 135/184/166
f 133/182/165 136/185/166 134/183/165
f 134/186/167 131/187/167 135/188/167
f 134/186/167 129/189/168 131/187/167
f 130/190/169 136/191/169 133/192/170
f 130/190/169 132/193/169 136/191/169
f 137/194/171 138/195/172 139/196/173
f 140/197/174 141/198/175 142/195/176
f 138/195/172 143/199/177 139/196/173
f 138/195/172 144/200/178 143/199/177
f 145/199/179 142/195/176 141/198/175
f 145/199/179 146/200/180 142/195/176
f 137/201/181 141/202/175 140/203/182
f 137/201/181 139/204/183 141/202/175
f 139/205/183 145/206/179 141/207/175
f 139/205/183 143/208/184 145/206/179
f 147/209/185 143/210/184 148/211/186
f 147/209/185 145/212/179 143/210/184
f 146/200/187 138/195/188 142/195/188
f 146/200/187 144/200/189 138/195/188
f 140/197/25 138/195/25 137/194/122
f 140/197/25 142/195/25 138/195/25
f 136/213/190 145/214/179 147/215/191
f 136/213/190 146/216/180 145/214/179
f 132/217/192 143/218/177 144/219/178
f 132/217/192 148/220/193 143/218/177
f 136/221/194 144/222/189 146/223/187
f 136/221/194 132/224/195 144/222/189
f 149/180/196 150/181/196 151/178/196
f 149/180/196 152/179/196 150/181/196
f 153/184/197 154/185/197 155/182/198
f 153/184/197 156/183/198 154/185/197
f 151/188/167 153/189/167 155/186/199
f 151/188/167 150/187/200 153/189/167
f 156/192/169 149/193/169 154/190/201
f 156/192/169 152/191/169 149/193/169
f 157/195/202 158/194/203 159/196/204
f 160/198/205 161/197/206 162/195/207
f 163/199/208 157/195/202 159/196/204
f 163/199/208 164/200/209 157/195/202
f 162/195/207 165/199/210 160/198/205
f 162/195/207 166/200/211 165/199/210
f 160/202/205 158/201/212 161/203/213
f 160/202/205 159/204/214 158/201/212
f 165/206/210 159/205/214 160/207/205
f 165/206/210 163/208/215 159/205/214
f 167/209/185 163/210/215 165/212/210
f 167/209/185 168/211/185 163/210/215
f 157/195/188 166/200/187 162/195/188
f 157/195/188 164/200/189 166/200/187
f 157/195/25 161/197/25 158/194/84
f 157/195/25 162/195/122 161/197/25
f 156/213/216 165/214/210 166/216/211
f 156/213/216 167/215/217 165/214/210
f 163/218/208 152/217/218 164/219/209
f 163/218/208 168/220/218 152/217/218
f 164/222/189 156/221/219 166/223/187
f 164/222/189 152/224/220 156/221/219

