<?xml version="1.0" encoding="UTF-8"?>
<COLLADA xmlns="http://www.collada.org/2008/03/COLLADASchema" version="1.5.0">
	<asset>
		<contributor>
			<authoring_tool>CINEMA4D 20.057 COLLADA Exporter</authoring_tool>
		</contributor>
		<created>2019-09-15T10:57:06Z</created>
		<modified>2019-09-15T10:57:06Z</modified>
		<unit/>
		<up_axis>Y_UP</up_axis>
	</asset>
	<library_images>
		<image id="ID3">
			<init_from>
				<ref>Osh.png</ref>
			</init_from>
		</image>
	</library_images>
	<library_effects>
		<effect id="ID2">
			<profile_COMMON>
				<newparam sid="ID4">
					<sampler2D>
						<instance_image url="#ID3"/>
					</sampler2D>
				</newparam>
				<technique sid="COMMON">
					<blinn>
						<diffuse>
							<texture texture="ID4" texcoord="UVSET0"/>
						</diffuse>
					</blinn>
				</technique>
			</profile_COMMON>
		</effect>
	</library_effects>
	<library_materials>
		<material id="ID1" name="material">
			<instance_effect url="#ID2"/>
		</material>
	</library_materials>
	<library_geometries>
		<geometry id="ID20">
			<mesh>
				<source id="ID21">
					<float_array id="ID22" count="516" digits="2490374">5.15 14.1 -3.15 4.9 13.7 2.25 2 15.6 -2.6 -5.15 14.1 -3.15 -2 15.6 -2.6 -4.9 13.7 2.25 1.5 16.9 0.85 0 14.95 -1.85 1.5 14.05 0.85 0 16.9 -1.85 -1.5 16.9 0.85 -1.5 14.05 0.85 5.15 11 -3.55 4.7 -0.9 2.8 4.9 11.35 3.4 4.9 -0.9 -2.75 -4.9 11.35 3.4 -4.7 -0.9 2.8 -5.15 11 -3.55 -4.9 -0.9 -2.75 0.6 19.25 5.3 0 19.65 7.7 -0.05 21.05 5.75 -0.75 19.2 5.3 -4.9 20.05 -4.85 -4.7 24.1 -4.9 -5.85 22.45 3.7 -4.1 16.3 -3.15 3.2 15.35 3.8 5.85 22.45 3.7 4.1 16.3 -3.15 4.9 20.05 -4.85 4.7 24.1 -4.9 -3.2 15.35 3.8 0 14.65 3.15 0 15.9 5.4 5.45 15.5 -13.85 -0.2 19.65 -6.5 -2.2 7.55 -17.6 1.55 20.8 -6.5 -2.1 14.8 -15.9 -1.15 20.85 -6.55 -8.85 21.9 -13.55 0.35 19.1 -7.05 0 16.15 -4.8 3.65 29.4 2.65 3.4 29.4 -2.55 -3.65 29.4 2.65 0 24.5 6.75 0 29.4 5.15 0 29.4 -4.05 0 24.4 -6.65 0 19.1 -6.55 -3.4 29.4 -2.55 5.2 1.75 0.55 5.05 7.85 -2.45 5.05 7.85 0.75 5.2 1.75 -2.2 7.65 7.85 0.75 7.65 1.75 0.55 7.65 1.75 -2.2 7.65 7.85 -2.45 6.55 13.2 0.85 3.45 14.25 -2.15 6.55 13.2 -2.45 3.45 14.25 0.65 4.75 7.85 1.1 4.75 7.85 -2.8 8.3 7.85 -2.8 8.3 7.85 1.1 7.65 1.75 -2.2 5.25 -6.95 -2.6 7.8 -6.95 -2.6 5.2 1.75 -2.2 5.2 1.75 0.55 5.25 -6.95 1 7.65 1.75 0.55 7.8 -6.95 1 4.55 -12.55 1.55 8.15 -12.3 -2.3 4.55 -12.55 -2.3 8.1 -12.3 1.55 8.7 -10.9 2.45 3.5 -10.9 2.65 3.5 -10.9 -3.85 8.75 -10.9 -3.6 -5.05 7.85 -2.45 -5.2 1.75 0.55 -5.05 7.85 0.75 -5.2 1.75 -2.2 -7.65 7.85 0.75 -7.65 1.75 0.55 -7.65 1.75 -2.2 -7.65 7.85 -2.45 -3.45 14.25 -2.15 -6.55 13.2 0.85 -6.55 13.2 -2.45 -3.45 14.25 0.65 -4.75 7.85 1.1 -4.75 7.85 -2.8 -8.3 7.85 -2.8 -8.3 7.85 1.1 -7.65 1.75 -2.2 -5.25 -6.95 -2.6 -5.2 1.75 -2.2 -7.8 -6.95 -2.6 -5.2 1.75 0.55 -5.25 -6.95 1 -7.65 1.75 0.55 -7.8 -6.95 1 -4.55 -12.55 -2.3 -8.1 -12.3 1.55 -4.55 -12.55 1.55 -8.15 -12.3 -2.3 -8.7 -10.9 2.45 -3.5 -10.9 2.65 -3.5 -10.9 -3.85 -8.75 -10.9 -3.6 -4.9 1.4 -2.65 -5.8 -8 -2.85 -2.65 -4.95 -3.85 4.9 1.4 -2.65 2.65 -4.95 -3.85 5.8 -8 -2.85 4.7 0.1 2.8 5.4 -7.75 2.85 -4.7 0.1 2.8 -5.4 -7.75 2.85 0.8 -17.2 1.95 0.5 -4.35 -2.75 0.5 -4.35 2.65 0.8 -17.2 -2.75 5.4 -4.35 -2.75 5.05 -17.2 1.95 5.4 -4.35 2.65 5.05 -17.2 -2.75 0.35 -38.5 9.45 0.35 -38.5 -5.25 0.5 -36.4 9.05 7.15 -38.5 9 6.8 -36.4 8.55 7.15 -38.5 -5.25 1 -31.9 0.9 1 -31.9 -3.75 5.3 -31.9 0.9 5.3 -31.9 -3.75 5.05 -17.2 1.95 0.8 -17.2 1.95 5.05 -17.2 -2.75 0.8 -17.2 -2.75 -0.5 -4.35 -2.75 -0.8 -17.2 1.95 -0.5 -4.35 2.65 -0.8 -17.2 -2.75 -5.05 -17.2 1.95 -5.4 -4.35 -2.75 -5.4 -4.35 2.65 -5.05 -17.2 -2.75 -0.35 -38.5 -5.25 -0.35 -38.5 9.45 -0.5 -36.4 9.05 -6.8 -36.4 8.55 -7.15 -38.5 9 -7.15 -38.5 -5.25 -1 -31.9 0.9 -1 -31.9 -3.75 -5.3 -31.9 0.9 -5.3 -31.9 -3.75 -5.05 -17.2 1.95 -0.8 -17.2 1.95 -5.05 -17.2 -2.75 -0.8 -17.2 -2.75</float_array>
					<technique_common>
						<accessor count="172" source="#ID22" stride="3">
							<param name="X" type="float"/>
							<param name="Y" type="float"/>
							<param name="Z" type="float"/>
						</accessor>
					</technique_common>
				</source>
				<source id="ID23">
					<float_array id="ID24" count="621" digits="2490374">0.327391 0.416662 -0.848061 0.671979 0.626971 0.394146 0.140609 0.98929 -0.039179 -0.538162 0.508366 -0.672269 -0.150731 0.859744 -0.487975 -0.473784 0.70833 0.523257 0.874157 0 -0.485643 0.874157 0 -0.485643 -0.874157 0 -0.485643 -0.874157 0 -0.485643 0 0 1 0.999241 -0.00635892 0.0384414 0.999168 -0.0183442 0.0364299 0.999353 -0.000475767 0.0359719 0.999179 -0.0185705 0.0360065 0 0.284708 0.958614 0 0.117188 0.99311 -0.999168 -0.0183442 0.0364299 -0.999241 -0.00635892 0.0384414 -0.999353 -0.000475764 0.0359719 -0.999179 -0.0185706 0.0360065 0 0.0632237 -0.997999 0 -0.00206867 -0.999998 0 -1 -0 0 -0.0670755 -0.997748 0 -0.0670755 -0.997748 0 -0.048921 0.998803 0.9381 0.292307 0.185807 -0.926709 0.293595 0.234548 0.0364521 -0.984221 0.17315 -0.716579 -0.152233 -0.68069 -0.777999 0.292099 -0.556234 -0.905549 -0.0410879 0.422248 -0.602269 -0.700871 -0.382169 0.529633 -0.734028 0.42508 0.905549 -0.0410879 0.422248 0.602269 -0.700871 -0.382169 0.716579 -0.152233 -0.68069 0.777999 0.292099 -0.556234 -0.529633 -0.734028 0.42508 5.28166e-09 -0.997555 0.0698832 1.16757e-08 -0.453026 0.891497 -0.387952 0.64239 -0.660931 -0.36615 0.661197 -0.654792 -0.409416 0.623025 -0.666497 0.568631 0.663071 -0.486821 0.54225 0.679223 -0.494592 0.594434 0.646245 -0.478556 -1.26856e-08 -0.826354 -0.563151 0.656238 0.680429 0.326141 0.569426 0.733659 -0.370807 -0.656238 0.680429 0.326141 1.17729e-08 0.160166 0.98709 1.99906e-08 0.845258 0.534358 -8.96575e-09 0.867823 -0.496874 -1.08452e-08 0.153563 -0.988139 -1.08997e-08 -0.345623 -0.938373 -0.569426 0.733659 -0.370807 -0.999698 -0.0245827 -0 -0.999698 -0.0245827 -0 -0.999698 -0.0245827 -0 0 -0.0327693 0.999463 -0 -0.0327693 0.999463 1 0 -0 0 -0.0409492 -0.999161 0 -0.0409492 -0.999161 0.710791 0.703403 -0 0.320807 0.947145 -0 -0.979987 -0.19906 -0 -0.632827 -0.774293 -0 -0.632827 -0.774293 -0 -0.979987 -0.19906 0 -0.0333089 0.0763997 -0.996521 0 0.065281 -0.997867 -0.0665767 0.087424 -0.993944 -0.0217978 0.0539836 0.998304 0 0.046678 0.99891 -0.043584 0.0612605 0.99717 0.950445 0.310893 -0 0.950445 0.310893 -0 0 0.0459285 -0.998945 0.011479 0.156064 -0.98768 0 0.146421 -0.989222 -0.991004 0.133835 -0 -0.999983 -0.00574705 -0 -0.961863 0.273533 -0 0.00903306 0.207503 0.978193 0 0.0516551 0.998665 0 0.200382 0.979718 0.992276 0.12403 0.00202472 0.999851 0.0172388 -0 0.991993 0.126293 0 0.999851 0.0172388 -0 -0.156572 -0.896564 0.414317 0.496184 -0.851055 -0.171775 -0.38035 -0.851023 -0.362069 0.434521 -0.826297 0.358363 0.620496 -0.199628 0.758376 -0.79144 -0.261482 0.552493 -0.835918 -0.03743 -0.547577 0.65492 -0.166867 -0.737045 0.999698 -0.0245827 -0 0.999698 -0.0245827 -0 -1 0 -0 -0.320807 0.947145 -0 -0.585352 0.810779 -0 -0.816851 0.576849 -0 0.814099 -0.580726 -0 0.979987 -0.19906 -0 0.40705 -0.913406 -0 0.979987 -0.19906 -0 0.0333089 0.0763997 -0.996521 0.0665767 0.087424 -0.993944 0.0217978 0.0539836 0.998304 0.043584 0.0612605 0.99717 -0.950445 0.310893 -0 -0.950445 0.310893 -0 -0.011479 0.156064 -0.98768 0.999983 -0.00574705 -0 0.991004 0.133835 -0 0.961863 0.273533 -0 -0.00903306 0.207503 0.978193 0 0.200382 0.979718 -0.999851 0.0172388 -0 -0.992276 0.12403 0.00202472 -0.991993 0.126294 -0 -0.999851 0.0172388 -0 0.299478 -0.906182 -0.298574 -0.336207 -0.905266 0.259729 0.219931 -0.822661 0.52427 -0.604899 -0.766182 -0.216939 -0.620496 -0.199628 0.758376 0.79144 -0.261482 0.552493 0.835918 -0.03743 -0.547577 -0.65492 -0.166867 -0.737045 -0.421415 0.162782 -0.892139 -0.659278 -0.585077 -0.472268 -0.0904694 -0.0996711 -0.990899 0.57929 0.14364 -0.802366 0.0901254 0.0292407 -0.995501 0.613646 -0.36401 -0.700668 0.993853 0.0914734 0.0623548 0.993849 0.0890429 0.0658384 -0.993853 0.0914734 0.0623548 -0.993849 0.0890429 0.0658384 0 0.403898 0.914804 0 0.00636929 0.99998 0 0.799964 0.600048 0 0.00636929 0.99998 0 0.97271 0.232023 0 0.97271 0.232023 0 -0.99904 0.0438175 -0 -0.99904 0.0438175 -0.999728 -0.0233399 -0 -0.999727 -0.0233399 -0 -0.999728 -0.0233399 -0 0.999629 -0.0272273 -0 0.999629 -0.0272272 -0 0 -0.0543941 0.99852 0 0 -1 -0.997459 0.0712471 -0 -0.995895 0.0905062 -0.00152649 -0.996227 0.0867516 -0.00228979 0.986394 0.164399 0 0.580916 0.468842 0.665375 0.970592 0.240642 -0.00644391 -0.99906 0.0433296 -0.00114662 -0.999106 0.0422692 -0 0.797841 0.455146 0.395338 0.989485 0.144638 -0 0.0711304 0.200306 0.977148 0.0644239 0.219348 0.973517 0.0427416 0.698544 0.71429 0 0.283598 0.958943 0 -0.0712471 0.997459 0 0.17083 -0.985301 0 0.221621 -0.975133 0 0.119442 -0.992841 0.999855 0.0170043 -0 0.999855 0.0170043 -0 -0.999907 -0.0136042 -0 0 0.0678704 -0.997694 0 0.0678704 -0.997694 0.999728 -0.0233399 -0 -0.999629 -0.0272273 -0 -0.999629 -0.0272272 -0 -0 -0.0543941 0.99852 0 -0.0543941 0.99852 0.995895 0.0905062 -0.00152649 0.997459 0.0712471 -0 0.996227 0.0867516 -0.00228979 -0.580916 0.468842 0.665375 -0.986394 0.164399 -0 -0.970592 0.240642 -0.00644391 0.99906 0.0433296 -0.00114662 0.999106 0.0422692 -0 -0.797841 0.455146 0.395338 -0.989485 0.144638 -0 -0.0711304 0.200306 0.977148 -0.0644239 0.219348 0.973517 -0.0427416 0.698544 0.71429 0 0.283598 0.958943 -0.999855 0.0170043 -0 -0.999855 0.0170043 -0 0.999907 -0.0136042 -0 0 0.0678704 -0.997694 0 0.0678703 -0.997694</float_array>
					<technique_common>
						<accessor count="207" source="#ID24" stride="3">
							<param name="X" type="float"/>
							<param name="Y" type="float"/>
							<param name="Z" type="float"/>
						</accessor>
					</technique_common>
				</source>
				<source id="ID25">
					<float_array id="ID26" count="448" digits="2490374">0.291339 0.484211 0.283465 0.568421 0.259843 0.494737 0.283465 0.494737 0.275591 0.557895 0.228346 0.494737 0.740157 0.652632 0.779528 0.578947 0.740157 0.547368 0.779528 0.652632 0.811024 0.652632 0.811024 0.547368 0.204724 0.494737 0.291339 0.494737 0.299213 0.494737 0.212598 0.494737 0 0.347368 0.299213 0.463158 0 0.463158 0.299213 0.347368 0.220472 0.526316 0.291339 0.526316 0.212598 0.526316 0.275591 0.526316 0.212598 0.51579 0.299213 0.526316 0.204724 0.51579 0.299213 0.51579 0.23622 0.526316 0.00787402 0.0210527 0.291339 0.0210527 0 0.0210527 0.204724 0.536842 0.204724 0.526316 0.283465 0.536842 0 0.0105263 0.291339 0.0105263 0.228346 0.547368 0.291339 0.505263 0.283465 0.557895 0.212598 0.505263 0.212598 0.557895 0.299213 0.505263 0.496063 0.505263 0.370079 0.621053 0.314961 0.505263 0.440945 0.621053 0.0551181 0.715789 0.0551181 0.652632 0.102362 0.684211 0.645669 0.568421 0.700787 0.568421 0.677165 0.673684 0.0314961 0.947368 0.00787402 0.936842 0.015748 1 0.488189 0.863158 0.204724 1 0.433071 0.663158 0.19685 0.610526 0.0866142 0.505263 0.188976 0.484211 0.188976 0.526316 0.889764 0.231579 0.968504 0.0210527 0.992126 0.273684 0.937008 0 0.874016 0.221053 0.976378 0.0210527 1 0.284211 0.937008 0.0105263 0.0314961 0.526316 0.0866142 0.51579 0.015748 0.526316 0.0944882 0.51579 0.0551181 0.957895 0.023622 0.947368 0.0551181 0.947368 0.0393701 0.957895 0.0551181 1 0.0708661 0.978947 0.023622 0.957895 0.0393701 0.936842 0.015748 0.947368 0.0393701 0.947368 0.0314961 0.978947 0.401575 0.852632 0.448819 0.873684 0.409449 0.947368 0.440945 0.810526 0 0.884211 0.188976 1 0.433071 0.736842 0.440945 0.8 0.0393701 0.989474 0.00787402 0.926316 0.0393701 0.926316 0.023622 1 0.338583 0.663158 0.299213 0.673684 0.338583 0.652632 0.787402 0.631579 0.677165 0.505263 0.787402 0.494737 0.677165 0.631579 0.645669 0.526316 0.755906 0.610526 0.637795 0.610526 0.748031 0.526316 0.307087 0.736842 0.795276 0.684211 0.818898 0.726316 0.795276 0.726316 0.818898 0.684211 0.228346 0.51579 0.259843 0.51579 0.251969 0.463158 0.283465 0.51579 0.307087 0.484211 0.228346 0.484211 0.732283 0.684211 0.716535 0.736842 0.818898 0.694737 0.259843 0.484211 0.220472 0.484211 0.716535 0.684211 0.84252 0.547368 0.653543 0.652632 0.653543 0.536842 0.84252 0.652632 0.811024 0.557895 0.724409 0.557895 0.716535 0.557895 0.80315 0.557895 0.645669 0.852632 0.834646 0.957895 0.645669 0.957895 0.834646 0.842105 0.732283 0.936842 0.645669 0.905263 0.629921 0.936842 0.716535 0.905263 1 0.484211 0.889764 0.663158 0.889764 0.484211 1 0.663158 0.543307 1 0.543307 0.768421 0.834646 0.926316 0.96063 0.757895 1 0.926316 0.866142 0.757895 0.551181 0.494737 0.551181 0.726316 0.771654 0.926316 0.606299 0.915789 0.503937 0.821053 0.503937 0.968421 0.874016 1 0.976378 1 0.503937 0.684211 0.511811 0.526316 0.748031 0.842105 0.692913 0.884211 0.590551 0.473684 0.590551 0.157895 0.614173 0.273684 0.377953 0.473684 0.354331 0.168421 0.362205 0.178947 0.370079 0.473684 0.606299 0.168421 0.582677 0.473684 0.598425 0.178947 0.377953 0.389474 0.377953 0.463158 0.377953 0.4 0.535433 0.315789 0.440945 0.357895 0.511811 0.284211 0.480315 0.368421 0.425197 0.326316 0.519685 0.315789 0.535433 0.326316 0.425197 0.315789 0.629921 0.0105263 0.322835 0.157895 0.322835 0 0.629921 0.147368 0.496063 0.368421 0.433071 0.294737 0.496063 0.284211 0.433071 0.368421 0.645669 0.263158 0.929134 0.263158 0.653543 0.326316 0.653543 0.263158 0.661417 0.326316 0.811024 0.473684 0.905512 0.473684 0.740157 0.0842105 0.76378 0.0105263 0.755906 0.0842105 0.755906 0.0105263 0.645669 0 0.834646 0.189474 0.645669 0.231579 0.84252 0.0421053 0.377953 0.326316 0.417323 0.315789 0.417323 0.326316 0.377953 0.315789 0.622047 0.231579 0.622047 0.11579 0.622047 0.0842105 0.622047 0.263158 0.417323 0.347368 0.488189 0.315789 0.496063 0.336842 0.409449 0.326316 0.598425 0.136842 0.598425 0.273684 0.598425 0.126316 0.598425 0.284211</float_array>
					<technique_common>
						<accessor count="224" source="#ID26" stride="2">
							<param name="S" type="float"/>
							<param name="T" type="float"/>
						</accessor>
					</technique_common>
				</source>
				<vertices id="ID27">
					<input semantic="POSITION" source="#ID21"/>
				</vertices>
				<polylist count="245" material="Material1">
					<input offset="0" semantic="VERTEX" source="#ID27" set="0"/>
					<input offset="1" semantic="NORMAL" source="#ID23" set="0"/>
					<input offset="2" semantic="TEXCOORD" source="#ID25" set="0"/>
					<vcount>3 3 3 3 3 3 3 3 3 3 3 3 3 3 3 3 3 3 3 3 3 3 3 3 3 3 3 3 3 3 3 3 3 3 3 3 3 3 3 3 3 3 3 3 3 3 3 3 3 3 3 3 3 3 3 3 3 3 3 3 3 3 3 3 3 3 3 3 3 3 3 3 3 3 3 3 3 3 3 3 3 3 3 3 3 3 3 3 3 3 3 3 3 3 3 3 3 3 3 3 3 3 3 3 3 3 3 3 3 3 3 3 3 3 3 3 3 3 3 3 3 3 3 3 3 3 3 3 3 3 3 3 3 3 3 3 3 3 3 3 3 3 3 3 3 3 3 3 3 3 3 3 3 3 3 3 3 3 3 3 3 3 3 3 3 3 3 3 3 3 3 3 3 3 3 3 3 3 3 3 3 3 3 3 3 3 3 3 3 3 3 3 3 3 3 3 3 3 3 3 3 3 3 3 3 3 3 3 3 3 3 3 3 3 3 3 3 3 3 3 3 3 3 3 3 3 3 3 3 3 3 3 3 3 3 3 3 3 3 3 3 3 3 3 3</vcount>
					<p>2 2 2 1 1 1 0 0 0 5 5 5 4 4 4 3 3 3 8 6 8 7 6 7 6 6 6 7 6 7 9 7 9 6 6 6 11 8 11 10 8 10 7 8 7 10 8 10 9 9 9 7 8 7 8 10 8 6 10 6 11 10 11 6 10 6 10 10 10 11 10 11 14 13 14 13 12 13 12 11 12 13 12 13 15 14 15 12 11 12 1 1 18 5 5 17 14 15 16 5 5 17 16 16 19 14 15 16 16 19 22 18 18 21 17 17 20 18 18 21 19 20 23 17 17 20 3 3 26 0 0 25 18 21 24 0 0 25 12 22 27 18 21 24 3 3 26 4 4 28 0 0 25 4 4 28 2 2 23 0 0 25 17 23 30 19 23 30 13 23 29 19 23 30 15 23 31 13 23 29 18 21 33 12 22 21 19 24 32 12 22 21 15 25 34 19 24 32 14 15 16 16 16 19 13 26 35 16 16 19 17 26 36 13 26 35 3 3 39 18 18 38 5 5 37 18 18 38 16 19 40 5 5 37 0 0 41 1 1 39 12 11 12 1 1 39 14 13 42 12 11 12 1 1 45 2 2 44 5 5 43 2 2 44 4 4 46 5 5 43 22 27 49 21 27 48 20 27 47 23 28 47 21 28 48 22 28 49 21 29 52 23 29 51 20 29 50 26 32 55 25 31 54 24 30 53 27 33 58 26 32 57 24 30 56 30 36 58 29 35 57 28 34 59 32 38 54 29 35 55 31 37 53 26 32 57 27 33 58 33 39 59 29 35 57 30 36 58 31 37 56 35 41 62 34 40 61 28 34 60 34 40 61 35 41 62 33 39 60 38 43 65 37 42 64 36 42 63 37 42 64 39 44 66 36 42 63 42 46 69 41 45 68 40 45 67 41 45 68 43 47 70 40 45 67 44 48 73 34 40 72 27 33 71 34 40 72 33 39 74 27 33 71 29 35 77 32 38 76 45 49 75 32 38 76 46 50 78 45 49 75 26 32 79 48 52 80 47 51 79 48 52 80 49 53 80 47 51 79 51 55 83 50 54 82 32 38 81 50 54 82 46 50 84 32 38 81 49 53 80 45 49 75 50 54 85 45 49 75 46 50 78 50 54 85 24 30 88 52 56 87 27 33 86 52 56 87 44 48 89 27 33 86 29 35 77 45 49 75 48 52 80 45 49 75 49 53 80 48 52 80 48 52 91 26 32 90 35 41 62 26 32 90 33 39 60 35 41 62 31 37 93 30 36 92 52 56 87 30 36 92 44 48 89 52 56 87 51 55 83 25 31 81 50 54 82 25 31 81 53 57 84 50 54 82 49 53 80 50 54 85 47 51 79 50 54 85 53 57 94 47 51 79 52 56 96 24 30 53 51 55 95 24 30 53 25 31 54 51 55 95 52 56 96 51 55 95 31 37 53 51 55 95 32 38 54 31 37 53 26 32 79 47 51 79 25 31 97 47 51 79 53 57 94 25 31 97 48 52 91 35 41 62 29 35 90 35 41 62 28 34 60 29 35 90 44 48 73 30 36 71 34 40 72 30 36 71 28 34 74 34 40 72 56 59 100 55 58 99 54 58 98 55 58 99 57 60 99 54 58 98 56 62 103 54 61 102 58 61 101 54 61 102 59 62 104 58 61 101 61 63 107 58 63 106 60 63 105 58 63 106 59 63 108 60 63 105 55 65 99 61 64 109 57 64 99 61 64 109 60 64 109 57 64 99 64 66 112 63 67 111 62 66 110 63 67 111 65 67 113 62 66 110 67 70 115 66 69 114 63 68 2 66 69 114 65 71 5 63 68 2 68 73 118 67 72 117 64 72 116 67 72 117 63 74 119 64 72 116 69 76 121 62 75 112 66 75 120 62 75 112 65 77 122 66 75 120 69 23 124 66 69 114 68 23 123 66 69 114 67 70 115 68 23 123 69 79 125 68 78 121 62 66 110 68 78 121 64 66 112 62 66 110 72 82 128 71 81 127 70 80 126 71 81 127 73 80 129 70 80 126 75 85 132 74 84 131 71 83 130 74 84 131 73 84 133 71 83 130 77 88 136 76 87 135 75 86 134 76 87 135 74 87 137 75 86 134 72 91 140 70 90 139 77 89 138 70 90 139 76 92 141 77 89 138 80 95 144 79 94 143 78 93 142 79 94 143 81 96 145 78 93 142 83 98 147 82 97 146 75 86 134 82 97 146 77 88 136 75 86 134 83 98 150 75 85 149 84 99 148 75 85 149 71 83 151 84 99 148 84 99 153 71 81 127 85 100 152 71 81 127 72 82 128 85 100 152 82 97 155 85 100 140 77 89 154 85 100 140 72 91 138 77 89 154 83 98 147 78 93 156 82 97 146 78 93 156 81 96 157 82 97 146 78 93 159 83 98 150 80 95 158 83 98 150 84 99 148 80 95 158 84 99 153 85 100 152 80 95 160 85 100 152 79 94 161 80 95 160 85 100 163 82 97 163 79 94 162 82 97 163 81 96 162 79 94 162 88 102 100 87 101 98 86 101 99 87 101 98 89 102 99 86 101 99 88 62 103 90 61 101 87 61 102 90 61 101 91 62 104 87 61 102 93 103 107 92 103 105 90 103 106 92 103 105 91 103 108 90 103 106 86 64 99 89 64 99 93 64 109 89 64 99 92 64 109 93 64 109 96 106 112 95 105 110 94 104 111 95 105 110 97 104 113 94 104 111 99 109 115 94 108 2 98 107 114 94 108 2 97 110 5 98 107 114 100 73 118 96 111 116 99 111 117 96 111 116 94 112 119 99 111 117 101 76 121 98 113 120 95 113 112 98 113 120 97 114 122 95 113 112 98 107 114 101 23 124 99 109 115 101 23 124 100 23 123 99 109 115 100 116 121 101 115 125 96 106 112 101 115 125 95 105 110 96 106 112 104 80 129 103 117 127 102 80 126 103 117 127 105 82 128 102 80 126 107 120 132 103 119 130 106 118 131 103 119 130 104 118 133 106 118 131 109 122 136 107 121 134 108 87 135 107 121 134 106 87 137 108 87 135 105 125 140 109 124 138 102 123 139 109 124 138 108 126 141 102 123 139 112 129 142 111 128 145 110 127 144 111 128 145 113 130 143 110 127 144 115 132 147 107 121 134 114 131 146 107 121 134 109 122 136 114 131 146 115 132 150 116 133 148 107 120 149 116 133 148 103 119 151 107 120 149 116 133 153 117 134 152 103 117 127 117 134 152 105 82 128 103 117 127 114 131 155 109 124 154 117 134 140 109 124 154 105 125 138 117 134 140 115 132 147 114 131 146 112 129 156 114 131 146 111 128 157 112 129 156 116 133 148 115 132 150 110 127 158 115 132 150 112 129 159 110 127 158 116 133 153 110 127 160 117 134 152 110 127 160 113 130 161 117 134 152 111 128 162 114 131 163 113 130 162 114 131 163 117 134 163 113 130 162 120 137 166 119 136 165 118 135 164 123 140 165 122 139 166 121 138 164 125 142 169 123 140 168 124 141 167 123 140 168 121 138 170 124 141 167 127 144 173 126 143 172 119 136 171 126 143 172 118 135 172 119 136 171 126 147 172 127 146 173 124 145 167 127 146 173 125 148 169 124 145 167 124 145 176 121 149 175 126 147 174 121 149 175 118 150 175 126 147 174 127 152 173 119 136 171 125 151 169 119 136 171 123 140 168 125 151 169 122 139 166 123 140 165 120 137 166 123 140 165 119 136 165 120 137 166 121 138 164 122 139 166 118 135 164 122 139 166 120 137 166 118 135 164 130 154 179 129 153 178 128 153 177 129 153 178 131 155 180 128 153 177 134 157 183 133 156 182 132 156 181 133 156 182 135 157 184 132 156 181 134 158 187 130 158 186 133 158 185 130 158 186 128 158 188 133 158 185 132 159 191 135 159 190 129 159 189 135 159 190 131 159 192 129 159 189 138 162 195 137 161 194 136 160 193 141 165 194 140 164 197 139 163 196 138 162 195 142 166 198 137 161 194 142 166 198 143 167 199 137 161 194 140 164 197 141 165 194 144 168 198 141 165 194 145 169 199 144 168 198 139 171 202 140 164 201 136 170 200 140 164 201 138 172 203 136 170 200 140 164 206 144 168 205 138 172 204 144 168 205 142 173 207 138 172 204 147 174 210 142 173 209 146 174 208 142 173 209 144 168 211 146 174 208 141 176 194 137 176 194 145 175 199 137 176 194 143 177 199 145 175 199 136 23 193 137 23 194 139 23 196 137 23 194 141 23 194 139 23 196 146 179 214 144 168 213 148 178 212 144 168 213 145 169 215 148 178 212 143 167 218 142 166 217 149 180 216 142 166 217 147 180 219 149 180 216 145 175 222 143 177 221 148 181 220 143 177 221 149 182 223 148 181 220 152 183 177 151 183 180 150 183 179 151 183 180 153 183 178 150 183 179 156 185 181 155 184 184 154 184 183 155 184 184 157 185 182 154 184 183 156 186 185 154 158 188 152 158 187 154 158 188 151 187 186 152 158 187 155 159 189 150 159 192 157 159 191 150 159 192 153 159 190 157 159 191 160 190 195 159 189 193 158 188 194 163 193 194 162 192 196 161 191 197 160 190 195 158 188 194 164 194 198 158 188 194 165 195 199 164 194 198 161 191 197 166 196 198 163 193 194 166 196 198 167 197 199 163 193 194 162 199 202 159 198 200 161 191 201 159 198 200 160 200 203 161 191 201 161 191 206 160 200 204 166 196 205 160 200 204 164 201 207 166 196 205 166 196 211 164 201 209 168 174 208 164 201 209 169 174 210 168 174 208 163 176 194 167 175 199 158 176 194 167 175 199 165 177 199 158 176 194 159 23 193 162 23 196 158 23 194 162 23 196 163 23 194 158 23 194 167 197 215 166 196 213 170 202 212 166 196 213 168 203 214 170 202 212 165 195 218 171 204 216 164 194 217 171 204 216 169 204 219 164 194 217 167 175 222 170 205 220 165 177 221 170 205 220 171 206 223 165 177 221</p>
				</polylist>
			</mesh>
		</geometry>
	</library_geometries>
	<library_controllers>
		<controller id="ID19">
			<skin source="#ID20">
				<bind_shape_matrix>1 0 0 0 0 1 0 0 0 0 1 0 0 0 0 1</bind_shape_matrix>
				<source id="ID28">
					<Name_array id="ID29" count="11">joint1 joint11 joint9 joint10 joint7 joint8 joint2 joint5 joint6 joint3 joint4</Name_array>
					<technique_common>
						<accessor count="11" source="#ID29">
							<param name="JOINT" type="Name"/>
						</accessor>
					</technique_common>
				</source>
				<source id="ID30">
					<float_array id="ID31" count="2" digits="2490374">0 1</float_array>
					<technique_common>
						<accessor count="2" source="#ID31">
							<param name="WEIGHT" type="float"/>
						</accessor>
					</technique_common>
				</source>
				<source id="ID32">
					<float_array id="ID33" count="176" digits="2490374">1 0 0 -0 0 1 0 0 0 0 1 0 0 0 0 1 1 0 0 0 0 1 0 -14.2 0 0 1 0.55 0 0 0 1 1 0 0 -4 0 1 0 -12.75 -4.85723e-17 -1.38778e-17 1 0.75 0 0 0 1 1 0 0 -7.65 0 1 0 -1.75 0 0 1 2.2 0 0 0 1 1 0 0 4 -0 1 0 -12.75 4.85723e-17 -1.38778e-17 1 0.75 0 0 0 1 1 0 0 7.65 0 1 0 -1.75 0 0 1 2.2 0 0 0 1 1 0 -1.73472e-18 0 -6.01853e-36 1 3.46945e-18 0 -1.73472e-18 0 1 0 0 0 0 1 1 0 0 -2.8 0 1 0 5.4 0 0 1 0.15 0 0 0 1 1 0 0 -2.8 0 1 0 17.2 0 0 1 -1.95 0 0 0 1 1 0 0 2.8 0 1 0 5.4 0 0 1 0.15 0 0 0 1 1 0 0 2.8 0 1 0 17.2 0 0 1 -1.95 0 0 0 1</float_array>
					<technique_common>
						<accessor count="11" source="#ID33" stride="16">
							<param name="TRANSFORM" type="float4x4"/>
						</accessor>
					</technique_common>
				</source>
				<joints>
					<input semantic="JOINT" source="#ID28"/>
					<input semantic="INV_BIND_MATRIX" source="#ID32"/>
				</joints>
				<vertex_weights count="172">
					<input offset="0" semantic="JOINT" source="#ID28" set="0"/>
					<input offset="1" semantic="WEIGHT" source="#ID30" set="0"/>
					<vcount>1 1 1 1 1 1 1 1 1 1 1 1 1 1 1 1 1 1 1 1 1 1 1 1 1 1 1 1 1 1 1 1 1 1 1 1 1 1 1 1 1 1 1 1 1 1 1 1 1 1 1 1 1 1 1 1 1 1 1 1 1 1 1 1 1 1 1 1 1 1 1 1 1 1 1 1 1 1 1 1 1 1 1 1 1 1 1 1 1 1 1 1 1 1 1 1 1 1 1 1 1 1 1 1 1 1 1 1 1 1 1 1 1 1 1 1 1 1 1 1 1 1 1 1 1 1 1 1 1 1 1 1 1 1 1 1 1 1 1 1 1 1 1 1 1 1 1 1 1 1 1 1 1 1 1 1 1 1 1 1 1 1 1 1 1 1 1 1 1 1 1 1</vcount>
					<v>0 1 0 1 0 1 0 1 0 1 0 1 0 1 0 1 0 1 0 1 0 1 0 1 0 1 0 1 0 1 0 1 0 1 0 1 0 1 0 1 1 1 1 1 1 1 1 1 1 1 1 1 1 1 1 1 1 1 1 1 1 1 1 1 1 1 1 1 1 1 1 1 1 1 1 1 1 1 1 1 1 1 1 1 1 1 1 1 1 1 1 1 1 1 1 1 1 1 1 1 1 1 1 1 1 1 1 1 2 1 2 1 2 1 2 1 2 1 2 1 2 1 2 1 2 1 2 1 2 1 2 1 2 1 2 1 2 1 2 1 3 1 3 1 3 1 3 1 3 1 3 1 3 1 3 1 3 1 3 1 3 1 3 1 3 1 3 1 3 1 3 1 4 1 4 1 4 1 4 1 4 1 4 1 4 1 4 1 4 1 4 1 4 1 4 1 4 1 4 1 4 1 4 1 5 1 5 1 5 1 5 1 5 1 5 1 5 1 5 1 5 1 5 1 5 1 5 1 5 1 5 1 5 1 5 1 6 1 6 1 6 1 6 1 6 1 6 1 6 1 6 1 6 1 6 1 7 1 7 1 7 1 7 1 7 1 7 1 7 1 7 1 8 1 8 1 8 1 8 1 8 1 8 1 8 1 8 1 8 1 8 1 8 1 8 1 8 1 8 1 9 1 9 1 9 1 9 1 9 1 9 1 9 1 9 1 10 1 10 1 10 1 10 1 10 1 10 1 10 1 10 1 10 1 10 1 10 1 10 1 10 1 10 1</v>
				</vertex_weights>
			</skin>
		</controller>
	</library_controllers>
	<library_visual_scenes>
		<visual_scene id="ID5">
			<node id="ID6" name="Mesh">
				<translate sid="translate">0 0 -0</translate>
				<rotate sid="rotateY">0 1 0 -0</rotate>
				<rotate sid="rotateX">1 0 0 0</rotate>
				<rotate sid="rotateZ">0 0 1 -0</rotate>
				<scale sid="scale">1 1 1</scale>
				<instance_controller url="#ID19">
					<skeleton>#ID5</skeleton>
					<bind_material>
						<technique_common>
							<instance_material symbol="Material1" target="#ID1">
								<bind_vertex_input semantic="UVSET0" input_semantic="TEXCOORD" input_set="0"/>
							</instance_material>
						</technique_common>
					</bind_material>
				</instance_controller>
			</node>
			<node id="ID7" name="Armature">
				<translate sid="translate">0 0 -0</translate>
				<rotate sid="rotateY">0 1 0 -0</rotate>
				<rotate sid="rotateX">1 0 0 0</rotate>
				<rotate sid="rotateZ">0 0 1 -0</rotate>
				<scale sid="scale">1 1 1</scale>
				<node id="ID8" name="Bone000" sid="joint1" type="JOINT">
					<translate sid="translate">0 0 -0</translate>
					<rotate sid="rotateY">0 1 0 -0</rotate>
					<rotate sid="rotateX">1 0 0 0</rotate>
					<rotate sid="rotateZ">0 0 1 -0</rotate>
					<scale sid="scale">1 1 1</scale>
					<node id="ID9" name="Bone006" sid="joint2" type="JOINT">
						<translate sid="translate">0 0 -0</translate>
						<rotate sid="rotateY">0 1 0 -0</rotate>
						<rotate sid="rotateX">1 0 0 0</rotate>
						<rotate sid="rotateZ">0 0 1 -0</rotate>
						<scale sid="scale">1 1 1</scale>
						<node id="ID10" name="Bone009" sid="joint3" type="JOINT">
							<translate sid="translate">-2.8 -5.4 -0.15</translate>
							<rotate sid="rotateY">0 1 0 -0</rotate>
							<rotate sid="rotateX">1 0 0 0</rotate>
							<rotate sid="rotateZ">0 0 1 -0</rotate>
							<scale sid="scale">1 1 1</scale>
							<node id="ID11" name="Bone010" sid="joint4" type="JOINT">
								<translate sid="translate">0 -11.8 2.1</translate>
								<rotate sid="rotateY">0 1 0 -0</rotate>
								<rotate sid="rotateX">1 0 0 0</rotate>
								<rotate sid="rotateZ">0 0 1 -0</rotate>
								<scale sid="scale">1 1 1</scale>
							</node>
						</node>
						<node id="ID12" name="Bone007" sid="joint5" type="JOINT">
							<translate sid="translate">2.8 -5.4 -0.15</translate>
							<rotate sid="rotateY">0 1 0 -0</rotate>
							<rotate sid="rotateX">1 0 0 0</rotate>
							<rotate sid="rotateZ">0 0 1 -0</rotate>
							<scale sid="scale">1 1 1</scale>
							<node id="ID13" name="Bone008" sid="joint6" type="JOINT">
								<translate sid="translate">0 -11.8 2.1</translate>
								<rotate sid="rotateY">0 1 0 -0</rotate>
								<rotate sid="rotateX">1 0 0 0</rotate>
								<rotate sid="rotateZ">0 0 1 -0</rotate>
								<scale sid="scale">1 1 1</scale>
							</node>
						</node>
					</node>
					<node id="ID14" name="Bone004" sid="joint7" type="JOINT">
						<translate sid="translate">-4 12.75 -0.75</translate>
						<rotate sid="rotateY">0 1 0 -0</rotate>
						<rotate sid="rotateX">1 0 0 0</rotate>
						<rotate sid="rotateZ">0 0 1 -0</rotate>
						<scale sid="scale">1 1 1</scale>
						<node id="ID15" name="Bone005" sid="joint8" type="JOINT">
							<translate sid="translate">-3.65 -11 -1.45</translate>
							<rotate sid="rotateY">0 1 0 -0</rotate>
							<rotate sid="rotateX">1 0 0 0</rotate>
							<rotate sid="rotateZ">0 0 1 -0</rotate>
							<scale sid="scale">1 1 1</scale>
						</node>
					</node>
					<node id="ID16" name="Bone002" sid="joint9" type="JOINT">
						<translate sid="translate">4 12.75 -0.75</translate>
						<rotate sid="rotateY">0 1 0 -0</rotate>
						<rotate sid="rotateX">1 0 0 0</rotate>
						<rotate sid="rotateZ">0 0 1 -0</rotate>
						<scale sid="scale">1 1 1</scale>
						<node id="ID17" name="Bone003" sid="joint10" type="JOINT">
							<translate sid="translate">3.65 -11 -1.45</translate>
							<rotate sid="rotateY">0 1 0 -0</rotate>
							<rotate sid="rotateX">1 0 0 0</rotate>
							<rotate sid="rotateZ">0 0 1 -0</rotate>
							<scale sid="scale">1 1 1</scale>
						</node>
					</node>
					<node id="ID18" name="Bone001" sid="joint11" type="JOINT">
						<translate sid="translate">0 14.2 -0.55</translate>
						<rotate sid="rotateY">0 1 0 -0</rotate>
						<rotate sid="rotateX">1 0 0 0</rotate>
						<rotate sid="rotateZ">0 0 1 -0</rotate>
						<scale sid="scale">1 1 1</scale>
					</node>
				</node>
			</node>
		</visual_scene>
	</library_visual_scenes>
	<scene>
		<instance_visual_scene url="#ID5"/>
	</scene>
</COLLADA>
