# Blender 5.0.0
# www.blender.org
mtllib Aya-NoJacket.mtl
o Aya-NoJacket
v -0.189436 2.701355 -0.167632
v -0.370179 2.800233 -0.265482
v 0.000000 2.665478 -0.263627
v 0.189436 2.701355 -0.167632
v -0.070028 2.780797 -0.158321
v -0.120046 2.812600 -0.196903
v -0.120046 2.899318 -0.122914
v -0.240093 2.901605 -0.172843
v -0.070027 3.120037 -0.132899
v 0.120046 2.899318 -0.122914
v 0.070027 3.120037 -0.132899
v 0.070028 2.780797 -0.158321
v -0.386833 2.823547 -0.440230
v -0.070026 3.189060 -0.109750
v -0.260100 3.253123 -0.196888
v -0.395151 2.856679 -0.284946
v 0.120046 2.812600 -0.196903
v 0.070026 3.189060 -0.109750
v -0.350135 3.075113 -0.245001
v 0.240093 2.901605 -0.172843
v -0.260100 3.193632 -0.209595
v 0.370179 2.800233 -0.265482
v -0.080031 3.261553 -0.121796
v -0.060023 3.201339 -0.159222
v -0.240093 3.265399 -0.246361
v 0.260100 3.253123 -0.196888
v 0.080031 3.261553 -0.121796
v 0.090001 3.558834 -0.018012
v 0.260100 3.193632 -0.209595
v 0.060023 3.201339 -0.159222
v 0.220004 3.537915 -0.080388
v 0.240093 3.265399 -0.246361
v -0.090001 3.558834 -0.018012
v -0.260101 3.340112 -0.255632
v -0.220004 3.537915 -0.080388
v 0.000000 2.748218 -0.540017
v -0.228247 2.722682 -0.541366
v 0.130000 3.680845 0.042148
v -0.130000 3.680845 0.042148
v 0.395151 2.856679 -0.284946
v 0.260101 3.340112 -0.255632
v 0.350135 3.075113 -0.245001
v -0.270105 3.242742 -0.407483
v -0.395153 2.904875 -0.462863
v -0.220001 3.802129 -0.019374
v -0.280002 3.682184 -0.008836
v 0.280002 3.682184 -0.008836
v 0.220001 3.802129 -0.019374
v -0.260101 3.303602 -0.424723
v -0.320002 3.561149 -0.180822
v -0.330001 3.764053 -0.063552
v 0.386833 2.823547 -0.440230
v -0.350002 3.676712 -0.099245
v -0.280109 3.303603 -0.424725
v 0.330001 3.764053 -0.063552
v 0.350002 3.676712 -0.099245
v 0.320002 3.561149 -0.180822
v 0.270105 3.242742 -0.407483
v 0.395153 2.904875 -0.462863
v 0.260101 3.303602 -0.424723
v -0.220085 2.881303 -0.604004
v 0.000000 3.944459 -0.135273
v 0.280109 3.303603 -0.424725
v 0.340002 3.804083 -0.243022
v -0.210081 3.267754 -0.516404
v -0.280002 3.571254 -0.416032
v -0.340002 3.804083 -0.243022
v -0.218389 3.448771 -0.476242
v -0.290001 4.031074 -0.221264
v -0.385366 3.943179 -0.354704
v 0.228247 2.722682 -0.541366
v -0.210081 3.308175 -0.524567
v 0.280002 3.571254 -0.416032
v 0.120000 3.988616 -0.173338
v -0.120000 3.988616 -0.173338
v 0.290001 4.031074 -0.221264
v -0.230089 2.981214 -0.599465
v 0.385366 3.943179 -0.354704
v -0.200076 3.316338 -0.484175
v 0.218389 3.448771 -0.476242
v 0.210081 3.267754 -0.516404
v 0.220085 2.881303 -0.604004
v 0.210081 3.308175 -0.524567
v 0.200076 3.316338 -0.484175
v 0.230089 2.981214 -0.599465
v -0.373860 4.005708 -0.238134
v 0.373860 4.005708 -0.238134
v 0.230001 4.091534 -0.282447
v -0.230001 4.091534 -0.282447
v -0.240001 3.769300 -0.561844
v 0.120000 4.101388 -0.284144
v -0.120000 4.101388 -0.284144
v 0.240001 3.769300 -0.561844
v -0.308743 4.159756 -0.284811
v 0.308743 4.159756 -0.284811
v -0.200001 3.904206 -0.544505
v -0.246048 4.193023 -0.444816
v 0.200001 3.904206 -0.544505
v 0.246048 4.193023 -0.444816
v -0.139986 4.200386 -0.412576
v 0.139986 4.200386 -0.412576
v -0.314226 4.168025 -0.497331
v 0.314226 4.168025 -0.497331
v -0.120001 4.111493 -0.519358
v 0.120001 4.111493 -0.519358
v -0.089871 4.219510 -0.485782
v 0.089871 4.219510 -0.485782
v -0.150667 4.311007 -0.133457
v -0.120034 4.326299 -0.224366
v -0.150729 3.983104 -0.086726
v 0.000000 4.413434 -0.088549
v 0.030008 4.401375 -0.128005
v -0.030008 4.401375 -0.128005
v -0.205057 4.381527 -0.317318
v 0.120034 4.326299 -0.224366
v 0.169418 4.306844 -0.213323
v 0.119345 3.988925 -0.167113
v 0.000000 4.237484 -0.199803
v 0.000000 4.541664 -0.125121
v -0.060018 4.692720 -0.107766
v -0.060296 4.682348 -0.114758
v -0.160622 4.562158 -0.116179
v -0.080023 4.687467 -0.112503
v -0.055433 4.677680 -0.108263
v -0.042999 4.675606 -0.100015
v -0.110031 4.542964 -0.100153
v 0.000000 4.663028 -0.101251
v 0.070021 4.706915 -0.123509
v 0.080023 4.687467 -0.112503
v 0.110031 4.542964 -0.100153
v 0.042999 4.675606 -0.100015
v -0.155043 4.406947 -0.213435
v -0.060640 4.328896 -0.174412
v -0.150651 4.399823 -0.158008
v -0.190051 4.392749 -0.197688
v -0.185356 4.395248 -0.197831
v -0.180050 4.390473 -0.337807
v -0.180050 4.497058 -0.213009
v 0.180050 4.390473 -0.337807
v 0.205057 4.381527 -0.317318
v 0.155043 4.406947 -0.213435
v 0.185356 4.395248 -0.197831
v 0.180050 4.497058 -0.213009
v -0.010003 4.751842 -0.125795
v 0.010003 4.751842 -0.125795
v -0.180640 4.500180 -0.153102
v -0.235065 4.497837 -0.198024
v 0.059745 4.724387 -0.124399
v 0.059608 4.727610 -0.134577
v 0.150041 4.628664 -0.184640
v 0.000000 4.622574 -0.109205
v 0.089888 4.227264 -0.318928
v -0.089888 4.227264 -0.318928
v 0.015004 4.740820 -0.145274
v 0.059474 4.750282 -0.155761
v 0.064540 4.728963 -0.144664
v 0.105028 4.737385 -0.115043
v 0.000000 4.762347 -0.116319
v -0.015004 4.740820 -0.145274
v -0.105028 4.737385 -0.115043
v -0.064540 4.728963 -0.144664
v -0.139759 4.649277 -0.173158
v -0.190606 4.690907 -0.142763
v -0.235066 4.624451 -0.169407
v 0.000000 4.721370 -0.134265
v 0.139759 4.649277 -0.173158
v 0.209514 4.749759 -0.165732
v 0.235066 4.624451 -0.169407
v 0.090025 4.280653 -0.332222
v -0.090025 4.280653 -0.332222
v 0.235065 4.497837 -0.198024
v 0.105030 4.853037 -0.201065
v -0.105030 4.853037 -0.201065
v 0.000000 4.868532 -0.191835
v -0.180584 4.807079 -0.218794
v -0.260073 4.526551 -0.319690
v 0.260073 4.526551 -0.319690
v 0.219524 4.795005 -0.258184
v 0.100028 4.358964 -0.366263
v -0.260075 4.648693 -0.280831
v 0.055015 4.856472 -0.231292
v 0.260075 4.648693 -0.280831
v -0.055015 4.856472 -0.231292
v -0.175048 4.799224 -0.273455
v 0.190053 4.386319 -0.417733
v 0.270075 4.428332 -0.379810
v 0.080022 4.302816 -0.483606
v -0.100028 4.358964 -0.366263
v -0.079901 4.253191 -0.469501
v 0.079901 4.253191 -0.469501
v -0.220061 4.540228 -0.345429
v 0.290081 4.548135 -0.385900
v 0.220061 4.540228 -0.345429
v 0.175048 4.799224 -0.273455
v 0.229502 4.672605 -0.302046
v -0.080022 4.302816 -0.483606
v -0.230638 4.611160 -0.329035
v -0.290080 4.640584 -0.340515
v -0.190053 4.386319 -0.417733
v -0.270075 4.428332 -0.379810
v 0.250069 4.547097 -0.405880
v 0.300083 4.486677 -0.412829
v 0.290080 4.640584 -0.340515
v 0.240067 4.809789 -0.359146
v -0.290081 4.548135 -0.385900
v -0.175048 4.888878 -0.378191
v -0.240067 4.809789 -0.359146
v -0.250069 4.547097 -0.405880
v -0.300083 4.486677 -0.412829
v 0.039500 4.949039 -0.376236
v 0.310086 4.534518 -0.455326
v 0.175048 4.888878 -0.378191
v -0.280077 4.724208 -0.464979
v -0.310086 4.534518 -0.455326
v 0.240066 4.380090 -0.537627
v 0.280077 4.724208 -0.464979
v 0.200055 4.288681 -0.563025
v 0.000000 4.028066 -0.569807
v -0.240066 4.380090 -0.537627
v 0.230064 4.821450 -0.520007
v 0.100027 4.287123 -0.593005
v 0.190053 4.013409 -0.659213
v 0.120033 4.016006 -0.609269
v 0.000000 4.245632 -0.620943
v -0.120033 4.016006 -0.609269
v -0.100027 4.287123 -0.593005
v -0.190053 4.013409 -0.659213
v -0.200055 4.288681 -0.563025
v -0.230064 4.821450 -0.520007
v 0.220061 4.455287 -0.631599
v -0.220061 4.455287 -0.631599
v 0.000000 4.886663 -0.613480
v 0.190053 4.704880 -0.644301
v -0.190053 4.704880 -0.644301
v 0.000000 4.470066 -0.732533
v 0.000000 4.710712 -0.724738
v -2.109299 3.939382 -0.255438
v -2.163737 4.125734 -0.261749
v -2.150440 3.965267 -0.194396
v -2.182667 4.123266 -0.201486
v -2.152767 4.125565 -0.201919
v -2.120551 3.967561 -0.194828
v -2.079417 3.941675 -0.255870
v -2.050186 3.944597 -0.296286
v -2.123711 4.128639 -0.252330
v -2.094647 4.131714 -0.302742
v -2.014282 4.137211 -0.263912
v -1.966681 4.040504 -0.256128
v -1.985387 4.140442 -0.324319
v -1.822476 3.991294 -0.249132
v -2.069867 4.231274 -0.151602
v -2.067256 4.201080 -0.132101
v -2.079231 4.220706 -0.161617
v -2.087346 4.199708 -0.141808
v -1.993627 4.147295 -0.174074
v -1.996226 4.177493 -0.193576
v -1.938990 4.081865 -0.205928
v -1.828189 4.052152 -0.318121
v -1.954029 4.159849 -0.144501
v -1.958328 4.210119 -0.173669
v -1.823305 3.992074 -0.299111
v -1.826695 4.050748 -0.228159
v -1.832003 4.120475 -0.227015
v -1.833169 4.121564 -0.296985
v -1.787446 4.099283 -0.310694
v -1.789348 4.013447 -0.314831
v -1.779569 4.037152 -0.232756
v -1.778504 4.115162 -0.234777
v -1.218768 4.004792 -0.251197
v -1.232952 4.116628 -0.391487
v -1.235813 3.980861 -0.396871
v -1.219982 4.129512 -0.279874
v -1.073340 4.093774 -0.400219
v -1.061532 4.000574 -0.283312
v -1.017375 3.977279 -0.421845
v -0.848168 4.148904 -0.303347
v -0.936333 3.987841 -0.423954
v -0.846896 4.116688 -0.407046
v -0.826867 4.002434 -0.422353
v -0.830014 4.017077 -0.281407
v -0.829914 3.991797 -0.250147
v -0.830576 3.971598 -0.447309
v -0.853059 4.179739 -0.276986
v -0.853878 4.141969 -0.436852
v -0.505532 4.153472 -0.276038
v -0.358767 3.970160 -0.479033
v -0.559855 4.181565 -0.473330
v -0.547902 4.032181 -0.478354
v -0.531048 4.208097 -0.349258
v -0.409619 4.144041 -0.519928
v -0.431994 4.215005 -0.385337
v 2.109299 3.939382 -0.255438
v 2.163737 4.125734 -0.261749
v 2.150440 3.965267 -0.194396
v 2.182667 4.123266 -0.201486
v 2.152767 4.125565 -0.201919
v 2.120551 3.967561 -0.194828
v 2.079417 3.941675 -0.255870
v 2.050186 3.944597 -0.296286
v 2.123711 4.128639 -0.252330
v 2.094647 4.131714 -0.302742
v 2.014282 4.137211 -0.263912
v 1.966681 4.040504 -0.256128
v 1.985387 4.140442 -0.324319
v 1.822476 3.991294 -0.249132
v 2.069867 4.231274 -0.151602
v 2.067256 4.201080 -0.132101
v 2.079231 4.220706 -0.161617
v 2.087346 4.199708 -0.141808
v 1.993627 4.147295 -0.174074
v 1.996226 4.177493 -0.193576
v 1.938990 4.081865 -0.205928
v 1.828189 4.052152 -0.318121
v 1.954029 4.159849 -0.144501
v 1.958328 4.210119 -0.173669
v 1.823305 3.992074 -0.299111
v 1.826695 4.050748 -0.228159
v 1.832003 4.120475 -0.227015
v 1.833169 4.121564 -0.296985
v 1.787446 4.099283 -0.310694
v 1.789348 4.013447 -0.314831
v 1.779569 4.037152 -0.232756
v 1.778504 4.115162 -0.234777
v 1.218768 4.004792 -0.251197
v 1.232952 4.116628 -0.391487
v 1.235813 3.980861 -0.396871
v 1.219982 4.129512 -0.279874
v 1.073340 4.093774 -0.400219
v 1.061532 4.000574 -0.283312
v 1.017375 3.977279 -0.421845
v 0.848168 4.148904 -0.303347
v 0.936333 3.987841 -0.423954
v 0.846896 4.116688 -0.407046
v 0.826867 4.002434 -0.422353
v 0.830014 4.017077 -0.281407
v 0.829914 3.991797 -0.250147
v 0.830576 3.971598 -0.447309
v 0.853059 4.179739 -0.276986
v 0.853878 4.141969 -0.436852
v 0.505532 4.153472 -0.276038
v 0.358767 3.970160 -0.479033
v 0.559855 4.181565 -0.473330
v 0.547902 4.032181 -0.478354
v 0.531048 4.208097 -0.349258
v 0.409619 4.144041 -0.519928
v 0.431994 4.215005 -0.385337
v -0.626555 0.315168 -0.203689
v -0.590528 0.522910 -0.294378
v -0.452623 0.734998 -0.226062
v -0.342343 0.491493 -0.294430
v -0.449916 0.319417 -0.180593
v -0.631866 0.311441 -0.366368
v -0.342650 0.319353 -0.285496
v -0.390571 0.315026 -0.434474
v -0.538906 0.311383 -0.457278
v -0.591995 0.511453 -0.413808
v -0.344052 0.478127 -0.433770
v -0.483770 0.489989 -0.493452
v -0.470522 1.759580 -0.270042
v -0.327916 1.668531 -0.183461
v -0.483890 1.694392 -0.450507
v -0.152840 1.720475 -0.279415
v -0.166575 1.659404 -0.489589
v -0.346359 1.612479 -0.574593
v -0.325937 1.700626 -0.147995
v -0.464434 1.906079 -0.230246
v -0.302566 1.889478 -0.145044
v -0.126897 1.864531 -0.240203
v -0.421620 1.965396 -0.393808
v -0.429395 2.355358 -0.236339
v -0.259457 2.237421 -0.138036
v -0.136074 1.927662 -0.472216
v -0.064272 2.209699 -0.243764
v -0.296356 2.017895 -0.469830
v -0.425184 2.348561 -0.406425
v -0.270694 2.235201 -0.507938
v -0.070998 2.203139 -0.443517
v -0.485714 0.013360 0.210169
v -0.484472 0.133420 0.180164
v -0.330693 0.013367 0.085942
v -0.340224 0.133425 0.075550
v -0.640655 0.013372 0.074156
v -0.630190 0.133432 0.064517
v -0.497841 0.193462 0.009480
v -0.370531 0.133444 -0.175844
v -0.610580 0.013391 -0.184947
v -0.360613 0.013387 -0.175449
v -0.610503 0.133449 -0.184973
v -0.409625 0.323537 -0.197385
v -0.569606 0.323540 -0.203473
v -0.352749 0.183481 -0.375369
v -0.342862 0.013400 -0.374960
v -0.612830 0.013407 -0.385229
v -0.383429 0.323549 -0.356548
v -0.602720 0.183489 -0.384882
v -0.583404 0.323554 -0.364152
v -0.479928 0.323557 -0.450301
v -0.478580 0.013411 -0.490219
v -0.478469 0.183492 -0.490252
v 0.626555 0.315168 -0.203689
v 0.590528 0.522910 -0.294378
v 0.452623 0.734998 -0.226062
v 0.342343 0.491493 -0.294430
v 0.449916 0.319417 -0.180593
v 0.631866 0.311441 -0.366368
v 0.342650 0.319353 -0.285496
v 0.390571 0.315026 -0.434474
v 0.538906 0.311383 -0.457278
v 0.591995 0.511453 -0.413808
v 0.344052 0.478127 -0.433770
v 0.483770 0.489989 -0.493452
v 0.470522 1.759580 -0.270042
v 0.327916 1.668531 -0.183461
v 0.483890 1.694392 -0.450507
v 0.152840 1.720475 -0.279415
v 0.166575 1.659404 -0.489589
v 0.346359 1.612479 -0.574593
v 0.325937 1.700626 -0.147995
v 0.464434 1.906079 -0.230246
v 0.302566 1.889478 -0.145044
v 0.126897 1.864531 -0.240203
v 0.421620 1.965396 -0.393808
v 0.429395 2.355358 -0.236339
v 0.259457 2.237421 -0.138036
v 0.136074 1.927662 -0.472216
v 0.064272 2.209699 -0.243764
v 0.296356 2.017895 -0.469830
v 0.425184 2.348561 -0.406425
v 0.270694 2.235201 -0.507938
v 0.070998 2.203139 -0.443517
v 0.485714 0.013360 0.210169
v 0.484472 0.133420 0.180164
v 0.330693 0.013367 0.085942
v 0.340224 0.133425 0.075550
v 0.640655 0.013372 0.074156
v 0.630190 0.133432 0.064517
v 0.497841 0.193462 0.009480
v 0.370531 0.133444 -0.175844
v 0.610580 0.013391 -0.184947
v 0.360613 0.013387 -0.175449
v 0.610503 0.133449 -0.184973
v 0.409625 0.323537 -0.197385
v 0.569606 0.323540 -0.203473
v 0.352749 0.183481 -0.375369
v 0.342862 0.013400 -0.374960
v 0.612830 0.013407 -0.385229
v 0.383429 0.323549 -0.356548
v 0.602720 0.183489 -0.384882
v 0.583404 0.323554 -0.364152
v 0.479928 0.323557 -0.450301
v 0.478580 0.013411 -0.490219
v 0.478469 0.183492 -0.490252
vn 0.0270 0.0214 0.9994
vn -0.8191 -0.0326 0.5728
vn -0.0000 -0.3390 0.9408
vn -0.0270 0.0214 0.9994
vn -0.3691 -0.5794 0.7266
vn -0.2040 -0.3726 0.9053
vn -0.2515 -0.2068 0.9455
vn -0.3971 -0.0628 0.9156
vn -0.2016 -0.0962 0.9747
vn 0.2515 -0.2068 0.9455
vn 0.2016 -0.0962 0.9747
vn 0.3691 -0.5794 0.7266
vn -0.9004 -0.1231 -0.4174
vn -0.1449 0.3911 0.9089
vn -0.6053 0.5212 0.6017
vn -0.9187 -0.0815 0.3865
vn 0.2040 -0.3726 0.9053
vn 0.1449 0.3911 0.9089
vn -0.8372 0.2648 0.4785
vn 0.3971 -0.0628 0.9156
vn -0.7526 0.0974 0.6512
vn 0.8191 -0.0326 0.5728
vn -0.3055 -0.4564 0.8357
vn -0.0817 0.4619 0.8832
vn -0.4747 0.6761 0.5635
vn 0.6053 0.5212 0.6017
vn 0.3055 -0.4564 0.8357
vn 0.1542 -0.4137 0.8973
vn 0.7526 0.0974 0.6512
vn 0.0817 0.4619 0.8832
vn 0.5245 -0.4569 0.7184
vn 0.4747 0.6761 0.5635
vn -0.1542 -0.4137 0.8973
vn -0.9279 -0.2433 0.2827
vn -0.5245 -0.4569 0.7184
vn -0.0000 -0.3189 -0.9478
vn -0.3010 -0.1674 -0.9388
vn 0.1444 -0.0490 0.9883
vn -0.1444 -0.0490 0.9883
vn 0.9187 -0.0815 0.3865
vn 0.9279 -0.2433 0.2827
vn 0.8372 0.2648 0.4785
vn -0.9698 0.1454 -0.1960
vn -0.9050 0.0410 -0.4234
vn -0.2375 0.4737 0.8481
vn -0.5376 -0.1765 0.8245
vn 0.5376 -0.1765 0.8245
vn 0.2375 0.4737 0.8481
vn -0.6091 0.7866 -0.1015
vn -0.9258 -0.3295 0.1852
vn -0.7938 0.2589 0.5503
vn 0.9004 -0.1231 -0.4174
vn -0.9352 -0.2086 0.2862
vn -0.8104 0.5516 -0.1974
vn 0.7938 0.2589 0.5503
vn 0.9352 -0.2086 0.2862
vn 0.9258 -0.3295 0.1852
vn 0.9698 0.1454 -0.1960
vn 0.9050 0.0410 -0.4234
vn 0.6091 0.7866 -0.1015
vn -0.3024 -0.1721 -0.9375
vn -0.0000 0.6420 0.7667
vn 0.8104 0.5516 -0.1974
vn 0.9976 -0.0694 -0.0036
vn -0.5162 0.0847 -0.8522
vn -0.9305 -0.1673 -0.3258
vn -0.9976 -0.0694 -0.0036
vn -0.5828 -0.1418 -0.8001
vn -0.1520 0.4470 0.8815
vn -0.5825 -0.8119 -0.0387
vn 0.3010 -0.1674 -0.9388
vn -0.3988 0.4934 -0.7730
vn 0.9305 -0.1673 -0.3258
vn 0.0212 0.6729 0.7394
vn -0.0212 0.6729 0.7394
vn 0.1520 0.4470 0.8815
vn -0.3644 0.1574 -0.9178
vn 0.5825 -0.8119 -0.0387
vn -0.2859 0.7238 -0.6280
vn 0.5828 -0.1418 -0.8001
vn 0.5162 0.0847 -0.8522
vn 0.3024 -0.1721 -0.9375
vn 0.3988 0.4934 -0.7730
vn 0.2859 0.7238 -0.6280
vn 0.3644 0.1574 -0.9178
vn -0.3090 -0.2121 0.9271
vn 0.3090 -0.2121 0.9271
vn -0.1729 0.7229 0.6690
vn 0.1729 0.7229 0.6690
vn -0.5241 -0.0607 -0.8495
vn 0.1464 0.6458 0.7493
vn -0.1464 0.6458 0.7493
vn 0.5241 -0.0607 -0.8495
vn 0.2699 0.7603 0.5909
vn -0.2699 0.7603 0.5909
vn -0.2674 0.0955 -0.9588
vn -0.1017 0.9898 -0.0994
vn 0.2674 0.0955 -0.9588
vn 0.1017 0.9898 -0.0994
vn -0.4667 0.8313 0.3019
vn 0.4667 0.8313 0.3019
vn 0.0030 0.6825 -0.7308
vn -0.0030 0.6825 -0.7308
vn -0.0607 0.2614 -0.9633
vn 0.0607 0.2614 -0.9633
vn -0.2955 0.5155 -0.8043
vn 0.2955 0.5155 -0.8043
vn 0.0119 0.3491 0.9370
vn 0.2166 -0.8915 0.3978
vn 0.0151 -0.9306 0.3656
vn -0.0000 -0.3044 0.9525
vn 0.4385 -0.3158 0.8414
vn -0.4385 -0.3158 0.8414
vn -0.8061 -0.3831 -0.4511
vn 0.1166 -0.5838 0.8035
vn 0.5567 -0.0541 0.8290
vn -0.1178 -0.9606 0.2518
vn -0.0000 -0.8919 0.4523
vn 0.0032 -0.0350 0.9994
vn 0.1832 -0.0162 0.9829
vn 0.5883 -0.6895 -0.4226
vn -0.5980 -0.8010 -0.0287
vn -0.8261 0.5635 -0.0010
vn -0.8196 0.5232 -0.2336
vn -0.1397 0.3268 0.9347
vn -0.5067 -0.8619 0.0190
vn 0.6065 -0.7687 0.2030
vn 0.4524 0.5382 0.7111
vn -0.8468 -0.4008 -0.3496
vn -0.2987 0.9515 -0.0739
vn 0.9163 -0.1403 -0.3751
vn 0.4144 0.3521 0.8392
vn 0.8420 -0.4656 0.2724
vn 0.2277 -0.0485 0.9725
vn -0.5749 -0.2199 0.7881
vn -0.2549 -0.3131 0.9149
vn -0.5732 -0.7440 -0.3434
vn 0.5745 -0.0375 0.8177
vn 0.5803 -0.7246 -0.3718
vn 0.8308 -0.3544 -0.4291
vn 0.0935 -0.1095 0.9896
vn 0.3669 -0.2075 0.9068
vn 0.0534 -0.0678 0.9963
vn -0.5437 0.8180 0.1877
vn 0.5934 0.6957 0.4048
vn 0.3201 -0.1882 0.9285
vn -0.8633 -0.2364 0.4458
vn 0.1991 0.4433 0.8740
vn 0.7867 0.1282 0.6039
vn 0.1070 -0.3251 0.9396
vn -0.0049 -0.0332 0.9994
vn 0.5593 0.3615 0.7460
vn -0.5593 0.3615 0.7460
vn 0.3590 0.0279 0.9329
vn -0.0148 0.5328 0.8461
vn 0.7044 0.2484 0.6649
vn -0.0869 0.0111 0.9962
vn 0.2403 -0.0599 0.9689
vn -0.2467 -0.3207 0.9145
vn -0.1076 -0.1261 0.9862
vn 0.0107 -0.4581 0.8889
vn -0.0621 -0.2222 0.9730
vn -0.4628 0.0071 0.8865
vn -0.6950 0.0602 0.7165
vn 0.0625 0.0369 0.9974
vn 0.2237 -0.2794 0.9338
vn 0.6602 0.2975 0.6896
vn 0.5781 -0.0779 0.8123
vn 0.8721 -0.4729 0.1260
vn -0.8721 -0.4729 0.1260
vn 0.6004 -0.2489 0.7600
vn 0.0823 0.9296 0.3594
vn -0.3727 0.8763 0.3052
vn 0.1584 0.9033 0.3987
vn -0.6937 0.6913 0.2021
vn -0.9156 -0.1258 -0.3819
vn 0.9091 -0.1152 -0.4003
vn 0.7564 0.6111 -0.2331
vn 0.7151 -0.6539 -0.2472
vn -0.9389 0.2718 -0.2112
vn 0.2003 0.8555 0.4774
vn 0.9380 0.1884 -0.2911
vn -0.2182 0.9663 0.1366
vn -0.7230 0.6511 0.2310
vn 0.5923 -0.6897 -0.4166
vn 0.7736 -0.5685 0.2800
vn 0.7117 -0.6360 0.2983
vn -0.7151 -0.6539 -0.2472
vn -0.6495 0.2791 -0.7073
vn 0.6495 0.2791 -0.7073
vn -0.9998 0.0167 0.0086
vn 0.7284 0.6704 0.1413
vn 0.9990 0.0443 0.0003
vn 0.6188 0.7845 0.0397
vn 0.9880 0.1540 0.0097
vn -0.7117 -0.6360 0.2983
vn -0.9833 -0.1652 0.0761
vn -0.7905 -0.1308 0.5983
vn -0.5923 -0.6897 -0.4166
vn -0.7736 -0.5685 0.2800
vn 0.9216 -0.1707 0.3485
vn 0.8649 -0.0773 -0.4960
vn 0.7696 -0.1918 0.6090
vn 0.8150 0.4884 0.3118
vn -0.7284 0.6704 0.1413
vn -0.5117 0.8459 0.1506
vn -0.8150 0.4884 0.3118
vn -0.9251 -0.1929 0.3270
vn -0.8649 -0.0773 -0.4960
vn 0.0965 0.9893 0.1098
vn 0.9412 -0.3021 0.1514
vn 0.5515 0.8209 0.1483
vn -0.9517 0.2476 -0.1815
vn -0.9412 -0.3021 0.1514
vn 0.8674 -0.4697 0.1646
vn 0.9517 0.2476 -0.1815
vn 0.8853 -0.4615 -0.0566
vn -0.0000 -0.9925 -0.1222
vn -0.8674 -0.4697 0.1646
vn 0.7092 0.5993 -0.3714
vn 0.2960 -0.2403 -0.9245
vn 0.1970 -0.9133 -0.3565
vn 0.2297 -0.9628 -0.1424
vn -0.0000 -0.4541 -0.8909
vn -0.2297 -0.9628 -0.1424
vn -0.2960 -0.2403 -0.9245
vn -0.1970 -0.9133 -0.3565
vn -0.8853 -0.4615 -0.0565
vn -0.7092 0.5993 -0.3714
vn 0.6801 -0.1723 -0.7125
vn -0.6801 -0.1723 -0.7125
vn -0.0030 0.8003 -0.5995
vn 0.6225 0.2559 -0.7396
vn -0.6225 0.2559 -0.7396
vn -0.0000 -0.2065 -0.9784
vn -0.0000 0.2741 -0.9617
vn -0.4660 -0.8425 -0.2705
vn -0.6792 0.5216 -0.5164
vn -0.6584 -0.5244 0.5399
vn -0.7649 0.4789 0.4307
vn 0.3175 0.6686 0.6725
vn 0.4539 -0.3543 0.8176
vn 0.2812 -0.7982 0.5327
vn -0.1039 -0.7273 -0.6784
vn 0.2250 0.8658 0.4470
vn -0.3474 0.6160 -0.7070
vn -0.6240 0.6908 0.3651
vn -0.1713 -0.2443 0.9545
vn -0.1044 0.5642 -0.8190
vn 0.2828 -0.7762 0.5634
vn -0.1955 0.9624 0.1886
vn -0.2155 -0.0596 0.9747
vn -0.7539 0.3839 -0.5332
vn -0.9303 -0.2949 0.2181
vn -0.6493 -0.6563 0.3842
vn -0.7279 0.4006 -0.5566
vn -0.0556 -0.6165 0.7854
vn 0.1869 -0.0841 -0.9788
vn 0.2334 -0.1289 0.9638
vn 0.2718 0.9434 0.1898
vn 0.2690 -0.7875 -0.5545
vn 0.0219 -0.2143 0.9765
vn 0.4324 0.5592 0.7074
vn 0.2599 0.7611 -0.5943
vn 0.0007 0.5973 -0.8020
vn -0.0837 -0.6423 -0.7618
vn 0.1603 -0.4915 0.8560
vn 0.1283 0.7549 0.6431
vn 0.0894 -0.5459 0.8330
vn -0.0413 0.6961 -0.7168
vn -0.1021 -0.7409 -0.6638
vn 0.0821 0.8199 0.5666
vn -0.0609 0.6046 -0.7942
vn 0.0811 -0.6393 0.7646
vn 0.0213 -0.7321 -0.6808
vn -0.0687 0.8394 0.5391
vn 0.0541 -0.6995 -0.7126
vn -0.0798 0.6362 -0.7674
vn 0.0486 -0.7128 -0.6997
vn 0.0512 -0.6107 0.7902
vn -0.5518 -0.5082 0.6612
vn -0.5816 -0.6098 -0.5384
vn -0.6299 0.6025 0.4900
vn -0.6990 0.4366 -0.5663
vn -0.0053 0.5438 0.8392
vn -0.2833 -0.6007 -0.7476
vn -0.1631 0.6634 -0.7302
vn -0.1218 -0.1100 -0.9864
vn -0.0455 0.9767 0.2099
vn -0.0072 0.3446 -0.9387
vn 0.1066 0.9941 -0.0191
vn 0.4660 -0.8425 -0.2705
vn 0.6792 0.5216 -0.5164
vn 0.6584 -0.5244 0.5399
vn 0.7649 0.4789 0.4307
vn -0.3175 0.6686 0.6725
vn -0.4539 -0.3543 0.8176
vn -0.2812 -0.7982 0.5327
vn 0.1039 -0.7273 -0.6784
vn -0.2250 0.8658 0.4470
vn 0.3474 0.6160 -0.7070
vn 0.6240 0.6908 0.3651
vn 0.1713 -0.2443 0.9545
vn 0.1044 0.5642 -0.8190
vn -0.2828 -0.7762 0.5634
vn 0.1955 0.9624 0.1886
vn 0.2155 -0.0596 0.9747
vn 0.7539 0.3839 -0.5332
vn 0.9303 -0.2949 0.2181
vn 0.6493 -0.6563 0.3842
vn 0.7279 0.4006 -0.5566
vn 0.0556 -0.6165 0.7854
vn -0.1869 -0.0841 -0.9788
vn -0.2334 -0.1289 0.9638
vn -0.2718 0.9434 0.1898
vn -0.2690 -0.7875 -0.5545
vn -0.0219 -0.2143 0.9765
vn -0.4324 0.5592 0.7074
vn -0.2599 0.7611 -0.5943
vn -0.0007 0.5973 -0.8020
vn 0.0837 -0.6423 -0.7618
vn -0.1603 -0.4915 0.8560
vn -0.1283 0.7549 0.6431
vn -0.0894 -0.5459 0.8330
vn 0.0413 0.6961 -0.7168
vn 0.1021 -0.7409 -0.6638
vn -0.0821 0.8199 0.5666
vn 0.0609 0.6046 -0.7942
vn -0.0811 -0.6393 0.7646
vn -0.0213 -0.7321 -0.6808
vn 0.0687 0.8394 0.5391
vn -0.0541 -0.6995 -0.7126
vn 0.0798 0.6362 -0.7674
vn -0.0486 -0.7128 -0.6997
vn -0.0512 -0.6107 0.7902
vn 0.5518 -0.5082 0.6612
vn 0.5816 -0.6098 -0.5384
vn 0.6299 0.6025 0.4900
vn 0.6990 0.4366 -0.5663
vn 0.0053 0.5438 0.8392
vn 0.2833 -0.6007 -0.7476
vn 0.1631 0.6634 -0.7302
vn 0.1218 -0.1100 -0.9864
vn 0.0455 0.9767 0.2099
vn 0.0072 0.3446 -0.9387
vn -0.1066 0.9941 -0.0191
vn -0.6001 -0.4755 0.6433
vn -0.9539 0.1853 0.2362
vn -0.0237 -0.0195 0.9995
vn 0.8383 -0.0292 0.5444
vn 0.1590 -0.4084 0.8988
vn -0.7764 -0.5199 -0.3562
vn 0.7694 -0.6102 0.1892
vn 0.6585 -0.5314 -0.5329
vn -0.3479 -0.6487 -0.6768
vn -0.9241 -0.0531 -0.3785
vn 0.7352 -0.3441 -0.5840
vn -0.0766 -0.1152 -0.9904
vn -0.9222 0.0235 0.3859
vn -0.0524 -0.3750 0.9255
vn -0.8741 0.1803 -0.4511
vn 0.8887 -0.2189 0.4028
vn 0.8070 -0.0459 -0.5888
vn -0.1088 0.0694 -0.9916
vn -0.0684 -0.4394 0.8957
vn -0.9038 0.0437 0.4258
vn 0.0007 -0.0167 0.9999
vn 0.8563 -0.1791 0.4845
vn -0.8480 0.1409 -0.5109
vn -0.8499 0.0906 0.5190
vn 0.0052 0.0153 0.9999
vn 0.6807 -0.1007 -0.7256
vn 0.8568 -0.1295 0.4991
vn -0.2841 -0.0020 -0.9588
vn -0.8886 0.0182 -0.4582
vn -0.1871 -0.0780 -0.9792
vn 0.8119 -0.1714 -0.5581
vn -0.0205 -0.5144 0.8573
vn -0.0130 0.5742 0.8186
vn 0.7570 -0.5623 0.3328
vn 0.7682 0.5576 0.3146
vn -0.7545 -0.5744 0.3176
vn -0.7843 0.5346 0.3148
vn -0.0387 0.9524 0.3023
vn 0.9613 0.2434 0.1287
vn -0.7045 -0.7087 -0.0378
vn 0.7086 -0.7056 -0.0072
vn -0.9772 0.2012 0.0686
vn 0.7460 0.5036 0.4357
vn -0.7881 0.4956 0.3650
vn 0.9241 0.1480 -0.3524
vn 0.7474 -0.5981 -0.2893
vn -0.7182 -0.6071 -0.3401
vn 0.9224 0.2417 -0.3014
vn -0.8959 0.1250 -0.4263
vn -0.9033 0.2110 -0.3735
vn 0.0242 0.2813 -0.9593
vn 0.0155 -0.5817 -0.8133
vn 0.0230 0.1461 -0.9890
vn 0.6001 -0.4755 0.6433
vn 0.9539 0.1853 0.2362
vn 0.0237 -0.0195 0.9995
vn -0.8383 -0.0292 0.5444
vn -0.1590 -0.4084 0.8988
vn 0.7764 -0.5199 -0.3562
vn -0.7694 -0.6102 0.1892
vn -0.6585 -0.5314 -0.5329
vn 0.3479 -0.6487 -0.6768
vn 0.9241 -0.0531 -0.3785
vn -0.7352 -0.3441 -0.5840
vn 0.0766 -0.1152 -0.9904
vn 0.9222 0.0235 0.3859
vn 0.0524 -0.3750 0.9255
vn 0.8741 0.1803 -0.4511
vn -0.8887 -0.2189 0.4028
vn -0.8070 -0.0459 -0.5888
vn 0.1088 0.0694 -0.9916
vn 0.0684 -0.4394 0.8957
vn 0.9038 0.0437 0.4258
vn -0.0007 -0.0167 0.9999
vn -0.8563 -0.1791 0.4845
vn 0.8480 0.1409 -0.5109
vn 0.8499 0.0906 0.5190
vn -0.0052 0.0153 0.9999
vn -0.6807 -0.1007 -0.7256
vn -0.8568 -0.1295 0.4991
vn 0.2841 -0.0020 -0.9588
vn 0.8886 0.0182 -0.4582
vn 0.1871 -0.0780 -0.9792
vn -0.8119 -0.1714 -0.5581
vn 0.0205 -0.5144 0.8573
vn 0.0130 0.5742 0.8186
vn -0.7570 -0.5623 0.3328
vn -0.7682 0.5576 0.3146
vn 0.7545 -0.5744 0.3176
vn 0.7843 0.5346 0.3148
vn 0.0387 0.9524 0.3023
vn -0.9613 0.2434 0.1287
vn 0.7045 -0.7087 -0.0378
vn -0.7086 -0.7056 -0.0072
vn 0.9772 0.2012 0.0686
vn -0.7460 0.5036 0.4357
vn 0.7881 0.4956 0.3650
vn -0.9241 0.1480 -0.3524
vn -0.7474 -0.5981 -0.2893
vn 0.7182 -0.6071 -0.3401
vn -0.9224 0.2417 -0.3014
vn 0.8959 0.1250 -0.4263
vn 0.9033 0.2110 -0.3735
vn -0.0242 0.2813 -0.9593
vn -0.0155 -0.5817 -0.8133
vn -0.0230 0.1461 -0.9890
vt 0.849600 0.865200
vt 0.837900 0.900400
vt 0.837900 0.873000
vt 0.806600 0.810500
vt 0.798800 0.904300
vt 0.752000 0.845700
vt 0.908200 0.900400
vt 0.896500 0.978500
vt 0.849600 0.978500
vt 0.896500 0.865200
vt 0.845700 0.998000
vt 0.845700 0.974600
vt 0.896500 0.974600
vt 0.849600 0.966800
vt 0.849600 0.986300
vt 0.794900 0.998000
vt 0.752000 0.884800
vt 0.939500 0.810500
vt 0.908200 0.873000
vt 0.877000 0.822300
vt 0.896500 0.998000
vt 0.849600 0.998000
vt 0.763700 0.959000
vt 0.947300 0.904300
vt 0.084000 0.697300
vt 0.037100 0.693400
vt 0.087900 0.666000
vt 0.791000 0.998000
vt 0.791000 0.986300
vt 0.892600 0.966800
vt 0.951200 0.998000
vt 0.892600 0.986300
vt 0.130900 0.697300
vt 0.134800 0.787100
vt 0.994100 0.845700
vt 0.853500 0.974600
vt 0.849600 0.974600
vt 0.892600 0.974600
vt 0.798800 0.994100
vt 0.794900 0.990200
vt 0.127000 0.666000
vt 0.892600 0.970700
vt 0.951200 0.986300
vt 0.173800 0.783200
vt 0.177700 0.693400
vt 0.080100 0.787100
vt 0.033200 0.720700
vt 0.044900 0.783200
vt 0.951200 0.990200
vt 0.947300 0.994100
vt 0.146500 0.830100
vt 0.068400 0.830100
vt 0.994100 0.884800
vt 0.185500 0.720700
vt 0.982400 0.959000
vt 0.568400 0.486300
vt 0.564500 0.533200
vt 0.619100 0.541000
vt 0.572300 0.400400
vt 0.623000 0.412100
vt 0.041000 0.884800
vt 0.021500 0.834000
vt 0.193400 0.834000
vt 0.173800 0.884800
vt 0.072300 0.701200
vt 0.076200 0.681600
vt 0.072300 0.709000
vt 0.619100 0.369100
vt 0.013700 0.798800
vt 0.009800 0.869100
vt 0.002000 0.834000
vt 0.564500 0.556600
vt 0.623000 0.560500
vt 0.209000 0.869100
vt 0.212900 0.834000
vt 0.201200 0.798800
vt 0.603500 0.541000
vt 0.564500 0.529300
vt 0.564500 0.486300
vt 0.607400 0.408200
vt 0.568400 0.400400
vt 0.584000 0.998000
vt 0.580100 0.998000
vt 0.587900 0.998000
vt 0.142600 0.701200
vt 0.146500 0.709000
vt 0.142600 0.681600
vt 0.994100 0.638700
vt 0.994100 0.669900
vt 0.947300 0.658200
vt 0.111300 0.935500
vt 0.607400 0.560500
vt 0.564500 0.552700
vt 0.154300 0.787100
vt 0.158200 0.877000
vt 0.158200 0.826200
vt 0.959000 0.783200
vt 0.943400 0.787100
vt 0.603500 0.369100
vt 0.064500 0.787100
vt 0.068400 0.794900
vt 0.056600 0.826200
vt 0.060500 0.877000
vt 0.060500 0.861300
vt 0.158200 0.861300
vt 0.080100 0.732400
vt 0.943400 0.615200
vt 0.021500 0.966800
vt 0.955100 0.998000
vt 0.978500 0.787100
vt 0.982400 0.802700
vt 0.962900 0.802700
vt 0.146500 0.794900
vt 0.877000 0.619100
vt 0.142600 0.955100
vt 0.072300 0.955100
vt 0.193400 0.966800
vt 0.947300 0.693400
vt 0.595700 0.998000
vt 0.591800 0.994100
vt 0.138700 0.732400
vt 0.080100 0.709000
vt 0.943400 0.802700
vt 0.791000 0.783200
vt 0.752000 0.669900
vt 0.806600 0.787100
vt 0.802700 0.658200
vt 0.755900 0.638700
vt 0.806600 0.615200
vt 0.068400 0.962900
vt 0.150400 0.962900
vt 0.783200 0.802700
vt 0.755900 0.802700
vt 0.759800 0.787100
vt 0.783200 0.791000
vt 0.959000 0.791000
vt 0.392600 0.658200
vt 0.404300 0.693400
vt 0.255900 0.658200
vt 0.802700 0.693400
vt 0.400400 0.580100
vt 0.314500 0.580100
vt 0.361300 0.560500
vt 0.798800 0.802700
vt 0.955100 0.791000
vt 0.951200 0.802700
vt 0.806600 0.802700
vt 0.787100 0.802700
vt 0.666000 0.994100
vt 0.662100 0.998000
vt 0.673800 0.998000
vt 0.677700 0.998000
vt 0.252000 0.697300
vt 0.794900 0.791000
vt 0.134800 0.709000
vt 0.009800 0.884800
vt 0.002000 0.919900
vt 0.169900 0.892600
vt 0.162100 0.916000
vt 0.173800 0.990200
vt 0.044900 0.990200
vt 0.056600 0.916000
vt 0.048800 0.892600
vt 0.705100 0.494100
vt 0.689500 0.470700
vt 0.697300 0.470700
vt 0.076200 0.865200
vt 0.396500 0.634800
vt 0.318400 0.634800
vt 0.275400 0.681600
vt 0.380900 0.681600
vt 0.388700 0.837900
vt 0.408200 0.849600
vt 0.396500 0.755900
vt 0.259800 0.755900
vt 0.267600 0.837900
vt 0.248000 0.849600
vt 0.013700 0.986300
vt 0.435500 0.627000
vt 0.283200 0.627000
vt 0.138700 0.865200
vt 0.201200 0.986300
vt 0.283200 0.646500
vt 0.662100 0.474600
vt 0.630900 0.474600
vt 0.627000 0.552700
vt 0.435500 0.873000
vt 0.377000 0.900400
vt 0.627000 0.474600
vt 0.627000 0.548800
vt 0.435500 0.646500
vt 0.279300 0.900400
vt 0.220700 0.873000
vt 0.294900 0.294900
vt 0.298800 0.294900
vt 0.662100 0.560500
vt 0.408200 0.978500
vt 0.357400 0.990200
vt 0.298800 0.990200
vt 0.248000 0.978500
vt 0.384800 0.998000
vt 0.267600 0.998000
vt 0.201200 0.462900
vt 0.201200 0.353500
vt 0.212900 0.470700
vt 0.298800 0.298800
vt 0.294900 0.298800
vt 0.193400 0.396500
vt 0.205100 0.505900
vt 0.166000 0.544900
vt 0.224600 0.470700
vt 0.220700 0.357400
vt 0.197300 0.462900
vt 0.845700 0.599600
vt 0.771500 0.552700
vt 0.865200 0.486300
vt 0.959000 0.544900
vt 0.896500 0.595700
vt 0.150400 0.330100
vt 0.154300 0.244100
vt 0.130900 0.228500
vt 0.127000 0.228500
vt 0.150400 0.240200
vt 0.154300 0.330100
vt 0.408200 0.541000
vt 0.408200 0.509800
vt 0.412100 0.537100
vt 0.404300 0.505900
vt 0.408200 0.537100
vt 0.408200 0.544900
vt 0.396500 0.502000
vt 0.416000 0.466800
vt 0.408200 0.466800
vt 0.400400 0.443400
vt 0.412100 0.443400
vt 0.412100 0.462900
vt 0.412100 0.466800
vt 0.189500 0.486300
vt 0.197300 0.455100
vt 0.212900 0.462900
vt 0.197300 0.541000
vt 0.435500 0.447300
vt 0.377000 0.373000
vt 0.021500 0.306600
vt 0.041000 0.240200
vt 0.752000 0.607400
vt 0.423800 0.435500
vt 0.377000 0.353500
vt 0.404300 0.435500
vt 0.158200 0.513700
vt 0.193400 0.490200
vt 0.201200 0.408200
vt 0.201200 0.498000
vt 0.994100 0.603500
vt 0.189500 0.490200
vt 0.041000 0.236300
vt 0.021500 0.294900
vt 0.259800 0.611300
vt 0.232400 0.587900
vt 0.236300 0.587900
vt 0.263700 0.611300
vt 0.197300 0.486300
vt 0.201200 0.490200
vt 0.189500 0.521500
vt 0.185500 0.525400
vt 0.232400 0.462900
vt 0.173800 0.525400
vt 0.412100 0.552700
vt 0.416000 0.548800
vt 0.033200 0.380900
vt 0.150400 0.388700
vt 0.252000 0.314500
vt 0.177700 0.314500
vt 0.162100 0.275400
vt 0.416000 0.552700
vt 0.419900 0.552700
vt 0.212900 0.607400
vt 0.240200 0.611300
vt 0.236300 0.607400
vt 0.279300 0.615200
vt 0.259800 0.619100
vt 0.267600 0.611300
vt 0.255900 0.607400
vt 0.255900 0.615200
vt 0.216800 0.611300
vt 0.232400 0.591800
vt 0.201200 0.564500
vt 0.181600 0.591800
vt 0.419900 0.490200
vt 0.166000 0.564500
vt 0.158200 0.548800
vt 0.259800 0.603500
vt 0.236300 0.591800
vt 0.294900 0.302700
vt 0.298800 0.302700
vt 0.193400 0.513700
vt 0.412100 0.529300
vt 0.209000 0.584000
vt 0.173800 0.611300
vt 0.162100 0.568400
vt 0.267600 0.275400
vt 0.232400 0.584000
vt 0.255900 0.603500
vt 0.154300 0.388700
vt 0.052700 0.388700
vt 0.162100 0.521500
vt 0.193400 0.525400
vt 0.224600 0.646500
vt 0.158200 0.298800
vt 0.275400 0.298800
vt 0.255900 0.646500
vt 0.216800 0.646500
vt 0.189500 0.630900
vt 0.205100 0.576200
vt 0.177700 0.595700
vt 0.162100 0.552700
vt 0.201200 0.541000
vt 0.177700 0.330100
vt 0.252000 0.330100
vt 0.177700 0.627000
vt 0.158200 0.564500
vt 0.224600 0.611300
vt 0.193400 0.627000
vt 0.279300 0.611300
vt 0.279300 0.646500
vt 0.244100 0.646500
vt 0.209000 0.580100
vt 0.177700 0.591800
vt 0.189500 0.627000
vt 0.212900 0.615200
vt 0.306600 0.548800
vt 0.361300 0.548800
vt 0.341800 0.552700
vt 0.334000 0.412100
vt 0.341800 0.517600
vt 0.287100 0.509800
vt 0.451200 0.533200
vt 0.466800 0.533200
vt 0.431600 0.533200
vt 0.259800 0.349600
vt 0.252000 0.337900
vt 0.177700 0.318400
vt 0.252000 0.318400
vt 0.334000 0.306600
vt 0.369100 0.306600
vt 0.334000 0.365200
vt 0.291000 0.369100
vt 0.298800 0.521500
vt 0.322300 0.509800
vt 0.314500 0.544900
vt 0.291000 0.552700
vt 0.158200 0.556600
vt 0.173800 0.591800
vt 0.283200 0.423800
vt 0.298800 0.416000
vt 0.177700 0.337900
vt 0.283200 0.408200
vt 0.380900 0.533200
vt 0.377000 0.470700
vt 0.377000 0.459000
vt 0.302700 0.306600
vt 0.322300 0.396500
vt 0.396500 0.517600
vt 0.377000 0.525400
vt 0.169900 0.349600
vt 0.384800 0.548800
vt 0.400400 0.529300
vt 0.388700 0.423800
vt 0.377000 0.423800
vt 0.435500 0.552700
vt 0.466800 0.552700
vt 0.459000 0.544900
vt 0.396500 0.400400
vt 0.384800 0.419900
vt 0.412100 0.544900
vt 0.377000 0.552700
vt 0.416000 0.490200
vt 0.396500 0.412100
vt 0.396500 0.533200
vt 0.404300 0.337900
vt 0.447300 0.552700
vt 0.443400 0.552700
vt 0.416000 0.474600
vt 0.392600 0.330100
vt 0.404300 0.306600
vt 0.220700 0.255900
vt 0.408200 0.341800
vt 0.404300 0.326200
vt 0.443400 0.505900
vt 0.392600 0.377000
vt 0.400400 0.306600
vt 0.427700 0.365200
vt 0.447300 0.404300
vt 0.459000 0.306600
vt 0.455100 0.388700
vt 0.466800 0.384800
vt 0.451200 0.318400
vt 0.466800 0.380900
vt 0.435500 0.396500
vt 0.466800 0.326200
vt 0.466800 0.353500
vt 0.447300 0.353500
vt 0.447300 0.326200
vt 0.423800 0.392600
vt 0.451200 0.412100
vt 0.455100 0.334000
vt 0.466800 0.396500
vt 0.466800 0.330100
vt 0.462900 0.404300
vt 0.412100 0.306600
vt 0.443400 0.517600
vt 0.439500 0.357400
vt 0.443400 0.365200
vt 0.384800 0.396500
vt 0.423800 0.318400
vt 0.419900 0.365200
vt 0.396500 0.306600
vt 0.388700 0.373000
vt 0.416000 0.318400
vt 0.447300 0.482400
vt 0.466800 0.490200
vt 0.380900 0.388700
vt 0.466800 0.443400
vt 0.466800 0.455100
vt 0.377000 0.486300
vt 0.377000 0.498000
vt 0.466800 0.377000
vt 0.447300 0.369100
vt 0.388700 0.443400
vt 0.388700 0.431600
vt 0.466800 0.427700
vt 0.447300 0.412100
vt 0.283200 0.275400
vt 0.283200 0.279300
vt 0.283200 0.283200
vt 0.298800 0.275400
vt 0.310500 0.302700
vt 0.287100 0.283200
vt 0.287100 0.287100
vt 0.291000 0.287100
vt 0.291000 0.291000
vt 0.021500 0.822300
vt 0.005900 0.857400
vt 0.002000 0.880900
vt 0.009800 0.857400
vt 0.138700 0.595700
vt 0.150400 0.404300
vt 0.060500 0.396500
vt 0.087900 0.396500
vt 0.002000 0.404300
vt 0.033200 0.642600
vt 0.091800 0.646500
vt 0.005900 0.623000
vt 0.052700 0.623000
vt 0.002000 0.396500
vt 0.138700 0.642600
vt 0.087900 0.619100
vt 0.142600 0.619100
vt 0.150400 0.396500
vt 0.005900 0.646500
vt 0.697300 0.490200
vt 0.716800 0.486300
vt 0.705100 0.498000
vt 0.736300 0.486300
vt 0.431600 0.919900
vt 0.732400 0.556600
vt 0.712900 0.544900
vt 0.716800 0.560500
vt 0.748000 0.517600
vt 0.712900 0.502000
vt 0.697300 0.556600
vt 0.627000 0.564500
vt 0.623000 0.638700
vt 0.662100 0.599600
vt 0.584000 0.568400
vt 0.584000 0.599600
vt 0.666000 0.568400
vt 0.697300 0.603500
vt 0.697300 0.568400
vt 0.724600 0.568400
vt 0.615200 0.564500
vt 0.587900 0.564500
vt 0.587900 0.568400
vt 0.611300 0.568400
vt 0.724600 0.564500
vt 0.697300 0.564500
vt 0.697300 0.595700
vt 0.564500 0.564500
vt 0.568400 0.568400
vt 0.724600 0.595700
vt 0.720700 0.603500
vt 0.533200 0.564500
vt 0.494100 0.564500
vt 0.494100 0.595700
vt 0.451200 0.564500
vt 0.459000 0.595700
vt 0.533200 0.595700
vt 0.669900 0.818400
vt 0.627000 0.806600
vt 0.724600 0.791000
vt 0.693400 0.806600
vt 0.580100 0.818400
vt 0.693400 0.814500
vt 0.724600 0.802700
vt 0.494100 0.783200
vt 0.447300 0.798800
vt 0.627000 0.810500
vt 0.677700 0.845700
vt 0.627000 0.845700
vt 0.541000 0.798800
vt 0.572300 0.845700
vt 0.689500 0.830100
vt 0.716800 0.841800
vt 0.681600 0.923800
vt 0.627000 0.904300
vt 0.724600 0.857400
vt 0.689500 0.837900
vt 0.689500 0.904300
vt 0.568400 0.904300
vt 0.459000 0.849600
vt 0.494100 0.861300
vt 0.689500 0.900400
vt 0.716800 0.904300
vt 0.541000 0.849600
vt 0.627000 0.986300
vt 0.443400 0.912100
vt 0.494100 0.900400
vt 0.681600 0.998000
vt 0.720700 0.900400
vt 0.552700 0.896500
vt 0.564500 0.990200
vt 0.689500 0.982400
vt 0.716800 0.990200
vt 0.689500 0.978500
vt 0.689500 0.998000
vt 0.556600 0.994100
vt 0.494100 0.990200
vt 0.439500 0.998000
vt 0.728500 0.998000
vt 0.345700 0.275400
vt 0.373000 0.275400
vt 0.373000 0.302700
vt 0.345700 0.302700
vt 0.326200 0.294900
vt 0.314500 0.294900
vt 0.318400 0.291000
vt 0.314500 0.302700
vt 0.314500 0.275400
vt 0.513700 0.377000
vt 0.560500 0.427700
vt 0.505900 0.455100
vt 0.470700 0.427700
vt 0.544900 0.541000
vt 0.330100 0.287100
vt 0.341800 0.291000
vt 0.345700 0.294900
vt 0.322300 0.294900
vt 0.318400 0.279300
vt 0.345700 0.279300
vt 0.470700 0.541000
vt 0.369100 0.302700
vt 0.533200 0.560500
vt 0.478500 0.560500
vt 0.365200 0.298800
vt 0.365200 0.275400
vt 0.341800 0.287100
vt 0.353500 0.291000
vt 0.505900 0.552700
vt 0.494100 0.552700
vt 0.494100 0.533200
vt 0.505900 0.541000
vt 0.373000 0.294900
vt 0.505900 0.537100
vt 0.349600 0.287100
vt 0.318400 0.302700
vt 0.654300 0.416000
vt 0.654300 0.466800
vt 0.677700 0.466800
vt 0.685500 0.419900
vt 0.630900 0.466800
vt 0.627000 0.419900
s 1
usemtl C272AB803C0E4DB40BF1802340E9F486.001
f 378/540/378 380/541/380 381/542/381 379/543/379
f 380/544/380 378/545/378 382/546/382
f 379/543/379 383/547/383 382/548/382 378/540/378
f 382/546/382 386/554/386 387/555/387 380/544/380
f 385/556/385 381/557/381 380/558/380 387/559/387
f 386/548/386 382/541/382 383/561/383 388/547/388
f 391/564/391 385/556/385 387/559/387 392/565/392
f 387/555/387 386/554/386 393/566/393 392/567/392
f 388/572/388 395/547/395 393/548/393 386/541/386
f 393/566/393 398/574/398 392/567/392
f 398/541/398 399/542/399 391/575/391 392/548/392
f 398/548/398 393/541/393 395/561/395 399/547/399
f 431/540/431 432/543/432 434/542/434 433/541/433
f 433/544/433 435/546/435 431/545/431
f 432/543/432 431/540/431 435/548/435 436/547/436
f 435/546/435 433/544/433 440/555/440 439/554/439
f 438/556/438 440/559/440 433/558/433 434/557/434
f 439/548/439 441/547/441 436/561/436 435/541/435
f 444/564/444 445/565/445 440/559/440 438/556/438
f 440/555/440 445/567/445 446/566/446 439/554/439
f 441/572/441 439/541/439 446/548/446 448/547/448
f 446/566/446 445/567/445 451/574/451
f 451/541/451 445/548/445 444/575/444 452/542/452
f 451/548/451 452/547/452 448/561/448 446/541/446
usemtl E42F4635AE3742D6A6FCD55704CB1AE1.001
f 379/549/379 381/550/381 384/551/384
f 384/551/384 383/552/383 379/549/379
f 384/551/384 381/550/381 385/553/385
f 388/560/388 383/552/383 384/551/384
f 385/553/385 389/562/389 384/551/384
f 384/551/384 390/563/390 388/560/388
f 384/551/384 389/562/389 390/563/390
f 394/568/394 389/569/389 385/570/385 391/571/391
f 390/569/390 396/568/396 395/573/395 388/570/388
f 432/549/432 437/551/437 434/550/434
f 437/551/437 432/549/432 436/552/436
f 437/551/437 438/553/438 434/550/434
f 441/560/441 437/551/437 436/552/436
f 438/553/438 437/551/437 442/562/442
f 437/551/437 441/560/441 443/563/443
f 437/551/437 443/563/443 442/562/442
f 447/568/447 444/571/444 438/570/438 442/569/442
f 443/569/443 441/570/441 448/573/448 449/568/449
usemtl 85904E2364D296A1A9B0BAFE98A7A2E7.001
f 49/82/49 54/83/54 15/82/15 25/84/25
f 79/119/79 72/120/72 54/83/54 49/82/49
f 83/149/83 84/150/84 60/151/60 63/152/63
f 347/472/347 349/473/349 348/474/348
f 347/472/347 351/475/351 350/476/350
f 347/472/347 348/474/348 352/477/352
f 350/476/350 349/473/349 347/472/347
f 350/478/350 351/479/351 353/480/353
f 351/481/351 347/482/347 354/483/354 353/484/353
f 355/485/355 352/486/352 348/487/348
f 354/483/354 347/482/347 352/488/352 355/489/355
f 356/490/356 355/485/355 348/487/348
f 353/480/353 357/491/357 350/478/350
f 359/498/359 348/474/348 349/473/349 360/499/360
f 361/500/361 356/490/356 348/487/348 359/501/359
f 360/499/360 349/473/349 350/476/350 362/502/362
f 362/503/362 350/478/350 357/491/357 363/504/363
f 359/498/359 360/499/360 365/507/365
f 365/507/365 366/508/366 359/498/359
f 366/508/366 365/507/365 367/509/367
f 365/507/365 360/499/360 362/502/362
f 368/511/368 367/509/367 365/507/365
f 359/501/359 366/512/366 369/513/369
f 362/502/362 368/511/368 365/507/365
f 369/513/369 361/500/361 359/501/359
f 370/514/370 366/508/366 367/509/367 371/515/371
f 372/516/372 368/517/368 362/503/362
f 369/513/369 366/512/366 370/518/370
f 371/515/371 367/509/367 368/511/368 373/519/373
f 362/503/362 363/504/363 372/516/372
f 373/522/373 368/517/368 372/516/372
f 370/518/370 375/523/375 369/513/369
f 373/519/373 1/525/1 371/515/371
f 2/528/2 370/514/370 371/515/371 1/525/1
f 372/516/372 377/529/377 373/522/373
f 373/519/373 3/531/3 1/525/1
f 3/532/3 373/522/373 377/529/377
f 13/533/13 375/523/375 370/518/370 2/534/2
f 16/535/16 13/533/13 2/534/2
f 377/529/377 36/539/36 3/532/3
f 400/472/400 401/474/401 402/473/402
f 400/472/400 403/476/403 404/475/404
f 400/472/400 405/477/405 401/474/401
f 403/476/403 400/472/400 402/473/402
f 403/478/403 406/480/406 404/479/404
f 404/481/404 406/484/406 407/483/407 400/482/400
f 408/485/408 401/487/401 405/486/405
f 407/483/407 408/489/408 405/488/405 400/482/400
f 409/490/409 401/487/401 408/485/408
f 406/480/406 403/478/403 410/491/410
f 412/498/412 413/499/413 402/473/402 401/474/401
f 414/500/414 412/501/412 401/487/401 409/490/409
f 413/499/413 415/502/415 403/476/403 402/473/402
f 415/503/415 416/504/416 410/491/410 403/478/403
f 412/498/412 418/507/418 413/499/413
f 418/507/418 412/498/412 419/508/419
f 419/508/419 420/509/420 418/507/418
f 418/507/418 415/502/415 413/499/413
f 421/511/421 418/507/418 420/509/420
f 412/501/412 422/513/422 419/512/419
f 415/502/415 418/507/418 421/511/421
f 422/513/422 412/501/412 414/500/414
f 423/514/423 424/515/424 420/509/420 419/508/419
f 425/516/425 415/503/415 421/517/421
f 422/513/422 423/518/423 419/512/419
f 424/515/424 426/519/426 421/511/421 420/509/420
f 415/503/415 425/516/425 416/504/416
f 426/522/426 425/516/425 421/517/421
f 423/518/423 422/513/422 428/523/428
f 426/519/426 424/515/424 4/525/4
f 22/528/22 4/525/4 424/515/424 423/514/423
f 425/516/425 426/522/426 430/529/430
f 426/519/426 4/525/4 3/531/3
f 3/532/3 430/529/430 426/522/426
f 52/533/52 22/534/22 423/518/423 428/523/428
f 40/535/40 22/534/22 52/533/52
f 430/529/430 3/532/3 36/539/36
usemtl 6A68442487741DFC6E324F3DB0994038.001
f 92/194/92 100/194/100 97/194/97
f 99/195/99 101/195/101 91/195/91
f 97/194/97 100/194/100 106/194/106
f 97/194/97 106/194/106 104/194/104
f 105/195/105 107/195/107 99/195/99
f 107/195/107 101/195/101 99/195/99
f 106/194/106 107/195/107 105/195/105
f 104/194/104 106/194/106 105/195/105
f 111/206/111 113/207/113 112/206/112
f 162/294/162 151/295/151 161/294/161
f 151/295/151 165/295/165 161/294/161
f 149/295/149 165/295/165 151/295/151
f 166/295/166 149/295/149 151/295/151
f 166/295/166 151/295/151 150/295/150
f 115/206/115 118/195/118 169/206/169
f 170/207/170 118/195/118 109/207/109
f 115/206/115 169/206/169 139/206/139
f 137/207/137 170/207/170 109/207/109
f 118/195/118 170/207/170 169/206/169
f 179/206/179 139/206/139 169/206/169
f 185/206/185 139/206/139 179/206/179
f 186/206/186 139/206/139 185/206/185
f 170/207/170 137/207/137 188/207/188
f 186/206/186 192/295/192 193/295/193 139/206/139
f 199/207/199 137/207/137 200/207/200
f 188/207/188 137/207/137 199/207/199
f 192/295/192 201/295/201 193/295/193
f 186/206/186 202/295/202 192/295/192
f 202/295/202 186/206/186 185/206/185
f 179/206/179 187/206/187 185/206/185
f 100/194/100 189/207/189 106/194/106
f 107/195/107 190/206/190 101/195/101
f 137/207/137 191/294/191 205/294/205 200/207/200
f 191/294/191 208/294/208 205/294/205
f 209/294/209 205/294/205 208/294/208
f 205/294/205 209/294/209 200/207/200
f 209/294/209 208/294/208 199/207/199
f 199/207/199 200/207/200 209/294/209
f 201/295/201 192/295/192 202/295/202
f 185/206/185 201/295/201 202/295/202
f 185/206/185 187/206/187 201/295/201
f 208/294/208 196/207/196 199/207/199
f 199/207/199 196/207/196 188/207/188
f 187/206/187 190/206/190 189/207/189 196/207/196
f 106/194/106 189/207/189 190/206/190 107/195/107
f 237/433/237 239/433/239 240/433/240 238/433/238
f 241/433/241 240/433/240 239/433/239 242/433/242
f 242/433/242 239/433/239 237/433/237 243/433/243
f 243/433/243 237/433/237 244/433/244
f 238/433/238 240/433/240 241/433/241 245/433/245
f 241/433/241 242/433/242 243/433/243 245/433/245
f 246/433/246 238/433/238 245/433/245
f 238/433/238 246/433/246 244/433/244 237/433/237
f 246/433/246 245/433/245 247/433/247
f 248/433/248 245/433/245 243/433/243
f 244/433/244 246/433/246 249/433/249
f 243/433/243 250/434/250 248/433/248
f 248/433/248 247/433/247 245/433/245
f 249/433/249 246/433/246 247/433/247
f 251/433/251 253/433/253 254/433/254 252/433/252
f 255/433/255 254/433/254 253/433/253 256/433/256
f 247/433/247 255/433/255 256/433/256
f 255/433/255 247/433/247 248/433/248
f 248/433/248 257/433/257 255/433/255
f 249/433/249 247/433/247 256/433/256
f 249/433/249 258/434/258 244/433/244
f 259/433/259 252/433/252 254/433/254 255/433/255
f 260/433/260 251/433/251 252/433/252 259/433/259
f 256/433/256 253/433/253 251/433/251 260/433/260
f 250/434/250 243/433/243 244/433/244 261/434/261
f 248/433/248 262/434/262 257/433/257
f 257/433/257 259/433/259 255/433/255
f 249/433/249 256/433/256 260/433/260
f 258/434/258 261/434/261 244/433/244
f 250/434/250 262/434/262 248/433/248
f 257/433/257 262/434/262 263/434/263
f 263/434/263 259/433/259 257/433/257
f 260/435/260 259/436/259 263/437/263
f 260/433/260 264/434/264 249/433/249
f 249/433/249 264/434/264 258/434/258
f 261/434/261 258/434/258 265/434/265
f 250/434/250 261/434/261 266/434/266
f 266/434/266 261/434/261 265/434/265
f 263/434/263 262/434/262 267/434/267
f 250/434/250 266/434/266 267/434/267
f 267/434/267 262/434/262 250/434/250
f 260/433/260 263/434/263 264/434/264
f 265/434/265 258/434/258 264/434/264
f 268/434/268 265/434/265 264/434/264
f 264/434/264 263/434/263 268/434/268
f 267/434/267 268/434/268 263/434/263
f 269/438/269 267/434/267 266/434/266
f 268/434/268 267/434/267 269/438/269
f 266/434/266 265/434/265 270/439/270
f 270/439/270 265/434/265 268/434/268
f 269/438/269 266/434/266 271/438/271
f 271/438/271 266/434/266 270/439/270
f 272/438/272 268/434/268 269/438/269
f 270/439/270 268/434/268 272/438/272
f 272/438/272 273/439/273 270/439/270
f 269/438/269 274/440/274 272/438/272
f 271/438/271 275/439/275 274/440/274 269/438/269
f 270/439/270 273/439/273 275/439/275 271/438/271
f 274/440/274 276/440/276 272/438/272
f 272/438/272 276/440/276 273/439/273
f 277/440/277 275/439/275 273/439/273
f 274/440/274 275/439/275 277/440/277
f 273/439/273 278/441/278 279/440/279 277/440/277
f 277/440/277 279/440/279 280/440/280 274/440/274
f 274/440/274 280/440/280 276/440/276
f 276/440/276 278/441/278 273/439/273
f 292/433/292 293/433/293 295/433/295 294/433/294
f 296/433/296 297/433/297 294/433/294 295/433/295
f 297/433/297 298/433/298 292/433/292 294/433/294
f 298/433/298 299/433/299 292/433/292
f 293/433/293 300/433/300 296/433/296 295/433/295
f 296/433/296 300/433/300 298/433/298 297/433/297
f 301/433/301 300/433/300 293/433/293
f 293/433/293 292/433/292 299/433/299 301/433/301
f 301/433/301 302/433/302 300/433/300
f 303/433/303 298/433/298 300/433/300
f 299/433/299 304/433/304 301/433/301
f 298/433/298 303/433/303 305/434/305
f 303/433/303 300/433/300 302/433/302
f 304/433/304 302/433/302 301/433/301
f 306/433/306 307/433/307 309/433/309 308/433/308
f 310/433/310 311/433/311 308/433/308 309/433/309
f 302/433/302 311/433/311 310/433/310
f 310/433/310 303/433/303 302/433/302
f 303/433/303 310/433/310 312/433/312
f 304/433/304 311/433/311 302/433/302
f 304/433/304 299/433/299 313/434/313
f 314/433/314 310/433/310 309/433/309 307/433/307
f 315/433/315 314/433/314 307/433/307 306/433/306
f 311/433/311 315/433/315 306/433/306 308/433/308
f 305/434/305 316/434/316 299/433/299 298/433/298
f 303/433/303 312/433/312 317/434/317
f 312/433/312 310/433/310 314/433/314
f 304/433/304 315/433/315 311/433/311
f 313/434/313 299/433/299 316/434/316
f 305/434/305 303/433/303 317/434/317
f 312/433/312 318/434/318 317/434/317
f 318/434/318 312/433/312 314/433/314
f 315/435/315 318/437/318 314/436/314
f 315/433/315 304/433/304 319/434/319
f 304/433/304 313/434/313 319/434/319
f 316/434/316 320/434/320 313/434/313
f 305/434/305 321/434/321 316/434/316
f 321/434/321 320/434/320 316/434/316
f 318/434/318 322/434/322 317/434/317
f 305/434/305 322/434/322 321/434/321
f 322/434/322 305/434/305 317/434/317
f 315/433/315 319/434/319 318/434/318
f 320/434/320 319/434/319 313/434/313
f 323/434/323 319/434/319 320/434/320
f 319/434/319 323/434/323 318/434/318
f 322/434/322 318/434/318 323/434/323
f 324/438/324 321/434/321 322/434/322
f 323/434/323 324/438/324 322/434/322
f 321/434/321 325/439/325 320/434/320
f 325/439/325 323/434/323 320/434/320
f 324/438/324 326/438/326 321/434/321
f 326/438/326 325/439/325 321/434/321
f 327/438/327 324/438/324 323/434/323
f 325/439/325 327/438/327 323/434/323
f 327/438/327 325/439/325 328/439/328
f 324/438/324 327/438/327 329/440/329
f 326/438/326 324/438/324 329/440/329 330/439/330
f 325/439/325 326/438/326 330/439/330 328/439/328
f 329/440/329 327/438/327 331/440/331
f 327/438/327 328/439/328 331/440/331
f 332/440/332 328/439/328 330/439/330
f 329/440/329 332/440/332 330/439/330
f 328/439/328 332/440/332 334/440/334 333/441/333
f 332/440/332 329/440/329 335/440/335 334/440/334
f 329/440/329 331/440/331 335/440/335
f 331/440/331 328/439/328 333/441/333
usemtl 369E6730BA9643671A67314C38E360DC.001
f 399/576/399 397/577/397 394/578/394 391/579/391
f 396/580/396 397/577/397 399/576/399 395/581/395
f 452/576/452 444/579/444 447/578/447 450/577/450
f 449/580/449 448/581/448 452/576/452 450/577/450
usemtl 8F1010FDADE44315C1B472AF0029D8A0.001
f 353/492/353 354/493/354 358/494/358
f 355/495/355 356/496/356 358/494/358
f 358/494/358 357/497/357 353/492/353
f 358/494/358 354/493/354 355/495/355
f 364/505/364 358/494/358 356/496/356 361/506/361
f 363/510/363 357/497/357 358/494/358 364/505/364
f 361/506/361 369/520/369 374/521/374
f 374/521/374 364/505/364 361/506/361
f 363/510/363 364/505/364 374/521/374
f 374/521/374 372/524/372 363/510/363
f 369/520/369 375/526/375 376/527/376
f 376/527/376 374/521/374 369/520/369
f 372/524/372 374/521/374 376/527/376
f 376/527/376 377/530/377 372/524/372
f 36/536/36 377/530/377 376/527/376
f 37/537/37 376/527/376 375/526/375 13/538/13
f 376/527/376 37/537/37 36/536/36
f 406/492/406 411/494/411 407/493/407
f 408/495/408 411/494/411 409/496/409
f 411/494/411 406/492/406 410/497/410
f 411/494/411 408/495/408 407/493/407
f 417/505/417 414/506/414 409/496/409 411/494/411
f 416/510/416 417/505/417 411/494/411 410/497/410
f 414/506/414 427/521/427 422/520/422
f 427/521/427 414/506/414 417/505/417
f 416/510/416 427/521/427 417/505/417
f 427/521/427 416/510/416 425/524/425
f 422/520/422 429/527/429 428/526/428
f 429/527/429 422/520/422 427/521/427
f 425/524/425 429/527/429 427/521/427
f 429/527/429 425/524/425 430/530/430
f 36/536/36 429/527/429 430/530/430
f 71/537/71 52/538/52 428/526/428 429/527/429
f 429/527/429 36/536/36 71/537/71
usemtl E714C44C0BEABE4DFCC1FBFDE9FE2E46.001
f 5/1/5 7/2/7 6/3/6
f 1/4/1 6/3/6 8/5/8
f 2/6/2 1/4/1 8/5/8
f 6/3/6 7/2/7 8/5/8
f 7/2/7 10/7/10 11/8/11 9/9/9
f 12/10/12 10/7/10 7/2/7 5/1/5
f 14/11/14 9/12/9 11/13/11
f 9/14/9 14/15/14 15/16/15
f 8/5/8 16/17/16 2/6/2
f 4/18/4 17/19/17 3/20/3
f 3/20/3 6/3/6 1/4/1
f 18/21/18 14/22/14 11/8/11
f 19/23/19 16/17/16 8/5/8
f 20/24/20 10/7/10 17/19/17
f 17/19/17 10/7/10 12/10/12
f 12/10/12 3/20/3 17/19/17
f 17/19/17 4/18/4 20/24/20
f 5/1/5 3/20/3 12/10/12
f 6/3/6 3/20/3 5/1/5
f 8/5/8 7/2/7 9/9/9 21/16/21
f 9/14/9 15/28/15 21/29/21
f 11/30/11 26/31/26 18/32/18
f 8/5/8 21/16/21 19/23/19
f 4/18/4 22/35/22 20/24/20
f 29/31/29 11/8/11 10/7/10 20/24/20
f 24/36/24 14/37/14 18/13/18 30/38/30
f 25/39/25 15/40/15 14/37/14 24/36/24
f 11/42/11 29/43/29 26/31/26
f 30/38/30 18/13/18 26/49/26 32/50/32
f 22/35/22 40/53/40 20/24/20
f 42/55/42 29/31/29 20/24/20
f 19/56/19 21/57/21 43/58/43
f 20/24/20 40/53/40 42/55/42
f 16/59/16 19/56/19 44/60/44
f 16/59/16 44/60/44 13/68/13
f 19/56/19 43/58/43 44/60/44
f 15/72/15 54/73/54 43/58/43 21/57/21
f 58/77/58 29/78/29 42/79/42
f 59/80/59 42/79/42 40/81/40
f 29/78/29 58/77/58 63/92/63 26/93/26
f 52/99/52 59/80/59 40/81/40
f 59/80/59 58/77/58 42/79/42
f 32/50/32 26/49/26 63/109/63 60/31/60
usemtl 7D3948693E0CCF2D6278BF1522D79681.001
f 23/25/23 25/26/25 24/27/24
f 27/33/27 28/34/28 23/25/23
f 23/25/23 24/27/24 30/41/30 27/33/27
f 31/44/31 28/34/28 27/33/27
f 30/41/30 32/45/32 27/33/27
f 28/34/28 33/46/33 23/25/23
f 23/25/23 34/47/34 25/26/25
f 23/25/23 33/46/33 35/48/35
f 23/25/23 35/48/35 34/47/34
f 28/34/28 38/51/38 39/52/39 33/46/33
f 27/33/27 41/54/41 31/44/31
f 45/61/45 46/62/46 39/52/39
f 46/62/46 35/48/35 33/46/33 39/52/39
f 38/51/38 28/34/28 31/44/31 47/63/47
f 38/51/38 47/63/47 48/64/48
f 49/65/49 25/66/25 34/67/34
f 32/45/32 41/54/41 27/33/27
f 35/48/35 50/69/50 34/47/34
f 51/70/51 46/62/46 45/61/45
f 38/51/38 48/64/48 45/61/45 39/52/39
f 53/71/53 50/69/50 35/48/35 46/62/46
f 48/64/48 47/63/47 55/74/55
f 55/74/55 47/63/47 56/75/56
f 41/54/41 57/76/57 31/44/31
f 53/71/53 46/62/46 51/70/51
f 56/75/56 47/63/47 31/44/31 57/76/57
f 60/85/60 41/86/41 32/87/32
f 62/91/62 45/61/45 48/64/48
f 57/94/57 64/95/64 56/96/56
f 34/67/34 50/100/50 66/101/66
f 50/100/50 53/102/53 67/103/67
f 53/102/53 51/104/51 67/103/67
f 64/95/64 55/105/55 56/96/56
f 49/65/49 34/67/34 68/106/68
f 69/108/69 51/70/51 45/61/45
f 73/113/73 57/94/57 41/86/41
f 48/64/48 74/115/74 62/91/62
f 62/91/62 75/116/75 45/61/45
f 48/64/48 55/74/55 76/117/76
f 68/106/68 34/67/34 66/101/66
f 64/95/64 57/94/57 73/113/73
f 67/103/67 66/101/66 50/100/50
f 45/61/45 75/116/75 69/108/69
f 60/85/60 80/121/80 41/86/41
f 68/106/68 79/122/79 49/65/49
f 69/130/69 67/103/67 51/104/51
f 76/117/76 74/115/74 48/64/48
f 76/131/76 55/105/55 64/95/64
f 73/113/73 41/86/41 80/121/80
f 60/85/60 84/155/84 80/121/80
f 67/156/67 69/108/69 86/157/86
f 78/158/78 87/159/87 64/95/64
f 76/117/76 88/160/88 74/115/74
f 75/116/75 89/161/89 69/108/69
f 86/162/86 70/163/70 67/103/67
f 90/167/90 67/103/67 70/163/70
f 89/161/89 94/178/94 69/108/69
f 64/95/64 93/181/93 78/158/78
f 76/117/76 95/182/95 88/160/88
f 281/442/281 283/443/283 284/444/284 282/445/282
f 336/442/336 337/445/337 339/444/339 338/443/338
usemtl D82E0C0BC755281239B7334D1C1EB660.001
f 13/88/13 44/89/44 61/90/61
f 44/89/44 43/97/43 65/98/65
f 61/90/61 37/107/37 13/88/13
f 43/110/43 54/111/54 72/112/72
f 36/114/36 37/107/37 61/90/61
f 44/89/44 65/98/65 77/118/77
f 77/118/77 61/90/61 44/89/44
f 65/98/65 43/97/43 72/123/72
f 58/124/58 59/125/59 81/126/81
f 82/127/82 59/125/59 52/128/52
f 52/128/52 71/129/71 82/127/82
f 82/127/82 71/129/71 36/114/36
f 83/132/83 63/133/63 58/134/58
f 81/135/81 65/136/65 72/112/72
f 59/125/59 85/140/85 81/126/81
f 61/90/61 82/127/82 36/114/36
f 82/127/82 85/140/85 59/125/59
f 84/144/84 72/145/72 79/146/79
f 83/147/83 58/148/58 81/126/81
f 65/98/65 81/126/81 85/140/85 77/118/77
f 77/118/77 85/140/85 82/127/82 61/90/61
f 84/144/84 83/154/83 72/145/72
f 81/126/81 72/98/72 83/147/83
usemtl 5BEE02D71C044312C06109BE3999CEAD.001
f 70/446/70 281/447/281 282/448/282
f 283/449/283 281/450/281 285/451/285
f 282/448/282 286/452/286 70/446/70
f 287/453/287 288/454/288 282/448/282 284/455/284
f 282/448/282 288/454/288 286/452/286
f 70/446/70 86/456/86 281/447/281
f 289/457/289 287/458/287 284/459/284 283/449/283
f 281/450/281 86/460/86 285/451/285
f 285/451/285 289/457/289 283/449/283
f 78/446/78 337/448/337 336/447/336
f 338/449/338 340/451/340 336/450/336
f 337/448/337 78/446/78 341/452/341
f 342/453/342 339/455/339 337/448/337 343/454/343
f 337/448/337 341/452/341 343/454/343
f 78/446/78 336/447/336 87/456/87
f 344/457/344 338/449/338 339/459/339 342/458/342
f 336/450/336 340/451/340 87/460/87
f 340/451/340 338/449/338 344/457/344
usemtl 8603F096362800DFB6C509678A20E1B4.001
f 79/137/79 68/138/68 84/139/84
f 68/138/68 80/153/80 84/139/84
f 80/170/80 68/171/68 90/172/90
f 67/173/67 90/172/90 66/174/66
f 73/175/73 93/176/93 64/177/64
f 90/172/90 68/171/68 66/174/66
f 93/176/93 73/175/73 80/170/80
f 80/170/80 90/172/90 93/176/93
f 70/187/70 96/188/96 90/172/90
f 93/176/93 98/192/98 78/193/78
f 98/192/98 93/176/93 90/172/90 96/188/96
f 102/197/102 104/198/104 96/188/96
f 98/192/98 105/199/105 103/200/103
f 102/197/102 97/201/97 104/198/104
f 105/199/105 99/202/99 103/200/103
f 105/199/105 98/192/98 96/188/96 104/198/104
f 70/187/70 286/465/286 96/188/96
f 96/188/96 286/465/286 102/197/102
f 78/187/78 98/188/98 341/465/341
f 98/188/98 103/197/103 341/465/341
usemtl 1EB58E7DA341846DB3C5194FE5CA6525.001
f 74/141/74 75/142/75 62/143/62
f 74/141/74 91/168/91 92/169/92 75/142/75
f 88/179/88 91/168/91 74/141/74
f 75/142/75 92/169/92 89/180/89
f 89/180/89 92/169/92 97/183/97
f 99/191/99 91/168/91 88/179/88
usemtl 0D3862F912FFE2E71EA4950E2F7D8D8C.001
f 108/203/108 110/204/110 109/205/109
f 110/208/110 108/209/108 114/210/114
f 115/211/115 117/212/117 116/213/116
f 135/238/135 108/239/108 109/240/109
f 114/210/114 108/209/108 135/241/135
f 140/250/140 116/251/116 117/252/117
f 115/211/115 116/213/116 141/253/141
f 116/213/116 142/255/142 141/253/141
f 144/258/144 123/259/123 120/260/120 145/261/145
f 134/262/134 132/263/132 138/264/138 146/265/146
f 109/240/109 133/266/133 134/262/134 136/238/136
f 136/238/136 134/262/134 146/265/146 147/267/147
f 157/277/157 155/278/155 156/279/156
f 155/280/155 158/281/158 154/282/154
f 154/282/154 158/281/158 159/258/159
f 159/283/159 158/284/158 160/285/160
f 159/283/159 160/285/160 161/286/161
f 162/287/162 146/265/146 138/264/138
f 161/286/161 160/285/160 163/288/163
f 162/287/162 161/286/161 163/288/163
f 162/287/162 164/290/164 146/265/146
f 164/290/164 147/267/147 146/265/146
f 163/288/163 164/290/164 162/287/162
f 114/210/114 137/291/137 110/208/110
f 165/292/165 159/258/159 161/293/161
f 165/292/165 144/258/144 159/258/159
f 140/250/140 117/252/117 139/250/139
f 140/250/140 142/296/142 116/251/116
f 166/298/166 157/277/157 156/279/156
f 166/298/166 167/299/167 157/277/157
f 150/287/150 168/300/168 166/298/166
f 168/300/168 167/299/167 166/298/166
f 145/261/145 120/259/120 121/302/121 165/303/165
f 141/253/141 142/255/142 171/306/171 143/307/143
f 143/307/143 171/306/171 168/300/168 150/287/150
f 167/299/167 172/308/172 157/277/157
f 160/285/160 158/284/158 174/311/174 173/312/173
f 173/312/173 175/313/175 163/288/163 160/285/160
f 147/314/147 176/315/176 114/210/114 135/241/135
f 177/316/177 171/317/171 142/296/142 140/250/140
f 167/299/167 178/320/178 172/308/172
f 164/290/164 163/288/163 175/313/175 180/321/180
f 164/322/164 180/323/180 176/315/176 147/314/147
f 155/324/155 181/325/181 174/311/174 158/284/158
f 157/277/157 172/308/172 181/326/181 155/278/155
f 168/327/168 182/328/182 178/329/178 167/330/167
f 171/317/171 177/316/177 182/328/182 168/327/168
f 193/352/193 177/316/177 140/250/140 139/250/139
f 195/353/195 182/328/182 177/316/177 193/352/193
usemtl B2E0EB125DC2DFEAF40296BE151641C5.001
f 87/164/87 76/165/76 64/166/64
f 94/184/94 89/185/89 97/186/97
f 88/189/88 95/184/95 99/190/99
f 97/186/97 102/196/102 94/184/94
f 103/196/103 99/190/99 95/184/95
f 69/165/69 94/461/94 285/462/285
f 69/165/69 285/462/285 86/463/86
f 94/461/94 289/464/289 285/462/285
f 288/466/288 290/467/290 286/468/286
f 290/467/290 288/466/288 287/469/287
f 291/470/291 290/467/290 287/469/287
f 94/461/94 291/470/291 289/464/289
f 287/469/287 289/464/289 291/470/291
f 102/471/102 291/470/291 94/461/94
f 286/468/286 290/467/290 102/471/102
f 102/471/102 290/467/290 291/470/291
f 76/165/76 340/462/340 95/461/95
f 76/165/76 87/463/87 340/462/340
f 95/461/95 340/462/340 344/464/344
f 343/466/343 341/468/341 345/467/345
f 345/467/345 342/469/342 343/466/343
f 346/470/346 342/469/342 345/467/345
f 95/461/95 344/464/344 346/470/346
f 342/469/342 346/470/346 344/464/344
f 103/471/103 95/461/95 346/470/346
f 341/468/341 103/471/103 345/467/345
f 103/471/103 346/470/346 345/467/345
usemtl 96EECAFF7A698C29C9DF92B5D4F884AF.001
f 113/214/113 109/215/109 118/216/118
f 118/216/118 115/217/115 112/218/112
f 113/214/113 118/216/118 112/218/112
f 132/246/132 109/215/109 113/214/113
f 112/218/112 115/217/115 141/254/141
usemtl 70BD7680AE410A7C8B13EE153AFC0106.001
f 119/219/119 111/220/111 112/221/112
f 113/222/113 111/223/111 119/224/119
f 138/244/138 132/245/132 113/222/113
f 119/224/119 138/244/138 113/222/113
f 112/221/112 141/256/141 143/257/143
f 119/219/119 112/221/112 143/257/143
f 143/257/143 150/270/150 151/271/151 119/219/119
f 119/224/119 151/304/151 162/305/162 138/244/138
usemtl 858E9BA61150B0BF6C971BC29C074E8D.001
f 120/225/120 122/226/122 121/227/121
f 123/225/123 122/226/122 120/225/120
f 121/227/121 122/226/122 123/225/123
f 124/227/124 126/228/126 125/225/125
f 125/225/125 126/228/126 127/229/127
f 127/229/127 126/228/126 124/227/124
f 128/230/128 130/231/130 129/225/129
f 129/225/129 130/231/130 131/230/131
f 131/230/131 130/231/130 128/230/128
f 132/232/132 134/233/134 133/234/133
f 133/234/133 109/235/109 132/232/132
f 109/235/109 136/236/136 135/237/135
f 137/242/137 109/235/109 110/243/110
f 139/247/139 117/248/117 115/249/115
f 148/268/148 125/225/125 127/229/127 149/269/149
f 154/275/154 148/268/148 155/276/155
f 128/230/128 129/225/129 156/269/156
f 156/269/156 155/276/155 128/230/128
f 147/289/147 135/237/135 136/236/136
f 155/276/155 148/268/148 149/269/149
f 154/275/154 145/268/145 165/269/165
f 154/275/154 165/269/165 149/269/149
f 166/297/166 156/269/156 149/269/149
f 154/275/154 124/227/124 125/225/125 148/268/148
f 159/275/159 144/275/144 145/268/145 154/275/154
f 149/269/149 131/230/131 128/230/128 155/276/155
f 156/269/156 129/225/129 131/230/131 149/269/149
f 149/269/149 127/229/127 124/227/124 154/275/154
f 165/269/165 121/227/121 123/225/123 144/275/144
f 174/337/174 181/338/181 183/339/183
f 184/358/184 198/359/198 197/360/197
f 203/360/203 204/363/204 194/364/194
f 206/268/206 184/358/184 183/366/183
f 184/358/184 207/367/207 198/359/198
f 197/360/197 208/368/208 191/369/191
f 198/359/198 208/368/208 197/360/197
f 183/370/183 181/371/181 210/372/210
f 211/373/211 203/360/203 201/374/201
f 212/375/212 181/376/181 194/364/194
f 204/363/204 212/375/212 194/364/194
f 184/358/184 206/268/206 207/367/207
f 198/359/198 207/367/207 213/377/213
f 208/368/208 198/359/198 214/378/214
f 183/370/183 210/372/210 206/379/206
f 211/373/211 201/374/201 215/380/215
f 212/379/212 210/381/210 181/382/181
f 216/383/216 203/360/203 211/373/211
f 216/383/216 204/363/204 203/360/203
f 187/384/187 215/380/215 201/374/201
f 217/385/217 215/380/215 187/384/187
f 208/368/208 219/387/219 196/388/196
f 214/378/214 198/359/198 213/377/213
f 219/387/219 208/368/208 214/378/214
f 220/389/220 212/375/212 204/363/204
f 217/390/217 222/391/222 221/392/221
f 187/393/187 222/394/222 217/395/217
f 221/396/221 222/394/222 187/393/187
f 187/393/187 223/397/223 221/396/221
f 224/398/224 223/397/223 187/393/187
f 187/399/187 218/400/218 224/401/224
f 224/402/224 218/403/218 196/404/196
f 196/405/196 225/406/225 224/398/224
f 226/407/226 225/406/225 196/405/196
f 196/405/196 227/408/227 226/407/226
f 228/409/228 227/408/227 196/405/196
f 196/388/196 219/387/219 228/410/228
f 207/367/207 206/268/206 229/411/229
f 229/411/229 213/377/213 207/367/207
f 204/363/204 216/383/216 220/389/220
f 211/373/211 215/380/215 230/412/230
f 231/413/231 219/387/219 214/378/214
f 230/412/230 215/380/215 217/385/217
f 230/414/230 217/390/217 221/392/221
f 221/392/221 223/415/223 224/401/224
f 226/416/226 227/417/227 228/418/228
f 224/402/224 225/419/225 226/416/226
f 206/379/206 210/372/210 232/420/232
f 232/421/232 210/381/210 212/379/212
f 228/410/228 219/387/219 231/413/231
f 226/416/226 228/418/228 231/422/231
f 216/383/216 211/373/211 230/412/230 233/423/233
f 231/413/231 214/378/214 213/377/213 234/424/234
f 234/424/234 213/377/213 229/411/229
f 232/420/232 229/425/229 206/379/206
f 220/389/220 216/383/216 233/423/233
f 220/426/220 232/421/232 212/379/212
f 235/427/235 230/414/230 221/392/221 224/401/224
f 231/422/231 235/428/235 224/402/224 226/416/226
f 233/429/233 232/421/232 220/426/220
f 229/425/229 232/420/232 234/430/234
f 236/431/236 233/429/233 230/414/230 235/427/235
f 235/428/235 231/422/231 234/430/234 236/432/236
f 234/430/234 232/420/232 236/432/236
f 236/431/236 232/421/232 233/429/233
usemtl D5BBCE74BBCC8DC49C909A1879CEBACE.001
f 152/272/152 153/273/153 92/274/92
f 91/301/91 152/272/152 92/274/92
f 100/309/100 92/274/92 153/273/153
f 152/272/152 91/301/91 101/310/101
f 170/318/170 153/273/153 152/272/152 169/319/169
f 179/340/179 169/319/169 187/341/187
f 100/309/100 153/273/153 189/342/189
f 190/343/190 152/272/152 101/310/101
f 190/343/190 187/341/187 169/319/169 152/272/152
f 153/273/153 170/318/170 196/356/196 189/342/189
f 196/356/196 170/318/170 188/365/188
f 196/356/196 218/386/218 187/341/187
usemtl 5E05C60C53814A653B315D9C50424580.001
f 183/331/183 173/332/173 174/333/174
f 180/334/180 175/335/175 184/336/184
f 184/336/184 175/335/175 173/332/173 183/331/183
f 137/344/137 114/345/114 176/346/176 191/347/191
f 178/348/178 194/349/194 181/350/181 172/351/172
f 194/349/194 178/348/178 182/354/182 195/355/195
f 197/357/197 180/334/180 184/336/184
f 193/361/193 201/345/201 195/355/195
f 195/355/195 201/345/201 203/362/203
f 195/355/195 203/362/203 194/349/194
f 191/347/191 176/346/176 180/334/180 197/357/197
