{"asset":{"version":"2.0","generator":"GLTFExporter"},"scenes":[{"name":"AuxScene","nodes":[17]}],"scene":0,"nodes":[{"rotation":[1,0,0,6.123233995736766e-17],"scale":[0.1,0.1,0.1],"mesh":0},{"rotation":[1,0,0,6.123233995736766e-17],"scale":[0.1,0.1,0.1],"mesh":1},{"rotation":[1,0,0,6.123233995736766e-17],"scale":[0.1,0.1,0.1],"mesh":2},{"rotation":[1,0,0,6.123233995736766e-17],"scale":[0.1,0.1,0.1],"mesh":3},{"rotation":[1,0,0,6.123233995736766e-17],"scale":[0.1,0.1,0.1],"mesh":4},{"rotation":[1,0,0,6.123233995736766e-17],"scale":[0.1,0.1,0.1],"mesh":5},{"rotation":[1,0,0,6.123233995736766e-17],"scale":[0.1,0.1,0.1],"mesh":6},{"rotation":[1,0,0,6.123233995736766e-17],"scale":[0.1,0.1,0.1],"mesh":7},{"rotation":[1,0,0,6.123233995736766e-17],"scale":[0.1,0.1,0.1],"mesh":8},{"rotation":[1,0,0,6.123233995736766e-17],"scale":[0.1,0.1,0.1],"mesh":9},{"rotation":[1,0,0,6.123233995736766e-17],"scale":[0.1,0.1,0.1],"mesh":10},{"rotation":[1,0,0,6.123233995736766e-17],"scale":[0.1,0.1,0.1],"mesh":11},{"rotation":[1,0,0,6.123233995736766e-17],"scale":[0.1,0.1,0.1],"mesh":12},{"rotation":[1,0,0,6.123233995736766e-17],"scale":[0.1,0.1,0.1],"mesh":13},{"rotation":[1,0,0,6.123233995736766e-17],"scale":[0.1,0.1,0.1],"mesh":14},{"rotation":[1,0,0,6.123233995736766e-17],"scale":[0.1,0.1,0.1],"mesh":15},{"rotation":[1,0,0,6.123233995736766e-17],"scale":[0.1,0.1,0.1],"mesh":16},{"children":[0,1,2,3,4,5,6,7,8,9,10,11,12,13,14,15,16]}],"bufferViews":[{"buffer":0,"byteOffset":0,"byteLength":36,"target":34962,"byteStride":12},{"buffer":0,"byteOffset":36,"byteLength":36,"target":34962,"byteStride":12},{"buffer":0,"byteOffset":72,"byteLength":24,"target":34962,"byteStride":8},{"buffer":0,"byteOffset":96,"byteLength":36,"target":34962,"byteStride":12},{"buffer":0,"byteOffset":132,"byteLength":8,"target":34963},{"buffer":0,"byteOffset":140,"byteLength":36,"target":34962,"byteStride":12},{"buffer":0,"byteOffset":176,"byteLength":36,"target":34962,"byteStride":12},{"buffer":0,"byteOffset":212,"byteLength":24,"target":34962,"byteStride":8},{"buffer":0,"byteOffset":236,"byteLength":36,"target":34962,"byteStride":12},{"buffer":0,"byteOffset":272,"byteLength":8,"target":34963},{"buffer":0,"byteOffset":280,"byteLength":36,"target":34962,"byteStride":12},{"buffer":0,"byteOffset":316,"byteLength":36,"target":34962,"byteStride":12},{"buffer":0,"byteOffset":352,"byteLength":24,"target":34962,"byteStride":8},{"buffer":0,"byteOffset":376,"byteLength":36,"target":34962,"byteStride":12},{"buffer":0,"byteOffset":412,"byteLength":8,"target":34963},{"buffer":0,"byteOffset":420,"byteLength":36,"target":34962,"byteStride":12},{"buffer":0,"byteOffset":456,"byteLength":36,"target":34962,"byteStride":12},{"buffer":0,"byteOffset":492,"byteLength":24,"target":34962,"byteStride":8},{"buffer":0,"byteOffset":516,"byteLength":36,"target":34962,"byteStride":12},{"buffer":0,"byteOffset":552,"byteLength":8,"target":34963},{"buffer":0,"byteOffset":560,"byteLength":36,"target":34962,"byteStride":12},{"buffer":0,"byteOffset":596,"byteLength":36,"target":34962,"byteStride":12},{"buffer":0,"byteOffset":632,"byteLength":24,"target":34962,"byteStride":8},{"buffer":0,"byteOffset":656,"byteLength":36,"target":34962,"byteStride":12},{"buffer":0,"byteOffset":692,"byteLength":8,"target":34963},{"buffer":0,"byteOffset":700,"byteLength":36,"target":34962,"byteStride":12},{"buffer":0,"byteOffset":736,"byteLength":36,"target":34962,"byteStride":12},{"buffer":0,"byteOffset":772,"byteLength":24,"target":34962,"byteStride":8},{"buffer":0,"byteOffset":796,"byteLength":36,"target":34962,"byteStride":12},{"buffer":0,"byteOffset":832,"byteLength":8,"target":34963},{"buffer":0,"byteOffset":840,"byteLength":192,"target":34962,"byteStride":12},{"buffer":0,"byteOffset":1032,"byteLength":192,"target":34962,"byteStride":12},{"buffer":0,"byteOffset":1224,"byteLength":128,"target":34962,"byteStride":8},{"buffer":0,"byteOffset":1352,"byteLength":192,"target":34962,"byteStride":12},{"buffer":0,"byteOffset":1544,"byteLength":48,"target":34963},{"buffer":0,"byteOffset":1592,"byteLength":192,"target":34962,"byteStride":12},{"buffer":0,"byteOffset":1784,"byteLength":192,"target":34962,"byteStride":12},{"buffer":0,"byteOffset":1976,"byteLength":128,"target":34962,"byteStride":8},{"buffer":0,"byteOffset":2104,"byteLength":192,"target":34962,"byteStride":12},{"buffer":0,"byteOffset":2296,"byteLength":48,"target":34963},{"buffer":0,"byteOffset":2344,"byteLength":192,"target":34962,"byteStride":12},{"buffer":0,"byteOffset":2536,"byteLength":192,"target":34962,"byteStride":12},{"buffer":0,"byteOffset":2728,"byteLength":128,"target":34962,"byteStride":8},{"buffer":0,"byteOffset":2856,"byteLength":192,"target":34962,"byteStride":12},{"buffer":0,"byteOffset":3048,"byteLength":48,"target":34963},{"buffer":0,"byteOffset":3096,"byteLength":3120,"target":34962,"byteStride":12},{"buffer":0,"byteOffset":6216,"byteLength":3120,"target":34962,"byteStride":12},{"buffer":0,"byteOffset":9336,"byteLength":2080,"target":34962,"byteStride":8},{"buffer":0,"byteOffset":11416,"byteLength":3120,"target":34962,"byteStride":12},{"buffer":0,"byteOffset":14536,"byteLength":720,"target":34963},{"buffer":0,"byteOffset":15256,"byteLength":1824,"target":34962,"byteStride":12},{"buffer":0,"byteOffset":17080,"byteLength":1824,"target":34962,"byteStride":12},{"buffer":0,"byteOffset":18904,"byteLength":1216,"target":34962,"byteStride":8},{"buffer":0,"byteOffset":20120,"byteLength":1824,"target":34962,"byteStride":12},{"buffer":0,"byteOffset":21944,"byteLength":408,"target":34963},{"buffer":0,"byteOffset":22352,"byteLength":132,"target":34962,"byteStride":12},{"buffer":0,"byteOffset":22484,"byteLength":132,"target":34962,"byteStride":12},{"buffer":0,"byteOffset":22616,"byteLength":88,"target":34962,"byteStride":8},{"buffer":0,"byteOffset":22704,"byteLength":132,"target":34962,"byteStride":12},{"buffer":0,"byteOffset":22836,"byteLength":32,"target":34963},{"buffer":0,"byteOffset":22868,"byteLength":48,"target":34962,"byteStride":12},{"buffer":0,"byteOffset":22916,"byteLength":48,"target":34962,"byteStride":12},{"buffer":0,"byteOffset":22964,"byteLength":32,"target":34962,"byteStride":8},{"buffer":0,"byteOffset":22996,"byteLength":48,"target":34962,"byteStride":12},{"buffer":0,"byteOffset":23044,"byteLength":12,"target":34963},{"buffer":0,"byteOffset":23056,"byteLength":48,"target":34962,"byteStride":12},{"buffer":0,"byteOffset":23104,"byteLength":48,"target":34962,"byteStride":12},{"buffer":0,"byteOffset":23152,"byteLength":32,"target":34962,"byteStride":8},{"buffer":0,"byteOffset":23184,"byteLength":48,"target":34962,"byteStride":12},{"buffer":0,"byteOffset":23232,"byteLength":12,"target":34963},{"buffer":0,"byteOffset":23244,"byteLength":96,"target":34962,"byteStride":12},{"buffer":0,"byteOffset":23340,"byteLength":96,"target":34962,"byteStride":12},{"buffer":0,"byteOffset":23436,"byteLength":64,"target":34962,"byteStride":8},{"buffer":0,"byteOffset":23500,"byteLength":96,"target":34962,"byteStride":12},{"buffer":0,"byteOffset":23596,"byteLength":24,"target":34963},{"buffer":0,"byteOffset":23620,"byteLength":48,"target":34962,"byteStride":12},{"buffer":0,"byteOffset":23668,"byteLength":48,"target":34962,"byteStride":12},{"buffer":0,"byteOffset":23716,"byteLength":32,"target":34962,"byteStride":8},{"buffer":0,"byteOffset":23748,"byteLength":48,"target":34962,"byteStride":12},{"buffer":0,"byteOffset":23796,"byteLength":12,"target":34963},{"buffer":0,"byteOffset":23808,"byteLength":1944,"target":34962,"byteStride":12},{"buffer":0,"byteOffset":25752,"byteLength":1944,"target":34962,"byteStride":12},{"buffer":0,"byteOffset":27696,"byteLength":1296,"target":34962,"byteStride":8},{"buffer":0,"byteOffset":28992,"byteLength":1944,"target":34962,"byteStride":12},{"buffer":0,"byteOffset":30936,"byteLength":456,"target":34963}],"buffers":[{"byteLength":31392,"uri":"data:application/octet-stream;base64,"}],"accessors":[{"bufferView":0,"componentType":5126,"count":3,"max":[640,0,1984],"min":[512,0,1920],"type":"VEC3"},{"bufferView":1,"componentType":5126,"count":3,"max":[0.3137255012989044,1,0.5647059082984924],"min":[0,0,0],"type":"VEC3"},{"bufferView":2,"componentType":5126,"count":3,"max":[0.7421875,0.75],"min":[0.625,0.6953125],"type":"VEC2"},{"bufferView":3,"componentType":5126,"count":3,"max":[0,-1,0],"min":[0,-1,0],"type":"VEC3"},{"bufferView":4,"componentType":5123,"count":3,"max":[2],"min":[0],"type":"SCALAR"},{"bufferView":5,"componentType":5126,"count":3,"max":[640,0,1984],"min":[512,0,1920],"type":"VEC3"},{"bufferView":6,"componentType":5126,"count":3,"max":[0.9372549057006836,0.250980406999588,0],"min":[0,0,0],"type":"VEC3"},{"bufferView":7,"componentType":5126,"count":3,"max":[0.7421875,0.75],"min":[0.625,0.6953125],"type":"VEC2"},{"bufferView":8,"componentType":5126,"count":3,"max":[0,-1,0],"min":[0,-1,0],"type":"VEC3"},{"bufferView":9,"componentType":5123,"count":3,"max":[2],"min":[0],"type":"SCALAR"},{"bufferView":10,"componentType":5126,"count":3,"max":[640,0,0],"min":[512,0,-64],"type":"VEC3"},{"bufferView":11,"componentType":5126,"count":3,"max":[0.3137255012989044,1,0.5647059082984924],"min":[0,0,0],"type":"VEC3"},{"bufferView":12,"componentType":5126,"count":3,"max":[0.7421875,0.75],"min":[0.625,0.6953125],"type":"VEC2"},{"bufferView":13,"componentType":5126,"count":3,"max":[0,-1,0],"min":[0,-1,0],"type":"VEC3"},{"bufferView":14,"componentType":5123,"count":3,"max":[2],"min":[0],"type":"SCALAR"},{"bufferView":15,"componentType":5126,"count":3,"max":[640,0,0],"min":[512,0,-64],"type":"VEC3"},{"bufferView":16,"componentType":5126,"count":3,"max":[0.9372549057006836,0.250980406999588,0],"min":[0,0,0],"type":"VEC3"},{"bufferView":17,"componentType":5126,"count":3,"max":[0.7421875,0.75],"min":[0.625,0.6953125],"type":"VEC2"},{"bufferView":18,"componentType":5126,"count":3,"max":[0,-1,0],"min":[0,-1,0],"type":"VEC3"},{"bufferView":19,"componentType":5123,"count":3,"max":[2],"min":[0],"type":"SCALAR"},{"bufferView":20,"componentType":5126,"count":3,"max":[0,0,1024],"min":[-64,0,896],"type":"VEC3"},{"bufferView":21,"componentType":5126,"count":3,"max":[0.3137255012989044,1,0.5647059082984924],"min":[0,0,0],"type":"VEC3"},{"bufferView":22,"componentType":5126,"count":3,"max":[0.7421875,0.75],"min":[0.625,0.6953125],"type":"VEC2"},{"bufferView":23,"componentType":5126,"count":3,"max":[0,-1,0],"min":[0,-1,0],"type":"VEC3"},{"bufferView":24,"componentType":5123,"count":3,"max":[2],"min":[0],"type":"SCALAR"},{"bufferView":25,"componentType":5126,"count":3,"max":[0,0,1024],"min":[-64,0,896],"type":"VEC3"},{"bufferView":26,"componentType":5126,"count":3,"max":[0.9372549057006836,0.250980406999588,0],"min":[0,0,0],"type":"VEC3"},{"bufferView":27,"componentType":5126,"count":3,"max":[0.7421875,0.75],"min":[0.625,0.6953125],"type":"VEC2"},{"bufferView":28,"componentType":5126,"count":3,"max":[0,-1,0],"min":[0,-1,0],"type":"VEC3"},{"bufferView":29,"componentType":5123,"count":3,"max":[2],"min":[0],"type":"SCALAR"},{"bufferView":30,"componentType":5126,"count":16,"max":[127,0,1],"min":[-1,-256,1],"type":"VEC3"},{"bufferView":31,"componentType":5126,"count":16,"max":[0.4117647111415863,0.3490196168422699,0.2980392277240753],"min":[0.03921568766236305,0.03921568766236305,0.03921568766236305],"type":"VEC3"},{"bufferView":32,"componentType":5126,"count":16,"max":[0.9921875,0.25],"min":[0.875,0.0078125],"type":"VEC2"},{"bufferView":33,"componentType":5126,"count":16,"max":[0,0,1],"min":[0,0,-1],"type":"VEC3"},{"bufferView":34,"componentType":5123,"count":24,"max":[15],"min":[0],"type":"SCALAR"},{"bufferView":35,"componentType":5126,"count":16,"max":[127,0,-1],"min":[-1,-256,-1],"type":"VEC3"},{"bufferView":36,"componentType":5126,"count":16,"max":[0.4000000059604645,0.3607843220233917,0.32156863808631897],"min":[0.03921568766236305,0.03921568766236305,0.03921568766236305],"type":"VEC3"},{"bufferView":37,"componentType":5126,"count":16,"max":[0.8671875,0.25],"min":[0.75,0.0078125],"type":"VEC2"},{"bufferView":38,"componentType":5126,"count":16,"max":[0,0,1],"min":[0,0,-1],"type":"VEC3"},{"bufferView":39,"componentType":5123,"count":24,"max":[15],"min":[0],"type":"SCALAR"},{"bufferView":40,"componentType":5126,"count":16,"max":[-1,0,1],"min":[-1,-256,-127],"type":"VEC3"},{"bufferView":41,"componentType":5126,"count":16,"max":[0.3019607961177826,0.2235294133424759,0.15294118225574493],"min":[0.03921568766236305,0.03921568766236305,0.03921568766236305],"type":"VEC3"},{"bufferView":42,"componentType":5126,"count":16,"max":[0.9921875,0.25],"min":[0.875,0.0078125],"type":"VEC2"},{"bufferView":43,"componentType":5126,"count":16,"max":[1,0,0],"min":[-1,0,0],"type":"VEC3"},{"bufferView":44,"componentType":5123,"count":24,"max":[15],"min":[0],"type":"SCALAR"},{"bufferView":45,"componentType":5126,"count":260,"max":[768,0,1920],"min":[0,0,0],"type":"VEC3"},{"bufferView":46,"componentType":5126,"count":260,"max":[0.8117647171020508,0.8117647171020508,0.8117647171020508],"min":[0,0,0],"type":"VEC3"},{"bufferView":47,"componentType":5126,"count":260,"max":[0.7421875,0.5],"min":[0.125,0.0078125],"type":"VEC2"},{"bufferView":48,"componentType":5126,"count":260,"max":[0,-1,0],"min":[0,-1,0],"type":"VEC3"},{"bufferView":49,"componentType":5123,"count":360,"max":[259],"min":[0],"type":"SCALAR"},{"bufferView":50,"componentType":5126,"count":152,"max":[896,0,1664],"min":[768,-32,256],"type":"VEC3"},{"bufferView":51,"componentType":5126,"count":152,"max":[0.3019607961177826,0.3019607961177826,0.3019607961177826],"min":[0,0,0],"type":"VEC3"},{"bufferView":52,"componentType":5126,"count":152,"max":[0.7421875,0.5],"min":[0.6171875,0.0078125],"type":"VEC2"},{"bufferView":53,"componentType":5126,"count":152,"max":[0,0,1],"min":[-1,-1,0],"type":"VEC3"},{"bufferView":54,"componentType":5123,"count":204,"max":[151],"min":[0],"type":"SCALAR"},{"bufferView":55,"componentType":5126,"count":11,"max":[784,0,1392],"min":[768,-32,1152],"type":"VEC3"},{"bufferView":56,"componentType":5126,"count":11,"max":[0.0784313753247261,0.0784313753247261,0.0784313753247261],"min":[0,0,0],"type":"VEC3"},{"bufferView":57,"componentType":5126,"count":11,"max":[0.4921875,0.2890625],"min":[0.2578125,0.2578125],"type":"VEC2"},{"bufferView":58,"componentType":5126,"count":11,"max":[-0.8728715777397156,0,0],"min":[-1,-0.4364357888698578,-0.2182178944349289],"type":"VEC3"},{"bufferView":59,"componentType":5123,"count":15,"max":[10],"min":[0],"type":"SCALAR"},{"bufferView":60,"componentType":5126,"count":4,"max":[384,-256,512],"min":[256,-256,384],"type":"VEC3"},{"bufferView":61,"componentType":5126,"count":4,"max":[0.6784313917160034,0.6274510025978088,0.5843137502670288],"min":[0.10196078568696976,0.10196078568696976,0.10196078568696976],"type":"VEC3"},{"bufferView":62,"componentType":5126,"count":4,"max":[0.1171875,0.125],"min":[0,0.0078125],"type":"VEC2"},{"bufferView":63,"componentType":5126,"count":4,"max":[0,-1,0],"min":[0,-1,0],"type":"VEC3"},{"bufferView":64,"componentType":5123,"count":6,"max":[3],"min":[0],"type":"SCALAR"},{"bufferView":65,"componentType":5126,"count":4,"max":[512,-128,384],"min":[384,-128,256],"type":"VEC3"},{"bufferView":66,"componentType":5126,"count":4,"max":[0.43529412150382996,0.43529412150382996,0.4431372582912445],"min":[0,0,0],"type":"VEC3"},{"bufferView":67,"componentType":5126,"count":4,"max":[0.4921875,0.125],"min":[0.375,0.0078125],"type":"VEC2"},{"bufferView":68,"componentType":5126,"count":4,"max":[0,-1,0],"min":[0,-1,0],"type":"VEC3"},{"bufferView":69,"componentType":5123,"count":6,"max":[3],"min":[0],"type":"SCALAR"},{"bufferView":70,"componentType":5126,"count":8,"max":[376,-128,760],"min":[264,-128,520],"type":"VEC3"},{"bufferView":71,"componentType":5126,"count":8,"max":[0.800000011920929,0.800000011920929,0.800000011920929],"min":[0.10196078568696976,0.10196078568696976,0.10196078568696976],"type":"VEC3"},{"bufferView":72,"componentType":5126,"count":8,"max":[0.7421875,0.25],"min":[0.5,0.1328125],"type":"VEC2"},{"bufferView":73,"componentType":5126,"count":8,"max":[0,-1,0],"min":[0,-1,0],"type":"VEC3"},{"bufferView":74,"componentType":5123,"count":12,"max":[7],"min":[0],"type":"SCALAR"},{"bufferView":75,"componentType":5126,"count":4,"max":[384,-256,376],"min":[264,-256,256],"type":"VEC3"},{"bufferView":76,"componentType":5126,"count":4,"max":[0.34117648005485535,0.34117648005485535,0.3490196168422699],"min":[0.07450980693101883,0.07450980693101883,0.08235294371843338],"type":"VEC3"},{"bufferView":77,"componentType":5126,"count":4,"max":[0.2421875,0.25],"min":[0.125,0.1328125],"type":"VEC2"},{"bufferView":78,"componentType":5126,"count":4,"max":[0,-1,0],"min":[0,-1,0],"type":"VEC3"},{"bufferView":79,"componentType":5123,"count":6,"max":[3],"min":[0],"type":"SCALAR"},{"bufferView":80,"componentType":5126,"count":162,"max":[896,0,1920],"min":[240,-768,1664],"type":"VEC3"},{"bufferView":81,"componentType":5126,"count":162,"max":[0.3019607961177826,0.3019607961177826,0.3019607961177826],"min":[0,0,0],"type":"VEC3"},{"bufferView":82,"componentType":5126,"count":162,"max":[0.9921875,1],"min":[0.25,0.2578125],"type":"VEC2"},{"bufferView":83,"componentType":5126,"count":162,"max":[1,1,0],"min":[-1,0,-1],"type":"VEC3"},{"bufferView":84,"componentType":5123,"count":228,"max":[161],"min":[0],"type":"SCALAR"}],"materials":[{"pbrMetallicRoughness":{"metallicFactor":0,"roughnessFactor":0.9,"baseColorTexture":{"index":0}},"extensions":{"KHR_materials_unlit":{}},"alphaMode":"BLEND","doubleSided":false},{"pbrMetallicRoughness":{"metallicFactor":0,"roughnessFactor":0.9,"baseColorTexture":{"index":1}},"extensions":{"KHR_materials_unlit":{}},"alphaMode":"BLEND","doubleSided":false},{"pbrMetallicRoughness":{"metallicFactor":0,"roughnessFactor":0.9,"baseColorTexture":{"index":2}},"extensions":{"KHR_materials_unlit":{}},"alphaMode":"BLEND","doubleSided":false},{"pbrMetallicRoughness":{"metallicFactor":0,"roughnessFactor":0.9,"baseColorTexture":{"index":3}},"extensions":{"KHR_materials_unlit":{}},"alphaMode":"BLEND","doubleSided":false},{"pbrMetallicRoughness":{"metallicFactor":0,"roughnessFactor":0.9,"baseColorTexture":{"index":4}},"extensions":{"KHR_materials_unlit":{}},"alphaMode":"BLEND","doubleSided":false},{"pbrMetallicRoughness":{"metallicFactor":0,"roughnessFactor":0.9,"baseColorTexture":{"index":5}},"extensions":{"KHR_materials_unlit":{}},"alphaMode":"BLEND","doubleSided":false},{"pbrMetallicRoughness":{"metallicFactor":0,"roughnessFactor":0.9,"baseColorTexture":{"index":6}},"extensions":{"KHR_materials_unlit":{}},"alphaMode":"BLEND","doubleSided":false},{"pbrMetallicRoughness":{"metallicFactor":0,"roughnessFactor":0.9,"baseColorTexture":{"index":7}},"extensions":{"KHR_materials_unlit":{}},"alphaMode":"BLEND","doubleSided":false},{"pbrMetallicRoughness":{"metallicFactor":0,"roughnessFactor":0.9,"baseColorTexture":{"index":8}},"extensions":{"KHR_materials_unlit":{}},"alphaMode":"BLEND","doubleSided":false},{"pbrMetallicRoughness":{"metallicFactor":0,"roughnessFactor":0.9,"baseColorTexture":{"index":9}},"extensions":{"KHR_materials_unlit":{}},"alphaMode":"BLEND","doubleSided":false},{"pbrMetallicRoughness":{"metallicFactor":0,"roughnessFactor":0.9,"baseColorTexture":{"index":10}},"extensions":{"KHR_materials_unlit":{}},"alphaMode":"BLEND","doubleSided":false},{"pbrMetallicRoughness":{"metallicFactor":0,"roughnessFactor":0.9,"baseColorTexture":{"index":11}},"extensions":{"KHR_materials_unlit":{}},"alphaMode":"BLEND","doubleSided":false},{"pbrMetallicRoughness":{"metallicFactor":0,"roughnessFactor":0.9,"baseColorTexture":{"index":12}},"extensions":{"KHR_materials_unlit":{}},"alphaMode":"BLEND","doubleSided":false},{"pbrMetallicRoughness":{"metallicFactor":0,"roughnessFactor":0.9,"baseColorTexture":{"index":13}},"extensions":{"KHR_materials_unlit":{}},"alphaMode":"BLEND","doubleSided":false},{"pbrMetallicRoughness":{"metallicFactor":0,"roughnessFactor":0.9,"baseColorTexture":{"index":14}},"extensions":{"KHR_materials_unlit":{}},"alphaMode":"BLEND","doubleSided":false},{"pbrMetallicRoughness":{"metallicFactor":0,"roughnessFactor":0.9,"baseColorTexture":{"index":15}},"extensions":{"KHR_materials_unlit":{}},"alphaMode":"BLEND","doubleSided":false},{"pbrMetallicRoughness":{"metallicFactor":0,"roughnessFactor":0.9,"baseColorTexture":{"index":16}},"extensions":{"KHR_materials_unlit":{}},"alphaMode":"BLEND","doubleSided":false}],"textures":[{"sampler":0,"source":0},{"sampler":1,"source":0},{"sampler":2,"source":0},{"sampler":3,"source":0},{"sampler":4,"source":0},{"sampler":5,"source":0},{"sampler":6,"source":1},{"sampler":7,"source":2},{"sampler":8,"source":1},{"sampler":9,"source":3},{"sampler":10,"source":3},{"sampler":11,"source":4},{"sampler":12,"source":5},{"sampler":13,"source":6},{"sampler":14,"source":7},{"sampler":15,"source":8},{"sampler":16,"source":4}],"samplers":[{"magFilter":9728,"minFilter":9728,"wrapS":10497,"wrapT":10497},{"magFilter":9728,"minFilter":9728,"wrapS":10497,"wrapT":10497},{"magFilter":9728,"minFilter":9728,"wrapS":10497,"wrapT":10497},{"magFilter":9728,"minFilter":9728,"wrapS":10497,"wrapT":10497},{"magFilter":9728,"minFilter":9728,"wrapS":10497,"wrapT":10497},{"magFilter":9728,"minFilter":9728,"wrapS":10497,"wrapT":10497},{"magFilter":9728,"minFilter":9728,"wrapS":10497,"wrapT":10497},{"magFilter":9728,"minFilter":9728,"wrapS":10497,"wrapT":10497},{"magFilter":9728,"minFilter":9728,"wrapS":10497,"wrapT":10497},{"magFilter":9728,"minFilter":9728,"wrapS":10497,"wrapT":10497},{"magFilter":9728,"minFilter":9728,"wrapS":10497,"wrapT":10497},{"magFilter":9728,"minFilter":9728,"wrapS":10497,"wrapT":10497},{"magFilter":9728,"minFilter":9728,"wrapS":10497,"wrapT":10497},{"magFilter":9728,"minFilter":9728,"wrapS":10497,"wrapT":10497},{"magFilter":9728,"minFilter":9728,"wrapS":10497,"wrapT":10497},{"magFilter":9728,"minFilter":9728,"wrapS":10497,"wrapT":10497},{"magFilter":9728,"minFilter":9728,"wrapS":10497,"wrapT":10497}],"images":[{"mimeType":"image/png","uri":"MAP113_0.png"},{"mimeType":"image/png","uri":"MAP113_1.png"},{"mimeType":"image/png","uri":"MAP113_2.png"},{"mimeType":"image/png","uri":"MAP113_3.png"},{"mimeType":"image/png","uri":"MAP113_4.png"},{"mimeType":"image/png","uri":"MAP113_5.png"},{"mimeType":"image/png","uri":"MAP113_6.png"},{"mimeType":"image/png","uri":"MAP113_7.png"},{"mimeType":"image/png","uri":"MAP113_8.png"}],"meshes":[{"primitives":[{"mode":4,"attributes":{"POSITION":0,"COLOR_0":1,"TEXCOORD_0":2,"NORMAL":3},"indices":4,"material":0}]},{"primitives":[{"mode":4,"attributes":{"POSITION":5,"COLOR_0":6,"TEXCOORD_0":7,"NORMAL":8},"indices":9,"material":1}]},{"primitives":[{"mode":4,"attributes":{"POSITION":10,"COLOR_0":11,"TEXCOORD_0":12,"NORMAL":13},"indices":14,"material":2}]},{"primitives":[{"mode":4,"attributes":{"POSITION":15,"COLOR_0":16,"TEXCOORD_0":17,"NORMAL":18},"indices":19,"material":3}]},{"primitives":[{"mode":4,"attributes":{"POSITION":20,"COLOR_0":21,"TEXCOORD_0":22,"NORMAL":23},"indices":24,"material":4}]},{"primitives":[{"mode":4,"attributes":{"POSITION":25,"COLOR_0":26,"TEXCOORD_0":27,"NORMAL":28},"indices":29,"material":5}]},{"primitives":[{"mode":4,"attributes":{"POSITION":30,"COLOR_0":31,"TEXCOORD_0":32,"NORMAL":33},"indices":34,"material":6}]},{"primitives":[{"mode":4,"attributes":{"POSITION":35,"COLOR_0":36,"TEXCOORD_0":37,"NORMAL":38},"indices":39,"material":7}]},{"primitives":[{"mode":4,"attributes":{"POSITION":40,"COLOR_0":41,"TEXCOORD_0":42,"NORMAL":43},"indices":44,"material":8}]},{"primitives":[{"mode":4,"attributes":{"POSITION":45,"COLOR_0":46,"TEXCOORD_0":47,"NORMAL":48},"indices":49,"material":9}]},{"primitives":[{"mode":4,"attributes":{"POSITION":50,"COLOR_0":51,"TEXCOORD_0":52,"NORMAL":53},"indices":54,"material":10}]},{"primitives":[{"mode":4,"attributes":{"POSITION":55,"COLOR_0":56,"TEXCOORD_0":57,"NORMAL":58},"indices":59,"material":11}]},{"primitives":[{"mode":4,"attributes":{"POSITION":60,"COLOR_0":61,"TEXCOORD_0":62,"NORMAL":63},"indices":64,"material":12}]},{"primitives":[{"mode":4,"attributes":{"POSITION":65,"COLOR_0":66,"TEXCOORD_0":67,"NORMAL":68},"indices":69,"material":13}]},{"primitives":[{"mode":4,"attributes":{"POSITION":70,"COLOR_0":71,"TEXCOORD_0":72,"NORMAL":73},"indices":74,"material":14}]},{"primitives":[{"mode":4,"attributes":{"POSITION":75,"COLOR_0":76,"TEXCOORD_0":77,"NORMAL":78},"indices":79,"material":15}]},{"primitives":[{"mode":4,"attributes":{"POSITION":80,"COLOR_0":81,"TEXCOORD_0":82,"NORMAL":83},"indices":84,"material":16}]}],"extensionsUsed":["KHR_materials_unlit"]}