mtllib MAP113.mtl
o mesh_0
usemtl mat0
v 51.2 -2.3513218543629183e-14 -192
v 57.6 -2.4296992495083487e-14 -198.4
v 64 -2.3513218543629183e-14 -192
vt 0.625 0.3046875
vt 0.6796875 0.25
vt 0.7421875 0.3046875
vn 0 1 -1.2246467991473532e-16
vn 0 1 -1.2246467991473532e-16
vn 0 1 -1.2246467991473532e-16
f 3/3/3 2/2/2 1/1/1
o mesh_1
usemtl mat0
v 51.2 -2.3513218543629183e-14 -192
v 57.6 -2.4296992495083487e-14 -198.4
v 64 -2.3513218543629183e-14 -192
vt 0.625 0.3046875
vt 0.6796875 0.25
vt 0.7421875 0.3046875
vn 0 1 -1.2246467991473532e-16
vn 0 1 -1.2246467991473532e-16
vn 0 1 -1.2246467991473532e-16
f 6/6/6 5/5/5 4/4/4
o mesh_2
usemtl mat0
v 64 0 0
v 57.6 7.837739514543061e-16 6.4
v 51.2 0 0
vt 0.625 0.3046875
vt 0.6796875 0.25
vt 0.7421875 0.3046875
vn 0 1 -1.2246467991473532e-16
vn 0 1 -1.2246467991473532e-16
vn 0 1 -1.2246467991473532e-16
f 9/9/9 8/8/8 7/7/7
o mesh_3
usemtl mat0
v 64 0 0
v 57.6 7.837739514543061e-16 6.4
v 51.2 0 0
vt 0.625 0.3046875
vt 0.6796875 0.25
vt 0.7421875 0.3046875
vn 0 1 -1.2246467991473532e-16
vn 0 1 -1.2246467991473532e-16
vn 0 1 -1.2246467991473532e-16
f 12/12/12 11/11/11 10/10/10
o mesh_4
usemtl mat0
v 0 -1.0972835320360286e-14 -89.60000000000001
v -6.4 -1.1756609271814592e-14 -96
v 0 -1.2540383223268897e-14 -102.4
vt 0.625 0.3046875
vt 0.6796875 0.25
vt 0.7421875 0.3046875
vn 0 1 -1.2246467991473532e-16
vn 0 1 -1.2246467991473532e-16
vn 0 1 -1.2246467991473532e-16
f 15/15/15 14/14/14 13/13/13
o mesh_5
usemtl mat0
v 0 -1.0972835320360286e-14 -89.60000000000001
v -6.4 -1.1756609271814592e-14 -96
v 0 -1.2540383223268897e-14 -102.4
vt 0.625 0.3046875
vt 0.6796875 0.25
vt 0.7421875 0.3046875
vn 0 1 -1.2246467991473532e-16
vn 0 1 -1.2246467991473532e-16
vn 0 1 -1.2246467991473532e-16
f 18/18/18 17/17/17 16/16/16
o mesh_6
usemtl mat1
v 12.700000000000001 12.8 -0.10000000000000157
v -0.1 12.8 -0.10000000000000157
v 12.700000000000001 25.6 -0.10000000000000314
v -0.1 25.6 -0.10000000000000314
v -0.1 12.8 -0.10000000000000157
v 12.700000000000001 12.8 -0.10000000000000157
v -0.1 25.6 -0.10000000000000314
v 12.700000000000001 25.6 -0.10000000000000314
v -0.1 -1.2246467991473533e-17 -0.1
v 12.700000000000001 -1.2246467991473533e-17 -0.1
v -0.1 12.8 -0.10000000000000157
v 12.700000000000001 12.8 -0.10000000000000157
v 12.700000000000001 -1.2246467991473533e-17 -0.1
v -0.1 -1.2246467991473533e-17 -0.1
v 12.700000000000001 12.8 -0.10000000000000157
v -0.1 12.8 -0.10000000000000157
vt 0.9921875 0.875
vt 0.875 0.875
vt 0.9921875 0.75
vt 0.875 0.75
vt 0.875 0.875
vt 0.9921875 0.875
vt 0.875 0.75
vt 0.9921875 0.75
vt 0.875 0.9921875
vt 0.9921875 0.9921875
vt 0.875 0.875
vt 0.9921875 0.875
vt 0.9921875 0.9921875
vt 0.875 0.9921875
vt 0.9921875 0.875
vt 0.875 0.875
vn 0 1.2246467991473532e-16 1
vn 0 1.2246467991473532e-16 1
vn 0 1.2246467991473532e-16 1
vn 0 1.2246467991473532e-16 1
vn 0 -1.2246467991473532e-16 -1
vn 0 -1.2246467991473532e-16 -1
vn 0 -1.2246467991473532e-16 -1
vn 0 -1.2246467991473532e-16 -1
vn 0 -1.2246467991473532e-16 -1
vn 0 -1.2246467991473532e-16 -1
vn 0 -1.2246467991473532e-16 -1
vn 0 -1.2246467991473532e-16 -1
vn 0 1.2246467991473532e-16 1
vn 0 1.2246467991473532e-16 1
vn 0 1.2246467991473532e-16 1
vn 0 1.2246467991473532e-16 1
f 21/21/21 20/20/20 19/19/19
f 20/20/20 21/21/21 22/22/22
f 25/25/25 24/24/24 23/23/23
f 24/24/24 25/25/25 26/26/26
f 29/29/29 28/28/28 27/27/27
f 28/28/28 29/29/29 30/30/30
f 33/33/33 32/32/32 31/31/31
f 32/32/32 33/33/33 34/34/34
o mesh_7
usemtl mat2
v -0.1 12.8 0.09999999999999844
v 12.700000000000001 12.8 0.09999999999999844
v -0.1 25.6 0.09999999999999687
v 12.700000000000001 25.6 0.09999999999999687
v 12.700000000000001 12.8 0.09999999999999844
v -0.1 12.8 0.09999999999999844
v 12.700000000000001 25.6 0.09999999999999687
v -0.1 25.6 0.09999999999999687
v 12.700000000000001 1.2246467991473533e-17 0.1
v -0.1 1.2246467991473533e-17 0.1
v 12.700000000000001 12.8 0.09999999999999844
v -0.1 12.8 0.09999999999999844
v -0.1 1.2246467991473533e-17 0.1
v 12.700000000000001 1.2246467991473533e-17 0.1
v -0.1 12.8 0.09999999999999844
v 12.700000000000001 12.8 0.09999999999999844
vt 0.75 0.875
vt 0.8671875 0.875
vt 0.75 0.75
vt 0.8671875 0.75
vt 0.8671875 0.875
vt 0.75 0.875
vt 0.8671875 0.75
vt 0.75 0.75
vt 0.8671875 0.9921875
vt 0.75 0.9921875
vt 0.8671875 0.875
vt 0.75 0.875
vt 0.75 0.9921875
vt 0.8671875 0.9921875
vt 0.75 0.875
vt 0.8671875 0.875
vn 0 -1.2246467991473532e-16 -1
vn 0 -1.2246467991473532e-16 -1
vn 0 -1.2246467991473532e-16 -1
vn 0 -1.2246467991473532e-16 -1
vn 0 1.2246467991473532e-16 1
vn 0 1.2246467991473532e-16 1
vn 0 1.2246467991473532e-16 1
vn 0 1.2246467991473532e-16 1
vn 0 1.2246467991473532e-16 1
vn 0 1.2246467991473532e-16 1
vn 0 1.2246467991473532e-16 1
vn 0 1.2246467991473532e-16 1
vn 0 -1.2246467991473532e-16 -1
vn 0 -1.2246467991473532e-16 -1
vn 0 -1.2246467991473532e-16 -1
vn 0 -1.2246467991473532e-16 -1
f 37/37/37 36/36/36 35/35/35
f 36/36/36 37/37/37 38/38/38
f 41/41/41 40/40/40 39/39/39
f 40/40/40 41/41/41 42/42/42
f 45/45/45 44/44/44 43/43/43
f 44/44/44 45/45/45 46/46/46
f 49/49/49 48/48/48 47/47/47
f 48/48/48 49/49/49 50/50/50
o mesh_8
usemtl mat1
v -0.1 12.800000000000002 12.7
v -0.1 12.8 -0.10000000000000157
v -0.1 25.6 12.699999999999998
v -0.1 25.6 -0.10000000000000314
v -0.1 12.8 -0.10000000000000157
v -0.1 12.800000000000002 12.7
v -0.1 25.6 -0.10000000000000314
v -0.1 25.6 12.699999999999998
v -0.1 -1.2246467991473533e-17 -0.1
v -0.1 1.5553014349171386e-15 12.700000000000001
v -0.1 12.8 -0.10000000000000157
v -0.1 12.800000000000002 12.7
v -0.1 1.5553014349171386e-15 12.700000000000001
v -0.1 -1.2246467991473533e-17 -0.1
v -0.1 12.800000000000002 12.7
v -0.1 12.8 -0.10000000000000157
vt 0.9921875 0.875
vt 0.875 0.875
vt 0.9921875 0.75
vt 0.875 0.75
vt 0.875 0.875
vt 0.9921875 0.875
vt 0.875 0.75
vt 0.9921875 0.75
vt 0.875 0.9921875
vt 0.9921875 0.9921875
vt 0.875 0.875
vt 0.9921875 0.875
vt 0.9921875 0.9921875
vt 0.875 0.9921875
vt 0.9921875 0.875
vt 0.875 0.875
vn -1 0 0
vn -1 0 0
vn -1 0 0
vn -1 0 0
vn 1 0 0
vn 1 0 0
vn 1 0 0
vn 1 0 0
vn 1 0 0
vn 1 0 0
vn 1 0 0
vn 1 0 0
vn -1 0 0
vn -1 0 0
vn -1 0 0
vn -1 0 0
f 53/53/53 52/52/52 51/51/51
f 52/52/52 53/53/53 54/54/54
f 57/57/57 56/56/56 55/55/55
f 56/56/56 57/57/57 58/58/58
f 61/61/61 60/60/60 59/59/59
f 60/60/60 61/61/61 62/62/62
f 65/65/65 64/64/64 63/63/63
f 64/64/64 65/65/65 66/66/66
o mesh_9
usemtl mat3
v 38.400000000000006 -1.410793112617751e-14 -115.2
v 25.6 -1.410793112617751e-14 -115.2
v 25.6 -1.4499818101904663e-14 -118.4
v 48 -3.1350958058172244e-15 -25.6
v 51.2 -3.1350958058172244e-15 -25.6
v 51.2 -2.7432088300900714e-15 -22.400000000000002
v 64 -2.7432088300900714e-15 -22.400000000000002
v 64 -3.1350958058172244e-15 -25.6
v 67.2 -3.1350958058172244e-15 -25.6
v 38.400000000000006 -1.567547902908612e-14 -128
v 25.6 -1.5283592053358967e-14 -124.80000000000001
v 25.6 -1.567547902908612e-14 -128
v 64 -1.567547902908612e-14 -128
v 64 -1.7047083444131156e-14 -139.20000000000002
v 71.2 -1.7145055188062946e-14 -140
v 64 -1.2540383223268897e-14 -102.4
v 76.80000000000001 -1.2540383223268897e-14 -102.4
v 76.80000000000001 -1.234443973540532e-14 -100.80000000000001
v 64 -1.2834298455064263e-14 -104.80000000000001
v 64 -1.2540383223268897e-14 -102.4
v 51.2 -1.2540383223268897e-14 -102.4
v 25.6 -1.8418687859176194e-14 -150.4
v 25.6 -1.8810574834903348e-14 -153.60000000000002
v 38.400000000000006 -1.8810574834903348e-14 -153.60000000000002
v 51.2 -1.0972835320360286e-14 -89.60000000000001
v 51.2 -9.405287417451674e-15 -76.80000000000001
v 44.800000000000004 -9.405287417451674e-15 -76.80000000000001
v 51.2 -7.83773951454306e-15 -64
v 64 -7.83773951454306e-15 -64
v 64 -7.053965563088755e-15 -57.6
v 44.800000000000004 -9.405287417451674e-15 -76.80000000000001
v 51.2 -9.405287417451674e-15 -76.80000000000001
v 51.2 -7.83773951454306e-15 -64
v 76.80000000000001 -5.486417660180143e-15 -44.800000000000004
v 76.80000000000001 -4.702643708725837e-15 -38.400000000000006
v 64 -4.702643708725837e-15 -38.400000000000006
v 38.400000000000006 -1.7243026931994733e-14 -140.8
v 25.6 -1.7243026931994733e-14 -140.8
v 25.6 -1.7634913907721887e-14 -144
v 48 -2.037812273781196e-14 -166.4
v 51.2 -2.037812273781196e-14 -166.4
v 51.2 -1.8810574834903348e-14 -153.60000000000002
v 76.80000000000001 -1.0287033112837768e-14 -84
v 76.80000000000001 -9.405287417451674e-15 -76.80000000000001
v 64 -9.405287417451674e-15 -76.80000000000001
v 64 -1.8810574834903348e-14 -153.60000000000002
v 64 -2.037812273781196e-14 -166.4
v 67.2 -2.037812273781196e-14 -166.4
v 64 -1.0972835320360286e-14 -89.60000000000001
v 76.80000000000001 -1.0972835320360286e-14 -89.60000000000001
v 76.80000000000001 -1.067892008856492e-14 -87.2
v 51.2 -2.077000971353911e-14 -169.60000000000002
v 51.2 -2.037812273781196e-14 -166.4
v 48 -2.037812273781196e-14 -166.4
v 44.800000000000004 -2.037812273781196e-14 -166.4
v 48 -2.037812273781196e-14 -166.4
v 51.2 -1.8810574834903348e-14 -153.60000000000002
v 67.2 -2.037812273781196e-14 -166.4
v 64 -2.037812273781196e-14 -166.4
v 64 -2.077000971353911e-14 -169.60000000000002
v 25.6 -9.405287417451674e-15 -76.80000000000001
v 25.6 -1.0972835320360286e-14 -89.60000000000001
v 38.400000000000006 -9.405287417451674e-15 -76.80000000000001
v 38.400000000000006 -1.0972835320360286e-14 -89.60000000000001
v 25.6 -1.0972835320360286e-14 -89.60000000000001
v 12.8 -1.0972835320360286e-14 -89.60000000000001
v 25.6 -1.2540383223268897e-14 -102.4
v 12.8 -1.2540383223268897e-14 -102.4
v 51.2 -2.7432088300900714e-15 -22.400000000000002
v 51.2 -3.1350958058172244e-15 -25.6
v 64 -2.7432088300900714e-15 -22.400000000000002
v 64 -3.1350958058172244e-15 -25.6
v 76.80000000000001 -7.053965563088755e-15 -57.6
v 76.80000000000001 -6.270191611634449e-15 -51.2
v 64 -7.053965563088755e-15 -57.6
v 70.4 -6.270191611634449e-15 -51.2
v 64 -2.7432088300900714e-15 -22.400000000000002
v 64 -1.5675479029086122e-15 -12.8
v 51.2 -2.7432088300900714e-15 -22.400000000000002
v 51.2 -1.5675479029086122e-15 -12.8
v 51.2 -7.83773951454306e-15 -64
v 38.400000000000006 -7.83773951454306e-15 -64
v 44.800000000000004 -9.405287417451674e-15 -76.80000000000001
v 38.400000000000006 -8.621513465997366e-15 -70.4
v 64 -7.83773951454306e-15 -64
v 64 -9.405287417451674e-15 -76.80000000000001
v 76.80000000000001 -7.83773951454306e-15 -64
v 76.80000000000001 -9.405287417451674e-15 -76.80000000000001
v 64 -1.7243026931994733e-14 -140.8
v 64 -1.8810574834903348e-14 -153.60000000000002
v 76.80000000000001 -1.7243026931994733e-14 -140.8
v 76.80000000000001 -1.8810574834903348e-14 -153.60000000000002
v 67.2 -3.1350958058172244e-15 -25.6
v 64 -3.1350958058172244e-15 -25.6
v 76.80000000000001 -4.702643708725837e-15 -38.400000000000006
v 64 -4.702643708725837e-15 -38.400000000000006
v 61.6 -1.7243026931994733e-14 -140.8
v 51.2 -1.7243026931994733e-14 -140.8
v 64 -1.8810574834903348e-14 -153.60000000000002
v 51.2 -1.8810574834903348e-14 -153.60000000000002
v 51.2 -4.702643708725837e-15 -38.400000000000006
v 51.2 -6.270191611634449e-15 -51.2
v 64 -4.702643708725837e-15 -38.400000000000006
v 64 -6.270191611634449e-15 -51.2
v 76.80000000000001 -1.234443973540532e-14 -100.80000000000001
v 76.80000000000001 -1.0972835320360286e-14 -89.60000000000001
v 64 -1.2540383223268897e-14 -102.4
v 64 -1.0972835320360286e-14 -89.60000000000001
v 76.80000000000001 -1.410793112617751e-14 -115.2
v 64 -1.410793112617751e-14 -115.2
v 76.80000000000001 -1.567547902908612e-14 -128
v 64 -1.567547902908612e-14 -128
v 38.400000000000006 -1.7243026931994733e-14 -140.8
v 38.400000000000006 -1.8810574834903348e-14 -153.60000000000002
v 51.2 -1.7243026931994733e-14 -140.8
v 51.2 -1.8810574834903348e-14 -153.60000000000002
v 38.400000000000006 -1.567547902908612e-14 -128
v 38.400000000000006 -1.7243026931994733e-14 -140.8
v 51.2 -1.567547902908612e-14 -128
v 51.2 -1.7243026931994733e-14 -140.8
v 51.2 -3.1350958058172244e-15 -25.6
v 51.2 -4.702643708725837e-15 -38.400000000000006
v 64 -3.1350958058172244e-15 -25.6
v 64 -4.702643708725837e-15 -38.400000000000006
v 64 -7.053965563088755e-15 -57.6
v 64 -6.270191611634449e-15 -51.2
v 51.2 -7.83773951454306e-15 -64
v 51.2 -6.270191611634449e-15 -51.2
v 51.2 -7.83773951454306e-15 -64
v 51.2 -9.405287417451674e-15 -76.80000000000001
v 64 -7.83773951454306e-15 -64
v 64 -9.405287417451674e-15 -76.80000000000001
v 51.2 -1.0972835320360286e-14 -89.60000000000001
v 51.2 -1.2540383223268897e-14 -102.4
v 64 -1.0972835320360286e-14 -89.60000000000001
v 64 -1.2540383223268897e-14 -102.4
v 51.2 -1.2540383223268897e-14 -102.4
v 51.2 -1.410793112617751e-14 -115.2
v 64 -1.2834298455064263e-14 -104.80000000000001
v 64 -1.410793112617751e-14 -115.2
v 51.2 -1.410793112617751e-14 -115.2
v 51.2 -1.567547902908612e-14 -128
v 64 -1.410793112617751e-14 -115.2
v 64 -1.567547902908612e-14 -128
v 51.2 -1.8810574834903348e-14 -153.60000000000002
v 51.2 -2.037812273781196e-14 -166.4
v 64 -1.8810574834903348e-14 -153.60000000000002
v 64 -2.037812273781196e-14 -166.4
v 51.2 -2.077000971353911e-14 -169.60000000000002
v 51.2 -2.194567064072057e-14 -179.20000000000002
v 64 -2.077000971353911e-14 -169.60000000000002
v 64 -2.194567064072057e-14 -179.20000000000002
v 38.400000000000006 -6.270191611634449e-15 -51.2
v 51.2 -6.270191611634449e-15 -51.2
v 38.400000000000006 -4.702643708725837e-15 -38.400000000000006
v 51.2 -4.702643708725837e-15 -38.400000000000006
v 38.400000000000006 -6.270191611634449e-15 -51.2
v 38.400000000000006 -7.83773951454306e-15 -64
v 51.2 -6.270191611634449e-15 -51.2
v 51.2 -7.83773951454306e-15 -64
v 44.800000000000004 -9.405287417451674e-15 -76.80000000000001
v 38.400000000000006 -9.405287417451674e-15 -76.80000000000001
v 51.2 -1.0972835320360286e-14 -89.60000000000001
v 38.400000000000006 -1.0972835320360286e-14 -89.60000000000001
v 38.400000000000006 -1.0972835320360286e-14 -89.60000000000001
v 38.400000000000006 -1.2540383223268897e-14 -102.4
v 51.2 -1.0972835320360286e-14 -89.60000000000001
v 51.2 -1.2540383223268897e-14 -102.4
v 38.400000000000006 -1.2540383223268897e-14 -102.4
v 38.400000000000006 -1.410793112617751e-14 -115.2
v 51.2 -1.2540383223268897e-14 -102.4
v 51.2 -1.410793112617751e-14 -115.2
v 38.400000000000006 -1.410793112617751e-14 -115.2
v 38.400000000000006 -1.567547902908612e-14 -128
v 51.2 -1.410793112617751e-14 -115.2
v 51.2 -1.567547902908612e-14 -128
v 0 -1.2540383223268897e-14 -102.4
v 12.8 -1.2540383223268897e-14 -102.4
v 0 -1.0972835320360286e-14 -89.60000000000001
v 12.8 -1.0972835320360286e-14 -89.60000000000001
v 64 -2.3513218543629183e-14 -192
v 64 -2.194567064072057e-14 -179.20000000000002
v 51.2 -2.3513218543629183e-14 -192
v 51.2 -2.194567064072057e-14 -179.20000000000002
v 38.400000000000006 -1.567547902908612e-14 -128
v 38.400000000000006 -1.410793112617751e-14 -115.2
v 25.6 -1.5283592053358967e-14 -124.80000000000001
v 25.6 -1.4499818101904663e-14 -118.4
v 67.2 -2.037812273781196e-14 -166.4
v 76.80000000000001 -2.037812273781196e-14 -166.4
v 64 -1.8810574834903348e-14 -153.60000000000002
v 76.80000000000001 -1.8810574834903348e-14 -153.60000000000002
v 64 -2.077000971353911e-14 -169.60000000000002
v 64 -2.037812273781196e-14 -166.4
v 51.2 -2.077000971353911e-14 -169.60000000000002
v 51.2 -2.037812273781196e-14 -166.4
v 75.2 -3.331039293680801e-15 -27.200000000000003
v 67.2 -3.1350958058172244e-15 -25.6
v 76.80000000000001 -3.91886975727153e-15 -32
v 76.80000000000001 -4.702643708725837e-15 -38.400000000000006
v 38.400000000000006 -1.7243026931994733e-14 -140.8
v 38.400000000000006 -1.567547902908612e-14 -128
v 25.6 -1.7243026931994733e-14 -140.8
v 25.6 -1.567547902908612e-14 -128
v 51.2 0 0
v 51.2 -1.5675479029086122e-15 -12.8
v 64 0 0
v 64 -1.5675479029086122e-15 -12.8
v 64 -1.2834298455064263e-14 -104.80000000000001
v 64 -1.410793112617751e-14 -115.2
v 74.4 -1.3226185430791415e-14 -108
v 76.80000000000001 -1.410793112617751e-14 -115.2
v 27.200000000000003 -1.2834298455064263e-14 -104.80000000000001
v 27.200000000000003 -1.3422128918654992e-14 -109.60000000000001
v 38.400000000000006 -1.2540383223268897e-14 -102.4
v 38.400000000000006 -1.410793112617751e-14 -115.2
v 25.6 -1.0972835320360286e-14 -89.60000000000001
v 25.6 -1.2540383223268897e-14 -102.4
v 38.400000000000006 -1.0972835320360286e-14 -89.60000000000001
v 38.400000000000006 -1.2540383223268897e-14 -102.4
v 72.8 -1.694911170019937e-14 -138.4
v 76.80000000000001 -1.7047083444131156e-14 -139.20000000000002
v 64 -1.567547902908612e-14 -128
v 76.80000000000001 -1.567547902908612e-14 -128
v 64 -1.7047083444131156e-14 -139.20000000000002
v 64 -1.567547902908612e-14 -128
v 51.2 -1.7243026931994733e-14 -140.8
v 51.2 -1.567547902908612e-14 -128
v 74.4 -1.2932270198996051e-14 -105.60000000000001
v 76.80000000000001 -1.2540383223268897e-14 -102.4
v 64 -1.2834298455064263e-14 -104.80000000000001
v 64 -1.2540383223268897e-14 -102.4
v 64 -4.702643708725837e-15 -38.400000000000006
v 64 -6.270191611634449e-15 -51.2
v 76.80000000000001 -5.486417660180143e-15 -44.800000000000004
v 70.4 -6.270191611634449e-15 -51.2
v 38.400000000000006 -1.8810574834903348e-14 -153.60000000000002
v 38.400000000000006 -1.7243026931994733e-14 -140.8
v 25.6 -1.8418687859176194e-14 -150.4
v 25.6 -1.7634913907721887e-14 -144
v 28 -1.9398405298494075e-14 -158.4
v 38.400000000000006 -1.9594348786357652e-14 -160
v 25.6 -1.8810574834903348e-14 -153.60000000000002
v 38.400000000000006 -1.8810574834903348e-14 -153.60000000000002
v 28 -1.979029227422123e-14 -161.60000000000002
v 25.6 -2.037812273781196e-14 -166.4
v 38.400000000000006 -1.9594348786357652e-14 -160
v 38.400000000000006 -2.037812273781196e-14 -166.4
v 76.80000000000001 -7.053965563088755e-15 -57.6
v 64 -7.053965563088755e-15 -57.6
v 76.80000000000001 -7.83773951454306e-15 -64
v 64 -7.83773951454306e-15 -64
v 51.2 -9.405287417451674e-15 -76.80000000000001
v 51.2 -1.0972835320360286e-14 -89.60000000000001
v 64 -9.405287417451674e-15 -76.80000000000001
v 64 -1.0972835320360286e-14 -89.60000000000001
v 51.2 -1.8810574834903348e-14 -153.60000000000002
v 38.400000000000006 -1.8810574834903348e-14 -153.60000000000002
v 44.800000000000004 -2.037812273781196e-14 -166.4
v 38.400000000000006 -1.9594348786357652e-14 -160
vt 0.2421875 0.7421875
vt 0.125 0.7421875
vt 0.125 0.7109375
vt 0.3359375 0.6171875
vt 0.3671875 0.6171875
vt 0.3671875 0.6484375
vt 0.4921875 0.6484375
vt 0.4921875 0.6171875
vt 0.5234375 0.6171875
vt 0.2421875 0.6171875
vt 0.125 0.6484375
vt 0.125 0.6171875
vt 0.4921875 0.6171875
vt 0.4921875 0.5078125
vt 0.5625 0.5
vt 0.4921875 0.8671875
vt 0.6171875 0.8671875
vt 0.6171875 0.8828125
vt 0.4921875 0.84375
vt 0.4921875 0.8671875
vt 0.3671875 0.8671875
vt 0.125 0.8984375
vt 0.125 0.8671875
vt 0.2421875 0.8671875
vt 0.3671875 0.5
vt 0.3671875 0.6171875
vt 0.3046875 0.6171875
vt 0.3671875 0.7421875
vt 0.4921875 0.7421875
vt 0.4921875 0.8046875
vt 0.3046875 0.6171875
vt 0.3671875 0.6171875
vt 0.3671875 0.7421875
vt 0.6171875 0.9296875
vt 0.6171875 0.9921875
vt 0.4921875 0.9921875
vt 0.2421875 0.9921875
vt 0.125 0.9921875
vt 0.125 0.9609375
vt 0.3359375 0.7421875
vt 0.3671875 0.7421875
vt 0.3671875 0.8671875
vt 0.6171875 0.546875
vt 0.6171875 0.6171875
vt 0.4921875 0.6171875
vt 0.4921875 0.8671875
vt 0.4921875 0.7421875
vt 0.5234375 0.7421875
vt 0.4921875 0.5
vt 0.6171875 0.5
vt 0.6171875 0.515625
vt 0.3671875 0.7109375
vt 0.3671875 0.7421875
vt 0.3359375 0.7421875
vt 0.3046875 0.7421875
vt 0.3359375 0.7421875
vt 0.3671875 0.8671875
vt 0.5234375 0.7421875
vt 0.4921875 0.7421875
vt 0.4921875 0.7109375
vt 0.125 0.6171875
vt 0.125 0.5
vt 0.2421875 0.6171875
vt 0.2421875 0.5
vt 0.7421875 0.9921875
vt 0.6171875 0.9921875
vt 0.7421875 0.875
vt 0.6171875 0.875
vt 0.3671875 0.6484375
vt 0.3671875 0.6171875
vt 0.4921875 0.6484375
vt 0.4921875 0.6171875
vt 0.6171875 0.8046875
vt 0.6171875 0.8671875
vt 0.4921875 0.8046875
vt 0.5546875 0.8671875
vt 0.4921875 0.6484375
vt 0.4921875 0.7421875
vt 0.3671875 0.6484375
vt 0.3671875 0.7421875
vt 0.3671875 0.7421875
vt 0.2421875 0.7421875
vt 0.3046875 0.6171875
vt 0.2421875 0.6796875
vt 0.4921875 0.7421875
vt 0.4921875 0.6171875
vt 0.6171875 0.7421875
vt 0.6171875 0.6171875
vt 0.4921875 0.9921875
vt 0.4921875 0.8671875
vt 0.6171875 0.9921875
vt 0.6171875 0.8671875
vt 0.5234375 0.6171875
vt 0.4921875 0.6171875
vt 0.6171875 0.5
vt 0.4921875 0.5
vt 0.46875 0.9921875
vt 0.3671875 0.9921875
vt 0.4921875 0.8671875
vt 0.3671875 0.8671875
vt 0.3671875 0.9921875
vt 0.3671875 0.8671875
vt 0.4921875 0.9921875
vt 0.4921875 0.8671875
vt 0.6171875 0.8828125
vt 0.6171875 0.9921875
vt 0.4921875 0.8671875
vt 0.4921875 0.9921875
vt 0.6171875 0.7421875
vt 0.4921875 0.7421875
vt 0.6171875 0.6171875
vt 0.4921875 0.6171875
vt 0.2421875 0.9921875
vt 0.2421875 0.8671875
vt 0.3671875 0.9921875
vt 0.3671875 0.8671875
vt 0.2421875 0.6171875
vt 0.2421875 0.5
vt 0.3671875 0.6171875
vt 0.3671875 0.5
vt 0.3671875 0.6171875
vt 0.3671875 0.5
vt 0.4921875 0.6171875
vt 0.4921875 0.5
vt 0.4921875 0.8046875
vt 0.4921875 0.8671875
vt 0.3671875 0.7421875
vt 0.3671875 0.8671875
vt 0.3671875 0.7421875
vt 0.3671875 0.6171875
vt 0.4921875 0.7421875
vt 0.4921875 0.6171875
vt 0.3671875 0.9921875
vt 0.3671875 0.8671875
vt 0.4921875 0.9921875
vt 0.4921875 0.8671875
vt 0.3671875 0.8671875
vt 0.3671875 0.7421875
vt 0.4921875 0.84375
vt 0.4921875 0.7421875
vt 0.3671875 0.7421875
vt 0.3671875 0.6171875
vt 0.4921875 0.7421875
vt 0.4921875 0.6171875
vt 0.3671875 0.8671875
vt 0.3671875 0.7421875
vt 0.4921875 0.8671875
vt 0.4921875 0.7421875
vt 0.3671875 0.7109375
vt 0.3671875 0.6171875
vt 0.4921875 0.7109375
vt 0.4921875 0.6171875
vt 0.2421875 0.8671875
vt 0.3671875 0.8671875
vt 0.2421875 0.9921875
vt 0.3671875 0.9921875
vt 0.2421875 0.8671875
vt 0.2421875 0.7421875
vt 0.3671875 0.8671875
vt 0.3671875 0.7421875
vt 0.3046875 0.6171875
vt 0.2421875 0.6171875
vt 0.3671875 0.5
vt 0.2421875 0.5
vt 0.2421875 0.9921875
vt 0.2421875 0.8671875
vt 0.3671875 0.9921875
vt 0.3671875 0.8671875
vt 0.2421875 0.8671875
vt 0.2421875 0.7421875
vt 0.3671875 0.8671875
vt 0.3671875 0.7421875
vt 0.2421875 0.7421875
vt 0.2421875 0.6171875
vt 0.3671875 0.7421875
vt 0.3671875 0.6171875
vt 0.5 0.875
vt 0.6171875 0.875
vt 0.5 0.9921875
vt 0.6171875 0.9921875
vt 0.4921875 0.5
vt 0.4921875 0.6171875
vt 0.3671875 0.5
vt 0.3671875 0.6171875
vt 0.2421875 0.6171875
vt 0.2421875 0.7421875
vt 0.125 0.6484375
vt 0.125 0.7109375
vt 0.5234375 0.7421875
vt 0.6171875 0.7421875
vt 0.4921875 0.8671875
vt 0.6171875 0.8671875
vt 0.4921875 0.7109375
vt 0.4921875 0.7421875
vt 0.3671875 0.7109375
vt 0.3671875 0.7421875
vt 0.6015625 0.609375
vt 0.5234375 0.6171875
vt 0.6171875 0.5546875
vt 0.6171875 0.5
vt 0.2421875 0.5
vt 0.2421875 0.6171875
vt 0.125 0.5
vt 0.125 0.6171875
vt 0.3671875 0.8671875
vt 0.3671875 0.7421875
vt 0.4921875 0.8671875
vt 0.4921875 0.7421875
vt 0.4921875 0.84375
vt 0.4921875 0.7421875
vt 0.59375 0.8125
vt 0.6171875 0.7421875
vt 0.140625 0.84375
vt 0.140625 0.796875
vt 0.2421875 0.8671875
vt 0.2421875 0.7421875
vt 0.125 0.9921875
vt 0.125 0.8671875
vt 0.2421875 0.9921875
vt 0.2421875 0.8671875
vt 0.578125 0.5234375
vt 0.6171875 0.5078125
vt 0.4921875 0.6171875
vt 0.6171875 0.6171875
vt 0.4921875 0.5078125
vt 0.4921875 0.6171875
vt 0.3671875 0.5
vt 0.3671875 0.6171875
vt 0.59375 0.8359375
vt 0.6171875 0.8671875
vt 0.4921875 0.84375
vt 0.4921875 0.8671875
vt 0.4921875 0.9921875
vt 0.4921875 0.8671875
vt 0.6171875 0.9296875
vt 0.5546875 0.8671875
vt 0.2421875 0.8671875
vt 0.2421875 0.9921875
vt 0.125 0.8984375
vt 0.125 0.9609375
vt 0.1484375 0.8203125
vt 0.2421875 0.8046875
vt 0.125 0.8671875
vt 0.2421875 0.8671875
vt 0.1484375 0.7890625
vt 0.125 0.7421875
vt 0.2421875 0.8046875
vt 0.2421875 0.7421875
vt 0.6171875 0.8046875
vt 0.4921875 0.8046875
vt 0.6171875 0.7421875
vt 0.4921875 0.7421875
vt 0.3671875 0.6171875
vt 0.3671875 0.5
vt 0.4921875 0.6171875
vt 0.4921875 0.5
vt 0.3671875 0.8671875
vt 0.2421875 0.8671875
vt 0.3046875 0.7421875
vt 0.2421875 0.8046875
vn 0 1 -1.2246467991473532e-16
vn 0 1 -1.2246467991473532e-16
vn 0 1 -1.2246467991473532e-16
vn 0 1 -1.2246467991473532e-16
vn 0 1 -1.2246467991473532e-16
vn 0 1 -1.2246467991473532e-16
vn 0 1 -1.2246467991473532e-16
vn 0 1 -1.2246467991473532e-16
vn 0 1 -1.2246467991473532e-16
vn 0 1 -1.2246467991473532e-16
vn 0 1 -1.2246467991473532e-16
vn 0 1 -1.2246467991473532e-16
vn 0 1 -1.2246467991473532e-16
vn 0 1 -1.2246467991473532e-16
vn 0 1 -1.2246467991473532e-16
vn 0 1 -1.2246467991473532e-16
vn 0 1 -1.2246467991473532e-16
vn 0 1 -1.2246467991473532e-16
vn 0 1 -1.2246467991473532e-16
vn 0 1 -1.2246467991473532e-16
vn 0 1 -1.2246467991473532e-16
vn 0 1 -1.2246467991473532e-16
vn 0 1 -1.2246467991473532e-16
vn 0 1 -1.2246467991473532e-16
vn 0 1 -1.2246467991473532e-16
vn 0 1 -1.2246467991473532e-16
vn 0 1 -1.2246467991473532e-16
vn 0 1 -1.2246467991473532e-16
vn 0 1 -1.2246467991473532e-16
vn 0 1 -1.2246467991473532e-16
vn 0 1 -1.2246467991473532e-16
vn 0 1 -1.2246467991473532e-16
vn 0 1 -1.2246467991473532e-16
vn 0 1 -1.2246467991473532e-16
vn 0 1 -1.2246467991473532e-16
vn 0 1 -1.2246467991473532e-16
vn 0 1 -1.2246467991473532e-16
vn 0 1 -1.2246467991473532e-16
vn 0 1 -1.2246467991473532e-16
vn 0 1 -1.2246467991473532e-16
vn 0 1 -1.2246467991473532e-16
vn 0 1 -1.2246467991473532e-16
vn 0 1 -1.2246467991473532e-16
vn 0 1 -1.2246467991473532e-16
vn 0 1 -1.2246467991473532e-16
vn 0 1 -1.2246467991473532e-16
vn 0 1 -1.2246467991473532e-16
vn 0 1 -1.2246467991473532e-16
vn 0 1 -1.2246467991473532e-16
vn 0 1 -1.2246467991473532e-16
vn 0 1 -1.2246467991473532e-16
vn 0 1 -1.2246467991473532e-16
vn 0 1 -1.2246467991473532e-16
vn 0 1 -1.2246467991473532e-16
vn 0 1 -1.2246467991473532e-16
vn 0 1 -1.2246467991473532e-16
vn 0 1 -1.2246467991473532e-16
vn 0 1 -1.2246467991473532e-16
vn 0 1 -1.2246467991473532e-16
vn 0 1 -1.2246467991473532e-16
vn 0 1 -1.2246467991473532e-16
vn 0 1 -1.2246467991473532e-16
vn 0 1 -1.2246467991473532e-16
vn 0 1 -1.2246467991473532e-16
vn 0 1 -1.2246467991473532e-16
vn 0 1 -1.2246467991473532e-16
vn 0 1 -1.2246467991473532e-16
vn 0 1 -1.2246467991473532e-16
vn 0 1 -1.2246467991473532e-16
vn 0 1 -1.2246467991473532e-16
vn 0 1 -1.2246467991473532e-16
vn 0 1 -1.2246467991473532e-16
vn 0 1 -1.2246467991473532e-16
vn 0 1 -1.2246467991473532e-16
vn 0 1 -1.2246467991473532e-16
vn 0 1 -1.2246467991473532e-16
vn 0 1 -1.2246467991473532e-16
vn 0 1 -1.2246467991473532e-16
vn 0 1 -1.2246467991473532e-16
vn 0 1 -1.2246467991473532e-16
vn 0 1 -1.2246467991473532e-16
vn 0 1 -1.2246467991473532e-16
vn 0 1 -1.2246467991473532e-16
vn 0 1 -1.2246467991473532e-16
vn 0 1 -1.2246467991473532e-16
vn 0 1 -1.2246467991473532e-16
vn 0 1 -1.2246467991473532e-16
vn 0 1 -1.2246467991473532e-16
vn 0 1 -1.2246467991473532e-16
vn 0 1 -1.2246467991473532e-16
vn 0 1 -1.2246467991473532e-16
vn 0 1 -1.2246467991473532e-16
vn 0 1 -1.2246467991473532e-16
vn 0 1 -1.2246467991473532e-16
vn 0 1 -1.2246467991473532e-16
vn 0 1 -1.2246467991473532e-16
vn 0 1 -1.2246467991473532e-16
vn 0 1 -1.2246467991473532e-16
vn 0 1 -1.2246467991473532e-16
vn 0 1 -1.2246467991473532e-16
vn 0 1 -1.2246467991473532e-16
vn 0 1 -1.2246467991473532e-16
vn 0 1 -1.2246467991473532e-16
vn 0 1 -1.2246467991473532e-16
vn 0 1 -1.2246467991473532e-16
vn 0 1 -1.2246467991473532e-16
vn 0 1 -1.2246467991473532e-16
vn 0 1 -1.2246467991473532e-16
vn 0 1 -1.2246467991473532e-16
vn 0 1 -1.2246467991473532e-16
vn 0 1 -1.2246467991473532e-16
vn 0 1 -1.2246467991473532e-16
vn 0 1 -1.2246467991473532e-16
vn 0 1 -1.2246467991473532e-16
vn 0 1 -1.2246467991473532e-16
vn 0 1 -1.2246467991473532e-16
vn 0 1 -1.2246467991473532e-16
vn 0 1 -1.2246467991473532e-16
vn 0 1 -1.2246467991473532e-16
vn 0 1 -1.2246467991473532e-16
vn 0 1 -1.2246467991473532e-16
vn 0 1 -1.2246467991473532e-16
vn 0 1 -1.2246467991473532e-16
vn 0 1 -1.2246467991473532e-16
vn 0 1 -1.2246467991473532e-16
vn 0 1 -1.2246467991473532e-16
vn 0 1 -1.2246467991473532e-16
vn 0 1 -1.2246467991473532e-16
vn 0 1 -1.2246467991473532e-16
vn 0 1 -1.2246467991473532e-16
vn 0 1 -1.2246467991473532e-16
vn 0 1 -1.2246467991473532e-16
vn 0 1 -1.2246467991473532e-16
vn 0 1 -1.2246467991473532e-16
vn 0 1 -1.2246467991473532e-16
vn 0 1 -1.2246467991473532e-16
vn 0 1 -1.2246467991473532e-16
vn 0 1 -1.2246467991473532e-16
vn 0 1 -1.2246467991473532e-16
vn 0 1 -1.2246467991473532e-16
vn 0 1 -1.2246467991473532e-16
vn 0 1 -1.2246467991473532e-16
vn 0 1 -1.2246467991473532e-16
vn 0 1 -1.2246467991473532e-16
vn 0 1 -1.2246467991473532e-16
vn 0 1 -1.2246467991473532e-16
vn 0 1 -1.2246467991473532e-16
vn 0 1 -1.2246467991473532e-16
vn 0 1 -1.2246467991473532e-16
vn 0 1 -1.2246467991473532e-16
vn 0 1 -1.2246467991473532e-16
vn 0 1 -1.2246467991473532e-16
vn 0 1 -1.2246467991473532e-16
vn 0 1 -1.2246467991473532e-16
vn 0 1 -1.2246467991473532e-16
vn 0 1 -1.2246467991473532e-16
vn 0 1 -1.2246467991473532e-16
vn 0 1 -1.2246467991473532e-16
vn 0 1 -1.2246467991473532e-16
vn 0 1 -1.2246467991473532e-16
vn 0 1 -1.2246467991473532e-16
vn 0 1 -1.2246467991473532e-16
vn 0 1 -1.2246467991473532e-16
vn 0 1 -1.2246467991473532e-16
vn 0 1 -1.2246467991473532e-16
vn 0 1 -1.2246467991473532e-16
vn 0 1 -1.2246467991473532e-16
vn 0 1 -1.2246467991473532e-16
vn 0 1 -1.2246467991473532e-16
vn 0 1 -1.2246467991473532e-16
vn 0 1 -1.2246467991473532e-16
vn 0 1 -1.2246467991473532e-16
vn 0 1 -1.2246467991473532e-16
vn 0 1 -1.2246467991473532e-16
vn 0 1 -1.2246467991473532e-16
vn 0 1 -1.2246467991473532e-16
vn 0 1 -1.2246467991473532e-16
vn 0 1 -1.2246467991473532e-16
vn 0 1 -1.2246467991473532e-16
vn 0 1 -1.2246467991473532e-16
vn 0 1 -1.2246467991473532e-16
vn 0 1 -1.2246467991473532e-16
vn 0 1 -1.2246467991473532e-16
vn 0 1 -1.2246467991473532e-16
vn 0 1 -1.2246467991473532e-16
vn 0 1 -1.2246467991473532e-16
vn 0 1 -1.2246467991473532e-16
vn 0 1 -1.2246467991473532e-16
vn 0 1 -1.2246467991473532e-16
vn 0 1 -1.2246467991473532e-16
vn 0 1 -1.2246467991473532e-16
vn 0 1 -1.2246467991473532e-16
vn 0 1 -1.2246467991473532e-16
vn 0 1 -1.2246467991473532e-16
vn 0 1 -1.2246467991473532e-16
vn 0 1 -1.2246467991473532e-16
vn 0 1 -1.2246467991473532e-16
vn 0 1 -1.2246467991473532e-16
vn 0 1 -1.2246467991473532e-16
vn 0 1 -1.2246467991473532e-16
vn 0 1 -1.2246467991473532e-16
vn 0 1 -1.2246467991473532e-16
vn 0 1 -1.2246467991473532e-16
vn 0 1 -1.2246467991473532e-16
vn 0 1 -1.2246467991473532e-16
vn 0 1 -1.2246467991473532e-16
vn 0 1 -1.2246467991473532e-16
vn 0 1 -1.2246467991473532e-16
vn 0 1 -1.2246467991473532e-16
vn 0 1 -1.2246467991473532e-16
vn 0 1 -1.2246467991473532e-16
vn 0 1 -1.2246467991473532e-16
vn 0 1 -1.2246467991473532e-16
vn 0 1 -1.2246467991473532e-16
vn 0 1 -1.2246467991473532e-16
vn 0 1 -1.2246467991473532e-16
vn 0 1 -1.2246467991473532e-16
vn 0 1 -1.2246467991473532e-16
vn 0 1 -1.2246467991473532e-16
vn 0 1 -1.2246467991473532e-16
vn 0 1 -1.2246467991473532e-16
vn 0 1 -1.2246467991473532e-16
vn 0 1 -1.2246467991473532e-16
vn 0 1 -1.2246467991473532e-16
vn 0 1 -1.2246467991473532e-16
vn 0 1 -1.2246467991473532e-16
vn 0 1 -1.2246467991473532e-16
vn 0 1 -1.2246467991473532e-16
vn 0 1 -1.2246467991473532e-16
vn 0 1 -1.2246467991473532e-16
vn 0 1 -1.2246467991473532e-16
vn 0 1 -1.2246467991473532e-16
vn 0 1 -1.2246467991473532e-16
vn 0 1 -1.2246467991473532e-16
vn 0 1 -1.2246467991473532e-16
vn 0 1 -1.2246467991473532e-16
vn 0 1 -1.2246467991473532e-16
vn 0 1 -1.2246467991473532e-16
vn 0 1 -1.2246467991473532e-16
vn 0 1 -1.2246467991473532e-16
vn 0 1 -1.2246467991473532e-16
vn 0 1 -1.2246467991473532e-16
vn 0 1 -1.2246467991473532e-16
vn 0 1 -1.2246467991473532e-16
vn 0 1 -1.2246467991473532e-16
vn 0 1 -1.2246467991473532e-16
vn 0 1 -1.2246467991473532e-16
vn 0 1 -1.2246467991473532e-16
vn 0 1 -1.2246467991473532e-16
vn 0 1 -1.2246467991473532e-16
vn 0 1 -1.2246467991473532e-16
vn 0 1 -1.2246467991473532e-16
vn 0 1 -1.2246467991473532e-16
vn 0 1 -1.2246467991473532e-16
vn 0 1 -1.2246467991473532e-16
vn 0 1 -1.2246467991473532e-16
vn 0 1 -1.2246467991473532e-16
vn 0 1 -1.2246467991473532e-16
vn 0 1 -1.2246467991473532e-16
vn 0 1 -1.2246467991473532e-16
f 69/69/69 68/68/68 67/67/67
f 72/72/72 71/71/71 70/70/70
f 75/75/75 74/74/74 73/73/73
f 78/78/78 77/77/77 76/76/76
f 81/81/81 80/80/80 79/79/79
f 84/84/84 83/83/83 82/82/82
f 87/87/87 86/86/86 85/85/85
f 90/90/90 89/89/89 88/88/88
f 93/93/93 92/92/92 91/91/91
f 96/96/96 95/95/95 94/94/94
f 99/99/99 98/98/98 97/97/97
f 102/102/102 101/101/101 100/100/100
f 105/105/105 104/104/104 103/103/103
f 108/108/108 107/107/107 106/106/106
f 111/111/111 110/110/110 109/109/109
f 114/114/114 113/113/113 112/112/112
f 117/117/117 116/116/116 115/115/115
f 120/120/120 119/119/119 118/118/118
f 123/123/123 122/122/122 121/121/121
f 126/126/126 125/125/125 124/124/124
f 129/129/129 128/128/128 127/127/127
f 128/128/128 129/129/129 130/130/130
f 133/133/133 132/132/132 131/131/131
f 132/132/132 133/133/133 134/134/134
f 137/137/137 136/136/136 135/135/135
f 136/136/136 137/137/137 138/138/138
f 141/141/141 140/140/140 139/139/139
f 140/140/140 141/141/141 142/142/142
f 145/145/145 144/144/144 143/143/143
f 144/144/144 145/145/145 146/146/146
f 149/149/149 148/148/148 147/147/147
f 148/148/148 149/149/149 150/150/150
f 153/153/153 152/152/152 151/151/151
f 152/152/152 153/153/153 154/154/154
f 157/157/157 156/156/156 155/155/155
f 156/156/156 157/157/157 158/158/158
f 161/161/161 160/160/160 159/159/159
f 160/160/160 161/161/161 162/162/162
f 165/165/165 164/164/164 163/163/163
f 164/164/164 165/165/165 166/166/166
f 169/169/169 168/168/168 167/167/167
f 168/168/168 169/169/169 170/170/170
f 173/173/173 172/172/172 171/171/171
f 172/172/172 173/173/173 174/174/174
f 177/177/177 176/176/176 175/175/175
f 176/176/176 177/177/177 178/178/178
f 181/181/181 180/180/180 179/179/179
f 180/180/180 181/181/181 182/182/182
f 185/185/185 184/184/184 183/183/183
f 184/184/184 185/185/185 186/186/186
f 189/189/189 188/188/188 187/187/187
f 188/188/188 189/189/189 190/190/190
f 193/193/193 192/192/192 191/191/191
f 192/192/192 193/193/193 194/194/194
f 197/197/197 196/196/196 195/195/195
f 196/196/196 197/197/197 198/198/198
f 201/201/201 200/200/200 199/199/199
f 200/200/200 201/201/201 202/202/202
f 205/205/205 204/204/204 203/203/203
f 204/204/204 205/205/205 206/206/206
f 209/209/209 208/208/208 207/207/207
f 208/208/208 209/209/209 210/210/210
f 213/213/213 212/212/212 211/211/211
f 212/212/212 213/213/213 214/214/214
f 217/217/217 216/216/216 215/215/215
f 216/216/216 217/217/217 218/218/218
f 221/221/221 220/220/220 219/219/219
f 220/220/220 221/221/221 222/222/222
f 225/225/225 224/224/224 223/223/223
f 224/224/224 225/225/225 226/226/226
f 229/229/229 228/228/228 227/227/227
f 228/228/228 229/229/229 230/230/230
f 233/233/233 232/232/232 231/231/231
f 232/232/232 233/233/233 234/234/234
f 237/237/237 236/236/236 235/235/235
f 236/236/236 237/237/237 238/238/238
f 241/241/241 240/240/240 239/239/239
f 240/240/240 241/241/241 242/242/242
f 245/245/245 244/244/244 243/243/243
f 244/244/244 245/245/245 246/246/246
f 249/249/249 248/248/248 247/247/247
f 248/248/248 249/249/249 250/250/250
f 253/253/253 252/252/252 251/251/251
f 252/252/252 253/253/253 254/254/254
f 257/257/257 256/256/256 255/255/255
f 256/256/256 257/257/257 258/258/258
f 261/261/261 260/260/260 259/259/259
f 260/260/260 261/261/261 262/262/262
f 265/265/265 264/264/264 263/263/263
f 264/264/264 265/265/265 266/266/266
f 269/269/269 268/268/268 267/267/267
f 268/268/268 269/269/269 270/270/270
f 273/273/273 272/272/272 271/271/271
f 272/272/272 273/273/273 274/274/274
f 277/277/277 276/276/276 275/275/275
f 276/276/276 277/277/277 278/278/278
f 281/281/281 280/280/280 279/279/279
f 280/280/280 281/281/281 282/282/282
f 285/285/285 284/284/284 283/283/283
f 284/284/284 285/285/285 286/286/286
f 289/289/289 288/288/288 287/287/287
f 288/288/288 289/289/289 290/290/290
f 293/293/293 292/292/292 291/291/291
f 292/292/292 293/293/293 294/294/294
f 297/297/297 296/296/296 295/295/295
f 296/296/296 297/297/297 298/298/298
f 301/301/301 300/300/300 299/299/299
f 300/300/300 301/301/301 302/302/302
f 305/305/305 304/304/304 303/303/303
f 304/304/304 305/305/305 306/306/306
f 309/309/309 308/308/308 307/307/307
f 308/308/308 309/309/309 310/310/310
f 313/313/313 312/312/312 311/311/311
f 312/312/312 313/313/313 314/314/314
f 317/317/317 316/316/316 315/315/315
f 316/316/316 317/317/317 318/318/318
f 321/321/321 320/320/320 319/319/319
f 320/320/320 321/321/321 322/322/322
f 325/325/325 324/324/324 323/323/323
f 324/324/324 325/325/325 326/326/326
o mesh_10
usemtl mat3
v 89.60000000000001 3.1999999999999953 -41.6
v 89.60000000000001 3.1999999999999953 -38.400000000000006
v 76.80000000000001 3.1999999999999953 -38.400000000000006
v 89.60000000000001 3.1999999999999917 -67.2
v 89.60000000000001 3.199999999999992 -64
v 76.80000000000001 3.199999999999992 -64
v 89.60000000000001 3.1999999999999824 -144
v 89.60000000000001 3.199999999999983 -140.8
v 76.80000000000001 3.199999999999983 -140.8
v 76.80000000000001 3.1999999999999815 -153.60000000000002
v 89.60000000000001 3.1999999999999815 -153.60000000000002
v 89.60000000000001 3.199999999999982 -150.4
v 78.4 3.199999999999986 -115.2
v 76.80000000000001 3.199999999999986 -115.2
v 76.80000000000001 -1.410793112617751e-14 -115.2
v 76.80000000000001 3.199999999999994 -51.2
v 89.60000000000001 3.199999999999994 -51.2
v 89.60000000000001 3.1999999999999944 -48
v 89.60000000000001 3.1999999999999886 -92.80000000000001
v 89.60000000000001 3.199999999999989 -89.60000000000001
v 76.80000000000001 3.199999999999989 -89.60000000000001
v 76.80000000000001 3.1999999999999877 -102.4
v 76.80000000000001 3.199999999999986 -115.2
v 78.4 3.199999999999986 -115.2
v 76.80000000000001 -3.91886975727153e-15 -32
v 76.80000000000001 -4.702643708725837e-15 -38.400000000000006
v 76.80000000000001 3.1999999999999953 -38.400000000000006
v 76.80000000000001 3.19999999999998 -164.8
v 76.80000000000001 -2.037812273781196e-14 -166.4
v 89.60000000000001 3.1999999999999797 -166.4
v 76.80000000000001 3.1999999999999846 -128
v 89.60000000000001 3.1999999999999846 -128
v 89.60000000000001 3.199999999999985 -124.80000000000001
v 76.80000000000001 3.1999999999999846 -128
v 76.80000000000001 3.1999999999999833 -137.6
v 79.2 3.199999999999983 -140
v 76.80000000000001 3.1999999999999953 -38.400000000000006
v 76.80000000000001 -4.702643708725837e-15 -38.400000000000006
v 76.80000000000001 -5.486417660180143e-15 -44.800000000000004
v 76.80000000000001 1.5999999999999928 -59.2
v 76.80000000000001 -7.053965563088755e-15 -57.6
v 76.80000000000001 -7.83773951454306e-15 -64
v 76.80000000000001 1.5999999999999928 -59.2
v 76.80000000000001 1.5999999999999932 -56
v 76.80000000000001 -7.053965563088755e-15 -57.6
v 76.80000000000001 -6.270191611634449e-15 -51.2
v 76.80000000000001 -7.053965563088755e-15 -57.6
v 76.80000000000001 1.5999999999999932 -56
v 89.60000000000001 3.1999999999999904 -80
v 89.60000000000001 3.199999999999991 -76.80000000000001
v 76.80000000000001 3.19999999999999 -84
v 76.80000000000001 3.199999999999991 -76.80000000000001
v 76.80000000000001 3.199999999999992 -64
v 89.60000000000001 3.199999999999992 -64
v 76.80000000000001 3.199999999999993 -59.2
v 85.60000000000001 3.1999999999999926 -60.800000000000004
v 89.60000000000001 3.199999999999997 -25.6
v 76.80000000000001 3.199999999999997 -25.6
v 89.60000000000001 3.1999999999999953 -38.400000000000006
v 76.80000000000001 3.1999999999999953 -38.400000000000006
v 76.80000000000001 -5.486417660180143e-15 -44.800000000000004
v 76.80000000000001 -6.270191611634449e-15 -51.2
v 76.80000000000001 3.1999999999999953 -38.400000000000006
v 76.80000000000001 3.199999999999994 -51.2
v 76.80000000000001 1.5999999999999932 -56
v 76.80000000000001 3.1999999999999935 -56
v 76.80000000000001 -6.270191611634449e-15 -51.2
v 76.80000000000001 3.199999999999994 -51.2
v 76.80000000000001 3.199999999999986 -115.2
v 76.80000000000001 3.1999999999999877 -102.4
v 76.80000000000001 -1.410793112617751e-14 -115.2
v 76.80000000000001 -1.2540383223268897e-14 -102.4
v 76.80000000000001 3.19999999999999 -84
v 76.80000000000001 3.199999999999991 -76.80000000000001
v 76.80000000000001 -1.0287033112837768e-14 -84
v 76.80000000000001 -9.405287417451674e-15 -76.80000000000001
v 79.2 3.199999999999983 -140
v 89.60000000000001 3.199999999999983 -140.8
v 76.80000000000001 3.1999999999999846 -128
v 89.60000000000001 3.1999999999999846 -128
v 76.80000000000001 3.19999999999998 -164.8
v 76.80000000000001 3.1999999999999815 -153.60000000000002
v 76.80000000000001 -2.037812273781196e-14 -166.4
v 76.80000000000001 -1.8810574834903348e-14 -153.60000000000002
v 76.80000000000001 3.1999999999999953 -38.400000000000006
v 76.80000000000001 3.199999999999997 -25.6
v 76.80000000000001 -3.91886975727153e-15 -32
v 76.80000000000001 -3.1350958058172244e-15 -25.6
v 76.80000000000001 3.199999999999991 -76.80000000000001
v 76.80000000000001 3.199999999999992 -64
v 76.80000000000001 -9.405287417451674e-15 -76.80000000000001
v 76.80000000000001 -7.83773951454306e-15 -64
v 76.80000000000001 3.199999999999992 -64
v 76.80000000000001 3.199999999999991 -76.80000000000001
v 89.60000000000001 3.1999999999999917 -67.2
v 89.60000000000001 3.1999999999999913 -73.60000000000001
v 76.80000000000001 3.199999999999983 -140.8
v 76.80000000000001 3.1999999999999815 -153.60000000000002
v 89.60000000000001 3.1999999999999824 -144
v 89.60000000000001 3.199999999999982 -150.4
v 76.80000000000001 -1.7243026931994733e-14 -140.8
v 76.80000000000001 -1.8810574834903348e-14 -153.60000000000002
v 76.80000000000001 3.199999999999983 -140.8
v 76.80000000000001 3.1999999999999815 -153.60000000000002
v 89.60000000000001 3.1999999999999815 -153.60000000000002
v 76.80000000000001 3.1999999999999815 -153.60000000000002
v 89.60000000000001 3.1999999999999797 -166.4
v 76.80000000000001 3.19999999999998 -164.8
v 76.80000000000001 -1.234443973540532e-14 -100.80000000000001
v 76.80000000000001 3.199999999999988 -98.4
v 76.80000000000001 -1.0972835320360286e-14 -89.60000000000001
v 76.80000000000001 3.199999999999989 -89.60000000000001
v 76.80000000000001 3.1999999999999877 -102.4
v 78.4 3.199999999999986 -115.2
v 89.60000000000001 3.1999999999999877 -102.4
v 89.60000000000001 3.199999999999986 -115.2
v 88 3.199999999999995 -42.400000000000006
v 76.80000000000001 3.1999999999999953 -38.400000000000006
v 89.60000000000001 3.1999999999999944 -48
v 76.80000000000001 3.199999999999994 -51.2
v 76.80000000000001 3.199999999999985 -121.60000000000001
v 89.60000000000001 3.1999999999999855 -118.4
v 78.4 3.199999999999986 -115.2
v 89.60000000000001 3.199999999999986 -115.2
v 76.80000000000001 3.199999999999985 -121.60000000000001
v 76.80000000000001 3.1999999999999846 -128
v 89.60000000000001 3.1999999999999855 -118.4
v 89.60000000000001 3.199999999999985 -124.80000000000001
v 89.60000000000001 3.1999999999999877 -102.4
v 89.60000000000001 3.199999999999988 -99.2
v 80.80000000000001 3.1999999999999877 -100.80000000000001
v 76.80000000000001 3.199999999999988 -98.4
v 76.80000000000001 3.199999999999989 -89.60000000000001
v 76.80000000000001 3.199999999999988 -98.4
v 89.60000000000001 3.1999999999999886 -92.80000000000001
v 89.60000000000001 3.199999999999988 -99.2
v 85.60000000000001 3.199999999999993 -57.6
v 89.60000000000001 3.199999999999994 -51.2
v 76.80000000000001 3.1999999999999935 -56
v 76.80000000000001 3.199999999999994 -51.2
v 76.80000000000001 -7.83773951454306e-15 -64
v 76.80000000000001 3.199999999999992 -64
v 76.80000000000001 1.5999999999999928 -59.2
v 76.80000000000001 3.199999999999993 -59.2
v 76.80000000000001 3.1999999999999895 -87.2
v 76.80000000000001 3.199999999999989 -89.60000000000001
v 89.60000000000001 3.1999999999999895 -86.4
v 89.60000000000001 3.199999999999989 -89.60000000000001
v 76.80000000000001 -1.067892008856492e-14 -87.2
v 76.80000000000001 -1.0972835320360286e-14 -89.60000000000001
v 76.80000000000001 3.1999999999999895 -87.2
v 76.80000000000001 3.199999999999989 -89.60000000000001
vt 0.7421875 0.9609375
vt 0.7421875 0.9921875
vt 0.6171875 0.9921875
vt 0.7421875 0.7109375
vt 0.7421875 0.7421875
vt 0.6171875 0.7421875
vt 0.7421875 0.9609375
vt 0.7421875 0.9921875
vt 0.6171875 0.9921875
vt 0.6171875 0.8671875
vt 0.7421875 0.8671875
vt 0.7421875 0.8984375
vt 0.6328125 0.7421875
vt 0.6171875 0.7421875
vt 0.6171875 0.7421875
vt 0.6171875 0.8671875
vt 0.7421875 0.8671875
vt 0.7421875 0.8984375
vt 0.7421875 0.9609375
vt 0.7421875 0.9921875
vt 0.6171875 0.9921875
vt 0.6171875 0.8671875
vt 0.6171875 0.7421875
vt 0.6328125 0.7421875
vt 0.6171875 0.5546875
vt 0.6171875 0.5
vt 0.6171875 0.5
vt 0.6171875 0.7578125
vt 0.6171875 0.7421875
vt 0.7421875 0.7421875
vt 0.6171875 0.6171875
vt 0.7421875 0.6171875
vt 0.7421875 0.6484375
vt 0.6171875 0.6171875
vt 0.6171875 0.5234375
vt 0.640625 0.5
vt 0.6171875 0.9921875
vt 0.6171875 0.9921875
vt 0.6171875 0.9296875
vt 0.6171875 0.7890625
vt 0.6171875 0.8046875
vt 0.6171875 0.7421875
vt 0.6171875 0.7890625
vt 0.6171875 0.8203125
vt 0.6171875 0.8046875
vt 0.6171875 0.8671875
vt 0.6171875 0.8046875
vt 0.6171875 0.8203125
vt 0.7421875 0.5859375
vt 0.7421875 0.6171875
vt 0.6171875 0.546875
vt 0.6171875 0.6171875
vt 0.6171875 0.7421875
vt 0.7421875 0.7421875
vt 0.6171875 0.7890625
vt 0.703125 0.7734375
vt 0.7421875 0.6171875
vt 0.6171875 0.6171875
vt 0.7421875 0.5
vt 0.6171875 0.5
vt 0.6171875 0.9296875
vt 0.6171875 0.8671875
vt 0.6171875 0.9921875
vt 0.6171875 0.8671875
vt 0.6171875 0.8203125
vt 0.6171875 0.8203125
vt 0.6171875 0.8671875
vt 0.6171875 0.8671875
vt 0.6171875 0.7421875
vt 0.6171875 0.8671875
vt 0.6171875 0.7421875
vt 0.6171875 0.8671875
vt 0.6171875 0.546875
vt 0.6171875 0.6171875
vt 0.6171875 0.546875
vt 0.6171875 0.6171875
vt 0.640625 0.5
vt 0.7421875 0.5
vt 0.6171875 0.6171875
vt 0.7421875 0.6171875
vt 0.6171875 0.7578125
vt 0.6171875 0.8671875
vt 0.6171875 0.7421875
vt 0.6171875 0.8671875
vt 0.6171875 0.5
vt 0.6171875 0.6171875
vt 0.6171875 0.5546875
vt 0.6171875 0.6171875
vt 0.6171875 0.6171875
vt 0.6171875 0.7421875
vt 0.6171875 0.6171875
vt 0.6171875 0.7421875
vt 0.6171875 0.7421875
vt 0.6171875 0.6171875
vt 0.7421875 0.7109375
vt 0.7421875 0.6484375
vt 0.6171875 0.9921875
vt 0.6171875 0.8671875
vt 0.7421875 0.9609375
vt 0.7421875 0.8984375
vt 0.6171875 0.9921875
vt 0.6171875 0.8671875
vt 0.6171875 0.9921875
vt 0.6171875 0.8671875
vt 0.7421875 0.8671875
vt 0.6171875 0.8671875
vt 0.7421875 0.7421875
vt 0.6171875 0.7578125
vt 0.6171875 0.8828125
vt 0.6171875 0.90625
vt 0.6171875 0.9921875
vt 0.6171875 0.9921875
vt 0.6171875 0.8671875
vt 0.6328125 0.7421875
vt 0.7421875 0.8671875
vt 0.7421875 0.7421875
vt 0.7265625 0.953125
vt 0.6171875 0.9921875
vt 0.7421875 0.8984375
vt 0.6171875 0.8671875
vt 0.6171875 0.6796875
vt 0.7421875 0.7109375
vt 0.6328125 0.7421875
vt 0.7421875 0.7421875
vt 0.6171875 0.6796875
vt 0.6171875 0.6171875
vt 0.7421875 0.7109375
vt 0.7421875 0.6484375
vt 0.7421875 0.8671875
vt 0.7421875 0.8984375
vt 0.65625 0.8828125
vt 0.6171875 0.90625
vt 0.6171875 0.9921875
vt 0.6171875 0.90625
vt 0.7421875 0.9609375
vt 0.7421875 0.8984375
vt 0.703125 0.8046875
vt 0.7421875 0.8671875
vt 0.6171875 0.8203125
vt 0.6171875 0.8671875
vt 0.6171875 0.7421875
vt 0.6171875 0.7421875
vt 0.6171875 0.7890625
vt 0.6171875 0.7890625
vt 0.6171875 0.515625
vt 0.6171875 0.5
vt 0.7421875 0.5234375
vt 0.7421875 0.5
vt 0.6171875 0.515625
vt 0.6171875 0.5
vt 0.6171875 0.515625
vt 0.6171875 0.5
vn 0 1 -1.2246467991473532e-16
vn 0 1 -1.2246467991473532e-16
vn 0 1 -1.2246467991473532e-16
vn 0 1 -1.2246467991473532e-16
vn 0 1 -1.2246467991473532e-16
vn 0 1 -1.2246467991473532e-16
vn 0 1 -1.2246467991473532e-16
vn 0 1 -1.2246467991473532e-16
vn 0 1 -1.2246467991473532e-16
vn 0 1 -1.2246467991473532e-16
vn 0 1 -1.2246467991473532e-16
vn 0 1 -1.2246467991473532e-16
vn 0 -1.2246467991473532e-16 -1
vn 0 -1.2246467991473532e-16 -1
vn 0 -1.2246467991473532e-16 -1
vn 0 1 -1.2246467991473532e-16
vn 0 1 -1.2246467991473532e-16
vn 0 1 -1.2246467991473532e-16
vn 0 1 -1.2246467991473532e-16
vn 0 1 -1.2246467991473532e-16
vn 0 1 -1.2246467991473532e-16
vn 0 1 -1.2246467991473532e-16
vn 0 1 -1.2246467991473532e-16
vn 0 1 -1.2246467991473532e-16
vn -1 0 0
vn -1 0 0
vn -1 0 0
vn -0.11111111111111112 0.44444444444444436 -0.888888888888889
vn -0.11111111111111112 0.44444444444444436 -0.888888888888889
vn -0.11111111111111112 0.44444444444444436 -0.888888888888889
vn 0 1 -1.2246467991473532e-16
vn 0 1 -1.2246467991473532e-16
vn 0 1 -1.2246467991473532e-16
vn 0 1 -1.2246467991473532e-16
vn 0 1 -1.2246467991473532e-16
vn 0 1 -1.2246467991473532e-16
vn -1 0 0
vn -1 0 0
vn -1 0 0
vn -1 0 0
vn -1 0 0
vn -1 0 0
vn -1 0 0
vn -1 0 0
vn -1 0 0
vn -1 0 0
vn -1 0 0
vn -1 0 0
vn 0 1 -1.2246467991473532e-16
vn 0 1 -1.2246467991473532e-16
vn 0 1 -1.2246467991473532e-16
vn 0 1 -1.2246467991473532e-16
vn 0 1 -1.2246467991473532e-16
vn 0 1 -1.2246467991473532e-16
vn 0 1 -1.2246467991473532e-16
vn 0 1 -1.2246467991473532e-16
vn 0 1 -1.2246467991473532e-16
vn 0 1 -1.2246467991473532e-16
vn 0 1 -1.2246467991473532e-16
vn 0 1 -1.2246467991473532e-16
vn -1 0 0
vn -1 0 0
vn -1 0 0
vn -1 0 0
vn -1 0 0
vn -1 0 0
vn -1 0 0
vn -1 0 0
vn -1 0 0
vn -1 0 0
vn -1 0 0
vn -1 0 0
vn -1 0 0
vn -1 0 0
vn -1 0 0
vn -1 0 0
vn 0 1 -1.2246467991473532e-16
vn 0 1 -1.2246467991473532e-16
vn 0 1 -1.2246467991473532e-16
vn 0 1 -1.2246467991473532e-16
vn -1 0 0
vn -1 0 0
vn -1 0 0
vn -1 0 0
vn -1 0 0
vn -1 0 0
vn -1 0 0
vn -1 0 0
vn -1 0 0
vn -1 0 0
vn -1 0 0
vn -1 0 0
vn 0 1 -1.2246467991473532e-16
vn 0 1 -1.2246467991473532e-16
vn 0 1 -1.2246467991473532e-16
vn 0 1 -1.2246467991473532e-16
vn 0 1 -1.2246467991473532e-16
vn 0 1 -1.2246467991473532e-16
vn 0 1 -1.2246467991473532e-16
vn 0 1 -1.2246467991473532e-16
vn -1 0 0
vn -1 0 0
vn -1 0 0
vn -1 0 0
vn 0 1 -1.2246467991473532e-16
vn 0 1 -1.2246467991473532e-16
vn 0 1 -1.2246467991473532e-16
vn 0 1 -1.2246467991473532e-16
vn -1 0 0
vn -1 0 0
vn -1 0 0
vn -1 0 0
vn 0 1 -1.2246467991473532e-16
vn 0 1 -1.2246467991473532e-16
vn 0 1 -1.2246467991473532e-16
vn 0 1 -1.2246467991473532e-16
vn 0 1 -1.2246467991473532e-16
vn 0 1 -1.2246467991473532e-16
vn 0 1 -1.2246467991473532e-16
vn 0 1 -1.2246467991473532e-16
vn 0 1 -1.2246467991473532e-16
vn 0 1 -1.2246467991473532e-16
vn 0 1 -1.2246467991473532e-16
vn 0 1 -1.2246467991473532e-16
vn 0 1 -1.2246467991473532e-16
vn 0 1 -1.2246467991473532e-16
vn 0 1 -1.2246467991473532e-16
vn 0 1 -1.2246467991473532e-16
vn 0 1 -1.2246467991473532e-16
vn 0 1 -1.2246467991473532e-16
vn 0 1 -1.2246467991473532e-16
vn 0 1 -1.2246467991473532e-16
vn 0 1 -1.2246467991473532e-16
vn 0 1 -1.2246467991473532e-16
vn 0 1 -1.2246467991473532e-16
vn 0 1 -1.2246467991473532e-16
vn 0 1 -1.2246467991473532e-16
vn 0 1 -1.2246467991473532e-16
vn 0 1 -1.2246467991473532e-16
vn 0 1 -1.2246467991473532e-16
vn -1 0 0
vn -1 0 0
vn -1 0 0
vn -1 0 0
vn 0 1 -1.2246467991473532e-16
vn 0 1 -1.2246467991473532e-16
vn 0 1 -1.2246467991473532e-16
vn 0 1 -1.2246467991473532e-16
vn -1 0 0
vn -1 0 0
vn -1 0 0
vn -1 0 0
f 329/329/329 328/328/328 327/327/327
f 332/332/332 331/331/331 330/330/330
f 335/335/335 334/334/334 333/333/333
f 338/338/338 337/337/337 336/336/336
f 341/341/341 340/340/340 339/339/339
f 344/344/344 343/343/343 342/342/342
f 347/347/347 346/346/346 345/345/345
f 350/350/350 349/349/349 348/348/348
f 353/353/353 352/352/352 351/351/351
f 356/356/356 355/355/355 354/354/354
f 359/359/359 358/358/358 357/357/357
f 362/362/362 361/361/361 360/360/360
f 365/365/365 364/364/364 363/363/363
f 368/368/368 367/367/367 366/366/366
f 371/371/371 370/370/370 369/369/369
f 374/374/374 373/373/373 372/372/372
f 377/377/377 376/376/376 375/375/375
f 376/376/376 377/377/377 378/378/378
f 381/381/381 380/380/380 379/379/379
f 380/380/380 381/381/381 382/382/382
f 385/385/385 384/384/384 383/383/383
f 384/384/384 385/385/385 386/386/386
f 389/389/389 388/388/388 387/387/387
f 388/388/388 389/389/389 390/390/390
f 393/393/393 392/392/392 391/391/391
f 392/392/392 393/393/393 394/394/394
f 397/397/397 396/396/396 395/395/395
f 396/396/396 397/397/397 398/398/398
f 401/401/401 400/400/400 399/399/399
f 400/400/400 401/401/401 402/402/402
f 405/405/405 404/404/404 403/403/403
f 404/404/404 405/405/405 406/406/406
f 409/409/409 408/408/408 407/407/407
f 408/408/408 409/409/409 410/410/410
f 413/413/413 412/412/412 411/411/411
f 412/412/412 413/413/413 414/414/414
f 417/417/417 416/416/416 415/415/415
f 416/416/416 417/417/417 418/418/418
f 421/421/421 420/420/420 419/419/419
f 420/420/420 421/421/421 422/422/422
f 425/425/425 424/424/424 423/423/423
f 424/424/424 425/425/425 426/426/426
f 429/429/429 428/428/428 427/427/427
f 428/428/428 429/429/429 430/430/430
f 433/433/433 432/432/432 431/431/431
f 432/432/432 433/433/433 434/434/434
f 437/437/437 436/436/436 435/435/435
f 436/436/436 437/437/437 438/438/438
f 441/441/441 440/440/440 439/439/439
f 440/440/440 441/441/441 442/442/442
f 445/445/445 444/444/444 443/443/443
f 444/444/444 445/445/445 446/446/446
f 449/449/449 448/448/448 447/447/447
f 448/448/448 449/449/449 450/450/450
f 453/453/453 452/452/452 451/451/451
f 452/452/452 453/453/453 454/454/454
f 457/457/457 456/456/456 455/455/455
f 456/456/456 457/457/457 458/458/458
f 461/461/461 460/460/460 459/459/459
f 460/460/460 461/461/461 462/462/462
f 465/465/465 464/464/464 463/463/463
f 464/464/464 465/465/465 466/466/466
f 469/469/469 468/468/468 467/467/467
f 468/468/468 469/469/469 470/470/470
f 473/473/473 472/472/472 471/471/471
f 472/472/472 473/473/473 474/474/474
f 477/477/477 476/476/476 475/475/475
f 476/476/476 477/477/477 478/478/478
o mesh_11
usemtl mat4
v 76.80000000000001 3.199999999999985 -121.60000000000001
v 78.4 3.199999999999986 -115.2
v 76.80000000000001 -1.410793112617751e-14 -115.2
v 76.80000000000001 3.1999999999999846 -128
v 76.80000000000001 -1.567547902908612e-14 -128
v 76.80000000000001 3.1999999999999833 -137.6
v 76.80000000000001 -1.7047083444131156e-14 -139.20000000000002
v 76.80000000000001 -1.410793112617751e-14 -115.2
v 76.80000000000001 -1.567547902908612e-14 -128
v 76.80000000000001 3.199999999999985 -121.60000000000001
v 76.80000000000001 3.1999999999999846 -128
vt 0.4296875 0.7109375
vt 0.4921875 0.7109375
vt 0.4921875 0.7421875
vt 0.3671875 0.7109375
vt 0.3671875 0.7421875
vt 0.2734375 0.7109375
vt 0.2578125 0.7421875
vt 0.4921875 0.7421875
vt 0.3671875 0.7421875
vt 0.4296875 0.7109375
vt 0.3671875 0.7109375
vn -0.8728715609439696 0.4364357804719848 0.21821789023599236
vn -0.8728715609439696 0.4364357804719848 0.21821789023599236
vn -0.8728715609439696 0.4364357804719848 0.21821789023599236
vn -1 0 0
vn -1 0 0
vn -1 0 0
vn -1 0 0
vn -1 0 0
vn -1 0 0
vn -1 0 0
vn -1 0 0
f 481/481/481 480/480/480 479/479/479
f 484/484/484 483/483/483 482/482/482
f 483/483/483 484/484/484 485/485/485
f 488/488/488 487/487/487 486/486/486
f 487/487/487 488/488/488 489/489/489
o mesh_12
usemtl mat5
v 38.400000000000006 25.599999999999994 -50.400000000000006
v 37.6 25.599999999999998 -38.400000000000006
v 26.400000000000002 25.599999999999994 -51.2
v 25.6 25.599999999999998 -39.2
vt 0 0.875
vt 0.1171875 0.875
vt 0 0.9921875
vt 0.1171875 0.9921875
vn 0 1 -1.2246467991473532e-16
vn 0 1 -1.2246467991473532e-16
vn 0 1 -1.2246467991473532e-16
vn 0 1 -1.2246467991473532e-16
f 492/492/492 491/491/491 490/490/490
f 491/491/491 492/492/492 493/493/493
o mesh_13
usemtl mat6
v 39.2 12.799999999999997 -25.6
v 38.400000000000006 12.799999999999995 -37.6
v 51.2 12.799999999999997 -26.400000000000002
v 50.400000000000006 12.799999999999995 -38.400000000000006
vt 0.4921875 0.9921875
vt 0.375 0.9921875
vt 0.4921875 0.875
vt 0.375 0.875
vn 0 1 -1.2246467991473532e-16
vn 0 1 -1.2246467991473532e-16
vn 0 1 -1.2246467991473532e-16
vn 0 1 -1.2246467991473532e-16
f 496/496/496 495/495/495 494/494/494
f 495/495/495 496/496/496 497/497/497
o mesh_14
usemtl mat7
v 37.6 12.799999999999994 -64
v 37.6 12.799999999999994 -52
v 26.400000000000002 12.799999999999994 -64
v 26.400000000000002 12.799999999999994 -52
v 26.400000000000002 12.799999999999992 -76
v 37.6 12.799999999999992 -76
v 26.400000000000002 12.799999999999994 -64
v 37.6 12.799999999999994 -64
vt 0.6171875 0.75
vt 0.7421875 0.75
vt 0.6171875 0.8671875
vt 0.7421875 0.8671875
vt 0.5 0.8671875
vt 0.5 0.75
vt 0.6171875 0.8671875
vt 0.6171875 0.75
vn 0 1 -1.2246467991473532e-16
vn 0 1 -1.2246467991473532e-16
vn 0 1 -1.2246467991473532e-16
vn 0 1 -1.2246467991473532e-16
vn 0 1 -1.2246467991473532e-16
vn 0 1 -1.2246467991473532e-16
vn 0 1 -1.2246467991473532e-16
vn 0 1 -1.2246467991473532e-16
f 500/500/500 499/499/499 498/498/498
f 499/499/499 500/500/500 501/501/501
f 504/504/504 503/503/503 502/502/502
f 503/503/503 504/504/504 505/505/505
o mesh_15
usemtl mat8
v 38.400000000000006 25.599999999999998 -37.6
v 38.400000000000006 25.599999999999998 -25.600000000000005
v 26.400000000000002 25.599999999999998 -37.6
v 26.400000000000002 25.599999999999998 -25.600000000000005
vt 0.2421875 0.8671875
vt 0.125 0.8671875
vt 0.2421875 0.75
vt 0.125 0.75
vn 0 1 -1.2246467991473532e-16
vn 0 1 -1.2246467991473532e-16
vn 0 1 -1.2246467991473532e-16
vn 0 1 -1.2246467991473532e-16
f 508/508/508 507/507/507 506/506/506
f 507/507/507 508/508/508 509/509/509
o mesh_16
usemtl mat4
v 64 51.19999999999998 -166.4
v 64 51.19999999999998 -179.20000000000002
v 64 76.8 -166.4
v 51.2 51.19999999999998 -179.20000000000002
v 51.2 51.19999999999998 -166.4
v 51.2 76.8 -166.4
v 38.400000000000006 51.19999999999998 -166.4
v 24 51.19999999999998 -166.4
v 24 63.99999999999998 -166.4
v 48 25.59999999999998 -166.4
v 38.400000000000006 25.59999999999998 -166.4
v 38.400000000000006 51.19999999999998 -166.4
v 44.800000000000004 -2.037812273781196e-14 -166.4
v 38.400000000000006 -2.037812273781196e-14 -166.4
v 38.400000000000006 12.799999999999981 -166.4
v 64 25.59999999999998 -169.60000000000002
v 64 25.59999999999998 -179.20000000000002
v 64 51.19999999999998 -179.20000000000002
v 51.2 51.19999999999998 -179.20000000000002
v 51.2 25.59999999999998 -179.20000000000002
v 51.2 25.59999999999998 -169.60000000000002
v 64 25.59999999999998 -169.60000000000002
v 64 25.59999999999998 -166.4
v 67.2 25.59999999999998 -166.4
v 48 25.59999999999998 -166.4
v 51.2 25.59999999999998 -166.4
v 51.2 25.59999999999998 -169.60000000000002
v 76.80000000000001 51.19999999999998 -166.4
v 76.80000000000001 25.59999999999998 -166.4
v 67.2 25.59999999999998 -166.4
v 24 25.59999999999998 -166.4
v 38.400000000000006 25.59999999999998 -166.4
v 24 12.799999999999981 -166.4
v 38.400000000000006 12.799999999999981 -166.4
v 64 51.19999999999998 -179.20000000000002
v 64 25.59999999999998 -179.20000000000002
v 51.2 51.19999999999998 -179.20000000000002
v 51.2 25.59999999999998 -179.20000000000002
v 67.2 12.799999999999981 -166.4
v 76.80000000000001 12.799999999999981 -166.4
v 67.2 -2.037812273781196e-14 -166.4
v 76.80000000000001 -2.037812273781196e-14 -166.4
v 51.2 25.59999999999998 -169.60000000000002
v 51.2 25.59999999999998 -166.4
v 51.2 51.19999999999998 -179.20000000000002
v 51.2 51.19999999999998 -166.4
v 24 25.59999999999998 -166.4
v 24 51.19999999999998 -166.4
v 38.400000000000006 25.59999999999998 -166.4
v 38.400000000000006 51.19999999999998 -166.4
v 67.2 25.59999999999998 -166.4
v 64 25.59999999999998 -166.4
v 76.80000000000001 51.19999999999998 -166.4
v 64 51.19999999999998 -166.4
v 51.2 51.19999999999998 -166.4
v 38.400000000000006 51.19999999999998 -166.4
v 51.2 76.8 -166.4
v 38.400000000000006 76.8 -166.4
v 76.80000000000001 51.19999999999998 -166.4
v 64 51.19999999999998 -166.4
v 76.80000000000001 76.8 -166.4
v 64 76.8 -166.4
v 64 76.8 -166.4
v 64 51.19999999999998 -179.20000000000002
v 51.2 76.8 -166.4
v 51.2 51.19999999999998 -179.20000000000002
v 86.4 70.39999999999999 -166.4
v 89.60000000000001 63.99999999999998 -166.4
v 76.80000000000001 51.19999999999998 -166.4
v 89.60000000000001 51.19999999999998 -166.4
v 48 12.799999999999981 -166.4
v 38.400000000000006 12.799999999999981 -166.4
v 48 25.59999999999998 -166.4
v 38.400000000000006 25.59999999999998 -166.4
v 64 12.79999999999998 -169.60000000000002
v 64 12.79999999999998 -179.20000000000002
v 64 25.59999999999998 -169.60000000000002
v 64 25.59999999999998 -179.20000000000002
v 64 12.79999999999998 -179.20000000000002
v 64 12.799999999999978 -192
v 64 25.59999999999998 -179.20000000000002
v 64 25.599999999999977 -192
v 51.2 12.799999999999978 -192
v 51.2 12.79999999999998 -179.20000000000002
v 51.2 25.599999999999977 -192
v 51.2 25.59999999999998 -179.20000000000002
v 64 -2.194567064072057e-14 -179.20000000000002
v 64 -2.3513218543629183e-14 -192
v 64 12.79999999999998 -179.20000000000002
v 64 12.799999999999978 -192
v 51.2 -2.3513218543629183e-14 -192
v 51.2 -2.194567064072057e-14 -179.20000000000002
v 51.2 12.799999999999978 -192
v 51.2 12.79999999999998 -179.20000000000002
v 64 -2.077000971353911e-14 -169.60000000000002
v 64 -2.194567064072057e-14 -179.20000000000002
v 64 12.79999999999998 -169.60000000000002
v 64 12.79999999999998 -179.20000000000002
v 25.6 -2.037812273781196e-14 -166.4
v 24 12.799999999999981 -166.4
v 38.400000000000006 -2.037812273781196e-14 -166.4
v 38.400000000000006 12.799999999999981 -166.4
v 89.60000000000001 3.1999999999999797 -166.4
v 76.80000000000001 -2.037812273781196e-14 -166.4
v 89.60000000000001 12.799999999999981 -166.4
v 76.80000000000001 12.799999999999981 -166.4
v 64 25.59999999999998 -179.20000000000002
v 64 25.599999999999977 -192
v 51.2 25.59999999999998 -179.20000000000002
v 51.2 25.599999999999977 -192
v 76.80000000000001 76.8 -166.4
v 83.2 73.6 -166.4
v 76.80000000000001 51.19999999999998 -166.4
v 86.4 70.39999999999999 -166.4
v 38.400000000000006 76.8 -166.4
v 38.400000000000006 51.19999999999998 -166.4
v 25.6 76.8 -166.4
v 24 63.99999999999998 -166.4
v 51.2 12.79999999999998 -169.60000000000002
v 51.2 12.79999999999998 -179.20000000000002
v 51.2 -2.077000971353911e-14 -169.60000000000002
v 51.2 -2.194567064072057e-14 -179.20000000000002
v 76.80000000000001 25.59999999999998 -166.4
v 89.60000000000001 25.59999999999998 -166.4
v 76.80000000000001 12.799999999999981 -166.4
v 89.60000000000001 12.799999999999981 -166.4
v 51.2 25.59999999999998 -169.60000000000002
v 51.2 25.59999999999998 -179.20000000000002
v 51.2 12.79999999999998 -169.60000000000002
v 51.2 12.79999999999998 -179.20000000000002
v 48 -2.037812273781196e-14 -166.4
v 48 12.799999999999981 -166.4
v 51.2 -2.077000971353911e-14 -169.60000000000002
v 51.2 12.79999999999998 -169.60000000000002
v 51.2 25.59999999999998 -169.60000000000002
v 51.2 12.79999999999998 -169.60000000000002
v 48 25.59999999999998 -166.4
v 48 12.799999999999981 -166.4
v 38.400000000000006 12.799999999999981 -166.4
v 48 12.799999999999981 -166.4
v 44.800000000000004 -2.037812273781196e-14 -166.4
v 48 -2.037812273781196e-14 -166.4
v 67.2 12.799999999999981 -166.4
v 67.2 25.59999999999998 -166.4
v 76.80000000000001 12.799999999999981 -166.4
v 76.80000000000001 25.59999999999998 -166.4
v 64 -2.077000971353911e-14 -169.60000000000002
v 64 12.79999999999998 -169.60000000000002
v 67.2 -2.037812273781196e-14 -166.4
v 67.2 12.799999999999981 -166.4
v 67.2 25.59999999999998 -166.4
v 67.2 12.799999999999981 -166.4
v 64 25.59999999999998 -169.60000000000002
v 64 12.79999999999998 -169.60000000000002
v 64 51.19999999999998 -179.20000000000002
v 64 51.19999999999998 -166.4
v 64 25.59999999999998 -169.60000000000002
v 64 25.59999999999998 -166.4
v 38.400000000000006 51.19999999999998 -166.4
v 51.2 51.19999999999998 -166.4
v 48 25.59999999999998 -166.4
v 51.2 25.59999999999998 -166.4
vt 0.8671875 0.25
vt 0.7421875 0.25
vt 0.8671875 0
vt 0.8671875 0.2421875
vt 0.75 0.2421875
vt 0.75 0
vt 0.375 0.2421875
vt 0.25 0.2421875
vt 0.25 0.1171875
vt 0.71875 0.4921875
vt 0.625 0.4921875
vt 0.625 0.2421875
vt 0.6953125 0.7421875
vt 0.625 0.7421875
vt 0.625 0.6171875
vt 0.8359375 0.5
vt 0.7421875 0.5
vt 0.7421875 0.25
vt 0.8671875 0.2421875
vt 0.8671875 0.4921875
vt 0.7734375 0.4921875
vt 0.8515625 0.40625
vt 0.84375 0.375
vt 0.8671875 0.375
vt 0.75 0.375
vt 0.765625 0.375
vt 0.7734375 0.40625
vt 0.9921875 0.2421875
vt 0.9921875 0.4921875
vt 0.8984375 0.4921875
vt 0.5 0.4921875
vt 0.625 0.4921875
vt 0.5 0.6171875
vt 0.625 0.6171875
vt 0.875 0.2421875
vt 0.875 0.4921875
vt 0.75 0.2421875
vt 0.75 0.4921875
vt 0.8984375 0.6171875
vt 0.9921875 0.6171875
vt 0.8984375 0.7421875
vt 0.9921875 0.7421875
vt 0.7734375 0.4921875
vt 0.75 0.4921875
vt 0.8671875 0.2421875
vt 0.75 0.2421875
vt 0.5 0.4921875
vt 0.5 0.2421875
vt 0.625 0.4921875
vt 0.625 0.2421875
vt 0.8984375 0.4921875
vt 0.875 0.4921875
vt 0.9921875 0.2421875
vt 0.875 0.2421875
vt 0.4921875 0.2421875
vt 0.375 0.2421875
vt 0.4921875 0
vt 0.375 0
vt 0.3671875 0.2421875
vt 0.25 0.2421875
vt 0.3671875 0
vt 0.25 0
vt 0.875 0
vt 0.875 0.2421875
vt 0.75 0
vt 0.75 0.2421875
vt 0.4609375 0.0546875
vt 0.4921875 0.1171875
vt 0.3671875 0.2421875
vt 0.4921875 0.2421875
vt 0.71875 0.6171875
vt 0.625 0.6171875
vt 0.71875 0.4921875
vt 0.625 0.4921875
vt 0.8359375 0.6171875
vt 0.7421875 0.6171875
vt 0.8359375 0.5
vt 0.7421875 0.5
vt 0.7421875 0.6171875
vt 0.625 0.6171875
vt 0.7421875 0.5
vt 0.625 0.5
vt 0.9921875 0.6171875
vt 0.8671875 0.6171875
vt 0.9921875 0.4921875
vt 0.8671875 0.4921875
vt 0.7421875 0.7421875
vt 0.625 0.7421875
vt 0.7421875 0.6171875
vt 0.625 0.6171875
vt 0.9921875 0.7421875
vt 0.8671875 0.7421875
vt 0.9921875 0.6171875
vt 0.8671875 0.6171875
vt 0.8359375 0.7421875
vt 0.7421875 0.7421875
vt 0.8359375 0.6171875
vt 0.7421875 0.6171875
vt 0.5078125 0.7421875
vt 0.5 0.6171875
vt 0.625 0.7421875
vt 0.625 0.6171875
vt 0.6171875 0.7109375
vt 0.5 0.7421875
vt 0.6171875 0.6171875
vt 0.5 0.6171875
vt 0.8671875 0.375
vt 0.8671875 0.4921875
vt 0.75 0.375
vt 0.75 0.4921875
vt 0.3671875 0
vt 0.4296875 0.0234375
vt 0.3671875 0.2421875
vt 0.4609375 0.0546875
vt 0.375 0
vt 0.375 0.2421875
vt 0.2578125 0
vt 0.25 0.1171875
vt 0.7734375 0.6171875
vt 0.8671875 0.6171875
vt 0.7734375 0.7421875
vt 0.8671875 0.7421875
vt 0.5 0.4921875
vt 0.6171875 0.4921875
vt 0.5 0.6171875
vt 0.6171875 0.6171875
vt 0.7734375 0.4921875
vt 0.8671875 0.4921875
vt 0.7734375 0.6171875
vt 0.8671875 0.6171875
vt 0.71875 0.7421875
vt 0.71875 0.6171875
vt 0.78125 0.7421875
vt 0.78125 0.6171875
vt 0.78125 0.4921875
vt 0.78125 0.6171875
vt 0.71875 0.4921875
vt 0.71875 0.6171875
vt 0.625 0.6171875
vt 0.71875 0.6171875
vt 0.6953125 0.7421875
vt 0.71875 0.7421875
vt 0.8984375 0.6171875
vt 0.8984375 0.4921875
vt 0.9921875 0.6171875
vt 0.9921875 0.4921875
vt 0.8359375 0.7421875
vt 0.8359375 0.625
vt 0.8984375 0.7421875
vt 0.8984375 0.6171875
vt 0.8984375 0.4921875
vt 0.8984375 0.6171875
vt 0.8359375 0.5
vt 0.8359375 0.625
vt 0.7421875 0.25
vt 0.8671875 0.25
vt 0.8359375 0.5
vt 0.8671875 0.5
vt 0.625 0.2421875
vt 0.75 0.2421875
vt 0.71875 0.4921875
vt 0.75 0.4921875
vn -1 0 0
vn -1 0 0
vn -1 0 0
vn 1 0 0
vn 1 0 0
vn 1 0 0
vn 0 1.2246467991473532e-16 1
vn 0 1.2246467991473532e-16 1
vn 0 1.2246467991473532e-16 1
vn 0 1.2246467991473532e-16 1
vn 0 1.2246467991473532e-16 1
vn 0 1.2246467991473532e-16 1
vn 0 1.2246467991473532e-16 1
vn 0 1.2246467991473532e-16 1
vn 0 1.2246467991473532e-16 1
vn -1 0 0
vn -1 0 0
vn -1 0 0
vn 1 0 0
vn 1 0 0
vn 1 0 0
vn 0 -1 1.2246467991473532e-16
vn 0 -1 1.2246467991473532e-16
vn 0 -1 1.2246467991473532e-16
vn 0 -1 1.2246467991473532e-16
vn 0 -1 1.2246467991473532e-16
vn 0 -1 1.2246467991473532e-16
vn 0 1.2246467991473532e-16 1
vn 0 1.2246467991473532e-16 1
vn 0 1.2246467991473532e-16 1
vn 0 1.2246467991473532e-16 1
vn 0 1.2246467991473532e-16 1
vn 0 1.2246467991473532e-16 1
vn 0 1.2246467991473532e-16 1
vn 0 1.2246467991473532e-16 1
vn 0 1.2246467991473532e-16 1
vn 0 1.2246467991473532e-16 1
vn 0 1.2246467991473532e-16 1
vn 0 1.2246467991473532e-16 1
vn 0 1.2246467991473532e-16 1
vn 0 1.2246467991473532e-16 1
vn 0 1.2246467991473532e-16 1
vn 1 0 0
vn 1 0 0
vn 1 0 0
vn 1 0 0
vn 0 1.2246467991473532e-16 1
vn 0 1.2246467991473532e-16 1
vn 0 1.2246467991473532e-16 1
vn 0 1.2246467991473532e-16 1
vn 0 1.2246467991473532e-16 1
vn 0 1.2246467991473532e-16 1
vn 0 1.2246467991473532e-16 1
vn 0 1.2246467991473532e-16 1
vn 0 1.2246467991473532e-16 1
vn 0 1.2246467991473532e-16 1
vn 0 1.2246467991473532e-16 1
vn 0 1.2246467991473532e-16 1
vn 0 1.2246467991473532e-16 1
vn 0 1.2246467991473532e-16 1
vn 0 1.2246467991473532e-16 1
vn 0 1.2246467991473532e-16 1
vn 0 -0.4472135954999579 0.894427190999916
vn 0 -0.4472135954999579 0.894427190999916
vn 0 -0.4472135954999579 0.894427190999916
vn 0 -0.4472135954999579 0.894427190999916
vn 0 1.2246467991473532e-16 1
vn 0 1.2246467991473532e-16 1
vn 0 1.2246467991473532e-16 1
vn 0 1.2246467991473532e-16 1
vn 0 1.2246467991473532e-16 1
vn 0 1.2246467991473532e-16 1
vn 0 1.2246467991473532e-16 1
vn 0 1.2246467991473532e-16 1
vn -1 0 0
vn -1 0 0
vn -1 0 0
vn -1 0 0
vn -1 0 0
vn -1 0 0
vn -1 0 0
vn -1 0 0
vn 1 0 0
vn 1 0 0
vn 1 0 0
vn 1 0 0
vn -1 0 0
vn -1 0 0
vn -1 0 0
vn -1 0 0
vn 1 0 0
vn 1 0 0
vn 1 0 0
vn 1 0 0
vn -1 0 0
vn -1 0 0
vn -1 0 0
vn -1 0 0
vn 0 1.2246467991473532e-16 1
vn 0 1.2246467991473532e-16 1
vn 0 1.2246467991473532e-16 1
vn 0 1.2246467991473532e-16 1
vn 0 1.2246467991473532e-16 1
vn 0 1.2246467991473532e-16 1
vn 0 1.2246467991473532e-16 1
vn 0 1.2246467991473532e-16 1
vn 0 -1 1.2246467991473532e-16
vn 0 -1 1.2246467991473532e-16
vn 0 -1 1.2246467991473532e-16
vn 0 -1 1.2246467991473532e-16
vn 0 1.2246467991473532e-16 1
vn 0 1.2246467991473532e-16 1
vn 0 1.2246467991473532e-16 1
vn 0 1.2246467991473532e-16 1
vn 0 1.2246467991473532e-16 1
vn 0 1.2246467991473532e-16 1
vn 0 1.2246467991473532e-16 1
vn 0 1.2246467991473532e-16 1
vn 1 0 0
vn 1 0 0
vn 1 0 0
vn 1 0 0
vn 0 1.2246467991473532e-16 1
vn 0 1.2246467991473532e-16 1
vn 0 1.2246467991473532e-16 1
vn 0 1.2246467991473532e-16 1
vn 1 0 0
vn 1 0 0
vn 1 0 0
vn 1 0 0
vn 0.7071067811865475 8.659560562354932e-17 0.7071067811865475
vn 0.7071067811865475 8.659560562354932e-17 0.7071067811865475
vn 0.7071067811865475 8.659560562354932e-17 0.7071067811865475
vn 0.7071067811865475 8.659560562354932e-17 0.7071067811865475
vn 0.7071067811865475 8.659560562354932e-17 0.7071067811865475
vn 0.7071067811865475 8.659560562354932e-17 0.7071067811865475
vn 0.7071067811865475 8.659560562354932e-17 0.7071067811865475
vn 0.7071067811865475 8.659560562354932e-17 0.7071067811865475
vn 0 1.2246467991473532e-16 1
vn 0 1.2246467991473532e-16 1
vn 0 1.2246467991473532e-16 1
vn 0 1.2246467991473532e-16 1
vn 0 1.2246467991473532e-16 1
vn 0 1.2246467991473532e-16 1
vn 0 1.2246467991473532e-16 1
vn 0 1.2246467991473532e-16 1
vn -0.7071067811865475 8.659560562354932e-17 0.7071067811865475
vn -0.7071067811865475 8.659560562354932e-17 0.7071067811865475
vn -0.7071067811865475 8.659560562354932e-17 0.7071067811865475
vn -0.7071067811865475 8.659560562354932e-17 0.7071067811865475
vn -0.7071067811865475 8.659560562354932e-17 0.7071067811865475
vn -0.7071067811865475 8.659560562354932e-17 0.7071067811865475
vn -0.7071067811865475 8.659560562354932e-17 0.7071067811865475
vn -0.7071067811865475 8.659560562354932e-17 0.7071067811865475
vn -1 0 0
vn -1 0 0
vn -1 0 0
vn -1 0 0
vn 0 1.2246467991473532e-16 1
vn 0 1.2246467991473532e-16 1
vn 0 1.2246467991473532e-16 1
vn 0 1.2246467991473532e-16 1
f 512/512/512 511/511/511 510/510/510
f 515/515/515 514/514/514 513/513/513
f 518/518/518 517/517/517 516/516/516
f 521/521/521 520/520/520 519/519/519
f 524/524/524 523/523/523 522/522/522
f 527/527/527 526/526/526 525/525/525
f 530/530/530 529/529/529 528/528/528
f 533/533/533 532/532/532 531/531/531
f 536/536/536 535/535/535 534/534/534
f 539/539/539 538/538/538 537/537/537
f 542/542/542 541/541/541 540/540/540
f 541/541/541 542/542/542 543/543/543
f 546/546/546 545/545/545 544/544/544
f 545/545/545 546/546/546 547/547/547
f 550/550/550 549/549/549 548/548/548
f 549/549/549 550/550/550 551/551/551
f 554/554/554 553/553/553 552/552/552
f 553/553/553 554/554/554 555/555/555
f 558/558/558 557/557/557 556/556/556
f 557/557/557 558/558/558 559/559/559
f 562/562/562 561/561/561 560/560/560
f 561/561/561 562/562/562 563/563/563
f 566/566/566 565/565/565 564/564/564
f 565/565/565 566/566/566 567/567/567
f 570/570/570 569/569/569 568/568/568
f 569/569/569 570/570/570 571/571/571
f 574/574/574 573/573/573 572/572/572
f 573/573/573 574/574/574 575/575/575
f 578/578/578 577/577/577 576/576/576
f 577/577/577 578/578/578 579/579/579
f 582/582/582 581/581/581 580/580/580
f 581/581/581 582/582/582 583/583/583
f 586/586/586 585/585/585 584/584/584
f 585/585/585 586/586/586 587/587/587
f 590/590/590 589/589/589 588/588/588
f 589/589/589 590/590/590 591/591/591
f 594/594/594 593/593/593 592/592/592
f 593/593/593 594/594/594 595/595/595
f 598/598/598 597/597/597 596/596/596
f 597/597/597 598/598/598 599/599/599
f 602/602/602 601/601/601 600/600/600
f 601/601/601 602/602/602 603/603/603
f 606/606/606 605/605/605 604/604/604
f 605/605/605 606/606/606 607/607/607
f 610/610/610 609/609/609 608/608/608
f 609/609/609 610/610/610 611/611/611
f 614/614/614 613/613/613 612/612/612
f 613/613/613 614/614/614 615/615/615
f 618/618/618 617/617/617 616/616/616
f 617/617/617 618/618/618 619/619/619
f 622/622/622 621/621/621 620/620/620
f 621/621/621 622/622/622 623/623/623
f 626/626/626 625/625/625 624/624/624
f 625/625/625 626/626/626 627/627/627
f 630/630/630 629/629/629 628/628/628
f 629/629/629 630/630/630 631/631/631
f 634/634/634 633/633/633 632/632/632
f 633/633/633 634/634/634 635/635/635
f 638/638/638 637/637/637 636/636/636
f 637/637/637 638/638/638 639/639/639
f 642/642/642 641/641/641 640/640/640
f 641/641/641 642/642/642 643/643/643
f 646/646/646 645/645/645 644/644/644
f 645/645/645 646/646/646 647/647/647
f 650/650/650 649/649/649 648/648/648
f 649/649/649 650/650/650 651/651/651
f 654/654/654 653/653/653 652/652/652
f 653/653/653 654/654/654 655/655/655
f 658/658/658 657/657/657 656/656/656
f 657/657/657 658/658/658 659/659/659
f 662/662/662 661/661/661 660/660/660
f 661/661/661 662/662/662 663/663/663
f 666/666/666 665/665/665 664/664/664
f 665/665/665 666/666/666 667/667/667
f 670/670/670 669/669/669 668/668/668
f 669/669/669 670/670/670 671/671/671
