# Blender 5.0.0
# www.blender.org
mtllib Lin.mtl
o Lin
v -0.222446 3.295012 -0.203960
v 0.229944 3.272030 -0.359216
v -0.234943 3.272030 -0.359216
v 0.214947 3.295012 -0.203960
v 0.012497 3.590168 0.357211
v -0.192453 3.368250 0.316849
v 0.177457 3.368250 0.316849
v -0.017496 3.590168 0.357211
v -0.349914 3.540537 0.136628
v -0.264935 3.385135 -0.215290
v -0.297427 3.314405 0.228675
v -0.307425 3.553467 -0.283093
v 0.257437 3.385135 -0.215290
v 0.302426 3.553467 -0.283093
v 0.287430 3.314405 0.228675
v 0.339917 3.540537 0.136628
v 0.237442 3.541880 0.419070
v -0.257437 3.541880 0.419070
v 0.037491 3.847903 0.140607
v -0.032492 3.741525 0.249200
v 0.029993 3.741525 0.249200
v -0.044989 3.847903 0.140607
v -0.134967 3.816130 0.085210
v 0.124969 3.816130 0.085210
v -0.159961 4.196992 -0.255891
v 0.087479 3.974250 -0.172457
v -0.092477 3.974250 -0.172457
v 0.149963 4.196992 -0.255891
v 0.122470 4.498310 0.076021
v -0.122470 4.393637 -0.206939
v -0.127469 4.498310 0.076021
v 0.114972 4.393637 -0.206939
v -0.007498 4.442795 0.202607
v -0.207449 4.197505 0.284143
v -0.159961 4.272360 0.240322
v -0.124969 4.406785 0.294836
v -0.239941 4.286235 0.118261
v -0.179956 4.469550 0.131476
v -0.102475 4.446898 0.091354
v -0.199951 4.212097 0.067991
v 0.157462 4.272360 0.240322
v 0.119971 4.406785 0.294836
v 0.004999 4.442795 0.202607
v 0.202451 4.197505 0.284143
v 0.177457 4.469550 0.131476
v 0.237442 4.286235 0.118261
v 0.194952 4.212097 0.067991
v 0.099976 4.446898 0.091354
v -0.219946 4.174595 -0.025995
v -0.204950 4.217345 0.015541
v -0.192453 4.172177 -0.013737
v -0.227444 4.221245 0.008669
v -0.189954 4.088448 0.010506
v -0.167459 4.096285 0.009505
v 0.187454 4.263582 0.078139
v 0.114972 4.025330 0.046454
v 0.019995 4.186660 0.261630
v 0.139966 4.266975 0.241807
v 0.009998 4.206310 0.278238
v 0.149963 4.186555 0.223407
v -0.122470 4.025330 0.046454
v -0.197452 4.263582 0.078139
v -0.154962 4.266975 0.241807
v -0.022494 4.186660 0.261630
v -0.012497 4.206310 0.278238
v -0.162460 4.186555 0.223407
v -0.194952 4.193215 0.150861
v -0.134967 4.014875 0.164095
v 0.019995 3.930317 0.244207
v -0.067484 3.953477 0.113790
v 0.057486 3.953477 0.113790
v -0.027493 3.930317 0.244207
v 0.127469 4.014390 0.166547
v 0.182455 4.193215 0.150861
v 0.029993 4.067640 0.284012
v -0.032492 4.067640 0.284012
v 0.119971 4.055277 0.243372
v -0.124969 4.055277 0.243372
v -0.014996 4.088845 0.331488
v 0.012497 4.088845 0.331488
v -0.132468 4.407575 0.226226
v -0.189954 4.265797 0.170263
v 0.212448 4.174595 -0.025995
v 0.157462 4.096285 0.009505
v 0.182455 4.172177 -0.013737
v 0.179956 4.088448 0.010506
v 0.219946 4.221245 0.008669
v 0.194952 4.217345 0.015541
v 0.114972 4.031200 0.042518
v -0.084979 4.037612 -0.119216
v -0.119971 4.031200 0.042518
v 0.079980 4.037612 -0.119216
v 0.059985 3.965738 0.116206
v -0.069983 3.965738 0.116206
v 0.129968 4.407575 0.226226
v 0.177457 4.265797 0.170263
v -0.052487 4.260763 0.299159
v 0.044989 4.260763 0.299159
v -0.169958 4.093975 0.059986
v 0.197452 4.211580 0.057701
v -0.204950 4.211580 0.057701
v 0.162460 4.093975 0.059986
v -0.179956 3.865020 0.200773
v 0.177457 3.865020 0.200773
v -0.391252 3.746793 0.068007
v -0.352304 3.837262 -0.166844
v -0.416957 3.809022 -0.126881
v -0.319160 3.780115 0.038041
v -0.276710 3.783075 0.147992
v -0.312496 3.852720 -0.191822
v -0.432333 3.150965 -0.275365
v -0.324633 3.415182 -0.081205
v -0.352318 3.152707 -0.152145
v -0.371439 3.450312 -0.235173
v -0.452050 3.163320 -0.074229
v -0.531703 3.431978 -0.080160
v -0.532395 3.144650 -0.165938
v -0.429698 3.408650 0.020327
v -0.286631 3.567087 0.038419
v -0.392313 3.656218 0.079205
v -0.496297 3.454488 -0.232096
v -0.497461 3.143035 -0.288447
v -0.496757 3.682755 -0.041175
v -0.454331 3.681057 -0.181871
v -0.336462 3.576140 -0.195943
v -0.495283 3.126830 -0.296078
v -0.565354 2.994027 -0.152574
v -0.535424 3.117835 -0.166928
v -0.508423 2.967378 -0.253765
v -0.467155 3.030802 -0.023987
v -0.445252 2.620105 0.191930
v -0.352973 2.992680 -0.096486
v -0.492653 2.623662 0.238979
v -0.455871 2.589267 0.091567
v -0.423800 2.950335 -0.258200
v -0.523446 2.584137 0.056385
v -0.562903 2.609580 0.204033
v -0.340459 3.120442 -0.131728
v -0.425131 3.136122 -0.285261
v -0.449995 3.140832 -0.071239
v -0.463964 2.431572 0.233942
v -0.573835 2.309531 0.162809
v -0.532631 2.371704 0.122139
v -0.471538 2.555147 0.090059
v -0.426410 2.307839 0.354273
v -0.481328 2.310637 0.361975
v -0.463940 2.305591 0.329855
v -0.624510 2.274117 0.170076
v -0.619439 2.402908 0.360687
v -0.612780 2.362146 0.137544
v -0.613555 2.320952 0.403930
v -0.464088 2.424249 0.372277
v -0.543059 2.347836 0.392810
v -0.391069 2.452816 0.296058
v -0.561120 2.573157 0.228814
v -0.521643 2.548862 0.068208
v -0.485816 2.590077 0.264375
v -0.433444 2.585200 0.214273
v -0.486165 2.318491 0.398586
v -0.530371 2.232358 0.231039
v -0.492412 2.256626 0.210205
v -0.529175 2.291526 0.417262
v 0.307498 3.852777 -0.189322
v 0.319160 3.780115 0.040540
v 0.352304 3.837262 -0.164345
v 0.271712 3.783130 0.150491
v 0.416957 3.809022 -0.126881
v 0.391252 3.746793 0.068007
v 0.493799 3.454440 -0.232096
v 0.333964 3.576092 -0.195943
v 0.454331 3.681057 -0.181871
v 0.371439 3.450312 -0.235173
v 0.532395 3.144650 -0.165938
v 0.494963 3.142985 -0.288447
v 0.529205 3.431927 -0.080160
v 0.322135 3.415132 -0.081205
v 0.286631 3.567087 0.038419
v 0.496757 3.682755 -0.041175
v 0.389815 3.656168 0.079206
v 0.429698 3.408650 0.020327
v 0.349821 3.152658 -0.152144
v 0.449552 3.163270 -0.074229
v 0.432333 3.150965 -0.275365
v 0.495283 3.126830 -0.296078
v 0.423800 2.950335 -0.258200
v 0.425131 3.136122 -0.285261
v 0.508423 2.967378 -0.253765
v 0.340459 3.120442 -0.131728
v 0.467155 3.030802 -0.023987
v 0.449995 3.140832 -0.071239
v 0.350475 2.992630 -0.096486
v 0.565354 2.994027 -0.152574
v 0.532926 3.117785 -0.166928
v 0.523446 2.584137 0.056385
v 0.453373 2.589217 0.091568
v 0.560405 2.609530 0.204033
v 0.490155 2.623612 0.238979
v 0.442754 2.620055 0.191931
v 0.524140 2.548913 0.068208
v 0.616941 2.402858 0.360687
v 0.612780 2.362146 0.137544
v 0.561120 2.573157 0.228814
v 0.474080 2.424447 0.372275
v 0.485816 2.590077 0.264375
v 0.388572 2.452766 0.296058
v 0.433444 2.585200 0.214273
v 0.453972 2.431375 0.233943
v 0.451556 2.554752 0.090062
v 0.552656 2.369957 0.123420
v 0.456620 2.296441 0.358550
v 0.454203 2.292548 0.323002
v 0.587294 2.259183 0.364949
v 0.597331 2.258586 0.164509
v 0.539159 2.292505 0.358966
v 0.544205 2.291374 0.182083
v 0.414407 2.283191 0.328145
v 0.491433 2.179746 0.199951
v 0.539338 2.157047 0.348992
v 0.491430 2.178960 0.330954
v 0.541899 2.155018 0.195701
v 0.414899 2.845270 0.242398
v 0.447391 2.842545 0.012482
v 0.274933 3.082615 0.169692
v -0.189954 3.054755 -0.207647
v -0.447391 2.842545 0.012482
v -0.284930 3.082615 0.169692
v 0.184955 3.054755 -0.207647
v -0.427396 2.845270 0.242398
v 0.339917 2.687245 -0.352236
v -0.347415 2.687245 -0.352236
v -0.234943 2.944658 -0.347489
v 0.217447 2.914797 -0.215007
v -0.222446 2.914797 -0.215007
v 0.229944 2.944658 -0.347489
v 0.267435 2.750440 0.382441
v 0.099976 2.940295 0.302284
v -0.289929 2.750410 0.352451
v -0.112473 2.940295 0.302284
v -0.297427 1.581265 -0.070015
v -0.472385 2.302191 0.065659
v -0.322421 2.296786 -0.262610
v -0.344916 1.527322 0.080566
v -0.252438 1.546860 0.247020
v -0.022494 2.168411 0.254573
v -0.362411 2.189990 0.309289
v -0.069983 1.544154 0.199355
v -0.094977 1.581319 -0.085215
v -0.017496 2.261932 -0.165779
v -0.617349 2.151904 0.044582
v -0.427396 2.151594 -0.330091
v -0.424896 2.385375 0.125524
v -0.427396 2.152484 0.343254
v -0.257437 1.378329 0.261969
v -0.252438 1.175777 0.182221
v -0.079980 1.286683 0.142377
v -0.302426 0.269659 -0.024646
v -0.407400 1.164337 -0.047788
v -0.259937 0.311538 -0.158721
v -0.332419 1.077554 -0.225124
v -0.099976 0.266594 0.013036
v -0.049988 1.138083 -0.150632
v -0.092477 0.311122 -0.133247
v -0.114972 0.007557 0.444072
v -0.304926 0.004210 -0.188740
v -0.092477 0.005348 -0.217959
v -0.347415 0.007905 0.330878
v -0.094977 0.216953 -0.161234
v -0.099976 0.164043 0.100502
v -0.287430 0.196058 0.035318
v -0.254938 0.217146 -0.188140
v 0.319922 2.296786 -0.262610
v 0.344916 1.527322 0.080566
v 0.294928 1.581265 -0.070015
v 0.469885 2.302191 0.065659
v 0.362411 2.189990 0.309289
v 0.067484 1.544154 0.199355
v 0.252438 1.546860 0.247020
v 0.022494 2.168411 0.254573
v 0.017496 2.261932 -0.165779
v 0.092477 1.581319 -0.085215
v 0.607352 2.151904 0.044582
v 0.029993 2.149693 0.434858
v 0.117471 2.370067 0.155871
v 0.489880 2.150605 0.409390
v 0.422397 2.151594 -0.330091
v -0.204950 2.150497 0.439791
v 0.257437 1.378329 0.261969
v 0.077481 1.286683 0.142377
v 0.252438 1.175777 0.182221
v 0.299927 0.269659 -0.024646
v 0.404901 1.164337 -0.047788
v 0.257437 0.311538 -0.158721
v 0.329920 1.077554 -0.225124
v 0.097476 0.266594 0.013036
v 0.092477 0.311122 -0.133247
v 0.049988 1.138083 -0.150632
v 0.107474 0.006188 0.440815
v 0.302426 0.004210 -0.188740
v 0.337417 0.004647 0.332246
v 0.089978 0.005348 -0.217959
v 0.254938 0.217146 -0.188140
v 0.284930 0.193745 0.034374
v 0.097476 0.164043 0.100502
v 0.092477 0.217897 -0.163547
v -0.292357 1.977631 -0.583126
v -0.437286 2.376236 -0.386482
v -0.277364 2.486290 -0.587468
v -0.457277 1.948018 -0.405657
v -0.332338 2.779885 -0.343825
v -0.179912 2.859383 -0.446233
v -0.057472 2.476705 -0.548575
v -0.034983 2.784287 -0.452220
v -0.067467 1.947930 -0.545338
v 0.274866 2.486290 -0.587468
v 0.454778 1.948018 -0.405657
v 0.289858 1.977631 -0.583126
v 0.432289 2.376236 -0.386482
v 0.177413 2.859383 -0.446233
v 0.329839 2.779885 -0.343825
v 0.032484 2.784287 -0.452220
v 0.054973 2.476705 -0.548575
v 0.062469 1.947930 -0.545338
v -0.214947 2.957270 -0.227544
v -0.019995 2.957270 -0.227544
v 0.212448 2.957270 -0.227544
v 0.017496 2.957270 -0.227544
v 0.267435 2.730355 0.287494
v -0.262436 2.730355 0.287494
v 0.257437 2.684930 -0.164801
v 0.009998 2.667487 -0.109803
v 0.029993 2.725300 0.230019
v -0.019995 2.725300 0.230019
v -0.257437 2.684930 -0.164801
v -0.012497 2.667490 -0.107304
v 0.109973 3.948500 -0.100526
v -0.114972 3.948500 -0.100526
vn -0.1438 -0.0128 0.9895
vn -0.7681 -0.0083 0.6403
vn 0.9770 -0.0763 0.1990
vn 0.9333 -0.2650 -0.2425
vn 0.9379 0.2599 -0.2297
vn 0.9775 0.0660 0.2003
vn 0.1336 -0.9868 0.0917
vn -0.7222 -0.6328 -0.2793
vn 0.2640 -0.9331 -0.2443
vn -0.6944 -0.7129 0.0977
vn -0.7198 0.6430 -0.2616
vn -0.6913 0.7172 0.0884
vn 0.2797 0.9360 -0.2136
vn 0.1572 0.9832 0.0928
vn 0.8474 0.5195 0.1094
vn 0.8363 -0.5401 0.0941
vn 0.8203 0.4330 0.3736
vn 0.6838 -0.1506 0.7139
vn 0.6816 0.1344 0.7193
vn 0.8182 -0.4498 0.3581
vn 0.4973 -0.6081 0.6188
vn 0.4959 0.5971 0.6305
vn -0.7376 -0.6470 -0.1934
vn -0.3793 0.6192 -0.6876
vn -0.3728 -0.3064 -0.8759
vn -0.7384 0.6714 0.0641
vn 0.0549 0.4702 0.8808
vn -0.5275 -0.7360 0.4243
vn 0.0542 -0.7634 0.6436
vn -0.5308 0.5261 0.6644
vn 0.1479 0.9301 -0.3361
vn 0.6049 0.7887 -0.1095
vn 0.2009 0.9729 -0.1143
vn 0.5460 0.7952 -0.2636
vn 0.4392 -0.6567 0.6130
vn -0.2284 -0.9658 -0.1230
vn 0.2632 -0.9602 -0.0935
vn -0.1009 -0.5864 0.8038
vn -0.6346 -0.2985 0.7129
vn -0.6845 -0.7187 -0.1222
vn -0.2764 0.8961 -0.3473
vn -0.2525 0.9628 -0.0962
vn 0.2012 -0.8568 -0.4747
vn 0.5462 -0.6366 -0.5444
vn 0.1482 -0.7343 -0.6625
vn 0.6060 -0.6877 -0.3999
vn 0.2633 0.9238 0.2779
vn -0.1005 0.2375 0.9662
vn 0.4392 0.3749 0.8164
vn -0.2284 0.9403 0.2524
vn -0.6845 0.7113 0.1596
vn -0.6344 0.0055 0.7730
vn -0.2529 -0.8544 -0.4539
vn -0.2763 -0.6984 -0.6602
vn -0.9318 0.2723 0.2401
vn -0.2148 0.3968 0.8924
vn -0.7028 0.5940 0.3916
vn -0.3253 0.0274 0.9452
vn -0.5799 0.5162 -0.6302
vn -0.4441 0.8514 -0.2792
vn -0.0415 0.9724 0.2298
vn -0.2050 0.7820 -0.5886
vn 0.8018 0.5859 0.1177
vn 0.7316 0.6817 0.0057
vn 0.8993 0.4312 -0.0729
vn 0.7144 0.6990 0.0310
vn -0.2137 -0.4968 -0.8412
vn -0.0549 -0.9872 -0.1499
vn 0.7435 -0.6245 -0.2391
vn 0.8067 -0.5787 -0.1198
vn 0.9022 -0.3616 -0.2351
vn 0.7237 -0.6432 -0.2500
vn 0.1654 -0.9317 -0.3235
vn 0.0930 -0.7193 -0.6884
vn 0.5237 0.5756 -0.6280
vn -0.2793 -0.2147 -0.9359
vn -0.2786 0.5487 -0.7883
vn 0.5318 -0.2947 -0.7940
vn 0.0940 0.9279 -0.3609
vn 0.1826 0.9810 0.0659
vn 0.8610 0.4596 -0.2179
vn 0.8623 -0.3395 -0.3759
vn 0.6968 0.7050 -0.1320
vn 0.7071 -0.5892 -0.3909
vn 0.7425 -0.6331 0.2187
vn 0.7467 0.4968 0.4423
vn 0.3901 0.1769 -0.9036
vn 0.3902 0.1769 -0.9036
vn 0.6820 -0.6356 0.3618
vn 0.2698 -0.9614 -0.0546
vn -0.9318 -0.3431 0.1189
vn -0.4470 -0.6809 -0.5802
vn -0.7036 -0.6973 0.1370
vn -0.5812 -0.2381 -0.7781
vn -0.3254 -0.3841 0.8641
vn -0.2168 -0.7055 0.6748
vn 0.5484 0.5255 0.6505
vn -0.6127 -0.6752 0.4108
vn 0.5358 -0.7433 0.4004
vn -0.6119 0.4740 0.6332
vn 0.8796 0.2418 0.4098
vn 0.8751 -0.3970 0.2766
vn 0.6864 0.4707 0.5543
vn 0.2843 0.9132 0.2921
vn 0.9635 -0.2302 -0.1367
vn 0.9582 0.2827 -0.0426
vn 0.2993 -0.8481 -0.4373
vn 0.2993 -0.8481 -0.4372
vn 0.2992 -0.8481 -0.4373
vn 0.1426 -0.7485 0.6476
vn 0.0192 0.9705 -0.2402
vn 0.1455 0.4470 0.8826
vn 0.3024 0.9496 -0.0830
vn 0.3025 0.9495 -0.0832
vn 0.3025 0.9495 -0.0831
vn 0.3024 0.9495 -0.0832
vn 0.2434 0.9629 0.1169
vn -0.1446 -0.9252 -0.3509
vn 0.1073 -0.0834 0.9907
vn 0.2439 -0.9349 -0.2580
vn -0.1446 0.9891 0.0264
vn 0.1079 -0.2988 0.9482
vn 0.2993 -0.8482 -0.4371
vn 0.0143 -0.8070 -0.5904
vn 0.4237 0.5544 -0.7163
vn 0.6080 0.7272 0.3186
vn 0.6639 0.7192 0.2049
vn 0.4839 0.7108 -0.5105
vn 0.5590 0.7327 -0.3882
vn 0.4551 0.7732 0.4416
vn -0.7953 -0.4279 -0.4294
vn 0.2621 -0.9648 0.0235
vn 0.1766 -0.9134 -0.3669
vn -0.8101 -0.5406 -0.2269
vn 0.9955 0.0717 0.0620
vn 0.2730 0.9261 0.2604
vn 0.2535 0.9268 0.2770
vn 0.9413 0.0326 0.3361
vn 0.6275 -0.7785 -0.0108
vn 0.9733 0.1641 0.1606
vn -0.7724 0.6343 -0.0336
vn -0.7345 0.6671 -0.1245
vn 0.2840 0.9586 -0.0186
vn -0.7247 0.6766 -0.1301
vn -0.8875 0.3662 -0.2799
vn -0.7802 0.3874 -0.4911
vn 0.1412 0.6954 -0.7046
vn 0.1720 0.7171 -0.6754
vn -0.7544 0.6551 -0.0427
vn 0.8756 -0.1925 -0.4430
vn 0.2559 -0.8692 0.4231
vn 0.2698 -0.8187 0.5069
vn 0.7935 -0.3714 -0.4820
vn -0.5902 -0.3424 0.7311
vn -0.7114 -0.2340 0.6627
vn -0.7411 0.6638 0.1003
vn 0.2613 0.6730 -0.6920
vn 0.2034 -0.9196 0.3362
vn -0.8265 -0.5342 0.1775
vn 0.9374 -0.0719 -0.3409
vn -0.3466 -0.4284 0.8345
vn -0.5476 -0.0523 0.8351
vn -0.7012 -0.1688 0.6927
vn -0.6398 -0.4650 0.6119
vn 0.1789 -0.1189 0.9767
vn 0.6800 0.0348 0.7323
vn -0.3184 0.1618 0.9340
vn -0.5273 0.7839 0.3278
vn 0.5117 0.4087 -0.7558
vn -0.0639 0.7550 -0.6526
vn 0.8217 0.4897 -0.2915
vn 0.8743 -0.4053 -0.2670
vn 0.6833 -0.5721 -0.4537
vn -0.9274 0.1686 0.3338
vn -0.0032 -0.2675 0.9635
vn -0.0033 -0.2676 0.9635
vn 0.1406 -0.8258 0.5461
vn -0.0906 0.8376 -0.5388
vn -0.0905 0.8376 -0.5387
vn -0.0904 0.8377 -0.5387
vn 0.3756 0.5137 -0.7714
vn -0.1802 0.8062 -0.5635
vn 0.7702 -0.4318 -0.4694
vn 0.1731 -0.9412 0.2900
vn -0.9273 -0.0793 0.3659
vn 0.2145 -0.8313 -0.5127
vn -0.1664 -0.9861 -0.0021
vn -0.3591 -0.8646 -0.3514
vn 0.2567 -0.9658 0.0356
vn 0.4537 0.7693 -0.4498
vn 0.4828 0.6995 0.5269
vn 0.6025 0.7257 -0.3323
vn 0.5661 0.7182 0.4046
vn 0.6802 0.7040 -0.2045
vn 0.4362 0.5442 0.7166
vn -0.7746 -0.5204 -0.3593
vn -0.8988 -0.1915 -0.3943
vn -0.7281 -0.5045 -0.4641
vn -0.8108 0.5757 0.1054
vn 0.2536 -0.9306 -0.2638
vn -0.7378 -0.4993 -0.4542
vn 0.2729 -0.9211 -0.2777
vn 0.2653 0.8036 0.5328
vn 0.6297 0.6656 0.4006
vn 0.2809 -0.7995 -0.5310
vn 0.9744 -0.2216 0.0380
vn 0.9446 -0.2043 0.2570
vn 0.1755 0.9685 0.1764
vn 0.9959 -0.0906 0.0037
vn -0.7985 0.5887 -0.1259
vn -0.7759 -0.6030 0.1852
vn -0.7205 0.6934 -0.0112
vn -0.8225 0.3357 -0.4590
vn -0.7620 -0.2703 0.5885
vn 0.2092 0.6282 -0.7494
vn 0.8861 -0.3412 -0.3137
vn 0.9445 -0.2844 -0.1644
vn 0.2710 0.7559 -0.5960
vn 0.1452 -0.8953 0.4212
vn 0.1751 -0.8748 0.4518
vn -0.7643 -0.1906 0.6160
vn -0.6346 0.7549 -0.1658
vn 0.2644 -0.8835 0.3867
vn 0.8072 -0.3187 -0.4968
vn 0.2566 0.6342 -0.7294
vn -0.1685 -0.8951 0.4128
vn 0.5979 -0.7762 0.2003
vn -0.0437 -0.8845 0.4645
vn 0.3806 -0.9214 0.0791
vn 0.8643 0.3335 -0.3766
vn 0.7856 -0.2082 -0.5827
vn 0.1029 0.8497 -0.5172
vn 0.2054 0.6315 -0.7476
vn -0.4541 0.8863 -0.0910
vn -0.6690 0.7233 -0.1711
vn -0.9334 0.2746 0.2312
vn -0.7817 0.6165 0.0943
vn -0.9505 0.3023 0.0726
vn -0.1165 -0.7937 0.5971
vn 0.0158 -0.3036 0.9527
vn -0.4348 0.0798 0.8970
vn -0.1165 -0.7936 0.5972
vn 0.7616 -0.3593 0.5393
vn 0.0453 -0.6544 0.7548
vn 0.6732 0.6709 -0.3110
vn -0.9513 0.2949 0.0901
vn -0.6238 0.7545 -0.2041
vn 0.7638 0.5482 -0.3408
vn -0.4302 0.6305 0.6461
vn -0.4901 -0.1990 0.8487
vn 0.6239 -0.5505 0.5546
vn 0.4727 -0.1707 0.8646
vn -0.6107 -0.5866 0.5319
vn 0.5163 -0.7593 -0.3961
vn -0.1317 -0.9244 -0.3581
vn 0.3299 -0.8765 -0.3505
vn -0.6977 0.6297 -0.3417
vn -0.1109 0.9308 -0.3482
vn 0.3213 0.8846 -0.3381
vn -0.6982 -0.6276 -0.3445
vn 0.5242 0.7867 -0.3261
vn -0.8110 -0.5110 -0.2849
vn -0.8063 0.5165 -0.2883
vn -0.7703 0.0006 0.6376
vn -0.2224 0.0010 0.9750
vn -0.2224 0.0010 0.9749
vn -0.7704 0.0006 0.6376
vn 0.9474 -0.1833 -0.2624
vn 0.9539 -0.2455 -0.1726
vn 0.9325 0.2444 -0.2658
vn 0.9516 0.2630 -0.1593
vn -0.8616 0.4946 -0.1140
vn 0.0765 0.9704 -0.2289
vn -0.8733 0.4640 -0.1483
vn 0.0238 0.9896 -0.1417
vn 0.9079 0.4173 0.0403
vn 0.6314 -0.7553 0.1758
vn 0.8977 0.4370 -0.0564
vn 0.5816 -0.7885 0.2003
vn -0.6662 -0.7353 0.1248
vn -0.6258 -0.7620 0.1665
vn -0.0768 -0.6730 0.7356
vn 0.4093 -0.2074 0.8885
vn 0.2502 -0.4913 0.8342
vn -0.3525 -0.8049 0.4774
vn 0.9258 0.2546 0.2793
vn 0.8971 0.3009 0.3236
vn 0.6994 -0.7147 -0.0042
vn 0.5292 0.8348 0.1522
vn 0.0958 0.9586 0.2680
vn -0.7483 0.6405 0.1724
vn -0.8611 0.5081 0.0167
vn 0.6971 -0.6562 -0.2889
vn -0.6268 -0.7456 -0.2263
vn -0.6063 -0.7597 -0.2351
vn 0.0239 0.3917 0.9198
vn 0.0044 0.9247 0.3807
vn -0.6561 -0.4103 0.6334
vn 0.0277 -0.3696 0.9288
vn -0.7207 0.0556 -0.6910
vn 0.3231 -0.2031 -0.9243
vn -0.7675 0.0841 -0.6355
vn 0.2304 -0.3607 -0.9038
vn 0.6337 -0.6474 -0.4234
vn 0.4573 -0.7638 -0.4554
vn -0.9922 -0.1085 -0.0619
vn -0.8729 -0.4878 0.0111
vn 0.0238 -0.9834 0.1798
vn -0.8616 -0.5052 0.0490
vn 0.0742 -0.9924 0.0986
vn 0.8968 -0.4334 0.0887
vn 0.5817 0.8112 -0.0605
vn 0.9078 -0.3830 0.1708
vn 0.6340 0.7694 -0.0784
vn -0.6238 0.7765 -0.0892
vn -0.6661 0.7369 -0.1152
vn -0.1066 0.4717 0.8753
vn -0.5139 0.2745 0.8128
vn -0.0786 0.4434 0.8929
vn -0.3855 0.3964 0.8332
vn 0.3111 0.3428 0.8864
vn -0.7813 0.4061 0.4740
vn 0.9258 -0.3475 0.1487
vn 0.6995 0.6522 0.2922
vn 0.8970 -0.4079 0.1702
vn 0.5299 -0.8227 -0.2060
vn 0.0958 -0.9836 -0.1526
vn -0.7472 -0.6556 -0.1088
vn -0.8609 -0.4699 -0.1949
vn 0.6970 0.7170 0.0094
vn -0.6071 0.7884 0.0994
vn -0.6267 0.7725 0.1026
vn 0.0168 0.9224 -0.3858
vn -0.0000 0.9259 0.3778
vn -0.0000 0.9259 0.3777
vn -0.7646 -0.3851 0.5168
vn 0.2414 -0.8862 0.3955
vn -0.7173 -0.4416 0.5389
vn 0.3302 -0.7881 0.5195
vn 0.0239 0.3825 -0.9237
vn -0.6579 0.1463 -0.7387
vn 0.4652 -0.8596 -0.2112
vn 0.6381 -0.7551 -0.1508
vn -0.9923 -0.1202 -0.0288
vn -0.9369 0.3464 0.0463
vn -0.6024 0.7969 -0.0452
vn -0.9147 0.3838 -0.1268
vn -0.6352 0.7660 0.0988
vn -0.4838 0.7921 -0.3722
vn -0.6838 0.3301 -0.6507
vn -0.9756 -0.1349 -0.1734
vn -0.7976 -0.1720 -0.5782
vn -0.9859 -0.1661 -0.0187
vn -0.9147 -0.3149 -0.2534
vn -0.6352 -0.7520 -0.1762
vn -0.9369 -0.3407 -0.0781
vn -0.6025 -0.7303 -0.3219
vn -0.6837 -0.0807 -0.7253
vn -0.4837 -0.6112 -0.6264
vn -0.7976 0.3639 -0.4810
vn -0.9756 0.1871 -0.1151
vn -0.9859 0.1621 0.0409
vn 0.5060 0.8218 -0.2619
vn 0.6449 -0.7607 -0.0737
vn -0.6924 -0.7214 0.0085
vn -0.0738 -0.9955 -0.0591
vn 0.0452 0.9192 -0.3913
vn -0.6896 0.6875 -0.2276
vn -0.4227 0.3368 -0.8413
vn -0.5052 -0.1872 -0.8425
vn -0.4226 -0.3385 -0.8407
vn -0.5051 0.1854 -0.8429
vn 0.9959 -0.0254 -0.0863
vn -0.2156 -0.9523 0.2159
vn 0.5931 -0.7599 -0.2661
vn 0.5956 0.7536 -0.2783
vn -0.7975 0.5724 0.1907
vn 0.8549 0.0620 0.5151
vn 0.9929 0.0089 -0.1184
vn -0.8137 -0.4420 -0.3775
vn -0.5783 0.8082 -0.1110
vn 0.6487 0.7608 -0.0198
vn 0.0433 -0.5403 -0.8404
vn 0.0434 -0.5404 -0.8403
vn 0.9262 0.3614 -0.1077
vn 0.4720 0.7052 -0.5291
vn -0.2188 0.6952 -0.6847
vn 0.0088 -0.8131 -0.5820
vn 0.6439 -0.7651 -0.0075
vn -0.8121 0.4368 -0.3870
vn -0.5836 -0.8060 -0.0991
vn -0.5887 0.5437 0.5981
vn -0.5899 -0.5549 0.5866
vn -0.0172 0.9912 -0.1310
vt 0.160160 0.488280
vt 0.191400 0.484380
vt 0.160160 0.484380
vt 0.195310 0.488280
vt 0.191410 0.484380
vt 0.085940 0.675780
vt 0.039070 0.632820
vt 0.117180 0.632820
vt 0.085930 0.675780
vt 0.078130 0.675780
vt 0.156250 0.664060
vt 0.203120 0.636710
vt 0.144540 0.625000
vt 0.210930 0.664060
vt 0.203130 0.636720
vt 0.054690 0.539060
vt 0.179680 0.511720
vt 0.066410 0.511720
vt 0.187500 0.539060
vt 0.179690 0.511720
vt 0.203130 0.636710
vt 0.152340 0.667960
vt 0.117190 0.632810
vt 0.140630 0.621100
vt 0.128910 0.667960
vt 0.117190 0.632820
vt 0.027350 0.667960
vt 0.019540 0.621100
vt 0.039060 0.632810
vt 0.027340 0.667960
vt 0.007820 0.667960
vt 0.089840 0.726560
vt 0.074220 0.703130
vt 0.085940 0.703130
vt 0.070320 0.726560
vt 0.085930 0.703120
vt 0.078130 0.675790
vt 0.085930 0.675790
vt 0.074220 0.703120
vt 0.054690 0.718750
vt 0.074210 0.703130
vt 0.128900 0.667960
vt 0.078120 0.675780
vt 0.089850 0.726560
vt 0.105460 0.718750
vt 0.351570 0.816400
vt 0.464840 0.753910
vt 0.382820 0.753910
vt 0.492180 0.816400
vt 0.464850 0.753910
vt 0.488280 0.816400
vt 0.335940 0.757820
vt 0.332040 0.816400
vt 0.484380 0.757820
vt 0.289060 0.976560
vt 0.257820 0.882820
vt 0.273440 0.914060
vt 0.253910 0.964840
vt 0.320310 0.917960
vt 0.316410 0.988280
vt 0.320310 0.917970
vt 0.332030 0.976560
vt 0.320320 0.917970
vt 0.332040 0.976560
vt 0.339840 0.890630
vt 0.320320 0.917960
vt 0.289070 0.976560
vt 0.273440 0.914070
vt 0.273430 0.914060
vt 0.316400 0.988280
vt 0.246090 0.898440
vt 0.222660 0.921870
vt 0.238290 0.898440
vt 0.226570 0.921870
vt 0.238290 0.898430
vt 0.226570 0.847660
vt 0.246090 0.898430
vt 0.238280 0.898430
vt 0.226570 0.851560
vt 0.343750 0.812500
vt 0.457040 0.753910
vt 0.492180 0.800780
vt 0.359380 0.765620
vt 0.457030 0.753910
vt 0.128910 0.894540
vt 0.167960 0.921870
vt 0.125000 0.902340
vt 0.171870 0.894540
vt 0.167970 0.921870
vt 0.359380 0.765630
vt 0.066410 0.921870
vt 0.113290 0.894540
vt 0.117180 0.902340
vt 0.066410 0.894540
vt 0.113280 0.894540
vt 0.191410 0.878900
vt 0.210930 0.839840
vt 0.187500 0.835940
vt 0.203130 0.898430
vt 0.210930 0.839850
vt 0.171880 0.816410
vt 0.199210 0.820310
vt 0.203120 0.898430
vt 0.132810 0.851560
vt 0.109380 0.800790
vt 0.128910 0.800790
vt 0.109380 0.851560
vt 0.132820 0.851570
vt 0.171870 0.894530
vt 0.128910 0.894530
vt 0.132820 0.851560
vt 0.164070 0.847660
vt 0.066410 0.894530
vt 0.109380 0.851570
vt 0.113280 0.894530
vt 0.078130 0.847660
vt 0.109370 0.851560
vt 0.117190 0.859380
vt 0.125000 0.859380
vt 0.117190 0.902340
vt 0.125000 0.859370
vt 0.132810 0.851570
vt 0.128900 0.894530
vt 0.117180 0.859370
vt 0.113290 0.894530
vt 0.117190 0.859370
vt 0.277350 0.964840
vt 0.335930 0.910160
vt 0.300790 0.910160
vt 0.335930 0.996090
vt 0.226570 0.851570
vt 0.238280 0.898440
vt 0.199220 0.820320
vt 0.367190 0.769530
vt 0.476560 0.769530
vt 0.144540 0.431640
vt 0.167960 0.431640
vt 0.207030 0.839840
vt 0.199220 0.824220
vt 0.488290 0.816410
vt 0.332040 0.851560
vt 0.492180 0.851560
vt 0.488280 0.816410
vt 0.332040 0.816410
vt 0.187500 0.898430
vt 0.175790 0.878910
vt 0.191400 0.878910
vt 0.171880 0.898430
vt 0.367190 0.871090
vt 0.492180 0.816410
vt 0.351570 0.816410
vt 0.476570 0.871090
vt 0.164060 0.972650
vt 0.101570 0.921880
vt 0.136720 0.921880
vt 0.074220 0.972650
vt 0.136710 0.921870
vt 0.117190 0.902350
vt 0.125000 0.902350
vt 0.101570 0.921870
vt 0.191400 0.878900
vt 0.171880 0.847650
vt 0.175790 0.878900
vt 0.171880 0.847660
vt 0.195320 0.851570
vt 0.195320 0.851560
vt 0.226560 0.851570
vt 0.199220 0.917960
vt 0.316410 1.000000
vt 0.312500 0.882820
vt 0.468750 0.949210
vt 0.492180 0.800790
vt 0.468750 0.839840
vt 0.117180 0.902350
vt 0.289060 0.757820
vt 0.257820 0.882810
vt 0.289070 0.757820
vt 0.339840 0.890620
vt 0.253910 0.964850
vt 0.332030 0.976570
vt 0.289070 0.976570
vt 0.226560 0.921870
vt 0.199220 0.917970
vt 0.226560 0.847660
vt 0.226560 0.851560
vt 0.492180 0.851570
vt 0.312500 0.882810
vt 0.347660 0.859370
vt 0.171880 0.898440
vt 0.187500 0.898440
vt 0.175790 0.933590
vt 0.191410 0.878910
vt 0.187500 0.835930
vt 0.078130 0.847650
vt 0.109370 0.800790
vt 0.164060 0.847650
vt 0.066410 0.921880
vt 0.101560 0.921880
vt 0.136720 0.921870
vt 0.167960 0.921880
vt 0.164070 0.972650
vt 0.273440 0.910160
vt 0.300780 0.910160
vt 0.183600 0.328130
vt 0.242180 0.335930
vt 0.234380 0.332030
vt 0.191410 0.332030
vt 0.152350 0.730460
vt 0.218750 0.742180
vt 0.175790 0.726570
vt 0.152350 0.730470
vt 0.222650 0.746090
vt 0.390620 0.664070
vt 0.371100 0.714840
vt 0.375000 0.667960
vt 0.378910 0.722650
vt 0.394540 0.667960
vt 0.406250 0.718750
vt 0.406250 0.664070
vt 0.394540 0.667970
vt 0.390630 0.714840
vt 0.175780 0.257820
vt 0.167970 0.292960
vt 0.175780 0.308590
vt 0.171880 0.261710
vt 0.398430 0.722650
vt 0.390630 0.664070
vt 0.398430 0.664070
vt 0.394530 0.667970
vt 0.375000 0.667970
vt 0.179690 0.257820
vt 0.207030 0.308590
vt 0.207030 0.261710
vt 0.175790 0.308590
vt 0.242180 0.261720
vt 0.207040 0.308590
vt 0.242180 0.304680
vt 0.207040 0.261720
vt 0.175780 0.269530
vt 0.167970 0.328120
vt 0.171880 0.261720
vt 0.175790 0.269540
vt 0.179680 0.324210
vt 0.398440 0.664070
vt 0.398440 0.722650
vt 0.175780 0.304680
vt 0.167970 0.265620
vt 0.175780 0.261720
vt 0.167970 0.285150
vt 0.167970 0.265630
vt 0.394540 0.660150
vt 0.410150 0.625000
vt 0.402350 0.656250
vt 0.398440 0.617190
vt 0.300790 0.593750
vt 0.308600 0.519540
vt 0.332030 0.585930
vt 0.292970 0.519540
vt 0.308590 0.519540
vt 0.304690 0.511720
vt 0.312500 0.578120
vt 0.308600 0.519530
vt 0.285160 0.511720
vt 0.277350 0.585930
vt 0.289060 0.582030
vt 0.285150 0.511720
vt 0.277350 0.515620
vt 0.300780 0.593750
vt 0.277350 0.515630
vt 0.292960 0.519530
vt 0.367190 0.660150
vt 0.382810 0.613290
vt 0.382810 0.664060
vt 0.371100 0.625000
vt 0.289070 0.582030
vt 0.304680 0.511720
vt 0.402340 0.656250
vt 0.390630 0.632820
vt 0.386720 0.664060
vt 0.390630 0.632810
vt 0.386710 0.664060
vt 0.390620 0.632810
vt 0.382820 0.664060
vt 0.398430 0.617190
vt 0.382820 0.613290
vt 0.398430 0.617180
vt 0.472660 0.734370
vt 0.492180 0.718750
vt 0.488290 0.730460
vt 0.378910 0.535150
vt 0.398430 0.515630
vt 0.382820 0.585930
vt 0.457040 0.638670
vt 0.453130 0.638670
vt 0.460930 0.638670
vt 0.488290 0.710940
vt 0.449220 0.718750
vt 0.492180 0.730460
vt 0.488280 0.710930
vt 0.449220 0.703130
vt 0.451170 0.703130
vt 0.451170 0.722650
vt 0.451170 0.718750
vt 0.451170 0.707030
vt 0.449220 0.707040
vt 0.472650 0.734370
vt 0.449220 0.722650
vt 0.453130 0.640630
vt 0.464840 0.660150
vt 0.453130 0.656250
vt 0.457040 0.640630
vt 0.476560 0.656250
vt 0.464850 0.660150
vt 0.460940 0.640630
vt 0.460930 0.640630
vt 0.421870 0.511720
vt 0.410160 0.589840
vt 0.394540 0.582030
vt 0.421880 0.511720
vt 0.425780 0.527340
vt 0.425780 0.527350
vt 0.386720 0.597650
vt 0.378910 0.535160
vt 0.371100 0.597650
vt 0.386710 0.597650
vt 0.378900 0.535160
vt 0.359380 0.546870
vt 0.359380 0.546880
vt 0.382810 0.585930
vt 0.398440 0.515620
vt 0.449220 0.703120
vt 0.484380 0.699220
vt 0.488280 0.707030
vt 0.449220 0.695320
vt 0.484370 0.699210
vt 0.234370 0.332030
vt 0.234380 0.332040
vt 0.191410 0.332040
vt 0.402350 0.734370
vt 0.410150 0.664070
vt 0.402350 0.664070
vt 0.410150 0.730460
vt 0.175790 0.269530
vt 0.207030 0.261720
vt 0.386720 0.722650
vt 0.371100 0.667970
vt 0.390620 0.667970
vt 0.386710 0.722650
vt 0.363290 0.726560
vt 0.402340 0.664070
vt 0.375000 0.734370
vt 0.402340 0.734370
vt 0.386720 0.667960
vt 0.390630 0.667960
vt 0.386710 0.667970
vt 0.394530 0.660150
vt 0.382820 0.609380
vt 0.367190 0.656250
vt 0.390620 0.632820
vt 0.371100 0.621100
vt 0.406250 0.621100
vt 0.320310 0.507820
vt 0.292970 0.578120
vt 0.316410 0.582030
vt 0.300790 0.507820
vt 0.382810 0.609380
vt 0.371100 0.621090
vt 0.304690 0.593750
vt 0.328120 0.511720
vt 0.328120 0.585930
vt 0.308600 0.515620
vt 0.328120 0.511710
vt 0.320320 0.507820
vt 0.296870 0.515630
vt 0.273440 0.585930
vt 0.300780 0.507820
vt 0.296880 0.515620
vt 0.308590 0.515630
vt 0.296880 0.515630
vt 0.406250 0.621090
vt 0.398440 0.585930
vt 0.429680 0.531250
vt 0.425790 0.511720
vt 0.410160 0.593750
vt 0.410150 0.593750
vt 0.382820 0.597650
vt 0.382810 0.597650
vt 0.347660 0.546870
vt 0.363290 0.597650
vt 0.347660 0.546880
vt 0.371090 0.539070
vt 0.371090 0.585930
vt 0.371100 0.585930
vt 0.425780 0.511720
vt 0.406250 0.515620
vt 0.445320 0.726560
vt 0.488280 0.710940
vt 0.449220 0.710940
vt 0.488280 0.730460
vt 0.490230 0.730460
vt 0.490230 0.714840
vt 0.490230 0.710940
vt 0.484380 0.734370
vt 0.488280 0.714850
vt 0.441410 0.726560
vt 0.453120 0.714840
vt 0.449210 0.710940
vt 0.453130 0.714850
vt 0.484370 0.734370
vt 0.460940 0.734370
vt 0.449220 0.664060
vt 0.472650 0.648430
vt 0.460940 0.625000
vt 0.371100 0.539060
vt 0.406250 0.515630
vt 0.457040 0.699210
vt 0.484370 0.695320
vt 0.480470 0.699210
vt 0.453130 0.695320
vt 0.132820 0.414070
vt 0.156250 0.414070
vt 0.140630 0.441400
vt 0.183590 0.437500
vt 0.195310 0.398440
vt 0.183600 0.437500
vt 0.156250 0.414060
vt 0.160160 0.453120
vt 0.195310 0.449220
vt 0.160160 0.449220
vt 0.191410 0.453120
vt 0.128910 0.429680
vt 0.128910 0.371100
vt 0.152340 0.386710
vt 0.128900 0.429680
vt 0.101570 0.406250
vt 0.128900 0.371100
vt 0.035160 0.371100
vt 0.101560 0.406250
vt 0.062500 0.406250
vt 0.066400 0.414060
vt 0.007820 0.394530
vt 0.031250 0.375000
vt 0.031250 0.437500
vt 0.007820 0.394540
vt 0.066410 0.417960
vt 0.144530 0.351570
vt 0.042970 0.351570
vt 0.121100 0.417960
vt 0.312500 0.648440
vt 0.332030 0.707030
vt 0.316410 0.707030
vt 0.312500 0.648430
vt 0.320320 0.644540
vt 0.300790 0.667970
vt 0.320310 0.710930
vt 0.292970 0.710930
vt 0.316410 0.667970
vt 0.289070 0.648440
vt 0.316400 0.707030
vt 0.281250 0.703120
vt 0.292960 0.671880
vt 0.292960 0.710930
vt 0.285160 0.718750
vt 0.292970 0.671870
vt 0.300780 0.667970
vt 0.289060 0.644540
vt 0.281250 0.695310
vt 0.289060 0.648430
vt 0.144540 0.390630
vt 0.195310 0.390630
vt 0.132820 0.406250
vt 0.105470 0.390630
vt 0.144530 0.390630
vt 0.300790 0.652340
vt 0.300790 0.625000
vt 0.320310 0.640620
vt 0.414070 0.523440
vt 0.402350 0.636710
vt 0.433590 0.636710
vt 0.421880 0.523440
vt 0.425790 0.636710
vt 0.441400 0.527340
vt 0.449210 0.625000
vt 0.441410 0.527350
vt 0.300780 0.652340
vt 0.285160 0.628900
vt 0.300780 0.625000
vt 0.402340 0.636710
vt 0.375000 0.523440
vt 0.371100 0.652340
vt 0.414060 0.523440
vt 0.417970 0.523440
vt 0.437500 0.632810
vt 0.402350 0.652340
vt 0.437500 0.527340
vt 0.375000 0.527350
vt 0.417960 0.625000
vt 0.363290 0.632810
vt 0.406250 0.527350
vt 0.285150 0.351570
vt 0.281250 0.359370
vt 0.285150 0.359370
vt 0.281250 0.355460
vt 0.277350 0.398440
vt 0.378900 0.441400
vt 0.335940 0.429680
vt 0.386710 0.398440
vt 0.378910 0.441400
vt 0.394530 0.394540
vt 0.343750 0.433590
vt 0.390630 0.437500
vt 0.281250 0.394540
vt 0.304690 0.363280
vt 0.339840 0.265620
vt 0.281250 0.261720
vt 0.355460 0.359370
vt 0.339850 0.265630
vt 0.468750 0.394540
vt 0.445320 0.433590
vt 0.468750 0.433590
vt 0.437500 0.394540
vt 0.320310 0.644540
vt 0.316410 0.648430
vt 0.335930 0.707030
vt 0.316400 0.667970
vt 0.316400 0.648440
vt 0.292970 0.648440
vt 0.285160 0.695310
vt 0.292960 0.648430
vt 0.289070 0.644540
vt 0.292960 0.648440
vt 0.093750 0.390630
vt 0.128910 0.406250
vt 0.144530 0.388670
vt 0.097660 0.388670
vt 0.093750 0.388670
vt 0.128900 0.406250
vt 0.406250 0.636710
vt 0.437500 0.527350
vt 0.367190 0.632810
vt 0.421870 0.625000
vt 0.289070 0.355470
vt 0.292960 0.359370
vt 0.292960 0.355470
vt 0.289070 0.359370
vt 0.390620 0.437500
vt 0.351560 0.355460
vt 0.277350 0.257820
vt 0.339850 0.265620
vt 0.300790 0.355460
vt 0.437500 0.433590
vt 0.476560 0.394540
vt 0.222650 0.371100
vt 0.203130 0.417960
vt 0.218750 0.433590
vt 0.222650 0.371090
vt 0.207040 0.363290
vt 0.218750 0.433600
vt 0.207040 0.468750
vt 0.222650 0.480460
vt 0.203130 0.417970
vt 0.222660 0.480460
vt 0.238280 0.437500
vt 0.238280 0.472650
vt 0.242180 0.371100
vt 0.222660 0.371100
vt 0.238290 0.437500
vt 0.230470 0.433590
vt 0.242180 0.363290
vt 0.226570 0.371090
vt 0.238290 0.417960
vt 0.238280 0.417970
vt 0.238280 0.468750
vt 0.230460 0.433600
vt 0.207040 0.472650
vt 0.207040 0.437500
vt 0.226570 0.371100
vt 0.230460 0.433590
vt 0.226560 0.371100
vt 0.203130 0.371100
vt 0.175790 0.308600
vt 0.183600 0.328120
vt 0.207030 0.308600
vt 0.242180 0.304690
vt 0.207040 0.308600
vt 0.121100 0.343750
vt 0.132820 0.414060
vt 0.007820 0.261720
vt 0.128910 0.371090
vt 0.160150 0.261720
vt 0.152350 0.386710
vt 0.195310 0.343750
vt 0.156250 0.343750
vt 0.218750 0.492180
vt 0.238280 0.472660
vt 0.238280 0.496090
vt 0.222660 0.480470
vt 0.226570 0.492180
vt 0.207040 0.472660
vt 0.207040 0.496090
vt 0.226560 0.492180
vt 0.136710 0.710930
vt 0.105470 0.718750
vt 0.195310 0.398430
vt 0.085940 0.261720
vt 0.132810 0.406250
vt 0.105470 0.433590
vt 0.300780 0.746090
vt 0.292970 0.710940
vt 0.152340 0.667970
vt 0.136720 0.710930
vt 0.128910 0.667970
vt 0.113290 0.343750
vt 0.085940 0.789060
vt 0.078130 0.773440
vt 0.105460 0.800780
vt 0.042970 0.789060
vt 0.027350 0.800780
vt 0.050780 0.773440
vt 0.105460 0.769540
vt 0.078130 0.773430
vt 0.023440 0.769540
vt 0.050780 0.773430
vt 0.023440 0.710930
vt 0.007820 0.667970
vt 0.027340 0.667970
vt 0.175780 0.328120
vt 0.167970 0.285160
vt 0.167970 0.332030
vt 0.171880 0.335930
vt 0.167970 0.292970
vt 0.175780 0.308600
vt 0.371100 0.667960
vt 0.367190 0.660160
vt 0.382810 0.664070
vt 0.382810 0.667960
vt 0.402340 0.664060
vt 0.386720 0.664070
vt 0.386720 0.671870
vt 0.386710 0.671870
vt 0.394530 0.660160
vt 0.382820 0.667960
vt 0.394530 0.664060
vt 0.394540 0.664060
vt 0.386710 0.566400
vt 0.382820 0.562500
vt 0.386710 0.562500
vt 0.388670 0.566400
vt 0.388670 0.562500
vt 0.386720 0.566400
vt 0.394530 0.562500
vt 0.386720 0.562500
vt 0.398430 0.562500
vt 0.398430 0.558600
vt 0.394540 0.562500
vt 0.128900 0.371090
vt 0.046880 0.261720
vt 0.035160 0.371090
vt 0.160160 0.484370
vt 0.191400 0.453130
vt 0.160160 0.453130
vt 0.191400 0.484370
vt 0.394540 0.660160
vt 0.445310 0.515630
vt 0.421880 0.523430
vt 0.441410 0.527340
vt 0.445310 0.515620
vt 0.414070 0.511720
vt 0.410160 0.515630
vt 0.375000 0.523430
vt 0.414060 0.523430
vt 0.410150 0.515620
vt 0.375000 0.511720
vt 0.406250 0.507820
vt 0.417970 0.523430
vt 0.441400 0.515620
vt 0.375000 0.515630
vt 0.406250 0.527340
vt 0.375000 0.527340
vt 0.316400 0.625000
vt 0.316400 0.644530
vt 0.312500 0.644530
vt 0.316410 0.625000
vt 0.324210 0.625000
vt 0.316410 0.644530
vt 0.300790 0.652350
vt 0.316400 0.675780
vt 0.300790 0.675780
vt 0.320310 0.640630
vt 0.316410 0.675780
vt 0.289070 0.625000
vt 0.292970 0.644530
vt 0.285160 0.628910
vt 0.300780 0.675780
vt 0.292960 0.628910
vt 0.292960 0.644530
vt 0.289070 0.644530
vt 0.292960 0.628900
vt 0.335930 0.707040
vt 0.312500 0.738280
vt 0.312500 0.742180
vt 0.316410 0.707040
vt 0.281250 0.738280
vt 0.281250 0.703130
vt 0.316400 0.707040
vt 0.285150 0.742180
vt 0.285150 0.695320
vt 0.410160 0.515620
vt 0.441400 0.515630
vt 0.320310 0.675780
vt 0.289070 0.671870
vt 0.300780 0.652350
vt 0.300790 0.746090
vt 0.320310 0.710940
vt 0.320310 0.746090
vt 0.484380 0.695320
vt 0.488280 0.714840
vt 0.480470 0.699220
vt 0.457040 0.699220
vt 0.453130 0.714840
vt 0.457030 0.699210
vt 0.449220 0.710930
vt 0.453120 0.695320
vt 0.451170 0.695320
vt 0.451170 0.703120
vt 0.449220 0.707030
vt 0.488290 0.707030
vt 0.488290 0.707040
vt 0.488290 0.710930
vt 0.199220 0.714840
vt 0.199220 0.667960
vt 0.210930 0.664070
vt 0.199210 0.714840
vt 0.195320 0.714840
vt 0.199210 0.667970
vt 0.156250 0.664070
vt 0.199210 0.667960
vt 0.167970 0.667960
vt 0.175780 0.726560
vt 0.156250 0.671880
vt 0.175780 0.679680
vt 0.175780 0.304690
vt 0.175780 0.324210
vt 0.308590 0.738280
vt 0.308600 0.738280
vt 0.283200 0.695320
vt 0.283200 0.738280
vt 0.283200 0.742180
vt 0.283200 0.703120
vt 0.308600 0.742180
vt 0.332030 0.707040
vt 0.042970 0.484370
vt 0.027350 0.449210
vt 0.054680 0.429690
vt 0.042960 0.484370
vt 0.027350 0.476560
vt 0.027350 0.449220
vt 0.089850 0.476560
vt 0.148430 0.449220
vt 0.097660 0.449220
vt 0.144540 0.484370
vt 0.093750 0.484370
vt 0.105470 0.449220
vt 0.156250 0.484370
vt 0.148440 0.449220
vt 0.144530 0.484370
vt 0.113290 0.476560
vt 0.089850 0.429690
vt 0.117180 0.449210
vt 0.113280 0.476560
vt 0.101570 0.484370
vt 0.101560 0.484370
vt 0.054690 0.429690
vt 0.027350 0.667970
vt 0.074210 0.703120
vt 0.042970 0.351560
vt 0.160150 0.257820
vt 0.031250 0.257820
vt 0.144540 0.351560
vt 0.382820 0.664070
vt 0.394530 0.664070
vt 0.386710 0.664070
vt 0.386710 0.667960
vt 0.085930 0.789060
vt 0.050790 0.773440
vt 0.105470 0.796870
vt 0.148430 0.789070
vt 0.097660 0.789070
vt 0.140630 0.796870
vt 0.113290 0.796870
vt 0.132810 0.785150
vt 0.097660 0.773440
vt 0.136710 0.792960
vt 0.132820 0.785160
vt 0.132820 0.785150
vt 0.054680 0.718750
vt 0.015630 0.726560
vt 0.023440 0.710940
vt 0.058590 0.746090
vt 0.105470 0.746090
vt 0.136720 0.710940
vt 0.144530 0.726560
vt 0.136710 0.710940
vt 0.097660 0.609370
vt 0.187500 0.589850
vt 0.054690 0.589850
vt 0.144540 0.609370
vt 0.054690 0.589840
vt 0.187500 0.539070
vt 0.054690 0.539070
vt 0.187500 0.589840
vt 0.085940 0.703120
vt 0.085940 0.675790
vt 0.175780 0.679690
vt 0.394530 0.560550
vt 0.386720 0.560550
vt 0.398430 0.560550
vt 0.394540 0.560550
s 1
usemtl Lin
f 1/1/1 2/2/2 3/3/2
f 1/1/1 4/4/1 2/5/2
f 5/6/3 6/7/4 7/8/5
f 5/9/3 8/10/6 6/7/4
f 9/11/7 10/12/8 11/13/9
f 9/11/7 12/14/10 10/15/8
f 12/16/10 13/17/11 10/18/8
f 12/16/10 14/19/12 13/20/11
f 14/14/12 15/13/13 13/21/11
f 14/14/12 16/11/14 15/13/13
f 16/22/14 7/23/5 15/24/13
f 16/22/14 17/25/15 7/26/5
f 18/27/16 11/28/9 6/29/4
f 18/30/16 9/31/7 11/28/9
f 19/32/17 20/33/18 21/34/19
f 19/32/17 22/35/20 20/33/18
f 21/36/19 8/37/6 5/38/3
f 21/36/19 20/39/18 8/37/6
f 22/35/20 23/40/21 20/41/18
f 5/6/3 7/26/5 17/42/15
f 18/27/16 6/7/4 8/43/6
f 19/44/17 21/34/19 24/45/22
f 25/46/23 26/47/24 27/48/25
f 25/46/23 28/49/26 26/50/24
f 29/51/27 30/52/28 31/53/29
f 29/51/27 32/54/30 30/52/28
f 33/55/31 34/56/32 35/57/33
f 33/55/31 36/58/34 34/56/32
f 36/58/35 37/59/36 34/56/37
f 36/58/35 38/60/38 37/61/36
f 39/62/39 37/63/36 38/60/38
f 39/64/39 40/65/40 37/66/36
f 39/64/41 35/57/33 40/65/42
f 39/62/41 33/67/31 35/68/33
f 41/68/43 42/58/44 43/55/45
f 41/69/43 44/56/46 42/58/44
f 44/56/47 45/70/48 42/58/49
f 44/56/47 46/59/50 45/60/48
f 45/60/48 47/65/51 48/64/52
f 45/60/48 46/66/50 47/65/51
f 47/65/53 43/67/45 48/64/54
f 47/65/53 41/57/43 43/67/45
f 49/71/55 50/72/56 51/73/57
f 49/71/55 52/74/58 50/72/56
f 51/75/57 53/76/59 49/77/55
f 51/78/57 54/79/60 53/76/59
f 55/80/61 26/81/24 28/82/26
f 55/80/61 56/83/62 26/84/24
f 57/85/63 58/86/64 59/87/65
f 57/85/63 60/88/66 58/89/64
f 61/83/67 25/82/23 27/81/25
f 61/90/67 62/80/68 25/82/23
f 63/91/69 64/92/70 65/93/71
f 63/91/69 66/94/72 64/95/70
f 67/96/73 61/97/67 68/98/74
f 67/96/73 62/99/68 61/100/67
f 69/101/75 70/102/76 71/102/77
f 69/101/75 72/101/78 70/102/76
f 73/98/79 55/103/61 74/96/80
f 73/98/79 56/97/62 55/99/61
f 75/104/81 72/105/78 69/106/75
f 75/104/81 76/107/82 72/105/78
f 75/108/81 60/109/66 57/110/63
f 75/111/81 77/112/83 60/109/66
f 66/113/72 76/114/82 64/115/70
f 66/113/72 78/116/84 76/117/82
f 59/87/65 79/118/85 80/119/86
f 59/87/65 65/120/71 79/118/85
f 57/110/63 80/121/86 75/122/81
f 57/123/63 59/87/65 80/119/86
f 65/93/71 76/114/82 79/124/85
f 65/93/71 64/125/70 76/114/82
f 80/121/87 76/114/82 75/122/81
f 80/121/87 79/126/88 76/114/82
f 81/127/89 62/128/68 82/129/90
f 81/127/89 31/130/29 62/128/68
f 83/77/91 84/131/92 85/75/93
f 83/77/91 86/76/94 84/79/92
f 85/73/93 87/74/95 83/71/91
f 85/132/93 88/72/96 87/74/95
f 70/133/76 56/97/62 71/133/77
f 70/133/76 61/97/67 56/97/62
f 26/47/24 61/134/67 27/48/25
f 26/50/24 56/135/62 61/134/67
f 89/136/97 90/137/98 91/136/99
f 89/136/97 92/137/100 90/137/98
f 91/138/99 93/139/101 89/138/97
f 91/138/99 94/139/102 93/139/101
f 29/140/27 81/141/89 95/142/103
f 29/143/27 31/144/29 81/141/89
f 96/145/104 60/146/66 74/147/80
f 96/145/104 58/148/64 60/146/66
f 30/149/28 28/150/26 25/151/23
f 30/149/28 32/152/30 28/150/26
f 96/129/104 29/130/27 95/127/103
f 96/129/104 55/128/61 29/130/27
f 95/153/103 97/154/105 98/155/106
f 95/153/103 81/156/89 97/154/105
f 98/157/106 65/158/71 59/159/65
f 98/157/106 97/160/105 65/158/71
f 74/161/80 77/162/83 73/98/79
f 74/161/80 60/163/66 77/164/83
f 67/147/73 63/148/69 82/145/90
f 67/147/73 66/146/72 63/148/69
f 68/98/74 66/163/72 67/161/73
f 68/98/74 78/162/84 66/163/72
f 49/77/107 99/165/108 52/74/109
f 49/77/107 53/76/107 99/166/108
f 88/72/96 84/167/92 100/168/110
f 88/72/96 85/78/93 84/131/92
f 99/165/111 51/78/57 101/168/112
f 99/165/111 54/131/60 51/78/57
f 102/165/113 83/77/114 100/168/115
f 102/166/113 86/76/116 83/77/114
f 29/169/27 55/170/61 32/171/30
f 25/172/23 62/80/68 30/173/28
f 63/91/69 65/174/71 97/160/105
f 103/175/117 35/57/33 34/176/32
f 103/177/118 37/66/36 40/178/40
f 103/177/118 34/176/37 37/59/36
f 36/179/35 33/67/119 38/70/38
f 35/57/33 103/177/117 40/178/42
f 39/180/39 38/60/38 33/181/119
f 104/175/120 44/176/46 41/57/43
f 104/177/121 47/178/51 46/66/50
f 104/177/121 46/59/50 44/176/47
f 42/179/49 45/70/48 43/67/122
f 41/57/43 47/178/53 104/177/120
f 48/180/52 43/181/122 45/60/48
f 99/165/108 101/168/123 52/182/109
f 52/182/58 101/183/112 50/72/56
f 53/184/59 54/185/60 99/166/111
f 28/186/26 32/171/30 55/187/61
f 31/188/29 30/173/28 62/80/68
f 84/167/92 102/165/124 100/168/110
f 58/189/64 96/190/104 95/191/103
f 55/103/61 96/145/104 74/192/80
f 62/103/68 67/192/73 82/145/90
f 61/97/67 70/133/76 68/193/74
f 77/162/83 69/101/75 73/193/79
f 78/194/84 72/195/78 76/117/82
f 75/111/81 69/106/75 77/196/83
f 63/197/69 97/198/105 81/156/89
f 51/132/57 50/72/56 101/168/112
f 83/71/114 87/74/115 100/168/115
f 87/182/95 88/72/96 100/183/110
f 86/184/94 102/166/124 84/185/92
f 58/86/64 98/199/106 59/159/65
f 58/200/64 95/201/103 98/155/106
f 63/202/69 81/127/89 82/203/90
f 78/162/84 68/193/74 72/101/78
f 72/101/78 68/193/74 70/102/76
f 69/101/75 71/102/77 73/193/79
f 56/97/62 73/193/79 71/133/77
f 105/204/125 106/205/126 107/206/127
f 105/204/125 108/207/128 106/205/126
f 109/208/129 106/209/126 108/210/128
f 109/211/129 110/212/130 106/209/126
f 111/213/131 112/214/132 113/215/133
f 111/213/131 114/216/134 112/214/132
f 115/217/135 116/218/136 117/219/137
f 115/220/135 118/221/138 116/218/136
f 118/222/138 119/223/139 120/224/140
f 118/222/138 112/225/132 119/223/139
f 121/226/141 111/227/131 122/228/142
f 121/226/141 114/216/134 111/227/131
f 115/229/135 112/214/132 118/221/138
f 115/229/135 113/230/133 112/214/132
f 118/231/138 123/232/143 116/233/136
f 118/231/138 120/234/140 123/232/143
f 121/235/141 123/236/143 124/237/144
f 121/235/141 116/238/136 123/236/143
f 114/239/134 119/240/139 112/241/132
f 114/242/134 125/243/145 119/240/139
f 122/244/142 116/218/136 121/245/141
f 122/244/142 117/219/137 116/218/136
f 124/246/144 114/247/134 121/248/141
f 124/246/144 125/249/145 114/250/134
f 126/251/146 127/252/147 128/253/148
f 126/251/146 129/254/149 127/252/147
f 130/255/150 131/256/151 132/257/152
f 130/255/150 133/258/153 131/259/151
f 132/257/152 134/260/154 135/261/155
f 132/257/152 131/262/151 134/260/154
f 136/263/156 127/264/147 129/265/149
f 136/266/156 137/267/157 127/264/147
f 127/264/147 133/258/153 130/268/150
f 127/264/147 137/269/157 133/270/153
f 138/271/158 135/272/155 139/273/159
f 138/271/158 132/274/152 135/272/155
f 129/275/149 134/276/154 136/263/156
f 129/275/149 135/261/155 134/260/154
f 128/277/148 130/278/150 140/279/160
f 128/253/148 127/252/147 130/280/150
f 140/281/160 132/274/152 138/271/158
f 140/279/160 130/282/150 132/274/152
f 139/283/159 129/284/149 126/251/146
f 139/283/159 135/285/155 129/286/149
f 141/287/161 142/288/162 143/289/163
f 141/290/161 143/291/163 144/292/164
f 145/293/165 146/294/166 147/295/167
f 148/296/168 149/297/169 150/298/170
f 148/299/168 151/300/171 149/297/169
f 151/301/171 152/302/172 149/303/169
f 151/301/171 153/304/173 152/302/172
f 142/288/162 150/298/174 143/289/163
f 142/288/162 148/296/168 150/298/174
f 153/305/175 141/306/161 152/307/176
f 153/305/175 142/288/162 141/287/161
f 146/308/166 154/309/177 152/310/172
f 146/308/166 145/311/165 154/309/177
f 145/311/165 141/312/161 154/313/177
f 145/311/165 147/314/167 141/312/161
f 147/314/178 152/310/179 141/312/180
f 147/315/178 146/308/179 152/310/179
f 150/316/170 155/317/181 156/318/182
f 150/319/170 149/320/169 155/317/181
f 149/321/169 157/322/183 155/317/181
f 149/321/169 152/290/172 157/322/183
f 152/323/172 158/324/184 157/325/183
f 152/326/172 154/327/177 158/324/184
f 154/328/177 144/329/164 158/324/184
f 154/327/177 141/323/161 144/329/164
f 143/291/163 156/318/185 144/292/164
f 143/330/163 150/316/174 156/318/185
f 159/331/186 160/332/187 161/333/188
f 159/331/186 162/334/189 160/335/187
f 163/212/190 164/210/191 165/209/192
f 163/212/190 166/208/193 164/210/191
f 167/336/194 164/207/191 168/204/195
f 167/337/194 165/205/192 164/338/191
f 169/248/196 170/249/197 171/246/198
f 169/248/196 172/241/199 170/249/197
f 169/339/196 173/340/200 174/341/201
f 169/339/196 175/342/202 173/340/200
f 176/241/203 170/243/197 172/343/199
f 176/241/203 177/240/204 170/243/197
f 171/237/198 175/238/202 169/235/196
f 171/237/198 178/236/205 175/238/202
f 175/233/202 179/234/206 180/231/207
f 175/344/202 178/232/205 179/234/206
f 180/345/207 181/346/208 182/347/209
f 180/348/207 176/349/203 181/346/208
f 174/350/201 172/351/199 169/352/196
f 174/350/201 183/353/210 172/351/199
f 179/224/206 176/225/203 180/222/207
f 179/224/206 177/223/204 176/241/203
f 173/340/200 180/345/207 182/354/209
f 173/340/200 175/342/202 180/345/207
f 181/346/208 172/351/199 183/355/210
f 181/346/208 176/349/203 172/351/199
f 184/356/211 185/357/212 186/283/213
f 184/251/211 187/286/214 185/357/212
f 188/358/215 189/359/216 190/279/217
f 188/358/215 191/360/218 189/282/216
f 190/279/217 192/361/219 193/253/220
f 190/279/217 189/280/216 192/361/219
f 194/362/221 185/363/212 187/364/214
f 194/362/221 195/365/222 185/363/212
f 186/273/213 191/360/218 188/358/215
f 186/273/213 185/366/212 191/367/218
f 189/368/216 196/369/223 192/370/219
f 189/368/216 197/371/224 196/369/223
f 187/364/214 196/372/223 194/373/221
f 187/364/214 192/370/219 196/369/223
f 185/363/212 198/374/225 191/375/218
f 185/363/212 195/376/222 198/377/225
f 191/375/218 197/378/224 189/368/216
f 191/375/218 198/379/225 197/378/224
f 193/277/220 187/254/214 184/251/211
f 193/253/220 192/380/219 187/254/214
f 199/381/226 200/382/227 201/383/228
f 199/381/226 202/384/229 200/382/227
f 202/384/229 203/290/230 200/382/227
f 202/385/229 204/386/231 203/323/230
f 204/387/231 205/388/232 203/323/230
f 204/387/231 206/389/233 205/390/232
f 206/389/233 207/391/234 205/388/232
f 206/389/233 208/392/235 207/391/234
f 208/393/235 201/394/236 209/395/237
f 208/393/235 199/381/238 201/394/236
f 207/312/239 210/308/240 211/314/241
f 207/312/239 203/310/242 210/308/240
f 201/396/228 212/397/243 213/398/244
f 201/396/228 200/399/227 212/397/243
f 200/400/227 214/401/245 212/402/243
f 200/399/227 203/403/230 214/404/245
f 209/405/237 213/398/246 215/406/247
f 209/405/237 201/396/236 213/407/246
f 203/403/230 215/408/247 214/404/245
f 203/409/230 207/410/234 215/408/247
f 203/310/230 216/315/248 210/308/248
f 203/310/230 205/309/232 216/314/248
f 205/309/232 211/314/241 216/314/249
f 205/313/232 207/312/234 211/314/241
f 216/295/249 211/295/241 210/294/240
f 207/411/234 209/412/237 215/413/247
f 207/414/234 208/393/235 209/415/237
f 217/416/250 218/417/251 219/418/252
f 217/416/250 220/419/253 218/417/251
f 221/420/254 222/421/255 223/422/256
f 224/423/257 225/421/258 226/422/259
f 223/422/256 222/421/255 227/423/260
f 228/420/261 226/422/259 225/421/258
f 229/424/262 227/425/260 222/426/255
f 224/425/257 230/424/263 225/426/258
f 231/427/264 232/428/265 233/429/266
f 231/427/264 234/430/267 232/428/265
f 223/431/256 235/432/268 221/433/254
f 223/434/256 236/435/269 235/436/268
f 236/435/269 237/437/270 235/436/268
f 236/438/269 238/439/271 237/437/270
f 238/440/271 228/441/261 237/442/270
f 238/440/271 226/443/259 228/444/261
f 224/445/257 229/446/262 230/447/263
f 224/445/257 227/448/260 229/446/262
f 239/449/272 240/450/273 241/451/274
f 239/452/272 242/453/275 240/450/273
f 243/454/276 244/455/277 245/456/278
f 243/454/276 246/457/279 244/455/277
f 247/458/280 241/459/274 248/460/281
f 247/458/280 239/449/272 241/459/274
f 242/461/275 245/462/278 240/463/273
f 242/464/275 243/465/276 245/456/278
f 246/466/279 248/460/281 244/467/277
f 246/466/279 247/468/280 248/460/281
f 249/469/282 250/470/283 251/471/284
f 252/472/285 249/473/282 251/471/284
f 253/474/286 254/475/287 255/476/288
f 256/477/289 254/478/287 257/479/290
f 256/480/289 257/481/290 258/482/291
f 259/483/292 258/484/291 257/481/290
f 253/485/286 257/486/290 254/487/287
f 254/488/287 260/489/293 255/490/288
f 254/478/287 256/491/289 260/489/293
f 260/492/293 261/493/294 255/494/288
f 260/492/293 262/495/295 261/493/294
f 262/496/295 259/497/292 261/498/294
f 262/496/295 258/499/291 259/497/292
f 263/500/296 264/501/297 265/502/296
f 263/500/296 266/503/297 264/501/297
f 263/504/296 267/505/298 268/506/299
f 263/504/296 265/507/296 267/508/298
f 264/509/300 269/510/301 270/511/302
f 264/509/300 266/512/303 269/510/301
f 268/513/304 266/514/303 263/515/305
f 268/513/304 269/516/301 266/517/303
f 265/518/306 270/519/302 267/520/298
f 265/518/306 264/521/300 270/519/302
f 271/451/307 272/522/308 273/523/309
f 271/451/307 274/524/310 272/453/308
f 275/456/311 276/525/312 277/454/313
f 275/456/311 278/455/314 276/457/312
f 279/460/315 273/526/309 280/527/316
f 279/460/315 271/459/307 273/526/309
f 274/463/310 277/465/313 272/464/308
f 274/463/310 275/456/311 277/465/313
f 278/528/314 280/529/316 276/530/312
f 278/528/314 279/460/315 280/531/316
f 281/473/317 282/532/318 283/533/319
f 281/534/317 284/535/320 282/536/318
f 281/469/317 283/533/319 285/470/321
f 286/532/322 283/537/319 282/532/318
f 287/474/323 288/476/324 289/475/325
f 290/477/326 291/479/327 289/538/325
f 290/480/326 292/482/328 291/481/327
f 293/483/329 291/481/327 292/484/328
f 287/485/323 289/487/325 291/486/327
f 288/490/324 290/491/326 289/538/325
f 288/490/324 294/489/330 290/491/326
f 288/494/324 295/495/331 294/492/330
f 288/494/324 296/493/332 295/539/331
f 296/540/332 292/499/328 295/496/331
f 296/540/332 293/541/329 292/499/328
f 297/542/333 298/543/334 299/544/335
f 297/542/333 300/545/333 298/543/334
f 301/511/336 299/512/337 298/509/338
f 301/546/336 302/510/339 299/512/337
f 303/506/340 300/507/333 297/504/333
f 303/506/340 304/508/341 300/507/333
f 302/547/339 297/548/342 299/549/337
f 302/547/339 303/550/343 297/548/342
f 304/551/341 298/552/338 300/521/344
f 304/551/341 301/520/336 298/552/338
f 305/553/345 306/554/346 307/555/347
f 305/556/345 308/557/348 306/554/346
f 307/558/347 309/559/349 310/560/350
f 307/555/347 306/561/346 309/559/349
f 310/562/350 311/563/351 307/558/347
f 310/562/350 312/564/352 311/563/351
f 307/555/347 313/565/353 305/566/345
f 307/555/347 311/567/351 313/565/353
f 314/568/354 315/569/355 316/570/356
f 314/568/354 317/571/357 315/569/355
f 318/562/358 317/572/357 314/568/354
f 318/562/358 319/573/359 317/572/357
f 314/574/354 320/575/360 318/562/358
f 314/574/354 321/576/361 320/575/360
f 316/577/356 321/576/361 314/578/354
f 316/579/356 322/580/362 321/576/361
f 120/581/140 105/582/125 123/583/143
f 124/584/144 123/236/143 107/206/127
f 105/582/125 107/336/127 123/585/143
f 252/586/363 228/587/261 225/426/258
f 237/442/270 228/441/261 252/588/363
f 235/589/268 284/590/364 221/591/254
f 285/592/365 222/426/255 281/593/366
f 252/586/363 225/426/258 249/593/367
f 250/592/368 249/593/367 225/426/258
f 309/559/349 323/594/369 310/560/350
f 312/595/352 310/562/350 324/596/370
f 323/594/369 324/596/370 310/597/350
f 319/573/359 318/562/358 325/598/371
f 320/599/360 326/600/372 318/560/358
f 325/601/371 318/597/358 326/600/372
f 166/602/193 24/603/22 21/34/19
f 250/592/368 225/426/258 230/604/263
f 282/605/373 284/590/364 235/589/268
f 252/472/285 251/606/284 237/607/374
f 274/463/310 327/608/375 275/609/311
f 179/581/206 178/583/205 168/582/195
f 171/584/198 167/206/194 178/236/205
f 168/582/195 178/585/205 167/336/194
f 245/609/278 328/608/376 240/463/273
f 286/532/322 237/607/377 283/537/319
f 16/610/14 166/611/193 17/612/15
f 285/592/365 229/604/262 222/426/255
f 284/613/364 222/426/255 221/587/254
f 93/614/101 19/615/17 89/616/97
f 94/617/102 91/618/99 22/619/20
f 24/620/22 89/616/97 19/621/17
f 23/622/21 22/623/20 91/618/99
f 284/613/364 281/593/366 222/426/255
f 109/624/129 20/41/18 23/40/21
f 251/606/284 283/533/319 237/607/378
f 9/625/7 18/626/16 109/624/129
f 107/627/127 125/628/145 124/246/144
f 107/627/127 106/629/126 125/628/145
f 108/630/128 120/224/140 119/631/139
f 108/630/128 105/627/125 120/632/140
f 139/273/159 113/633/133 138/634/158
f 139/635/159 111/636/131 113/633/133
f 140/279/160 117/637/137 128/277/148
f 140/638/160 115/639/135 117/350/137
f 138/634/158 115/640/135 140/281/160
f 138/634/158 113/633/133 115/640/135
f 126/641/146 111/642/131 139/283/159
f 126/641/146 122/643/142 111/642/131
f 128/277/148 122/644/142 126/251/146
f 128/277/148 117/637/137 122/644/142
f 196/645/223 204/646/231 202/647/229
f 196/645/223 197/645/224 204/646/231
f 197/645/224 206/647/233 204/646/231
f 197/648/224 198/648/225 206/649/233
f 198/650/225 208/651/235 206/652/233
f 198/650/225 195/651/222 208/651/235
f 194/653/221 202/652/229 199/654/226
f 194/653/221 196/650/223 202/652/229
f 195/655/222 199/654/238 208/655/235
f 195/655/222 194/653/221 199/654/238
f 235/656/268 286/657/379 282/605/373
f 235/656/268 237/658/270 286/657/379
f 3/659/2 234/660/267 231/661/264
f 3/659/2 2/662/2 234/660/267
f 184/251/211 173/637/200 193/277/220
f 184/663/211 174/644/201 173/637/200
f 250/470/283 283/533/319 251/471/284
f 250/470/283 285/470/321 283/533/319
f 270/664/302 256/665/289 258/666/291
f 270/667/302 269/668/301 256/665/289
f 269/669/301 260/670/293 256/671/289
f 269/672/301 268/673/304 260/670/293
f 268/674/299 262/495/295 260/675/293
f 268/674/299 267/676/298 262/495/295
f 267/677/298 258/678/291 262/679/295
f 267/677/298 270/415/302 258/678/291
f 259/680/292 242/681/275 239/682/272
f 259/683/292 257/684/290 242/685/275
f 253/686/286 246/687/279 243/688/276
f 253/474/286 255/689/288 246/690/279
f 261/691/294 239/682/272 247/692/280
f 261/691/294 259/680/292 239/682/272
f 257/693/290 243/694/276 242/464/275
f 257/693/290 253/485/286 243/694/276
f 255/695/288 247/696/280 246/697/279
f 255/698/288 261/691/294 247/696/280
f 274/699/310 329/700/380 327/701/375
f 274/699/310 271/702/307 329/700/380
f 330/703/381 271/459/307 279/704/315
f 330/703/381 329/700/380 271/705/307
f 331/706/382 279/460/315 278/707/314
f 331/706/382 330/703/381 279/704/315
f 292/666/328 302/668/339 301/667/336
f 292/482/328 290/665/326 302/668/339
f 290/671/326 303/673/343 302/708/339
f 290/671/326 294/670/330 303/673/343
f 294/675/330 304/676/341 303/674/340
f 294/675/330 295/495/331 304/709/341
f 295/679/331 301/415/336 304/677/341
f 295/679/331 292/678/328 301/415/336
f 273/682/309 291/684/327 293/683/329
f 273/682/309 272/685/308 291/684/327
f 277/688/313 288/689/324 287/474/323
f 277/688/313 276/710/312 288/689/324
f 280/692/316 293/680/329 296/691/332
f 280/692/316 273/682/309 293/680/329
f 272/711/308 287/485/323 291/693/327
f 272/711/308 277/694/313 287/712/323
f 276/696/312 296/691/332 288/698/324
f 276/696/312 280/696/316 296/691/332
f 327/713/375 278/714/314 275/609/311
f 327/713/375 331/715/382 278/714/314
f 212/299/243 219/418/252 218/716/251
f 212/299/243 214/717/245 219/718/252
f 214/717/245 217/719/250 219/718/252
f 214/717/245 215/720/247 217/719/250
f 215/720/247 220/419/253 217/721/250
f 215/406/247 213/722/246 220/723/253
f 213/722/244 218/417/383 220/419/384
f 213/722/244 212/299/243 218/716/383
f 162/724/385 153/304/173 151/725/171
f 162/724/385 159/725/386 153/304/173
f 159/300/386 142/288/387 153/726/173
f 159/300/386 161/727/387 142/288/387
f 161/728/188 148/729/168 142/288/162
f 161/333/188 160/332/187 148/299/168
f 160/332/187 151/331/171 148/299/168
f 160/335/187 162/334/189 151/331/171
f 163/730/190 170/731/197 14/732/12
f 163/733/190 165/734/192 170/735/197
f 170/731/197 16/736/14 14/732/12
f 170/737/197 177/738/388 16/736/14
f 164/739/191 16/740/14 177/741/388
f 164/739/191 166/208/193 16/740/14
f 171/742/198 165/629/192 167/743/194
f 171/246/198 170/628/197 165/629/192
f 177/631/204 168/627/195 164/630/191
f 177/631/204 179/224/206 168/627/195
f 245/609/278 332/715/389 328/713/376
f 245/609/278 244/714/277 332/715/389
f 248/704/281 333/744/390 334/703/391
f 248/704/281 241/459/274 333/745/390
f 244/746/277 334/747/391 332/748/389
f 244/746/277 248/749/281 334/747/391
f 328/750/376 241/702/274 240/751/273
f 328/750/376 333/745/390 241/705/274
f 6/752/4 226/753/259 238/754/271
f 6/755/4 11/756/9 226/757/259
f 11/758/9 224/759/257 226/760/259
f 11/758/9 10/761/8 224/759/257
f 10/762/8 227/759/260 224/763/257
f 10/762/8 13/764/11 227/765/260
f 13/761/11 223/760/256 227/759/260
f 13/766/11 15/758/13 223/760/256
f 15/767/13 236/768/269 223/769/256
f 15/770/13 7/771/5 236/768/269
f 7/772/5 238/773/271 236/768/269
f 7/772/5 6/752/4 238/773/271
f 18/774/16 20/775/18 109/624/129
f 18/774/16 8/43/6 20/39/18
f 230/776/263 285/777/365 250/778/368
f 230/776/263 229/779/262 285/777/365
f 186/283/213 174/643/201 184/641/211
f 186/780/213 183/642/210 174/781/201
f 190/281/217 181/633/208 188/358/215
f 190/782/217 182/783/209 181/633/208
f 193/277/220 182/353/209 190/279/217
f 193/277/220 173/637/200 182/353/209
f 93/784/101 22/785/20 19/615/17
f 93/784/101 94/617/102 22/785/20
f 90/786/98 335/787/392 336/788/393
f 90/786/98 92/789/100 335/787/392
f 188/358/215 183/636/210 186/273/213
f 188/358/215 181/633/208 183/636/210
f 91/790/99 336/791/393 23/792/21
f 91/790/99 90/793/98 336/794/393
f 24/792/22 92/793/100 89/790/97
f 24/792/22 335/795/392 92/793/100
f 23/796/21 110/797/130 109/798/129
f 23/40/21 336/799/393 110/797/130
f 335/800/392 166/801/193 163/802/190
f 335/800/392 24/603/22 166/803/193
f 336/804/393 163/805/190 110/806/130
f 336/804/393 335/807/392 163/805/190
f 110/808/130 14/809/12 12/810/10
f 110/808/130 163/811/190 14/809/12
f 166/602/193 5/6/3 17/612/15
f 166/602/193 21/812/19 5/813/3
f 109/208/129 119/741/394 9/740/7
f 109/208/129 108/739/128 119/814/394
f 119/738/394 12/732/10 9/736/7
f 119/738/394 125/731/145 12/732/10
f 106/734/126 12/732/10 125/731/145
f 106/734/126 110/730/130 12/732/10
f 131/645/151 157/646/183 158/647/184
f 131/645/151 133/645/153 157/646/183
f 134/815/154 158/816/184 144/815/164
f 134/651/154 131/650/151 158/652/184
f 133/645/153 155/647/181 157/646/183
f 133/648/153 137/648/157 155/649/181
f 137/650/157 156/654/182 155/652/181
f 137/650/157 136/653/156 156/654/182
f 136/653/156 144/655/164 156/654/185
f 136/817/156 134/818/154 144/818/164
o Weapon
v 0.890001 1.210854 0.032500
v 0.755001 0.028354 0.020000
v 0.852501 0.098354 0.020000
v 0.775001 1.210854 0.032500
v 0.852501 0.098354 -0.020000
v 0.890001 1.210854 -0.035000
v 0.755001 0.028354 -0.020000
v 0.775001 1.210854 -0.035000
v 0.892501 1.355854 0.020000
v 0.772501 1.865854 0.020000
v 0.780001 1.358354 0.020000
v 0.860001 1.865854 0.020000
v 0.772501 1.865854 -0.022500
v 0.780001 1.355854 -0.022500
v 0.860001 1.865854 -0.022500
v 0.892501 1.355854 -0.022500
vn 0.7086 0.0098 0.7055
vn -0.3178 -0.6016 0.7329
vn 0.7632 -0.4242 0.4875
vn -0.7060 0.0466 0.7067
vn 0.7631 -0.4244 -0.4874
vn 0.7080 0.0051 -0.7062
vn -0.3175 -0.6019 -0.7327
vn -0.7063 0.0420 -0.7066
vn 0.7074 0.0464 0.7052
vn -0.5876 0.5680 0.5763
vn -0.7066 0.0395 0.7065
vn 0.5575 0.6039 0.5697
vn -0.5890 0.5673 -0.5756
vn -0.7077 0.0352 -0.7057
vn 0.5558 0.6046 -0.5705
vn 0.7060 0.0423 -0.7070
vt 0.367190 0.140620
vt 0.492180 0.101570
vt 0.484380 0.136710
vt 0.367190 0.101570
vt 0.484370 0.136720
vt 0.492180 0.099610
vt 0.367190 0.099610
vt 0.484370 0.136710
vt 0.492180 0.109370
vt 0.359380 0.050790
vt 0.492180 0.054680
vt 0.359380 0.093750
vt 0.361330 0.050790
vt 0.361330 0.093750
vt 0.492180 0.054690
vt 0.492180 0.185550
vt 0.406250 0.185550
vt 0.492180 0.187500
vt 0.406250 0.140630
vt 0.492180 0.140630
vt 0.406250 0.187500
vt 0.406250 0.138670
vt 0.492180 0.138670
s 1
usemtl Lin
f 337/819/395 338/820/396 339/821/397
f 337/819/395 340/822/398 338/820/396
f 341/823/399 337/819/395 339/823/397
f 341/823/399 342/819/400 337/819/395
f 343/824/401 340/825/398 344/825/402
f 343/824/401 338/824/396 340/825/398
f 343/820/401 339/821/397 338/820/396
f 343/820/401 341/821/399 339/821/397
f 341/826/399 344/822/402 342/819/400
f 341/821/399 343/820/401 344/822/402
f 345/827/403 346/828/404 347/829/405
f 345/827/403 348/830/406 346/828/404
f 347/829/405 349/828/407 350/829/408
f 347/829/405 346/828/404 349/828/407
f 346/831/404 351/832/409 349/831/407
f 346/831/404 348/832/406 351/832/409
f 350/833/408 351/830/409 352/827/410
f 350/829/408 349/828/407 351/830/409
f 352/827/410 348/830/406 345/827/403
f 352/827/410 351/830/409 348/830/406
f 342/834/400 345/835/403 337/834/395
f 342/834/400 352/835/410 345/835/403
f 337/836/395 347/837/405 340/838/398
f 337/836/395 345/839/403 347/837/405
f 347/840/405 344/841/402 340/841/398
f 347/840/405 350/840/408 344/841/402
f 352/839/410 344/838/402 350/837/408
f 352/839/410 342/836/400 344/838/402
