mtllib 06.WEP_posed.mtl
usemtl mat0
v 15 -4.898587196589413e-16 -4
v 15 -9 1.102182119232618e-15
v 111 -10 1.2246467991473533e-15
v 111 -10 1.2246467991473533e-15
v 15 -9 1.102182119232618e-15
v 15 3.6739403974420594e-16 3
v 15 -4.898587196589413e-16 -4
v 133 0 0
v 127 4 -4.898587196589413e-16
v 111 10 -1.2246467991473533e-15
v 15 10 -1.2246467991473533e-15
v 15 -4.898587196589413e-16 -4
v 15 3.6739403974420594e-16 3
v 15 10 -1.2246467991473533e-15
v 111 10 -1.2246467991473533e-15
v 127 -5 6.123233995736766e-16
v 111 -10 1.2246467991473533e-15
v 15 3.6739403974420594e-16 3
v 127 4 -4.898587196589413e-16
v 111 10 -1.2246467991473533e-15
v 15 -4.898587196589413e-16 -4
v 15 3.6739403974420594e-16 3
v 111 10 -1.2246467991473533e-15
v 127 4 -4.898587196589413e-16
v 15 -4.898587196589413e-16 -4
v 111 -10 1.2246467991473533e-15
v 127 -5 6.123233995736766e-16
v 127 4 -4.898587196589413e-16
v 133 0 0
v 15 3.6739403974420594e-16 3
v 15 3.6739403974420594e-16 3
v 133 0 0
v 127 -5 6.123233995736766e-16
v 127 -5 6.123233995736766e-16
v 133 0 0
v 15 -4.898587196589413e-16 -4
v 11 -5.000000000000001 -4.999999999999999
v 15 -18 -4.999999999999998
v 11 3.9999999999999996 -5.000000000000001
v 15 17 -5.000000000000002
v 15 -18 -4.999999999999998
v 15 -18 4.000000000000002
v 15 17 -5.000000000000002
v 15 17 3.999999999999998
v 15 -18 4.000000000000002
v 11 -4.999999999999999 4.000000000000001
v 15 17 3.999999999999998
v 11 4.000000000000001 3.9999999999999996
v 11 -4.999999999999999 4.000000000000001
v 11 -5.000000000000001 -4.999999999999999
v 11 4.000000000000001 3.9999999999999996
v 11 3.9999999999999996 -5.000000000000001
v 11 3.9999999999999996 -5.000000000000001
v 15 17 -5.000000000000002
v 11 4.000000000000001 3.9999999999999996
v 15 17 3.999999999999998
v 11 -4.999999999999999 4.000000000000001
v 15 -18 4.000000000000002
v 11 -5.000000000000001 -4.999999999999999
v 15 -18 -4.999999999999998
v 7 -9.797174393178826e-16 -8
v 11 -4.898587196589413e-16 -4
v 7 8 -9.797174393178826e-16
v 11 4 -4.898587196589413e-16
v -5 -4 4.898587196589413e-16
v 7 -8 9.797174393178826e-16
v -5 -4.898587196589413e-16 -4
v 7 -9.797174393178826e-16 -8
v -5 -4 4.898587196589413e-16
v -43 -4 4.898587196589413e-16
v -5 4.898587196589413e-16 4
v -42 2.4492935982947064e-16 2
v -43 -4 4.898587196589413e-16
v -42 -2.4492935982947064e-16 -2
v -42 2.4492935982947064e-16 2
v -43 4 -4.898587196589413e-16
v 7 8 -9.797174393178826e-16
v 11 4 -4.898587196589413e-16
v 7 9.797174393178826e-16 8
v 11 4.898587196589413e-16 4
v 7 -8 9.797174393178826e-16
v 11 -4 4.898587196589413e-16
v 7 -9.797174393178826e-16 -8
v 11 -4.898587196589413e-16 -4
v 7 9.797174393178826e-16 8
v 11 4.898587196589413e-16 4
v 7 -8 9.797174393178826e-16
v 11 -4 4.898587196589413e-16
v -5 4.898587196589413e-16 4
v -42 2.4492935982947064e-16 2
v -5 4 -4.898587196589413e-16
v -43 4 -4.898587196589413e-16
v -5 4 -4.898587196589413e-16
v -43 4 -4.898587196589413e-16
v -5 -4.898587196589413e-16 -4
v -42 -2.4492935982947064e-16 -2
v -5 -4.898587196589413e-16 -4
v -42 -2.4492935982947064e-16 -2
v -5 -4 4.898587196589413e-16
v -43 -4 4.898587196589413e-16
v -5 4.898587196589413e-16 4
v 7 9.797174393178826e-16 8
v -5 -4 4.898587196589413e-16
v 7 -8 9.797174393178826e-16
v -5 4 -4.898587196589413e-16
v 7 8 -9.797174393178826e-16
v -5 4.898587196589413e-16 4
v 7 9.797174393178826e-16 8
v -5 -4.898587196589413e-16 -4
v 7 -9.797174393178826e-16 -8
v -5 4 -4.898587196589413e-16
v 7 8 -9.797174393178826e-16
vt 0.96875 0.3125
vt 0.96875 0.03125
vt 0.1875 0.03125
vt 0.1875 0.03125
vt 0.96875 0.03125
vt 0.96875 0.3125
vt 0.96875 0.3125
vt 0.015625 0.3125
vt 0.0625 0.46875
vt 0.1875 0.59375
vt 0.96875 0.59375
vt 0.96875 0.3125
vt 0.96875 0.3125
vt 0.96875 0.59375
vt 0.1875 0.59375
vt 0.0625 0.15625
vt 0.1875 0.03125
vt 0.96875 0.3125
vt 0.0625 0.46875
vt 0.1875 0.59375
vt 0.96875 0.3125
vt 0.96875 0.3125
vt 0.1875 0.59375
vt 0.0625 0.46875
vt 0.96875 0.3125
vt 0.1875 0.03125
vt 0.0625 0.15625
vt 0.0625 0.46875
vt 0.015625 0.3125
vt 0.96875 0.3125
vt 0.96875 0.3125
vt 0.015625 0.3125
vt 0.0625 0.15625
vt 0.0625 0.15625
vt 0.015625 0.3125
vt 0.96875 0.3125
vt 0.09375 0.65625
vt 0.015625 0.46875
vt 0.09375 0.75
vt 0.015625 0.9375
vt 0.390625 0.78125
vt 0.390625 0.9375
vt 0.109375 0.78125
vt 0.109375 0.9375
vt 0.015625 0.46875
vt 0.09375 0.65625
vt 0.015625 0.9375
vt 0.09375 0.75
vt 0.21875 0.75
vt 0.21875 0.625
vt 0.28125 0.75
vt 0.28125 0.625
vt 0.28125 0.625
vt 0.390625 0.625
vt 0.28125 0.75
vt 0.390625 0.75
vt 0.21875 0.75
vt 0.109375 0.75
vt 0.21875 0.625
vt 0.109375 0.625
vt 0.484375 0.78125
vt 0.40625 0.78125
vt 0.484375 0.9375
vt 0.40625 0.9375
vt 0.625 0.625
vt 0.484375 0.625
vt 0.625 0.78125
vt 0.484375 0.78125
vt 0.640625 0.625
vt 0.96875 0.625
vt 0.640625 0.78125
vt 0.96875 0.78125
vt 0.046875 0.03125
vt 0.078125 0.0625
vt 0.015625 0.0625
vt 0.046875 0.09375
vt 0.484375 0.9375
vt 0.40625 0.9375
vt 0.484375 0.78125
vt 0.40625 0.78125
vt 0.484375 0.625
vt 0.40625 0.625
vt 0.484375 0.78125
vt 0.40625 0.78125
vt 0.484375 0.78125
vt 0.40625 0.78125
vt 0.484375 0.625
vt 0.40625 0.625
vt 0.640625 0.78125
vt 0.96875 0.78125
vt 0.640625 0.9375
vt 0.96875 0.9375
vt 0.640625 0.9375
vt 0.96875 0.9375
vt 0.640625 0.78125
vt 0.96875 0.78125
vt 0.640625 0.78125
vt 0.96875 0.78125
vt 0.640625 0.625
vt 0.96875 0.625
vt 0.625 0.78125
vt 0.484375 0.78125
vt 0.625 0.625
vt 0.484375 0.625
vt 0.625 0.9375
vt 0.484375 0.9375
vt 0.625 0.78125
vt 0.484375 0.78125
vt 0.625 0.78125
vt 0.484375 0.78125
vt 0.625 0.9375
vt 0.484375 0.9375
vn -0.004230570851631399 -0.406134831558936 -0.9138033710076057
vn -0.004230570851631399 -0.406134831558936 -0.9138033710076057
vn -0.004230570851631399 -0.406134831558936 -0.9138033710076057
vn -0.003294021389224663 -0.3162260682667289 0.9486781451955416
vn -0.003294021389224663 -0.3162260682667289 0.9486781451955416
vn -0.003294021389224663 -0.3162260682667289 0.9486781451955416
vn 0.03383518326874513 0.05075277676576268 -0.998137934367658
vn 0.03383518326874513 0.05075277676576268 -0.998137934367658
vn 0.03383518326874513 0.05075277676576268 -0.998137934367658
vn 0 0.37139067121577224 -0.9284766929405921
vn 0 0.37139067121577224 -0.9284766929405921
vn 0 0.37139067121577224 -0.9284766929405921
vn 0 0.2873478910346617 0.9578262835806565
vn 0 0.2873478910346617 0.9578262835806565
vn 0 0.2873478910346617 0.9578262835806565
vn 0.023365478546380145 -0.07476952538795197 0.9969270647773382
vn 0.023365478546380145 -0.07476952538795197 0.9969270647773382
vn 0.023365478546380145 -0.07476952538795197 0.9969270647773382
vn 0.032468978115943216 0.08658394164251512 -0.9957153139877641
vn 0.032468978115943216 0.08658394164251512 -0.9957153139877641
vn 0.032468978115943216 0.08658394164251512 -0.9957153139877641
vn 0.024397411938460532 0.0650597651692282 0.9975830758622712
vn 0.024397411938460532 0.0650597651692282 0.9975830758622712
vn 0.024397411938460532 0.0650597651692282 0.9975830758622712
vn 0.03107989035594087 -0.09945564764889478 -0.9945564913901078
vn 0.03107989035594087 -0.09945564764889478 -0.9945564913901078
vn 0.03107989035594087 -0.09945564764889478 -0.9945564913901078
vn 0.025397067669079208 0.03809560057229637 0.9989513072071373
vn 0.025397067669079208 0.03809560057229637 0.9989513072071373
vn 0.025397067669079208 0.03809560057229637 0.9989513072071373
vn 0.025403704006493884 -0.030484444807792537 0.9992123650393399
vn 0.025403704006493884 -0.030484444807792537 0.9992123650393399
vn 0.025403704006493884 -0.030484444807792537 0.9992123650393399
vn 0.033850883070248035 -0.040621061919472005 -0.9986010449843815
vn 0.033850883070248035 -0.040621061919472005 -0.9986010449843815
vn 0.033850883070248035 -0.040621061919472005 -0.9986010449843815
vn 0 -1.2246467991473532e-16 -1
vn 0 -1.2246467991473532e-16 -1
vn 0 -1.2246467991473532e-16 -1
vn 0 -1.2246467991473532e-16 -1
vn 1 0 0
vn 1 0 0
vn 1 0 0
vn 1 0 0
vn 0 1.2246467991473532e-16 1
vn 0 1.2246467991473532e-16 1
vn 0 1.2246467991473532e-16 1
vn 0 1.2246467991473532e-16 1
vn -1 0 0
vn -1 0 0
vn -1 0 0
vn -1 0 0
vn -0.9557790061444519 0.294085857214392 -3.6015130371211065e-17
vn -0.9557790061444519 0.294085857214392 -3.6015130371211065e-17
vn -0.9557790061444519 0.294085857214392 -3.6015130371211065e-17
vn -0.9557790061444519 0.294085857214392 -3.6015130371211065e-17
vn -0.9557790061444519 -0.294085857214392 3.6015130371211065e-17
vn -0.9557790061444519 -0.294085857214392 3.6015130371211065e-17
vn -0.9557790061444519 -0.294085857214392 3.6015130371211065e-17
vn -0.9557790061444519 -0.294085857214392 3.6015130371211065e-17
vn 0.5773502691896257 0.5773502691896256 -0.5773502691896258
vn 0.5773502691896257 0.5773502691896256 -0.5773502691896258
vn 0.5773502691896257 0.5773502691896256 -0.5773502691896258
vn 0.5773502691896257 0.5773502691896256 -0.5773502691896258
vn -0.22941572916493194 -0.6882472023959572 -0.6882472023959569
vn -0.22941572916493194 -0.6882472023959572 -0.6882472023959569
vn -0.22941572916493194 -0.6882472023959572 -0.6882472023959569
vn -0.22941572916493194 -0.6882472023959572 -0.6882472023959569
vn 0 -0.7071067811865475 0.7071067811865477
vn -0.021362596666521995 -0.5981526843108744 0.8010973759258975
vn -0.021362596666521995 -0.5981526843108744 0.8010973759258975
vn -0.048549984577213275 -0.436949857469629 0.8981746606617352
vn -0.9701425001453319 0.24253562503633297 -2.970204768799479e-17
vn -1 0 0
vn -1 0 0
vn -0.9701425001453319 -0.24253562503633297 2.970204768799479e-17
vn 0.5773502691896257 0.5773502691896258 0.5773502691896256
vn 0.5773502691896257 0.5773502691896258 0.5773502691896256
vn 0.5773502691896257 0.5773502691896258 0.5773502691896256
vn 0.5773502691896257 0.5773502691896258 0.5773502691896256
vn 0.5773502691896257 -0.5773502691896258 -0.5773502691896256
vn 0.5773502691896257 -0.5773502691896258 -0.5773502691896256
vn 0.5773502691896257 -0.5773502691896258 -0.5773502691896256
vn 0.5773502691896257 -0.5773502691896258 -0.5773502691896256
vn 0.5773502691896257 -0.5773502691896256 0.5773502691896258
vn 0.5773502691896257 -0.5773502691896256 0.5773502691896258
vn 0.5773502691896257 -0.5773502691896256 0.5773502691896258
vn 0.5773502691896257 -0.5773502691896256 0.5773502691896258
vn -0.038194097678077174 0.70659083312146 0.7065908331214598
vn -0.021362596666522 0.5981526843108748 0.8010973759258975
vn -0.021362596666522 0.5981526843108748 0.8010973759258975
vn 0 0.44721359549995804 0.8944271909999159
vn 0 0.7071067811865475 -0.7071067811865477
vn -0.021362596666521995 0.5981526843108744 -0.8010973759258975
vn -0.021362596666521995 0.5981526843108744 -0.8010973759258975
vn -0.048549984577213275 0.436949857469629 -0.8981746606617352
vn -0.038194097678077174 -0.70659083312146 -0.7065908331214598
vn -0.021362596666522 -0.5981526843108748 -0.8010973759258975
vn -0.021362596666522 -0.5981526843108748 -0.8010973759258975
vn 0 -0.44721359549995804 -0.8944271909999159
vn -0.22941572916493194 -0.6882472023959569 0.6882472023959572
vn -0.22941572916493194 -0.6882472023959569 0.6882472023959572
vn -0.22941572916493194 -0.6882472023959569 0.6882472023959572
vn -0.22941572916493194 -0.6882472023959569 0.6882472023959572
vn -0.22941572916493194 0.6882472023959572 0.6882472023959569
vn -0.22941572916493194 0.6882472023959572 0.6882472023959569
vn -0.22941572916493194 0.6882472023959572 0.6882472023959569
vn -0.22941572916493194 0.6882472023959572 0.6882472023959569
vn -0.22941572916493194 0.6882472023959569 -0.6882472023959572
vn -0.22941572916493194 0.6882472023959569 -0.6882472023959572
vn -0.22941572916493194 0.6882472023959569 -0.6882472023959572
vn -0.22941572916493194 0.6882472023959569 -0.6882472023959572
f 3/3/3 2/2/2 1/1/1
f 6/6/6 5/5/5 4/4/4
f 9/9/9 8/8/8 7/7/7
f 12/12/12 11/11/11 10/10/10
f 15/15/15 14/14/14 13/13/13
f 18/18/18 17/17/17 16/16/16
f 21/21/21 20/20/20 19/19/19
f 24/24/24 23/23/23 22/22/22
f 27/27/27 26/26/26 25/25/25
f 30/30/30 29/29/29 28/28/28
f 33/33/33 32/32/32 31/31/31
f 36/36/36 35/35/35 34/34/34
f 39/39/39 38/38/38 37/37/37
f 38/38/38 39/39/39 40/40/40
f 43/43/43 42/42/42 41/41/41
f 42/42/42 43/43/43 44/44/44
f 47/47/47 46/46/46 45/45/45
f 46/46/46 47/47/47 48/48/48
f 51/51/51 50/50/50 49/49/49
f 50/50/50 51/51/51 52/52/52
f 55/55/55 54/54/54 53/53/53
f 54/54/54 55/55/55 56/56/56
f 59/59/59 58/58/58 57/57/57
f 58/58/58 59/59/59 60/60/60
f 63/63/63 62/62/62 61/61/61
f 62/62/62 63/63/63 64/64/64
f 67/67/67 66/66/66 65/65/65
f 66/66/66 67/67/67 68/68/68
f 71/71/71 70/70/70 69/69/69
f 70/70/70 71/71/71 72/72/72
f 75/75/75 74/74/74 73/73/73
f 74/74/74 75/75/75 76/76/76
f 79/79/79 78/78/78 77/77/77
f 78/78/78 79/79/79 80/80/80
f 83/83/83 82/82/82 81/81/81
f 82/82/82 83/83/83 84/84/84
f 87/87/87 86/86/86 85/85/85
f 86/86/86 87/87/87 88/88/88
f 91/91/91 90/90/90 89/89/89
f 90/90/90 91/91/91 92/92/92
f 95/95/95 94/94/94 93/93/93
f 94/94/94 95/95/95 96/96/96
f 99/99/99 98/98/98 97/97/97
f 98/98/98 99/99/99 100/100/100
f 103/103/103 102/102/102 101/101/101
f 102/102/102 103/103/103 104/104/104
f 107/107/107 106/106/106 105/105/105
f 106/106/106 107/107/107 108/108/108
f 111/111/111 110/110/110 109/109/109
f 110/110/110 111/111/111 112/112/112
