{"asset":{"version":"2.0","generator":"GLTFExporter"},"scenes":[{"name":"AuxScene","nodes":[5]}],"scene":0,"nodes":[{"rotation":[1,0,0,6.123233995736766e-17],"scale":[0.1,0.1,0.1],"mesh":0},{"rotation":[1,0,0,6.123233995736766e-17],"scale":[0.1,0.1,0.1],"mesh":1},{"rotation":[1,0,0,6.123233995736766e-17],"scale":[0.1,0.1,0.1],"mesh":2},{"rotation":[1,0,0,6.123233995736766e-17],"scale":[0.1,0.1,0.1],"mesh":3},{"rotation":[1,0,0,6.123233995736766e-17],"scale":[0.1,0.1,0.1],"mesh":4},{"children":[0,1,2,3,4]}],"bufferViews":[{"buffer":0,"byteOffset":0,"byteLength":1488,"target":34962,"byteStride":12},{"buffer":0,"byteOffset":1488,"byteLength":1488,"target":34962,"byteStride":12},{"buffer":0,"byteOffset":2976,"byteLength":992,"target":34962,"byteStride":8},{"buffer":0,"byteOffset":3968,"byteLength":1488,"target":34962,"byteStride":12},{"buffer":0,"byteOffset":5456,"byteLength":372,"target":34963},{"buffer":0,"byteOffset":5828,"byteLength":1536,"target":34962,"byteStride":12},{"buffer":0,"byteOffset":7364,"byteLength":1536,"target":34962,"byteStride":12},{"buffer":0,"byteOffset":8900,"byteLength":1024,"target":34962,"byteStride":8},{"buffer":0,"byteOffset":9924,"byteLength":1536,"target":34962,"byteStride":12},{"buffer":0,"byteOffset":11460,"byteLength":384,"target":34963},{"buffer":0,"byteOffset":11844,"byteLength":240,"target":34962,"byteStride":12},{"buffer":0,"byteOffset":12084,"byteLength":240,"target":34962,"byteStride":12},{"buffer":0,"byteOffset":12324,"byteLength":160,"target":34962,"byteStride":8},{"buffer":0,"byteOffset":12484,"byteLength":240,"target":34962,"byteStride":12},{"buffer":0,"byteOffset":12724,"byteLength":60,"target":34963},{"buffer":0,"byteOffset":12784,"byteLength":1536,"target":34962,"byteStride":12},{"buffer":0,"byteOffset":14320,"byteLength":1536,"target":34962,"byteStride":12},{"buffer":0,"byteOffset":15856,"byteLength":1024,"target":34962,"byteStride":8},{"buffer":0,"byteOffset":16880,"byteLength":1536,"target":34962,"byteStride":12},{"buffer":0,"byteOffset":18416,"byteLength":384,"target":34963},{"buffer":0,"byteOffset":18800,"byteLength":6144,"target":34962,"byteStride":12},{"buffer":0,"byteOffset":24944,"byteLength":6144,"target":34962,"byteStride":12},{"buffer":0,"byteOffset":31088,"byteLength":4096,"target":34962,"byteStride":8},{"buffer":0,"byteOffset":35184,"byteLength":6144,"target":34962,"byteStride":12},{"buffer":0,"byteOffset":41328,"byteLength":1536,"target":34963}],"buffers":[{"byteLength":42864,"uri":"data:application/octet-stream;base64,"}],"accessors":[{"bufferView":0,"componentType":5126,"count":124,"max":[1152,0,1152],"min":[128,0,128],"type":"VEC3"},{"bufferView":1,"componentType":5126,"count":124,"max":[0.40392157435417175,0.33725491166114807,0.364705890417099],"min":[0.01568627543747425,0.019607843831181526,0.0235294122248888],"type":"VEC3"},{"bufferView":2,"componentType":5126,"count":124,"max":[0.9921875,0.5],"min":[0.5,0.0078125],"type":"VEC2"},{"bufferView":3,"componentType":5126,"count":124,"max":[0,-1,0],"min":[0,-1,0],"type":"VEC3"},{"bufferView":4,"componentType":5123,"count":186,"max":[123],"min":[0],"type":"SCALAR"},{"bufferView":5,"componentType":5126,"count":128,"max":[1152,0,1152],"min":[128,0,128],"type":"VEC3"},{"bufferView":6,"componentType":5126,"count":128,"max":[0.40392157435417175,0.33725491166114807,0.364705890417099],"min":[0.01568627543747425,0.019607843831181526,0.0235294122248888],"type":"VEC3"},{"bufferView":7,"componentType":5126,"count":128,"max":[0.4921875,0.5],"min":[0.375,0.390625],"type":"VEC2"},{"bufferView":8,"componentType":5126,"count":128,"max":[0,-1,0],"min":[0,-1,0],"type":"VEC3"},{"bufferView":9,"componentType":5123,"count":192,"max":[127],"min":[0],"type":"SCALAR"},{"bufferView":10,"componentType":5126,"count":20,"max":[640,0,768],"min":[512,-128,640],"type":"VEC3"},{"bufferView":11,"componentType":5126,"count":20,"max":[0.21568627655506134,0.34117648005485535,0.45098039507865906],"min":[0.01568627543747425,0.019607843831181526,0.0235294122248888],"type":"VEC3"},{"bufferView":12,"componentType":5126,"count":20,"max":[0.2421875,0.375],"min":[0,0.2578125],"type":"VEC2"},{"bufferView":13,"componentType":5126,"count":20,"max":[1,0,1],"min":[-1,-1,-1],"type":"VEC3"},{"bufferView":14,"componentType":5123,"count":30,"max":[19],"min":[0],"type":"SCALAR"},{"bufferView":15,"componentType":5126,"count":128,"max":[1152,-512,1152],"min":[128,-640,128],"type":"VEC3"},{"bufferView":16,"componentType":5126,"count":128,"max":[0.1921568661928177,0.2862745225429535,0.3686274588108063],"min":[0,0,0],"type":"VEC3"},{"bufferView":17,"componentType":5126,"count":128,"max":[0.4921875,0.125],"min":[0,0.0078125],"type":"VEC2"},{"bufferView":18,"componentType":5126,"count":128,"max":[1,0,1],"min":[-1,0,-1],"type":"VEC3"},{"bufferView":19,"componentType":5123,"count":192,"max":[127],"min":[0],"type":"SCALAR"},{"bufferView":20,"componentType":5126,"count":512,"max":[1152,0,1152],"min":[128,-512,128],"type":"VEC3"},{"bufferView":21,"componentType":5126,"count":512,"max":[0.239215686917305,0.2823529541492462,0.35686275362968445],"min":[0.01568627543747425,0.019607843831181526,0.019607843831181526],"type":"VEC3"},{"bufferView":22,"componentType":5126,"count":512,"max":[0.9921875,1],"min":[0.5,0.5078125],"type":"VEC2"},{"bufferView":23,"componentType":5126,"count":512,"max":[1,0,1],"min":[-1,0,-1],"type":"VEC3"},{"bufferView":24,"componentType":5123,"count":768,"max":[511],"min":[0],"type":"SCALAR"}],"materials":[{"pbrMetallicRoughness":{"metallicFactor":0,"roughnessFactor":0.9,"baseColorTexture":{"index":0}},"extensions":{"KHR_materials_unlit":{}},"alphaMode":"BLEND","doubleSided":false},{"pbrMetallicRoughness":{"metallicFactor":0,"roughnessFactor":0.9,"baseColorTexture":{"index":1}},"extensions":{"KHR_materials_unlit":{}},"alphaMode":"BLEND","doubleSided":false},{"pbrMetallicRoughness":{"metallicFactor":0,"roughnessFactor":0.9,"baseColorTexture":{"index":2}},"extensions":{"KHR_materials_unlit":{}},"alphaMode":"BLEND","doubleSided":false},{"pbrMetallicRoughness":{"metallicFactor":0,"roughnessFactor":0.9,"baseColorTexture":{"index":3}},"extensions":{"KHR_materials_unlit":{}},"alphaMode":"BLEND","doubleSided":false},{"pbrMetallicRoughness":{"metallicFactor":0,"roughnessFactor":0.9,"baseColorTexture":{"index":4}},"extensions":{"KHR_materials_unlit":{}},"alphaMode":"BLEND","doubleSided":false}],"textures":[{"sampler":0,"source":0},{"sampler":1,"source":1},{"sampler":2,"source":2},{"sampler":3,"source":3},{"sampler":4,"source":4}],"samplers":[{"magFilter":9728,"minFilter":9728,"wrapS":10497,"wrapT":10497},{"magFilter":9728,"minFilter":9728,"wrapS":10497,"wrapT":10497},{"magFilter":9728,"minFilter":9728,"wrapS":10497,"wrapT":10497},{"magFilter":9728,"minFilter":9728,"wrapS":10497,"wrapT":10497},{"magFilter":9728,"minFilter":9728,"wrapS":10497,"wrapT":10497}],"images":[{"mimeType":"image/png","uri":"MAP161_0.png"},{"mimeType":"image/png","uri":"MAP161_1.png"},{"mimeType":"image/png","uri":"MAP161_2.png"},{"mimeType":"image/png","uri":"MAP161_3.png"},{"mimeType":"image/png","uri":"MAP161_4.png"}],"meshes":[{"primitives":[{"mode":4,"attributes":{"POSITION":0,"COLOR_0":1,"TEXCOORD_0":2,"NORMAL":3},"indices":4,"material":0}]},{"primitives":[{"mode":4,"attributes":{"POSITION":5,"COLOR_0":6,"TEXCOORD_0":7,"NORMAL":8},"indices":9,"material":1}]},{"primitives":[{"mode":4,"attributes":{"POSITION":10,"COLOR_0":11,"TEXCOORD_0":12,"NORMAL":13},"indices":14,"material":2}]},{"primitives":[{"mode":4,"attributes":{"POSITION":15,"COLOR_0":16,"TEXCOORD_0":17,"NORMAL":18},"indices":19,"material":3}]},{"primitives":[{"mode":4,"attributes":{"POSITION":20,"COLOR_0":21,"TEXCOORD_0":22,"NORMAL":23},"indices":24,"material":4}]}],"extensionsUsed":["KHR_materials_unlit"]}