mtllib 03.WEP_posed.mtl
usemtl mat0
v 19 2.4492935982947064e-16 2
v 22 -6 7.347880794884119e-16
v 15 -11 1.3471114790620886e-15
v 15 -11 1.3471114790620886e-15
v 22 -6 7.347880794884119e-16
v 19 -3.6739403974420594e-16 -3
v 19 -3.6739403974420594e-16 -3
v 21 6 -7.347880794884119e-16
v 15 11 -1.3471114790620886e-15
v 15 11 -1.3471114790620886e-15
v 21 6 -7.347880794884119e-16
v 19 2.4492935982947064e-16 2
v 105 0 0
v 19 2.4492935982947064e-16 2
v 71 2 -2.4492935982947064e-16
v 72 -3 3.6739403974420594e-16
v 105 0 0
v 19 -3.6739403974420594e-16 -3
v 19 2.4492935982947064e-16 2
v 105 0 0
v 72 -3 3.6739403974420594e-16
v 105 0 0
v 71 2 -2.4492935982947064e-16
v 19 -3.6739403974420594e-16 -3
v 48 -6 7.347880794884119e-16
v 19 -3.6739403974420594e-16 -3
v 22 -6 7.347880794884119e-16
v 48 -6 7.347880794884119e-16
v 22 -6 7.347880794884119e-16
v 19 2.4492935982947064e-16 2
v 48 10 -1.2246467991473533e-15
v 71 2 -2.4492935982947064e-16
v 19 2.4492935982947064e-16 2
v 48 10 -1.2246467991473533e-15
v 21 6 -7.347880794884119e-16
v 19 -3.6739403974420594e-16 -3
v 72 -3 3.6739403974420594e-16
v 48 -6 7.347880794884119e-16
v 19 2.4492935982947064e-16 2
v 19 -3.6739403974420594e-16 -3
v 48 -6 7.347880794884119e-16
v 72 -3 3.6739403974420594e-16
v 19 -3.6739403974420594e-16 -3
v 13 -6.123233995736766e-16 -5
v 15 -11 1.3471114790620886e-15
v 19 2.4492935982947064e-16 2
v 21 6 -7.347880794884119e-16
v 48 10 -1.2246467991473533e-15
v 19 -3.6739403974420594e-16 -3
v 71 2 -2.4492935982947064e-16
v 48 10 -1.2246467991473533e-15
v 15 11 -1.3471114790620886e-15
v 13 -6.123233995736766e-16 -5
v 19 -3.6739403974420594e-16 -3
v 15 -11 1.3471114790620886e-15
v 13 4.898587196589413e-16 4
v 19 2.4492935982947064e-16 2
v 19 2.4492935982947064e-16 2
v 13 4.898587196589413e-16 4
v 15 11 -1.3471114790620886e-15
v 15 -11 1.3471114790620886e-15
v 13 -6.123233995736766e-16 -5
v 13 4.898587196589413e-16 4
v 13 4.898587196589413e-16 4
v 13 -6.123233995736766e-16 -5
v 15 11 -1.3471114790620886e-15
v 14 -5 6.123233995736766e-16
v -6 -4 4.898587196589413e-16
v 13 4.898587196589413e-16 4
v -6 3.6739403974420594e-16 3
v -6 3.6739403974420594e-16 3
v -6 -4 4.898587196589413e-16
v -26 4.898587196589413e-16 4
v -26 -5 6.123233995736766e-16
v 13 4.898587196589413e-16 4
v -6 3.6739403974420594e-16 3
v 14 4 -4.898587196589413e-16
v -6 3 -3.6739403974420594e-16
v -6 3 -3.6739403974420594e-16
v -6 3.6739403974420594e-16 3
v -26 4 -4.898587196589413e-16
v -26 4.898587196589413e-16 4
v 14 4 -4.898587196589413e-16
v -6 3 -3.6739403974420594e-16
v 13 -6.123233995736766e-16 -5
v -6 -4.898587196589413e-16 -4
v -6 -4.898587196589413e-16 -4
v -6 3 -3.6739403974420594e-16
v -26 -6.123233995736766e-16 -5
v -26 4 -4.898587196589413e-16
v 13 -6.123233995736766e-16 -5
v -6 -4.898587196589413e-16 -4
v 14 -5 6.123233995736766e-16
v -6 -4 4.898587196589413e-16
v -6 -4 4.898587196589413e-16
v -6 -4.898587196589413e-16 -4
v -26 -5 6.123233995736766e-16
v -26 -6.123233995736766e-16 -5
v -26 -6.123233995736766e-16 -5
v -26 4 -4.898587196589413e-16
v -26 -5 6.123233995736766e-16
v -26 4.898587196589413e-16 4
vt 0.6875 0.5
vt 0.6875 0.03125
vt 0.828125 0.03125
vt 0.828125 0.03125
vt 0.6875 0.03125
vt 0.6875 0.5
vt 0.6875 0.5
vt 0.6875 0.9375
vt 0.828125 0.9375
vt 0.828125 0.9375
vt 0.6875 0.9375
vt 0.6875 0.5
vt 0.640625 0.03125
vt 0.640625 0.9375
vt 0.609375 0.4375
vt 0.671875 0.4375
vt 0.640625 0.03125
vt 0.640625 0.9375
vt 0.640625 0.9375
vt 0.640625 0.03125
vt 0.671875 0.4375
vt 0.640625 0.03125
vt 0.609375 0.4375
vt 0.640625 0.9375
vt 0.015625 0.03125
vt 0.59375 0.46875
vt 0.59375 0.03125
vt 0.015625 0.03125
vt 0.59375 0.03125
vt 0.59375 0.46875
vt 0.015625 0.9375
vt 0.015625 0.5
vt 0.59375 0.5
vt 0.015625 0.9375
vt 0.59375 0.9375
vt 0.59375 0.5
vt 0.015625 0.46875
vt 0.015625 0.03125
vt 0.59375 0.46875
vt 0.59375 0.46875
vt 0.015625 0.03125
vt 0.015625 0.46875
vt 0.6875 0.5
vt 0.828125 0.5
vt 0.828125 0.03125
vt 0.59375 0.5
vt 0.59375 0.9375
vt 0.015625 0.9375
vt 0.59375 0.5
vt 0.015625 0.5
vt 0.015625 0.9375
vt 0.828125 0.9375
vt 0.828125 0.5
vt 0.6875 0.5
vt 0.828125 0.03125
vt 0.828125 0.5
vt 0.6875 0.5
vt 0.6875 0.5
vt 0.828125 0.5
vt 0.828125 0.9375
vt 0.96875 0.9375
vt 0.96875 0.8125
vt 0.90625 0.9375
vt 0.90625 0.9375
vt 0.96875 0.8125
vt 0.96875 0.9375
vt 0.96875 0.03125
vt 0.96875 0.28125
vt 0.90625 0.03125
vt 0.90625 0.28125
vt 0.90625 0.28125
vt 0.96875 0.28125
vt 0.90625 0.625
vt 0.96875 0.625
vt 0.90625 0.03125
vt 0.90625 0.28125
vt 0.84375 0.03125
vt 0.84375 0.28125
vt 0.84375 0.28125
vt 0.90625 0.28125
vt 0.84375 0.625
vt 0.90625 0.625
vt 0.84375 0.03125
vt 0.84375 0.28125
vt 0.90625 0.03125
vt 0.90625 0.28125
vt 0.90625 0.28125
vt 0.84375 0.28125
vt 0.90625 0.625
vt 0.84375 0.625
vt 0.90625 0.03125
vt 0.90625 0.28125
vt 0.96875 0.03125
vt 0.96875 0.28125
vt 0.96875 0.28125
vt 0.90625 0.28125
vt 0.96875 0.625
vt 0.90625 0.625
vt 0.96875 0.65625
vt 0.96875 0.78125
vt 0.90625 0.65625
vt 0.90625 0.78125
vn 0.16795458966170335 -0.23513642850661673 0.9573411700124056
vn 0.16795458966170335 -0.23513642850661673 0.9573411700124056
vn 0.16795458966170335 -0.23513642850661673 0.9573411700124056
vn 0.23973165211291378 -0.3356243040173828 -0.9109802750488402
vn 0.23973165211291378 -0.3356243040173828 -0.9109802750488402
vn 0.23973165211291378 -0.3356243040173828 -0.9109802750488402
vn 0.29056457318266005 0.34867749377965657 -0.8910646632779893
vn 0.29056457318266005 0.34867749377965657 -0.8910646632779893
vn 0.29056457318266005 0.34867749377965657 -0.8910646632779893
vn 0.20584674429237 0.24701609017061182 0.9468950148042051
vn 0.20584674429237 0.24701609017061182 0.9468950148042051
vn 0.20584674429237 0.24701609017061182 0.9468950148042051
vn 0.021621937421365152 0.36757294175114325 0.9297433109813467
vn 0.021621937421365152 0.36757294175114325 0.9297433109813467
vn 0.021621937421365152 0.36757294175114325 0.9297433109813467
vn 0.03255105726192012 -0.3580616373317019 -0.933130372746741
vn 0.03255105726192012 -0.3580616373317019 -0.933130372746741
vn 0.03255105726192012 -0.3580616373317019 -0.933130372746741
vn 0.02252457912688874 -0.24777037598371163 0.9685569080441514
vn 0.02252457912688874 -0.24777037598371163 0.9685569080441514
vn 0.02252457912688874 -0.24777037598371163 0.9685569080441514
vn 0.029991005265043245 0.5098470559781216 -0.8597421236124437
vn 0.029991005265043245 0.5098470559781216 -0.8597421236124437
vn 0.029991005265043245 0.5098470559781216 -0.8597421236124437
vn 0 -0.44721359549995804 -0.8944271909999159
vn 0 -0.44721359549995804 -0.8944271909999159
vn 0 -0.44721359549995804 -0.8944271909999159
vn 0 -0.31622775707614126 0.9486833010307459
vn 0 -0.31622775707614126 0.9486833010307459
vn 0 -0.31622775707614126 0.9486833010307459
vn 0.03444119248313361 0.09901842699202536 0.9944893943005952
vn 0.03444119248313361 0.09901842699202536 0.9944893943005952
vn 0.03444119248313361 0.09901842699202536 0.9944893943005952
vn -0.06880096367982766 0.4644064918003205 -0.8829456595795949
vn -0.06880096367982766 0.4644064918003205 -0.8829456595795949
vn -0.06880096367982766 0.4644064918003205 -0.8829456595795949
vn 0.025422588634461573 -0.20338070907569247 0.9787696251738667
vn 0.025422588634461573 -0.20338070907569247 0.9787696251738667
vn 0.025422588634461573 -0.20338070907569247 0.9787696251738667
vn 0.03717041351033865 -0.29736330808270933 -0.9540405774208863
vn 0.03717041351033865 -0.29736330808270933 -0.9540405774208863
vn 0.03717041351033865 -0.29736330808270933 -0.9540405774208863
vn 0.2962173898807154 -0.35007510525966096 -0.8886521696421461
vn 0.2962173898807154 -0.35007510525966096 -0.8886521696421461
vn 0.2962173898807154 -0.35007510525966096 -0.8886521696421461
vn -0.04896287345759029 0.3304993874568312 0.9425353000887741
vn -0.04896287345759029 0.3304993874568312 0.9425353000887741
vn -0.04896287345759029 0.3304993874568312 0.9425353000887741
vn 0.05131052343943736 0.14751775302573716 -0.9877275650332984
vn 0.05131052343943736 0.14751775302573716 -0.9877275650332984
vn 0.05131052343943736 0.14751775302573716 -0.9877275650332984
vn 0.2962173898807154 0.35007510525966073 -0.8886521696421461
vn 0.2962173898807154 0.35007510525966073 -0.8886521696421461
vn 0.2962173898807154 0.35007510525966073 -0.8886521696421461
vn 0.3039184286050551 -0.2762894995151647 0.9117552858151653
vn 0.3039184286050551 -0.2762894995151647 0.9117552858151653
vn 0.3039184286050551 -0.2762894995151647 0.9117552858151653
vn 0.3039184286050551 0.2762894995151649 0.9117552858151653
vn 0.3039184286050551 0.2762894995151649 0.9117552858151653
vn 0.3039184286050551 0.2762894995151649 0.9117552858151653
vn -0.9838699089078147 -0.1788854447564941 2.190714873350912e-17
vn -0.9838699089078147 -0.1788854447564941 2.190714873350912e-17
vn -0.9838699089078147 -0.1788854447564941 2.190714873350912e-17
vn -0.9838699089078147 0.1788854447564941 -2.190714873350912e-17
vn -0.9838699089078147 0.1788854447564941 -2.190714873350912e-17
vn -0.9838699089078147 0.1788854447564941 -2.190714873350912e-17
vn -0.031410492830990025 -0.6282098268174782 0.7774096696273262
vn -0.03597259131036788 -0.6160306303810015 0.7869003971957335
vn -0.03597259131036788 -0.6160306303810015 0.7869003971957335
vn -0.04206799064484798 -0.599468840612051 0.7992918073509502
vn 0.039968040580475234 -0.5995205751795151 0.7993607669060203
vn 0.035060750838561916 -0.6135631564386391 0.7888669069061588
vn 0.035060750838561916 -0.6135631564386391 0.7888669069061588
vn 0.031219526689634406 -0.624390533792688 0.7804881821420213
vn -0.036946870746075056 0.7112272450981385 0.7019905516260067
vn -0.03623782561117746 0.7092260299020219 0.704049187560351
vn -0.03623782561117746 0.7092260299020219 0.704049187560351
vn -0.035333259690367165 0.7066652534119862 0.7066652534119859
vn 0.035333259690367165 0.7066652534119862 0.7066652534119859
vn 0.035333259690367165 0.7066652534119862 0.7066652534119859
vn 0.035333259690367165 0.7066652534119862 0.7066652534119859
vn 0.035333259690367165 0.7066652534119862 0.7066652534119859
vn -0.03920393102304863 0.7840786055598111 -0.6194221436917815
vn -0.03594425610286012 0.7907736715158247 -0.6110523798256536
vn -0.03594425610286012 0.7907736715158247 -0.6110523798256536
vn -0.03156321435556005 0.7996014204067473 -0.5997010355027388
vn 0.029986508093303173 0.7996402356896327 -0.5997301916683859
vn 0.035060750838561916 0.7888669069061586 -0.6135631564386393
vn 0.035060750838561916 0.7888669069061586 -0.6135631564386393
vn 0.039013716185655724 0.7802743088119537 -0.6242194589704917
vn -0.03699544823682516 -0.7103126061470431 -0.7029134643456135
vn -0.03623792210346546 -0.7086526856667367 -0.7046262726431257
vn -0.03623792210346546 -0.7086526856667367 -0.7046262726431257
vn -0.035333259690367165 -0.7066652534119862 -0.7066652534119859
vn 0.035333259690367165 -0.7066652534119862 -0.7066652534119859
vn 0.035333259690367165 -0.7066652534119862 -0.7066652534119859
vn 0.035333259690367165 -0.7066652534119862 -0.7066652534119859
vn 0.035333259690367165 -0.7066652534119862 -0.7066652534119859
vn -1 0 0
vn -1 0 0
vn -1 0 0
vn -1 0 0
f 3/3/3 2/2/2 1/1/1
f 6/6/6 5/5/5 4/4/4
f 9/9/9 8/8/8 7/7/7
f 12/12/12 11/11/11 10/10/10
f 15/15/15 14/14/14 13/13/13
f 18/18/18 17/17/17 16/16/16
f 21/21/21 20/20/20 19/19/19
f 24/24/24 23/23/23 22/22/22
f 27/27/27 26/26/26 25/25/25
f 30/30/30 29/29/29 28/28/28
f 33/33/33 32/32/32 31/31/31
f 36/36/36 35/35/35 34/34/34
f 39/39/39 38/38/38 37/37/37
f 42/42/42 41/41/41 40/40/40
f 45/45/45 44/44/44 43/43/43
f 48/48/48 47/47/47 46/46/46
f 51/51/51 50/50/50 49/49/49
f 54/54/54 53/53/53 52/52/52
f 57/57/57 56/56/56 55/55/55
f 60/60/60 59/59/59 58/58/58
f 63/63/63 62/62/62 61/61/61
f 66/66/66 65/65/65 64/64/64
f 69/69/69 68/68/68 67/67/67
f 68/68/68 69/69/69 70/70/70
f 73/73/73 72/72/72 71/71/71
f 72/72/72 73/73/73 74/74/74
f 77/77/77 76/76/76 75/75/75
f 76/76/76 77/77/77 78/78/78
f 81/81/81 80/80/80 79/79/79
f 80/80/80 81/81/81 82/82/82
f 85/85/85 84/84/84 83/83/83
f 84/84/84 85/85/85 86/86/86
f 89/89/89 88/88/88 87/87/87
f 88/88/88 89/89/89 90/90/90
f 93/93/93 92/92/92 91/91/91
f 92/92/92 93/93/93 94/94/94
f 97/97/97 96/96/96 95/95/95
f 96/96/96 97/97/97 98/98/98
f 101/101/101 100/100/100 99/99/99
f 100/100/100 101/101/101 102/102/102
