{"asset":{"version":"2.0","generator":"GLTFExporter"},"scenes":[{"name":"AuxScene","nodes":[65]}],"scene":0,"nodes":[{"rotation":[1,0,0,6.123233995736766e-17],"scale":[0.1,0.1,0.1],"mesh":0},{"rotation":[1,0,0,6.123233995736766e-17],"scale":[0.1,0.1,0.1],"mesh":1},{"rotation":[1,0,0,6.123233995736766e-17],"scale":[0.1,0.1,0.1],"mesh":2},{"rotation":[1,0,0,6.123233995736766e-17],"scale":[0.1,0.1,0.1],"mesh":3},{"rotation":[1,0,0,6.123233995736766e-17],"scale":[0.1,0.1,0.1],"mesh":4},{"rotation":[1,0,0,6.123233995736766e-17],"scale":[0.1,0.1,0.1],"mesh":5},{"rotation":[1,0,0,6.123233995736766e-17],"scale":[0.1,0.1,0.1],"mesh":6},{"rotation":[1,0,0,6.123233995736766e-17],"scale":[0.1,0.1,0.1],"mesh":7},{"rotation":[1,0,0,6.123233995736766e-17],"scale":[0.1,0.1,0.1],"mesh":8},{"rotation":[1,0,0,6.123233995736766e-17],"scale":[0.1,0.1,0.1],"mesh":9},{"rotation":[1,0,0,6.123233995736766e-17],"scale":[0.1,0.1,0.1],"mesh":10},{"rotation":[1,0,0,6.123233995736766e-17],"scale":[0.1,0.1,0.1],"mesh":11},{"rotation":[1,0,0,6.123233995736766e-17],"scale":[0.1,0.1,0.1],"mesh":12},{"rotation":[1,0,0,6.123233995736766e-17],"scale":[0.1,0.1,0.1],"mesh":13},{"rotation":[1,0,0,6.123233995736766e-17],"scale":[0.1,0.1,0.1],"mesh":14},{"rotation":[1,0,0,6.123233995736766e-17],"scale":[0.1,0.1,0.1],"mesh":15},{"rotation":[1,0,0,6.123233995736766e-17],"scale":[0.1,0.1,0.1],"mesh":16},{"rotation":[1,0,0,6.123233995736766e-17],"scale":[0.1,0.1,0.1],"mesh":17},{"rotation":[1,0,0,6.123233995736766e-17],"scale":[0.1,0.1,0.1],"mesh":18},{"rotation":[1,0,0,6.123233995736766e-17],"scale":[0.1,0.1,0.1],"mesh":19},{"rotation":[1,0,0,6.123233995736766e-17],"scale":[0.1,0.1,0.1],"mesh":20},{"rotation":[1,0,0,6.123233995736766e-17],"scale":[0.1,0.1,0.1],"mesh":21},{"rotation":[1,0,0,6.123233995736766e-17],"scale":[0.1,0.1,0.1],"mesh":22},{"rotation":[1,0,0,6.123233995736766e-17],"scale":[0.1,0.1,0.1],"mesh":23},{"rotation":[1,0,0,6.123233995736766e-17],"scale":[0.1,0.1,0.1],"mesh":24},{"rotation":[1,0,0,6.123233995736766e-17],"scale":[0.1,0.1,0.1],"mesh":25},{"rotation":[1,0,0,6.123233995736766e-17],"scale":[0.1,0.1,0.1],"mesh":26},{"rotation":[1,0,0,6.123233995736766e-17],"scale":[0.1,0.1,0.1],"mesh":27},{"rotation":[1,0,0,6.123233995736766e-17],"scale":[0.1,0.1,0.1],"mesh":28},{"rotation":[1,0,0,6.123233995736766e-17],"scale":[0.1,0.1,0.1],"mesh":29},{"rotation":[1,0,0,6.123233995736766e-17],"scale":[0.1,0.1,0.1],"mesh":30},{"rotation":[1,0,0,6.123233995736766e-17],"scale":[0.1,0.1,0.1],"mesh":31},{"rotation":[1,0,0,6.123233995736766e-17],"scale":[0.1,0.1,0.1],"mesh":32},{"rotation":[1,0,0,6.123233995736766e-17],"scale":[0.1,0.1,0.1],"mesh":33},{"rotation":[1,0,0,6.123233995736766e-17],"scale":[0.1,0.1,0.1],"mesh":34},{"rotation":[1,0,0,6.123233995736766e-17],"scale":[0.1,0.1,0.1],"mesh":35},{"rotation":[1,0,0,6.123233995736766e-17],"scale":[0.1,0.1,0.1],"mesh":36},{"rotation":[1,0,0,6.123233995736766e-17],"scale":[0.1,0.1,0.1],"mesh":37},{"rotation":[1,0,0,6.123233995736766e-17],"scale":[0.1,0.1,0.1],"mesh":38},{"rotation":[1,0,0,6.123233995736766e-17],"scale":[0.1,0.1,0.1],"mesh":39},{"rotation":[1,0,0,6.123233995736766e-17],"scale":[0.1,0.1,0.1],"mesh":40},{"rotation":[1,0,0,6.123233995736766e-17],"scale":[0.1,0.1,0.1],"mesh":41},{"rotation":[1,0,0,6.123233995736766e-17],"scale":[0.1,0.1,0.1],"mesh":42},{"rotation":[1,0,0,6.123233995736766e-17],"scale":[0.1,0.1,0.1],"mesh":43},{"rotation":[1,0,0,6.123233995736766e-17],"scale":[0.1,0.1,0.1],"mesh":44},{"rotation":[1,0,0,6.123233995736766e-17],"scale":[0.1,0.1,0.1],"mesh":45},{"rotation":[1,0,0,6.123233995736766e-17],"scale":[0.1,0.1,0.1],"mesh":46},{"rotation":[1,0,0,6.123233995736766e-17],"scale":[0.1,0.1,0.1],"mesh":47},{"rotation":[1,0,0,6.123233995736766e-17],"scale":[0.1,0.1,0.1],"mesh":48},{"rotation":[1,0,0,6.123233995736766e-17],"scale":[0.1,0.1,0.1],"mesh":49},{"rotation":[1,0,0,6.123233995736766e-17],"scale":[0.1,0.1,0.1],"mesh":50},{"rotation":[1,0,0,6.123233995736766e-17],"scale":[0.1,0.1,0.1],"mesh":51},{"rotation":[1,0,0,6.123233995736766e-17],"scale":[0.1,0.1,0.1],"mesh":52},{"rotation":[1,0,0,6.123233995736766e-17],"scale":[0.1,0.1,0.1],"mesh":53},{"rotation":[1,0,0,6.123233995736766e-17],"scale":[0.1,0.1,0.1],"mesh":54},{"rotation":[1,0,0,6.123233995736766e-17],"scale":[0.1,0.1,0.1],"mesh":55},{"rotation":[1,0,0,6.123233995736766e-17],"scale":[0.1,0.1,0.1],"mesh":56},{"rotation":[1,0,0,6.123233995736766e-17],"scale":[0.1,0.1,0.1],"mesh":57},{"rotation":[1,0,0,6.123233995736766e-17],"scale":[0.1,0.1,0.1],"mesh":58},{"rotation":[1,0,0,6.123233995736766e-17],"scale":[0.1,0.1,0.1],"mesh":59},{"rotation":[1,0,0,6.123233995736766e-17],"scale":[0.1,0.1,0.1],"mesh":60},{"rotation":[1,0,0,6.123233995736766e-17],"scale":[0.1,0.1,0.1],"mesh":61},{"rotation":[1,0,0,6.123233995736766e-17],"scale":[0.1,0.1,0.1],"mesh":62},{"rotation":[1,0,0,6.123233995736766e-17],"scale":[0.1,0.1,0.1],"mesh":63},{"rotation":[1,0,0,6.123233995736766e-17],"scale":[0.1,0.1,0.1],"mesh":64},{"children":[0,1,2,3,4,5,6,7,8,9,10,11,12,13,14,15,16,17,18,19,20,21,22,23,24,25,26,27,28,29,30,31,32,33,34,35,36,37,38,39,40,41,42,43,44,45,46,47,48,49,50,51,52,53,54,55,56,57,58,59,60,61,62,63,64]}],"bufferViews":[{"buffer":0,"byteOffset":0,"byteLength":72,"target":34962,"byteStride":12},{"buffer":0,"byteOffset":72,"byteLength":72,"target":34962,"byteStride":12},{"buffer":0,"byteOffset":144,"byteLength":48,"target":34962,"byteStride":8},{"buffer":0,"byteOffset":192,"byteLength":72,"target":34962,"byteStride":12},{"buffer":0,"byteOffset":264,"byteLength":12,"target":34963},{"buffer":0,"byteOffset":276,"byteLength":72,"target":34962,"byteStride":12},{"buffer":0,"byteOffset":348,"byteLength":72,"target":34962,"byteStride":12},{"buffer":0,"byteOffset":420,"byteLength":48,"target":34962,"byteStride":8},{"buffer":0,"byteOffset":468,"byteLength":72,"target":34962,"byteStride":12},{"buffer":0,"byteOffset":540,"byteLength":12,"target":34963},{"buffer":0,"byteOffset":552,"byteLength":72,"target":34962,"byteStride":12},{"buffer":0,"byteOffset":624,"byteLength":72,"target":34962,"byteStride":12},{"buffer":0,"byteOffset":696,"byteLength":48,"target":34962,"byteStride":8},{"buffer":0,"byteOffset":744,"byteLength":72,"target":34962,"byteStride":12},{"buffer":0,"byteOffset":816,"byteLength":12,"target":34963},{"buffer":0,"byteOffset":828,"byteLength":72,"target":34962,"byteStride":12},{"buffer":0,"byteOffset":900,"byteLength":72,"target":34962,"byteStride":12},{"buffer":0,"byteOffset":972,"byteLength":48,"target":34962,"byteStride":8},{"buffer":0,"byteOffset":1020,"byteLength":72,"target":34962,"byteStride":12},{"buffer":0,"byteOffset":1092,"byteLength":12,"target":34963},{"buffer":0,"byteOffset":1104,"byteLength":288,"target":34962,"byteStride":12},{"buffer":0,"byteOffset":1392,"byteLength":288,"target":34962,"byteStride":12},{"buffer":0,"byteOffset":1680,"byteLength":192,"target":34962,"byteStride":8},{"buffer":0,"byteOffset":1872,"byteLength":288,"target":34962,"byteStride":12},{"buffer":0,"byteOffset":2160,"byteLength":72,"target":34963},{"buffer":0,"byteOffset":2232,"byteLength":288,"target":34962,"byteStride":12},{"buffer":0,"byteOffset":2520,"byteLength":288,"target":34962,"byteStride":12},{"buffer":0,"byteOffset":2808,"byteLength":192,"target":34962,"byteStride":8},{"buffer":0,"byteOffset":3000,"byteLength":288,"target":34962,"byteStride":12},{"buffer":0,"byteOffset":3288,"byteLength":72,"target":34963},{"buffer":0,"byteOffset":3360,"byteLength":288,"target":34962,"byteStride":12},{"buffer":0,"byteOffset":3648,"byteLength":288,"target":34962,"byteStride":12},{"buffer":0,"byteOffset":3936,"byteLength":192,"target":34962,"byteStride":8},{"buffer":0,"byteOffset":4128,"byteLength":288,"target":34962,"byteStride":12},{"buffer":0,"byteOffset":4416,"byteLength":72,"target":34963},{"buffer":0,"byteOffset":4488,"byteLength":288,"target":34962,"byteStride":12},{"buffer":0,"byteOffset":4776,"byteLength":288,"target":34962,"byteStride":12},{"buffer":0,"byteOffset":5064,"byteLength":192,"target":34962,"byteStride":8},{"buffer":0,"byteOffset":5256,"byteLength":288,"target":34962,"byteStride":12},{"buffer":0,"byteOffset":5544,"byteLength":72,"target":34963},{"buffer":0,"byteOffset":5616,"byteLength":4992,"target":34962,"byteStride":12},{"buffer":0,"byteOffset":10608,"byteLength":4992,"target":34962,"byteStride":12},{"buffer":0,"byteOffset":15600,"byteLength":3328,"target":34962,"byteStride":8},{"buffer":0,"byteOffset":18928,"byteLength":4992,"target":34962,"byteStride":12},{"buffer":0,"byteOffset":23920,"byteLength":1140,"target":34963},{"buffer":0,"byteOffset":25060,"byteLength":6108,"target":34962,"byteStride":12},{"buffer":0,"byteOffset":31168,"byteLength":6108,"target":34962,"byteStride":12},{"buffer":0,"byteOffset":37276,"byteLength":4072,"target":34962,"byteStride":8},{"buffer":0,"byteOffset":41348,"byteLength":6108,"target":34962,"byteStride":12},{"buffer":0,"byteOffset":47456,"byteLength":1472,"target":34963},{"buffer":0,"byteOffset":48928,"byteLength":96,"target":34962,"byteStride":12},{"buffer":0,"byteOffset":49024,"byteLength":96,"target":34962,"byteStride":12},{"buffer":0,"byteOffset":49120,"byteLength":64,"target":34962,"byteStride":8},{"buffer":0,"byteOffset":49184,"byteLength":96,"target":34962,"byteStride":12},{"buffer":0,"byteOffset":49280,"byteLength":24,"target":34963},{"buffer":0,"byteOffset":49304,"byteLength":2136,"target":34962,"byteStride":12},{"buffer":0,"byteOffset":51440,"byteLength":2136,"target":34962,"byteStride":12},{"buffer":0,"byteOffset":53576,"byteLength":1424,"target":34962,"byteStride":8},{"buffer":0,"byteOffset":55000,"byteLength":2136,"target":34962,"byteStride":12},{"buffer":0,"byteOffset":57136,"byteLength":516,"target":34963},{"buffer":0,"byteOffset":57652,"byteLength":1056,"target":34962,"byteStride":12},{"buffer":0,"byteOffset":58708,"byteLength":1056,"target":34962,"byteStride":12},{"buffer":0,"byteOffset":59764,"byteLength":704,"target":34962,"byteStride":8},{"buffer":0,"byteOffset":60468,"byteLength":1056,"target":34962,"byteStride":12},{"buffer":0,"byteOffset":61524,"byteLength":240,"target":34963},{"buffer":0,"byteOffset":61764,"byteLength":888,"target":34962,"byteStride":12},{"buffer":0,"byteOffset":62652,"byteLength":888,"target":34962,"byteStride":12},{"buffer":0,"byteOffset":63540,"byteLength":592,"target":34962,"byteStride":8},{"buffer":0,"byteOffset":64132,"byteLength":888,"target":34962,"byteStride":12},{"buffer":0,"byteOffset":65020,"byteLength":204,"target":34963},{"buffer":0,"byteOffset":65224,"byteLength":360,"target":34962,"byteStride":12},{"buffer":0,"byteOffset":65584,"byteLength":360,"target":34962,"byteStride":12},{"buffer":0,"byteOffset":65944,"byteLength":240,"target":34962,"byteStride":8},{"buffer":0,"byteOffset":66184,"byteLength":360,"target":34962,"byteStride":12},{"buffer":0,"byteOffset":66544,"byteLength":84,"target":34963},{"buffer":0,"byteOffset":66628,"byteLength":240,"target":34962,"byteStride":12},{"buffer":0,"byteOffset":66868,"byteLength":240,"target":34962,"byteStride":12},{"buffer":0,"byteOffset":67108,"byteLength":160,"target":34962,"byteStride":8},{"buffer":0,"byteOffset":67268,"byteLength":240,"target":34962,"byteStride":12},{"buffer":0,"byteOffset":67508,"byteLength":60,"target":34963},{"buffer":0,"byteOffset":67568,"byteLength":384,"target":34962,"byteStride":12},{"buffer":0,"byteOffset":67952,"byteLength":384,"target":34962,"byteStride":12},{"buffer":0,"byteOffset":68336,"byteLength":256,"target":34962,"byteStride":8},{"buffer":0,"byteOffset":68592,"byteLength":384,"target":34962,"byteStride":12},{"buffer":0,"byteOffset":68976,"byteLength":96,"target":34963},{"buffer":0,"byteOffset":69072,"byteLength":288,"target":34962,"byteStride":12},{"buffer":0,"byteOffset":69360,"byteLength":288,"target":34962,"byteStride":12},{"buffer":0,"byteOffset":69648,"byteLength":192,"target":34962,"byteStride":8},{"buffer":0,"byteOffset":69840,"byteLength":288,"target":34962,"byteStride":12},{"buffer":0,"byteOffset":70128,"byteLength":72,"target":34963},{"buffer":0,"byteOffset":70200,"byteLength":240,"target":34962,"byteStride":12},{"buffer":0,"byteOffset":70440,"byteLength":240,"target":34962,"byteStride":12},{"buffer":0,"byteOffset":70680,"byteLength":160,"target":34962,"byteStride":8},{"buffer":0,"byteOffset":70840,"byteLength":240,"target":34962,"byteStride":12},{"buffer":0,"byteOffset":71080,"byteLength":48,"target":34963},{"buffer":0,"byteOffset":71128,"byteLength":1800,"target":34962,"byteStride":12},{"buffer":0,"byteOffset":72928,"byteLength":1800,"target":34962,"byteStride":12},{"buffer":0,"byteOffset":74728,"byteLength":1200,"target":34962,"byteStride":8},{"buffer":0,"byteOffset":75928,"byteLength":1800,"target":34962,"byteStride":12},{"buffer":0,"byteOffset":77728,"byteLength":444,"target":34963},{"buffer":0,"byteOffset":78172,"byteLength":984,"target":34962,"byteStride":12},{"buffer":0,"byteOffset":79156,"byteLength":984,"target":34962,"byteStride":12},{"buffer":0,"byteOffset":80140,"byteLength":656,"target":34962,"byteStride":8},{"buffer":0,"byteOffset":80796,"byteLength":984,"target":34962,"byteStride":12},{"buffer":0,"byteOffset":81780,"byteLength":228,"target":34963},{"buffer":0,"byteOffset":82008,"byteLength":36,"target":34962,"byteStride":12},{"buffer":0,"byteOffset":82044,"byteLength":36,"target":34962,"byteStride":12},{"buffer":0,"byteOffset":82080,"byteLength":24,"target":34962,"byteStride":8},{"buffer":0,"byteOffset":82104,"byteLength":36,"target":34962,"byteStride":12},{"buffer":0,"byteOffset":82140,"byteLength":8,"target":34963},{"buffer":0,"byteOffset":82148,"byteLength":528,"target":34962,"byteStride":12},{"buffer":0,"byteOffset":82676,"byteLength":528,"target":34962,"byteStride":12},{"buffer":0,"byteOffset":83204,"byteLength":352,"target":34962,"byteStride":8},{"buffer":0,"byteOffset":83556,"byteLength":528,"target":34962,"byteStride":12},{"buffer":0,"byteOffset":84084,"byteLength":132,"target":34963},{"buffer":0,"byteOffset":84216,"byteLength":1176,"target":34962,"byteStride":12},{"buffer":0,"byteOffset":85392,"byteLength":1176,"target":34962,"byteStride":12},{"buffer":0,"byteOffset":86568,"byteLength":784,"target":34962,"byteStride":8},{"buffer":0,"byteOffset":87352,"byteLength":1176,"target":34962,"byteStride":12},{"buffer":0,"byteOffset":88528,"byteLength":276,"target":34963},{"buffer":0,"byteOffset":88804,"byteLength":552,"target":34962,"byteStride":12},{"buffer":0,"byteOffset":89356,"byteLength":552,"target":34962,"byteStride":12},{"buffer":0,"byteOffset":89908,"byteLength":368,"target":34962,"byteStride":8},{"buffer":0,"byteOffset":90276,"byteLength":552,"target":34962,"byteStride":12},{"buffer":0,"byteOffset":90828,"byteLength":132,"target":34963},{"buffer":0,"byteOffset":90960,"byteLength":816,"target":34962,"byteStride":12},{"buffer":0,"byteOffset":91776,"byteLength":816,"target":34962,"byteStride":12},{"buffer":0,"byteOffset":92592,"byteLength":544,"target":34962,"byteStride":8},{"buffer":0,"byteOffset":93136,"byteLength":816,"target":34962,"byteStride":12},{"buffer":0,"byteOffset":93952,"byteLength":192,"target":34963},{"buffer":0,"byteOffset":94144,"byteLength":816,"target":34962,"byteStride":12},{"buffer":0,"byteOffset":94960,"byteLength":816,"target":34962,"byteStride":12},{"buffer":0,"byteOffset":95776,"byteLength":544,"target":34962,"byteStride":8},{"buffer":0,"byteOffset":96320,"byteLength":816,"target":34962,"byteStride":12},{"buffer":0,"byteOffset":97136,"byteLength":192,"target":34963},{"buffer":0,"byteOffset":97328,"byteLength":360,"target":34962,"byteStride":12},{"buffer":0,"byteOffset":97688,"byteLength":360,"target":34962,"byteStride":12},{"buffer":0,"byteOffset":98048,"byteLength":240,"target":34962,"byteStride":8},{"buffer":0,"byteOffset":98288,"byteLength":360,"target":34962,"byteStride":12},{"buffer":0,"byteOffset":98648,"byteLength":84,"target":34963},{"buffer":0,"byteOffset":98732,"byteLength":192,"target":34962,"byteStride":12},{"buffer":0,"byteOffset":98924,"byteLength":192,"target":34962,"byteStride":12},{"buffer":0,"byteOffset":99116,"byteLength":128,"target":34962,"byteStride":8},{"buffer":0,"byteOffset":99244,"byteLength":192,"target":34962,"byteStride":12},{"buffer":0,"byteOffset":99436,"byteLength":48,"target":34963},{"buffer":0,"byteOffset":99484,"byteLength":96,"target":34962,"byteStride":12},{"buffer":0,"byteOffset":99580,"byteLength":96,"target":34962,"byteStride":12},{"buffer":0,"byteOffset":99676,"byteLength":64,"target":34962,"byteStride":8},{"buffer":0,"byteOffset":99740,"byteLength":96,"target":34962,"byteStride":12},{"buffer":0,"byteOffset":99836,"byteLength":24,"target":34963},{"buffer":0,"byteOffset":99860,"byteLength":144,"target":34962,"byteStride":12},{"buffer":0,"byteOffset":100004,"byteLength":144,"target":34962,"byteStride":12},{"buffer":0,"byteOffset":100148,"byteLength":96,"target":34962,"byteStride":8},{"buffer":0,"byteOffset":100244,"byteLength":144,"target":34962,"byteStride":12},{"buffer":0,"byteOffset":100388,"byteLength":36,"target":34963},{"buffer":0,"byteOffset":100424,"byteLength":1092,"target":34962,"byteStride":12},{"buffer":0,"byteOffset":101516,"byteLength":1092,"target":34962,"byteStride":12},{"buffer":0,"byteOffset":102608,"byteLength":728,"target":34962,"byteStride":8},{"buffer":0,"byteOffset":103336,"byteLength":1092,"target":34962,"byteStride":12},{"buffer":0,"byteOffset":104428,"byteLength":272,"target":34963},{"buffer":0,"byteOffset":104700,"byteLength":1584,"target":34962,"byteStride":12},{"buffer":0,"byteOffset":106284,"byteLength":1584,"target":34962,"byteStride":12},{"buffer":0,"byteOffset":107868,"byteLength":1056,"target":34962,"byteStride":8},{"buffer":0,"byteOffset":108924,"byteLength":1584,"target":34962,"byteStride":12},{"buffer":0,"byteOffset":110508,"byteLength":384,"target":34963},{"buffer":0,"byteOffset":110892,"byteLength":300,"target":34962,"byteStride":12},{"buffer":0,"byteOffset":111192,"byteLength":300,"target":34962,"byteStride":12},{"buffer":0,"byteOffset":111492,"byteLength":200,"target":34962,"byteStride":8},{"buffer":0,"byteOffset":111692,"byteLength":300,"target":34962,"byteStride":12},{"buffer":0,"byteOffset":111992,"byteLength":68,"target":34963},{"buffer":0,"byteOffset":112060,"byteLength":996,"target":34962,"byteStride":12},{"buffer":0,"byteOffset":113056,"byteLength":996,"target":34962,"byteStride":12},{"buffer":0,"byteOffset":114052,"byteLength":664,"target":34962,"byteStride":8},{"buffer":0,"byteOffset":114716,"byteLength":996,"target":34962,"byteStride":12},{"buffer":0,"byteOffset":115712,"byteLength":236,"target":34963},{"buffer":0,"byteOffset":115948,"byteLength":36,"target":34962,"byteStride":12},{"buffer":0,"byteOffset":115984,"byteLength":36,"target":34962,"byteStride":12},{"buffer":0,"byteOffset":116020,"byteLength":24,"target":34962,"byteStride":8},{"buffer":0,"byteOffset":116044,"byteLength":36,"target":34962,"byteStride":12},{"buffer":0,"byteOffset":116080,"byteLength":8,"target":34963},{"buffer":0,"byteOffset":116088,"byteLength":3648,"target":34962,"byteStride":12},{"buffer":0,"byteOffset":119736,"byteLength":3648,"target":34962,"byteStride":12},{"buffer":0,"byteOffset":123384,"byteLength":2432,"target":34962,"byteStride":8},{"buffer":0,"byteOffset":125816,"byteLength":3648,"target":34962,"byteStride":12},{"buffer":0,"byteOffset":129464,"byteLength":912,"target":34963},{"buffer":0,"byteOffset":130376,"byteLength":192,"target":34962,"byteStride":12},{"buffer":0,"byteOffset":130568,"byteLength":192,"target":34962,"byteStride":12},{"buffer":0,"byteOffset":130760,"byteLength":128,"target":34962,"byteStride":8},{"buffer":0,"byteOffset":130888,"byteLength":192,"target":34962,"byteStride":12},{"buffer":0,"byteOffset":131080,"byteLength":48,"target":34963},{"buffer":0,"byteOffset":131128,"byteLength":576,"target":34962,"byteStride":12},{"buffer":0,"byteOffset":131704,"byteLength":576,"target":34962,"byteStride":12},{"buffer":0,"byteOffset":132280,"byteLength":384,"target":34962,"byteStride":8},{"buffer":0,"byteOffset":132664,"byteLength":576,"target":34962,"byteStride":12},{"buffer":0,"byteOffset":133240,"byteLength":144,"target":34963},{"buffer":0,"byteOffset":133384,"byteLength":192,"target":34962,"byteStride":12},{"buffer":0,"byteOffset":133576,"byteLength":192,"target":34962,"byteStride":12},{"buffer":0,"byteOffset":133768,"byteLength":128,"target":34962,"byteStride":8},{"buffer":0,"byteOffset":133896,"byteLength":192,"target":34962,"byteStride":12},{"buffer":0,"byteOffset":134088,"byteLength":48,"target":34963},{"buffer":0,"byteOffset":134136,"byteLength":1236,"target":34962,"byteStride":12},{"buffer":0,"byteOffset":135372,"byteLength":1236,"target":34962,"byteStride":12},{"buffer":0,"byteOffset":136608,"byteLength":824,"target":34962,"byteStride":8},{"buffer":0,"byteOffset":137432,"byteLength":1236,"target":34962,"byteStride":12},{"buffer":0,"byteOffset":138668,"byteLength":296,"target":34963},{"buffer":0,"byteOffset":138964,"byteLength":480,"target":34962,"byteStride":12},{"buffer":0,"byteOffset":139444,"byteLength":480,"target":34962,"byteStride":12},{"buffer":0,"byteOffset":139924,"byteLength":320,"target":34962,"byteStride":8},{"buffer":0,"byteOffset":140244,"byteLength":480,"target":34962,"byteStride":12},{"buffer":0,"byteOffset":140724,"byteLength":120,"target":34963},{"buffer":0,"byteOffset":140844,"byteLength":3516,"target":34962,"byteStride":12},{"buffer":0,"byteOffset":144360,"byteLength":3516,"target":34962,"byteStride":12},{"buffer":0,"byteOffset":147876,"byteLength":2344,"target":34962,"byteStride":8},{"buffer":0,"byteOffset":150220,"byteLength":3516,"target":34962,"byteStride":12},{"buffer":0,"byteOffset":153736,"byteLength":848,"target":34963},{"buffer":0,"byteOffset":154584,"byteLength":1104,"target":34962,"byteStride":12},{"buffer":0,"byteOffset":155688,"byteLength":1104,"target":34962,"byteStride":12},{"buffer":0,"byteOffset":156792,"byteLength":736,"target":34962,"byteStride":8},{"buffer":0,"byteOffset":157528,"byteLength":1104,"target":34962,"byteStride":12},{"buffer":0,"byteOffset":158632,"byteLength":264,"target":34963},{"buffer":0,"byteOffset":158896,"byteLength":168,"target":34962,"byteStride":12},{"buffer":0,"byteOffset":159064,"byteLength":168,"target":34962,"byteStride":12},{"buffer":0,"byteOffset":159232,"byteLength":112,"target":34962,"byteStride":8},{"buffer":0,"byteOffset":159344,"byteLength":168,"target":34962,"byteStride":12},{"buffer":0,"byteOffset":159512,"byteLength":36,"target":34963},{"buffer":0,"byteOffset":159548,"byteLength":192,"target":34962,"byteStride":12},{"buffer":0,"byteOffset":159740,"byteLength":192,"target":34962,"byteStride":12},{"buffer":0,"byteOffset":159932,"byteLength":128,"target":34962,"byteStride":8},{"buffer":0,"byteOffset":160060,"byteLength":192,"target":34962,"byteStride":12},{"buffer":0,"byteOffset":160252,"byteLength":48,"target":34963},{"buffer":0,"byteOffset":160300,"byteLength":744,"target":34962,"byteStride":12},{"buffer":0,"byteOffset":161044,"byteLength":744,"target":34962,"byteStride":12},{"buffer":0,"byteOffset":161788,"byteLength":496,"target":34962,"byteStride":8},{"buffer":0,"byteOffset":162284,"byteLength":744,"target":34962,"byteStride":12},{"buffer":0,"byteOffset":163028,"byteLength":180,"target":34963},{"buffer":0,"byteOffset":163208,"byteLength":144,"target":34962,"byteStride":12},{"buffer":0,"byteOffset":163352,"byteLength":144,"target":34962,"byteStride":12},{"buffer":0,"byteOffset":163496,"byteLength":96,"target":34962,"byteStride":8},{"buffer":0,"byteOffset":163592,"byteLength":144,"target":34962,"byteStride":12},{"buffer":0,"byteOffset":163736,"byteLength":36,"target":34963},{"buffer":0,"byteOffset":163772,"byteLength":288,"target":34962,"byteStride":12},{"buffer":0,"byteOffset":164060,"byteLength":288,"target":34962,"byteStride":12},{"buffer":0,"byteOffset":164348,"byteLength":192,"target":34962,"byteStride":8},{"buffer":0,"byteOffset":164540,"byteLength":288,"target":34962,"byteStride":12},{"buffer":0,"byteOffset":164828,"byteLength":72,"target":34963},{"buffer":0,"byteOffset":164900,"byteLength":5520,"target":34962,"byteStride":12},{"buffer":0,"byteOffset":170420,"byteLength":5520,"target":34962,"byteStride":12},{"buffer":0,"byteOffset":175940,"byteLength":3680,"target":34962,"byteStride":8},{"buffer":0,"byteOffset":179620,"byteLength":5520,"target":34962,"byteStride":12},{"buffer":0,"byteOffset":185140,"byteLength":1296,"target":34963},{"buffer":0,"byteOffset":186436,"byteLength":1092,"target":34962,"byteStride":12},{"buffer":0,"byteOffset":187528,"byteLength":1092,"target":34962,"byteStride":12},{"buffer":0,"byteOffset":188620,"byteLength":728,"target":34962,"byteStride":8},{"buffer":0,"byteOffset":189348,"byteLength":1092,"target":34962,"byteStride":12},{"buffer":0,"byteOffset":190440,"byteLength":272,"target":34963},{"buffer":0,"byteOffset":190712,"byteLength":1032,"target":34962,"byteStride":12},{"buffer":0,"byteOffset":191744,"byteLength":1032,"target":34962,"byteStride":12},{"buffer":0,"byteOffset":192776,"byteLength":688,"target":34962,"byteStride":8},{"buffer":0,"byteOffset":193464,"byteLength":1032,"target":34962,"byteStride":12},{"buffer":0,"byteOffset":194496,"byteLength":252,"target":34963},{"buffer":0,"byteOffset":194748,"byteLength":672,"target":34962,"byteStride":12},{"buffer":0,"byteOffset":195420,"byteLength":672,"target":34962,"byteStride":12},{"buffer":0,"byteOffset":196092,"byteLength":448,"target":34962,"byteStride":8},{"buffer":0,"byteOffset":196540,"byteLength":672,"target":34962,"byteStride":12},{"buffer":0,"byteOffset":197212,"byteLength":168,"target":34963},{"buffer":0,"byteOffset":197380,"byteLength":1128,"target":34962,"byteStride":12},{"buffer":0,"byteOffset":198508,"byteLength":1128,"target":34962,"byteStride":12},{"buffer":0,"byteOffset":199636,"byteLength":752,"target":34962,"byteStride":8},{"buffer":0,"byteOffset":200388,"byteLength":1128,"target":34962,"byteStride":12},{"buffer":0,"byteOffset":201516,"byteLength":276,"target":34963},{"buffer":0,"byteOffset":201792,"byteLength":288,"target":34962,"byteStride":12},{"buffer":0,"byteOffset":202080,"byteLength":288,"target":34962,"byteStride":12},{"buffer":0,"byteOffset":202368,"byteLength":192,"target":34962,"byteStride":8},{"buffer":0,"byteOffset":202560,"byteLength":288,"target":34962,"byteStride":12},{"buffer":0,"byteOffset":202848,"byteLength":72,"target":34963},{"buffer":0,"byteOffset":202920,"byteLength":192,"target":34962,"byteStride":12},{"buffer":0,"byteOffset":203112,"byteLength":192,"target":34962,"byteStride":12},{"buffer":0,"byteOffset":203304,"byteLength":128,"target":34962,"byteStride":8},{"buffer":0,"byteOffset":203432,"byteLength":192,"target":34962,"byteStride":12},{"buffer":0,"byteOffset":203624,"byteLength":48,"target":34963},{"buffer":0,"byteOffset":203672,"byteLength":528,"target":34962,"byteStride":12},{"buffer":0,"byteOffset":204200,"byteLength":528,"target":34962,"byteStride":12},{"buffer":0,"byteOffset":204728,"byteLength":352,"target":34962,"byteStride":8},{"buffer":0,"byteOffset":205080,"byteLength":528,"target":34962,"byteStride":12},{"buffer":0,"byteOffset":205608,"byteLength":132,"target":34963},{"buffer":0,"byteOffset":205740,"byteLength":192,"target":34962,"byteStride":12},{"buffer":0,"byteOffset":205932,"byteLength":192,"target":34962,"byteStride":12},{"buffer":0,"byteOffset":206124,"byteLength":128,"target":34962,"byteStride":8},{"buffer":0,"byteOffset":206252,"byteLength":192,"target":34962,"byteStride":12},{"buffer":0,"byteOffset":206444,"byteLength":48,"target":34963},{"buffer":0,"byteOffset":206492,"byteLength":96,"target":34962,"byteStride":12},{"buffer":0,"byteOffset":206588,"byteLength":96,"target":34962,"byteStride":12},{"buffer":0,"byteOffset":206684,"byteLength":64,"target":34962,"byteStride":8},{"buffer":0,"byteOffset":206748,"byteLength":96,"target":34962,"byteStride":12},{"buffer":0,"byteOffset":206844,"byteLength":24,"target":34963},{"buffer":0,"byteOffset":206868,"byteLength":192,"target":34962,"byteStride":12},{"buffer":0,"byteOffset":207060,"byteLength":192,"target":34962,"byteStride":12},{"buffer":0,"byteOffset":207252,"byteLength":128,"target":34962,"byteStride":8},{"buffer":0,"byteOffset":207380,"byteLength":192,"target":34962,"byteStride":12},{"buffer":0,"byteOffset":207572,"byteLength":48,"target":34963},{"buffer":0,"byteOffset":207620,"byteLength":96,"target":34962,"byteStride":12},{"buffer":0,"byteOffset":207716,"byteLength":96,"target":34962,"byteStride":12},{"buffer":0,"byteOffset":207812,"byteLength":64,"target":34962,"byteStride":8},{"buffer":0,"byteOffset":207876,"byteLength":96,"target":34962,"byteStride":12},{"buffer":0,"byteOffset":207972,"byteLength":24,"target":34963},{"buffer":0,"byteOffset":207996,"byteLength":384,"target":34962,"byteStride":12},{"buffer":0,"byteOffset":208380,"byteLength":384,"target":34962,"byteStride":12},{"buffer":0,"byteOffset":208764,"byteLength":256,"target":34962,"byteStride":8},{"buffer":0,"byteOffset":209020,"byteLength":384,"target":34962,"byteStride":12},{"buffer":0,"byteOffset":209404,"byteLength":96,"target":34963},{"buffer":0,"byteOffset":209500,"byteLength":144,"target":34962,"byteStride":12},{"buffer":0,"byteOffset":209644,"byteLength":144,"target":34962,"byteStride":12},{"buffer":0,"byteOffset":209788,"byteLength":96,"target":34962,"byteStride":8},{"buffer":0,"byteOffset":209884,"byteLength":144,"target":34962,"byteStride":12},{"buffer":0,"byteOffset":210028,"byteLength":36,"target":34963},{"buffer":0,"byteOffset":210064,"byteLength":96,"target":34962,"byteStride":12},{"buffer":0,"byteOffset":210160,"byteLength":96,"target":34962,"byteStride":12},{"buffer":0,"byteOffset":210256,"byteLength":64,"target":34962,"byteStride":8},{"buffer":0,"byteOffset":210320,"byteLength":96,"target":34962,"byteStride":12},{"buffer":0,"byteOffset":210416,"byteLength":24,"target":34963},{"buffer":0,"byteOffset":210440,"byteLength":708,"target":34962,"byteStride":12},{"buffer":0,"byteOffset":211148,"byteLength":708,"target":34962,"byteStride":12},{"buffer":0,"byteOffset":211856,"byteLength":472,"target":34962,"byteStride":8},{"buffer":0,"byteOffset":212328,"byteLength":708,"target":34962,"byteStride":12},{"buffer":0,"byteOffset":213036,"byteLength":176,"target":34963}],"buffers":[{"byteLength":213212,"uri":"data:application/octet-stream;base64,"}],"accessors":[{"bufferView":0,"componentType":5126,"count":6,"max":[384,-512,1984],"min":[128,-512,1920],"type":"VEC3"},{"bufferView":1,"componentType":5126,"count":6,"max":[0.16078431904315948,0.5411764979362488,0.3019607961177826],"min":[0,0,0],"type":"VEC3"},{"bufferView":2,"componentType":5126,"count":6,"max":[0.7421875,0.75],"min":[0.625,0.6953125],"type":"VEC2"},{"bufferView":3,"componentType":5126,"count":6,"max":[0,-1,0],"min":[0,-1,0],"type":"VEC3"},{"bufferView":4,"componentType":5123,"count":6,"max":[5],"min":[0],"type":"SCALAR"},{"bufferView":5,"componentType":5126,"count":6,"max":[384,-512,1984],"min":[128,-512,1920],"type":"VEC3"},{"bufferView":6,"componentType":5126,"count":6,"max":[0.9372549057006836,0.250980406999588,0],"min":[0,0,0],"type":"VEC3"},{"bufferView":7,"componentType":5126,"count":6,"max":[0.7421875,0.75],"min":[0.625,0.6953125],"type":"VEC2"},{"bufferView":8,"componentType":5126,"count":6,"max":[0,-1,0],"min":[0,-1,0],"type":"VEC3"},{"bufferView":9,"componentType":5123,"count":6,"max":[5],"min":[0],"type":"SCALAR"},{"bufferView":10,"componentType":5126,"count":6,"max":[640,0,0],"min":[384,0,-64],"type":"VEC3"},{"bufferView":11,"componentType":5126,"count":6,"max":[0.2980392277240753,1,0.5568627715110779],"min":[0,0,0],"type":"VEC3"},{"bufferView":12,"componentType":5126,"count":6,"max":[0.7421875,0.75],"min":[0.625,0.6953125],"type":"VEC2"},{"bufferView":13,"componentType":5126,"count":6,"max":[0,-1,0],"min":[0,-1,0],"type":"VEC3"},{"bufferView":14,"componentType":5123,"count":6,"max":[5],"min":[0],"type":"SCALAR"},{"bufferView":15,"componentType":5126,"count":6,"max":[640,0,0],"min":[384,0,-64],"type":"VEC3"},{"bufferView":16,"componentType":5126,"count":6,"max":[0.9372549057006836,0.250980406999588,0],"min":[0,0,0],"type":"VEC3"},{"bufferView":17,"componentType":5126,"count":6,"max":[0.7421875,0.75],"min":[0.625,0.6953125],"type":"VEC2"},{"bufferView":18,"componentType":5126,"count":6,"max":[0,-1,0],"min":[0,-1,0],"type":"VEC3"},{"bufferView":19,"componentType":5123,"count":6,"max":[5],"min":[0],"type":"SCALAR"},{"bufferView":20,"componentType":5126,"count":24,"max":[127,1,1],"min":[-1,-383,1],"type":"VEC3"},{"bufferView":21,"componentType":5126,"count":24,"max":[0.41960784792900085,0.4627451002597809,0.4901960790157318],"min":[0.007843137718737125,0.007843137718737125,0.0117647061124444],"type":"VEC3"},{"bufferView":22,"componentType":5126,"count":24,"max":[0.9921875,1],"min":[0.875,0.6328125],"type":"VEC2"},{"bufferView":23,"componentType":5126,"count":24,"max":[0,0,1],"min":[0,0,-1],"type":"VEC3"},{"bufferView":24,"componentType":5123,"count":36,"max":[23],"min":[0],"type":"SCALAR"},{"bufferView":25,"componentType":5126,"count":24,"max":[0,1,1],"min":[-128,-383,1],"type":"VEC3"},{"bufferView":26,"componentType":5126,"count":24,"max":[0.41960784792900085,0.4627451002597809,0.4901960790157318],"min":[0.007843137718737125,0.007843137718737125,0.0117647061124444],"type":"VEC3"},{"bufferView":27,"componentType":5126,"count":24,"max":[0.9921875,1],"min":[0.875,0.6328125],"type":"VEC2"},{"bufferView":28,"componentType":5126,"count":24,"max":[0,0,1],"min":[0,0,-1],"type":"VEC3"},{"bufferView":29,"componentType":5123,"count":36,"max":[23],"min":[0],"type":"SCALAR"},{"bufferView":30,"componentType":5126,"count":24,"max":[128,0,-1],"min":[0,-384,-1],"type":"VEC3"},{"bufferView":31,"componentType":5126,"count":24,"max":[0.5490196347236633,0.38823530077934265,0.1921568661928177],"min":[0.01568627543747425,0.01568627543747425,0.019607843831181526],"type":"VEC3"},{"bufferView":32,"componentType":5126,"count":24,"max":[0.8671875,1],"min":[0.75,0.6328125],"type":"VEC2"},{"bufferView":33,"componentType":5126,"count":24,"max":[0,0,1],"min":[0,0,-1],"type":"VEC3"},{"bufferView":34,"componentType":5123,"count":36,"max":[23],"min":[0],"type":"SCALAR"},{"bufferView":35,"componentType":5126,"count":24,"max":[1,0,-1],"min":[-127,-384,-1],"type":"VEC3"},{"bufferView":36,"componentType":5126,"count":24,"max":[0.5490196347236633,0.38823530077934265,0.1921568661928177],"min":[0.01568627543747425,0.01568627543747425,0.019607843831181526],"type":"VEC3"},{"bufferView":37,"componentType":5126,"count":24,"max":[0.8671875,1],"min":[0.75,0.6328125],"type":"VEC2"},{"bufferView":38,"componentType":5126,"count":24,"max":[0,0,1],"min":[0,0,-1],"type":"VEC3"},{"bufferView":39,"componentType":5123,"count":36,"max":[23],"min":[0],"type":"SCALAR"},{"bufferView":40,"componentType":5126,"count":416,"max":[1024,0,1424],"min":[0,-512,640],"type":"VEC3"},{"bufferView":41,"componentType":5126,"count":416,"max":[0.5490196347236633,0.38823530077934265,0.3176470696926117],"min":[0.007843137718737125,0.007843137718737125,0.007843137718737125],"type":"VEC3"},{"bufferView":42,"componentType":5126,"count":416,"max":[0.9921875,1],"min":[0.5,0.7578125],"type":"VEC2"},{"bufferView":43,"componentType":5126,"count":416,"max":[1,0,0],"min":[-1,-1,-1],"type":"VEC3"},{"bufferView":44,"componentType":5123,"count":570,"max":[415],"min":[0],"type":"SCALAR"},{"bufferView":45,"componentType":5126,"count":509,"max":[1024,0,1920],"min":[0,-512,128],"type":"VEC3"},{"bufferView":46,"componentType":5126,"count":509,"max":[0.7960784435272217,0.6039215922355652,0.5215686559677124],"min":[0.007843137718737125,0.007843137718737125,0.003921568859368563],"type":"VEC3"},{"bufferView":47,"componentType":5126,"count":509,"max":[0.9921875,0.5],"min":[0.5,0.0078125],"type":"VEC2"},{"bufferView":48,"componentType":5126,"count":509,"max":[0.12403473258018494,0,0],"min":[-0.8944271802902222,-1,-1],"type":"VEC3"},{"bufferView":49,"componentType":5123,"count":735,"max":[508],"min":[0],"type":"SCALAR"},{"bufferView":50,"componentType":5126,"count":8,"max":[640,0,128],"min":[384,0,0],"type":"VEC3"},{"bufferView":51,"componentType":5126,"count":8,"max":[0.0117647061124444,0.007843137718737125,0.003921568859368563],"min":[0,0,0],"type":"VEC3"},{"bufferView":52,"componentType":5126,"count":8,"max":[0.1171875,0.5],"min":[0,0.0078125],"type":"VEC2"},{"bufferView":53,"componentType":5126,"count":8,"max":[0,-1,0],"min":[0,-1,0],"type":"VEC3"},{"bufferView":54,"componentType":5123,"count":12,"max":[7],"min":[0],"type":"SCALAR"},{"bufferView":55,"componentType":5126,"count":178,"max":[512,-640,1792],"min":[0,-1152,1664],"type":"VEC3"},{"bufferView":56,"componentType":5126,"count":178,"max":[0.2862745225429535,0.3803921639919281,0.4627451002597809],"min":[0.007843137718737125,0.007843137718737125,0.0117647061124444],"type":"VEC3"},{"bufferView":57,"componentType":5126,"count":178,"max":[0.9921875,1],"min":[0.75,0.5078125],"type":"VEC2"},{"bufferView":58,"componentType":5126,"count":178,"max":[1,0.9701424837112427,0],"min":[-1,0,-1],"type":"VEC3"},{"bufferView":59,"componentType":5123,"count":258,"max":[177],"min":[0],"type":"SCALAR"},{"bufferView":60,"componentType":5126,"count":88,"max":[1024,-512,1920],"min":[0,-1280,1664],"type":"VEC3"},{"bufferView":61,"componentType":5126,"count":88,"max":[0.23137255012989044,0.29019609093666077,0.3450980484485626],"min":[0.007843137718737125,0.007843137718737125,0.0117647061124444],"type":"VEC3"},{"bufferView":62,"componentType":5126,"count":88,"max":[0.9921875,0.75],"min":[0.5,0.5078125],"type":"VEC2"},{"bufferView":63,"componentType":5126,"count":88,"max":[1,0,0],"min":[-1,0,-1],"type":"VEC3"},{"bufferView":64,"componentType":5123,"count":120,"max":[87],"min":[0],"type":"SCALAR"},{"bufferView":65,"componentType":5126,"count":74,"max":[896,-640,1920],"min":[128,-1024,1664],"type":"VEC3"},{"bufferView":66,"componentType":5126,"count":74,"max":[0.22745098173618317,0.2862745225429535,0.32156863808631897],"min":[0.01568627543747425,0.01568627543747425,0.019607843831181526],"type":"VEC3"},{"bufferView":67,"componentType":5126,"count":74,"max":[0.4921875,0.8828125],"min":[0,0.5078125],"type":"VEC2"},{"bufferView":68,"componentType":5126,"count":74,"max":[1,0.9486833214759827,0],"min":[-1,0,-1],"type":"VEC3"},{"bufferView":69,"componentType":5123,"count":102,"max":[73],"min":[0],"type":"SCALAR"},{"bufferView":70,"componentType":5126,"count":30,"max":[984,-1280,1664],"min":[40,-1664,1664],"type":"VEC3"},{"bufferView":71,"componentType":5126,"count":30,"max":[0.12941177189350128,0.15294118225574493,0.1882352977991104],"min":[0.007843137718737125,0.007843137718737125,0.0117647061124444],"type":"VEC3"},{"bufferView":72,"componentType":5126,"count":30,"max":[0.9921875,0.625],"min":[0.625,0.2578125],"type":"VEC2"},{"bufferView":73,"componentType":5126,"count":30,"max":[0,0,-1],"min":[0,0,-1],"type":"VEC3"},{"bufferView":74,"componentType":5123,"count":42,"max":[29],"min":[0],"type":"SCALAR"},{"bufferView":75,"componentType":5126,"count":20,"max":[640,-640,1712],"min":[64,-992,1664],"type":"VEC3"},{"bufferView":76,"componentType":5126,"count":20,"max":[0.26274511218070984,0.34117648005485535,0.4000000059604645],"min":[0.007843137718737125,0.007843137718737125,0.0117647061124444],"type":"VEC3"},{"bufferView":77,"componentType":5126,"count":20,"max":[0.6171875,0.5],"min":[0.5,0.0078125],"type":"VEC2"},{"bufferView":78,"componentType":5126,"count":20,"max":[0.9701424837112427,0.24253562092781067,0],"min":[-0.9701424837112427,-1,0],"type":"VEC3"},{"bufferView":79,"componentType":5123,"count":30,"max":[19],"min":[0],"type":"SCALAR"},{"bufferView":80,"componentType":5126,"count":32,"max":[384,-896,1920],"min":[128,-1024,1792],"type":"VEC3"},{"bufferView":81,"componentType":5126,"count":32,"max":[0.10196078568696976,0.11764705926179886,0.13725490868091583],"min":[0.027450980618596077,0.03529411926865578,0.03921568766236305],"type":"VEC3"},{"bufferView":82,"componentType":5126,"count":32,"max":[0.4921875,0.5],"min":[0,0.375],"type":"VEC2"},{"bufferView":83,"componentType":5126,"count":32,"max":[0.9701424837112427,0.9701424837112427,0],"min":[-0.9701424837112427,0.24253562092781067,0],"type":"VEC3"},{"bufferView":84,"componentType":5123,"count":48,"max":[31],"min":[0],"type":"SCALAR"},{"bufferView":85,"componentType":5126,"count":24,"max":[384,-896,1824],"min":[128,-928,1792],"type":"VEC3"},{"bufferView":86,"componentType":5126,"count":24,"max":[0.545098066329956,0.6078431606292725,0.6784313917160034],"min":[0.027450980618596077,0.03529411926865578,0.03921568766236305],"type":"VEC3"},{"bufferView":87,"componentType":5126,"count":24,"max":[0.2421875,1],"min":[0,0.9140625],"type":"VEC2"},{"bufferView":88,"componentType":5126,"count":24,"max":[0,1,0],"min":[0,-1,-1],"type":"VEC3"},{"bufferView":89,"componentType":5123,"count":36,"max":[23],"min":[0],"type":"SCALAR"},{"bufferView":90,"componentType":5126,"count":20,"max":[1024,-576,1280],"min":[1024,-1152,640],"type":"VEC3"},{"bufferView":91,"componentType":5126,"count":20,"max":[0.364705890417099,0.501960813999176,0.5882353186607361],"min":[0.10588235408067703,0.13725490868091583,0.13725490868091583],"type":"VEC3"},{"bufferView":92,"componentType":5126,"count":20,"max":[0.6171875,0.5],"min":[0.5,0.2578125],"type":"VEC2"},{"bufferView":93,"componentType":5126,"count":20,"max":[-1,0,0],"min":[-1,0,0],"type":"VEC3"},{"bufferView":94,"componentType":5123,"count":24,"max":[19],"min":[0],"type":"SCALAR"},{"bufferView":95,"componentType":5126,"count":150,"max":[1056,-128,1664],"min":[1024,-1152,256],"type":"VEC3"},{"bufferView":96,"componentType":5126,"count":150,"max":[0.48235294222831726,0.48235294222831726,0.5803921818733215],"min":[0.007843137718737125,0.007843137718737125,0.007843137718737125],"type":"VEC3"},{"bufferView":97,"componentType":5126,"count":150,"max":[0.4921875,1],"min":[0,0.5078125],"type":"VEC2"},{"bufferView":98,"componentType":5126,"count":150,"max":[0,1,1],"min":[-1,-1,-1],"type":"VEC3"},{"bufferView":99,"componentType":5123,"count":222,"max":[149],"min":[0],"type":"SCALAR"},{"bufferView":100,"componentType":5126,"count":82,"max":[1024,0,1664],"min":[984,-1280,256],"type":"VEC3"},{"bufferView":101,"componentType":5126,"count":82,"max":[0.3490196168422699,0.4745098054409027,0.572549045085907],"min":[0.007843137718737125,0.007843137718737125,0.007843137718737125],"type":"VEC3"},{"bufferView":102,"componentType":5126,"count":82,"max":[0.9921875,0.75],"min":[0.5,0.5078125],"type":"VEC2"},{"bufferView":103,"componentType":5126,"count":82,"max":[0,0.2982749938964844,0],"min":[-1,0,-1],"type":"VEC3"},{"bufferView":104,"componentType":5123,"count":114,"max":[81],"min":[0],"type":"SCALAR"},{"bufferView":105,"componentType":5126,"count":3,"max":[1024,-1152,384],"min":[984,-1280,384],"type":"VEC3"},{"bufferView":106,"componentType":5126,"count":3,"max":[0.0784313753247261,0.09019608050584793,0.10980392247438431],"min":[0.05882352963089943,0.05882352963089943,0.07058823853731155],"type":"VEC3"},{"bufferView":107,"componentType":5126,"count":3,"max":[0.5546875,0.5],"min":[0.5,0.4453125],"type":"VEC2"},{"bufferView":108,"componentType":5126,"count":3,"max":[0,0,1],"min":[0,0,1],"type":"VEC3"},{"bufferView":109,"componentType":5123,"count":3,"max":[2],"min":[0],"type":"SCALAR"},{"bufferView":110,"componentType":5126,"count":44,"max":[1056,-576,1152],"min":[1024,-1152,768],"type":"VEC3"},{"bufferView":111,"componentType":5126,"count":44,"max":[0.364705890417099,0.501960813999176,0.5960784554481506],"min":[0.05882352963089943,0.05882352963089943,0.07058823853731155],"type":"VEC3"},{"bufferView":112,"componentType":5126,"count":44,"max":[0.9921875,1],"min":[0.8125,0.6953125],"type":"VEC2"},{"bufferView":113,"componentType":5126,"count":44,"max":[-1,0,0],"min":[-1,0,0],"type":"VEC3"},{"bufferView":114,"componentType":5123,"count":66,"max":[43],"min":[0],"type":"SCALAR"},{"bufferView":115,"componentType":5126,"count":98,"max":[768,-128,224],"min":[256,-640,0],"type":"VEC3"},{"bufferView":116,"componentType":5126,"count":98,"max":[1,0.7450980544090271,0.30588236451148987],"min":[0,0,0],"type":"VEC3"},{"bufferView":117,"componentType":5126,"count":98,"max":[0.9921875,1],"min":[0.75,0.5078125],"type":"VEC2"},{"bufferView":118,"componentType":5126,"count":98,"max":[1,0.9701424837112427,1],"min":[-1,0,0],"type":"VEC3"},{"bufferView":119,"componentType":5123,"count":138,"max":[97],"min":[0],"type":"SCALAR"},{"bufferView":120,"componentType":5126,"count":46,"max":[1024,-128,256],"min":[0,-1152,256],"type":"VEC3"},{"bufferView":121,"componentType":5126,"count":46,"max":[0.2705882489681244,0.2078431397676468,0.12941177189350128],"min":[0.007843137718737125,0.007843137718737125,0.0117647061124444],"type":"VEC3"},{"bufferView":122,"componentType":5126,"count":46,"max":[0.7421875,0.5],"min":[0.5,0.0078125],"type":"VEC2"},{"bufferView":123,"componentType":5126,"count":46,"max":[0,0,1],"min":[0,0,1],"type":"VEC3"},{"bufferView":124,"componentType":5123,"count":66,"max":[45],"min":[0],"type":"SCALAR"},{"bufferView":125,"componentType":5126,"count":68,"max":[1024,-128,256],"min":[0,-1152,0],"type":"VEC3"},{"bufferView":126,"componentType":5126,"count":68,"max":[0.6705882549285889,0.47843137383461,0.3294117748737335],"min":[0,0,0],"type":"VEC3"},{"bufferView":127,"componentType":5126,"count":68,"max":[0.4921875,1],"min":[0,0.5078125],"type":"VEC2"},{"bufferView":128,"componentType":5126,"count":68,"max":[1,0.12403473258018494,1],"min":[-1,0,0],"type":"VEC3"},{"bufferView":129,"componentType":5123,"count":96,"max":[67],"min":[0],"type":"SCALAR"},{"bufferView":130,"componentType":5126,"count":68,"max":[1024,0,256],"min":[0,-1280,0],"type":"VEC3"},{"bufferView":131,"componentType":5126,"count":68,"max":[0.2705882489681244,0.29411765933036804,0.3294117748737335],"min":[0,0,0],"type":"VEC3"},{"bufferView":132,"componentType":5126,"count":68,"max":[0.9921875,0.75],"min":[0.5,0.5078125],"type":"VEC2"},{"bufferView":133,"componentType":5126,"count":68,"max":[1,0,1],"min":[-1,0,0],"type":"VEC3"},{"bufferView":134,"componentType":5123,"count":96,"max":[67],"min":[0],"type":"SCALAR"},{"bufferView":135,"componentType":5126,"count":30,"max":[984,-1280,256],"min":[40,-1664,256],"type":"VEC3"},{"bufferView":136,"componentType":5126,"count":30,"max":[0.13333334028720856,0.15294118225574493,0.1882352977991104],"min":[0.007843137718737125,0.007843137718737125,0.0117647061124444],"type":"VEC3"},{"bufferView":137,"componentType":5126,"count":30,"max":[0.9921875,0.625],"min":[0.625,0.2578125],"type":"VEC2"},{"bufferView":138,"componentType":5126,"count":30,"max":[0,0,1],"min":[0,0,1],"type":"VEC3"},{"bufferView":139,"componentType":5123,"count":42,"max":[29],"min":[0],"type":"SCALAR"},{"bufferView":140,"componentType":5126,"count":16,"max":[640,-384,160],"min":[384,-384,0],"type":"VEC3"},{"bufferView":141,"componentType":5126,"count":16,"max":[0.1411764770746231,0.1411764770746231,0.16862745583057404],"min":[0,0,0],"type":"VEC3"},{"bufferView":142,"componentType":5126,"count":16,"max":[0.2421875,0.5],"min":[0,0.0703125],"type":"VEC2"},{"bufferView":143,"componentType":5126,"count":16,"max":[0,1,0],"min":[0,1,0],"type":"VEC3"},{"bufferView":144,"componentType":5123,"count":24,"max":[15],"min":[0],"type":"SCALAR"},{"bufferView":145,"componentType":5126,"count":8,"max":[768,-128,256],"min":[256,-128,224],"type":"VEC3"},{"bufferView":146,"componentType":5126,"count":8,"max":[0.6705882549285889,0.47843137383461,0.22745098173618317],"min":[0.27843138575553894,0.21960784494876862,0.14509804546833038],"type":"VEC3"},{"bufferView":147,"componentType":5126,"count":8,"max":[0.875,0.125],"min":[0.6171875,0.09375],"type":"VEC2"},{"bufferView":148,"componentType":5126,"count":8,"max":[0,-1,0],"min":[0,-1,0],"type":"VEC3"},{"bufferView":149,"componentType":5123,"count":12,"max":[7],"min":[0],"type":"SCALAR"},{"bufferView":150,"componentType":5126,"count":12,"max":[640,-384,160],"min":[384,-512,160],"type":"VEC3"},{"bufferView":151,"componentType":5126,"count":12,"max":[1,0.7450980544090271,0.30588236451148987],"min":[0.0117647061124444,0.007843137718737125,0.003921568859368563],"type":"VEC3"},{"bufferView":152,"componentType":5126,"count":12,"max":[0.7421875,0.375],"min":[0.5,0.2578125],"type":"VEC2"},{"bufferView":153,"componentType":5126,"count":12,"max":[0,0,1],"min":[0,0,1],"type":"VEC3"},{"bufferView":154,"componentType":5123,"count":18,"max":[11],"min":[0],"type":"SCALAR"},{"bufferView":155,"componentType":5126,"count":91,"max":[0,-128,1152],"min":[-32,-1152,768],"type":"VEC3"},{"bufferView":156,"componentType":5126,"count":91,"max":[0.364705890417099,0.501960813999176,0.5960784554481506],"min":[0.007843137718737125,0.007843137718737125,0.0117647061124444],"type":"VEC3"},{"bufferView":157,"componentType":5126,"count":91,"max":[0.9921875,1],"min":[0.8125,0.5078125],"type":"VEC2"},{"bufferView":158,"componentType":5126,"count":91,"max":[1,0.9701424837112427,0.9701424837112427],"min":[0,0,-0.9701424837112427],"type":"VEC3"},{"bufferView":159,"componentType":5123,"count":135,"max":[90],"min":[0],"type":"SCALAR"},{"bufferView":160,"componentType":5126,"count":132,"max":[0,-128,1664],"min":[-32,-1152,256],"type":"VEC3"},{"bufferView":161,"componentType":5126,"count":132,"max":[0.5607843399047852,0.48235294222831726,0.5803921818733215],"min":[0.007843137718737125,0.007843137718737125,0.007843137718737125],"type":"VEC3"},{"bufferView":162,"componentType":5126,"count":132,"max":[0.4921875,1],"min":[0,0.5078125],"type":"VEC2"},{"bufferView":163,"componentType":5126,"count":132,"max":[1,1,1],"min":[0,-1,-1],"type":"VEC3"},{"bufferView":164,"componentType":5123,"count":192,"max":[131],"min":[0],"type":"SCALAR"},{"bufferView":165,"componentType":5126,"count":25,"max":[0,-128,1280],"min":[0,-1152,640],"type":"VEC3"},{"bufferView":166,"componentType":5126,"count":25,"max":[0.364705890417099,0.501960813999176,0.5882353186607361],"min":[0.0784313753247261,0.0784313753247261,0.07450980693101883],"type":"VEC3"},{"bufferView":167,"componentType":5126,"count":25,"max":[0.6171875,0.5],"min":[0.5,0.0078125],"type":"VEC2"},{"bufferView":168,"componentType":5126,"count":25,"max":[1,0,0],"min":[1,0,0],"type":"VEC3"},{"bufferView":169,"componentType":5123,"count":33,"max":[24],"min":[0],"type":"SCALAR"},{"bufferView":170,"componentType":5126,"count":83,"max":[40,0,1664],"min":[0,-1280,256],"type":"VEC3"},{"bufferView":171,"componentType":5126,"count":83,"max":[0.23137255012989044,0.2862745225429535,0.3294117748737335],"min":[0.007843137718737125,0.007843137718737125,0.007843137718737125],"type":"VEC3"},{"bufferView":172,"componentType":5126,"count":83,"max":[0.9921875,0.75],"min":[0.5,0.5078125],"type":"VEC2"},{"bufferView":173,"componentType":5126,"count":83,"max":[1,0.2982749938964844,0],"min":[0,0,-1],"type":"VEC3"},{"bufferView":174,"componentType":5123,"count":117,"max":[82],"min":[0],"type":"SCALAR"},{"bufferView":175,"componentType":5126,"count":3,"max":[40,-1152,384],"min":[0,-1280,384],"type":"VEC3"},{"bufferView":176,"componentType":5126,"count":3,"max":[0.1411764770746231,0.20000000298023224,0.239215686917305],"min":[0.01568627543747425,0.01568627543747425,0.019607843831181526],"type":"VEC3"},{"bufferView":177,"componentType":5126,"count":3,"max":[0.5546875,0.5],"min":[0.5,0.4453125],"type":"VEC2"},{"bufferView":178,"componentType":5126,"count":3,"max":[0,0,1],"min":[0,0,1],"type":"VEC3"},{"bufferView":179,"componentType":5123,"count":3,"max":[2],"min":[0],"type":"SCALAR"},{"bufferView":180,"componentType":5126,"count":304,"max":[1056,-1280,1664],"min":[-32,-1688,256],"type":"VEC3"},{"bufferView":181,"componentType":5126,"count":304,"max":[0.9450980424880981,1,1],"min":[0.007843137718737125,0.007843137718737125,0.0117647061124444],"type":"VEC3"},{"bufferView":182,"componentType":5126,"count":304,"max":[0.4921875,0.5],"min":[0,0.0078125],"type":"VEC2"},{"bufferView":183,"componentType":5126,"count":304,"max":[0.9701424837112427,0.9626509547233582,1],"min":[-0.9701424837112427,-0.7071067690849304,-1],"type":"VEC3"},{"bufferView":184,"componentType":5123,"count":456,"max":[303],"min":[0],"type":"SCALAR"},{"bufferView":185,"componentType":5126,"count":16,"max":[1056,-1560,1256],"min":[-32,-1688,664],"type":"VEC3"},{"bufferView":186,"componentType":5126,"count":16,"max":[1,1,1],"min":[0.886274516582489,1,1],"type":"VEC3"},{"bufferView":187,"componentType":5126,"count":16,"max":[0.6171875,0.328125],"min":[0.6171875,0.328125],"type":"VEC2"},{"bufferView":188,"componentType":5126,"count":16,"max":[0.7071067690849304,0.7071067690849304,0],"min":[-0.7071067690849304,0.7071067690849304,0],"type":"VEC3"},{"bufferView":189,"componentType":5123,"count":24,"max":[15],"min":[0],"type":"SCALAR"},{"bufferView":190,"componentType":5126,"count":48,"max":[1024,-1280,1536],"min":[0,-1280,384],"type":"VEC3"},{"bufferView":191,"componentType":5126,"count":48,"max":[0.14901961386203766,0.125490203499794,0.09803921729326248],"min":[0.01568627543747425,0.01568627543747425,0.019607843831181526],"type":"VEC3"},{"bufferView":192,"componentType":5126,"count":48,"max":[0.5546875,0.5],"min":[0.5,0.0078125],"type":"VEC2"},{"bufferView":193,"componentType":5126,"count":48,"max":[0,1,0],"min":[0,1,0],"type":"VEC3"},{"bufferView":194,"componentType":5123,"count":72,"max":[47],"min":[0],"type":"SCALAR"},{"bufferView":195,"componentType":5126,"count":16,"max":[992,-1496,1256],"min":[32,-1624,664],"type":"VEC3"},{"bufferView":196,"componentType":5126,"count":16,"max":[0.9176470637321472,1,1],"min":[0.9176470637321472,1,1],"type":"VEC3"},{"bufferView":197,"componentType":5126,"count":16,"max":[0.6171875,0.5],"min":[0.5,0.3828125],"type":"VEC2"},{"bufferView":198,"componentType":5126,"count":16,"max":[0.7071067690849304,0.7071067690849304,0],"min":[-0.7071067690849304,0.7071067690849304,0],"type":"VEC3"},{"bufferView":199,"componentType":5123,"count":24,"max":[15],"min":[0],"type":"SCALAR"},{"bufferView":200,"componentType":5126,"count":103,"max":[1024,0,1664],"min":[0,-512,640],"type":"VEC3"},{"bufferView":201,"componentType":5126,"count":103,"max":[0,0,0],"min":[0,0,0],"type":"VEC3"},{"bufferView":202,"componentType":5126,"count":103,"max":[0.96875,0.03125],"min":[0.96875,0.03125],"type":"VEC2"},{"bufferView":203,"componentType":5126,"count":103,"max":[1,0,0],"min":[-1,0,0],"type":"VEC3"},{"bufferView":204,"componentType":5123,"count":147,"max":[102],"min":[0],"type":"SCALAR"},{"bufferView":205,"componentType":5126,"count":40,"max":[1024,0,1664],"min":[0,-512,1664],"type":"VEC3"},{"bufferView":206,"componentType":5126,"count":40,"max":[0,0,0],"min":[0,0,0],"type":"VEC3"},{"bufferView":207,"componentType":5126,"count":40,"max":[0.96875,0.03125],"min":[0.96875,0.03125],"type":"VEC2"},{"bufferView":208,"componentType":5126,"count":40,"max":[0,0,1],"min":[0,0,1],"type":"VEC3"},{"bufferView":209,"componentType":5123,"count":60,"max":[39],"min":[0],"type":"SCALAR"},{"bufferView":210,"componentType":5126,"count":293,"max":[384,-512,2816],"min":[128,-1024,1920],"type":"VEC3"},{"bufferView":211,"componentType":5126,"count":293,"max":[1,1,1],"min":[0,0,0],"type":"VEC3"},{"bufferView":212,"componentType":5126,"count":293,"max":[0.9921875,0.5],"min":[0.5,0.0078125],"type":"VEC2"},{"bufferView":213,"componentType":5126,"count":293,"max":[1,0,0],"min":[-1,-1,-1],"type":"VEC3"},{"bufferView":214,"componentType":5123,"count":423,"max":[292],"min":[0],"type":"SCALAR"},{"bufferView":215,"componentType":5126,"count":92,"max":[384,-640,2816],"min":[128,-1568,1920],"type":"VEC3"},{"bufferView":216,"componentType":5126,"count":92,"max":[1,1,1],"min":[0,0,0],"type":"VEC3"},{"bufferView":217,"componentType":5126,"count":92,"max":[0.4921875,1],"min":[0,0.5078125],"type":"VEC2"},{"bufferView":218,"componentType":5126,"count":92,"max":[1,0,0],"min":[-1,0,0],"type":"VEC3"},{"bufferView":219,"componentType":5123,"count":132,"max":[91],"min":[0],"type":"SCALAR"},{"bufferView":220,"componentType":5126,"count":14,"max":[384,-512,2048],"min":[128,-640,1920],"type":"VEC3"},{"bufferView":221,"componentType":5126,"count":14,"max":[0.07058823853731155,0.08627451211214066,0.10196078568696976],"min":[0,0,0],"type":"VEC3"},{"bufferView":222,"componentType":5126,"count":14,"max":[0.7421875,0.625],"min":[0.6171875,0.5078125],"type":"VEC2"},{"bufferView":223,"componentType":5126,"count":14,"max":[1,0,0],"min":[-1,0,0],"type":"VEC3"},{"bufferView":224,"componentType":5123,"count":18,"max":[13],"min":[0],"type":"SCALAR"},{"bufferView":225,"componentType":5126,"count":16,"max":[384,-1024,2816],"min":[128,-1568,2432],"type":"VEC3"},{"bufferView":226,"componentType":5126,"count":16,"max":[1,1,1],"min":[0.21568627655506134,0.27843138575553894,0.32156863808631897],"type":"VEC3"},{"bufferView":227,"componentType":5126,"count":16,"max":[0.6171875,0.4296875],"min":[0.5,0.0078125],"type":"VEC2"},{"bufferView":228,"componentType":5126,"count":16,"max":[1,0,0],"min":[-1,0,-1],"type":"VEC3"},{"bufferView":229,"componentType":5123,"count":24,"max":[15],"min":[0],"type":"SCALAR"},{"bufferView":230,"componentType":5126,"count":62,"max":[368,-960,2560],"min":[144,-1536,1920],"type":"VEC3"},{"bufferView":231,"componentType":5126,"count":62,"max":[1,1,1],"min":[0.027450980618596077,0.03529411926865578,0.03921568766236305],"type":"VEC3"},{"bufferView":232,"componentType":5126,"count":62,"max":[0.4921875,0.5],"min":[0,0.0078125],"type":"VEC2"},{"bufferView":233,"componentType":5126,"count":62,"max":[0.7071067690849304,0.9701424837112427,0.6963106393814087],"min":[-0.7071067690849304,0.5773502588272095,0],"type":"VEC3"},{"bufferView":234,"componentType":5123,"count":90,"max":[61],"min":[0],"type":"SCALAR"},{"bufferView":235,"componentType":5126,"count":12,"max":[384,-1408,2816],"min":[128,-1568,2432],"type":"VEC3"},{"bufferView":236,"componentType":5126,"count":12,"max":[1,1,1],"min":[0.48235294222831726,0.6313725709915161,0.7176470756530762],"type":"VEC3"},{"bufferView":237,"componentType":5126,"count":12,"max":[0.6171875,0.5],"min":[0.5,0.3203125],"type":"VEC2"},{"bufferView":238,"componentType":5126,"count":12,"max":[0.9701424837112427,1,0],"min":[-0.9701424837112427,0.24253562092781067,0],"type":"VEC3"},{"bufferView":239,"componentType":5123,"count":18,"max":[11],"min":[0],"type":"SCALAR"},{"bufferView":240,"componentType":5126,"count":24,"max":[384,-896,2432],"min":[128,-1472,1920],"type":"VEC3"},{"bufferView":241,"componentType":5126,"count":24,"max":[0.5686274766921997,0.7372549176216125,0.8352941274642944],"min":[0.07450980693101883,0.08235294371843338,0.09803921729326248],"type":"VEC3"},{"bufferView":242,"componentType":5126,"count":24,"max":[0.9921875,0.75],"min":[0.5,0.7109375],"type":"VEC2"},{"bufferView":243,"componentType":5126,"count":24,"max":[0.9428090453147888,0.2357022613286972,0.2357022613286972],"min":[-0.9428090453147888,0.2357022613286972,0.2357022613286972],"type":"VEC3"},{"bufferView":244,"componentType":5123,"count":36,"max":[23],"min":[0],"type":"SCALAR"},{"bufferView":245,"componentType":5126,"count":460,"max":[1024,0,384],"min":[0,-728,256],"type":"VEC3"},{"bufferView":246,"componentType":5126,"count":460,"max":[0.6784313917160034,0.48235294222831726,0.2705882489681244],"min":[0,0,0],"type":"VEC3"},{"bufferView":247,"componentType":5126,"count":460,"max":[0.6171875,1],"min":[0.5,0.5078125],"type":"VEC2"},{"bufferView":248,"componentType":5126,"count":460,"max":[1,0.6606279015541077,1],"min":[-1,-1,-1],"type":"VEC3"},{"bufferView":249,"componentType":5123,"count":648,"max":[459],"min":[0],"type":"SCALAR"},{"bufferView":250,"componentType":5126,"count":91,"max":[768,0,2816],"min":[0,-2080,1664],"type":"VEC3"},{"bufferView":251,"componentType":5126,"count":91,"max":[0,0,0],"min":[0,0,0],"type":"VEC3"},{"bufferView":252,"componentType":5126,"count":91,"max":[0.96875,0.03125],"min":[0.96875,0.03125],"type":"VEC2"},{"bufferView":253,"componentType":5126,"count":91,"max":[0.27074557542800903,0,0],"min":[-1,-0.9626509547233582,-0.4623546600341797],"type":"VEC3"},{"bufferView":254,"componentType":5123,"count":135,"max":[90],"min":[0],"type":"SCALAR"},{"bufferView":255,"componentType":5126,"count":86,"max":[1216,0,1664],"min":[984,-1280,256],"type":"VEC3"},{"bufferView":256,"componentType":5126,"count":86,"max":[0,0,0],"min":[0,0,0],"type":"VEC3"},{"bufferView":257,"componentType":5126,"count":86,"max":[0.96875,0.03125],"min":[0.96875,0.03125],"type":"VEC2"},{"bufferView":258,"componentType":5126,"count":86,"max":[0,0,1],"min":[0,-1,-1],"type":"VEC3"},{"bufferView":259,"componentType":5123,"count":126,"max":[85],"min":[0],"type":"SCALAR"},{"bufferView":260,"componentType":5126,"count":56,"max":[896,0,256],"min":[128,-1152,-128],"type":"VEC3"},{"bufferView":261,"componentType":5126,"count":56,"max":[0,0,0],"min":[0,0,0],"type":"VEC3"},{"bufferView":262,"componentType":5126,"count":56,"max":[0.96875,0.03125],"min":[0.96875,0.03125],"type":"VEC2"},{"bufferView":263,"componentType":5126,"count":56,"max":[1,0,0],"min":[-1,-1,0],"type":"VEC3"},{"bufferView":264,"componentType":5123,"count":84,"max":[55],"min":[0],"type":"SCALAR"},{"bufferView":265,"componentType":5126,"count":94,"max":[40,0,1664],"min":[-192,-1280,256],"type":"VEC3"},{"bufferView":266,"componentType":5126,"count":94,"max":[0,0,0],"min":[0,0,0],"type":"VEC3"},{"bufferView":267,"componentType":5126,"count":94,"max":[0.96875,0.03125],"min":[0.96875,0.03125],"type":"VEC2"},{"bufferView":268,"componentType":5126,"count":94,"max":[0,0,1],"min":[0,-1,-1],"type":"VEC3"},{"bufferView":269,"componentType":5123,"count":138,"max":[93],"min":[0],"type":"SCALAR"},{"bufferView":270,"componentType":5126,"count":24,"max":[1024,-640,1664],"min":[512,-1152,1664],"type":"VEC3"},{"bufferView":271,"componentType":5126,"count":24,"max":[0.23137255012989044,0.29019609093666077,0.3294117748737335],"min":[0.007843137718737125,0.007843137718737125,0.0117647061124444],"type":"VEC3"},{"bufferView":272,"componentType":5126,"count":24,"max":[0.4921875,1],"min":[0,0.5078125],"type":"VEC2"},{"bufferView":273,"componentType":5126,"count":24,"max":[0,0,-1],"min":[0,0,-1],"type":"VEC3"},{"bufferView":274,"componentType":5123,"count":36,"max":[23],"min":[0],"type":"SCALAR"},{"bufferView":275,"componentType":5126,"count":16,"max":[1024,-384,1152],"min":[1024,-896,768],"type":"VEC3"},{"bufferView":276,"componentType":5126,"count":16,"max":[0.3294117748737335,0.4470588266849518,0.5254902243614197],"min":[0.08627451211214066,0.10588235408067703,0.10980392247438431],"type":"VEC3"},{"bufferView":277,"componentType":5126,"count":16,"max":[0.8671875,0.75],"min":[0.8125,0.5078125],"type":"VEC2"},{"bufferView":278,"componentType":5126,"count":16,"max":[-1,0,0],"min":[-1,0,0],"type":"VEC3"},{"bufferView":279,"componentType":5123,"count":24,"max":[15],"min":[0],"type":"SCALAR"},{"bufferView":280,"componentType":5126,"count":44,"max":[1024,-384,1664],"min":[1024,-1152,256],"type":"VEC3"},{"bufferView":281,"componentType":5126,"count":44,"max":[0.48235294222831726,0.4745098054409027,0.572549045085907],"min":[0.007843137718737125,0.007843137718737125,0.0117647061124444],"type":"VEC3"},{"bufferView":282,"componentType":5126,"count":44,"max":[0.4921875,1],"min":[0,0.5078125],"type":"VEC2"},{"bufferView":283,"componentType":5126,"count":44,"max":[-1,0,0],"min":[-1,0,0],"type":"VEC3"},{"bufferView":284,"componentType":5123,"count":66,"max":[43],"min":[0],"type":"SCALAR"},{"bufferView":285,"componentType":5126,"count":16,"max":[1024,-384,1280],"min":[1024,-896,640],"type":"VEC3"},{"bufferView":286,"componentType":5126,"count":16,"max":[0.3490196168422699,0.4470588266849518,0.501960813999176],"min":[0.0313725508749485,0.03921568766236305,0.03921568766236305],"type":"VEC3"},{"bufferView":287,"componentType":5126,"count":16,"max":[0.6171875,0.5],"min":[0.5,0.0078125],"type":"VEC2"},{"bufferView":288,"componentType":5126,"count":16,"max":[-1,0,0],"min":[-1,0,0],"type":"VEC3"},{"bufferView":289,"componentType":5123,"count":24,"max":[15],"min":[0],"type":"SCALAR"},{"bufferView":290,"componentType":5126,"count":8,"max":[896,-384,256],"min":[128,-640,256],"type":"VEC3"},{"bufferView":291,"componentType":5126,"count":8,"max":[0.2705882489681244,0.2078431397676468,0.125490203499794],"min":[0.13333334028720856,0.10980392247438431,0.09019608050584793],"type":"VEC3"},{"bufferView":292,"componentType":5126,"count":8,"max":[0.6171875,0.5],"min":[0.5,0.2578125],"type":"VEC2"},{"bufferView":293,"componentType":5126,"count":8,"max":[0,0,1],"min":[0,0,1],"type":"VEC3"},{"bufferView":294,"componentType":5123,"count":12,"max":[7],"min":[0],"type":"SCALAR"},{"bufferView":295,"componentType":5126,"count":16,"max":[1024,-384,256],"min":[0,-640,224],"type":"VEC3"},{"bufferView":296,"componentType":5126,"count":16,"max":[0.6705882549285889,0.47843137383461,0.22745098173618317],"min":[0.05882352963089943,0.05882352963089943,0.07058823853731155],"type":"VEC3"},{"bufferView":297,"componentType":5126,"count":16,"max":[0.4921875,1],"min":[0,0.7578125],"type":"VEC2"},{"bufferView":298,"componentType":5126,"count":16,"max":[1,0,1],"min":[-1,0,0],"type":"VEC3"},{"bufferView":299,"componentType":5123,"count":24,"max":[15],"min":[0],"type":"SCALAR"},{"bufferView":300,"componentType":5126,"count":8,"max":[768,-384,224],"min":[256,-640,224],"type":"VEC3"},{"bufferView":301,"componentType":5126,"count":8,"max":[0.5764706134796143,0.40392157435417175,0.1882352977991104],"min":[0.1882352977991104,0.1411764770746231,0.08235294371843338],"type":"VEC3"},{"bufferView":302,"componentType":5126,"count":8,"max":[0.875,1],"min":[0.75,0.7578125],"type":"VEC2"},{"bufferView":303,"componentType":5126,"count":8,"max":[0,0,1],"min":[0,0,1],"type":"VEC3"},{"bufferView":304,"componentType":5123,"count":12,"max":[7],"min":[0],"type":"SCALAR"},{"bufferView":305,"componentType":5126,"count":32,"max":[0,-384,1664],"min":[0,-1152,256],"type":"VEC3"},{"bufferView":306,"componentType":5126,"count":32,"max":[0.5607843399047852,0.42352941632270813,0.4000000059604645],"min":[0.03529411926865578,0.03921568766236305,0.03921568766236305],"type":"VEC3"},{"bufferView":307,"componentType":5126,"count":32,"max":[0.3671875,1],"min":[0,0.5078125],"type":"VEC2"},{"bufferView":308,"componentType":5126,"count":32,"max":[1,0,0],"min":[1,0,0],"type":"VEC3"},{"bufferView":309,"componentType":5123,"count":48,"max":[31],"min":[0],"type":"SCALAR"},{"bufferView":310,"componentType":5126,"count":12,"max":[0,-384,1280],"min":[0,-1152,640],"type":"VEC3"},{"bufferView":311,"componentType":5126,"count":12,"max":[0.3529411852359772,0.42352941632270813,0.4901960790157318],"min":[0.10980392247438431,0.14509804546833038,0.1411764770746231],"type":"VEC3"},{"bufferView":312,"componentType":5126,"count":12,"max":[0.6171875,0.5],"min":[0.5,0.0078125],"type":"VEC2"},{"bufferView":313,"componentType":5126,"count":12,"max":[1,0,0],"min":[1,0,0],"type":"VEC3"},{"bufferView":314,"componentType":5123,"count":18,"max":[11],"min":[0],"type":"SCALAR"},{"bufferView":315,"componentType":5126,"count":8,"max":[0,-384,1152],"min":[0,-896,768],"type":"VEC3"},{"bufferView":316,"componentType":5126,"count":8,"max":[0.30980393290519714,0.43529412150382996,0.5215686559677124],"min":[0.12156862765550613,0.12941177189350128,0.125490203499794],"type":"VEC3"},{"bufferView":317,"componentType":5126,"count":8,"max":[0.8671875,0.75],"min":[0.8125,0.5078125],"type":"VEC2"},{"bufferView":318,"componentType":5126,"count":8,"max":[1,0,0],"min":[1,0,0],"type":"VEC3"},{"bufferView":319,"componentType":5123,"count":12,"max":[7],"min":[0],"type":"SCALAR"},{"bufferView":320,"componentType":5126,"count":59,"max":[768,-512,2816],"min":[768,-2008,1664],"type":"VEC3"},{"bufferView":321,"componentType":5126,"count":59,"max":[0,0,0],"min":[0,0,0],"type":"VEC3"},{"bufferView":322,"componentType":5126,"count":59,"max":[0.96875,0.03125],"min":[0.96875,0.03125],"type":"VEC2"},{"bufferView":323,"componentType":5126,"count":59,"max":[1,0,0],"min":[1,0,0],"type":"VEC3"},{"bufferView":324,"componentType":5123,"count":87,"max":[58],"min":[0],"type":"SCALAR"}],"materials":[{"pbrMetallicRoughness":{"metallicFactor":0,"roughnessFactor":0.9,"baseColorTexture":{"index":0}},"extensions":{"KHR_materials_unlit":{}},"alphaMode":"BLEND","doubleSided":false},{"pbrMetallicRoughness":{"metallicFactor":0,"roughnessFactor":0.9,"baseColorTexture":{"index":1}},"extensions":{"KHR_materials_unlit":{}},"alphaMode":"BLEND","doubleSided":false},{"pbrMetallicRoughness":{"metallicFactor":0,"roughnessFactor":0.9,"baseColorTexture":{"index":2}},"extensions":{"KHR_materials_unlit":{}},"alphaMode":"BLEND","doubleSided":false},{"pbrMetallicRoughness":{"metallicFactor":0,"roughnessFactor":0.9,"baseColorTexture":{"index":3}},"extensions":{"KHR_materials_unlit":{}},"alphaMode":"BLEND","doubleSided":false},{"pbrMetallicRoughness":{"metallicFactor":0,"roughnessFactor":0.9,"baseColorTexture":{"index":4}},"extensions":{"KHR_materials_unlit":{}},"alphaMode":"BLEND","doubleSided":false},{"pbrMetallicRoughness":{"metallicFactor":0,"roughnessFactor":0.9,"baseColorTexture":{"index":5}},"extensions":{"KHR_materials_unlit":{}},"alphaMode":"BLEND","doubleSided":false},{"pbrMetallicRoughness":{"metallicFactor":0,"roughnessFactor":0.9,"baseColorTexture":{"index":6}},"extensions":{"KHR_materials_unlit":{}},"alphaMode":"BLEND","doubleSided":false},{"pbrMetallicRoughness":{"metallicFactor":0,"roughnessFactor":0.9,"baseColorTexture":{"index":7}},"extensions":{"KHR_materials_unlit":{}},"alphaMode":"BLEND","doubleSided":false},{"pbrMetallicRoughness":{"metallicFactor":0,"roughnessFactor":0.9,"baseColorTexture":{"index":8}},"extensions":{"KHR_materials_unlit":{}},"alphaMode":"BLEND","doubleSided":false},{"pbrMetallicRoughness":{"metallicFactor":0,"roughnessFactor":0.9,"baseColorTexture":{"index":9}},"extensions":{"KHR_materials_unlit":{}},"alphaMode":"BLEND","doubleSided":false},{"pbrMetallicRoughness":{"metallicFactor":0,"roughnessFactor":0.9,"baseColorTexture":{"index":10}},"extensions":{"KHR_materials_unlit":{}},"alphaMode":"BLEND","doubleSided":false},{"pbrMetallicRoughness":{"metallicFactor":0,"roughnessFactor":0.9,"baseColorTexture":{"index":11}},"extensions":{"KHR_materials_unlit":{}},"alphaMode":"BLEND","doubleSided":false},{"pbrMetallicRoughness":{"metallicFactor":0,"roughnessFactor":0.9,"baseColorTexture":{"index":12}},"extensions":{"KHR_materials_unlit":{}},"alphaMode":"BLEND","doubleSided":false},{"pbrMetallicRoughness":{"metallicFactor":0,"roughnessFactor":0.9,"baseColorTexture":{"index":13}},"extensions":{"KHR_materials_unlit":{}},"alphaMode":"BLEND","doubleSided":false},{"pbrMetallicRoughness":{"metallicFactor":0,"roughnessFactor":0.9,"baseColorTexture":{"index":14}},"extensions":{"KHR_materials_unlit":{}},"alphaMode":"BLEND","doubleSided":false},{"pbrMetallicRoughness":{"metallicFactor":0,"roughnessFactor":0.9,"baseColorTexture":{"index":15}},"extensions":{"KHR_materials_unlit":{}},"alphaMode":"BLEND","doubleSided":false},{"pbrMetallicRoughness":{"metallicFactor":0,"roughnessFactor":0.9,"baseColorTexture":{"index":16}},"extensions":{"KHR_materials_unlit":{}},"alphaMode":"BLEND","doubleSided":false},{"pbrMetallicRoughness":{"metallicFactor":0,"roughnessFactor":0.9,"baseColorTexture":{"index":17}},"extensions":{"KHR_materials_unlit":{}},"alphaMode":"BLEND","doubleSided":false},{"pbrMetallicRoughness":{"metallicFactor":0,"roughnessFactor":0.9,"baseColorTexture":{"index":18}},"extensions":{"KHR_materials_unlit":{}},"alphaMode":"BLEND","doubleSided":false},{"pbrMetallicRoughness":{"metallicFactor":0,"roughnessFactor":0.9,"baseColorTexture":{"index":19}},"extensions":{"KHR_materials_unlit":{}},"alphaMode":"BLEND","doubleSided":false},{"pbrMetallicRoughness":{"metallicFactor":0,"roughnessFactor":0.9,"baseColorTexture":{"index":20}},"extensions":{"KHR_materials_unlit":{}},"alphaMode":"BLEND","doubleSided":false},{"pbrMetallicRoughness":{"metallicFactor":0,"roughnessFactor":0.9,"baseColorTexture":{"index":21}},"extensions":{"KHR_materials_unlit":{}},"alphaMode":"BLEND","doubleSided":false},{"pbrMetallicRoughness":{"metallicFactor":0,"roughnessFactor":0.9,"baseColorTexture":{"index":22}},"extensions":{"KHR_materials_unlit":{}},"alphaMode":"BLEND","doubleSided":false},{"pbrMetallicRoughness":{"metallicFactor":0,"roughnessFactor":0.9,"baseColorTexture":{"index":23}},"extensions":{"KHR_materials_unlit":{}},"alphaMode":"BLEND","doubleSided":false},{"pbrMetallicRoughness":{"metallicFactor":0,"roughnessFactor":0.9,"baseColorTexture":{"index":24}},"extensions":{"KHR_materials_unlit":{}},"alphaMode":"BLEND","doubleSided":false},{"pbrMetallicRoughness":{"metallicFactor":0,"roughnessFactor":0.9,"baseColorTexture":{"index":25}},"extensions":{"KHR_materials_unlit":{}},"alphaMode":"BLEND","doubleSided":false},{"pbrMetallicRoughness":{"metallicFactor":0,"roughnessFactor":0.9,"baseColorTexture":{"index":26}},"extensions":{"KHR_materials_unlit":{}},"alphaMode":"BLEND","doubleSided":false},{"pbrMetallicRoughness":{"metallicFactor":0,"roughnessFactor":0.9,"baseColorTexture":{"index":27}},"extensions":{"KHR_materials_unlit":{}},"alphaMode":"BLEND","doubleSided":false},{"pbrMetallicRoughness":{"metallicFactor":0,"roughnessFactor":0.9,"baseColorTexture":{"index":28}},"extensions":{"KHR_materials_unlit":{}},"alphaMode":"BLEND","doubleSided":false},{"pbrMetallicRoughness":{"metallicFactor":0,"roughnessFactor":0.9,"baseColorTexture":{"index":29}},"extensions":{"KHR_materials_unlit":{}},"alphaMode":"BLEND","doubleSided":false},{"pbrMetallicRoughness":{"metallicFactor":0,"roughnessFactor":0.9,"baseColorTexture":{"index":30}},"extensions":{"KHR_materials_unlit":{}},"alphaMode":"BLEND","doubleSided":false},{"pbrMetallicRoughness":{"metallicFactor":0,"roughnessFactor":0.9,"baseColorTexture":{"index":31}},"extensions":{"KHR_materials_unlit":{}},"alphaMode":"BLEND","doubleSided":false},{"pbrMetallicRoughness":{"metallicFactor":0,"roughnessFactor":0.9,"baseColorTexture":{"index":32}},"extensions":{"KHR_materials_unlit":{}},"alphaMode":"BLEND","doubleSided":false},{"pbrMetallicRoughness":{"metallicFactor":0,"roughnessFactor":0.9,"baseColorTexture":{"index":33}},"extensions":{"KHR_materials_unlit":{}},"alphaMode":"BLEND","doubleSided":false},{"pbrMetallicRoughness":{"metallicFactor":0,"roughnessFactor":0.9,"baseColorTexture":{"index":34}},"extensions":{"KHR_materials_unlit":{}},"alphaMode":"BLEND","doubleSided":false},{"pbrMetallicRoughness":{"metallicFactor":0,"roughnessFactor":0.9,"baseColorTexture":{"index":35}},"extensions":{"KHR_materials_unlit":{}},"alphaMode":"BLEND","doubleSided":false},{"pbrMetallicRoughness":{"metallicFactor":0,"roughnessFactor":0.9,"baseColorTexture":{"index":36}},"extensions":{"KHR_materials_unlit":{}},"alphaMode":"BLEND","doubleSided":false},{"pbrMetallicRoughness":{"metallicFactor":0,"roughnessFactor":0.9,"baseColorTexture":{"index":37}},"extensions":{"KHR_materials_unlit":{}},"alphaMode":"BLEND","doubleSided":false},{"pbrMetallicRoughness":{"metallicFactor":0,"roughnessFactor":0.9,"baseColorTexture":{"index":38}},"extensions":{"KHR_materials_unlit":{}},"alphaMode":"BLEND","doubleSided":false},{"pbrMetallicRoughness":{"metallicFactor":0,"roughnessFactor":0.9,"baseColorTexture":{"index":39}},"extensions":{"KHR_materials_unlit":{}},"alphaMode":"BLEND","doubleSided":false},{"pbrMetallicRoughness":{"metallicFactor":0,"roughnessFactor":0.9,"baseColorTexture":{"index":40}},"extensions":{"KHR_materials_unlit":{}},"alphaMode":"BLEND","doubleSided":false},{"pbrMetallicRoughness":{"metallicFactor":0,"roughnessFactor":0.9,"baseColorTexture":{"index":41}},"extensions":{"KHR_materials_unlit":{}},"alphaMode":"BLEND","doubleSided":false},{"pbrMetallicRoughness":{"metallicFactor":0,"roughnessFactor":0.9,"baseColorTexture":{"index":42}},"extensions":{"KHR_materials_unlit":{}},"alphaMode":"BLEND","doubleSided":false},{"pbrMetallicRoughness":{"metallicFactor":0,"roughnessFactor":0.9,"baseColorTexture":{"index":43}},"extensions":{"KHR_materials_unlit":{}},"alphaMode":"BLEND","doubleSided":false},{"pbrMetallicRoughness":{"metallicFactor":0,"roughnessFactor":0.9,"baseColorTexture":{"index":44}},"extensions":{"KHR_materials_unlit":{}},"alphaMode":"BLEND","doubleSided":false},{"pbrMetallicRoughness":{"metallicFactor":0,"roughnessFactor":0.9,"baseColorTexture":{"index":45}},"extensions":{"KHR_materials_unlit":{}},"alphaMode":"BLEND","doubleSided":false},{"pbrMetallicRoughness":{"metallicFactor":0,"roughnessFactor":0.9,"baseColorTexture":{"index":46}},"extensions":{"KHR_materials_unlit":{}},"alphaMode":"BLEND","doubleSided":false},{"pbrMetallicRoughness":{"metallicFactor":0,"roughnessFactor":0.9,"baseColorTexture":{"index":47}},"extensions":{"KHR_materials_unlit":{}},"alphaMode":"BLEND","doubleSided":false},{"pbrMetallicRoughness":{"metallicFactor":0,"roughnessFactor":0.9,"baseColorTexture":{"index":48}},"extensions":{"KHR_materials_unlit":{}},"alphaMode":"BLEND","doubleSided":false},{"pbrMetallicRoughness":{"metallicFactor":0,"roughnessFactor":0.9,"baseColorTexture":{"index":49}},"extensions":{"KHR_materials_unlit":{}},"alphaMode":"BLEND","doubleSided":false},{"pbrMetallicRoughness":{"metallicFactor":0,"roughnessFactor":0.9,"baseColorTexture":{"index":50}},"extensions":{"KHR_materials_unlit":{}},"alphaMode":"BLEND","doubleSided":false},{"pbrMetallicRoughness":{"metallicFactor":0,"roughnessFactor":0.9,"baseColorTexture":{"index":51}},"extensions":{"KHR_materials_unlit":{}},"alphaMode":"BLEND","doubleSided":false},{"pbrMetallicRoughness":{"metallicFactor":0,"roughnessFactor":0.9,"baseColorTexture":{"index":52}},"extensions":{"KHR_materials_unlit":{}},"alphaMode":"BLEND","doubleSided":false},{"pbrMetallicRoughness":{"metallicFactor":0,"roughnessFactor":0.9,"baseColorTexture":{"index":53}},"extensions":{"KHR_materials_unlit":{}},"alphaMode":"BLEND","doubleSided":false},{"pbrMetallicRoughness":{"metallicFactor":0,"roughnessFactor":0.9,"baseColorTexture":{"index":54}},"extensions":{"KHR_materials_unlit":{}},"alphaMode":"BLEND","doubleSided":false},{"pbrMetallicRoughness":{"metallicFactor":0,"roughnessFactor":0.9,"baseColorTexture":{"index":55}},"extensions":{"KHR_materials_unlit":{}},"alphaMode":"BLEND","doubleSided":false},{"pbrMetallicRoughness":{"metallicFactor":0,"roughnessFactor":0.9,"baseColorTexture":{"index":56}},"extensions":{"KHR_materials_unlit":{}},"alphaMode":"BLEND","doubleSided":false},{"pbrMetallicRoughness":{"metallicFactor":0,"roughnessFactor":0.9,"baseColorTexture":{"index":57}},"extensions":{"KHR_materials_unlit":{}},"alphaMode":"BLEND","doubleSided":false},{"pbrMetallicRoughness":{"metallicFactor":0,"roughnessFactor":0.9,"baseColorTexture":{"index":58}},"extensions":{"KHR_materials_unlit":{}},"alphaMode":"BLEND","doubleSided":false},{"pbrMetallicRoughness":{"metallicFactor":0,"roughnessFactor":0.9,"baseColorTexture":{"index":59}},"extensions":{"KHR_materials_unlit":{}},"alphaMode":"BLEND","doubleSided":false},{"pbrMetallicRoughness":{"metallicFactor":0,"roughnessFactor":0.9,"baseColorTexture":{"index":60}},"extensions":{"KHR_materials_unlit":{}},"alphaMode":"BLEND","doubleSided":false},{"pbrMetallicRoughness":{"metallicFactor":0,"roughnessFactor":0.9,"baseColorTexture":{"index":61}},"extensions":{"KHR_materials_unlit":{}},"alphaMode":"BLEND","doubleSided":false},{"pbrMetallicRoughness":{"metallicFactor":0,"roughnessFactor":0.9,"baseColorTexture":{"index":62}},"extensions":{"KHR_materials_unlit":{}},"alphaMode":"BLEND","doubleSided":false},{"pbrMetallicRoughness":{"metallicFactor":0,"roughnessFactor":0.9,"baseColorTexture":{"index":63}},"extensions":{"KHR_materials_unlit":{}},"alphaMode":"BLEND","doubleSided":false},{"pbrMetallicRoughness":{"metallicFactor":0,"roughnessFactor":0.9,"baseColorTexture":{"index":64}},"extensions":{"KHR_materials_unlit":{}},"alphaMode":"BLEND","doubleSided":false}],"textures":[{"sampler":0,"source":0},{"sampler":1,"source":0},{"sampler":2,"source":0},{"sampler":3,"source":0},{"sampler":4,"source":1},{"sampler":5,"source":1},{"sampler":6,"source":2},{"sampler":7,"source":2},{"sampler":8,"source":3},{"sampler":9,"source":4},{"sampler":10,"source":5},{"sampler":11,"source":6},{"sampler":12,"source":7},{"sampler":13,"source":8},{"sampler":14,"source":9},{"sampler":15,"source":4},{"sampler":16,"source":5},{"sampler":17,"source":10},{"sampler":18,"source":11},{"sampler":19,"source":8},{"sampler":20,"source":7},{"sampler":21,"source":4},{"sampler":22,"source":6},{"sampler":23,"source":6},{"sampler":24,"source":11},{"sampler":25,"source":8},{"sampler":26,"source":7},{"sampler":27,"source":9},{"sampler":28,"source":5},{"sampler":29,"source":4},{"sampler":30,"source":12},{"sampler":31,"source":6},{"sampler":32,"source":8},{"sampler":33,"source":11},{"sampler":34,"source":7},{"sampler":35,"source":4},{"sampler":36,"source":5},{"sampler":37,"source":12},{"sampler":38,"source":4},{"sampler":39,"source":13},{"sampler":40,"source":14},{"sampler":41,"source":14},{"sampler":42,"source":4},{"sampler":43,"source":8},{"sampler":44,"source":7},{"sampler":45,"source":11},{"sampler":46,"source":5},{"sampler":47,"source":11},{"sampler":48,"source":7},{"sampler":49,"source":15},{"sampler":50,"source":14},{"sampler":51,"source":14},{"sampler":52,"source":14},{"sampler":53,"source":14},{"sampler":54,"source":8},{"sampler":55,"source":6},{"sampler":56,"source":8},{"sampler":57,"source":11},{"sampler":58,"source":11},{"sampler":59,"source":8},{"sampler":60,"source":6},{"sampler":61,"source":8},{"sampler":62,"source":11},{"sampler":63,"source":6},{"sampler":64,"source":14}],"samplers":[{"magFilter":9728,"minFilter":9728,"wrapS":10497,"wrapT":10497},{"magFilter":9728,"minFilter":9728,"wrapS":10497,"wrapT":10497},{"magFilter":9728,"minFilter":9728,"wrapS":10497,"wrapT":10497},{"magFilter":9728,"minFilter":9728,"wrapS":10497,"wrapT":10497},{"magFilter":9728,"minFilter":9728,"wrapS":10497,"wrapT":10497},{"magFilter":9728,"minFilter":9728,"wrapS":10497,"wrapT":10497},{"magFilter":9728,"minFilter":9728,"wrapS":10497,"wrapT":10497},{"magFilter":9728,"minFilter":9728,"wrapS":10497,"wrapT":10497},{"magFilter":9728,"minFilter":9728,"wrapS":10497,"wrapT":10497},{"magFilter":9728,"minFilter":9728,"wrapS":10497,"wrapT":10497},{"magFilter":9728,"minFilter":9728,"wrapS":10497,"wrapT":10497},{"magFilter":9728,"minFilter":9728,"wrapS":10497,"wrapT":10497},{"magFilter":9728,"minFilter":9728,"wrapS":10497,"wrapT":10497},{"magFilter":9728,"minFilter":9728,"wrapS":10497,"wrapT":10497},{"magFilter":9728,"minFilter":9728,"wrapS":10497,"wrapT":10497},{"magFilter":9728,"minFilter":9728,"wrapS":10497,"wrapT":10497},{"magFilter":9728,"minFilter":9728,"wrapS":10497,"wrapT":10497},{"magFilter":9728,"minFilter":9728,"wrapS":10497,"wrapT":10497},{"magFilter":9728,"minFilter":9728,"wrapS":10497,"wrapT":10497},{"magFilter":9728,"minFilter":9728,"wrapS":10497,"wrapT":10497},{"magFilter":9728,"minFilter":9728,"wrapS":10497,"wrapT":10497},{"magFilter":9728,"minFilter":9728,"wrapS":10497,"wrapT":10497},{"magFilter":9728,"minFilter":9728,"wrapS":10497,"wrapT":10497},{"magFilter":9728,"minFilter":9728,"wrapS":10497,"wrapT":10497},{"magFilter":9728,"minFilter":9728,"wrapS":10497,"wrapT":10497},{"magFilter":9728,"minFilter":9728,"wrapS":10497,"wrapT":10497},{"magFilter":9728,"minFilter":9728,"wrapS":10497,"wrapT":10497},{"magFilter":9728,"minFilter":9728,"wrapS":10497,"wrapT":10497},{"magFilter":9728,"minFilter":9728,"wrapS":10497,"wrapT":10497},{"magFilter":9728,"minFilter":9728,"wrapS":10497,"wrapT":10497},{"magFilter":9728,"minFilter":9728,"wrapS":10497,"wrapT":10497},{"magFilter":9728,"minFilter":9728,"wrapS":10497,"wrapT":10497},{"magFilter":9728,"minFilter":9728,"wrapS":10497,"wrapT":10497},{"magFilter":9728,"minFilter":9728,"wrapS":10497,"wrapT":10497},{"magFilter":9728,"minFilter":9728,"wrapS":10497,"wrapT":10497},{"magFilter":9728,"minFilter":9728,"wrapS":10497,"wrapT":10497},{"magFilter":9728,"minFilter":9728,"wrapS":10497,"wrapT":10497},{"magFilter":9728,"minFilter":9728,"wrapS":10497,"wrapT":10497},{"magFilter":9728,"minFilter":9728,"wrapS":10497,"wrapT":10497},{"magFilter":9728,"minFilter":9728,"wrapS":10497,"wrapT":10497},{"magFilter":9728,"minFilter":9728,"wrapS":10497,"wrapT":10497},{"magFilter":9728,"minFilter":9728,"wrapS":10497,"wrapT":10497},{"magFilter":9728,"minFilter":9728,"wrapS":10497,"wrapT":10497},{"magFilter":9728,"minFilter":9728,"wrapS":10497,"wrapT":10497},{"magFilter":9728,"minFilter":9728,"wrapS":10497,"wrapT":10497},{"magFilter":9728,"minFilter":9728,"wrapS":10497,"wrapT":10497},{"magFilter":9728,"minFilter":9728,"wrapS":10497,"wrapT":10497},{"magFilter":9728,"minFilter":9728,"wrapS":10497,"wrapT":10497},{"magFilter":9728,"minFilter":9728,"wrapS":10497,"wrapT":10497},{"magFilter":9728,"minFilter":9728,"wrapS":10497,"wrapT":10497},{"magFilter":9728,"minFilter":9728,"wrapS":10497,"wrapT":10497},{"magFilter":9728,"minFilter":9728,"wrapS":10497,"wrapT":10497},{"magFilter":9728,"minFilter":9728,"wrapS":10497,"wrapT":10497},{"magFilter":9728,"minFilter":9728,"wrapS":10497,"wrapT":10497},{"magFilter":9728,"minFilter":9728,"wrapS":10497,"wrapT":10497},{"magFilter":9728,"minFilter":9728,"wrapS":10497,"wrapT":10497},{"magFilter":9728,"minFilter":9728,"wrapS":10497,"wrapT":10497},{"magFilter":9728,"minFilter":9728,"wrapS":10497,"wrapT":10497},{"magFilter":9728,"minFilter":9728,"wrapS":10497,"wrapT":10497},{"magFilter":9728,"minFilter":9728,"wrapS":10497,"wrapT":10497},{"magFilter":9728,"minFilter":9728,"wrapS":10497,"wrapT":10497},{"magFilter":9728,"minFilter":9728,"wrapS":10497,"wrapT":10497},{"magFilter":9728,"minFilter":9728,"wrapS":10497,"wrapT":10497},{"magFilter":9728,"minFilter":9728,"wrapS":10497,"wrapT":10497},{"magFilter":9728,"minFilter":9728,"wrapS":10497,"wrapT":10497}],"images":[{"mimeType":"image/png","uri":"MAP057_0.png"},{"mimeType":"image/png","uri":"MAP057_1.png"},{"mimeType":"image/png","uri":"MAP057_2.png"},{"mimeType":"image/png","uri":"MAP057_3.png"},{"mimeType":"image/png","uri":"MAP057_4.png"},{"mimeType":"image/png","uri":"MAP057_5.png"},{"mimeType":"image/png","uri":"MAP057_6.png"},{"mimeType":"image/png","uri":"MAP057_7.png"},{"mimeType":"image/png","uri":"MAP057_8.png"},{"mimeType":"image/png","uri":"MAP057_9.png"},{"mimeType":"image/png","uri":"MAP057_10.png"},{"mimeType":"image/png","uri":"MAP057_11.png"},{"mimeType":"image/png","uri":"MAP057_12.png"},{"mimeType":"image/png","uri":"MAP057_13.png"},{"mimeType":"image/png","uri":"MAP057_14.png"},{"mimeType":"image/png","uri":"MAP057_15.png"}],"meshes":[{"primitives":[{"mode":4,"attributes":{"POSITION":0,"COLOR_0":1,"TEXCOORD_0":2,"NORMAL":3},"indices":4,"material":0}]},{"primitives":[{"mode":4,"attributes":{"POSITION":5,"COLOR_0":6,"TEXCOORD_0":7,"NORMAL":8},"indices":9,"material":1}]},{"primitives":[{"mode":4,"attributes":{"POSITION":10,"COLOR_0":11,"TEXCOORD_0":12,"NORMAL":13},"indices":14,"material":2}]},{"primitives":[{"mode":4,"attributes":{"POSITION":15,"COLOR_0":16,"TEXCOORD_0":17,"NORMAL":18},"indices":19,"material":3}]},{"primitives":[{"mode":4,"attributes":{"POSITION":20,"COLOR_0":21,"TEXCOORD_0":22,"NORMAL":23},"indices":24,"material":4}]},{"primitives":[{"mode":4,"attributes":{"POSITION":25,"COLOR_0":26,"TEXCOORD_0":27,"NORMAL":28},"indices":29,"material":5}]},{"primitives":[{"mode":4,"attributes":{"POSITION":30,"COLOR_0":31,"TEXCOORD_0":32,"NORMAL":33},"indices":34,"material":6}]},{"primitives":[{"mode":4,"attributes":{"POSITION":35,"COLOR_0":36,"TEXCOORD_0":37,"NORMAL":38},"indices":39,"material":7}]},{"primitives":[{"mode":4,"attributes":{"POSITION":40,"COLOR_0":41,"TEXCOORD_0":42,"NORMAL":43},"indices":44,"material":8}]},{"primitives":[{"mode":4,"attributes":{"POSITION":45,"COLOR_0":46,"TEXCOORD_0":47,"NORMAL":48},"indices":49,"material":9}]},{"primitives":[{"mode":4,"attributes":{"POSITION":50,"COLOR_0":51,"TEXCOORD_0":52,"NORMAL":53},"indices":54,"material":10}]},{"primitives":[{"mode":4,"attributes":{"POSITION":55,"COLOR_0":56,"TEXCOORD_0":57,"NORMAL":58},"indices":59,"material":11}]},{"primitives":[{"mode":4,"attributes":{"POSITION":60,"COLOR_0":61,"TEXCOORD_0":62,"NORMAL":63},"indices":64,"material":12}]},{"primitives":[{"mode":4,"attributes":{"POSITION":65,"COLOR_0":66,"TEXCOORD_0":67,"NORMAL":68},"indices":69,"material":13}]},{"primitives":[{"mode":4,"attributes":{"POSITION":70,"COLOR_0":71,"TEXCOORD_0":72,"NORMAL":73},"indices":74,"material":14}]},{"primitives":[{"mode":4,"attributes":{"POSITION":75,"COLOR_0":76,"TEXCOORD_0":77,"NORMAL":78},"indices":79,"material":15}]},{"primitives":[{"mode":4,"attributes":{"POSITION":80,"COLOR_0":81,"TEXCOORD_0":82,"NORMAL":83},"indices":84,"material":16}]},{"primitives":[{"mode":4,"attributes":{"POSITION":85,"COLOR_0":86,"TEXCOORD_0":87,"NORMAL":88},"indices":89,"material":17}]},{"primitives":[{"mode":4,"attributes":{"POSITION":90,"COLOR_0":91,"TEXCOORD_0":92,"NORMAL":93},"indices":94,"material":18}]},{"primitives":[{"mode":4,"attributes":{"POSITION":95,"COLOR_0":96,"TEXCOORD_0":97,"NORMAL":98},"indices":99,"material":19}]},{"primitives":[{"mode":4,"attributes":{"POSITION":100,"COLOR_0":101,"TEXCOORD_0":102,"NORMAL":103},"indices":104,"material":20}]},{"primitives":[{"mode":4,"attributes":{"POSITION":105,"COLOR_0":106,"TEXCOORD_0":107,"NORMAL":108},"indices":109,"material":21}]},{"primitives":[{"mode":4,"attributes":{"POSITION":110,"COLOR_0":111,"TEXCOORD_0":112,"NORMAL":113},"indices":114,"material":22}]},{"primitives":[{"mode":4,"attributes":{"POSITION":115,"COLOR_0":116,"TEXCOORD_0":117,"NORMAL":118},"indices":119,"material":23}]},{"primitives":[{"mode":4,"attributes":{"POSITION":120,"COLOR_0":121,"TEXCOORD_0":122,"NORMAL":123},"indices":124,"material":24}]},{"primitives":[{"mode":4,"attributes":{"POSITION":125,"COLOR_0":126,"TEXCOORD_0":127,"NORMAL":128},"indices":129,"material":25}]},{"primitives":[{"mode":4,"attributes":{"POSITION":130,"COLOR_0":131,"TEXCOORD_0":132,"NORMAL":133},"indices":134,"material":26}]},{"primitives":[{"mode":4,"attributes":{"POSITION":135,"COLOR_0":136,"TEXCOORD_0":137,"NORMAL":138},"indices":139,"material":27}]},{"primitives":[{"mode":4,"attributes":{"POSITION":140,"COLOR_0":141,"TEXCOORD_0":142,"NORMAL":143},"indices":144,"material":28}]},{"primitives":[{"mode":4,"attributes":{"POSITION":145,"COLOR_0":146,"TEXCOORD_0":147,"NORMAL":148},"indices":149,"material":29}]},{"primitives":[{"mode":4,"attributes":{"POSITION":150,"COLOR_0":151,"TEXCOORD_0":152,"NORMAL":153},"indices":154,"material":30}]},{"primitives":[{"mode":4,"attributes":{"POSITION":155,"COLOR_0":156,"TEXCOORD_0":157,"NORMAL":158},"indices":159,"material":31}]},{"primitives":[{"mode":4,"attributes":{"POSITION":160,"COLOR_0":161,"TEXCOORD_0":162,"NORMAL":163},"indices":164,"material":32}]},{"primitives":[{"mode":4,"attributes":{"POSITION":165,"COLOR_0":166,"TEXCOORD_0":167,"NORMAL":168},"indices":169,"material":33}]},{"primitives":[{"mode":4,"attributes":{"POSITION":170,"COLOR_0":171,"TEXCOORD_0":172,"NORMAL":173},"indices":174,"material":34}]},{"primitives":[{"mode":4,"attributes":{"POSITION":175,"COLOR_0":176,"TEXCOORD_0":177,"NORMAL":178},"indices":179,"material":35}]},{"primitives":[{"mode":4,"attributes":{"POSITION":180,"COLOR_0":181,"TEXCOORD_0":182,"NORMAL":183},"indices":184,"material":36}]},{"primitives":[{"mode":4,"attributes":{"POSITION":185,"COLOR_0":186,"TEXCOORD_0":187,"NORMAL":188},"indices":189,"material":37}]},{"primitives":[{"mode":4,"attributes":{"POSITION":190,"COLOR_0":191,"TEXCOORD_0":192,"NORMAL":193},"indices":194,"material":38}]},{"primitives":[{"mode":4,"attributes":{"POSITION":195,"COLOR_0":196,"TEXCOORD_0":197,"NORMAL":198},"indices":199,"material":39}]},{"primitives":[{"mode":4,"attributes":{"POSITION":200,"COLOR_0":201,"TEXCOORD_0":202,"NORMAL":203},"indices":204,"material":40}]},{"primitives":[{"mode":4,"attributes":{"POSITION":205,"COLOR_0":206,"TEXCOORD_0":207,"NORMAL":208},"indices":209,"material":41}]},{"primitives":[{"mode":4,"attributes":{"POSITION":210,"COLOR_0":211,"TEXCOORD_0":212,"NORMAL":213},"indices":214,"material":42}]},{"primitives":[{"mode":4,"attributes":{"POSITION":215,"COLOR_0":216,"TEXCOORD_0":217,"NORMAL":218},"indices":219,"material":43}]},{"primitives":[{"mode":4,"attributes":{"POSITION":220,"COLOR_0":221,"TEXCOORD_0":222,"NORMAL":223},"indices":224,"material":44}]},{"primitives":[{"mode":4,"attributes":{"POSITION":225,"COLOR_0":226,"TEXCOORD_0":227,"NORMAL":228},"indices":229,"material":45}]},{"primitives":[{"mode":4,"attributes":{"POSITION":230,"COLOR_0":231,"TEXCOORD_0":232,"NORMAL":233},"indices":234,"material":46}]},{"primitives":[{"mode":4,"attributes":{"POSITION":235,"COLOR_0":236,"TEXCOORD_0":237,"NORMAL":238},"indices":239,"material":47}]},{"primitives":[{"mode":4,"attributes":{"POSITION":240,"COLOR_0":241,"TEXCOORD_0":242,"NORMAL":243},"indices":244,"material":48}]},{"primitives":[{"mode":4,"attributes":{"POSITION":245,"COLOR_0":246,"TEXCOORD_0":247,"NORMAL":248},"indices":249,"material":49}]},{"primitives":[{"mode":4,"attributes":{"POSITION":250,"COLOR_0":251,"TEXCOORD_0":252,"NORMAL":253},"indices":254,"material":50}]},{"primitives":[{"mode":4,"attributes":{"POSITION":255,"COLOR_0":256,"TEXCOORD_0":257,"NORMAL":258},"indices":259,"material":51}]},{"primitives":[{"mode":4,"attributes":{"POSITION":260,"COLOR_0":261,"TEXCOORD_0":262,"NORMAL":263},"indices":264,"material":52}]},{"primitives":[{"mode":4,"attributes":{"POSITION":265,"COLOR_0":266,"TEXCOORD_0":267,"NORMAL":268},"indices":269,"material":53}]},{"primitives":[{"mode":4,"attributes":{"POSITION":270,"COLOR_0":271,"TEXCOORD_0":272,"NORMAL":273},"indices":274,"material":54}]},{"primitives":[{"mode":4,"attributes":{"POSITION":275,"COLOR_0":276,"TEXCOORD_0":277,"NORMAL":278},"indices":279,"material":55}]},{"primitives":[{"mode":4,"attributes":{"POSITION":280,"COLOR_0":281,"TEXCOORD_0":282,"NORMAL":283},"indices":284,"material":56}]},{"primitives":[{"mode":4,"attributes":{"POSITION":285,"COLOR_0":286,"TEXCOORD_0":287,"NORMAL":288},"indices":289,"material":57}]},{"primitives":[{"mode":4,"attributes":{"POSITION":290,"COLOR_0":291,"TEXCOORD_0":292,"NORMAL":293},"indices":294,"material":58}]},{"primitives":[{"mode":4,"attributes":{"POSITION":295,"COLOR_0":296,"TEXCOORD_0":297,"NORMAL":298},"indices":299,"material":59}]},{"primitives":[{"mode":4,"attributes":{"POSITION":300,"COLOR_0":301,"TEXCOORD_0":302,"NORMAL":303},"indices":304,"material":60}]},{"primitives":[{"mode":4,"attributes":{"POSITION":305,"COLOR_0":306,"TEXCOORD_0":307,"NORMAL":308},"indices":309,"material":61}]},{"primitives":[{"mode":4,"attributes":{"POSITION":310,"COLOR_0":311,"TEXCOORD_0":312,"NORMAL":313},"indices":314,"material":62}]},{"primitives":[{"mode":4,"attributes":{"POSITION":315,"COLOR_0":316,"TEXCOORD_0":317,"NORMAL":318},"indices":319,"material":63}]},{"primitives":[{"mode":4,"attributes":{"POSITION":320,"COLOR_0":321,"TEXCOORD_0":322,"NORMAL":323},"indices":324,"material":64}]}],"extensionsUsed":["KHR_materials_unlit"]}