# WaveFront *.obj file (generated by CINEMA 4D)

mtllib ./Museum_Curator.mtl

v 3.15000009536743 0.05000000074506 1.35000002384186
v 3.15000009536743 0.05000000074506 -3.25
v 4.84999990463257 5.40000009536743 3.25
v -3.15000009536743 0.05000000074506 1.35000002384186
v -4.84999990463257 5.40000009536743 3.25
v -3.15000009536743 0.05000000074506 -3.25
v 1.39999997615814 12.94999980926514 -0.40000000596046
v 0 10.10000038146973 2
v 1.39999997615814 10.10000038146973 -0.40000000596046
v 0 13.64999961853027 2
v -1.39999997615814 12.94999980926514 -0.40000000596046
v -1.39999997615814 10.10000038146973 -0.40000000596046
v 4 4.90000009536743 -5.40000009536743
v -4 4.90000009536743 -5.40000009536743
v -4.44999980926514 6.55000019073486 -3.15000009536743
v 3.54999995231628 10.10000038146973 2.54999995231628
v -3.54999995231628 10.10000038146973 -0.89999997615814
v -3.54999995231628 10.10000038146973 2.5
v 3.54999995231628 10.10000038146973 -0.89999997615814
v 4.44999980926514 6.55000019073486 -3.15000009536743
v -4.55000019073486 10.5 -2.5
v -5.30000019073486 18.29999923706055 -2.65000009536743
v -4.19999980926514 15.30000019073486 -2.25
v -4.34999990463257 16.70000076293945 -0.10000000149012
v 4.55000019073486 10.5 -2.5
v 4.15000009536743 15.14999961853027 -2.25
v 5.30000019073486 18.29999923706055 -2.65000009536743
v 4.34999990463257 16.70000076293945 -0.10000000149012
v 0 13.19999980926514 -5.25
v 0 14.10000038146973 -4.80000019073486
v 0.44999998807907 12.89999961853027 -4.25
v -0.44999998807907 12.89999961853027 -4.25
v 0 10.5 -3.40000009536743
v 3.34999990463257 12.5 -2.79999995231628
v 2.75 11.94999980926514 2.04999995231628
v 0 13.35000038146973 -4.69999980926514
v -6.75 18.85000038146973 -3.84999990463257
v -4.59999990463257 21.54999923706055 -2.20000004768372
v -1.79999995231628 19.54999923706055 -3.70000004768372
v -3.34999990463257 12.5 -2.79999995231628
v -4.90000009536743 18.35000038146973 0.10000000149012
v -2.75 11.94999980926514 2.04999995231628
v -4.5 16.75 -2.79999995231628
v 0 19.85000038146973 6.15000009536743
v 0 16.70000076293945 7.30000019073486
v 4.44999980926514 18.29999923706055 4.05000019073486
v 0 18.29999923706055 -5.25
v 0 19.95000076293945 -5.05000019073486
v -4.44999980926514 18.29999923706055 4.05000019073486
v -3.90000009536743 21.64999961853027 3.54999995231628
v 0 12.75 5.09999990463257
v 6.25 20.89999961853027 -2.90000009536743
v 0 20.75 -6.05000019073486
v 3.20000004768372 24.39999961853027 -4.19999980926514
v 6.55000019073486 18.64999961853027 -2.95000004768372
v 5.55000019073486 18.75 4.15000009536743
v 5.44999980926514 20.75 4.05000019073486
v -4.59999990463257 21.64999961853027 -2.25
v -3.90000009536743 24.35000038146973 -1.70000004768372
v 2.20000004768372 24.29999923706055 5.30000019073486
v -3.70000004768372 24.39999961853027 2.65000009536743
v 0 21.14999961853027 7
v -5.44999980926514 22.60000038146973 -2.5
v -4.90000009536743 23.04999923706055 3.34999990463257
v 3.59999990463257 7 -0.69999998807907
v 3.59999990463257 9.80000019073486 -0.69999998807907
v 7.19999980926514 8.39999961853027 -0.69999998807907
v 7.19999980926514 8.39999961853027 2.04999995231628
v 3.59999990463257 9.80000019073486 2.04999995231628
v 3.59999990463257 7 2.04999995231628
v 8 -0.30000001192093 2.04999995231628
v 8 -0.30000001192093 -0.69999998807907
v 5.30000019073486 -0.30000001192093 -0.69999998807907
v 5.30000019073486 -0.30000001192093 2.04999995231628
v 6.25 -15.19999980926514 2.65000009536743
v 9.10000038146973 -13.35000038146973 3.20000004768372
v 3.90000009536743 -13.05000019073486 3.04999995231628
v 6.44999980926514 -15.14999961853027 -2.15000009536743
v 4.09999990463257 -12.75 -1.95000004768372
v 9.05000019073486 -13.44999980926514 -2.5
v 8.19999980926514 -8.94999980926514 2.25
v 5.30000019073486 -0.10000000149012 2.04999995231628
v 5.09999990463257 -9.44999980926514 2.25
v 8 -0.10000000149012 2.04999995231628
v 5.09999990463257 -9.44999980926514 -0.80000001192093
v 5.30000019073486 -0.10000000149012 -0.69999998807907
v 8.19999980926514 -8.94999980926514 -0.80000001192093
v 8 -0.10000000149012 -0.69999998807907
v -3.59999990463257 9.80000019073486 -0.69999998807907
v -3.59999990463257 7 -0.69999998807907
v -7.19999980926514 8.39999961853027 -0.69999998807907
v -3.59999990463257 9.80000019073486 2.04999995231628
v -7.19999980926514 8.39999961853027 2.04999995231628
v -3.59999990463257 7 2.04999995231628
v -8 -0.30000001192093 2.04999995231628
v -8 -0.30000001192093 -0.69999998807907
v -5.30000019073486 -0.30000001192093 2.04999995231628
v -5.30000019073486 -0.30000001192093 -0.69999998807907
v -9.10000038146973 -13.35000038146973 3.20000004768372
v -6.25 -15.19999980926514 2.65000009536743
v -3.90000009536743 -13.05000019073486 3.04999995231628
v -4.09999990463257 -12.75 -1.95000004768372
v -6.44999980926514 -15.14999961853027 -2.15000009536743
v -9.05000019073486 -13.44999980926514 -2.5
v -5.30000019073486 -0.10000000149012 2.04999995231628
v -8.19999980926514 -8.94999980926514 2.25
v -5.09999990463257 -9.44999980926514 2.25
v -8 -0.10000000149012 2.04999995231628
v -5.09999990463257 -9.44999980926514 -0.80000001192093
v -5.30000019073486 -0.10000000149012 -0.69999998807907
v -8.19999980926514 -8.94999980926514 -0.80000001192093
v -8 -0.10000000149012 -0.69999998807907
v -3.15000009536743 0.05000000074506 1.35000002384186
v 5 -3.79999995231628 3.45000004768372
v 3.15000009536743 0.05000000074506 1.35000002384186
v -5 -3.79999995231628 3.45000004768372
v 5 -3.79999995231628 -4.09999990463257
v 3.15000009536743 0.05000000074506 -3.25
v -5 -3.79999995231628 -4.09999990463257
v -3.15000009536743 0.05000000074506 -3.25
v -0.94999998807907 -6.84999990463257 2.45000004768372
v 0.94999998807907 -6.84999990463257 -2.95000004768372
v 0.94999998807907 -6.84999990463257 2.45000004768372
v -0.94999998807907 -6.84999990463257 -2.95000004768372
v 5 -3.34999990463257 -3.40000009536743
v 5.84999990463257 -6.40000009536743 -3.40000009536743
v 0.40000000596046 -4.80000019073486 -3.45000004768372
v 5 -3.34999990463257 2.95000004768372
v 0.40000000596046 -4.90000009536743 3.90000009536743
v 5.84999990463257 -6.40000009536743 3.65000009536743
v 5.75 -21.04999923706055 2.40000009536743
v 5.75 -21.04999923706055 -3.09999990463257
v 0.44999998807907 -21.04999923706055 2.40000009536743
v 0.44999998807907 -21.04999923706055 -3.09999990463257
v 5.75 -37.79999923706055 2.59999990463257
v 5.75 -42.75 3.29999995231628
v 5.75 -37.84999847412109 -2.95000004768372
v 0.44999998807907 -37.79999923706055 2.59999990463257
v 0.44999998807907 -37.84999847412109 -2.95000004768372
v 0.44999998807907 -42.75 3.29999995231628
v 5.75 -31.35000038146973 -2.95000004768372
v 5.75 -31.35000038146973 2.59999990463257
v 0.44999998807907 -31.35000038146973 -2.95000004768372
v 0.44999998807907 -31.35000038146973 2.59999990463257
v 6.19999980926514 -31.14999961853027 3.20000004768372
v 6.19999980926514 -37.95000076293945 -3.54999995231628
v 6.19999980926514 -31.14999961853027 -3.54999995231628
v 6.19999980926514 -37.95000076293945 3.25
v 0.05000000074506 -31.14999961853027 -3.54999995231628
v 0.05000000074506 -37.95000076293945 -3.54999995231628
v 0.05000000074506 -37.95000076293945 3.25
v 0.05000000074506 -31.14999961853027 3.20000004768372
v 5.75 -42.75 -9.10000038146973
v 0.44999998807907 -40.15000152587891 -8.64999961853027
v 5.75 -40.15000152587891 -8.64999961853027
v 0.44999998807907 -42.75 -9.10000038146973
v -5.84999990463257 -6.40000009536743 -3.40000009536743
v -5 -3.34999990463257 -3.40000009536743
v -0.40000000596046 -4.80000019073486 -3.45000004768372
v -0.40000000596046 -4.90000009536743 3.90000009536743
v -5 -3.34999990463257 2.95000004768372
v -5.84999990463257 -6.40000009536743 3.65000009536743
v -5.75 -21.04999923706055 2.40000009536743
v -5.75 -21.04999923706055 -3.09999990463257
v -0.44999998807907 -21.04999923706055 2.40000009536743
v -0.44999998807907 -21.04999923706055 -3.09999990463257
v -5.75 -42.75 3.29999995231628
v -5.75 -37.79999923706055 2.59999990463257
v -5.75 -37.84999847412109 -2.95000004768372
v -0.44999998807907 -37.84999847412109 -2.95000004768372
v -0.44999998807907 -37.79999923706055 2.59999990463257
v -0.44999998807907 -42.75 3.29999995231628
v -5.75 -31.35000038146973 -2.95000004768372
v -5.75 -31.35000038146973 2.59999990463257
v -0.44999998807907 -31.35000038146973 -2.95000004768372
v -0.44999998807907 -31.35000038146973 2.59999990463257
v -6.19999980926514 -37.95000076293945 -3.54999995231628
v -6.19999980926514 -31.14999961853027 3.20000004768372
v -6.19999980926514 -31.14999961853027 -3.54999995231628
v -6.19999980926514 -37.95000076293945 3.25
v -0.05000000074506 -37.95000076293945 -3.54999995231628
v -0.05000000074506 -31.14999961853027 -3.54999995231628
v -0.05000000074506 -37.95000076293945 3.25
v -0.05000000074506 -31.14999961853027 3.20000004768372
v -0.44999998807907 -40.15000152587891 -8.64999961853027
v -5.75 -42.75 -9.10000038146973
v -5.75 -40.15000152587891 -8.64999961853027
v -0.44999998807907 -42.75 -9.10000038146973
# 188 vertices

vn 0.32981967926025 -0.68250596523285 0.65223044157028
vn 0.66414672136307 -0.70711702108383 -0.24268208444118
vn 0.99611032009125 -0.07980333268642 -0.03735918179154
vn 0 0 0
vn -0.32213771343231 -0.89150017499924 0.31851953268051
vn -0.99610650539398 -0.07984656840563 -0.0373673401773
vn -0.67389464378357 -0.57970851659775 -0.45804372429848
vn 0.86377888917923 0 0.50387102365494
vn 0.86377888917923 0 0.50387102365494
vn -0.86377888917923 0 0.50387102365494
vn -0.86377888917923 0 0.50387102365494
vn 0 0 -1
vn 0 0.2574574649334 -0.96628963947296
vn -0.99865335226059 0.03121576830745 -0.04143723472953
vn -0.97936737537384 -0.19506068527699 -0.05282887816429
vn 0 -0.17540989816189 0.98449546098709
vn -0.00238654599525 -0.01084454916418 0.9999383687973
vn 0.61017245054245 0.79225850105286 -0.00400162255391
vn -0.31637334823608 0.9076954126358 -0.27567535638809
vn -0.78805083036423 0.61558842658997 -0.0051784501411
vn 0.32029342651367 0.76540488004684 -0.55818229913712
vn 0 0.68271791934967 -0.73068201541901
vn -0.00348369171843 0.15150527656078 0.98845028877258
vn -0.00696720927954 0.14542217552662 0.9893451333046
vn 0.99865257740021 0.03124920651317 -0.04143105447292
vn 0.97936737537384 -0.19506068527699 -0.05282886326313
vn 0.86397272348404 -0.03684240207076 -0.50218898057938
vn 0.38856747746468 0.01964665390551 -0.92121082544327
vn -0.95001888275146 -0.08557422459126 0.30023515224457
vn -0.86850762367249 -0.04818734899163 -0.49332794547081
vn -0.37187597155571 0.01790903322399 -0.92810964584351
vn 0.95001888275146 -0.08557422459126 0.30023515224457
vn -0.98295521736145 -0.09307903796434 0.15854115784168
vn 0.98965871334076 -0.07841838151217 0.12010915577412
vn 0.91616022586823 0.17924855649471 -0.35849750041962
vn -0.91616022586823 0.17924855649471 -0.35849750041962
vn 0 -0.95782625675201 -0.2873480618
vn -0.00000003175084 -0.91761809587479 -0.39746329188347
vn 0.66133993864059 -0.42810970544815 -0.61591523885727
vn 0.62238752841949 -0.70350384712219 0.34309792518616
vn -0.00000001670683 -0.26977318525314 -0.96292388439178
vn 0.01605209708214 0.09967940300703 -0.99489009380341
vn -0.05266994610429 0.55092853307724 -0.83288872241974
vn -0.66133993864059 -0.42810970544815 -0.61591523885727
vn -0.90236538648605 -0.15156401693821 0.40344151854515
vn -0.81561464071274 0.38615718483925 0.43087738752365
vn -0.62238746881485 -0.70350384712219 0.34309789538383
vn 0.08100842684507 -0.3749538064003 -0.9234973192215
vn -0.72073233127594 -0.64420664310455 0.25601303577423
vn -0.22242020070553 -0.03880380839109 0.97417837381363
vn -0.00000002690682 -0.20661194622517 0.97842293977737
vn 0.56735402345657 -0.48756581544876 0.66361808776855
vn 0.00000000559795 -0.04247124865651 -0.99909770488739
vn -0.23991192877293 -0.25055888295174 -0.93790328502655
vn 0.5837841629982 -0.67204529047012 -0.45557779073715
vn -0.85572892427444 0.03764111548662 0.51605343818665
vn -0.8075413107872 -0.22198008000851 0.54644477367401
vn -0.00000005079358 -0.73162251710892 0.68170994520187
vn -0.87348902225494 -0.04987289756536 -0.48428258299828
vn 0.89994448423386 0.24897953867912 -0.35792341828346
vn -0.11577072739601 -0.25517958402634 -0.95993775129318
vn 0.4460734128952 0.80667579174042 -0.38767606019974
vn 0.6581095457077 -0.5630931854248 -0.49981787800789
vn 0.73704349994659 -0.49770069122314 0.45723178982735
vn 0.79852110147476 0.36930570006371 0.47537079453468
vn -0.90317749977112 -0.34333625435829 -0.25766381621361
vn -0.39158082008362 0.87641388177872 -0.28029122948647
vn 0.23887307941914 0.87099587917328 0.42930859327316
vn -0.37639454007149 0.82854419946671 0.41453793644905
vn -0.09036603569984 -0.07380052655935 0.99317038059235
vn -0.90063518285751 -0.01138360239565 -0.4344268143177
vn -0.92005211114883 0.08847381174564 0.3816759288311
vn 0 0 1
vn 0.99579882621765 0.09156773239374 0
vn 0.90372794866562 0.42810726165771 0
vn 0.6605811715126 0.7507546544075 0
vn 0.99579882621765 0.09156773239374 0
vn -1 0 0
vn -0.99346351623535 -0.11415006965399 0
vn -1 0 0
vn 0.36244639754295 0.93200463056564 0
vn 0.36244642734528 0.93200463056564 0
vn 0 -1 0
vn -0.40071907639503 -0.91620099544525 0
vn 0 -1 0
vn -0.80143815279007 -0.59807771444321 0
vn -0.09959971904755 -0.96131956577301 0.25679677724838
vn 0.77359783649445 -0.14776332676411 0.61620801687241
vn -0.03211008012295 0.07169996201992 0.99690926074982
vn -0.11448264867067 -0.0293482709676 -0.99299162626266
vn -0.07639626413584 0.2229046523571 -0.97184211015701
vn -0.08661522716284 0.1600948125124 -0.98329418897629
vn -0.01420461852103 0.12069991976023 0.9925873875618
vn -0.00173059676308 0.02202627062798 0.99975591897964
vn -0.02026938460767 0.12567019462585 0.99186497926712
vn 0 0.0225931070745 0.99974477291107
vn -0.999771296978 0.02138551324606 0
vn -0.99372518062592 0.11184941977262 0
vn -0.97772186994553 0.2098046541214 -0.00647613918409
vn -0.999771296978 0.0213855151087 0
vn -0.02859756723046 0.17995807528496 -0.98325848579407
vn -0.02899610064924 0.17977587878704 -0.98328018188477
vn 0.99040842056274 0.13811287283897 -0.00399484951049
vn 0.81284755468369 -0.58245694637299 0.00477075669914
vn 0.9966197013855 0.0821535885334 0
vn -0.96949344873428 -0.24225015938282 -0.0373801253736
vn -0.96731275320053 -0.24786475300789 -0.05356435850263
vn -0.00086545065278 0.01101515535265 -0.99993896484375
vn 0 0.01129871699959 -0.99993616342545
vn 0.99974477291107 0.02259308099747 0
vn 0.99974477291107 0.02259308099747 0
vn -0.10826560854912 -0.99401086568832 -0.0148653825745
vn 0 1 0
vn 0 1 0
vn 0 0 -1
vn -0.79861825704575 0.60183793306351 0
vn -0.99579882621765 0.09156773239374 0
vn -0.99579882621765 0.09156773239374 0
vn 1 0 0
vn 0.99710446596146 -0.07604429870844 0
vn 0.9883668422699 -0.15208858251572 0
vn 1 0 0
vn -0.36244639754295 0.93200463056564 0
vn -0.36244642734528 0.93200463056564 0
vn 0.6217685341835 -0.78320109844208 0
vn 0 -1 0
vn -0.77359783649445 -0.14776332676411 0.61620801687241
vn 0.09959975630045 -0.96131956577301 0.25679677724838
vn 0.03211008757353 0.07169995456934 0.99690926074982
vn 0.07639627158642 0.2229046523571 -0.97184211015701
vn 0.11448264122009 -0.02934826165438 -0.99299162626266
vn 0.08661523461342 0.16009484231472 -0.98329418897629
vn 0.0017305968795 0.02202627249062 0.99975591897964
vn 0.01420462224633 0.12069991230965 0.9925873875618
vn 0.02026939019561 0.12567019462585 0.99186497926712
vn 0.99372518062592 0.11184940487146 0
vn 0.999771296978 0.02138551324606 0
vn 0.97772186994553 0.20980468392372 -0.00647614151239
vn 0.999771296978 0.02138551138341 0
vn 0.02859757654369 0.17995809018612 -0.98325848579407
vn 0.02899611182511 0.1797758936882 -0.98328012228012
vn -0.99040842056274 0.13811287283897 -0.00399484997615
vn -0.81284755468369 -0.58245694637299 0.00477075343952
vn -0.9966197013855 0.0821535885334 0
vn 0.96949344873428 -0.2422501295805 -0.03738012909889
vn 0.96731275320053 -0.24786475300789 -0.05356437340379
vn 0.00086545059457 0.01101515442133 -0.99993896484375
vn -0.99974477291107 0.02259308099747 0
vn -0.99974477291107 0.02259308099747 0
vn 0.10826563835144 -0.99401086568832 -0.01486537978053
vn -0.47658914327621 0.74658423662186 0.46419256925583
vn 0.60700571537018 -0.14951355755329 0.78050607442856
vn 0.4622275531292 0.85771477222443 0.22510227560997
vn -0.46970593929291 -0.15937526524067 0.86831784248352
vn 0.6409764289856 -0.11266864091158 -0.75924628973007
vn 0.31665831804276 0.65495997667313 -0.68611586093903
vn -0.71233320236206 -0.15475875139236 -0.68456637859344
vn -0.30416092276573 0.89381408691406 -0.32951864600182
vn -0.28652837872505 -0.9309629201889 0.22629511356354
vn 0.28414663672447 -0.93296712636948 -0.22098203003407
vn 0.19178229570389 -0.77210545539856 0.60586524009705
vn -0.18895335495472 -0.78663128614426 -0.58779919147491
vn 0.00999126397073 0.0027844500728 -0.99994623661041
vn 0.00428172480315 -0.0130721712485 -0.99990540742874
vn 0.00642264122143 -0.00937083363533 -0.99993544816971
vn 0.44509387016296 0.84204322099686 0.30472069978714
vn -0.46409317851067 0.43345949053764 0.77248328924179
vn 0.57652068138123 0.09248635172844 0.81183135509491
vn 0.99997669458389 -0.00682577351108 0
vn 0.99123692512512 0.13209593296051 0
vn 0.99997669458389 -0.00682577351108 0
vn 0.01011790335178 -0.08871290832758 0.99600583314896
vn 0 -0.08501532673836 0.99637967348099
vn -0.80986279249191 0.58660590648651 0.00397918513045
vn -0.30063524842262 0.95373916625977 0
vn 0.96329134702682 0.26845818758011 0
vn -0.99999523162842 -0.0030844793655 -0.00002103434599
vn -0.99999529123306 -0.00307690678164 0
vn 0.00142649561167 -0.02099909819663 -0.99977844953537
vn 0 -0.02047353610396 -0.99979037046432
vn -1 0 0
vn 1 0 0
vn 0 -0.01456154603511 -0.99989396333694
vn 0 0.01941379345953 0.99981153011322
vn 0 0.01941379345953 0.99981153011322
vn 0 1 0
vn 0 0.00735273445025 0.99997293949127
vn 0 0.00735273398459 0.99997293949127
vn 0 0.00735273398459 0.99997293949127
vn 0 0.17054180800915 -0.98535043001175
vn 0 0.47578486800194 -0.87956166267395
vn 0 0.75966095924377 -0.6503192782402
vn 0 0.14002099633217 0.99014854431152
vn 0 0.14002099633217 0.99014854431152
vn 0 0.92735028266907 -0.37419444322586
vn 0 0.92735028266907 -0.37419447302818
vn -0.00428172480315 -0.0130721712485 -0.99990540742874
vn -0.00999126303941 0.00278444983996 -0.99994623661041
vn -0.00642264122143 -0.00937083456665 -0.99993544816971
vn 0.46409317851067 0.43345949053764 0.77248328924179
vn -0.44509387016296 0.84204322099686 0.30472069978714
vn -0.57652068138123 0.09248635917902 0.81183135509491
vn -0.99123692512512 0.13209593296051 0
vn -0.99997669458389 -0.00682577351108 0
vn -0.99997669458389 -0.00682577351108 0
vn -0.01011791080236 -0.08871290832758 0.99600583314896
vn 0.80986279249191 0.58660590648651 0.00397918513045
vn 0.30063524842262 0.95373916625977 0
vn -0.96329134702682 0.26845818758011 0
vn 0.99999523162842 -0.00308447983116 -0.00002103435509
vn 0.99999529123306 -0.00307690771297 0
vn -0.00142649607733 -0.02099909819663 -0.99977844953537
vn 0 -0.02047353610396 -0.99979037046432
vn 0 0.62826722860336 -0.77799761295319
# 214 normals

vt 0.46666666865349 0.59055119752884 0
vt 0.39215686917305 0.59055119752884 0
vt 0.49803921580315 0.80314958095551 0
vt 0.43137255311012 0.62204724550247 0
vt 0.4705882370472 0.6535432934761 0
vt 0.43137255311012 0.6535432934761 0
vt 0.4705882370472 0.61417323350906 0
vt 0.15686275064945 0.5039370059967 0
vt 0.16470588743687 0.48031497001648 0
vt 0.16470588743687 0.5039370059967 0
vt 0.15686275064945 0.48031497001648 0
vt 0.33333334326744 0.59842520952225 0
vt 0.21568627655506 0.78740155696869 0
vt 0.23137255012989 0.59842520952225 0
vt 0.34509804844856 0.78740155696869 0
vt 0.39607843756676 0.8503937125206 0
vt 0.36078432202339 0.78740155696869 0
vt 0.67058825492859 0.42519688606262 0
vt 0.64313727617264 0.74015748500824 0
vt 0.64313727617264 0.75590550899506 0
vt 0.60392159223557 0.62992125749588 0
vt 0.65098041296005 0.6535432934761 0
vt 0.60000002384186 0.74015748500824 0
vt 0.22352941334248 1 0
vt 0.35294118523598 0.8503937125206 0
vt 0.33725491166115 1 0
vt 0.21176470816135 0.8503937125206 0
vt 0.48627451062202 1 0
vt 0.43137255311012 1 0
vt 0.13725490868092 0.03937005996704 0
vt 0.17254902422428 0.33858275413513 0
vt 0.15294118225574 0.22834646701813 0
vt 0.1803921610117 0.25984251499176 0
vt 0.03137255087495 0.41732287406921 0
vt 0.0274509806186 0.41732287406921 0
vt 0.01568627543747 0.42519688606262 0
vt 0.02352941222489 0.39370083808899 0
vt 0.09411764889956 0.41732287406921 0
vt 0.09019608050585 0.39370083808899 0
vt 0.10196078568697 0.41732287406921 0
vt 0.77254903316498 0.96062994003296 0
vt 0.76470589637756 0.87401574850082 0
vt 0.72549021244049 0.96062994003296 0
vt 0 0.96062994003296 0
vt 0.0588235296309 0.92125988006592 0
vt 0.0588235296309 0.99212598800659 0
vt 0.19215686619282 0.59055119752884 0
vt 0.20000000298023 0.56692916154861 0
vt 0.20000000298023 0.4015748500824 0
vt 0.03921568766236 0.54330712556839 0
vt 0.10196078568697 0.44881892204285 0
vt 0.10196078568697 0.59055119752884 0
vt 0.14509804546833 0.91338580846786 0
vt 0.17647059261799 0.97637796401978 0
vt 0.1843137294054 0.92913389205933 0
vt 0.16862745583057 0.54330712556839 0
vt 0.19215686619282 0.90551179647446 0
vt 0.66666668653488 0.16535437107086 0
vt 0.60000002384186 0.21259844303131 0
vt 0.63529413938522 0.04724407196045 0
vt 0.64313727617264 0.14173233509064 0
vt 0.16078431904316 0.16535437107086 0
vt 0.17254902422428 0.08661425113678 0
vt 0.14117647707462 0.12598431110382 0
vt 0.10196078568697 0.83464568853378 0
vt 0.10196078568697 0.91338580846786 0
vt 0 0.83464568853378 0
vt 0.13725490868092 0.21259844303131 0
vt 0.20000000298023 0.2992125749588 0
vt 0.17647059261799 0.18897640705109 0
vt 0.13725490868092 0.06299221515656 0
vt 0.15294118225574 0.23622047901154 0
vt 0.16078431904316 0.08661425113678 0
vt 0.12549020349979 0.00787401199341 0
vt 0.00392156885937 0.42519688606262 0
vt 0.1803921610117 0.42519688606262 0
vt 0 0.03937005996704 0
vt 0.20784313976765 0.83464568853378 0
vt 0.52156865596771 0.90551179647446 0
vt 0.60784316062927 0.83464568853378 0
vt 0.58039218187332 1 0
vt 0.50588238239288 0.83464568853378 0
vt 0.51764708757401 0.82677161693573 0
vt 0.52941179275513 0.89763778448105 0
vt 1 0.28346455097198 0
vt 0.79607844352722 0.55905514955521 0
vt 0.7843137383461 0.28346455097198 0
vt 0.98823529481888 0.55905514955521 0
vt 0.678431391716 0.91338580846786 0
vt 0.59215688705444 0.98425197601318 0
vt 0.678431391716 0.92125988006592 0
vt 0.19215686619282 1 0
vt 0.53333336114883 0.7952755689621 0
vt 0.60784316062927 0.84251970052719 0
vt 0.60392159223557 0.7952755689621 0
vt 0.52156865596771 0.80314958095551 0
vt 0.678431391716 0.81102359294891 0
vt 0.60392159223557 0.80314958095551 0
vt 0.69411766529083 0.83464568853378 0
vt 0.68627452850342 0.85826772451401 0
vt 0.66666668653488 0.81889760494232 0
vt 0.5137255191803 0.6535432934761 0
vt 0.51764708757401 0.77952754497528 0
vt 0.58039218187332 0.7007874250412 0
vt 0.68627452850342 0.5039370059967 0
vt 0.74509805440903 0.58267718553543 0
vt 0.74901962280273 0.45669293403625 0
vt 0.58431375026703 0.30708658695221 0
vt 0.54117649793625 0.7007874250412 0
vt 0.58431375026703 0.7007874250412 0
vt 0.54117649793625 0.30708658695221 0
vt 0.60784316062927 0.77952754497528 0
vt 0.60784316062927 0.6535432934761 0
vt 0.65098041296005 0.77952754497528 0
vt 0.59215688705444 0.97637796401978 0
vt 0.58039218187332 0.94488191604614 0
vt 0.54901963472366 0.98425197601318 0
vt 0.6235294342041 0.93700790405273 0
vt 0.58823531866074 0.41732287406921 0
vt 0.59215688705444 0.41732287406921 0
vt 0.55686277151108 0.41732287406921 0
vt 0.6235294342041 0.41732287406921 0
vt 0.60784316062927 0.32283473014832 0
vt 0.65098041296005 0.32283473014832 0
vt 0.58039218187332 0.30708658695221 0
vt 0.52941179275513 0.32283473014832 0
vt 0.68627452850342 0.110236287117 0
vt 0.73333334922791 0.12598431110382 0
vt 0.95294117927551 0.74803149700165 0
vt 1 0.82677161693573 0
vt 0.91764706373215 0.83464568853378 0
vt 0.76078432798386 0.74803149700165 0
vt 0.80000001192093 0.8503937125206 0
vt 0.72156864404678 0.81889760494232 0
vt 0.64313727617264 0.33070874214172 0
vt 0.64313727617264 0.46456694602966 0
vt 0.63137257099152 0.33070874214172 0
vt 0.65098041296005 0.45669293403625 0
vt 0.60392159223557 0.33858275413513 0
vt 0.61960786581039 0.46456694602966 0
vt 0.73333334922791 1 0
vt 0.7843137383461 0.98425197601318 0
vt 0.77254903316498 0.97637796401978 0
vt 0.73333334922791 0.92913389205933 0
vt 0.77647060155869 0.92913389205933 0
vt 0.74509805440903 0.97637796401978 0
vt 0.8941176533699 0.98425197601318 0
vt 0.82352942228317 0.8503937125206 0
vt 0.90588235855103 0.83464568853378 0
vt 0.84313726425171 0.98425197601318 0
vt 0.55686277151108 0.45669293403625 0
vt 0.5686274766922 0.33858275413513 0
vt 0.58039218187332 0.34645676612854 0
vt 0.54509806632996 0.44881892204285 0
vt 0.52941179275513 0.33858275413513 0
vt 0.51764708757401 0.44881892204285 0
vt 0.89803922176361 0.74803149700165 0
vt 0.82352942228317 0.74803149700165 0
vt 0.73333334922791 0.59842520952225 0
vt 0.81960785388947 0.72440946102142 0
vt 0.72549021244049 0.73228347301483 0
vt 0.81176471710205 0.59842520952225 0
vt 0.98823529481888 1 0
vt 0.93725490570068 0.98425197601318 0
vt 0.54901963472366 0.4015748500824 0
vt 0.6235294342041 0.38582682609558 0
vt 0.58431375026703 0.46456694602966 0
vt 0.58431375026703 0.32283473014832 0
vt 0.2392156869173 0.28346455097198 0
vt 0.37254902720451 0.12598431110382 0
vt 0.34117648005486 0.28346455097198 0
vt 0.20784313976765 0.12598431110382 0
vt 0.46666666865349 0.57480317354202 0
vt 0.38039216399193 0.42519688606262 0
vt 0.39215686917305 0.57480317354202 0
vt 0.49803921580315 0.42519688606262 0
vt 0.24313725531101 0.58267718553543 0
vt 0.37647059559822 0.42519688606262 0
vt 0.34509804844856 0.58267718553543 0
vt 0.21176470816135 0.42519688606262 0
vt 0.4745098054409 0.2992125749588 0
vt 0.44313725829124 0.2992125749588 0
vt 0.40000000596046 0.2992125749588 0
vt 0.48235294222832 0.2992125749588 0
vt 0.3098039329052 0.2992125749588 0
vt 0.27843138575554 0.2992125749588 0
vt 0.30588236451149 0 0
vt 0.27450981736183 0 0
vt 0.40000000596046 0.33070874214172 0
vt 0.40000000596046 0.38582682609558 0
vt 0.40000000596046 0.36220479011536 0
vt 0.47843137383461 0.39370083808899 0
vt 0.44705882668495 0.35433077812195 0
vt 0.48627451062202 0.31496071815491 0
vt 0.46274510025978 0.30708658695221 0
vt 0.39215686917305 0.36220479011536 0
vt 0.47843137383461 0.36220479011536 0
vt 0.39215686917305 0.30708658695221 0
vt 0.48235294222832 0.37007880210876 0
vt 0.4705882370472 0.37795281410217 0
vt 0.39215686917305 0.37007880210876 0
vt 0.39215686917305 0.37795281410217 0
vt 0.40392157435417 0.38582682609558 0
vt 0.45098039507866 0.33070874214172 0
vt 0.45490196347237 0.38582682609558 0
vt 0.40392157435417 0.33070874214172 0
vt 0.99215686321259 0.73228347301483 0
vt 1 0.58267718553543 0
vt 0.92156863212585 0.73228347301483 0
vt 0.39607843756676 0.33070874214172 0
vt 0.4705882370472 0.33070874214172 0
vt 0.45490196347237 0.35433077812195 0
vt 0.36862745881081 0.35433077812195 0
vt 0.49019607901573 0.28346455097198 0
vt 0.38431373238564 0.01574802398682 0
vt 0.38431373238564 0.28346455097198 0
vt 0.49019607901573 0.01574802398682 0
vt 0.50588238239288 0 0
vt 0.58823531866074 0.1023622751236 0
vt 0.50588238239288 0.1023622751236 0
vt 0.58823531866074 0 0
vt 0.58823531866074 0.27559053897858 0
vt 0.50588238239288 0.27559053897858 0
vt 0.839215695858 0.58267718553543 0
vt 0.84705883264542 0.66929137706757 0
# 225 texture coordinates

o Mesh
usemtl material
f 1/1/1 2/2/2 3/3/3
f 4/1/5 5/3/6 6/2/7
f 7/4/8 8/5/8 9/6/9
f 7/4/8 10/7/8 8/5/8
f 11/4/10 8/5/10 10/7/10
f 11/4/10 12/6/11 8/5/10
f 11/4/12 9/6/12 12/6/12
f 11/4/12 7/4/12 9/6/12
f 4/8/5 2/9/2 1/10/1
f 4/8/5 6/11/7 2/9/2
f 6/12/7 13/13/13 2/14/2
f 6/12/7 14/15/13 13/13/13
f 15/16/14 6/2/7 5/3/6
f 15/16/14 14/17/15 6/2/7
f 1/18/1 5/19/16 4/18/5
f 1/18/1 3/19/17 5/19/16
f 16/20/18 17/21/19 18/22/20
f 16/20/18 19/23/21 17/21/19
f 19/24/21 15/25/22 17/26/19
f 19/24/21 20/27/22 15/25/22
f 18/28/20 15/16/14 5/3/6
f 18/28/20 17/29/19 15/16/14
f 3/3/17 18/28/23 5/3/16
f 3/3/17 16/28/24 18/28/23
f 13/13/13 15/25/22 20/27/22
f 13/13/13 14/15/13 15/25/22
f 20/16/25 16/28/18 3/3/3
f 20/16/25 19/29/21 16/28/18
f 2/2/2 20/16/25 3/3/3
f 2/2/2 13/17/26 20/16/25
f 21/30/27 22/31/28 23/32/27
f 24/33/29 22/31/29 21/30/29
f 25/34/30 26/35/30 27/36/31
f 28/37/32 25/34/32 27/36/32
f 26/35/30 25/34/30 28/37/33
f 23/38/27 24/39/34 21/40/27
f 29/41/35 30/42/35 31/43/35
f 29/41/36 32/43/36 30/42/36
f 29/44/37 31/45/37 32/46/37
f 33/47/38 34/48/39 35/49/40
f 34/50/39 33/51/38 36/52/41
f 37/53/42 38/54/43 39/55/42
f 36/52/41 33/51/38 40/56/44
f 37/53/45 41/57/45 38/54/46
f 42/49/47 40/48/44 33/47/38
f 37/58/42 39/59/42 43/60/48
f 37/58/45 43/60/49 41/61/45
f 44/62/50 45/63/51 46/64/52
f 47/65/53 48/66/54 27/67/55
f 49/64/56 44/62/50 50/68/57
f 49/64/56 45/63/51 44/62/50
f 35/49/40 42/49/47 33/47/38
f 35/49/40 51/69/58 42/49/47
f 45/70/51 35/71/40 46/72/52
f 45/70/51 51/73/58 35/71/40
f 35/74/40 27/75/55 46/76/52
f 35/74/40 34/77/39 27/75/55
f 34/50/39 47/65/53 27/67/55
f 34/50/39 36/52/41 47/65/53
f 47/65/53 40/56/44 22/78/59
f 47/65/53 36/52/41 40/56/44
f 52/79/60 53/80/61 54/81/62
f 52/79/60 55/82/63 53/80/61
f 52/79/60 56/83/64 55/82/63
f 52/79/60 57/84/65 56/83/64
f 42/71/47 45/70/51 49/72/56
f 42/71/47 51/73/58 45/70/51
f 49/85/56 58/86/66 22/87/59
f 49/85/56 50/88/57 58/86/66
f 59/89/67 60/90/68 54/81/62
f 59/89/67 61/91/69 60/90/68
f 57/84/65 54/81/62 60/90/68
f 57/84/65 52/79/60 54/81/62
f 48/66/54 22/78/59 58/92/66
f 48/66/54 47/65/53 22/78/59
f 46/93/52 62/94/70 44/95/50
f 46/93/52 56/83/64 62/94/70
f 56/83/64 27/96/55 55/82/63
f 56/83/64 46/93/52 27/96/55
f 58/97/66 53/80/61 48/98/54
f 58/97/66 63/99/71 53/80/61
f 53/80/61 27/96/55 48/98/54
f 53/80/61 55/82/63 27/96/55
f 64/100/72 58/97/66 50/101/57
f 64/100/72 63/99/71 58/97/66
f 62/94/70 50/101/57 44/95/50
f 62/94/70 64/100/72 50/101/57
f 61/91/69 62/94/70 60/90/68
f 61/91/69 64/100/72 62/94/70
f 53/80/61 59/89/67 54/81/62
f 53/80/61 63/99/71 59/89/67
f 64/100/72 59/89/67 63/99/71
f 64/100/72 61/91/69 59/89/67
f 62/94/70 57/84/65 60/90/68
f 62/94/70 56/83/64 57/84/65
f 22/75/59 42/74/47 49/76/56
f 22/75/59 40/77/44 42/74/47
f 65/102/12 66/103/12 67/104/12
f 68/105/73 69/106/73 70/107/73
f 71/108/74 67/109/75 68/110/76
f 71/108/74 72/111/77 67/109/75
f 69/112/78 65/22/79 70/113/79
f 69/112/78 66/114/80 65/22/79
f 68/115/76 66/116/81 69/117/82
f 68/115/76 67/118/75 66/116/81
f 71/119/83 73/120/84 72/121/85
f 71/119/83 74/122/86 73/120/84
f 65/22/79 74/123/86 70/113/79
f 65/22/79 73/124/84 74/123/86
f 72/125/12 65/102/12 67/104/12
f 72/125/12 73/126/12 65/102/12
f 70/107/73 71/127/73 68/105/73
f 70/107/73 74/128/73 71/127/73
f 75/129/87 76/130/88 77/131/89
f 78/132/90 79/133/91 80/134/92
f 81/135/93 82/136/94 83/137/95
f 81/135/93 84/138/96 82/136/94
f 82/136/97 85/139/98 83/137/99
f 82/136/97 86/140/100 85/139/98
f 79/133/91 87/141/101 80/134/92
f 79/133/91 85/142/102 87/141/101
f 87/143/103 76/144/88 80/145/104
f 87/143/103 81/146/105 76/144/88
f 83/147/99 79/148/106 77/149/107
f 83/147/99 85/150/98 79/148/106
f 86/151/108 87/152/101 85/153/102
f 86/151/108 88/154/109 87/152/101
f 88/154/110 81/155/105 87/152/103
f 88/154/110 84/156/111 81/155/105
f 75/157/87 79/148/106 78/158/112
f 75/157/87 77/149/107 79/148/106
f 75/159/87 80/160/104 76/161/88
f 75/159/87 78/162/112 80/160/104
f 81/163/93 77/131/89 76/130/88
f 81/163/93 83/164/95 77/131/89
f 88/165/113 82/166/113 84/167/114
f 88/165/113 86/168/113 82/166/113
f 89/103/115 90/102/12 91/104/12
f 92/106/73 93/105/73 94/107/73
f 91/109/116 95/108/117 93/110/116
f 91/109/116 96/111/118 95/108/117
f 89/114/119 94/113/120 90/22/121
f 89/114/119 92/112/122 94/113/120
f 91/118/116 92/117/123 89/116/124
f 91/118/116 93/115/116 92/117/123
f 97/122/125 96/121/83 98/120/125
f 97/122/125 95/119/126 96/121/83
f 97/123/125 90/22/121 94/113/120
f 97/123/125 98/124/125 90/22/121
f 90/102/12 96/125/12 91/104/12
f 90/102/12 98/126/12 96/125/12
f 95/127/73 94/107/73 93/105/73
f 95/127/73 97/128/73 94/107/73
f 99/130/127 100/129/128 101/131/129
f 102/133/130 103/132/131 104/134/132
f 105/136/133 106/135/134 107/137/135
f 105/136/133 108/138/96 106/135/134
f 109/139/136 105/136/137 107/137/138
f 109/139/136 110/140/139 105/136/137
f 111/141/140 102/133/130 104/134/132
f 111/141/140 109/142/141 102/133/130
f 99/144/127 111/143/142 104/145/143
f 99/144/127 106/146/144 111/143/142
f 102/148/145 107/147/138 101/149/146
f 102/148/145 109/150/136 107/147/138
f 111/152/140 110/151/147 109/153/141
f 111/152/140 112/154/109 110/151/147
f 106/155/144 112/154/148 111/152/142
f 106/155/144 108/156/149 112/154/148
f 102/148/145 100/157/128 103/158/150
f 102/148/145 101/149/146 100/157/128
f 104/160/143 100/159/128 99/161/127
f 104/160/143 103/162/150 100/159/128
f 101/131/129 106/163/134 99/130/127
f 101/131/129 107/164/135 106/163/134
f 110/168/113 108/167/113 105/166/114
f 110/168/113 112/165/113 108/167/113
f 113/169/151 114/170/152 115/171/153
f 113/169/151 116/172/154 114/170/152
f 115/173/153 117/174/155 118/175/156
f 115/173/153 114/176/152 117/174/155
f 118/177/156 119/178/157 120/179/158
f 118/177/156 117/180/155 119/178/157
f 113/173/151 119/174/157 116/176/154
f 113/173/151 120/175/158 119/174/157
f 120/175/158 115/173/153 118/175/156
f 120/175/158 113/173/151 115/173/153
f 121/181/159 122/182/160 123/182/161
f 121/181/159 124/181/162 122/182/160
f 122/183/160 114/176/152 123/184/161
f 122/183/160 117/174/155 114/176/152
f 117/180/155 124/185/162 119/178/157
f 117/180/155 122/186/160 124/185/162
f 121/184/159 119/174/157 124/183/162
f 121/184/159 116/176/154 119/174/157
f 116/172/154 123/187/161 114/170/152
f 116/172/154 121/188/159 123/187/161
f 125/189/163 126/190/164 127/191/165
f 128/192/166 129/193/167 130/194/168
f 131/195/169 126/196/170 130/197/168
f 131/195/169 132/198/171 126/196/170
f 133/195/172 130/197/168 129/199/167
f 133/195/172 131/195/173 130/197/168
f 131/195/83 134/198/83 132/198/85
f 131/195/83 133/195/126 134/198/83
f 128/200/166 127/201/174 129/199/167
f 128/200/166 125/202/175 127/201/174
f 126/203/170 128/204/166 130/205/168
f 126/203/170 125/206/176 128/204/166
f 127/201/174 133/195/177 129/199/167
f 127/201/174 134/198/178 133/195/177
f 126/196/164 134/198/179 127/201/165
f 126/196/164 132/198/180 134/198/179
f 135/207/119 136/208/119 137/209/119
f 138/207/181 139/209/78 140/208/181
f 141/210/119 131/200/119 142/211/119
f 141/210/119 132/202/182 131/200/119
f 134/202/183 141/210/183 143/210/183
f 134/202/183 132/202/183 141/210/183
f 133/200/78 143/210/78 144/211/181
f 133/200/78 134/202/80 143/210/78
f 133/200/184 142/211/184 131/200/185
f 133/200/184 144/211/184 142/211/184
f 133/212/113 132/213/113 134/213/113
f 133/212/113 131/212/186 132/213/113
f 145/214/119 146/215/119 147/216/119
f 145/214/119 148/217/119 146/215/119
f 149/216/12 146/215/12 150/215/12
f 149/216/12 147/216/12 146/215/12
f 149/216/78 151/217/78 152/214/78
f 149/216/78 150/215/78 151/217/78
f 151/217/187 145/214/187 152/214/188
f 151/217/187 148/217/189 145/214/187
f 152/214/113 147/216/113 149/216/113
f 152/214/113 145/214/186 147/216/113
f 153/218/190 154/219/191 155/220/192
f 153/218/190 156/221/190 154/219/191
f 138/207/193 136/208/193 135/207/194
f 138/207/193 140/208/193 136/208/193
f 139/222/195 155/220/192 154/219/191
f 139/222/195 137/223/196 155/220/192
f 139/209/78 156/224/78 140/208/181
f 139/209/78 154/225/78 156/224/78
f 153/224/119 137/209/119 136/208/119
f 153/224/119 155/225/119 137/209/119
f 156/224/83 136/208/83 140/208/83
f 156/224/83 153/224/83 136/208/83
f 157/196/197 158/202/198 159/201/199
f 160/199/200 161/200/201 162/197/202
f 157/196/203 163/195/204 162/197/202
f 157/196/203 164/198/205 163/195/204
f 162/197/202 165/195/206 160/199/200
f 162/197/202 163/195/173 165/195/206
f 165/195/83 164/198/83 166/198/85
f 165/195/83 163/195/126 164/198/83
f 161/200/201 159/201/207 158/202/208
f 161/200/201 160/199/200 159/201/207
f 161/200/201 157/196/203 162/197/202
f 161/200/201 158/202/209 157/196/203
f 165/195/210 159/201/207 160/199/200
f 165/195/210 166/198/211 159/201/207
f 166/198/212 157/196/197 159/201/199
f 166/198/212 164/198/213 157/196/197
f 167/208/78 168/207/78 169/209/78
f 170/209/119 171/207/122 172/208/119
f 163/200/78 173/210/78 174/211/181
f 163/200/78 164/202/80 173/210/78
f 173/210/183 166/202/183 175/210/183
f 173/210/183 164/202/183 166/202/183
f 175/210/119 165/200/119 176/211/119
f 175/210/119 166/202/182 165/200/119
f 174/211/184 165/200/184 163/200/184
f 174/211/184 176/211/185 165/200/184
f 163/212/113 166/213/113 164/213/113
f 163/212/113 165/212/186 166/213/113
f 177/215/78 178/214/78 179/216/78
f 177/215/78 180/217/78 178/214/78
f 179/216/12 181/215/12 177/215/12
f 179/216/12 182/216/12 181/215/12
f 183/217/119 182/216/119 184/214/119
f 183/217/119 181/215/119 182/216/119
f 180/217/187 184/214/187 178/214/188
f 180/217/187 183/217/189 184/214/187
f 178/214/113 182/216/113 179/216/113
f 178/214/113 184/214/186 182/216/113
f 185/219/214 186/218/190 187/220/214
f 185/219/214 188/221/190 186/218/190
f 172/208/193 168/207/193 167/208/193
f 172/208/193 171/207/193 168/207/193
f 169/223/195 185/219/214 187/220/214
f 169/223/195 170/222/196 185/219/214
f 188/224/119 170/209/119 172/208/119
f 188/224/119 185/225/119 170/209/119
f 169/209/78 186/224/78 167/208/78
f 169/209/78 187/225/78 186/224/78
f 167/208/83 188/224/83 172/208/83
f 167/208/83 186/224/83 188/224/83

