<?xml version="1.0" encoding="UTF-8"?>
<COLLADA xmlns="http://www.collada.org/2008/03/COLLADASchema" version="1.5.0">
	<asset>
		<contributor>
			<authoring_tool>CINEMA4D 20.057 COLLADA Exporter</authoring_tool>
		</contributor>
		<created>2019-09-15T10:39:03Z</created>
		<modified>2019-09-15T10:39:03Z</modified>
		<unit/>
		<up_axis>Y_UP</up_axis>
	</asset>
	<library_images>
		<image id="ID3">
			<init_from>
				<ref>Museum_Curator.png</ref>
			</init_from>
		</image>
	</library_images>
	<library_effects>
		<effect id="ID2">
			<profile_COMMON>
				<newparam sid="ID4">
					<sampler2D>
						<instance_image url="#ID3"/>
					</sampler2D>
				</newparam>
				<technique sid="COMMON">
					<blinn>
						<diffuse>
							<texture texture="ID4" texcoord="UVSET0"/>
						</diffuse>
					</blinn>
				</technique>
			</profile_COMMON>
		</effect>
	</library_effects>
	<library_materials>
		<material id="ID1" name="material">
			<instance_effect url="#ID2"/>
		</material>
	</library_materials>
	<library_geometries>
		<geometry id="ID20">
			<mesh>
				<source id="ID21">
					<float_array id="ID22" count="594" digits="2490374">3.15 0.05 -1.35 3.15 0.05 3.25 4.85 5.4 -3.25 -3.15 0.05 -1.35 -4.85 5.4 -3.25 -3.15 0.05 3.25 1.4 12.95 0.4 0 10.1 -2 1.4 10.1 0.4 0 13.65 -2 -1.4 12.95 0.4 -1.4 10.1 0.4 4 4.9 5.4 -4 4.9 5.4 -4.45 6.55 3.15 3.55 10.1 -2.55 -3.55 10.1 0.9 -3.55 10.1 -2.5 3.55 10.1 0.9 4.45 6.55 3.15 -4.55 10.5 2.5 -5.3 18.3 2.65 -4.2 15.3 2.25 -4.35 16.7 0.1 4.55 10.5 2.5 4.15 15.15 2.25 5.3 18.3 2.65 4.35 16.7 0.1 0 13.2 5.25 0 14.1 4.8 0.45 12.9 4.25 -0.45 12.9 4.25 0 10.5 3.4 3.35 12.5 2.8 2.75 11.95 -2.05 0 13.35 4.7 -6.75 18.85 3.85 -4.6 21.55 2.2 -1.8 19.55 3.7 -3.35 12.5 2.8 -4.9 18.35 -0.1 -2.75 11.95 -2.05 -4.5 16.75 2.8 0 19.85 -6.15 0 16.7 -7.3 4.45 18.3 -4.05 0 18.3 5.25 0 19.95 5.05 5.3 18.3 2.65 -4.45 18.3 -4.05 -3.9 21.65 -3.55 0 12.75 -5.1 -5.3 18.3 2.65 6.25 20.9 2.9 0 20.75 6.05 3.2 24.4 4.2 6.55 18.65 2.95 5.55 18.75 -4.15 5.45 20.75 -4.05 -4.6 21.65 2.25 -3.9 24.35 1.7 2.2 24.3 -5.3 -3.7 24.4 -2.65 0 21.15 -7 -5.45 22.6 2.5 -4.9 23.05 -3.35 3.6 7 0.7 3.6 9.8 0.7 7.2 8.4 0.7 7.2 8.4 -2.05 3.6 9.8 -2.05 3.6 7 -2.05 8 -0.3 -2.05 8 -0.3 0.7 5.3 -0.3 0.7 5.3 -0.3 -2.05 6.25 -15.2 -2.65 9.1 -13.35 -3.2 3.9 -13.05 -3.05 6.45 -15.15 2.15 4.1 -12.75 1.95 9.05 -13.45 2.5 8.2 -8.95 -2.25 5.3 -0.1 -2.05 5.1 -9.45 -2.25 8 -0.1 -2.05 5.1 -9.45 0.8 5.3 -0.1 0.7 8.2 -8.95 0.8 8 -0.1 0.7 -3.6 9.8 0.7 -3.6 7 0.7 -7.2 8.4 0.7 -3.6 9.8 -2.05 -7.2 8.4 -2.05 -3.6 7 -2.05 -8 -0.3 -2.05 -8 -0.3 0.7 -5.3 -0.3 -2.05 -5.3 -0.3 0.7 -9.1 -13.35 -3.2 -6.25 -15.2 -2.65 -3.9 -13.05 -3.05 -4.1 -12.75 1.95 -6.45 -15.15 2.15 -9.05 -13.45 2.5 -5.3 -0.1 -2.05 -8.2 -8.95 -2.25 -5.1 -9.45 -2.25 -8 -0.1 -2.05 -5.1 -9.45 0.8 -5.3 -0.1 0.7 -8.2 -8.95 0.8 -8 -0.1 0.7 -3.15 0.05 -1.35 5 -3.8 -3.45 3.15 0.05 -1.35 -5 -3.8 -3.45 5 -3.8 4.1 3.15 0.05 3.25 -5 -3.8 4.1 -3.15 0.05 3.25 -0.95 -6.85 -2.45 0.95 -6.85 2.95 0.95 -6.85 -2.45 -0.95 -6.85 2.95 5 -3.35 3.4 5.85 -6.4 3.4 0.4 -4.8 3.45 5 -3.35 -2.95 0.4 -4.9 -3.9 5.85 -6.4 -3.65 5.75 -21.05 -2.4 5.75 -21.05 3.1 0.45 -21.05 -2.4 0.45 -21.05 3.1 5.75 -37.8 -2.6 5.75 -42.75 -3.3 5.75 -37.85 2.95 0.45 -37.8 -2.6 0.45 -37.85 2.95 0.45 -42.75 -3.3 5.75 -31.35 2.95 5.75 -21.05 -2.4 5.75 -31.35 -2.6 5.75 -21.05 3.1 0.45 -21.05 3.1 0.45 -31.35 2.95 0.45 -21.05 -2.4 0.45 -31.35 -2.6 6.2 -31.15 -3.2 6.2 -37.95 3.55 6.2 -31.15 3.55 6.2 -37.95 -3.25 0.05 -31.15 3.55 0.05 -37.95 3.55 0.05 -37.95 -3.25 0.05 -31.15 -3.2 5.75 -42.75 9.1 0.45 -40.15 8.65 5.75 -40.15 8.65 0.45 -42.75 9.1 -5.85 -6.4 3.4 -5 -3.35 3.4 -0.4 -4.8 3.45 -0.4 -4.9 -3.9 -5 -3.35 -2.95 -5.85 -6.4 -3.65 -5.75 -21.05 -2.4 -5.75 -21.05 3.1 -0.45 -21.05 -2.4 -0.45 -21.05 3.1 -5.75 -42.75 -3.3 -5.75 -37.8 -2.6 -5.75 -37.85 2.95 -0.45 -37.85 2.95 -0.45 -37.8 -2.6 -0.45 -42.75 -3.3 -5.75 -21.05 -2.4 -5.75 -31.35 2.95 -5.75 -31.35 -2.6 -5.75 -21.05 3.1 -0.45 -21.05 3.1 -0.45 -31.35 2.95 -0.45 -21.05 -2.4 -0.45 -31.35 -2.6 -6.2 -37.95 3.55 -6.2 -31.15 -3.2 -6.2 -31.15 3.55 -6.2 -37.95 -3.25 -0.05 -37.95 3.55 -0.05 -31.15 3.55 -0.05 -37.95 -3.25 -0.05 -31.15 -3.2 -0.45 -40.15 8.65 -5.75 -42.75 9.1 -5.75 -40.15 8.65 -0.45 -42.75 9.1</float_array>
					<technique_common>
						<accessor count="198" source="#ID22" stride="3">
							<param name="X" type="float"/>
							<param name="Y" type="float"/>
							<param name="Z" type="float"/>
						</accessor>
					</technique_common>
				</source>
				<source id="ID23">
					<float_array id="ID24" count="600" digits="2490374">0.32982 -0.682506 -0.65223 0.664147 -0.707117 0.242682 0.99611 -0.0798033 0.0373592 -0.322138 -0.8915 -0.31852 -0.996106 -0.0798466 0.0373673 -0.673895 -0.579709 0.458044 0.863779 0 -0.503871 0.863779 0 -0.503871 -0.863779 0 -0.503871 -0.863779 0 -0.503871 0 0 1 0 0.257457 0.96629 -0.998653 0.0312158 0.0414372 -0.979367 -0.195061 0.0528289 0 -0.17541 -0.984496 -0.00238655 -0.0108445 -0.999938 0.610173 0.792259 0.00400162 -0.316373 0.907695 0.275675 -0.788051 0.615588 0.00517845 0.320293 0.765405 0.558182 0 0.682718 0.730682 -0.00348369 0.151505 -0.98845 -0.00696721 0.145422 -0.989345 0.998653 0.0312492 0.0414311 0.979367 -0.195061 0.0528289 0.863973 -0.0368424 0.502189 0.388567 0.0196467 0.921211 -0.950019 -0.0855742 -0.300235 -0.868508 -0.0481874 0.493328 -0.371876 0.017909 0.92811 0.950019 -0.0855742 -0.300235 -0.982955 -0.093079 -0.158541 0.989659 -0.0784184 -0.120109 0.91616 0.179249 0.358498 -0.91616 0.179249 0.358498 0 -0.957826 0.287348 -3.17508e-08 -0.917618 0.397463 0.66134 -0.42811 0.615915 0.622388 -0.703504 -0.343098 -1.67068e-08 -0.269773 0.962924 0.0160521 0.0996794 0.99489 -0.0526699 0.550929 0.832889 -0.66134 -0.42811 0.615915 -0.902365 -0.151564 -0.403441 -0.815615 0.386157 -0.430877 -0.622388 -0.703504 -0.343098 0.0810084 -0.374954 0.923497 -0.720732 -0.644207 -0.256013 -0.22242 -0.0388038 -0.974178 -2.69068e-08 -0.206612 -0.978423 0.567354 -0.487566 -0.663618 5.59795e-09 -0.0424712 0.999098 -0.239912 -0.250559 0.937903 0.583784 -0.672045 0.455578 -0.855729 0.0376411 -0.516053 -0.807541 -0.22198 -0.546445 -5.07936e-08 -0.731623 -0.68171 -0.873489 -0.0498729 0.484283 0.899944 0.24898 0.357923 -0.115771 -0.25518 0.959938 0.446073 0.806676 0.387676 0.65811 -0.563093 0.499818 0.737043 -0.497701 -0.457232 0.798521 0.369306 -0.475371 -0.903177 -0.343336 0.257664 -0.391581 0.876414 0.280291 0.238873 0.870996 -0.429309 -0.376395 0.828544 -0.414538 -0.090366 -0.0738005 -0.99317 -0.900635 -0.0113836 0.434427 -0.920052 0.0884738 -0.381676 0 0 -1 0.995799 0.0915677 -0 0.903728 0.428107 -0 0.660581 0.750755 -0 0.995799 0.0915677 -0 -1 0 -0 -0.993463 -0.11415 -0 0.362446 0.932005 -0 0.362446 0.932005 -0 0 -1 -0 -0.400719 -0.916201 -0 -0.801438 -0.598078 -0 -0.0995997 -0.96132 -0.256797 0.773598 -0.147763 -0.616208 -0.0321101 0.0717 -0.996909 -0.114483 -0.0293483 0.992992 -0.0763963 0.222905 0.971842 -0.0866152 0.160095 0.983294 -0.0142046 0.1207 -0.992587 -0.0017306 0.0220263 -0.999756 -0.0202694 0.12567 -0.991865 0 0.0225931 -0.999745 -0.999771 0.0213855 -0 -0.993725 0.111849 -0 -0.977722 0.209805 0.00647614 -0.999771 0.0213855 -0 -0.0285976 0.179958 0.983259 -0.0289961 0.179776 0.98328 0.990408 0.138113 0.00399485 0.812847 -0.582457 -0.00477076 0.99662 0.0821536 -0 -0.969493 -0.24225 0.0373801 -0.967313 -0.247865 0.0535644 -0.000865451 0.0110152 0.999939 0 0.0112987 0.999936 0.999745 0.0225931 -0 0.999745 0.0225931 0 -0.108266 -0.994011 0.0148654 0 1 -0 -0.798618 0.601838 -0 -0.995799 0.0915677 -0 -0.995799 0.0915677 -0 1 0 -0 0.997104 -0.0760443 -0 0.988367 -0.152089 -0 -0.362446 0.932005 -0 -0.362446 0.932005 -0 0.621768 -0.783201 -0 -0.773598 -0.147763 -0.616208 0.0995998 -0.96132 -0.256797 0.0321101 0.0716999 -0.996909 0.0763963 0.222905 0.971842 0.114483 -0.0293483 0.992992 0.0866152 0.160095 0.983294 0.0017306 0.0220263 -0.999756 0.0142046 0.1207 -0.992587 0.0202694 0.12567 -0.991865 0.993725 0.111849 -0 0.999771 0.0213855 -0 0.977722 0.209805 0.00647614 0.999771 0.0213855 -0 0.0285976 0.179958 0.983258 0.0289961 0.179776 0.98328 -0.990408 0.138113 0.00399485 -0.812847 -0.582457 -0.00477075 -0.99662 0.0821536 -0 0.969494 -0.24225 0.0373801 0.967313 -0.247865 0.0535644 0.000865451 0.0110152 0.999939 -0.999745 0.0225931 -0 -0.999745 0.0225931 -0 0.108266 -0.994011 0.0148654 -0.476589 0.746584 -0.464193 0.607006 -0.149514 -0.780506 0.462228 0.857715 -0.225102 -0.469706 -0.159375 -0.868318 0.640976 -0.112669 0.759246 0.316658 0.65496 0.686116 -0.712333 -0.154759 0.684566 -0.304161 0.893814 0.329519 -0.286528 -0.930963 -0.226295 0.284147 -0.932967 0.220982 0.191782 -0.772105 -0.605865 -0.188953 -0.786631 0.587799 0.00999126 0.00278445 0.999946 0.00428172 -0.0130722 0.999905 0.00642264 -0.00937083 0.999936 0.445094 0.842043 -0.304721 -0.464093 0.433459 -0.772483 0.576521 0.0924864 -0.811831 0.999977 -0.00682577 -0 0.991237 0.132096 -0 0.999977 -0.00682577 -0 0.0101179 -0.0887129 -0.996006 0 -0.0850153 -0.99638 -0.809863 0.586606 -0.00397919 -0.300635 0.953739 -0 0.963291 0.268458 -0 -0.999995 -0.00308448 2.10343e-05 -0.999995 -0.00307691 -0 0.0014265 -0.0209991 0.999779 0 -0.0204735 0.99979 0 -0.0145615 0.999894 0 0.0194138 -0.999812 0 0.00735273 -0.999973 0 0.00735273 -0.999973 0 0.170542 0.98535 0 0.475785 0.879562 0 0.759661 0.650319 0 0.140021 -0.990149 0 0.92735 0.374194 0 0.92735 0.374194 -0.00428172 -0.0130722 0.999905 -0.00999126 0.00278445 0.999946 -0.00642264 -0.00937083 0.999936 0.464093 0.433459 -0.772483 -0.445094 0.842043 -0.304721 -0.576521 0.0924864 -0.811831 -0.991237 0.132096 -0 -0.999977 -0.00682577 -0 -0.999977 -0.00682577 -0 -0.0101179 -0.0887129 -0.996006 0.809863 0.586606 -0.00397919 0.300635 0.953739 -0 -0.963291 0.268458 -0 0.999995 -0.00308448 2.10344e-05 0.999995 -0.00307691 -0 -0.0014265 -0.0209991 0.999779 0 0.628267 0.777998</float_array>
					<technique_common>
						<accessor count="200" source="#ID24" stride="3">
							<param name="X" type="float"/>
							<param name="Y" type="float"/>
							<param name="Z" type="float"/>
						</accessor>
					</technique_common>
				</source>
				<source id="ID25">
					<float_array id="ID26" count="450" digits="2490374">0.466667 0.590551 0.392157 0.590551 0.498039 0.80315 0.431373 0.622047 0.470588 0.653543 0.431373 0.653543 0.470588 0.614173 0.156863 0.503937 0.164706 0.480315 0.164706 0.503937 0.156863 0.480315 0.333333 0.598425 0.215686 0.787402 0.231373 0.598425 0.345098 0.787402 0.396078 0.850394 0.360784 0.787402 0.670588 0.425197 0.643137 0.740157 0.643137 0.755906 0.603922 0.629921 0.65098 0.653543 0.6 0.740157 0.223529 1 0.352941 0.850394 0.337255 1 0.211765 0.850394 0.486275 1 0.431373 1 0.137255 0.0393701 0.172549 0.338583 0.152941 0.228346 0.180392 0.259843 0.0313726 0.417323 0.027451 0.417323 0.0156863 0.425197 0.0235294 0.393701 0.0941176 0.417323 0.0901961 0.393701 0.101961 0.417323 0.772549 0.96063 0.764706 0.874016 0.72549 0.96063 0 0.96063 0.0588235 0.92126 0.0588235 0.992126 0.192157 0.590551 0.2 0.566929 0.2 0.401575 0.0392157 0.543307 0.101961 0.448819 0.101961 0.590551 0.145098 0.913386 0.176471 0.976378 0.184314 0.929134 0.168627 0.543307 0.192157 0.905512 0.666667 0.165354 0.6 0.212598 0.635294 0.0472441 0.643137 0.141732 0.160784 0.165354 0.172549 0.0866143 0.141176 0.125984 0.101961 0.834646 0.101961 0.913386 0 0.834646 0.137255 0.212598 0.2 0.299213 0.176471 0.188976 0.137255 0.0629922 0.152941 0.23622 0.160784 0.0866143 0.12549 0.00787401 0.00392157 0.425197 0.180392 0.425197 0 0.0393701 0.207843 0.834646 0.521569 0.905512 0.607843 0.834646 0.580392 1 0.505882 0.834646 0.517647 0.826772 0.529412 0.897638 1 0.283465 0.796078 0.559055 0.784314 0.283465 0.988235 0.559055 0.678431 0.913386 0.592157 0.984252 0.678431 0.92126 0.192157 1 0.533333 0.795276 0.607843 0.84252 0.603922 0.795276 0.521569 0.80315 0.678431 0.811024 0.603922 0.80315 0.694118 0.834646 0.686275 0.858268 0.666667 0.818898 0.513726 0.653543 0.517647 0.779528 0.580392 0.700787 0.686275 0.503937 0.745098 0.582677 0.74902 0.456693 0.584314 0.307087 0.541176 0.700787 0.584314 0.700787 0.541176 0.307087 0.607843 0.779528 0.607843 0.653543 0.65098 0.779528 0.592157 0.976378 0.580392 0.944882 0.54902 0.984252 0.623529 0.937008 0.588235 0.417323 0.592157 0.417323 0.556863 0.417323 0.623529 0.417323 0.607843 0.322835 0.65098 0.322835 0.580392 0.307087 0.529412 0.322835 0.686275 0.110236 0.733333 0.125984 0.952941 0.748031 1 0.826772 0.917647 0.834646 0.760784 0.748031 0.8 0.850394 0.721569 0.818898 0.643137 0.330709 0.643137 0.464567 0.631373 0.330709 0.65098 0.456693 0.603922 0.338583 0.619608 0.464567 0.733333 1 0.784314 0.984252 0.772549 0.976378 0.733333 0.929134 0.776471 0.929134 0.745098 0.976378 0.894118 0.984252 0.823529 0.850394 0.905882 0.834646 0.843137 0.984252 0.556863 0.456693 0.568627 0.338583 0.580392 0.346457 0.545098 0.448819 0.529412 0.338583 0.517647 0.448819 0.898039 0.748031 0.823529 0.748031 0.733333 0.598425 0.819608 0.724409 0.72549 0.732283 0.811765 0.598425 0.988235 1 0.937255 0.984252 0.54902 0.401575 0.623529 0.385827 0.584314 0.464567 0.584314 0.322835 0.239216 0.283465 0.372549 0.125984 0.341176 0.283465 0.207843 0.125984 0.466667 0.574803 0.380392 0.425197 0.392157 0.574803 0.498039 0.425197 0.243137 0.582677 0.376471 0.425197 0.345098 0.582677 0.211765 0.425197 0.47451 0.299213 0.443137 0.299213 0.4 0.299213 0.482353 0.299213 0.309804 0.299213 0.278431 0.299213 0.305882 0 0.27451 0 0.4 0.330709 0.4 0.385827 0.4 0.362205 0.478431 0.393701 0.447059 0.354331 0.486275 0.314961 0.462745 0.307087 0.392157 0.362205 0.478431 0.362205 0.392157 0.307087 0.482353 0.370079 0.470588 0.377953 0.392157 0.370079 0.392157 0.377953 0.403922 0.385827 0.45098 0.330709 0.454902 0.385827 0.403922 0.330709 0.992157 0.732283 1 0.582677 0.921569 0.732283 0.396078 0.330709 0.470588 0.330709 0.454902 0.354331 0.368627 0.354331 0.490196 0.283465 0.384314 0.015748 0.384314 0.283465 0.490196 0.015748 0.505882 0 0.588235 0.102362 0.505882 0.102362 0.588235 0 0.588235 0.275591 0.505882 0.275591 0.839216 0.582677 0.847059 0.669291</float_array>
					<technique_common>
						<accessor count="225" source="#ID26" stride="2">
							<param name="S" type="float"/>
							<param name="T" type="float"/>
						</accessor>
					</technique_common>
				</source>
				<vertices id="ID27">
					<input semantic="POSITION" source="#ID21"/>
				</vertices>
				<polylist count="297" material="Material1">
					<input offset="0" semantic="VERTEX" source="#ID27" set="0"/>
					<input offset="1" semantic="NORMAL" source="#ID23" set="0"/>
					<input offset="2" semantic="TEXCOORD" source="#ID25" set="0"/>
					<vcount>3 3 3 3 3 3 3 3 3 3 3 3 3 3 3 3 3 3 3 3 3 3 3 3 3 3 3 3 3 3 3 3 3 3 3 3 3 3 3 3 3 3 3 3 3 3 3 3 3 3 3 3 3 3 3 3 3 3 3 3 3 3 3 3 3 3 3 3 3 3 3 3 3 3 3 3 3 3 3 3 3 3 3 3 3 3 3 3 3 3 3 3 3 3 3 3 3 3 3 3 3 3 3 3 3 3 3 3 3 3 3 3 3 3 3 3 3 3 3 3 3 3 3 3 3 3 3 3 3 3 3 3 3 3 3 3 3 3 3 3 3 3 3 3 3 3 3 3 3 3 3 3 3 3 3 3 3 3 3 3 3 3 3 3 3 3 3 3 3 3 3 3 3 3 3 3 3 3 3 3 3 3 3 3 3 3 3 3 3 3 3 3 3 3 3 3 3 3 3 3 3 3 3 3 3 3 3 3 3 3 3 3 3 3 3 3 3 3 3 3 3 3 3 3 3 3 3 3 3 3 3 3 3 3 3 3 3 3 3 3 3 3 3 3 3 3 3 3 3 3 3 3 3 3 3 3 3 3 3 3 3 3 3 3 3 3 3 3 3 3 3 3 3 3 3 3 3 3 3 3 3 3 3 3 3 3 3 3 3 3 3 3 3 3 3 3 3</vcount>
					<p>2 2 2 1 1 1 0 0 0 5 5 1 4 4 2 3 3 0 8 7 5 7 6 4 6 6 3 7 6 4 9 6 6 6 6 3 9 8 6 7 8 4 10 8 3 7 8 4 11 9 5 10 8 3 11 10 5 8 10 5 10 10 3 8 10 5 6 10 3 10 10 3 0 0 9 1 1 8 3 3 7 1 1 8 5 5 10 3 3 7 1 1 13 12 11 12 5 5 11 12 11 12 13 11 14 5 5 11 4 4 2 5 5 1 14 12 15 5 5 1 13 13 16 14 12 15 3 3 17 4 14 18 0 0 17 4 14 18 2 15 18 0 0 17 17 18 21 16 17 20 15 16 19 16 17 20 18 19 22 15 16 19 16 17 25 14 20 24 18 19 23 14 20 24 19 20 26 18 19 23 4 4 2 14 12 15 17 18 27 14 12 15 16 17 28 17 18 27 4 14 2 17 21 27 2 15 2 17 21 27 15 22 27 2 15 2 19 20 26 14 20 24 12 11 12 14 20 24 13 11 14 12 11 12 2 2 2 15 16 27 19 23 15 15 16 27 18 19 28 19 23 15 2 2 2 19 23 15 1 1 1 19 23 15 12 24 16 1 1 1 22 25 31 21 26 30 20 25 29 20 27 29 21 27 30 23 27 32 26 29 35 25 28 34 24 28 33 26 30 35 24 30 33 27 30 36 27 31 36 24 28 33 25 28 34 20 25 39 23 32 38 22 25 37 30 33 42 29 33 41 28 33 40 29 34 41 31 34 42 28 34 40 31 35 45 30 35 44 28 35 43 34 38 48 33 37 47 32 36 46 35 39 51 32 36 50 33 37 49 38 40 54 37 41 53 36 40 52 39 42 55 32 36 50 35 39 51 37 44 53 40 43 56 36 43 52 32 36 46 39 42 47 41 45 48 42 46 59 38 40 58 36 40 57 40 43 60 42 47 59 36 43 57 45 50 63 44 49 62 43 48 61 48 53 66 47 52 65 46 51 64 50 55 67 43 48 61 49 54 63 43 48 61 44 49 62 49 54 63 32 36 46 41 45 48 34 38 48 41 45 48 51 56 68 34 38 48 45 50 71 34 38 70 44 49 69 34 38 70 51 56 72 44 49 69 45 50 75 48 53 74 34 38 73 48 53 74 33 37 76 34 38 73 48 53 66 46 51 64 33 37 49 46 51 64 35 39 51 33 37 49 52 57 77 39 42 55 46 51 64 39 42 55 35 39 51 46 51 64 55 60 80 54 59 79 53 58 78 54 59 79 56 61 81 53 58 78 56 61 81 57 62 82 53 58 78 57 62 82 58 63 83 53 58 78 49 54 71 44 49 69 41 45 70 44 49 69 51 56 72 41 45 70 52 57 86 59 64 85 49 54 84 59 64 85 50 55 87 49 54 84 55 60 80 61 66 89 60 65 88 61 66 89 62 67 90 60 65 88 61 66 89 55 60 80 58 63 83 55 60 80 53 58 78 58 63 83 59 64 91 52 57 77 47 52 65 52 57 77 46 51 64 47 52 65 43 48 94 63 68 93 45 50 92 63 68 93 57 62 82 45 50 92 56 61 81 48 53 95 57 62 82 48 53 95 45 50 92 57 62 82 47 52 97 54 59 79 59 64 96 54 59 79 64 69 98 59 64 96 47 52 97 48 53 95 54 59 79 48 53 95 56 61 81 54 59 79 50 55 100 59 64 96 65 70 99 59 64 96 64 69 98 65 70 99 43 48 94 50 55 100 63 68 93 50 55 100 65 70 99 63 68 93 61 66 89 63 68 93 62 67 90 63 68 93 65 70 99 62 67 90 55 60 80 60 65 88 54 59 79 60 65 88 64 69 98 54 59 79 64 69 98 60 65 88 65 70 99 60 65 88 62 67 90 65 70 99 61 66 89 58 63 83 63 68 93 58 63 83 57 62 82 63 68 93 49 54 75 41 45 73 52 57 74 41 45 73 39 42 76 52 57 74 68 10 103 67 10 102 66 10 101 71 71 106 70 71 105 69 71 104 69 74 109 68 73 108 72 72 107 68 73 108 73 75 110 72 72 107 71 77 112 66 77 21 70 76 111 66 77 21 67 76 113 70 76 111 70 79 116 67 78 115 69 74 114 67 78 115 68 73 117 69 74 114 73 80 120 74 81 119 72 80 118 74 81 119 75 82 121 72 80 118 71 77 112 75 82 122 66 77 21 75 82 122 74 81 123 66 77 21 68 10 103 66 10 101 73 10 124 66 10 101 74 10 125 73 10 124 69 71 104 72 71 126 71 71 106 72 71 126 75 71 127 71 71 106 78 85 130 77 84 129 76 83 128 81 88 133 80 87 132 79 86 131 84 91 136 83 90 135 82 89 134 83 90 135 85 92 137 82 89 134 84 95 136 86 94 138 83 93 135 86 94 138 87 96 139 83 93 135 81 88 133 88 97 140 80 87 132 88 97 140 86 98 141 80 87 132 81 100 144 77 84 143 88 99 142 77 84 143 82 101 145 88 99 142 78 103 148 80 102 147 84 95 146 80 102 147 86 94 149 84 95 146 86 98 152 88 97 151 87 104 150 88 97 151 89 105 153 87 104 150 88 99 151 82 101 154 89 106 153 82 101 154 85 107 155 89 106 153 79 108 157 80 102 147 76 83 156 80 102 147 78 103 148 76 83 156 77 84 160 81 100 159 76 83 158 81 100 159 79 108 161 76 83 158 77 84 129 78 85 130 82 89 162 78 85 130 84 91 163 82 89 162 85 109 166 83 109 165 89 109 164 83 109 165 87 109 167 89 109 164 92 10 103 91 10 101 90 10 102 95 71 106 94 71 104 93 71 105 94 110 109 96 111 107 92 110 108 96 111 107 97 112 110 92 110 108 91 115 21 95 114 112 90 113 113 95 114 112 93 113 111 90 113 113 90 117 115 93 116 116 92 110 117 93 116 116 94 110 114 92 110 117 99 118 119 97 80 120 98 118 121 97 80 120 96 80 118 98 118 121 95 114 112 91 115 21 98 118 122 91 115 21 99 118 123 98 118 122 92 10 103 97 10 124 91 10 101 97 10 124 99 10 125 91 10 101 94 71 104 95 71 106 96 71 126 95 71 106 98 71 127 96 71 126 102 121 130 101 120 128 100 119 129 105 124 133 104 123 131 103 122 132 108 127 136 107 126 134 106 125 135 107 126 134 109 92 137 106 125 135 108 130 136 106 129 135 110 128 138 106 129 135 111 131 139 110 128 138 105 124 133 103 122 132 112 132 140 103 122 132 110 133 141 112 132 140 105 135 144 112 134 142 100 119 143 112 134 142 107 136 145 100 119 143 102 138 148 108 130 146 103 137 147 108 130 146 110 128 149 103 137 147 110 133 152 111 139 150 112 132 151 111 139 150 113 105 153 112 132 151 112 134 151 113 140 153 107 136 154 113 140 153 109 141 155 107 136 154 104 142 157 101 120 156 103 137 147 101 120 156 102 138 148 103 137 147 100 119 160 101 120 158 105 135 159 101 120 158 104 142 161 105 135 159 100 119 129 107 126 162 102 121 130 107 126 162 108 127 163 102 121 130 106 109 165 109 109 166 111 109 167 109 109 166 113 109 164 111 109 167 116 145 170 115 144 169 114 143 168 115 144 169 117 146 171 114 143 168 119 148 174 118 147 173 116 145 172 118 147 173 115 144 175 116 145 172 121 150 178 120 149 177 119 148 176 120 149 177 118 147 179 119 148 176 117 146 175 120 149 173 114 143 172 120 149 173 121 150 174 114 143 172 119 148 174 116 145 172 121 150 174 116 145 172 114 143 172 121 150 174 124 153 181 123 152 181 122 151 180 123 152 181 125 154 180 122 151 180 124 153 183 115 144 175 123 152 182 115 144 175 118 147 173 123 152 182 120 149 177 125 154 184 118 147 179 125 154 184 123 152 185 118 147 179 125 154 182 120 149 173 122 151 183 120 149 173 117 146 175 122 151 183 115 144 169 124 153 186 117 146 171 124 153 186 122 151 187 117 146 171 128 157 190 127 156 189 126 155 188 131 160 193 130 159 192 129 158 191 131 160 196 127 162 195 132 161 194 127 162 195 133 163 197 132 161 194 130 159 198 131 160 196 134 164 194 131 160 196 132 165 194 134 164 194 133 80 197 135 80 197 132 80 194 135 80 197 134 80 194 132 80 194 130 159 198 128 166 200 129 158 199 128 166 200 126 167 201 129 158 199 131 160 204 129 158 203 127 162 202 129 158 203 126 168 205 127 162 202 130 159 198 134 169 194 128 166 200 134 169 194 135 170 197 128 166 200 128 157 200 135 171 197 127 156 195 135 171 197 133 172 197 127 156 195 138 113 208 137 113 207 136 113 206 141 76 207 140 76 208 139 76 206 144 113 210 143 113 199 142 113 209 143 113 199 145 113 201 142 113 209 147 173 209 142 173 209 146 173 201 142 173 209 145 173 201 146 173 201 149 76 210 147 76 209 148 76 199 147 76 209 146 76 201 148 76 199 143 174 199 144 174 210 148 174 199 144 174 210 149 174 210 148 174 199 146 109 212 145 109 212 148 109 211 145 109 212 143 109 211 148 109 211 152 113 215 151 113 214 150 113 213 151 113 214 153 113 216 150 113 213 155 10 214 151 10 214 154 10 215 151 10 214 152 10 215 154 10 215 157 76 213 156 76 216 154 76 215 156 76 216 155 76 214 154 76 215 157 176 213 150 175 213 156 175 216 150 175 213 153 176 216 156 175 216 154 109 215 152 109 215 157 109 213 152 109 215 150 109 213 157 109 213 160 179 219 159 178 218 158 177 217 159 178 218 161 177 220 158 177 217 136 180 206 137 180 207 139 180 206 137 180 207 141 180 207 139 180 206 159 178 218 160 179 219 140 181 221 160 179 219 138 182 222 140 181 221 141 76 207 161 76 223 140 76 208 161 76 223 159 76 224 140 76 208 137 113 207 138 113 208 158 113 223 138 113 208 160 113 224 158 113 223 141 80 207 137 80 207 161 80 223 137 80 207 158 80 223 161 80 223 164 185 200 163 184 201 162 183 195 167 188 196 166 187 199 165 186 198 167 188 196 168 190 194 162 189 195 168 190 194 169 191 197 162 189 195 165 186 198 170 192 194 167 188 196 170 192 194 168 165 194 167 188 196 171 80 197 169 80 197 170 80 194 169 80 197 168 80 194 170 80 194 163 194 201 164 193 200 166 187 199 164 193 200 165 186 198 166 187 199 167 188 196 162 189 195 166 187 199 162 189 195 163 195 201 166 187 199 165 186 198 164 193 200 170 196 194 164 193 200 171 197 197 170 196 194 164 185 200 162 183 195 171 198 197 162 183 195 169 172 197 171 198 197 174 76 208 173 76 206 172 76 207 177 113 207 176 113 206 175 113 208 180 76 210 179 76 209 178 76 199 179 76 209 181 76 201 178 76 199 183 173 209 182 173 201 179 173 209 182 173 201 181 173 201 179 173 209 185 113 210 184 113 199 183 113 209 184 113 199 182 113 201 183 113 209 178 174 199 184 174 199 180 174 210 184 174 199 185 174 210 180 174 210 181 109 212 182 109 212 178 109 211 182 109 212 184 109 211 178 109 211 188 76 215 187 76 213 186 76 214 187 76 213 189 76 216 186 76 214 186 10 214 190 10 214 188 10 215 190 10 214 191 10 215 188 10 215 193 113 213 191 113 215 192 113 216 191 113 215 190 113 214 192 113 216 187 176 213 193 175 213 189 175 216 193 175 213 192 176 216 189 175 216 188 109 215 191 109 215 187 109 213 191 109 215 193 109 213 187 109 213 196 199 219 195 177 217 194 199 218 195 177 217 197 177 220 194 199 218 172 180 207 173 180 206 177 180 207 173 180 206 176 180 206 177 180 207 196 199 219 194 199 218 174 181 222 194 199 218 175 182 221 174 181 222 177 113 207 175 113 208 197 113 223 175 113 208 194 113 224 197 113 223 172 76 207 195 76 223 174 76 208 195 76 223 196 76 224 174 76 208 177 80 207 197 80 223 172 80 207 197 80 223 195 80 223 172 80 207</p>
				</polylist>
			</mesh>
		</geometry>
	</library_geometries>
	<library_controllers>
		<controller id="ID19">
			<skin source="#ID20">
				<bind_shape_matrix>1 0 0 0 0 1 0 0 0 0 1 0 0 0 0 1</bind_shape_matrix>
				<source id="ID28">
					<Name_array id="ID29" count="11">joint1 joint11 joint9 joint10 joint7 joint8 joint2 joint5 joint6 joint3 joint4</Name_array>
					<technique_common>
						<accessor count="11" source="#ID29">
							<param name="JOINT" type="Name"/>
						</accessor>
					</technique_common>
				</source>
				<source id="ID30">
					<float_array id="ID31" count="2" digits="2490374">0 1</float_array>
					<technique_common>
						<accessor count="2" source="#ID31">
							<param name="WEIGHT" type="float"/>
						</accessor>
					</technique_common>
				</source>
				<source id="ID32">
					<float_array id="ID33" count="176" digits="2490374">1 0 0 -0 0 1 0 0 0 0 1 0 0 0 0 1 1 0 0 0 0 1 0 -9.95 0 0 1 0.25 0 0 0 1 1 -0 1.56125e-17 -4 1.20371e-35 1 3.46945e-18 -8.5 3.46945e-18 -0 1 0.75 0 0 0 1 1 0 0 -6.75 0 1 0 0.05 0 0 1 0.5 0 0 0 1 1 0 -1.56125e-17 4 -1.20371e-35 1 3.46945e-18 -8.5 -3.46945e-18 0 1 0.75 0 0 0 1 1 0 0 6.75 0 1 0 0.05 0 0 1 0.5 0 0 0 1 1 -5.55112e-17 -6.93889e-18 0 1.92593e-34 1 1.38778e-17 -0 1.38778e-17 -7.70372e-34 1 0 0 0 0 1 1 0 0 -2.5 0 1 0 4 0 0 1 -0.5 0 0 0 1 1 0 0 -2.5 0 1 0 21 0 0 1 -0.5 0 0 0 1 1 0 0 2.5 0 1 0 4 0 0 1 -0.5 0 0 0 1 1 0 0 2.5 0 1 0 21 0 0 1 -0.5 0 0 0 1</float_array>
					<technique_common>
						<accessor count="11" source="#ID33" stride="16">
							<param name="TRANSFORM" type="float4x4"/>
						</accessor>
					</technique_common>
				</source>
				<joints>
					<input semantic="JOINT" source="#ID28"/>
					<input semantic="INV_BIND_MATRIX" source="#ID32"/>
				</joints>
				<vertex_weights count="198">
					<input offset="0" semantic="JOINT" source="#ID28" set="0"/>
					<input offset="1" semantic="WEIGHT" source="#ID30" set="0"/>
					<vcount>1 1 1 1 1 1 1 1 1 1 1 1 1 1 1 1 1 1 1 1 1 1 1 1 1 1 1 1 1 1 1 1 1 1 1 1 1 1 1 1 1 1 1 1 1 1 1 1 1 1 1 1 1 1 1 1 1 1 1 1 1 1 1 1 1 1 1 1 1 1 1 1 1 1 1 1 1 1 1 1 1 1 1 1 1 1 1 1 1 1 1 1 1 1 1 1 1 1 1 1 1 1 1 1 1 1 1 1 1 1 1 1 1 1 1 1 1 1 1 1 1 1 1 1 1 1 1 1 1 1 1 1 1 1 1 1 1 1 1 1 1 1 1 1 1 1 1 1 1 1 1 1 1 1 1 1 1 1 1 1 1 1 1 1 1 1 1 1 1 1 1 1 1 1 1 1 1 1 1 1 1 1 1 1 1 1 1 1 1 1 1 1 1 1 1 1 1 1</vcount>
					<v>0 1 0 1 0 1 0 1 0 1 0 1 0 1 0 1 0 1 0 1 0 1 0 1 0 1 0 1 0 1 0 1 0 1 0 1 0 1 0 1 1 1 1 1 1 1 1 1 1 1 1 1 1 1 1 1 1 1 1 1 1 1 1 1 1 1 1 1 1 1 1 1 1 1 1 1 1 1 1 1 1 1 1 1 1 1 1 1 1 1 1 1 1 1 1 1 1 1 1 1 1 1 1 1 1 1 1 1 1 1 1 1 1 1 1 1 1 1 1 1 1 1 1 1 1 1 1 1 1 1 1 1 2 1 2 1 2 1 2 1 2 1 2 1 2 1 2 1 2 1 2 1 3 1 3 1 3 1 3 1 3 1 3 1 3 1 3 1 3 1 3 1 3 1 3 1 3 1 3 1 4 1 4 1 4 1 4 1 4 1 4 1 4 1 4 1 4 1 4 1 5 1 5 1 5 1 5 1 5 1 5 1 5 1 5 1 5 1 5 1 5 1 5 1 5 1 5 1 6 1 6 1 6 1 6 1 6 1 6 1 6 1 6 1 6 1 6 1 6 1 6 1 7 1 7 1 7 1 7 1 7 1 7 1 7 1 7 1 7 1 7 1 8 1 8 1 8 1 8 1 8 1 8 1 8 1 8 1 8 1 8 1 8 1 8 1 8 1 8 1 8 1 8 1 8 1 8 1 8 1 8 1 8 1 8 1 8 1 8 1 8 1 8 1 9 1 9 1 9 1 9 1 9 1 9 1 9 1 9 1 9 1 9 1 10 1 10 1 10 1 10 1 10 1 10 1 10 1 10 1 10 1 10 1 10 1 10 1 10 1 10 1 10 1 10 1 10 1 10 1 10 1 10 1 10 1 10 1 10 1 10 1 10 1 10 1</v>
				</vertex_weights>
			</skin>
		</controller>
	</library_controllers>
	<library_visual_scenes>
		<visual_scene id="ID5">
			<node id="ID6" name="Mesh">
				<translate sid="translate">0 0 -0</translate>
				<rotate sid="rotateY">0 1 0 -0</rotate>
				<rotate sid="rotateX">1 0 0 0</rotate>
				<rotate sid="rotateZ">0 0 1 -0</rotate>
				<scale sid="scale">1 1 1</scale>
				<instance_controller url="#ID19">
					<skeleton>#ID5</skeleton>
					<bind_material>
						<technique_common>
							<instance_material symbol="Material1" target="#ID1">
								<bind_vertex_input semantic="UVSET0" input_semantic="TEXCOORD" input_set="0"/>
							</instance_material>
						</technique_common>
					</bind_material>
				</instance_controller>
			</node>
			<node id="ID7" name="Armature">
				<translate sid="translate">0 0 -0</translate>
				<rotate sid="rotateY">0 1 0 -0</rotate>
				<rotate sid="rotateX">1 0 0 0</rotate>
				<rotate sid="rotateZ">0 0 1 -0</rotate>
				<scale sid="scale">1 1 1</scale>
				<node id="ID8" name="Bone000" sid="joint1" type="JOINT">
					<translate sid="translate">0 0 -0</translate>
					<rotate sid="rotateY">0 1 0 -0</rotate>
					<rotate sid="rotateX">1 0 0 0</rotate>
					<rotate sid="rotateZ">0 0 1 -0</rotate>
					<scale sid="scale">1 1 1</scale>
					<node id="ID9" name="Bone006" sid="joint2" type="JOINT">
						<translate sid="translate">0 0 -0</translate>
						<rotate sid="rotateY">0 1 0 -0</rotate>
						<rotate sid="rotateX">1 0 0 0</rotate>
						<rotate sid="rotateZ">0 0 1 -0</rotate>
						<scale sid="scale">1 1 1</scale>
						<node id="ID10" name="Bone009" sid="joint3" type="JOINT">
							<translate sid="translate">-2.5 -4 0.5</translate>
							<rotate sid="rotateY">0 1 0 -0</rotate>
							<rotate sid="rotateX">1 0 0 0</rotate>
							<rotate sid="rotateZ">0 0 1 -0</rotate>
							<scale sid="scale">1 1 1</scale>
							<node id="ID11" name="Bone010" sid="joint4" type="JOINT">
								<translate sid="translate">0 -17 -0</translate>
								<rotate sid="rotateY">0 1 0 -0</rotate>
								<rotate sid="rotateX">1 0 0 0</rotate>
								<rotate sid="rotateZ">0 0 1 -0</rotate>
								<scale sid="scale">1 1 1</scale>
							</node>
						</node>
						<node id="ID12" name="Bone007" sid="joint5" type="JOINT">
							<translate sid="translate">2.5 -4 0.5</translate>
							<rotate sid="rotateY">0 1 0 -0</rotate>
							<rotate sid="rotateX">1 0 0 0</rotate>
							<rotate sid="rotateZ">0 0 1 -0</rotate>
							<scale sid="scale">1 1 1</scale>
							<node id="ID13" name="Bone008" sid="joint6" type="JOINT">
								<translate sid="translate">0 -17 -0</translate>
								<rotate sid="rotateY">0 1 0 -0</rotate>
								<rotate sid="rotateX">1 0 0 0</rotate>
								<rotate sid="rotateZ">0 0 1 -0</rotate>
								<scale sid="scale">1 1 1</scale>
							</node>
						</node>
					</node>
					<node id="ID14" name="Bone004" sid="joint7" type="JOINT">
						<translate sid="translate">-4 8.5 -0.75</translate>
						<rotate sid="rotateY">0 1 0 -0</rotate>
						<rotate sid="rotateX">1 0 0 0</rotate>
						<rotate sid="rotateZ">0 0 1 -0</rotate>
						<scale sid="scale">1 1 1</scale>
						<node id="ID15" name="Bone005" sid="joint8" type="JOINT">
							<translate sid="translate">-2.75 -8.55 0.25</translate>
							<rotate sid="rotateY">0 1 0 -0</rotate>
							<rotate sid="rotateX">1 0 0 0</rotate>
							<rotate sid="rotateZ">0 0 1 -0</rotate>
							<scale sid="scale">1 1 1</scale>
						</node>
					</node>
					<node id="ID16" name="Bone002" sid="joint9" type="JOINT">
						<translate sid="translate">4 8.5 -0.75</translate>
						<rotate sid="rotateY">0 1 0 -0</rotate>
						<rotate sid="rotateX">1 0 0 0</rotate>
						<rotate sid="rotateZ">0 0 1 -0</rotate>
						<scale sid="scale">1 1 1</scale>
						<node id="ID17" name="Bone003" sid="joint10" type="JOINT">
							<translate sid="translate">2.75 -8.55 0.25</translate>
							<rotate sid="rotateY">0 1 0 -0</rotate>
							<rotate sid="rotateX">1 0 0 0</rotate>
							<rotate sid="rotateZ">0 0 1 -0</rotate>
							<scale sid="scale">1 1 1</scale>
						</node>
					</node>
					<node id="ID18" name="Bone001" sid="joint11" type="JOINT">
						<translate sid="translate">0 9.95 -0.25</translate>
						<rotate sid="rotateY">0 1 0 -0</rotate>
						<rotate sid="rotateX">1 0 0 0</rotate>
						<rotate sid="rotateZ">0 0 1 -0</rotate>
						<scale sid="scale">1 1 1</scale>
					</node>
				</node>
			</node>
		</visual_scene>
	</library_visual_scenes>
	<scene>
		<instance_visual_scene url="#ID5"/>
	</scene>
</COLLADA>
